<?xml version="1.0" standalone="no"?>
<mlt LC_NUMERIC="C" version="7.22.0" title="Shotcut version 23.11.29" producer="main_bin">
  <profile description="PAL 4:3 DV or DVD" width="1920" height="1080" progressive="1" sample_aspect_num="1" sample_aspect_den="1" display_aspect_num="16" display_aspect_den="9" frame_rate_num="25" frame_rate_den="1" colorspace="709"/>
  <chain id="chain0" in="00:00:18.240" out="00:00:41.400">
    <property name="length">00:00:59.800</property>
    <property name="eof">pause</property>
    <property name="resource">video/maron-nunupy.mp4</property>
    <property name="mlt_service">avformat-novalidate</property>
    <property name="meta.media.nb_streams">2</property>
    <property name="meta.media.0.stream.type">audio</property>
    <property name="meta.media.0.codec.sample_fmt">fltp</property>
    <property name="meta.media.0.codec.sample_rate">48000</property>
    <property name="meta.media.0.codec.channels">2</property>
    <property name="meta.media.0.codec.name">ac3</property>
    <property name="meta.media.0.codec.long_name">ATSC A/52A (AC-3)</property>
    <property name="meta.media.0.codec.bit_rate">512000</property>
    <property name="meta.attr.0.stream.creation_time.markup">2023-12-01T07:27:15.000000Z</property>
    <property name="meta.attr.0.stream.language.markup">eng</property>
    <property name="meta.attr.0.stream.handler_name.markup">SoundHandle</property>
    <property name="meta.attr.0.stream.vendor_id.markup">[0][0][0][0]</property>
    <property name="meta.media.1.stream.type">video</property>
    <property name="meta.media.1.stream.frame_rate">30</property>
    <property name="meta.media.1.stream.sample_aspect_ratio">0</property>
    <property name="meta.media.1.codec.width">1280</property>
    <property name="meta.media.1.codec.height">720</property>
    <property name="meta.media.1.codec.rotate">0</property>
    <property name="meta.media.1.codec.pix_fmt">yuv420p</property>
    <property name="meta.media.1.codec.sample_aspect_ratio">0</property>
    <property name="meta.media.1.codec.colorspace">709</property>
    <property name="meta.media.1.codec.color_trc">1</property>
    <property name="meta.media.1.codec.name">h264</property>
    <property name="meta.media.1.codec.long_name">H.264 / AVC / MPEG-4 AVC / MPEG-4 part 10</property>
    <property name="meta.media.1.codec.bit_rate">17424979</property>
    <property name="meta.attr.1.stream.creation_time.markup">2023-12-01T07:27:15.000000Z</property>
    <property name="meta.attr.1.stream.language.markup">eng</property>
    <property name="meta.attr.1.stream.handler_name.markup">VideoHandle</property>
    <property name="meta.attr.1.stream.vendor_id.markup">[0][0][0][0]</property>
    <property name="meta.attr.1.stream.encoder.markup">Lavc60.3.100 libx264</property>
    <property name="meta.attr.major_brand.markup">isom</property>
    <property name="meta.attr.minor_version.markup">512</property>
    <property name="meta.attr.compatible_brands.markup">isomdby1iso2avc1mp41</property>
    <property name="meta.attr.creation_time.markup">2023-12-01T07:27:15.000000Z</property>
    <property name="meta.attr.encoder.markup">Lavf60.3.100</property>
    <property name="seekable">1</property>
    <property name="meta.media.sample_aspect_num">1</property>
    <property name="meta.media.sample_aspect_den">1</property>
    <property name="audio_index">0</property>
    <property name="video_index">1</property>
    <property name="creation_time">2023-12-01T07:27:15</property>
    <property name="vstream">0</property>
    <property name="meta.media.frame_rate_num">30</property>
    <property name="meta.media.frame_rate_den">1</property>
    <property name="meta.media.colorspace">709</property>
    <property name="meta.media.color_trc">1</property>
    <property name="meta.media.has_b_frames">0</property>
    <property name="meta.media.width">1280</property>
    <property name="meta.media.height">720</property>
    <property name="meta.media.color_range">mpeg</property>
    <property name="astream">0</property>
    <property name="shotcut:hash">ab7652cc5bc5bb25d3b7697874af2d77</property>
    <property name="shotcut:caption">maron-nunupy.mp4</property>
    <property name="xml">was here</property>
    <property name="meta.media.top_field_first">0</property>
    <property name="meta.media.progressive">1</property>
    <property name="ignore_points">1</property>
    <property name="meta.shotcut.vui">1</property>
    <filter id="filter0" in="00:00:18.240" out="00:00:41.400">
      <property name="argument">マロンとぬぬーぴー</property>
      <property name="geometry">-6 882 1181 186 1</property>
      <property name="family">Sans</property>
      <property name="size">1080</property>
      <property name="weight">400</property>
      <property name="style">normal</property>
      <property name="fgcolour">#ffffffff</property>
      <property name="bgcolour">#00000000</property>
      <property name="olcolour">#aa000000</property>
      <property name="pad">0</property>
      <property name="halign">center</property>
      <property name="valign">bottom</property>
      <property name="outline">3</property>
      <property name="opacity">0.23</property>
      <property name="mlt_service">dynamictext</property>
      <property name="shotcut:filter">dynamicText</property>
      <property name="shotcut:usePointSize">0</property>
      <property name="shotcut:animIn">00:00:00.000</property>
      <property name="shotcut:animOut">00:00:00.000</property>
    </filter>
  </chain>
  <chain id="chain1" out="00:52:52.840">
    <property name="length">00:52:52.880</property>
    <property name="eof">pause</property>
    <property name="resource">/Users/mattsunkun/video/obs/jack-fes-2023/gazou.mp4</property>
    <property name="mlt_service">avformat-novalidate</property>
    <property name="meta.media.nb_streams">2</property>
    <property name="meta.media.0.stream.type">video</property>
    <property name="meta.media.0.stream.frame_rate">10</property>
    <property name="meta.media.0.stream.sample_aspect_ratio">1</property>
    <property name="meta.media.0.codec.width">640</property>
    <property name="meta.media.0.codec.height">480</property>
    <property name="meta.media.0.codec.rotate">0</property>
    <property name="meta.media.0.codec.pix_fmt">yuv420p</property>
    <property name="meta.media.0.codec.sample_aspect_ratio">1</property>
    <property name="meta.media.0.codec.colorspace">601</property>
    <property name="meta.media.0.codec.name">h264</property>
    <property name="meta.media.0.codec.long_name">H.264 / AVC / MPEG-4 AVC / MPEG-4 part 10</property>
    <property name="meta.media.0.codec.bit_rate">29152</property>
    <property name="meta.attr.0.stream.handler_name.markup">VideoHandler</property>
    <property name="meta.attr.0.stream.vendor_id.markup">[0][0][0][0]</property>
    <property name="meta.media.1.stream.type">audio</property>
    <property name="meta.media.1.codec.sample_fmt">fltp</property>
    <property name="meta.media.1.codec.sample_rate">11025</property>
    <property name="meta.media.1.codec.channels">1</property>
    <property name="meta.media.1.codec.name">aac</property>
    <property name="meta.media.1.codec.long_name">AAC (Advanced Audio Coding)</property>
    <property name="meta.media.1.codec.bit_rate">48228</property>
    <property name="meta.attr.1.stream.handler_name.markup">SoundHandler</property>
    <property name="meta.attr.1.stream.vendor_id.markup">[0][0][0][0]</property>
    <property name="meta.attr.major_brand.markup">isom</property>
    <property name="meta.attr.minor_version.markup">512</property>
    <property name="meta.attr.compatible_brands.markup">isomiso2avc1mp41</property>
    <property name="meta.attr.encoder.markup">Lavf59.20.101</property>
    <property name="seekable">1</property>
    <property name="meta.media.sample_aspect_num">1</property>
    <property name="meta.media.sample_aspect_den">1</property>
    <property name="audio_index">1</property>
    <property name="video_index">0</property>
    <property name="creation_time">2023-12-01T06:14:39</property>
    <property name="vstream">0</property>
    <property name="meta.media.frame_rate_num">10</property>
    <property name="meta.media.frame_rate_den">1</property>
    <property name="meta.media.colorspace">601</property>
    <property name="meta.media.color_trc">2</property>
    <property name="meta.media.has_b_frames">2</property>
    <property name="meta.media.width">640</property>
    <property name="meta.media.height">480</property>
    <property name="meta.media.color_range">mpeg</property>
    <property name="astream">0</property>
    <property name="shotcut:skipConvert">0</property>
    <property name="meta.media.top_field_first">0</property>
    <property name="meta.media.progressive">1</property>
    <property name="shotcut:hash">4a7a378e809863b33e8aa337ed4fd789</property>
    <property name="ignore_points">0</property>
    <property name="shotcut:caption">gazou.mp4</property>
    <property name="xml">was here</property>
  </chain>
  <producer id="producer0" in="00:00:00.000" out="03:59:59.960">
    <property name="length">04:00:00.000</property>
    <property name="eof">pause</property>
    <property name="resource">back/3_sep_b.png</property>
    <property name="ttl">1</property>
    <property name="aspect_ratio">1</property>
    <property name="meta.media.progressive">1</property>
    <property name="seekable">1</property>
    <property name="format">2</property>
    <property name="meta.media.width">1184</property>
    <property name="meta.media.height">664</property>
    <property name="mlt_service">qimage</property>
    <property name="text">INVALID</property>
    <property name="fgcolour">0xffffffff</property>
    <property name="bgcolour">0x00000000</property>
    <property name="olcolour">0x00000000</property>
    <property name="outline">0</property>
    <property name="align">left</property>
    <property name="pad">0</property>
    <property name="family">Sans</property>
    <property name="size">48</property>
    <property name="style">normal</property>
    <property name="weight">400</property>
    <property name="encoding">UTF-8</property>
    <property name="creation_time">2023-12-08T07:18:09</property>
    <property name="shotcut:skipConvert">0</property>
    <property name="shotcut:caption">3_sep_b.png</property>
    <property name="shotcut:hash">7cd4966b9d14bb7004f1bf1635ef5133</property>
    <property name="ignore_points">0</property>
    <property name="xml">was here</property>
  </producer>
  <producer id="producer1" in="00:00:00.000" out="03:59:59.960">
    <property name="length">04:00:00.000</property>
    <property name="eof">pause</property>
    <property name="resource">back/3_sep_b.png</property>
    <property name="ttl">1</property>
    <property name="aspect_ratio">1</property>
    <property name="meta.media.progressive">1</property>
    <property name="seekable">1</property>
    <property name="format">2</property>
    <property name="meta.media.width">1184</property>
    <property name="meta.media.height">664</property>
    <property name="mlt_service">qimage</property>
    <property name="creation_time">2023-12-08T08:23:48</property>
    <property name="shotcut:skipConvert">0</property>
    <property name="shotcut:caption">3_sep_b.png</property>
    <property name="shotcut:hash">7cd4966b9d14bb7004f1bf1635ef5133</property>
    <property name="ignore_points">0</property>
    <property name="xml">was here</property>
  </producer>
  <producer id="producer2" in="00:00:00.000" out="03:59:59.960">
    <property name="length">04:00:00.000</property>
    <property name="eof">pause</property>
    <property name="resource">back/jackkun.png</property>
    <property name="ttl">1</property>
    <property name="aspect_ratio">1</property>
    <property name="meta.media.progressive">1</property>
    <property name="seekable">1</property>
    <property name="format">2</property>
    <property name="meta.media.width">438</property>
    <property name="meta.media.height">436</property>
    <property name="mlt_service">qimage</property>
    <property name="creation_time">2023-12-08T08:56:45</property>
    <property name="shotcut:skipConvert">0</property>
    <property name="shotcut:caption">jackkun.png</property>
    <property name="shotcut:hash">3eac5fb30aaaca6b44c5b134706e7db6</property>
    <property name="ignore_points">0</property>
    <property name="xml">was here</property>
  </producer>
  <chain id="chain3" out="00:00:23.760">
    <property name="length">00:00:23.800</property>
    <property name="eof">pause</property>
    <property name="resource">video/any.mp4</property>
    <property name="mlt_service">avformat-novalidate</property>
    <property name="meta.media.nb_streams">3</property>
    <property name="meta.media.1.stream.type">audio</property>
    <property name="meta.media.1.codec.sample_fmt">fltp</property>
    <property name="meta.media.1.codec.sample_rate">48000</property>
    <property name="meta.media.1.codec.channels">2</property>
    <property name="meta.media.1.codec.name">aac</property>
    <property name="meta.media.1.codec.long_name">AAC (Advanced Audio Coding)</property>
    <property name="meta.media.1.codec.bit_rate">191937</property>
    <property name="meta.attr.1.stream.creation_time.markup">2023-12-10T05:20:28.000000Z</property>
    <property name="meta.attr.1.stream.language.markup">eng</property>
    <property name="meta.attr.1.stream.handler_name.markup">SoundHandle</property>
    <property name="meta.attr.1.stream.vendor_id.markup">[0][0][0][0]</property>
    <property name="meta.media.2.stream.type">video</property>
    <property name="meta.media.2.stream.frame_rate">29.9412</property>
    <property name="meta.media.2.stream.sample_aspect_ratio">0</property>
    <property name="meta.media.2.codec.width">1280</property>
    <property name="meta.media.2.codec.height">720</property>
    <property name="meta.media.2.codec.rotate">0</property>
    <property name="meta.media.2.codec.pix_fmt">yuv420p</property>
    <property name="meta.media.2.codec.sample_aspect_ratio">0</property>
    <property name="meta.media.2.codec.colorspace">709</property>
    <property name="meta.media.2.codec.color_trc">1</property>
    <property name="meta.media.2.codec.name">h264</property>
    <property name="meta.media.2.codec.long_name">H.264 / AVC / MPEG-4 AVC / MPEG-4 part 10</property>
    <property name="meta.media.2.codec.bit_rate">3477734</property>
    <property name="meta.attr.2.stream.creation_time.markup">2023-12-10T05:20:28.000000Z</property>
    <property name="meta.attr.2.stream.language.markup">eng</property>
    <property name="meta.attr.2.stream.handler_name.markup">VideoHandle</property>
    <property name="meta.attr.2.stream.vendor_id.markup">[0][0][0][0]</property>
    <property name="meta.attr.major_brand.markup">mp42</property>
    <property name="meta.attr.minor_version.markup">0</property>
    <property name="meta.attr.compatible_brands.markup">isommp42</property>
    <property name="meta.attr.creation_time.markup">2023-12-10T05:20:28.000000Z</property>
    <property name="meta.attr.com.android.version.markup">12</property>
    <property name="seekable">1</property>
    <property name="meta.media.sample_aspect_num">1</property>
    <property name="meta.media.sample_aspect_den">1</property>
    <property name="audio_index">1</property>
    <property name="video_index">2</property>
    <property name="creation_time">2023-12-10T05:20:28</property>
    <property name="vstream">0</property>
    <property name="meta.media.frame_rate_num">32085000</property>
    <property name="meta.media.frame_rate_den">1071599</property>
    <property name="meta.media.colorspace">709</property>
    <property name="meta.media.color_trc">1</property>
    <property name="meta.media.has_b_frames">0</property>
    <property name="meta.media.width">1280</property>
    <property name="meta.media.height">720</property>
    <property name="meta.media.color_range">mpeg</property>
    <property name="astream">0</property>
    <property name="shotcut:skipConvert">1</property>
    <property name="xml">was here</property>
    <property name="shotcut:hash">f4d230c36689c2a6f1b2bd7a1313b434</property>
  </chain>
  <chain id="chain4" out="00:10:50.560">
    <property name="length">00:10:50.600</property>
    <property name="eof">pause</property>
    <property name="resource">video/intro_fail.mp4</property>
    <property name="mlt_service">avformat-novalidate</property>
    <property name="meta.media.nb_streams">2</property>
    <property name="meta.media.0.stream.type">video</property>
    <property name="meta.media.0.stream.frame_rate">29.915</property>
    <property name="meta.media.0.stream.sample_aspect_ratio">0</property>
    <property name="meta.media.0.codec.width">1920</property>
    <property name="meta.media.0.codec.height">1080</property>
    <property name="meta.media.0.codec.rotate">0</property>
    <property name="meta.media.0.codec.pix_fmt">yuv420p</property>
    <property name="meta.media.0.codec.sample_aspect_ratio">1</property>
    <property name="meta.media.0.codec.colorspace">709</property>
    <property name="meta.media.0.codec.color_trc">1</property>
    <property name="meta.media.0.codec.name">h264</property>
    <property name="meta.media.0.codec.long_name">H.264 / AVC / MPEG-4 AVC / MPEG-4 part 10</property>
    <property name="meta.media.0.codec.bit_rate">1219433</property>
    <property name="meta.attr.0.stream.handler_name.markup">ISO Media file produced by Google Inc.</property>
    <property name="meta.attr.0.stream.vendor_id.markup">[0][0][0][0]</property>
    <property name="meta.media.1.stream.type">audio</property>
    <property name="meta.media.1.codec.sample_fmt">fltp</property>
    <property name="meta.media.1.codec.sample_rate">44100</property>
    <property name="meta.media.1.codec.channels">2</property>
    <property name="meta.media.1.codec.name">aac</property>
    <property name="meta.media.1.codec.long_name">AAC (Advanced Audio Coding)</property>
    <property name="meta.media.1.codec.bit_rate">127999</property>
    <property name="meta.attr.1.stream.language.markup">eng</property>
    <property name="meta.attr.1.stream.handler_name.markup">ISO Media file produced by Google Inc.</property>
    <property name="meta.attr.1.stream.vendor_id.markup">[0][0][0][0]</property>
    <property name="meta.attr.major_brand.markup">mp42</property>
    <property name="meta.attr.minor_version.markup">0</property>
    <property name="meta.attr.compatible_brands.markup">isommp42</property>
    <property name="meta.attr.creation_time.markup">2023-12-09T06:00:24.000000Z</property>
    <property name="meta.attr.location.markup">+35.0104+136.8850/</property>
    <property name="seekable">1</property>
    <property name="meta.media.sample_aspect_num">1</property>
    <property name="meta.media.sample_aspect_den">1</property>
    <property name="audio_index">1</property>
    <property name="video_index">0</property>
    <property name="creation_time">2023-12-09T06:00:24</property>
    <property name="vstream">0</property>
    <property name="meta.media.frame_rate_num">5983</property>
    <property name="meta.media.frame_rate_den">200</property>
    <property name="meta.media.colorspace">709</property>
    <property name="meta.media.color_trc">1</property>
    <property name="meta.media.has_b_frames">0</property>
    <property name="meta.media.width">1920</property>
    <property name="meta.media.height">1080</property>
    <property name="meta.media.color_range">mpeg</property>
    <property name="astream">0</property>
    <property name="shotcut:skipConvert">1</property>
    <property name="xml">was here</property>
    <property name="shotcut:hash">9f0cf3292dedd1d578fbe46a591968c8</property>
  </chain>
  <chain id="chain5" out="00:00:10.400">
    <property name="length">00:00:10.440</property>
    <property name="eof">pause</property>
    <property name="resource">video/null.mp4</property>
    <property name="mlt_service">avformat-novalidate</property>
    <property name="meta.media.nb_streams">3</property>
    <property name="meta.media.1.stream.type">audio</property>
    <property name="meta.media.1.codec.sample_fmt">fltp</property>
    <property name="meta.media.1.codec.sample_rate">48000</property>
    <property name="meta.media.1.codec.channels">2</property>
    <property name="meta.media.1.codec.name">aac</property>
    <property name="meta.media.1.codec.long_name">AAC (Advanced Audio Coding)</property>
    <property name="meta.media.1.codec.bit_rate">191349</property>
    <property name="meta.attr.1.stream.creation_time.markup">2023-12-10T05:20:28.000000Z</property>
    <property name="meta.attr.1.stream.language.markup">eng</property>
    <property name="meta.attr.1.stream.handler_name.markup">SoundHandle</property>
    <property name="meta.attr.1.stream.vendor_id.markup">[0][0][0][0]</property>
    <property name="meta.media.2.stream.type">video</property>
    <property name="meta.media.2.stream.frame_rate">29.9595</property>
    <property name="meta.media.2.stream.sample_aspect_ratio">0</property>
    <property name="meta.media.2.codec.width">1280</property>
    <property name="meta.media.2.codec.height">720</property>
    <property name="meta.media.2.codec.rotate">0</property>
    <property name="meta.media.2.codec.pix_fmt">yuv420p</property>
    <property name="meta.media.2.codec.sample_aspect_ratio">0</property>
    <property name="meta.media.2.codec.colorspace">709</property>
    <property name="meta.media.2.codec.color_trc">1</property>
    <property name="meta.media.2.codec.name">h264</property>
    <property name="meta.media.2.codec.long_name">H.264 / AVC / MPEG-4 AVC / MPEG-4 part 10</property>
    <property name="meta.media.2.codec.bit_rate">3489720</property>
    <property name="meta.attr.2.stream.creation_time.markup">2023-12-10T05:20:28.000000Z</property>
    <property name="meta.attr.2.stream.language.markup">eng</property>
    <property name="meta.attr.2.stream.handler_name.markup">VideoHandle</property>
    <property name="meta.attr.2.stream.vendor_id.markup">[0][0][0][0]</property>
    <property name="meta.attr.major_brand.markup">mp42</property>
    <property name="meta.attr.minor_version.markup">0</property>
    <property name="meta.attr.compatible_brands.markup">isommp42</property>
    <property name="meta.attr.creation_time.markup">2023-12-10T05:20:28.000000Z</property>
    <property name="meta.attr.com.android.version.markup">12</property>
    <property name="seekable">1</property>
    <property name="meta.media.sample_aspect_num">1</property>
    <property name="meta.media.sample_aspect_den">1</property>
    <property name="audio_index">1</property>
    <property name="video_index">2</property>
    <property name="creation_time">2023-12-10T05:20:28</property>
    <property name="vstream">0</property>
    <property name="meta.media.frame_rate_num">9390000</property>
    <property name="meta.media.frame_rate_den">313423</property>
    <property name="meta.media.colorspace">709</property>
    <property name="meta.media.color_trc">1</property>
    <property name="meta.media.has_b_frames">0</property>
    <property name="meta.media.width">1280</property>
    <property name="meta.media.height">720</property>
    <property name="meta.media.color_range">mpeg</property>
    <property name="astream">0</property>
    <property name="shotcut:skipConvert">1</property>
    <property name="xml">was here</property>
    <property name="shotcut:hash">b8b700db4bdacc2305e5f358636f2a8f</property>
  </chain>
  <chain id="chain6" out="00:10:10.560">
    <property name="length">00:10:10.600</property>
    <property name="eof">pause</property>
    <property name="resource">video/success.mp4</property>
    <property name="mlt_service">avformat-novalidate</property>
    <property name="meta.media.nb_streams">3</property>
    <property name="meta.media.1.stream.type">audio</property>
    <property name="meta.media.1.codec.sample_fmt">fltp</property>
    <property name="meta.media.1.codec.sample_rate">48000</property>
    <property name="meta.media.1.codec.channels">2</property>
    <property name="meta.media.1.codec.name">aac</property>
    <property name="meta.media.1.codec.long_name">AAC (Advanced Audio Coding)</property>
    <property name="meta.media.1.codec.bit_rate">191995</property>
    <property name="meta.attr.1.stream.creation_time.markup">2023-12-09T06:12:13.000000Z</property>
    <property name="meta.attr.1.stream.language.markup">eng</property>
    <property name="meta.attr.1.stream.handler_name.markup">SoundHandle</property>
    <property name="meta.attr.1.stream.vendor_id.markup">[0][0][0][0]</property>
    <property name="meta.media.2.stream.type">video</property>
    <property name="meta.media.2.stream.frame_rate">29.9183</property>
    <property name="meta.media.2.stream.sample_aspect_ratio">1</property>
    <property name="meta.media.2.codec.width">1920</property>
    <property name="meta.media.2.codec.height">1080</property>
    <property name="meta.media.2.codec.rotate">0</property>
    <property name="meta.media.2.codec.pix_fmt">yuvj420p</property>
    <property name="meta.media.2.codec.sample_aspect_ratio">0</property>
    <property name="meta.media.2.codec.colorspace">709</property>
    <property name="meta.media.2.codec.color_trc">1</property>
    <property name="meta.media.2.codec.name">hevc</property>
    <property name="meta.media.2.codec.long_name">HEVC (High Efficiency Video Coding)</property>
    <property name="meta.media.2.codec.bit_rate">19575789</property>
    <property name="meta.attr.2.stream.creation_time.markup">2023-12-09T06:12:13.000000Z</property>
    <property name="meta.attr.2.stream.language.markup">eng</property>
    <property name="meta.attr.2.stream.handler_name.markup">VideoHandle</property>
    <property name="meta.attr.2.stream.vendor_id.markup">[0][0][0][0]</property>
    <property name="meta.attr.major_brand.markup">isom</property>
    <property name="meta.attr.minor_version.markup">131072</property>
    <property name="meta.attr.compatible_brands.markup">isomiso2mp41</property>
    <property name="meta.attr.creation_time.markup">2023-12-09T06:12:13.000000Z</property>
    <property name="meta.attr.location.markup">+35.0104+136.8850/</property>
    <property name="meta.attr.location-eng.markup">+35.0104+136.8850/</property>
    <property name="meta.attr.com.android.capture.fps.markup">30.000000</property>
    <property name="seekable">1</property>
    <property name="meta.media.sample_aspect_num">1</property>
    <property name="meta.media.sample_aspect_den">1</property>
    <property name="audio_index">1</property>
    <property name="video_index">2</property>
    <property name="creation_time">2023-12-09T06:12:13</property>
    <property name="vstream">0</property>
    <property name="meta.media.frame_rate_num">411030000</property>
    <property name="meta.media.frame_rate_den">13738417</property>
    <property name="meta.media.colorspace">709</property>
    <property name="meta.media.color_trc">1</property>
    <property name="meta.media.has_b_frames">0</property>
    <property name="meta.media.width">1920</property>
    <property name="meta.media.height">1080</property>
    <property name="meta.media.color_range">full</property>
    <property name="astream">0</property>
    <property name="shotcut:skipConvert">1</property>
    <property name="xml">was here</property>
    <property name="shotcut:hash">64749e65b66254bc204ea7b589f018e0</property>
  </chain>
  <chain id="chain7" out="00:00:23.760">
    <property name="length">00:00:23.800</property>
    <property name="eof">pause</property>
    <property name="resource">video/any - 変換済み1.mp4</property>
    <property name="mlt_service">avformat-novalidate</property>
    <property name="meta.media.nb_streams">2</property>
    <property name="meta.media.0.stream.type">audio</property>
    <property name="meta.media.0.codec.sample_fmt">fltp</property>
    <property name="meta.media.0.codec.sample_rate">48000</property>
    <property name="meta.media.0.codec.channels">2</property>
    <property name="meta.media.0.codec.name">ac3</property>
    <property name="meta.media.0.codec.long_name">ATSC A/52A (AC-3)</property>
    <property name="meta.media.0.codec.bit_rate">512000</property>
    <property name="meta.attr.0.stream.creation_time.markup">2023-12-10T05:20:28.000000Z</property>
    <property name="meta.attr.0.stream.language.markup">eng</property>
    <property name="meta.attr.0.stream.handler_name.markup">SoundHandle</property>
    <property name="meta.attr.0.stream.vendor_id.markup">[0][0][0][0]</property>
    <property name="meta.media.1.stream.type">video</property>
    <property name="meta.media.1.stream.frame_rate">30</property>
    <property name="meta.media.1.stream.sample_aspect_ratio">0</property>
    <property name="meta.media.1.codec.width">1280</property>
    <property name="meta.media.1.codec.height">720</property>
    <property name="meta.media.1.codec.rotate">0</property>
    <property name="meta.media.1.codec.pix_fmt">yuv420p</property>
    <property name="meta.media.1.codec.sample_aspect_ratio">0</property>
    <property name="meta.media.1.codec.colorspace">709</property>
    <property name="meta.media.1.codec.color_trc">1</property>
    <property name="meta.media.1.codec.name">h264</property>
    <property name="meta.media.1.codec.long_name">H.264 / AVC / MPEG-4 AVC / MPEG-4 part 10</property>
    <property name="meta.media.1.codec.bit_rate">13131781</property>
    <property name="meta.attr.1.stream.creation_time.markup">2023-12-10T05:20:28.000000Z</property>
    <property name="meta.attr.1.stream.language.markup">eng</property>
    <property name="meta.attr.1.stream.handler_name.markup">VideoHandle</property>
    <property name="meta.attr.1.stream.vendor_id.markup">[0][0][0][0]</property>
    <property name="meta.attr.1.stream.encoder.markup">Lavc60.3.100 libx264</property>
    <property name="meta.attr.major_brand.markup">isom</property>
    <property name="meta.attr.minor_version.markup">512</property>
    <property name="meta.attr.compatible_brands.markup">isomdby1iso2avc1mp41</property>
    <property name="meta.attr.creation_time.markup">2023-12-10T05:20:28.000000Z</property>
    <property name="meta.attr.encoder.markup">Lavf60.3.100</property>
    <property name="seekable">1</property>
    <property name="meta.media.sample_aspect_num">1</property>
    <property name="meta.media.sample_aspect_den">1</property>
    <property name="audio_index">1</property>
    <property name="video_index">2</property>
    <property name="creation_time">2023-12-10T05:20:28</property>
    <property name="vstream">0</property>
    <property name="meta.media.frame_rate_num">30</property>
    <property name="meta.media.frame_rate_den">1</property>
    <property name="meta.media.colorspace">709</property>
    <property name="meta.media.color_trc">1</property>
    <property name="meta.media.has_b_frames">0</property>
    <property name="meta.media.width">1280</property>
    <property name="meta.media.height">720</property>
    <property name="meta.media.color_range">mpeg</property>
    <property name="astream">0</property>
    <property name="shotcut:hash">839547625b177e0b8a96abf5eae24102</property>
    <property name="shotcut:caption">any - 変換済み1.mp4</property>
    <property name="xml">was here</property>
  </chain>
  <chain id="chain8" out="00:00:10.400">
    <property name="length">00:00:10.440</property>
    <property name="eof">pause</property>
    <property name="resource">video/null - 変換済み1.mp4</property>
    <property name="mlt_service">avformat-novalidate</property>
    <property name="meta.media.nb_streams">2</property>
    <property name="meta.media.0.stream.type">audio</property>
    <property name="meta.media.0.codec.sample_fmt">fltp</property>
    <property name="meta.media.0.codec.sample_rate">48000</property>
    <property name="meta.media.0.codec.channels">2</property>
    <property name="meta.media.0.codec.name">ac3</property>
    <property name="meta.media.0.codec.long_name">ATSC A/52A (AC-3)</property>
    <property name="meta.media.0.codec.bit_rate">512000</property>
    <property name="meta.attr.0.stream.creation_time.markup">2023-12-10T05:20:28.000000Z</property>
    <property name="meta.attr.0.stream.language.markup">eng</property>
    <property name="meta.attr.0.stream.handler_name.markup">SoundHandle</property>
    <property name="meta.attr.0.stream.vendor_id.markup">[0][0][0][0]</property>
    <property name="meta.media.1.stream.type">video</property>
    <property name="meta.media.1.stream.frame_rate">30</property>
    <property name="meta.media.1.stream.sample_aspect_ratio">0</property>
    <property name="meta.media.1.codec.width">1280</property>
    <property name="meta.media.1.codec.height">720</property>
    <property name="meta.media.1.codec.rotate">0</property>
    <property name="meta.media.1.codec.pix_fmt">yuv420p</property>
    <property name="meta.media.1.codec.sample_aspect_ratio">0</property>
    <property name="meta.media.1.codec.colorspace">709</property>
    <property name="meta.media.1.codec.color_trc">1</property>
    <property name="meta.media.1.codec.name">h264</property>
    <property name="meta.media.1.codec.long_name">H.264 / AVC / MPEG-4 AVC / MPEG-4 part 10</property>
    <property name="meta.media.1.codec.bit_rate">14108161</property>
    <property name="meta.attr.1.stream.creation_time.markup">2023-12-10T05:20:28.000000Z</property>
    <property name="meta.attr.1.stream.language.markup">eng</property>
    <property name="meta.attr.1.stream.handler_name.markup">VideoHandle</property>
    <property name="meta.attr.1.stream.vendor_id.markup">[0][0][0][0]</property>
    <property name="meta.attr.1.stream.encoder.markup">Lavc60.3.100 libx264</property>
    <property name="meta.attr.major_brand.markup">isom</property>
    <property name="meta.attr.minor_version.markup">512</property>
    <property name="meta.attr.compatible_brands.markup">isomdby1iso2avc1mp41</property>
    <property name="meta.attr.creation_time.markup">2023-12-10T05:20:28.000000Z</property>
    <property name="meta.attr.encoder.markup">Lavf60.3.100</property>
    <property name="seekable">1</property>
    <property name="meta.media.sample_aspect_num">1</property>
    <property name="meta.media.sample_aspect_den">1</property>
    <property name="audio_index">0</property>
    <property name="video_index">1</property>
    <property name="creation_time">2023-12-10T05:20:28</property>
    <property name="vstream">0</property>
    <property name="meta.media.frame_rate_num">30</property>
    <property name="meta.media.frame_rate_den">1</property>
    <property name="meta.media.colorspace">709</property>
    <property name="meta.media.color_trc">1</property>
    <property name="meta.media.has_b_frames">0</property>
    <property name="meta.media.width">1280</property>
    <property name="meta.media.height">720</property>
    <property name="meta.media.color_range">mpeg</property>
    <property name="astream">0</property>
    <property name="shotcut:hash">0899b52b4ea9f63acbdcbe1a4a369619</property>
    <property name="xml">was here</property>
  </chain>
  <chain id="chain9" out="00:10:10.560">
    <property name="length">00:10:10.600</property>
    <property name="eof">pause</property>
    <property name="resource">video/success - 変換済み1.mp4</property>
    <property name="mlt_service">avformat-novalidate</property>
    <property name="meta.media.nb_streams">2</property>
    <property name="meta.media.0.stream.type">audio</property>
    <property name="meta.media.0.codec.sample_fmt">fltp</property>
    <property name="meta.media.0.codec.sample_rate">48000</property>
    <property name="meta.media.0.codec.channels">2</property>
    <property name="meta.media.0.codec.name">ac3</property>
    <property name="meta.media.0.codec.long_name">ATSC A/52A (AC-3)</property>
    <property name="meta.media.0.codec.bit_rate">512000</property>
    <property name="meta.attr.0.stream.creation_time.markup">2023-12-09T06:12:13.000000Z</property>
    <property name="meta.attr.0.stream.language.markup">eng</property>
    <property name="meta.attr.0.stream.handler_name.markup">SoundHandle</property>
    <property name="meta.attr.0.stream.vendor_id.markup">[0][0][0][0]</property>
    <property name="meta.media.1.stream.type">video</property>
    <property name="meta.media.1.stream.frame_rate">30</property>
    <property name="meta.media.1.stream.sample_aspect_ratio">1</property>
    <property name="meta.media.1.codec.width">1920</property>
    <property name="meta.media.1.codec.height">1080</property>
    <property name="meta.media.1.codec.rotate">0</property>
    <property name="meta.media.1.codec.pix_fmt">yuvj420p</property>
    <property name="meta.media.1.codec.sample_aspect_ratio">1</property>
    <property name="meta.media.1.codec.colorspace">709</property>
    <property name="meta.media.1.codec.color_trc">1</property>
    <property name="meta.media.1.codec.name">h264</property>
    <property name="meta.media.1.codec.long_name">H.264 / AVC / MPEG-4 AVC / MPEG-4 part 10</property>
    <property name="meta.media.1.codec.bit_rate">28948337</property>
    <property name="meta.attr.1.stream.creation_time.markup">2023-12-09T06:12:13.000000Z</property>
    <property name="meta.attr.1.stream.language.markup">eng</property>
    <property name="meta.attr.1.stream.handler_name.markup">VideoHandle</property>
    <property name="meta.attr.1.stream.vendor_id.markup">[0][0][0][0]</property>
    <property name="meta.attr.1.stream.encoder.markup">Lavc60.3.100 libx264</property>
    <property name="meta.attr.major_brand.markup">isom</property>
    <property name="meta.attr.minor_version.markup">512</property>
    <property name="meta.attr.compatible_brands.markup">isomdby1iso2avc1mp41</property>
    <property name="meta.attr.creation_time.markup">2023-12-09T06:12:13.000000Z</property>
    <property name="meta.attr.encoder.markup">Lavf60.3.100</property>
    <property name="meta.attr.location-eng.markup">+35.0104+136.8850/</property>
    <property name="meta.attr.location.markup">+35.0104+136.8850/</property>
    <property name="seekable">1</property>
    <property name="meta.media.sample_aspect_num">1</property>
    <property name="meta.media.sample_aspect_den">1</property>
    <property name="audio_index">0</property>
    <property name="video_index">1</property>
    <property name="creation_time">2023-12-09T06:12:13</property>
    <property name="vstream">0</property>
    <property name="meta.media.frame_rate_num">30</property>
    <property name="meta.media.frame_rate_den">1</property>
    <property name="meta.media.colorspace">709</property>
    <property name="meta.media.color_trc">1</property>
    <property name="meta.media.has_b_frames">0</property>
    <property name="meta.media.width">1920</property>
    <property name="meta.media.height">1080</property>
    <property name="meta.media.color_range">full</property>
    <property name="astream">0</property>
    <property name="shotcut:hash">8f0e6b71f1727ea2b6d2b357f74c0280</property>
    <property name="xml">was here</property>
  </chain>
  <chain id="chain2" out="00:00:04.480">
    <property name="length">00:00:04.520</property>
    <property name="eof">pause</property>
    <property name="resource">voice/001_雨晴はう（ノーマル）_みんな大好きランケ….wav</property>
    <property name="mlt_service">avformat-novalidate</property>
    <property name="meta.media.nb_streams">1</property>
    <property name="meta.media.0.stream.type">audio</property>
    <property name="meta.media.0.codec.sample_fmt">s16</property>
    <property name="meta.media.0.codec.sample_rate">24000</property>
    <property name="meta.media.0.codec.channels">1</property>
    <property name="meta.media.0.codec.name">pcm_s16le</property>
    <property name="meta.media.0.codec.long_name">PCM signed 16-bit little-endian</property>
    <property name="meta.media.0.codec.bit_rate">384000</property>
    <property name="seekable">1</property>
    <property name="audio_index">0</property>
    <property name="video_index">-1</property>
    <property name="creation_time">2023-12-11T05:02:37</property>
    <property name="astream">0</property>
    <property name="shotcut:skipConvert">1</property>
    <property name="xml">was here</property>
    <property name="shotcut:hash">1b4e7addb49fff2266d136c804422508</property>
  </chain>
  <chain id="chain10" out="00:00:05.880">
    <property name="length">00:00:05.920</property>
    <property name="eof">pause</property>
    <property name="resource">voice/002_雨晴はう（ノーマル）_まずは軽く自己紹介….wav</property>
    <property name="mlt_service">avformat-novalidate</property>
    <property name="meta.media.nb_streams">1</property>
    <property name="meta.media.0.stream.type">audio</property>
    <property name="meta.media.0.codec.sample_fmt">s16</property>
    <property name="meta.media.0.codec.sample_rate">24000</property>
    <property name="meta.media.0.codec.channels">1</property>
    <property name="meta.media.0.codec.name">pcm_s16le</property>
    <property name="meta.media.0.codec.long_name">PCM signed 16-bit little-endian</property>
    <property name="meta.media.0.codec.bit_rate">384000</property>
    <property name="seekable">1</property>
    <property name="audio_index">0</property>
    <property name="video_index">-1</property>
    <property name="creation_time">2023-12-11T05:02:37</property>
    <property name="astream">0</property>
    <property name="shotcut:skipConvert">1</property>
    <property name="xml">was here</property>
    <property name="shotcut:hash">00020958c38ac50bfc9fcd185a9fe56b</property>
  </chain>
  <chain id="chain11" out="00:00:10.200">
    <property name="length">00:00:10.240</property>
    <property name="eof">pause</property>
    <property name="resource">voice/003_雨晴はう（ノーマル）_名古屋大学の小さな….wav</property>
    <property name="mlt_service">avformat-novalidate</property>
    <property name="meta.media.nb_streams">1</property>
    <property name="meta.media.0.stream.type">audio</property>
    <property name="meta.media.0.codec.sample_fmt">s16</property>
    <property name="meta.media.0.codec.sample_rate">24000</property>
    <property name="meta.media.0.codec.channels">1</property>
    <property name="meta.media.0.codec.name">pcm_s16le</property>
    <property name="meta.media.0.codec.long_name">PCM signed 16-bit little-endian</property>
    <property name="meta.media.0.codec.bit_rate">384000</property>
    <property name="seekable">1</property>
    <property name="audio_index">0</property>
    <property name="video_index">-1</property>
    <property name="creation_time">2023-12-11T05:02:37</property>
    <property name="astream">0</property>
    <property name="shotcut:skipConvert">1</property>
    <property name="xml">was here</property>
    <property name="shotcut:hash">58f279b5c54f04117b666d835713d2e9</property>
  </chain>
  <chain id="chain12" out="00:00:03.880">
    <property name="length">00:00:03.920</property>
    <property name="eof">pause</property>
    <property name="resource">voice/004_雨晴はう（ノーマル）_そのため，この動画….wav</property>
    <property name="mlt_service">avformat-novalidate</property>
    <property name="meta.media.nb_streams">1</property>
    <property name="meta.media.0.stream.type">audio</property>
    <property name="meta.media.0.codec.sample_fmt">s16</property>
    <property name="meta.media.0.codec.sample_rate">24000</property>
    <property name="meta.media.0.codec.channels">1</property>
    <property name="meta.media.0.codec.name">pcm_s16le</property>
    <property name="meta.media.0.codec.long_name">PCM signed 16-bit little-endian</property>
    <property name="meta.media.0.codec.bit_rate">384000</property>
    <property name="seekable">1</property>
    <property name="audio_index">0</property>
    <property name="video_index">-1</property>
    <property name="creation_time">2023-12-11T05:02:37</property>
    <property name="astream">0</property>
    <property name="shotcut:skipConvert">1</property>
    <property name="xml">was here</property>
    <property name="shotcut:hash">6989a78f928cfe5839eae9a5a9c2ca95</property>
    <property name="ignore_points">1</property>
    <property name="shotcut:caption">004_雨晴はう（ノーマル）_そのため，この動画….wav</property>
  </chain>
  <chain id="chain14" out="00:00:04.000">
    <property name="length">00:00:04.040</property>
    <property name="eof">pause</property>
    <property name="resource">voice/006_雨晴はう（ノーマル）_さて,最初に断って….wav</property>
    <property name="mlt_service">avformat-novalidate</property>
    <property name="meta.media.nb_streams">1</property>
    <property name="meta.media.0.stream.type">audio</property>
    <property name="meta.media.0.codec.sample_fmt">s16</property>
    <property name="meta.media.0.codec.sample_rate">24000</property>
    <property name="meta.media.0.codec.channels">1</property>
    <property name="meta.media.0.codec.name">pcm_s16le</property>
    <property name="meta.media.0.codec.long_name">PCM signed 16-bit little-endian</property>
    <property name="meta.media.0.codec.bit_rate">384000</property>
    <property name="seekable">1</property>
    <property name="audio_index">0</property>
    <property name="video_index">-1</property>
    <property name="creation_time">2023-12-11T05:02:37</property>
    <property name="astream">0</property>
    <property name="shotcut:skipConvert">1</property>
    <property name="xml">was here</property>
    <property name="shotcut:hash">2022e900e2dff94901057e2991f432ee</property>
  </chain>
  <chain id="chain15" out="00:00:08.120">
    <property name="length">00:00:08.160</property>
    <property name="eof">pause</property>
    <property name="resource">voice/007_雨晴はう（ノーマル）_1つ目に，この音声….wav</property>
    <property name="mlt_service">avformat-novalidate</property>
    <property name="meta.media.nb_streams">1</property>
    <property name="meta.media.0.stream.type">audio</property>
    <property name="meta.media.0.codec.sample_fmt">s16</property>
    <property name="meta.media.0.codec.sample_rate">24000</property>
    <property name="meta.media.0.codec.channels">1</property>
    <property name="meta.media.0.codec.name">pcm_s16le</property>
    <property name="meta.media.0.codec.long_name">PCM signed 16-bit little-endian</property>
    <property name="meta.media.0.codec.bit_rate">384000</property>
    <property name="seekable">1</property>
    <property name="audio_index">0</property>
    <property name="video_index">-1</property>
    <property name="creation_time">2023-12-11T05:02:37</property>
    <property name="astream">0</property>
    <property name="shotcut:skipConvert">1</property>
    <property name="xml">was here</property>
    <property name="shotcut:hash">6428040937a79943ff8419fe1c7cfb27</property>
  </chain>
  <chain id="chain16" out="00:00:07.680">
    <property name="length">00:00:07.720</property>
    <property name="eof">pause</property>
    <property name="resource">voice/008_雨晴はう（ノーマル）_2つ目に，うぷぬし….wav</property>
    <property name="mlt_service">avformat-novalidate</property>
    <property name="meta.media.nb_streams">1</property>
    <property name="meta.media.0.stream.type">audio</property>
    <property name="meta.media.0.codec.sample_fmt">s16</property>
    <property name="meta.media.0.codec.sample_rate">24000</property>
    <property name="meta.media.0.codec.channels">1</property>
    <property name="meta.media.0.codec.name">pcm_s16le</property>
    <property name="meta.media.0.codec.long_name">PCM signed 16-bit little-endian</property>
    <property name="meta.media.0.codec.bit_rate">384000</property>
    <property name="seekable">1</property>
    <property name="audio_index">0</property>
    <property name="video_index">-1</property>
    <property name="creation_time">2023-12-11T05:02:37</property>
    <property name="astream">0</property>
    <property name="shotcut:skipConvert">1</property>
    <property name="xml">was here</property>
    <property name="shotcut:hash">be520b3f9fba3a038f13723107e60f6a</property>
  </chain>
  <chain id="chain17" out="00:00:07.720">
    <property name="length">00:00:07.760</property>
    <property name="eof">pause</property>
    <property name="resource">voice/009_雨晴はう（ノーマル）_3つ目に，本RTA….wav</property>
    <property name="mlt_service">avformat-novalidate</property>
    <property name="meta.media.nb_streams">1</property>
    <property name="meta.media.0.stream.type">audio</property>
    <property name="meta.media.0.codec.sample_fmt">s16</property>
    <property name="meta.media.0.codec.sample_rate">24000</property>
    <property name="meta.media.0.codec.channels">1</property>
    <property name="meta.media.0.codec.name">pcm_s16le</property>
    <property name="meta.media.0.codec.long_name">PCM signed 16-bit little-endian</property>
    <property name="meta.media.0.codec.bit_rate">384000</property>
    <property name="seekable">1</property>
    <property name="audio_index">0</property>
    <property name="video_index">-1</property>
    <property name="creation_time">2023-12-11T05:02:37</property>
    <property name="astream">0</property>
    <property name="shotcut:skipConvert">1</property>
    <property name="xml">was here</property>
    <property name="shotcut:hash">80fcbffec51d3ff90e4961071c36fbfa</property>
  </chain>
  <chain id="chain18" out="00:00:09.000">
    <property name="length">00:00:09.040</property>
    <property name="eof">pause</property>
    <property name="resource">voice/010_雨晴はう（ノーマル）_4つ目に，専門知識….wav</property>
    <property name="mlt_service">avformat-novalidate</property>
    <property name="meta.media.nb_streams">1</property>
    <property name="meta.media.0.stream.type">audio</property>
    <property name="meta.media.0.codec.sample_fmt">s16</property>
    <property name="meta.media.0.codec.sample_rate">24000</property>
    <property name="meta.media.0.codec.channels">1</property>
    <property name="meta.media.0.codec.name">pcm_s16le</property>
    <property name="meta.media.0.codec.long_name">PCM signed 16-bit little-endian</property>
    <property name="meta.media.0.codec.bit_rate">384000</property>
    <property name="seekable">1</property>
    <property name="audio_index">0</property>
    <property name="video_index">-1</property>
    <property name="creation_time">2023-12-11T05:02:37</property>
    <property name="astream">0</property>
    <property name="shotcut:skipConvert">1</property>
    <property name="xml">was here</property>
    <property name="shotcut:hash">32f0aca4df9eb72b98bf80012004a7d3</property>
  </chain>
  <chain id="chain19" out="00:00:10.800">
    <property name="length">00:00:10.840</property>
    <property name="eof">pause</property>
    <property name="resource">voice/011_雨晴はう（ノーマル）_5つ目に，本動画は….wav</property>
    <property name="mlt_service">avformat-novalidate</property>
    <property name="meta.media.nb_streams">1</property>
    <property name="meta.media.0.stream.type">audio</property>
    <property name="meta.media.0.codec.sample_fmt">s16</property>
    <property name="meta.media.0.codec.sample_rate">24000</property>
    <property name="meta.media.0.codec.channels">1</property>
    <property name="meta.media.0.codec.name">pcm_s16le</property>
    <property name="meta.media.0.codec.long_name">PCM signed 16-bit little-endian</property>
    <property name="meta.media.0.codec.bit_rate">384000</property>
    <property name="seekable">1</property>
    <property name="audio_index">0</property>
    <property name="video_index">-1</property>
    <property name="creation_time">2023-12-11T05:02:37</property>
    <property name="astream">0</property>
    <property name="shotcut:skipConvert">1</property>
    <property name="xml">was here</property>
    <property name="shotcut:hash">709fe40e6c2e725ae421fab745787301</property>
  </chain>
  <chain id="chain21" out="00:00:03.400">
    <property name="length">00:00:03.440</property>
    <property name="eof">pause</property>
    <property name="resource">voice/013_雨晴はう（ノーマル）_まだ本編が始まる前….wav</property>
    <property name="mlt_service">avformat-novalidate</property>
    <property name="meta.media.nb_streams">1</property>
    <property name="meta.media.0.stream.type">audio</property>
    <property name="meta.media.0.codec.sample_fmt">s16</property>
    <property name="meta.media.0.codec.sample_rate">24000</property>
    <property name="meta.media.0.codec.channels">1</property>
    <property name="meta.media.0.codec.name">pcm_s16le</property>
    <property name="meta.media.0.codec.long_name">PCM signed 16-bit little-endian</property>
    <property name="meta.media.0.codec.bit_rate">384000</property>
    <property name="seekable">1</property>
    <property name="audio_index">0</property>
    <property name="video_index">-1</property>
    <property name="creation_time">2023-12-11T05:02:37</property>
    <property name="astream">0</property>
    <property name="shotcut:skipConvert">1</property>
    <property name="xml">was here</property>
    <property name="shotcut:hash">aa21bb52b48cdaeb65df5595422f4b85</property>
  </chain>
  <chain id="chain22" out="00:00:12.640">
    <property name="length">00:00:12.680</property>
    <property name="eof">pause</property>
    <property name="resource">voice/014_雨晴はう（ノーマル）_本動画において重要….wav</property>
    <property name="mlt_service">avformat-novalidate</property>
    <property name="meta.media.nb_streams">1</property>
    <property name="meta.media.0.stream.type">audio</property>
    <property name="meta.media.0.codec.sample_fmt">s16</property>
    <property name="meta.media.0.codec.sample_rate">24000</property>
    <property name="meta.media.0.codec.channels">1</property>
    <property name="meta.media.0.codec.name">pcm_s16le</property>
    <property name="meta.media.0.codec.long_name">PCM signed 16-bit little-endian</property>
    <property name="meta.media.0.codec.bit_rate">384000</property>
    <property name="seekable">1</property>
    <property name="audio_index">0</property>
    <property name="video_index">-1</property>
    <property name="creation_time">2023-12-11T05:02:37</property>
    <property name="astream">0</property>
    <property name="shotcut:skipConvert">1</property>
    <property name="xml">was here</property>
    <property name="shotcut:hash">65419e01a0c50d28419c08d8700f538c</property>
  </chain>
  <chain id="chain24" out="00:00:03.960">
    <property name="length">00:00:04.000</property>
    <property name="eof">pause</property>
    <property name="resource">voice/016_雨晴はう（ノーマル）_まず，RTAから．….wav</property>
    <property name="mlt_service">avformat-novalidate</property>
    <property name="meta.media.nb_streams">1</property>
    <property name="meta.media.0.stream.type">audio</property>
    <property name="meta.media.0.codec.sample_fmt">s16</property>
    <property name="meta.media.0.codec.sample_rate">24000</property>
    <property name="meta.media.0.codec.channels">1</property>
    <property name="meta.media.0.codec.name">pcm_s16le</property>
    <property name="meta.media.0.codec.long_name">PCM signed 16-bit little-endian</property>
    <property name="meta.media.0.codec.bit_rate">384000</property>
    <property name="seekable">1</property>
    <property name="audio_index">0</property>
    <property name="video_index">-1</property>
    <property name="creation_time">2023-12-11T05:02:37</property>
    <property name="astream">0</property>
    <property name="shotcut:skipConvert">1</property>
    <property name="xml">was here</property>
    <property name="shotcut:hash">f5503343714fc9ee3bb1cebde262a313</property>
  </chain>
  <chain id="chain25" out="00:00:04.480">
    <property name="length">00:00:04.520</property>
    <property name="eof">pause</property>
    <property name="resource">voice/017_雨晴はう（ノーマル）_コンピュータゲーム….wav</property>
    <property name="mlt_service">avformat-novalidate</property>
    <property name="meta.media.nb_streams">1</property>
    <property name="meta.media.0.stream.type">audio</property>
    <property name="meta.media.0.codec.sample_fmt">s16</property>
    <property name="meta.media.0.codec.sample_rate">24000</property>
    <property name="meta.media.0.codec.channels">1</property>
    <property name="meta.media.0.codec.name">pcm_s16le</property>
    <property name="meta.media.0.codec.long_name">PCM signed 16-bit little-endian</property>
    <property name="meta.media.0.codec.bit_rate">384000</property>
    <property name="seekable">1</property>
    <property name="audio_index">0</property>
    <property name="video_index">-1</property>
    <property name="creation_time">2023-12-11T05:02:37</property>
    <property name="astream">0</property>
    <property name="shotcut:skipConvert">1</property>
    <property name="xml">was here</property>
    <property name="shotcut:hash">05d80e8640f7de6b61155662caa6f2e0</property>
  </chain>
  <chain id="chain26" out="00:00:04.000">
    <property name="length">00:00:04.040</property>
    <property name="eof">pause</property>
    <property name="resource">voice/018_雨晴はう（ノーマル）_ゲーム内部時間では….wav</property>
    <property name="mlt_service">avformat-novalidate</property>
    <property name="meta.media.nb_streams">1</property>
    <property name="meta.media.0.stream.type">audio</property>
    <property name="meta.media.0.codec.sample_fmt">s16</property>
    <property name="meta.media.0.codec.sample_rate">24000</property>
    <property name="meta.media.0.codec.channels">1</property>
    <property name="meta.media.0.codec.name">pcm_s16le</property>
    <property name="meta.media.0.codec.long_name">PCM signed 16-bit little-endian</property>
    <property name="meta.media.0.codec.bit_rate">384000</property>
    <property name="seekable">1</property>
    <property name="audio_index">0</property>
    <property name="video_index">-1</property>
    <property name="creation_time">2023-12-11T05:02:37</property>
    <property name="astream">0</property>
    <property name="shotcut:skipConvert">1</property>
    <property name="xml">was here</property>
    <property name="shotcut:hash">3b8779b28f63e060ae6b1f82c11890c5</property>
  </chain>
  <chain id="chain27" out="00:00:05.800">
    <property name="length">00:00:05.840</property>
    <property name="eof">pause</property>
    <property name="resource">voice/019_雨晴はう（ノーマル）_「アールティーエー….wav</property>
    <property name="mlt_service">avformat-novalidate</property>
    <property name="meta.media.nb_streams">1</property>
    <property name="meta.media.0.stream.type">audio</property>
    <property name="meta.media.0.codec.sample_fmt">s16</property>
    <property name="meta.media.0.codec.sample_rate">24000</property>
    <property name="meta.media.0.codec.channels">1</property>
    <property name="meta.media.0.codec.name">pcm_s16le</property>
    <property name="meta.media.0.codec.long_name">PCM signed 16-bit little-endian</property>
    <property name="meta.media.0.codec.bit_rate">384000</property>
    <property name="seekable">1</property>
    <property name="audio_index">0</property>
    <property name="video_index">-1</property>
    <property name="creation_time">2023-12-11T05:02:37</property>
    <property name="astream">0</property>
    <property name="shotcut:skipConvert">1</property>
    <property name="xml">was here</property>
    <property name="shotcut:hash">921a45666fc741c97d660c9d0c16e9e6</property>
  </chain>
  <chain id="chain28" out="00:00:11.880">
    <property name="length">00:00:11.920</property>
    <property name="eof">pause</property>
    <property name="resource">voice/020_雨晴はう（ノーマル）_まあ，要は素早く何….wav</property>
    <property name="mlt_service">avformat-novalidate</property>
    <property name="meta.media.nb_streams">1</property>
    <property name="meta.media.0.stream.type">audio</property>
    <property name="meta.media.0.codec.sample_fmt">s16</property>
    <property name="meta.media.0.codec.sample_rate">24000</property>
    <property name="meta.media.0.codec.channels">1</property>
    <property name="meta.media.0.codec.name">pcm_s16le</property>
    <property name="meta.media.0.codec.long_name">PCM signed 16-bit little-endian</property>
    <property name="meta.media.0.codec.bit_rate">384000</property>
    <property name="seekable">1</property>
    <property name="audio_index">0</property>
    <property name="video_index">-1</property>
    <property name="creation_time">2023-12-11T05:02:37</property>
    <property name="astream">0</property>
    <property name="shotcut:skipConvert">1</property>
    <property name="xml">was here</property>
    <property name="shotcut:hash">0046e296e29c552ed6599a40b07266e0</property>
  </chain>
  <chain id="chain30" out="00:00:02.640">
    <property name="length">00:00:02.680</property>
    <property name="eof">pause</property>
    <property name="resource">voice/022_雨晴はう（ノーマル）_次に，LANケーブ….wav</property>
    <property name="mlt_service">avformat-novalidate</property>
    <property name="meta.media.nb_streams">1</property>
    <property name="meta.media.0.stream.type">audio</property>
    <property name="meta.media.0.codec.sample_fmt">s16</property>
    <property name="meta.media.0.codec.sample_rate">24000</property>
    <property name="meta.media.0.codec.channels">1</property>
    <property name="meta.media.0.codec.name">pcm_s16le</property>
    <property name="meta.media.0.codec.long_name">PCM signed 16-bit little-endian</property>
    <property name="meta.media.0.codec.bit_rate">384000</property>
    <property name="seekable">1</property>
    <property name="audio_index">0</property>
    <property name="video_index">-1</property>
    <property name="creation_time">2023-12-11T05:02:37</property>
    <property name="astream">0</property>
    <property name="shotcut:skipConvert">1</property>
    <property name="xml">was here</property>
    <property name="shotcut:hash">26ebe7a1bfa4d6da9911d371ed6c9c12</property>
  </chain>
  <chain id="chain31" out="00:00:01.720">
    <property name="length">00:00:01.760</property>
    <property name="eof">pause</property>
    <property name="resource">voice/023_雨晴はう（ノーマル）_以下Wikiped….wav</property>
    <property name="mlt_service">avformat-novalidate</property>
    <property name="meta.media.nb_streams">1</property>
    <property name="meta.media.0.stream.type">audio</property>
    <property name="meta.media.0.codec.sample_fmt">s16</property>
    <property name="meta.media.0.codec.sample_rate">24000</property>
    <property name="meta.media.0.codec.channels">1</property>
    <property name="meta.media.0.codec.name">pcm_s16le</property>
    <property name="meta.media.0.codec.long_name">PCM signed 16-bit little-endian</property>
    <property name="meta.media.0.codec.bit_rate">384000</property>
    <property name="seekable">1</property>
    <property name="audio_index">0</property>
    <property name="video_index">-1</property>
    <property name="creation_time">2023-12-11T05:02:37</property>
    <property name="astream">0</property>
    <property name="shotcut:skipConvert">1</property>
    <property name="xml">was here</property>
    <property name="shotcut:hash">4c4203394dfb95b93d2890bcc5e04e26</property>
  </chain>
  <chain id="chain32" out="00:00:06.280">
    <property name="length">00:00:06.320</property>
    <property name="eof">pause</property>
    <property name="resource">voice/024_雨晴はう（ノーマル）_（よりついせん）に….wav</property>
    <property name="mlt_service">avformat-novalidate</property>
    <property name="meta.media.nb_streams">1</property>
    <property name="meta.media.0.stream.type">audio</property>
    <property name="meta.media.0.codec.sample_fmt">s16</property>
    <property name="meta.media.0.codec.sample_rate">24000</property>
    <property name="meta.media.0.codec.channels">1</property>
    <property name="meta.media.0.codec.name">pcm_s16le</property>
    <property name="meta.media.0.codec.long_name">PCM signed 16-bit little-endian</property>
    <property name="meta.media.0.codec.bit_rate">384000</property>
    <property name="seekable">1</property>
    <property name="audio_index">0</property>
    <property name="video_index">-1</property>
    <property name="creation_time">2023-12-11T05:02:37</property>
    <property name="astream">0</property>
    <property name="shotcut:skipConvert">1</property>
    <property name="xml">was here</property>
    <property name="shotcut:hash">44f1af362f7623e0af3c735e64933e8f</property>
  </chain>
  <chain id="chain33" out="00:00:12.760">
    <property name="length">00:00:12.800</property>
    <property name="eof">pause</property>
    <property name="resource">voice/025_雨晴はう（ノーマル）_特に4対8線で両端….wav</property>
    <property name="mlt_service">avformat-novalidate</property>
    <property name="meta.media.nb_streams">1</property>
    <property name="meta.media.0.stream.type">audio</property>
    <property name="meta.media.0.codec.sample_fmt">s16</property>
    <property name="meta.media.0.codec.sample_rate">24000</property>
    <property name="meta.media.0.codec.channels">1</property>
    <property name="meta.media.0.codec.name">pcm_s16le</property>
    <property name="meta.media.0.codec.long_name">PCM signed 16-bit little-endian</property>
    <property name="meta.media.0.codec.bit_rate">384000</property>
    <property name="seekable">1</property>
    <property name="audio_index">0</property>
    <property name="video_index">-1</property>
    <property name="creation_time">2023-12-11T05:02:37</property>
    <property name="astream">0</property>
    <property name="shotcut:skipConvert">1</property>
    <property name="xml">was here</property>
    <property name="shotcut:hash">9101cb9632cb24c5e6695751ce072d0c</property>
  </chain>
  <chain id="chain34" out="00:00:05.840">
    <property name="length">00:00:05.880</property>
    <property name="eof">pause</property>
    <property name="resource">voice/026_雨晴はう（ノーマル）_圧接工具を使えば容….wav</property>
    <property name="mlt_service">avformat-novalidate</property>
    <property name="meta.media.nb_streams">1</property>
    <property name="meta.media.0.stream.type">audio</property>
    <property name="meta.media.0.codec.sample_fmt">s16</property>
    <property name="meta.media.0.codec.sample_rate">24000</property>
    <property name="meta.media.0.codec.channels">1</property>
    <property name="meta.media.0.codec.name">pcm_s16le</property>
    <property name="meta.media.0.codec.long_name">PCM signed 16-bit little-endian</property>
    <property name="meta.media.0.codec.bit_rate">384000</property>
    <property name="seekable">1</property>
    <property name="audio_index">0</property>
    <property name="video_index">-1</property>
    <property name="creation_time">2023-12-11T05:02:37</property>
    <property name="astream">0</property>
    <property name="shotcut:skipConvert">1</property>
    <property name="xml">was here</property>
    <property name="shotcut:hash">58f06f8e54447f41ed4504b84403b8ed</property>
  </chain>
  <chain id="chain35" out="00:00:03.760">
    <property name="length">00:00:03.800</property>
    <property name="eof">pause</property>
    <property name="resource">voice/027_雨晴はう（ノーマル）_ケーブルには配線構….wav</property>
    <property name="mlt_service">avformat-novalidate</property>
    <property name="meta.media.nb_streams">1</property>
    <property name="meta.media.0.stream.type">audio</property>
    <property name="meta.media.0.codec.sample_fmt">s16</property>
    <property name="meta.media.0.codec.sample_rate">24000</property>
    <property name="meta.media.0.codec.channels">1</property>
    <property name="meta.media.0.codec.name">pcm_s16le</property>
    <property name="meta.media.0.codec.long_name">PCM signed 16-bit little-endian</property>
    <property name="meta.media.0.codec.bit_rate">384000</property>
    <property name="seekable">1</property>
    <property name="audio_index">0</property>
    <property name="video_index">-1</property>
    <property name="creation_time">2023-12-11T05:02:37</property>
    <property name="astream">0</property>
    <property name="shotcut:skipConvert">1</property>
    <property name="xml">was here</property>
    <property name="shotcut:hash">67aa18516153f987b2b4e895dd6fbd3e</property>
  </chain>
  <chain id="chain36" out="00:00:05.280">
    <property name="length">00:00:05.320</property>
    <property name="eof">pause</property>
    <property name="resource">voice/028_雨晴はう（ノーマル）_要は，わいふぁいの….wav</property>
    <property name="mlt_service">avformat-novalidate</property>
    <property name="meta.media.nb_streams">1</property>
    <property name="meta.media.0.stream.type">audio</property>
    <property name="meta.media.0.codec.sample_fmt">s16</property>
    <property name="meta.media.0.codec.sample_rate">24000</property>
    <property name="meta.media.0.codec.channels">1</property>
    <property name="meta.media.0.codec.name">pcm_s16le</property>
    <property name="meta.media.0.codec.long_name">PCM signed 16-bit little-endian</property>
    <property name="meta.media.0.codec.bit_rate">384000</property>
    <property name="seekable">1</property>
    <property name="audio_index">0</property>
    <property name="video_index">-1</property>
    <property name="creation_time">2023-12-11T05:02:37</property>
    <property name="astream">0</property>
    <property name="shotcut:skipConvert">1</property>
    <property name="xml">was here</property>
    <property name="shotcut:hash">be4230b62bc4c8d52c7fefe37e4b0a10</property>
  </chain>
  <chain id="chain38" out="00:00:06.640">
    <property name="length">00:00:06.680</property>
    <property name="eof">pause</property>
    <property name="resource">voice/030_雨晴はう（ノーマル）_また今回は，LAN….wav</property>
    <property name="mlt_service">avformat-novalidate</property>
    <property name="meta.media.nb_streams">1</property>
    <property name="meta.media.0.stream.type">audio</property>
    <property name="meta.media.0.codec.sample_fmt">s16</property>
    <property name="meta.media.0.codec.sample_rate">24000</property>
    <property name="meta.media.0.codec.channels">1</property>
    <property name="meta.media.0.codec.name">pcm_s16le</property>
    <property name="meta.media.0.codec.long_name">PCM signed 16-bit little-endian</property>
    <property name="meta.media.0.codec.bit_rate">384000</property>
    <property name="seekable">1</property>
    <property name="audio_index">0</property>
    <property name="video_index">-1</property>
    <property name="creation_time">2023-12-11T05:02:37</property>
    <property name="astream">0</property>
    <property name="shotcut:skipConvert">1</property>
    <property name="xml">was here</property>
    <property name="shotcut:hash">bf10bfce250b5c28688210c58c9b71f3</property>
  </chain>
  <chain id="chain39" out="00:00:05.040">
    <property name="length">00:00:05.080</property>
    <property name="eof">pause</property>
    <property name="resource">voice/031_雨晴はう（ノーマル）_そして，配線はスト….wav</property>
    <property name="mlt_service">avformat-novalidate</property>
    <property name="meta.media.nb_streams">1</property>
    <property name="meta.media.0.stream.type">audio</property>
    <property name="meta.media.0.codec.sample_fmt">s16</property>
    <property name="meta.media.0.codec.sample_rate">24000</property>
    <property name="meta.media.0.codec.channels">1</property>
    <property name="meta.media.0.codec.name">pcm_s16le</property>
    <property name="meta.media.0.codec.long_name">PCM signed 16-bit little-endian</property>
    <property name="meta.media.0.codec.bit_rate">384000</property>
    <property name="seekable">1</property>
    <property name="audio_index">0</property>
    <property name="video_index">-1</property>
    <property name="creation_time">2023-12-11T05:02:37</property>
    <property name="astream">0</property>
    <property name="shotcut:skipConvert">1</property>
    <property name="xml">was here</property>
    <property name="shotcut:hash">0dd4f0f414be63bf40f98563fe979098</property>
  </chain>
  <chain id="chain40" out="00:00:02.880">
    <property name="length">00:00:02.920</property>
    <property name="eof">pause</property>
    <property name="resource">voice/032_雨晴はう（ノーマル）_今回はストレートケ….wav</property>
    <property name="mlt_service">avformat-novalidate</property>
    <property name="meta.media.nb_streams">1</property>
    <property name="meta.media.0.stream.type">audio</property>
    <property name="meta.media.0.codec.sample_fmt">s16</property>
    <property name="meta.media.0.codec.sample_rate">24000</property>
    <property name="meta.media.0.codec.channels">1</property>
    <property name="meta.media.0.codec.name">pcm_s16le</property>
    <property name="meta.media.0.codec.long_name">PCM signed 16-bit little-endian</property>
    <property name="meta.media.0.codec.bit_rate">384000</property>
    <property name="seekable">1</property>
    <property name="audio_index">0</property>
    <property name="video_index">-1</property>
    <property name="creation_time">2023-12-11T05:02:37</property>
    <property name="astream">0</property>
    <property name="shotcut:skipConvert">1</property>
    <property name="xml">was here</property>
    <property name="shotcut:hash">c10f66a41057b51b1b666f5822658fb9</property>
  </chain>
  <chain id="chain42" out="00:00:07.880">
    <property name="length">00:00:07.920</property>
    <property name="eof">pause</property>
    <property name="resource">voice/034_雨晴はう（ノーマル）_まだまだ，RTAを….wav</property>
    <property name="mlt_service">avformat-novalidate</property>
    <property name="meta.media.nb_streams">1</property>
    <property name="meta.media.0.stream.type">audio</property>
    <property name="meta.media.0.codec.sample_fmt">s16</property>
    <property name="meta.media.0.codec.sample_rate">24000</property>
    <property name="meta.media.0.codec.channels">1</property>
    <property name="meta.media.0.codec.name">pcm_s16le</property>
    <property name="meta.media.0.codec.long_name">PCM signed 16-bit little-endian</property>
    <property name="meta.media.0.codec.bit_rate">384000</property>
    <property name="seekable">1</property>
    <property name="audio_index">0</property>
    <property name="video_index">-1</property>
    <property name="creation_time">2023-12-11T05:02:37</property>
    <property name="astream">0</property>
    <property name="shotcut:skipConvert">1</property>
    <property name="xml">was here</property>
    <property name="shotcut:hash">31e52ddb94e25c35bc3c8fa83bb87509</property>
  </chain>
  <chain id="chain43" out="00:00:06.640">
    <property name="length">00:00:06.680</property>
    <property name="eof">pause</property>
    <property name="resource">voice/035_雨晴はう（ノーマル）_このRTAでのタイ….wav</property>
    <property name="mlt_service">avformat-novalidate</property>
    <property name="meta.media.nb_streams">1</property>
    <property name="meta.media.0.stream.type">audio</property>
    <property name="meta.media.0.codec.sample_fmt">s16</property>
    <property name="meta.media.0.codec.sample_rate">24000</property>
    <property name="meta.media.0.codec.channels">1</property>
    <property name="meta.media.0.codec.name">pcm_s16le</property>
    <property name="meta.media.0.codec.long_name">PCM signed 16-bit little-endian</property>
    <property name="meta.media.0.codec.bit_rate">384000</property>
    <property name="seekable">1</property>
    <property name="audio_index">0</property>
    <property name="video_index">-1</property>
    <property name="creation_time">2023-12-11T05:02:37</property>
    <property name="astream">0</property>
    <property name="shotcut:skipConvert">1</property>
    <property name="xml">was here</property>
    <property name="shotcut:hash">942c84e621a1456ac535f94ea399398b</property>
  </chain>
  <chain id="chain44" out="00:00:06.280">
    <property name="length">00:00:06.320</property>
    <property name="eof">pause</property>
    <property name="resource">voice/036_雨晴はう（ノーマル）_従って，LANケー….wav</property>
    <property name="mlt_service">avformat-novalidate</property>
    <property name="meta.media.nb_streams">1</property>
    <property name="meta.media.0.stream.type">audio</property>
    <property name="meta.media.0.codec.sample_fmt">s16</property>
    <property name="meta.media.0.codec.sample_rate">24000</property>
    <property name="meta.media.0.codec.channels">1</property>
    <property name="meta.media.0.codec.name">pcm_s16le</property>
    <property name="meta.media.0.codec.long_name">PCM signed 16-bit little-endian</property>
    <property name="meta.media.0.codec.bit_rate">384000</property>
    <property name="seekable">1</property>
    <property name="audio_index">0</property>
    <property name="video_index">-1</property>
    <property name="creation_time">2023-12-11T05:02:37</property>
    <property name="astream">0</property>
    <property name="shotcut:skipConvert">1</property>
    <property name="xml">was here</property>
    <property name="shotcut:hash">79213faba80fd3c08821ff9043c5a603</property>
  </chain>
  <chain id="chain45" out="00:00:02.360">
    <property name="length">00:00:02.400</property>
    <property name="eof">pause</property>
    <property name="resource">voice/037_雨晴はう（ノーマル）_このテスターについ….wav</property>
    <property name="mlt_service">avformat-novalidate</property>
    <property name="meta.media.nb_streams">1</property>
    <property name="meta.media.0.stream.type">audio</property>
    <property name="meta.media.0.codec.sample_fmt">s16</property>
    <property name="meta.media.0.codec.sample_rate">24000</property>
    <property name="meta.media.0.codec.channels">1</property>
    <property name="meta.media.0.codec.name">pcm_s16le</property>
    <property name="meta.media.0.codec.long_name">PCM signed 16-bit little-endian</property>
    <property name="meta.media.0.codec.bit_rate">384000</property>
    <property name="seekable">1</property>
    <property name="audio_index">0</property>
    <property name="video_index">-1</property>
    <property name="creation_time">2023-12-11T05:02:37</property>
    <property name="astream">0</property>
    <property name="shotcut:skipConvert">1</property>
    <property name="xml">was here</property>
    <property name="shotcut:hash">bf1a563fc2d20a6fdda7a10219d325d5</property>
  </chain>
  <chain id="chain46" out="00:00:05.920">
    <property name="length">00:00:05.960</property>
    <property name="eof">pause</property>
    <property name="resource">voice/038_雨晴はう（ノーマル）_視聴者兄貴姉貴の中….wav</property>
    <property name="mlt_service">avformat-novalidate</property>
    <property name="meta.media.nb_streams">1</property>
    <property name="meta.media.0.stream.type">audio</property>
    <property name="meta.media.0.codec.sample_fmt">s16</property>
    <property name="meta.media.0.codec.sample_rate">24000</property>
    <property name="meta.media.0.codec.channels">1</property>
    <property name="meta.media.0.codec.name">pcm_s16le</property>
    <property name="meta.media.0.codec.long_name">PCM signed 16-bit little-endian</property>
    <property name="meta.media.0.codec.bit_rate">384000</property>
    <property name="seekable">1</property>
    <property name="audio_index">0</property>
    <property name="video_index">-1</property>
    <property name="creation_time">2023-12-11T05:02:37</property>
    <property name="astream">0</property>
    <property name="shotcut:skipConvert">1</property>
    <property name="xml">was here</property>
    <property name="shotcut:hash">89e07115d53fb718003577e47bd69ecb</property>
  </chain>
  <chain id="chain47" out="00:00:08.720">
    <property name="length">00:00:08.760</property>
    <property name="eof">pause</property>
    <property name="resource">voice/039_雨晴はう（ノーマル）_実は我々がよく目に….wav</property>
    <property name="mlt_service">avformat-novalidate</property>
    <property name="meta.media.nb_streams">1</property>
    <property name="meta.media.0.stream.type">audio</property>
    <property name="meta.media.0.codec.sample_fmt">s16</property>
    <property name="meta.media.0.codec.sample_rate">24000</property>
    <property name="meta.media.0.codec.channels">1</property>
    <property name="meta.media.0.codec.name">pcm_s16le</property>
    <property name="meta.media.0.codec.long_name">PCM signed 16-bit little-endian</property>
    <property name="meta.media.0.codec.bit_rate">384000</property>
    <property name="seekable">1</property>
    <property name="audio_index">0</property>
    <property name="video_index">-1</property>
    <property name="creation_time">2023-12-11T05:02:37</property>
    <property name="astream">0</property>
    <property name="shotcut:skipConvert">1</property>
    <property name="xml">was here</property>
    <property name="shotcut:hash">72ecd460a656186c541b48be365bde10</property>
  </chain>
  <chain id="chain48" out="00:00:10.120">
    <property name="length">00:00:10.160</property>
    <property name="eof">pause</property>
    <property name="resource">voice/040_雨晴はう（ノーマル）_一見素人には同じに….wav</property>
    <property name="mlt_service">avformat-novalidate</property>
    <property name="meta.media.nb_streams">1</property>
    <property name="meta.media.0.stream.type">audio</property>
    <property name="meta.media.0.codec.sample_fmt">s16</property>
    <property name="meta.media.0.codec.sample_rate">24000</property>
    <property name="meta.media.0.codec.channels">1</property>
    <property name="meta.media.0.codec.name">pcm_s16le</property>
    <property name="meta.media.0.codec.long_name">PCM signed 16-bit little-endian</property>
    <property name="meta.media.0.codec.bit_rate">384000</property>
    <property name="seekable">1</property>
    <property name="audio_index">0</property>
    <property name="video_index">-1</property>
    <property name="creation_time">2023-12-11T05:02:37</property>
    <property name="astream">0</property>
    <property name="shotcut:skipConvert">1</property>
    <property name="xml">was here</property>
    <property name="shotcut:hash">5b33d57909aca64ce65d182bee121e21</property>
  </chain>
  <chain id="chain49" out="00:00:07.200">
    <property name="length">00:00:07.240</property>
    <property name="eof">pause</property>
    <property name="resource">voice/041_雨晴はう（ノーマル）_ざっくり説明すると….wav</property>
    <property name="mlt_service">avformat-novalidate</property>
    <property name="meta.media.nb_streams">1</property>
    <property name="meta.media.0.stream.type">audio</property>
    <property name="meta.media.0.codec.sample_fmt">s16</property>
    <property name="meta.media.0.codec.sample_rate">24000</property>
    <property name="meta.media.0.codec.channels">1</property>
    <property name="meta.media.0.codec.name">pcm_s16le</property>
    <property name="meta.media.0.codec.long_name">PCM signed 16-bit little-endian</property>
    <property name="meta.media.0.codec.bit_rate">384000</property>
    <property name="seekable">1</property>
    <property name="audio_index">0</property>
    <property name="video_index">-1</property>
    <property name="creation_time">2023-12-11T05:02:37</property>
    <property name="astream">0</property>
    <property name="shotcut:skipConvert">1</property>
    <property name="xml">was here</property>
    <property name="shotcut:hash">deb53fd2c1c5ee4acb3e919d2ba66aae</property>
  </chain>
  <chain id="chain50" out="00:00:07.720">
    <property name="length">00:00:07.760</property>
    <property name="eof">pause</property>
    <property name="resource">voice/042_雨晴はう（ノーマル）_なので，このテスタ….wav</property>
    <property name="mlt_service">avformat-novalidate</property>
    <property name="meta.media.nb_streams">1</property>
    <property name="meta.media.0.stream.type">audio</property>
    <property name="meta.media.0.codec.sample_fmt">s16</property>
    <property name="meta.media.0.codec.sample_rate">24000</property>
    <property name="meta.media.0.codec.channels">1</property>
    <property name="meta.media.0.codec.name">pcm_s16le</property>
    <property name="meta.media.0.codec.long_name">PCM signed 16-bit little-endian</property>
    <property name="meta.media.0.codec.bit_rate">384000</property>
    <property name="seekable">1</property>
    <property name="audio_index">0</property>
    <property name="video_index">-1</property>
    <property name="creation_time">2023-12-11T05:02:37</property>
    <property name="astream">0</property>
    <property name="shotcut:skipConvert">1</property>
    <property name="xml">was here</property>
    <property name="shotcut:hash">0db0e106e31796c05f8fd453dc2a35bf</property>
  </chain>
  <chain id="chain51" out="00:00:04.880">
    <property name="length">00:00:04.920</property>
    <property name="eof">pause</property>
    <property name="resource">voice/043_雨晴はう（ノーマル）_断線や，正しい配線….wav</property>
    <property name="mlt_service">avformat-novalidate</property>
    <property name="meta.media.nb_streams">1</property>
    <property name="meta.media.0.stream.type">audio</property>
    <property name="meta.media.0.codec.sample_fmt">s16</property>
    <property name="meta.media.0.codec.sample_rate">24000</property>
    <property name="meta.media.0.codec.channels">1</property>
    <property name="meta.media.0.codec.name">pcm_s16le</property>
    <property name="meta.media.0.codec.long_name">PCM signed 16-bit little-endian</property>
    <property name="meta.media.0.codec.bit_rate">384000</property>
    <property name="seekable">1</property>
    <property name="audio_index">0</property>
    <property name="video_index">-1</property>
    <property name="creation_time">2023-12-11T05:02:37</property>
    <property name="astream">0</property>
    <property name="shotcut:skipConvert">1</property>
    <property name="xml">was here</property>
    <property name="shotcut:hash">1bc6a5788d8e5a0798d413456ddb65a1</property>
  </chain>
  <chain id="chain52" out="00:00:03.400">
    <property name="length">00:00:03.440</property>
    <property name="eof">pause</property>
    <property name="resource">voice/044_雨晴はう（ノーマル）_今回はこの部分が光….wav</property>
    <property name="mlt_service">avformat-novalidate</property>
    <property name="meta.media.nb_streams">1</property>
    <property name="meta.media.0.stream.type">audio</property>
    <property name="meta.media.0.codec.sample_fmt">s16</property>
    <property name="meta.media.0.codec.sample_rate">24000</property>
    <property name="meta.media.0.codec.channels">1</property>
    <property name="meta.media.0.codec.name">pcm_s16le</property>
    <property name="meta.media.0.codec.long_name">PCM signed 16-bit little-endian</property>
    <property name="meta.media.0.codec.bit_rate">384000</property>
    <property name="seekable">1</property>
    <property name="audio_index">0</property>
    <property name="video_index">-1</property>
    <property name="creation_time">2023-12-11T05:02:37</property>
    <property name="astream">0</property>
    <property name="shotcut:skipConvert">1</property>
    <property name="xml">was here</property>
    <property name="shotcut:hash">699d88ce6b3d682a198b333a43ce0a7b</property>
  </chain>
  <chain id="chain54" out="00:00:08.360">
    <property name="length">00:00:08.400</property>
    <property name="eof">pause</property>
    <property name="resource">voice/046_雨晴はう（ノーマル）_さて，当然LANケ….wav</property>
    <property name="mlt_service">avformat-novalidate</property>
    <property name="meta.media.nb_streams">1</property>
    <property name="meta.media.0.stream.type">audio</property>
    <property name="meta.media.0.codec.sample_fmt">s16</property>
    <property name="meta.media.0.codec.sample_rate">24000</property>
    <property name="meta.media.0.codec.channels">1</property>
    <property name="meta.media.0.codec.name">pcm_s16le</property>
    <property name="meta.media.0.codec.long_name">PCM signed 16-bit little-endian</property>
    <property name="meta.media.0.codec.bit_rate">384000</property>
    <property name="seekable">1</property>
    <property name="audio_index">0</property>
    <property name="video_index">-1</property>
    <property name="creation_time">2023-12-11T05:02:37</property>
    <property name="astream">0</property>
    <property name="shotcut:skipConvert">1</property>
    <property name="xml">was here</property>
    <property name="shotcut:hash">17709a6787528b874d987a530639ab39</property>
  </chain>
  <chain id="chain55" out="00:00:04.560">
    <property name="length">00:00:04.600</property>
    <property name="eof">pause</property>
    <property name="resource">voice/047_雨晴はう（ノーマル）_UTPという単語に….wav</property>
    <property name="mlt_service">avformat-novalidate</property>
    <property name="meta.media.nb_streams">1</property>
    <property name="meta.media.0.stream.type">audio</property>
    <property name="meta.media.0.codec.sample_fmt">s16</property>
    <property name="meta.media.0.codec.sample_rate">24000</property>
    <property name="meta.media.0.codec.channels">1</property>
    <property name="meta.media.0.codec.name">pcm_s16le</property>
    <property name="meta.media.0.codec.long_name">PCM signed 16-bit little-endian</property>
    <property name="meta.media.0.codec.bit_rate">384000</property>
    <property name="seekable">1</property>
    <property name="audio_index">0</property>
    <property name="video_index">-1</property>
    <property name="creation_time">2023-12-11T05:02:37</property>
    <property name="astream">0</property>
    <property name="shotcut:skipConvert">1</property>
    <property name="xml">was here</property>
    <property name="shotcut:hash">1a1232b3f2ef3a4e569fd471e2f1ddf3</property>
  </chain>
  <chain id="chain56" out="00:00:05.800">
    <property name="length">00:00:05.840</property>
    <property name="eof">pause</property>
    <property name="resource">voice/048_雨晴はう（ノーマル）_そして，RJヨンゴ….wav</property>
    <property name="mlt_service">avformat-novalidate</property>
    <property name="meta.media.nb_streams">1</property>
    <property name="meta.media.0.stream.type">audio</property>
    <property name="meta.media.0.codec.sample_fmt">s16</property>
    <property name="meta.media.0.codec.sample_rate">24000</property>
    <property name="meta.media.0.codec.channels">1</property>
    <property name="meta.media.0.codec.name">pcm_s16le</property>
    <property name="meta.media.0.codec.long_name">PCM signed 16-bit little-endian</property>
    <property name="meta.media.0.codec.bit_rate">384000</property>
    <property name="seekable">1</property>
    <property name="audio_index">0</property>
    <property name="video_index">-1</property>
    <property name="creation_time">2023-12-11T05:02:37</property>
    <property name="astream">0</property>
    <property name="shotcut:skipConvert">1</property>
    <property name="xml">was here</property>
    <property name="shotcut:hash">ef9cae59f799b9d3f8dc714b64ccd2ed</property>
  </chain>
  <chain id="chain58" out="00:00:05.080">
    <property name="length">00:00:05.120</property>
    <property name="eof">pause</property>
    <property name="resource">voice/050_雨晴はう（ノーマル）_あと，ニッパーのよ….wav</property>
    <property name="mlt_service">avformat-novalidate</property>
    <property name="meta.media.nb_streams">1</property>
    <property name="meta.media.0.stream.type">audio</property>
    <property name="meta.media.0.codec.sample_fmt">s16</property>
    <property name="meta.media.0.codec.sample_rate">24000</property>
    <property name="meta.media.0.codec.channels">1</property>
    <property name="meta.media.0.codec.name">pcm_s16le</property>
    <property name="meta.media.0.codec.long_name">PCM signed 16-bit little-endian</property>
    <property name="meta.media.0.codec.bit_rate">384000</property>
    <property name="seekable">1</property>
    <property name="audio_index">0</property>
    <property name="video_index">-1</property>
    <property name="creation_time">2023-12-11T05:02:37</property>
    <property name="astream">0</property>
    <property name="shotcut:skipConvert">1</property>
    <property name="xml">was here</property>
    <property name="shotcut:hash">c46c9b579d98a08584fc0f2dd9fd14e9</property>
  </chain>
  <chain id="chain60" out="00:00:01.840">
    <property name="length">00:00:01.880</property>
    <property name="eof">pause</property>
    <property name="resource">voice/052_雨晴はう（ノーマル）_これにて準備完了で….wav</property>
    <property name="mlt_service">avformat-novalidate</property>
    <property name="meta.media.nb_streams">1</property>
    <property name="meta.media.0.stream.type">audio</property>
    <property name="meta.media.0.codec.sample_fmt">s16</property>
    <property name="meta.media.0.codec.sample_rate">24000</property>
    <property name="meta.media.0.codec.channels">1</property>
    <property name="meta.media.0.codec.name">pcm_s16le</property>
    <property name="meta.media.0.codec.long_name">PCM signed 16-bit little-endian</property>
    <property name="meta.media.0.codec.bit_rate">384000</property>
    <property name="seekable">1</property>
    <property name="audio_index">0</property>
    <property name="video_index">-1</property>
    <property name="creation_time">2023-12-11T05:02:37</property>
    <property name="astream">0</property>
    <property name="shotcut:skipConvert">1</property>
    <property name="xml">was here</property>
    <property name="shotcut:hash">2e9d7f60e504bd2f74f8eb8e81b76308</property>
  </chain>
  <chain id="chain61" out="00:00:02.080">
    <property name="length">00:00:02.120</property>
    <property name="eof">pause</property>
    <property name="resource">voice/053_雨晴はう（ノーマル）_用意するものはこの….wav</property>
    <property name="mlt_service">avformat-novalidate</property>
    <property name="meta.media.nb_streams">1</property>
    <property name="meta.media.0.stream.type">audio</property>
    <property name="meta.media.0.codec.sample_fmt">s16</property>
    <property name="meta.media.0.codec.sample_rate">24000</property>
    <property name="meta.media.0.codec.channels">1</property>
    <property name="meta.media.0.codec.name">pcm_s16le</property>
    <property name="meta.media.0.codec.long_name">PCM signed 16-bit little-endian</property>
    <property name="meta.media.0.codec.bit_rate">384000</property>
    <property name="seekable">1</property>
    <property name="audio_index">0</property>
    <property name="video_index">-1</property>
    <property name="creation_time">2023-12-11T05:02:37</property>
    <property name="astream">0</property>
    <property name="shotcut:skipConvert">1</property>
    <property name="xml">was here</property>
    <property name="shotcut:hash">92de0f3642ffd019926bfab45fa97465</property>
  </chain>
  <chain id="chain62" out="00:00:00.720">
    <property name="length">00:00:00.760</property>
    <property name="eof">pause</property>
    <property name="resource">voice/054_雨晴はう（ノーマル）_テスター.wav</property>
    <property name="mlt_service">avformat-novalidate</property>
    <property name="meta.media.nb_streams">1</property>
    <property name="meta.media.0.stream.type">audio</property>
    <property name="meta.media.0.codec.sample_fmt">s16</property>
    <property name="meta.media.0.codec.sample_rate">24000</property>
    <property name="meta.media.0.codec.channels">1</property>
    <property name="meta.media.0.codec.name">pcm_s16le</property>
    <property name="meta.media.0.codec.long_name">PCM signed 16-bit little-endian</property>
    <property name="meta.media.0.codec.bit_rate">384000</property>
    <property name="seekable">1</property>
    <property name="audio_index">0</property>
    <property name="video_index">-1</property>
    <property name="creation_time">2023-12-11T05:02:37</property>
    <property name="astream">0</property>
    <property name="shotcut:skipConvert">1</property>
    <property name="xml">was here</property>
    <property name="shotcut:hash">52cada10a339388da531b10f5bd3e5b0</property>
  </chain>
  <chain id="chain63" out="00:00:01.800">
    <property name="length">00:00:01.840</property>
    <property name="eof">pause</property>
    <property name="resource">voice/055_雨晴はう（ノーマル）_切り落とされたLA….wav</property>
    <property name="mlt_service">avformat-novalidate</property>
    <property name="meta.media.nb_streams">1</property>
    <property name="meta.media.0.stream.type">audio</property>
    <property name="meta.media.0.codec.sample_fmt">s16</property>
    <property name="meta.media.0.codec.sample_rate">24000</property>
    <property name="meta.media.0.codec.channels">1</property>
    <property name="meta.media.0.codec.name">pcm_s16le</property>
    <property name="meta.media.0.codec.long_name">PCM signed 16-bit little-endian</property>
    <property name="meta.media.0.codec.bit_rate">384000</property>
    <property name="seekable">1</property>
    <property name="audio_index">0</property>
    <property name="video_index">-1</property>
    <property name="creation_time">2023-12-11T05:02:37</property>
    <property name="astream">0</property>
    <property name="shotcut:skipConvert">1</property>
    <property name="xml">was here</property>
    <property name="shotcut:hash">cfc90225c92ed45fe609783c3fa3bf0e</property>
  </chain>
  <chain id="chain64" out="00:00:02.280">
    <property name="length">00:00:02.320</property>
    <property name="eof">pause</property>
    <property name="resource">voice/056_雨晴はう（ノーマル）_RJヨンゴーモジュ….wav</property>
    <property name="mlt_service">avformat-novalidate</property>
    <property name="meta.media.nb_streams">1</property>
    <property name="meta.media.0.stream.type">audio</property>
    <property name="meta.media.0.codec.sample_fmt">s16</property>
    <property name="meta.media.0.codec.sample_rate">24000</property>
    <property name="meta.media.0.codec.channels">1</property>
    <property name="meta.media.0.codec.name">pcm_s16le</property>
    <property name="meta.media.0.codec.long_name">PCM signed 16-bit little-endian</property>
    <property name="meta.media.0.codec.bit_rate">384000</property>
    <property name="seekable">1</property>
    <property name="audio_index">0</property>
    <property name="video_index">-1</property>
    <property name="creation_time">2023-12-11T05:02:37</property>
    <property name="astream">0</property>
    <property name="shotcut:skipConvert">1</property>
    <property name="xml">was here</property>
    <property name="shotcut:hash">ff2ebb89c3375144fed52ecf5b28a754</property>
  </chain>
  <chain id="chain65" out="00:00:01.440">
    <property name="length">00:00:01.480</property>
    <property name="eof">pause</property>
    <property name="resource">voice/057_雨晴はう（ノーマル）_ニッパーのようなもの.wav</property>
    <property name="mlt_service">avformat-novalidate</property>
    <property name="meta.media.nb_streams">1</property>
    <property name="meta.media.0.stream.type">audio</property>
    <property name="meta.media.0.codec.sample_fmt">s16</property>
    <property name="meta.media.0.codec.sample_rate">24000</property>
    <property name="meta.media.0.codec.channels">1</property>
    <property name="meta.media.0.codec.name">pcm_s16le</property>
    <property name="meta.media.0.codec.long_name">PCM signed 16-bit little-endian</property>
    <property name="meta.media.0.codec.bit_rate">384000</property>
    <property name="seekable">1</property>
    <property name="audio_index">0</property>
    <property name="video_index">-1</property>
    <property name="creation_time">2023-12-11T05:02:37</property>
    <property name="astream">0</property>
    <property name="shotcut:skipConvert">1</property>
    <property name="xml">was here</property>
    <property name="shotcut:hash">241d3333fb781d2f33cca3b6994cf818</property>
  </chain>
  <chain id="chain66" out="00:00:01.760">
    <property name="length">00:00:01.800</property>
    <property name="eof">pause</property>
    <property name="resource">voice/058_雨晴はう（ノーマル）_かしめ工具のような….wav</property>
    <property name="mlt_service">avformat-novalidate</property>
    <property name="meta.media.nb_streams">1</property>
    <property name="meta.media.0.stream.type">audio</property>
    <property name="meta.media.0.codec.sample_fmt">s16</property>
    <property name="meta.media.0.codec.sample_rate">24000</property>
    <property name="meta.media.0.codec.channels">1</property>
    <property name="meta.media.0.codec.name">pcm_s16le</property>
    <property name="meta.media.0.codec.long_name">PCM signed 16-bit little-endian</property>
    <property name="meta.media.0.codec.bit_rate">384000</property>
    <property name="seekable">1</property>
    <property name="audio_index">0</property>
    <property name="video_index">-1</property>
    <property name="creation_time">2023-12-11T05:02:37</property>
    <property name="astream">0</property>
    <property name="shotcut:skipConvert">1</property>
    <property name="xml">was here</property>
    <property name="shotcut:hash">49707b9960afbc23fd000796c89146b3</property>
  </chain>
  <chain id="chain67" out="00:00:00.760">
    <property name="length">00:00:00.800</property>
    <property name="eof">pause</property>
    <property name="resource">voice/059_雨晴はう（ノーマル）_だけです．.wav</property>
    <property name="mlt_service">avformat-novalidate</property>
    <property name="meta.media.nb_streams">1</property>
    <property name="meta.media.0.stream.type">audio</property>
    <property name="meta.media.0.codec.sample_fmt">s16</property>
    <property name="meta.media.0.codec.sample_rate">24000</property>
    <property name="meta.media.0.codec.channels">1</property>
    <property name="meta.media.0.codec.name">pcm_s16le</property>
    <property name="meta.media.0.codec.long_name">PCM signed 16-bit little-endian</property>
    <property name="meta.media.0.codec.bit_rate">384000</property>
    <property name="seekable">1</property>
    <property name="audio_index">0</property>
    <property name="video_index">-1</property>
    <property name="creation_time">2023-12-11T05:02:37</property>
    <property name="astream">0</property>
    <property name="shotcut:skipConvert">1</property>
    <property name="xml">was here</property>
    <property name="shotcut:hash">d8b730f9a7cb5e0a87a0137e74b18c16</property>
    <property name="ignore_points">1</property>
    <property name="shotcut:caption">059_雨晴はう（ノーマル）_だけです．.wav</property>
  </chain>
  <producer id="producer3" in="00:00:00.000" out="03:59:59.960">
    <property name="length">04:00:00.000</property>
    <property name="eof">pause</property>
    <property name="resource">#FF000000</property>
    <property name="aspect_ratio">1</property>
    <property name="mlt_service">color</property>
    <property name="mlt_image_format">rgba</property>
    <property name="shotcut:caption">#FF000000</property>
    <property name="shotcut:detail">#FF000000</property>
    <property name="ignore_points">0</property>
    <property name="xml">was here</property>
    <property name="seekable">1</property>
  </producer>
  <playlist id="main_bin" title="Shotcut version 23.11.29">
    <property name="shotcut:projectAudioChannels">2</property>
    <property name="shotcut:projectFolder">1</property>
    <property name="shotcut:skipConvert">0</property>
    <property name="xml_retain">1</property>
    <entry producer="chain0" in="00:00:18.240" out="00:00:41.400"/>
    <entry producer="chain1" in="00:00:00.000" out="00:52:52.840"/>
    <entry producer="producer0" in="00:00:00.000" out="00:00:03.960"/>
    <entry producer="producer1" in="00:00:00.000" out="00:00:03.960"/>
    <entry producer="producer2" in="00:00:00.000" out="00:00:03.960"/>
    <entry producer="chain3" in="00:00:00.000" out="00:00:23.760"/>
    <entry producer="chain4" in="00:00:00.000" out="00:10:50.560"/>
    <entry producer="chain5" in="00:00:00.000" out="00:00:10.400"/>
    <entry producer="chain6" in="00:00:00.000" out="00:10:10.560"/>
    <entry producer="chain7" in="00:00:00.000" out="00:00:23.760"/>
    <entry producer="chain8" in="00:00:00.000" out="00:00:10.400"/>
    <entry producer="chain9" in="00:00:00.000" out="00:10:10.560"/>
    <entry producer="chain2" in="00:00:00.000" out="00:00:04.480"/>
    <entry producer="chain10" in="00:00:00.000" out="00:00:05.880"/>
    <entry producer="chain11" in="00:00:00.000" out="00:00:10.200"/>
    <entry producer="chain12" in="00:00:00.000" out="00:00:03.880"/>
    <entry producer="chain14" in="00:00:00.000" out="00:00:04.000"/>
    <entry producer="chain15" in="00:00:00.000" out="00:00:08.120"/>
    <entry producer="chain16" in="00:00:00.000" out="00:00:07.680"/>
    <entry producer="chain17" in="00:00:00.000" out="00:00:07.720"/>
    <entry producer="chain18" in="00:00:00.000" out="00:00:09.000"/>
    <entry producer="chain19" in="00:00:00.000" out="00:00:10.800"/>
    <entry producer="chain21" in="00:00:00.000" out="00:00:03.400"/>
    <entry producer="chain22" in="00:00:00.000" out="00:00:12.640"/>
    <entry producer="chain24" in="00:00:00.000" out="00:00:03.960"/>
    <entry producer="chain25" in="00:00:00.000" out="00:00:04.480"/>
    <entry producer="chain26" in="00:00:00.000" out="00:00:04.000"/>
    <entry producer="chain27" in="00:00:00.000" out="00:00:05.800"/>
    <entry producer="chain28" in="00:00:00.000" out="00:00:11.880"/>
    <entry producer="chain30" in="00:00:00.000" out="00:00:02.640"/>
    <entry producer="chain31" in="00:00:00.000" out="00:00:01.720"/>
    <entry producer="chain32" in="00:00:00.000" out="00:00:06.280"/>
    <entry producer="chain33" in="00:00:00.000" out="00:00:12.760"/>
    <entry producer="chain34" in="00:00:00.000" out="00:00:05.840"/>
    <entry producer="chain35" in="00:00:00.000" out="00:00:03.760"/>
    <entry producer="chain36" in="00:00:00.000" out="00:00:05.280"/>
    <entry producer="chain38" in="00:00:00.000" out="00:00:06.640"/>
    <entry producer="chain39" in="00:00:00.000" out="00:00:05.040"/>
    <entry producer="chain40" in="00:00:00.000" out="00:00:02.880"/>
    <entry producer="chain42" in="00:00:00.000" out="00:00:07.880"/>
    <entry producer="chain43" in="00:00:00.000" out="00:00:06.640"/>
    <entry producer="chain44" in="00:00:00.000" out="00:00:06.280"/>
    <entry producer="chain45" in="00:00:00.000" out="00:00:02.360"/>
    <entry producer="chain46" in="00:00:00.000" out="00:00:05.920"/>
    <entry producer="chain47" in="00:00:00.000" out="00:00:08.720"/>
    <entry producer="chain48" in="00:00:00.000" out="00:00:10.120"/>
    <entry producer="chain49" in="00:00:00.000" out="00:00:07.200"/>
    <entry producer="chain50" in="00:00:00.000" out="00:00:07.720"/>
    <entry producer="chain51" in="00:00:00.000" out="00:00:04.880"/>
    <entry producer="chain52" in="00:00:00.000" out="00:00:03.400"/>
    <entry producer="chain54" in="00:00:00.000" out="00:00:08.360"/>
    <entry producer="chain55" in="00:00:00.000" out="00:00:04.560"/>
    <entry producer="chain56" in="00:00:00.000" out="00:00:05.800"/>
    <entry producer="chain58" in="00:00:00.000" out="00:00:05.080"/>
    <entry producer="chain60" in="00:00:00.000" out="00:00:01.840"/>
    <entry producer="chain61" in="00:00:00.000" out="00:00:02.080"/>
    <entry producer="chain62" in="00:00:00.000" out="00:00:00.720"/>
    <entry producer="chain63" in="00:00:00.000" out="00:00:01.800"/>
    <entry producer="chain64" in="00:00:00.000" out="00:00:02.280"/>
    <entry producer="chain65" in="00:00:00.000" out="00:00:01.440"/>
    <entry producer="chain66" in="00:00:00.000" out="00:00:01.760"/>
    <entry producer="chain67" in="00:00:00.000" out="00:00:00.760"/>
    <entry producer="producer3" in="00:00:00.000" out="00:00:03.960"/>
  </playlist>
  <producer id="black" in="00:00:00.000" out="00:10:24.440">
    <property name="length">00:10:24.480</property>
    <property name="eof">pause</property>
    <property name="resource">0</property>
    <property name="aspect_ratio">1</property>
    <property name="mlt_service">color</property>
    <property name="mlt_image_format">rgba</property>
    <property name="set.test_audio">0</property>
  </producer>
  <playlist id="background">
    <entry producer="black" in="00:00:00.000" out="00:10:24.440"/>
  </playlist>
  <producer id="producer4" in="00:00:00.000" out="03:59:59.960">
    <property name="length">04:00:00.000</property>
    <property name="eof">pause</property>
    <property name="resource">back/3_sep_b.png</property>
    <property name="ttl">1</property>
    <property name="aspect_ratio">1</property>
    <property name="meta.media.progressive">1</property>
    <property name="seekable">1</property>
    <property name="format">2</property>
    <property name="meta.media.width">1184</property>
    <property name="meta.media.height">664</property>
    <property name="mlt_service">qimage</property>
    <property name="creation_time">2023-12-08T08:23:48</property>
    <property name="shotcut:skipConvert">0</property>
    <property name="shotcut:caption">3_sep_b.png</property>
    <property name="shotcut:hash">7cd4966b9d14bb7004f1bf1635ef5133</property>
    <property name="ignore_points">0</property>
    <property name="xml">was here</property>
    <property name="meta.shotcut.vui">1</property>
    <filter id="filter2" out="00:10:24.440">
      <property name="argument">RTAの流れ↓
 - 配線
 - 先端を揃える
 - かしめる
 - 配線(2)
 - 先端を揃える(2)
 - かしめる(2)
 - テスト
</property>
      <property name="geometry">1485 263 402 525 1</property>
      <property name="family">Sans</property>
      <property name="size">120</property>
      <property name="weight">400</property>
      <property name="style">normal</property>
      <property name="fgcolour">#ffffffff</property>
      <property name="bgcolour">#00000000</property>
      <property name="olcolour">#aa000000</property>
      <property name="pad">0</property>
      <property name="halign">left</property>
      <property name="valign">top</property>
      <property name="outline">3</property>
      <property name="opacity">1.0</property>
      <property name="mlt_service">dynamictext</property>
      <property name="shotcut:filter">dynamicText</property>
      <property name="shotcut:usePointSize">0</property>
      <property name="shotcut:animIn">00:00:00.000</property>
      <property name="shotcut:animOut">00:00:00.000</property>
      <property name="disable">0</property>
    </filter>
    <filter id="filter1" out="00:10:24.440">
      <property name="format">MM:SS.SS</property>
      <property name="start">00:00:00.000</property>
      <property name="duration">00:00:10.000</property>
      <property name="offset">00:00:00.000</property>
      <property name="speed">1</property>
      <property name="direction">up</property>
      <property name="geometry">1514 71 332 129 1</property>
      <property name="family">Hiragino Sans</property>
      <property name="size">1080</property>
      <property name="weight">500</property>
      <property name="style">normal</property>
      <property name="fgcolour">#ff00f7ff</property>
      <property name="bgcolour">#00000000</property>
      <property name="olcolour">#ff000000</property>
      <property name="pad">0</property>
      <property name="halign">center</property>
      <property name="valign">middle</property>
      <property name="outline">0</property>
      <property name="opacity">1.0</property>
      <property name="mlt_service">timer</property>
      <property name="shotcut:filter">timer</property>
      <property name="shotcut:usePointSize">0</property>
      <property name="disable">0</property>
    </filter>
  </producer>
  <playlist id="playlist1">
    <property name="shotcut:video">1</property>
    <property name="shotcut:name">Back</property>
    <entry producer="producer4" in="00:00:00.000" out="00:10:24.440"/>
  </playlist>
  <producer id="producer5" in="00:00:00.000" out="03:59:59.960">
    <property name="length">04:00:00.000</property>
    <property name="eof">pause</property>
    <property name="resource">#00000000</property>
    <property name="aspect_ratio">1</property>
    <property name="mlt_service">color</property>
    <property name="mlt_image_format">rgba</property>
    <property name="shotcut:caption">transparent</property>
    <property name="shotcut:detail">transparent</property>
    <property name="xml">was here</property>
    <property name="seekable">1</property>
    <property name="meta.shotcut.vui">1</property>
    <filter id="filter3" out="00:00:05.160">
      <property name="argument">みんな大好きLANケーブル作成RTA
はっじまっるよー</property>
      <property name="geometry">371 834 1505 211 1</property>
      <property name="family">Hiragino Sans</property>
      <property name="size">72</property>
      <property name="weight">500</property>
      <property name="style">normal</property>
      <property name="fgcolour">#ffffffff</property>
      <property name="bgcolour">#00000000</property>
      <property name="olcolour">#aa000000</property>
      <property name="pad">0</property>
      <property name="halign">left</property>
      <property name="valign">middle</property>
      <property name="outline">3</property>
      <property name="opacity">1</property>
      <property name="mlt_service">dynamictext</property>
      <property name="shotcut:filter">dynamicText</property>
      <property name="shotcut:usePointSize">1</property>
      <property name="shotcut:pointSize">72</property>
    </filter>
  </producer>
  <producer id="producer6" in="00:00:00.000" out="03:59:59.960">
    <property name="length">04:00:00.000</property>
    <property name="eof">pause</property>
    <property name="resource">#00000000</property>
    <property name="aspect_ratio">1</property>
    <property name="mlt_service">color</property>
    <property name="mlt_image_format">rgba</property>
    <property name="shotcut:caption">transparent</property>
    <property name="shotcut:detail">transparent</property>
    <property name="xml">was here</property>
    <property name="seekable">1</property>
    <property name="meta.shotcut.vui">1</property>
    <filter id="filter4" out="00:00:06.520">
      <property name="argument">まずは自己紹介軽く自己紹介．
うp主は，「まっつんくん」という名前で活動しています．</property>
      <property name="geometry">371 834 1505 211 1</property>
      <property name="family">Hiragino Sans</property>
      <property name="size">72</property>
      <property name="weight">500</property>
      <property name="style">normal</property>
      <property name="fgcolour">#ffffffff</property>
      <property name="bgcolour">#00000000</property>
      <property name="olcolour">#aa000000</property>
      <property name="pad">0</property>
      <property name="halign">left</property>
      <property name="valign">middle</property>
      <property name="outline">3</property>
      <property name="opacity">1</property>
      <property name="mlt_service">dynamictext</property>
      <property name="shotcut:filter">dynamicText</property>
      <property name="shotcut:usePointSize">1</property>
      <property name="shotcut:pointSize">72</property>
    </filter>
  </producer>
  <producer id="producer7" in="00:00:00.000" out="03:59:59.960">
    <property name="length">04:00:00.000</property>
    <property name="eof">pause</property>
    <property name="resource">#00000000</property>
    <property name="aspect_ratio">1</property>
    <property name="mlt_service">color</property>
    <property name="mlt_image_format">rgba</property>
    <property name="shotcut:caption">transparent</property>
    <property name="shotcut:detail">transparent</property>
    <property name="xml">was here</property>
    <property name="seekable">1</property>
    <property name="meta.shotcut.vui">1</property>
    <filter id="filter5" out="00:00:10.720">
      <property name="argument">名古屋大学の小さな非公式サークル，「アプリ開発団体jack」
の一番大きな公式イベント，jackFes参加できなくて申し訳ありません．</property>
      <property name="geometry">371 834 1505 211 1</property>
      <property name="family">Hiragino Sans</property>
      <property name="size">72</property>
      <property name="weight">500</property>
      <property name="style">normal</property>
      <property name="fgcolour">#ffffffff</property>
      <property name="bgcolour">#00000000</property>
      <property name="olcolour">#aa000000</property>
      <property name="pad">0</property>
      <property name="halign">left</property>
      <property name="valign">middle</property>
      <property name="outline">3</property>
      <property name="opacity">1</property>
      <property name="mlt_service">dynamictext</property>
      <property name="shotcut:filter">dynamicText</property>
      <property name="shotcut:usePointSize">1</property>
      <property name="shotcut:pointSize">72</property>
    </filter>
  </producer>
  <producer id="producer8" in="00:00:00.000" out="03:59:59.960">
    <property name="length">04:00:00.000</property>
    <property name="eof">pause</property>
    <property name="resource">#00000000</property>
    <property name="aspect_ratio">1</property>
    <property name="mlt_service">color</property>
    <property name="mlt_image_format">rgba</property>
    <property name="shotcut:caption">transparent</property>
    <property name="shotcut:detail">transparent</property>
    <property name="xml">was here</property>
    <property name="seekable">1</property>
    <property name="meta.shotcut.vui">1</property>
    <filter id="filter6" out="00:00:04.400">
      <property name="argument">そのため，この動画を作成する運びとなりました．</property>
      <property name="geometry">371 834 1505 211 1</property>
      <property name="family">Hiragino Sans</property>
      <property name="size">72</property>
      <property name="weight">500</property>
      <property name="style">normal</property>
      <property name="fgcolour">#ffffffff</property>
      <property name="bgcolour">#00000000</property>
      <property name="olcolour">#aa000000</property>
      <property name="pad">0</property>
      <property name="halign">left</property>
      <property name="valign">middle</property>
      <property name="outline">3</property>
      <property name="opacity">1</property>
      <property name="mlt_service">dynamictext</property>
      <property name="shotcut:filter">dynamicText</property>
      <property name="shotcut:usePointSize">1</property>
      <property name="shotcut:pointSize">72</property>
    </filter>
  </producer>
  <producer id="producer9" in="00:00:00.000" out="03:59:59.960">
    <property name="length">04:00:00.000</property>
    <property name="eof">pause</property>
    <property name="resource">#00000000</property>
    <property name="aspect_ratio">1</property>
    <property name="mlt_service">color</property>
    <property name="mlt_image_format">rgba</property>
    <property name="shotcut:caption">transparent</property>
    <property name="shotcut:detail">transparent</property>
    <property name="xml">was here</property>
    <property name="seekable">1</property>
    <property name="meta.shotcut.vui">1</property>
    <filter id="filter7" out="00:00:04.600">
      <property name="argument">さて,最初に断っておくべきことが5つございます．</property>
      <property name="geometry">371 834 1505 211 1</property>
      <property name="family">Hiragino Sans</property>
      <property name="size">72</property>
      <property name="weight">500</property>
      <property name="style">normal</property>
      <property name="fgcolour">#ffffffff</property>
      <property name="bgcolour">#00000000</property>
      <property name="olcolour">#aa000000</property>
      <property name="pad">0</property>
      <property name="halign">left</property>
      <property name="valign">middle</property>
      <property name="outline">3</property>
      <property name="opacity">1</property>
      <property name="mlt_service">dynamictext</property>
      <property name="shotcut:filter">dynamicText</property>
      <property name="shotcut:usePointSize">1</property>
      <property name="shotcut:pointSize">72</property>
    </filter>
  </producer>
  <producer id="producer10" in="00:00:00.000" out="03:59:59.960">
    <property name="length">04:00:00.000</property>
    <property name="eof">pause</property>
    <property name="resource">#00000000</property>
    <property name="aspect_ratio">1</property>
    <property name="mlt_service">color</property>
    <property name="mlt_image_format">rgba</property>
    <property name="shotcut:caption">transparent</property>
    <property name="shotcut:detail">transparent</property>
    <property name="xml">was here</property>
    <property name="seekable">1</property>
    <property name="meta.shotcut.vui">1</property>
    <filter id="filter8" out="00:00:08.800">
      <property name="argument">1つ目に，この音声は“VOICEVOX:雨晴はう“
を利用しています．製作者様に感謝です．</property>
      <property name="geometry">371 834 1505 211 1</property>
      <property name="family">Hiragino Sans</property>
      <property name="size">72</property>
      <property name="weight">500</property>
      <property name="style">normal</property>
      <property name="fgcolour">#ffffffff</property>
      <property name="bgcolour">#00000000</property>
      <property name="olcolour">#aa000000</property>
      <property name="pad">0</property>
      <property name="halign">left</property>
      <property name="valign">middle</property>
      <property name="outline">3</property>
      <property name="opacity">1</property>
      <property name="mlt_service">dynamictext</property>
      <property name="shotcut:filter">dynamicText</property>
      <property name="shotcut:usePointSize">1</property>
      <property name="shotcut:pointSize">72</property>
    </filter>
  </producer>
  <tractor id="tractor0" in="00:00:00.000" out="00:00:00.000">
    <property name="shotcut:transition">lumaMix</property>
    <track producer="producer9" in="00:00:04.600" out="00:00:04.600"/>
    <track producer="producer10" in="00:00:00.000" out="00:00:00.000"/>
    <transition id="transition0">
      <property name="a_track">0</property>
      <property name="b_track">1</property>
      <property name="factory">loader</property>
      <property name="mlt_service">luma</property>
      <property name="alpha_over">1</property>
      <property name="fix_background_alpha">1</property>
    </transition>
    <transition id="transition1">
      <property name="a_track">0</property>
      <property name="b_track">1</property>
      <property name="mlt_service">mix</property>
      <property name="start">-1</property>
      <property name="accepts_blanks">1</property>
    </transition>
  </tractor>
  <producer id="producer11" in="00:00:00.000" out="03:59:59.960">
    <property name="length">04:00:00.000</property>
    <property name="eof">pause</property>
    <property name="resource">#00000000</property>
    <property name="aspect_ratio">1</property>
    <property name="mlt_service">color</property>
    <property name="mlt_image_format">rgba</property>
    <property name="shotcut:caption">transparent</property>
    <property name="shotcut:detail">transparent</property>
    <property name="xml">was here</property>
    <property name="seekable">1</property>
    <property name="meta.shotcut.vui">1</property>
    <filter id="filter9" out="00:00:08.240">
      <property name="argument">2つ目に，うp主は動画編集が初めてなので，
雑な部分が多いかもしれませんがご了承下さい．</property>
      <property name="geometry">371 834 1505 211 1</property>
      <property name="family">Hiragino Sans</property>
      <property name="size">72</property>
      <property name="weight">500</property>
      <property name="style">normal</property>
      <property name="fgcolour">#ffffffff</property>
      <property name="bgcolour">#00000000</property>
      <property name="olcolour">#aa000000</property>
      <property name="pad">0</property>
      <property name="halign">left</property>
      <property name="valign">middle</property>
      <property name="outline">3</property>
      <property name="opacity">1</property>
      <property name="mlt_service">dynamictext</property>
      <property name="shotcut:filter">dynamicText</property>
      <property name="shotcut:usePointSize">1</property>
      <property name="shotcut:pointSize">72</property>
    </filter>
  </producer>
  <producer id="producer12" in="00:00:00.000" out="03:59:59.960">
    <property name="length">04:00:00.000</property>
    <property name="eof">pause</property>
    <property name="resource">#00000000</property>
    <property name="aspect_ratio">1</property>
    <property name="mlt_service">color</property>
    <property name="mlt_image_format">rgba</property>
    <property name="shotcut:caption">transparent</property>
    <property name="shotcut:detail">transparent</property>
    <property name="xml">was here</property>
    <property name="seekable">1</property>
    <property name="meta.shotcut.vui">1</property>
    <filter id="filter10" out="00:00:08.240">
      <property name="argument">3つ目に，本RTAはガバガバレギュレーションの下，
ガバガバに走っていますが，ご了承下さい．</property>
      <property name="geometry">371 834 1505 211 1</property>
      <property name="family">Hiragino Sans</property>
      <property name="size">72</property>
      <property name="weight">500</property>
      <property name="style">normal</property>
      <property name="fgcolour">#ffffffff</property>
      <property name="bgcolour">#00000000</property>
      <property name="olcolour">#aa000000</property>
      <property name="pad">0</property>
      <property name="halign">left</property>
      <property name="valign">middle</property>
      <property name="outline">3</property>
      <property name="opacity">1</property>
      <property name="mlt_service">dynamictext</property>
      <property name="shotcut:filter">dynamicText</property>
      <property name="shotcut:usePointSize">1</property>
      <property name="shotcut:pointSize">72</property>
    </filter>
  </producer>
  <producer id="producer13" in="00:00:00.000" out="03:59:59.960">
    <property name="length">04:00:00.000</property>
    <property name="eof">pause</property>
    <property name="resource">#00000000</property>
    <property name="aspect_ratio">1</property>
    <property name="mlt_service">color</property>
    <property name="mlt_image_format">rgba</property>
    <property name="shotcut:caption">transparent</property>
    <property name="shotcut:detail">transparent</property>
    <property name="xml">was here</property>
    <property name="seekable">1</property>
    <property name="meta.shotcut.vui">1</property>
    <filter id="filter11" out="00:00:09.640">
      <property name="argument">4つ目に，専門知識において間違った点があるかもしれませんが，
その際はコメント欄にてご指摘いただけるとありがたいです．</property>
      <property name="geometry">371 834 1505 211 1</property>
      <property name="family">Hiragino Sans</property>
      <property name="size">72</property>
      <property name="weight">500</property>
      <property name="style">normal</property>
      <property name="fgcolour">#ffffffff</property>
      <property name="bgcolour">#00000000</property>
      <property name="olcolour">#aa000000</property>
      <property name="pad">0</property>
      <property name="halign">left</property>
      <property name="valign">middle</property>
      <property name="outline">3</property>
      <property name="opacity">1</property>
      <property name="mlt_service">dynamictext</property>
      <property name="shotcut:filter">dynamicText</property>
      <property name="shotcut:usePointSize">1</property>
      <property name="shotcut:pointSize">72</property>
    </filter>
  </producer>
  <producer id="producer14" in="00:00:00.000" out="03:59:59.960">
    <property name="length">04:00:00.000</property>
    <property name="eof">pause</property>
    <property name="resource">#00000000</property>
    <property name="aspect_ratio">1</property>
    <property name="mlt_service">color</property>
    <property name="mlt_image_format">rgba</property>
    <property name="shotcut:caption">transparent</property>
    <property name="shotcut:detail">transparent</property>
    <property name="xml">was here</property>
    <property name="seekable">1</property>
    <property name="meta.shotcut.vui">1</property>
    <filter id="filter12" out="00:00:11.360">
      <property name="argument">5つ目に，本動画は細々してて何やってるか分かりにくい動画になっていますが，
その分解説でカバーするように努めます．ご了承下さい． </property>
      <property name="geometry">371 834 1505 211 1</property>
      <property name="family">Hiragino Sans</property>
      <property name="size">72</property>
      <property name="weight">500</property>
      <property name="style">normal</property>
      <property name="fgcolour">#ffffffff</property>
      <property name="bgcolour">#00000000</property>
      <property name="olcolour">#aa000000</property>
      <property name="pad">0</property>
      <property name="halign">left</property>
      <property name="valign">middle</property>
      <property name="outline">3</property>
      <property name="opacity">1</property>
      <property name="mlt_service">dynamictext</property>
      <property name="shotcut:filter">dynamicText</property>
      <property name="shotcut:usePointSize">1</property>
      <property name="shotcut:pointSize">72</property>
    </filter>
  </producer>
  <producer id="producer15" in="00:00:00.000" out="03:59:59.960">
    <property name="length">04:00:00.000</property>
    <property name="eof">pause</property>
    <property name="resource">#00000000</property>
    <property name="aspect_ratio">1</property>
    <property name="mlt_service">color</property>
    <property name="mlt_image_format">rgba</property>
    <property name="shotcut:caption">transparent</property>
    <property name="shotcut:detail">transparent</property>
    <property name="xml">was here</property>
    <property name="seekable">1</property>
    <property name="meta.shotcut.vui">1</property>
    <filter id="filter13" out="00:00:04.200">
      <property name="argument">まだ本編が始まる前に時間がございますので，</property>
      <property name="geometry">371 834 1505 211 1</property>
      <property name="family">Hiragino Sans</property>
      <property name="size">72</property>
      <property name="weight">500</property>
      <property name="style">normal</property>
      <property name="fgcolour">#ffffffff</property>
      <property name="bgcolour">#00000000</property>
      <property name="olcolour">#aa000000</property>
      <property name="pad">0</property>
      <property name="halign">left</property>
      <property name="valign">middle</property>
      <property name="outline">3</property>
      <property name="opacity">1</property>
      <property name="mlt_service">dynamictext</property>
      <property name="shotcut:filter">dynamicText</property>
      <property name="shotcut:usePointSize">1</property>
      <property name="shotcut:pointSize">72</property>
    </filter>
  </producer>
  <producer id="producer16" in="00:00:00.000" out="03:59:59.960">
    <property name="length">04:00:00.000</property>
    <property name="eof">pause</property>
    <property name="resource">#00000000</property>
    <property name="aspect_ratio">1</property>
    <property name="mlt_service">color</property>
    <property name="mlt_image_format">rgba</property>
    <property name="shotcut:caption">transparent</property>
    <property name="shotcut:detail">transparent</property>
    <property name="xml">was here</property>
    <property name="seekable">1</property>
    <property name="meta.shotcut.vui">1</property>
    <filter id="filter14" out="00:00:13.680">
      <property name="argument">本動画において重要な言葉，RTAとLANケーブルについて，
視聴者兄貴姉貴たちの中には馴染のないかたもいるかと思われるので，
先にざっくり解説したいと思います．</property>
      <property name="geometry">371 834 1505 211 1</property>
      <property name="family">Hiragino Sans</property>
      <property name="size">72</property>
      <property name="weight">500</property>
      <property name="style">normal</property>
      <property name="fgcolour">#ffffffff</property>
      <property name="bgcolour">#00000000</property>
      <property name="olcolour">#aa000000</property>
      <property name="pad">0</property>
      <property name="halign">left</property>
      <property name="valign">middle</property>
      <property name="outline">3</property>
      <property name="opacity">1</property>
      <property name="mlt_service">dynamictext</property>
      <property name="shotcut:filter">dynamicText</property>
      <property name="shotcut:usePointSize">1</property>
      <property name="shotcut:pointSize">72</property>
    </filter>
  </producer>
  <producer id="producer17" in="00:00:00.000" out="03:59:59.960">
    <property name="length">04:00:00.000</property>
    <property name="eof">pause</property>
    <property name="resource">#00000000</property>
    <property name="aspect_ratio">1</property>
    <property name="mlt_service">color</property>
    <property name="mlt_image_format">rgba</property>
    <property name="shotcut:caption">transparent</property>
    <property name="shotcut:detail">transparent</property>
    <property name="xml">was here</property>
    <property name="seekable">1</property>
    <property name="meta.shotcut.vui">1</property>
    <filter id="filter15" out="00:00:05.120">
      <property name="argument">まず，RTAから．以下Wikipediaより引用</property>
      <property name="geometry">371 834 1505 211 1</property>
      <property name="family">Hiragino Sans</property>
      <property name="size">72</property>
      <property name="weight">500</property>
      <property name="style">normal</property>
      <property name="fgcolour">#ffffffff</property>
      <property name="bgcolour">#00000000</property>
      <property name="olcolour">#aa000000</property>
      <property name="pad">0</property>
      <property name="halign">left</property>
      <property name="valign">middle</property>
      <property name="outline">3</property>
      <property name="opacity">1</property>
      <property name="mlt_service">dynamictext</property>
      <property name="shotcut:filter">dynamicText</property>
      <property name="shotcut:usePointSize">1</property>
      <property name="shotcut:pointSize">72</property>
    </filter>
  </producer>
  <producer id="producer18" in="00:00:00.000" out="03:59:59.960">
    <property name="length">04:00:00.000</property>
    <property name="eof">pause</property>
    <property name="resource">#00000000</property>
    <property name="aspect_ratio">1</property>
    <property name="mlt_service">color</property>
    <property name="mlt_image_format">rgba</property>
    <property name="shotcut:caption">transparent</property>
    <property name="shotcut:detail">transparent</property>
    <property name="xml">was here</property>
    <property name="seekable">1</property>
    <property name="meta.shotcut.vui">1</property>
    <filter id="filter16" out="00:00:15.600">
      <property name="argument">コンピュータゲームにおけるやり込みの一種、「リアルタイムアタック」 (Real Time Attack)。
ゲーム内部時間ではなく実際のプレイ時間で計測する。
「RTA in Japan」など、集団運営によるイベントが実施されることもある。</property>
      <property name="geometry">371 834 1505 211 1</property>
      <property name="family">Hiragino Sans</property>
      <property name="size">72</property>
      <property name="weight">500</property>
      <property name="style">normal</property>
      <property name="fgcolour">#ffffffff</property>
      <property name="bgcolour">#00000000</property>
      <property name="olcolour">#aa000000</property>
      <property name="pad">0</property>
      <property name="halign">left</property>
      <property name="valign">middle</property>
      <property name="outline">3</property>
      <property name="opacity">1</property>
      <property name="mlt_service">dynamictext</property>
      <property name="shotcut:filter">dynamicText</property>
      <property name="shotcut:usePointSize">1</property>
      <property name="shotcut:pointSize">72</property>
    </filter>
  </producer>
  <producer id="producer19" in="00:00:00.000" out="03:59:59.960">
    <property name="length">04:00:00.000</property>
    <property name="eof">pause</property>
    <property name="resource">#00000000</property>
    <property name="aspect_ratio">1</property>
    <property name="mlt_service">color</property>
    <property name="mlt_image_format">rgba</property>
    <property name="shotcut:caption">transparent</property>
    <property name="shotcut:detail">transparent</property>
    <property name="xml">was here</property>
    <property name="seekable">1</property>
    <property name="meta.shotcut.vui">1</property>
    <filter id="filter17" out="00:00:13.000">
      <property name="argument">まあ，要は素早く何かを成功させるという意味です（クソガバ解説）．
本動画はゲームではなく，LANケーブルを素早く作成する動画となっております．</property>
      <property name="geometry">371 834 1505 211 1</property>
      <property name="family">Hiragino Sans</property>
      <property name="size">72</property>
      <property name="weight">500</property>
      <property name="style">normal</property>
      <property name="fgcolour">#ffffffff</property>
      <property name="bgcolour">#00000000</property>
      <property name="olcolour">#aa000000</property>
      <property name="pad">0</property>
      <property name="halign">left</property>
      <property name="valign">middle</property>
      <property name="outline">3</property>
      <property name="opacity">1</property>
      <property name="mlt_service">dynamictext</property>
      <property name="shotcut:filter">dynamicText</property>
      <property name="shotcut:usePointSize">1</property>
      <property name="shotcut:pointSize">72</property>
    </filter>
  </producer>
  <tractor id="tractor1" in="00:00:00.000" out="00:00:00.120">
    <property name="shotcut:transition">lumaMix</property>
    <track producer="producer18" in="00:00:15.480" out="00:00:15.600"/>
    <track producer="producer19" in="00:00:00.040" out="00:00:00.160"/>
    <transition id="transition2" out="00:00:00.120">
      <property name="a_track">0</property>
      <property name="b_track">1</property>
      <property name="factory">loader</property>
      <property name="mlt_service">luma</property>
      <property name="alpha_over">1</property>
      <property name="fix_background_alpha">1</property>
    </transition>
    <transition id="transition3" out="00:00:00.120">
      <property name="a_track">0</property>
      <property name="b_track">1</property>
      <property name="mlt_service">mix</property>
      <property name="start">-1</property>
      <property name="accepts_blanks">1</property>
    </transition>
  </tractor>
  <producer id="producer20" in="00:00:00.000" out="03:59:59.960">
    <property name="length">04:00:00.000</property>
    <property name="eof">pause</property>
    <property name="resource">#00000000</property>
    <property name="aspect_ratio">1</property>
    <property name="mlt_service">color</property>
    <property name="mlt_image_format">rgba</property>
    <property name="shotcut:caption">transparent</property>
    <property name="shotcut:detail">transparent</property>
    <property name="xml">was here</property>
    <property name="seekable">1</property>
    <property name="meta.shotcut.vui">1</property>
    <filter id="filter18" out="00:00:05.560">
      <property name="argument">次に，LANケーブルという言葉
以下Wikipediaより引用</property>
      <property name="geometry">371 834 1505 211 1</property>
      <property name="family">Hiragino Sans</property>
      <property name="size">72</property>
      <property name="weight">500</property>
      <property name="style">normal</property>
      <property name="fgcolour">#ffffffff</property>
      <property name="bgcolour">#00000000</property>
      <property name="olcolour">#aa000000</property>
      <property name="pad">0</property>
      <property name="halign">left</property>
      <property name="valign">middle</property>
      <property name="outline">3</property>
      <property name="opacity">1</property>
      <property name="mlt_service">dynamictext</property>
      <property name="shotcut:filter">dynamicText</property>
      <property name="shotcut:usePointSize">1</property>
      <property name="shotcut:pointSize">72</property>
    </filter>
  </producer>
  <tractor id="tractor2" in="00:00:00.000" out="00:00:00.000">
    <property name="shotcut:transition">lumaMix</property>
    <track producer="producer19" in="00:00:13.000" out="00:00:13.000"/>
    <track producer="producer20" in="00:00:00.040" out="00:00:00.040"/>
    <transition id="transition4">
      <property name="a_track">0</property>
      <property name="b_track">1</property>
      <property name="factory">loader</property>
      <property name="mlt_service">luma</property>
      <property name="alpha_over">1</property>
      <property name="fix_background_alpha">1</property>
    </transition>
    <transition id="transition5">
      <property name="a_track">0</property>
      <property name="b_track">1</property>
      <property name="mlt_service">mix</property>
      <property name="start">-1</property>
      <property name="accepts_blanks">1</property>
    </transition>
  </tractor>
  <producer id="producer21" in="00:00:00.000" out="03:59:59.960">
    <property name="length">04:00:00.000</property>
    <property name="eof">pause</property>
    <property name="resource">#00000000</property>
    <property name="aspect_ratio">1</property>
    <property name="mlt_service">color</property>
    <property name="mlt_image_format">rgba</property>
    <property name="shotcut:caption">transparent</property>
    <property name="shotcut:detail">transparent</property>
    <property name="xml">was here</property>
    <property name="seekable">1</property>
    <property name="meta.shotcut.vui">1</property>
    <filter id="filter19" out="00:00:30.160">
      <property name="argument">撚り対線（よりついせん）による平衡接続で100Ωの特性インピーダンスを持つ銅線ケーブル。
特に4対8線で両端にオス型8P8C（通称RJ-45）コネクタのついたものが最も多く使用され、一般に「LANケーブル」と呼ばれる。
圧接工具を使えば容易に任意の長さのケーブルにコネクタを接続することもできる。
ケーブルには配線構成によっていくつかの種類がある。</property>
      <property name="geometry">371 834 1505 211 1</property>
      <property name="family">Hiragino Sans</property>
      <property name="size">72</property>
      <property name="weight">500</property>
      <property name="style">normal</property>
      <property name="fgcolour">#ffffffff</property>
      <property name="bgcolour">#00000000</property>
      <property name="olcolour">#aa000000</property>
      <property name="pad">0</property>
      <property name="halign">left</property>
      <property name="valign">middle</property>
      <property name="outline">3</property>
      <property name="opacity">1</property>
      <property name="mlt_service">dynamictext</property>
      <property name="shotcut:filter">dynamicText</property>
      <property name="shotcut:usePointSize">1</property>
      <property name="shotcut:pointSize">72</property>
    </filter>
  </producer>
  <producer id="producer22" in="00:00:00.000" out="03:59:59.960">
    <property name="length">04:00:00.000</property>
    <property name="eof">pause</property>
    <property name="resource">#00000000</property>
    <property name="aspect_ratio">1</property>
    <property name="mlt_service">color</property>
    <property name="mlt_image_format">rgba</property>
    <property name="shotcut:caption">transparent</property>
    <property name="shotcut:detail">transparent</property>
    <property name="xml">was here</property>
    <property name="seekable">1</property>
    <property name="meta.shotcut.vui">1</property>
    <filter id="filter20" out="00:00:06.840">
      <property name="argument">要は，Wi-Fiの有線バージョンってことです
（かっこクソガバ解説）．</property>
      <property name="geometry">371 834 1505 211 1</property>
      <property name="family">Hiragino Sans</property>
      <property name="size">72</property>
      <property name="weight">500</property>
      <property name="style">normal</property>
      <property name="fgcolour">#ffffffff</property>
      <property name="bgcolour">#00000000</property>
      <property name="olcolour">#aa000000</property>
      <property name="pad">0</property>
      <property name="halign">left</property>
      <property name="valign">middle</property>
      <property name="outline">3</property>
      <property name="opacity">1</property>
      <property name="mlt_service">dynamictext</property>
      <property name="shotcut:filter">dynamicText</property>
      <property name="shotcut:usePointSize">1</property>
      <property name="shotcut:pointSize">72</property>
    </filter>
  </producer>
  <producer id="producer23" in="00:00:00.000" out="03:59:59.960">
    <property name="length">04:00:00.000</property>
    <property name="eof">pause</property>
    <property name="resource">#00000000</property>
    <property name="aspect_ratio">1</property>
    <property name="mlt_service">color</property>
    <property name="mlt_image_format">rgba</property>
    <property name="shotcut:caption">transparent</property>
    <property name="shotcut:detail">transparent</property>
    <property name="xml">was here</property>
    <property name="seekable">1</property>
    <property name="meta.shotcut.vui">1</property>
    <filter id="filter21" out="00:00:07.840">
      <property name="argument">また今回は，LANケーブルにRJ-45という規格を
両端に作成するものとなっております．</property>
      <property name="geometry">371 834 1505 211 1</property>
      <property name="family">Hiragino Sans</property>
      <property name="size">72</property>
      <property name="weight">500</property>
      <property name="style">normal</property>
      <property name="fgcolour">#ffffffff</property>
      <property name="bgcolour">#00000000</property>
      <property name="olcolour">#aa000000</property>
      <property name="pad">0</property>
      <property name="halign">left</property>
      <property name="valign">middle</property>
      <property name="outline">3</property>
      <property name="opacity">1</property>
      <property name="mlt_service">dynamictext</property>
      <property name="shotcut:filter">dynamicText</property>
      <property name="shotcut:usePointSize">1</property>
      <property name="shotcut:pointSize">72</property>
    </filter>
  </producer>
  <producer id="producer24" in="00:00:00.000" out="03:59:59.960">
    <property name="length">04:00:00.000</property>
    <property name="eof">pause</property>
    <property name="resource">#00000000</property>
    <property name="aspect_ratio">1</property>
    <property name="mlt_service">color</property>
    <property name="mlt_image_format">rgba</property>
    <property name="shotcut:caption">transparent</property>
    <property name="shotcut:detail">transparent</property>
    <property name="xml">was here</property>
    <property name="seekable">1</property>
    <property name="meta.shotcut.vui">1</property>
    <filter id="filter22" out="00:00:09.080">
      <property name="argument">そして，配線はストレートケーブルとクロスケーブルの2種類ありますが，
今回はストレートケーブルを作成します．</property>
      <property name="geometry">371 834 1505 211 1</property>
      <property name="family">Hiragino Sans</property>
      <property name="size">72</property>
      <property name="weight">500</property>
      <property name="style">normal</property>
      <property name="fgcolour">#ffffffff</property>
      <property name="bgcolour">#00000000</property>
      <property name="olcolour">#aa000000</property>
      <property name="pad">0</property>
      <property name="halign">left</property>
      <property name="valign">middle</property>
      <property name="outline">3</property>
      <property name="opacity">1</property>
      <property name="mlt_service">dynamictext</property>
      <property name="shotcut:filter">dynamicText</property>
      <property name="shotcut:usePointSize">1</property>
      <property name="shotcut:pointSize">72</property>
    </filter>
  </producer>
  <producer id="producer25" in="00:00:00.000" out="03:59:59.960">
    <property name="length">04:00:00.000</property>
    <property name="eof">pause</property>
    <property name="resource">#00000000</property>
    <property name="aspect_ratio">1</property>
    <property name="mlt_service">color</property>
    <property name="mlt_image_format">rgba</property>
    <property name="shotcut:caption">transparent</property>
    <property name="shotcut:detail">transparent</property>
    <property name="xml">was here</property>
    <property name="seekable">1</property>
    <property name="meta.shotcut.vui">1</property>
    <filter id="filter23" out="00:00:08.840">
      <property name="argument">まだまだ，RTAを開始するまで時間がありそうなので，
RTAの下準備について解説していきます．</property>
      <property name="geometry">371 834 1505 211 1</property>
      <property name="family">Hiragino Sans</property>
      <property name="size">72</property>
      <property name="weight">500</property>
      <property name="style">normal</property>
      <property name="fgcolour">#ffffffff</property>
      <property name="bgcolour">#00000000</property>
      <property name="olcolour">#aa000000</property>
      <property name="pad">0</property>
      <property name="halign">left</property>
      <property name="valign">middle</property>
      <property name="outline">3</property>
      <property name="opacity">1</property>
      <property name="mlt_service">dynamictext</property>
      <property name="shotcut:filter">dynamicText</property>
      <property name="shotcut:usePointSize">1</property>
      <property name="shotcut:pointSize">72</property>
    </filter>
  </producer>
  <producer id="producer26" in="00:00:00.000" out="03:59:59.960">
    <property name="length">04:00:00.000</property>
    <property name="eof">pause</property>
    <property name="resource">#00000000</property>
    <property name="aspect_ratio">1</property>
    <property name="mlt_service">color</property>
    <property name="mlt_image_format">rgba</property>
    <property name="shotcut:caption">transparent</property>
    <property name="shotcut:detail">transparent</property>
    <property name="xml">was here</property>
    <property name="seekable">1</property>
    <property name="meta.shotcut.vui">1</property>
    <filter id="filter24" out="00:00:03.800">
      <property name="argument">ここに書いてね．</property>
      <property name="geometry">371 834 1505 211 1</property>
      <property name="family">Hiragino Sans</property>
      <property name="size">72</property>
      <property name="weight">500</property>
      <property name="style">normal</property>
      <property name="fgcolour">#ffffffff</property>
      <property name="bgcolour">#00000000</property>
      <property name="olcolour">#aa000000</property>
      <property name="pad">0</property>
      <property name="halign">left</property>
      <property name="valign">middle</property>
      <property name="outline">3</property>
      <property name="opacity">1</property>
      <property name="mlt_service">dynamictext</property>
      <property name="shotcut:filter">dynamicText</property>
      <property name="shotcut:usePointSize">1</property>
      <property name="shotcut:pointSize">72</property>
    </filter>
  </producer>
  <producer id="producer27" in="00:00:00.000" out="03:59:59.960">
    <property name="length">04:00:00.000</property>
    <property name="eof">pause</property>
    <property name="resource">#00000000</property>
    <property name="aspect_ratio">1</property>
    <property name="mlt_service">color</property>
    <property name="mlt_image_format">rgba</property>
    <property name="shotcut:caption">transparent</property>
    <property name="shotcut:detail">transparent</property>
    <property name="xml">was here</property>
    <property name="seekable">1</property>
    <property name="meta.shotcut.vui">1</property>
    <filter id="filter25" in="00:00:00.040" out="00:00:03.360">
      <property name="argument">ここに書いてね．</property>
      <property name="geometry">371 834 1505 211 1</property>
      <property name="family">Hiragino Sans</property>
      <property name="size">72</property>
      <property name="weight">500</property>
      <property name="style">normal</property>
      <property name="fgcolour">#ffffffff</property>
      <property name="bgcolour">#00000000</property>
      <property name="olcolour">#aa000000</property>
      <property name="pad">0</property>
      <property name="halign">left</property>
      <property name="valign">middle</property>
      <property name="outline">3</property>
      <property name="opacity">1</property>
      <property name="mlt_service">dynamictext</property>
      <property name="shotcut:filter">dynamicText</property>
      <property name="shotcut:usePointSize">1</property>
      <property name="shotcut:pointSize">72</property>
    </filter>
  </producer>
  <producer id="producer28" in="00:00:00.000" out="03:59:59.960">
    <property name="length">04:00:00.000</property>
    <property name="eof">pause</property>
    <property name="resource">#00000000</property>
    <property name="aspect_ratio">1</property>
    <property name="mlt_service">color</property>
    <property name="mlt_image_format">rgba</property>
    <property name="shotcut:caption">transparent</property>
    <property name="shotcut:detail">transparent</property>
    <property name="xml">was here</property>
    <property name="seekable">1</property>
    <property name="meta.shotcut.vui">1</property>
    <filter id="filter26" out="00:00:04.200">
      <property name="argument">ここに書いてね．</property>
      <property name="geometry">371 834 1505 211 1</property>
      <property name="family">Hiragino Sans</property>
      <property name="size">72</property>
      <property name="weight">500</property>
      <property name="style">normal</property>
      <property name="fgcolour">#ffffffff</property>
      <property name="bgcolour">#00000000</property>
      <property name="olcolour">#aa000000</property>
      <property name="pad">0</property>
      <property name="halign">left</property>
      <property name="valign">middle</property>
      <property name="outline">3</property>
      <property name="opacity">1</property>
      <property name="mlt_service">dynamictext</property>
      <property name="shotcut:filter">dynamicText</property>
      <property name="shotcut:usePointSize">1</property>
      <property name="shotcut:pointSize">72</property>
    </filter>
  </producer>
  <producer id="producer29" in="00:00:00.000" out="03:59:59.960">
    <property name="length">04:00:00.000</property>
    <property name="eof">pause</property>
    <property name="resource">#00000000</property>
    <property name="aspect_ratio">1</property>
    <property name="mlt_service">color</property>
    <property name="mlt_image_format">rgba</property>
    <property name="shotcut:caption">transparent</property>
    <property name="shotcut:detail">transparent</property>
    <property name="xml">was here</property>
    <property name="seekable">1</property>
    <property name="meta.shotcut.vui">1</property>
    <filter id="filter27" out="00:00:04.200">
      <property name="argument">ここに書いてね．</property>
      <property name="geometry">371 834 1505 211 1</property>
      <property name="family">Hiragino Sans</property>
      <property name="size">72</property>
      <property name="weight">500</property>
      <property name="style">normal</property>
      <property name="fgcolour">#ffffffff</property>
      <property name="bgcolour">#00000000</property>
      <property name="olcolour">#aa000000</property>
      <property name="pad">0</property>
      <property name="halign">left</property>
      <property name="valign">middle</property>
      <property name="outline">3</property>
      <property name="opacity">1</property>
      <property name="mlt_service">dynamictext</property>
      <property name="shotcut:filter">dynamicText</property>
      <property name="shotcut:usePointSize">1</property>
      <property name="shotcut:pointSize">72</property>
    </filter>
  </producer>
  <producer id="producer30" in="00:00:00.000" out="03:59:59.960">
    <property name="length">04:00:00.000</property>
    <property name="eof">pause</property>
    <property name="resource">#00000000</property>
    <property name="aspect_ratio">1</property>
    <property name="mlt_service">color</property>
    <property name="mlt_image_format">rgba</property>
    <property name="shotcut:caption">transparent</property>
    <property name="shotcut:detail">transparent</property>
    <property name="xml">was here</property>
    <property name="seekable">1</property>
    <property name="meta.shotcut.vui">1</property>
    <filter id="filter28" out="00:00:04.200">
      <property name="argument">ここに書いてね．</property>
      <property name="geometry">371 834 1505 211 1</property>
      <property name="family">Hiragino Sans</property>
      <property name="size">72</property>
      <property name="weight">500</property>
      <property name="style">normal</property>
      <property name="fgcolour">#ffffffff</property>
      <property name="bgcolour">#00000000</property>
      <property name="olcolour">#aa000000</property>
      <property name="pad">0</property>
      <property name="halign">left</property>
      <property name="valign">middle</property>
      <property name="outline">3</property>
      <property name="opacity">1</property>
      <property name="mlt_service">dynamictext</property>
      <property name="shotcut:filter">dynamicText</property>
      <property name="shotcut:usePointSize">1</property>
      <property name="shotcut:pointSize">72</property>
    </filter>
  </producer>
  <producer id="producer31" in="00:00:00.000" out="03:59:59.960">
    <property name="length">04:00:00.000</property>
    <property name="eof">pause</property>
    <property name="resource">#00000000</property>
    <property name="aspect_ratio">1</property>
    <property name="mlt_service">color</property>
    <property name="mlt_image_format">rgba</property>
    <property name="shotcut:caption">transparent</property>
    <property name="shotcut:detail">transparent</property>
    <property name="xml">was here</property>
    <property name="seekable">1</property>
    <property name="meta.shotcut.vui">1</property>
    <filter id="filter29" out="00:00:04.200">
      <property name="argument">ここに書いてね．</property>
      <property name="geometry">371 834 1505 211 1</property>
      <property name="family">Hiragino Sans</property>
      <property name="size">72</property>
      <property name="weight">500</property>
      <property name="style">normal</property>
      <property name="fgcolour">#ffffffff</property>
      <property name="bgcolour">#00000000</property>
      <property name="olcolour">#aa000000</property>
      <property name="pad">0</property>
      <property name="halign">left</property>
      <property name="valign">middle</property>
      <property name="outline">3</property>
      <property name="opacity">1</property>
      <property name="mlt_service">dynamictext</property>
      <property name="shotcut:filter">dynamicText</property>
      <property name="shotcut:usePointSize">1</property>
      <property name="shotcut:pointSize">72</property>
    </filter>
  </producer>
  <producer id="producer32" in="00:00:00.000" out="03:59:59.960">
    <property name="length">04:00:00.000</property>
    <property name="eof">pause</property>
    <property name="resource">#00000000</property>
    <property name="aspect_ratio">1</property>
    <property name="mlt_service">color</property>
    <property name="mlt_image_format">rgba</property>
    <property name="shotcut:caption">transparent</property>
    <property name="shotcut:detail">transparent</property>
    <property name="xml">was here</property>
    <property name="seekable">1</property>
    <property name="meta.shotcut.vui">1</property>
    <filter id="filter30" out="00:00:04.200">
      <property name="argument">ここに書いてね．</property>
      <property name="geometry">371 834 1505 211 1</property>
      <property name="family">Hiragino Sans</property>
      <property name="size">72</property>
      <property name="weight">500</property>
      <property name="style">normal</property>
      <property name="fgcolour">#ffffffff</property>
      <property name="bgcolour">#00000000</property>
      <property name="olcolour">#aa000000</property>
      <property name="pad">0</property>
      <property name="halign">left</property>
      <property name="valign">middle</property>
      <property name="outline">3</property>
      <property name="opacity">1</property>
      <property name="mlt_service">dynamictext</property>
      <property name="shotcut:filter">dynamicText</property>
      <property name="shotcut:usePointSize">1</property>
      <property name="shotcut:pointSize">72</property>
    </filter>
  </producer>
  <producer id="producer33" in="00:00:00.000" out="03:59:59.960">
    <property name="length">04:00:00.000</property>
    <property name="eof">pause</property>
    <property name="resource">#00000000</property>
    <property name="aspect_ratio">1</property>
    <property name="mlt_service">color</property>
    <property name="mlt_image_format">rgba</property>
    <property name="shotcut:caption">transparent</property>
    <property name="shotcut:detail">transparent</property>
    <property name="xml">was here</property>
    <property name="seekable">1</property>
    <property name="meta.shotcut.vui">1</property>
    <filter id="filter31" out="00:00:04.200">
      <property name="argument">ここに書いてね．</property>
      <property name="geometry">371 834 1505 211 1</property>
      <property name="family">Hiragino Sans</property>
      <property name="size">72</property>
      <property name="weight">500</property>
      <property name="style">normal</property>
      <property name="fgcolour">#ffffffff</property>
      <property name="bgcolour">#00000000</property>
      <property name="olcolour">#aa000000</property>
      <property name="pad">0</property>
      <property name="halign">left</property>
      <property name="valign">middle</property>
      <property name="outline">3</property>
      <property name="opacity">1</property>
      <property name="mlt_service">dynamictext</property>
      <property name="shotcut:filter">dynamicText</property>
      <property name="shotcut:usePointSize">1</property>
      <property name="shotcut:pointSize">72</property>
    </filter>
  </producer>
  <producer id="producer34" in="00:00:00.000" out="03:59:59.960">
    <property name="length">04:00:00.000</property>
    <property name="eof">pause</property>
    <property name="resource">#00000000</property>
    <property name="aspect_ratio">1</property>
    <property name="mlt_service">color</property>
    <property name="mlt_image_format">rgba</property>
    <property name="shotcut:caption">transparent</property>
    <property name="shotcut:detail">transparent</property>
    <property name="xml">was here</property>
    <property name="seekable">1</property>
    <property name="meta.shotcut.vui">1</property>
    <filter id="filter32" out="00:00:04.200">
      <property name="argument">ここに書いてね．</property>
      <property name="geometry">371 834 1505 211 1</property>
      <property name="family">Hiragino Sans</property>
      <property name="size">72</property>
      <property name="weight">500</property>
      <property name="style">normal</property>
      <property name="fgcolour">#ffffffff</property>
      <property name="bgcolour">#00000000</property>
      <property name="olcolour">#aa000000</property>
      <property name="pad">0</property>
      <property name="halign">left</property>
      <property name="valign">middle</property>
      <property name="outline">3</property>
      <property name="opacity">1</property>
      <property name="mlt_service">dynamictext</property>
      <property name="shotcut:filter">dynamicText</property>
      <property name="shotcut:usePointSize">1</property>
      <property name="shotcut:pointSize">72</property>
    </filter>
  </producer>
  <producer id="producer35" in="00:00:00.000" out="03:59:59.960">
    <property name="length">04:00:00.000</property>
    <property name="eof">pause</property>
    <property name="resource">#00000000</property>
    <property name="aspect_ratio">1</property>
    <property name="mlt_service">color</property>
    <property name="mlt_image_format">rgba</property>
    <property name="shotcut:caption">transparent</property>
    <property name="shotcut:detail">transparent</property>
    <property name="xml">was here</property>
    <property name="seekable">1</property>
    <property name="meta.shotcut.vui">1</property>
    <filter id="filter33" out="00:00:04.200">
      <property name="argument">ここに書いてね．</property>
      <property name="geometry">371 834 1505 211 1</property>
      <property name="family">Hiragino Sans</property>
      <property name="size">72</property>
      <property name="weight">500</property>
      <property name="style">normal</property>
      <property name="fgcolour">#ffffffff</property>
      <property name="bgcolour">#00000000</property>
      <property name="olcolour">#aa000000</property>
      <property name="pad">0</property>
      <property name="halign">left</property>
      <property name="valign">middle</property>
      <property name="outline">3</property>
      <property name="opacity">1</property>
      <property name="mlt_service">dynamictext</property>
      <property name="shotcut:filter">dynamicText</property>
      <property name="shotcut:usePointSize">1</property>
      <property name="shotcut:pointSize">72</property>
    </filter>
  </producer>
  <playlist id="playlist0">
    <property name="shotcut:video">1</property>
    <property name="shotcut:name">Transcript</property>
    <entry producer="producer5" in="00:00:00.000" out="00:00:05.160"/>
    <entry producer="producer6" in="00:00:00.000" out="00:00:06.520"/>
    <entry producer="producer7" in="00:00:00.000" out="00:00:10.720"/>
    <entry producer="producer8" in="00:00:00.000" out="00:00:04.400"/>
    <entry producer="producer9" in="00:00:00.000" out="00:00:04.560"/>
    <entry producer="tractor0" in="00:00:00.000" out="00:00:00.000"/>
    <entry producer="producer10" in="00:00:00.040" out="00:00:08.800"/>
    <entry producer="producer11" in="00:00:00.040" out="00:00:08.240"/>
    <entry producer="producer12" in="00:00:00.040" out="00:00:08.240"/>
    <entry producer="producer13" in="00:00:00.040" out="00:00:09.640"/>
    <entry producer="producer14" in="00:00:00.040" out="00:00:11.360"/>
    <entry producer="producer15" in="00:00:00.040" out="00:00:04.200"/>
    <entry producer="producer16" in="00:00:00.040" out="00:00:13.680"/>
    <entry producer="producer17" in="00:00:00.040" out="00:00:05.120"/>
    <entry producer="producer18" in="00:00:00.040" out="00:00:15.440"/>
    <entry producer="tractor1" in="00:00:00.000" out="00:00:00.120"/>
    <entry producer="producer19" in="00:00:00.200" out="00:00:12.960"/>
    <entry producer="tractor2" in="00:00:00.000" out="00:00:00.000"/>
    <entry producer="producer20" in="00:00:00.080" out="00:00:05.560"/>
    <entry producer="producer21" in="00:00:00.040" out="00:00:30.160"/>
    <entry producer="producer22" in="00:00:00.040" out="00:00:06.840"/>
    <entry producer="producer23" in="00:00:00.040" out="00:00:07.840"/>
    <entry producer="producer24" in="00:00:00.040" out="00:00:09.080"/>
    <entry producer="producer25" in="00:00:00.040" out="00:00:08.840"/>
    <blank length="00:00:34.640"/>
    <entry producer="producer26" in="00:00:00.040" out="00:00:03.800"/>
    <blank length="00:00:01.360"/>
    <entry producer="producer27" in="00:00:00.040" out="00:00:03.360"/>
    <blank length="00:00:01.120"/>
    <entry producer="producer28" in="00:00:00.040" out="00:00:04.200"/>
    <entry producer="producer29" in="00:00:00.040" out="00:00:04.200"/>
    <entry producer="producer30" in="00:00:00.040" out="00:00:04.200"/>
    <entry producer="producer31" in="00:00:00.040" out="00:00:04.200"/>
    <entry producer="producer32" in="00:00:00.040" out="00:00:04.200"/>
    <entry producer="producer33" in="00:00:00.040" out="00:00:04.200"/>
    <entry producer="producer34" in="00:00:00.040" out="00:00:04.200"/>
    <entry producer="producer35" in="00:00:00.040" out="00:00:04.200"/>
  </playlist>
  <chain id="chain13" out="00:10:50.560">
    <property name="length">00:10:50.600</property>
    <property name="eof">pause</property>
    <property name="resource">video/intro_fail.mp4</property>
    <property name="mlt_service">avformat-novalidate</property>
    <property name="meta.media.nb_streams">2</property>
    <property name="meta.media.0.stream.type">video</property>
    <property name="meta.media.0.stream.frame_rate">29.915</property>
    <property name="meta.media.0.stream.sample_aspect_ratio">0</property>
    <property name="meta.media.0.codec.width">1920</property>
    <property name="meta.media.0.codec.height">1080</property>
    <property name="meta.media.0.codec.rotate">0</property>
    <property name="meta.media.0.codec.pix_fmt">yuv420p</property>
    <property name="meta.media.0.codec.sample_aspect_ratio">1</property>
    <property name="meta.media.0.codec.colorspace">709</property>
    <property name="meta.media.0.codec.color_trc">1</property>
    <property name="meta.media.0.codec.name">h264</property>
    <property name="meta.media.0.codec.long_name">H.264 / AVC / MPEG-4 AVC / MPEG-4 part 10</property>
    <property name="meta.media.0.codec.bit_rate">1219433</property>
    <property name="meta.attr.0.stream.handler_name.markup">ISO Media file produced by Google Inc.</property>
    <property name="meta.attr.0.stream.vendor_id.markup">[0][0][0][0]</property>
    <property name="meta.media.1.stream.type">audio</property>
    <property name="meta.media.1.codec.sample_fmt">fltp</property>
    <property name="meta.media.1.codec.sample_rate">44100</property>
    <property name="meta.media.1.codec.channels">2</property>
    <property name="meta.media.1.codec.name">aac</property>
    <property name="meta.media.1.codec.long_name">AAC (Advanced Audio Coding)</property>
    <property name="meta.media.1.codec.bit_rate">127999</property>
    <property name="meta.attr.1.stream.language.markup">eng</property>
    <property name="meta.attr.1.stream.handler_name.markup">ISO Media file produced by Google Inc.</property>
    <property name="meta.attr.1.stream.vendor_id.markup">[0][0][0][0]</property>
    <property name="meta.attr.major_brand.markup">mp42</property>
    <property name="meta.attr.minor_version.markup">0</property>
    <property name="meta.attr.compatible_brands.markup">isommp42</property>
    <property name="meta.attr.creation_time.markup">2023-12-09T06:00:24.000000Z</property>
    <property name="meta.attr.location.markup">+35.0104+136.8850/</property>
    <property name="seekable">1</property>
    <property name="meta.media.sample_aspect_num">1</property>
    <property name="meta.media.sample_aspect_den">1</property>
    <property name="audio_index">1</property>
    <property name="video_index">0</property>
    <property name="creation_time">2023-12-09T06:00:24</property>
    <property name="vstream">0</property>
    <property name="meta.media.frame_rate_num">5983</property>
    <property name="meta.media.frame_rate_den">200</property>
    <property name="meta.media.colorspace">709</property>
    <property name="meta.media.color_trc">1</property>
    <property name="meta.media.has_b_frames">0</property>
    <property name="meta.media.width">1920</property>
    <property name="meta.media.height">1080</property>
    <property name="meta.media.color_range">mpeg</property>
    <property name="astream">0</property>
    <property name="shotcut:skipConvert">1</property>
    <property name="xml">was here</property>
    <property name="shotcut:hash">9f0cf3292dedd1d578fbe46a591968c8</property>
    <property name="meta.media.top_field_first">0</property>
    <property name="meta.media.progressive">1</property>
    <property name="shotcut:caption">intro_fail.mp4</property>
    <property name="meta.shotcut.vui">1</property>
    <filter id="filter34" out="00:06:02.600">
      <property name="background">color:#00000000</property>
      <property name="mlt_service">affine</property>
      <property name="shotcut:filter">affineSizePosition</property>
      <property name="transition.fill">1</property>
      <property name="transition.distort">0</property>
      <property name="transition.rect">0 0 1412.46 794.51 1</property>
      <property name="transition.valign">middle</property>
      <property name="transition.halign">center</property>
      <property name="shotcut:animIn">00:00:00.000</property>
      <property name="shotcut:animOut">00:00:00.000</property>
      <property name="transition.threads">0</property>
      <property name="transition.fix_rotate_x">-0</property>
    </filter>
  </chain>
  <playlist id="playlist3">
    <property name="shotcut:video">1</property>
    <property name="shotcut:name">Main</property>
    <entry producer="chain13" in="00:00:00.000" out="00:06:02.600"/>
  </playlist>
  <producer id="producer36" in="00:00:00.000" out="03:59:59.960">
    <property name="length">04:00:00.000</property>
    <property name="eof">pause</property>
    <property name="resource">back/jackkun.png</property>
    <property name="ttl">1</property>
    <property name="aspect_ratio">1</property>
    <property name="meta.media.progressive">1</property>
    <property name="seekable">1</property>
    <property name="format">2</property>
    <property name="meta.media.width">438</property>
    <property name="meta.media.height">436</property>
    <property name="mlt_service">qimage</property>
    <property name="creation_time">2023-12-08T08:56:45</property>
    <property name="shotcut:skipConvert">0</property>
    <property name="shotcut:caption">jackkun.png</property>
    <property name="shotcut:hash">3eac5fb30aaaca6b44c5b134706e7db6</property>
    <property name="ignore_points">0</property>
    <property name="xml">was here</property>
    <property name="meta.shotcut.vui">1</property>
    <filter id="filter35" out="00:09:45.280">
      <property name="background">color:#00000000</property>
      <property name="mlt_service">affine</property>
      <property name="shotcut:filter">affineSizePosition</property>
      <property name="transition.fill">1</property>
      <property name="transition.distort">0</property>
      <property name="transition.rect">12.3891 777.014 314.195 312.76 1</property>
      <property name="transition.valign">middle</property>
      <property name="transition.halign">center</property>
      <property name="shotcut:animIn">00:00:00.000</property>
      <property name="shotcut:animOut">00:00:00.000</property>
      <property name="transition.threads">0</property>
    </filter>
  </producer>
  <playlist id="playlist2">
    <property name="shotcut:video">1</property>
    <property name="shotcut:name">Speaker</property>
    <entry producer="producer36" in="00:00:00.000" out="00:09:45.280"/>
  </playlist>
  <playlist id="playlist4">
    <property name="shotcut:video">1</property>
    <property name="shotcut:name">Meme</property>
    <property name="meta.shotcut.vui">1</property>
    <blank length="00:00:00.040"/>
    <filter id="filter36" out="00:10:24.440">
      <property name="argument"> - 配線
 - 先端を揃える
 - かしめる
 - 配線(2)
 - 先端を揃える(2)
 - かしめる(2)
 - テスト
</property>
      <property name="geometry">1467 230 431 561 1</property>
      <property name="family">Hiragino Sans</property>
      <property name="size">135</property>
      <property name="weight">500</property>
      <property name="style">normal</property>
      <property name="fgcolour">#ffffffff</property>
      <property name="bgcolour">#00000000</property>
      <property name="olcolour">#aa000000</property>
      <property name="pad">0</property>
      <property name="halign">center</property>
      <property name="valign">bottom</property>
      <property name="outline">3</property>
      <property name="opacity">1.0</property>
      <property name="mlt_service">dynamictext</property>
      <property name="shotcut:filter">dynamicText</property>
      <property name="shotcut:usePointSize">0</property>
      <property name="shotcut:animIn">00:00:00.000</property>
      <property name="shotcut:animOut">00:00:00.000</property>
    </filter>
  </playlist>
  <chain id="chain20" out="00:00:04.480">
    <property name="length">00:00:04.520</property>
    <property name="eof">pause</property>
    <property name="resource">voice/001_雨晴はう（ノーマル）_みんな大好きランケ….wav</property>
    <property name="mlt_service">avformat-novalidate</property>
    <property name="meta.media.nb_streams">1</property>
    <property name="meta.media.0.stream.type">audio</property>
    <property name="meta.media.0.codec.sample_fmt">s16</property>
    <property name="meta.media.0.codec.sample_rate">24000</property>
    <property name="meta.media.0.codec.channels">1</property>
    <property name="meta.media.0.codec.name">pcm_s16le</property>
    <property name="meta.media.0.codec.long_name">PCM signed 16-bit little-endian</property>
    <property name="meta.media.0.codec.bit_rate">384000</property>
    <property name="seekable">1</property>
    <property name="audio_index">0</property>
    <property name="video_index">-1</property>
    <property name="creation_time">2023-12-11T05:02:37</property>
    <property name="astream">0</property>
    <property name="shotcut:skipConvert">1</property>
    <property name="xml">was here</property>
    <property name="shotcut:hash">1b4e7addb49fff2266d136c804422508</property>
    <property name="shotcut:caption">001_雨晴はう（ノーマル）_みんな大好きランケ….wav</property>
  </chain>
  <chain id="chain23" out="00:00:05.880">
    <property name="length">00:00:05.920</property>
    <property name="eof">pause</property>
    <property name="resource">voice/002_雨晴はう（ノーマル）_まずは軽く自己紹介….wav</property>
    <property name="mlt_service">avformat-novalidate</property>
    <property name="meta.media.nb_streams">1</property>
    <property name="meta.media.0.stream.type">audio</property>
    <property name="meta.media.0.codec.sample_fmt">s16</property>
    <property name="meta.media.0.codec.sample_rate">24000</property>
    <property name="meta.media.0.codec.channels">1</property>
    <property name="meta.media.0.codec.name">pcm_s16le</property>
    <property name="meta.media.0.codec.long_name">PCM signed 16-bit little-endian</property>
    <property name="meta.media.0.codec.bit_rate">384000</property>
    <property name="seekable">1</property>
    <property name="audio_index">0</property>
    <property name="video_index">-1</property>
    <property name="creation_time">2023-12-11T05:02:37</property>
    <property name="astream">0</property>
    <property name="shotcut:skipConvert">1</property>
    <property name="xml">was here</property>
    <property name="shotcut:hash">00020958c38ac50bfc9fcd185a9fe56b</property>
    <property name="shotcut:caption">002_雨晴はう（ノーマル）_まずは軽く自己紹介….wav</property>
  </chain>
  <chain id="chain29" out="00:00:10.200">
    <property name="length">00:00:10.240</property>
    <property name="eof">pause</property>
    <property name="resource">voice/003_雨晴はう（ノーマル）_名古屋大学の小さな….wav</property>
    <property name="mlt_service">avformat-novalidate</property>
    <property name="meta.media.nb_streams">1</property>
    <property name="meta.media.0.stream.type">audio</property>
    <property name="meta.media.0.codec.sample_fmt">s16</property>
    <property name="meta.media.0.codec.sample_rate">24000</property>
    <property name="meta.media.0.codec.channels">1</property>
    <property name="meta.media.0.codec.name">pcm_s16le</property>
    <property name="meta.media.0.codec.long_name">PCM signed 16-bit little-endian</property>
    <property name="meta.media.0.codec.bit_rate">384000</property>
    <property name="seekable">1</property>
    <property name="audio_index">0</property>
    <property name="video_index">-1</property>
    <property name="creation_time">2023-12-11T05:02:37</property>
    <property name="astream">0</property>
    <property name="shotcut:skipConvert">1</property>
    <property name="xml">was here</property>
    <property name="shotcut:hash">58f279b5c54f04117b666d835713d2e9</property>
    <property name="shotcut:caption">003_雨晴はう（ノーマル）_名古屋大学の小さな….wav</property>
  </chain>
  <chain id="chain37" out="00:00:03.880">
    <property name="length">00:00:03.920</property>
    <property name="eof">pause</property>
    <property name="resource">voice/004_雨晴はう（ノーマル）_そのため，この動画….wav</property>
    <property name="mlt_service">avformat-novalidate</property>
    <property name="meta.media.nb_streams">1</property>
    <property name="meta.media.0.stream.type">audio</property>
    <property name="meta.media.0.codec.sample_fmt">s16</property>
    <property name="meta.media.0.codec.sample_rate">24000</property>
    <property name="meta.media.0.codec.channels">1</property>
    <property name="meta.media.0.codec.name">pcm_s16le</property>
    <property name="meta.media.0.codec.long_name">PCM signed 16-bit little-endian</property>
    <property name="meta.media.0.codec.bit_rate">384000</property>
    <property name="seekable">1</property>
    <property name="audio_index">0</property>
    <property name="video_index">-1</property>
    <property name="creation_time">2023-12-11T05:02:37</property>
    <property name="astream">0</property>
    <property name="shotcut:skipConvert">1</property>
    <property name="xml">was here</property>
    <property name="shotcut:hash">6989a78f928cfe5839eae9a5a9c2ca95</property>
    <property name="ignore_points">0</property>
    <property name="shotcut:caption">004_雨晴はう（ノーマル）_そのため，この動画….wav</property>
  </chain>
  <chain id="chain41" out="00:00:04.000">
    <property name="length">00:00:04.040</property>
    <property name="eof">pause</property>
    <property name="resource">voice/006_雨晴はう（ノーマル）_さて,最初に断って….wav</property>
    <property name="mlt_service">avformat-novalidate</property>
    <property name="meta.media.nb_streams">1</property>
    <property name="meta.media.0.stream.type">audio</property>
    <property name="meta.media.0.codec.sample_fmt">s16</property>
    <property name="meta.media.0.codec.sample_rate">24000</property>
    <property name="meta.media.0.codec.channels">1</property>
    <property name="meta.media.0.codec.name">pcm_s16le</property>
    <property name="meta.media.0.codec.long_name">PCM signed 16-bit little-endian</property>
    <property name="meta.media.0.codec.bit_rate">384000</property>
    <property name="seekable">1</property>
    <property name="audio_index">0</property>
    <property name="video_index">-1</property>
    <property name="creation_time">2023-12-11T05:02:37</property>
    <property name="astream">0</property>
    <property name="shotcut:skipConvert">1</property>
    <property name="xml">was here</property>
    <property name="shotcut:hash">2022e900e2dff94901057e2991f432ee</property>
  </chain>
  <chain id="chain53" out="00:00:08.120">
    <property name="length">00:00:08.160</property>
    <property name="eof">pause</property>
    <property name="resource">voice/007_雨晴はう（ノーマル）_1つ目に，この音声….wav</property>
    <property name="mlt_service">avformat-novalidate</property>
    <property name="meta.media.nb_streams">1</property>
    <property name="meta.media.0.stream.type">audio</property>
    <property name="meta.media.0.codec.sample_fmt">s16</property>
    <property name="meta.media.0.codec.sample_rate">24000</property>
    <property name="meta.media.0.codec.channels">1</property>
    <property name="meta.media.0.codec.name">pcm_s16le</property>
    <property name="meta.media.0.codec.long_name">PCM signed 16-bit little-endian</property>
    <property name="meta.media.0.codec.bit_rate">384000</property>
    <property name="seekable">1</property>
    <property name="audio_index">0</property>
    <property name="video_index">-1</property>
    <property name="creation_time">2023-12-11T05:02:37</property>
    <property name="astream">0</property>
    <property name="shotcut:skipConvert">1</property>
    <property name="xml">was here</property>
    <property name="shotcut:hash">6428040937a79943ff8419fe1c7cfb27</property>
    <property name="shotcut:caption">007_雨晴はう（ノーマル）_1つ目に，この音声….wav</property>
  </chain>
  <chain id="chain57" out="00:00:07.680">
    <property name="length">00:00:07.720</property>
    <property name="eof">pause</property>
    <property name="resource">voice/008_雨晴はう（ノーマル）_2つ目に，うぷぬし….wav</property>
    <property name="mlt_service">avformat-novalidate</property>
    <property name="meta.media.nb_streams">1</property>
    <property name="meta.media.0.stream.type">audio</property>
    <property name="meta.media.0.codec.sample_fmt">s16</property>
    <property name="meta.media.0.codec.sample_rate">24000</property>
    <property name="meta.media.0.codec.channels">1</property>
    <property name="meta.media.0.codec.name">pcm_s16le</property>
    <property name="meta.media.0.codec.long_name">PCM signed 16-bit little-endian</property>
    <property name="meta.media.0.codec.bit_rate">384000</property>
    <property name="seekable">1</property>
    <property name="audio_index">0</property>
    <property name="video_index">-1</property>
    <property name="creation_time">2023-12-11T05:02:37</property>
    <property name="astream">0</property>
    <property name="shotcut:skipConvert">1</property>
    <property name="xml">was here</property>
    <property name="shotcut:hash">be520b3f9fba3a038f13723107e60f6a</property>
  </chain>
  <chain id="chain59" out="00:00:07.680">
    <property name="length">00:00:07.720</property>
    <property name="eof">pause</property>
    <property name="resource">voice/008_雨晴はう（ノーマル）_2つ目に，うぷぬし….wav</property>
    <property name="mlt_service">avformat-novalidate</property>
    <property name="meta.media.nb_streams">1</property>
    <property name="meta.media.0.stream.type">audio</property>
    <property name="meta.media.0.codec.sample_fmt">s16</property>
    <property name="meta.media.0.codec.sample_rate">24000</property>
    <property name="meta.media.0.codec.channels">1</property>
    <property name="meta.media.0.codec.name">pcm_s16le</property>
    <property name="meta.media.0.codec.long_name">PCM signed 16-bit little-endian</property>
    <property name="meta.media.0.codec.bit_rate">384000</property>
    <property name="seekable">1</property>
    <property name="audio_index">0</property>
    <property name="video_index">-1</property>
    <property name="creation_time">2023-12-11T05:02:37</property>
    <property name="astream">0</property>
    <property name="shotcut:skipConvert">1</property>
    <property name="xml">was here</property>
    <property name="shotcut:hash">be520b3f9fba3a038f13723107e60f6a</property>
  </chain>
  <chain id="chain68" out="00:00:07.720">
    <property name="length">00:00:07.760</property>
    <property name="eof">pause</property>
    <property name="resource">voice/009_雨晴はう（ノーマル）_3つ目に，本RTA….wav</property>
    <property name="mlt_service">avformat-novalidate</property>
    <property name="meta.media.nb_streams">1</property>
    <property name="meta.media.0.stream.type">audio</property>
    <property name="meta.media.0.codec.sample_fmt">s16</property>
    <property name="meta.media.0.codec.sample_rate">24000</property>
    <property name="meta.media.0.codec.channels">1</property>
    <property name="meta.media.0.codec.name">pcm_s16le</property>
    <property name="meta.media.0.codec.long_name">PCM signed 16-bit little-endian</property>
    <property name="meta.media.0.codec.bit_rate">384000</property>
    <property name="seekable">1</property>
    <property name="audio_index">0</property>
    <property name="video_index">-1</property>
    <property name="creation_time">2023-12-11T05:02:37</property>
    <property name="astream">0</property>
    <property name="shotcut:skipConvert">1</property>
    <property name="xml">was here</property>
    <property name="shotcut:hash">80fcbffec51d3ff90e4961071c36fbfa</property>
    <property name="shotcut:caption">009_雨晴はう（ノーマル）_3つ目に，本RTA….wav</property>
  </chain>
  <chain id="chain69" out="00:00:09.000">
    <property name="length">00:00:09.040</property>
    <property name="eof">pause</property>
    <property name="resource">voice/010_雨晴はう（ノーマル）_4つ目に，専門知識….wav</property>
    <property name="mlt_service">avformat-novalidate</property>
    <property name="meta.media.nb_streams">1</property>
    <property name="meta.media.0.stream.type">audio</property>
    <property name="meta.media.0.codec.sample_fmt">s16</property>
    <property name="meta.media.0.codec.sample_rate">24000</property>
    <property name="meta.media.0.codec.channels">1</property>
    <property name="meta.media.0.codec.name">pcm_s16le</property>
    <property name="meta.media.0.codec.long_name">PCM signed 16-bit little-endian</property>
    <property name="meta.media.0.codec.bit_rate">384000</property>
    <property name="seekable">1</property>
    <property name="audio_index">0</property>
    <property name="video_index">-1</property>
    <property name="creation_time">2023-12-11T05:02:37</property>
    <property name="astream">0</property>
    <property name="shotcut:skipConvert">1</property>
    <property name="xml">was here</property>
    <property name="shotcut:hash">32f0aca4df9eb72b98bf80012004a7d3</property>
    <property name="shotcut:caption">010_雨晴はう（ノーマル）_4つ目に，専門知識….wav</property>
  </chain>
  <chain id="chain70" out="00:00:10.800">
    <property name="length">00:00:10.840</property>
    <property name="eof">pause</property>
    <property name="resource">voice/011_雨晴はう（ノーマル）_5つ目に，本動画は….wav</property>
    <property name="mlt_service">avformat-novalidate</property>
    <property name="meta.media.nb_streams">1</property>
    <property name="meta.media.0.stream.type">audio</property>
    <property name="meta.media.0.codec.sample_fmt">s16</property>
    <property name="meta.media.0.codec.sample_rate">24000</property>
    <property name="meta.media.0.codec.channels">1</property>
    <property name="meta.media.0.codec.name">pcm_s16le</property>
    <property name="meta.media.0.codec.long_name">PCM signed 16-bit little-endian</property>
    <property name="meta.media.0.codec.bit_rate">384000</property>
    <property name="seekable">1</property>
    <property name="audio_index">0</property>
    <property name="video_index">-1</property>
    <property name="creation_time">2023-12-11T05:02:37</property>
    <property name="astream">0</property>
    <property name="shotcut:skipConvert">1</property>
    <property name="xml">was here</property>
    <property name="shotcut:hash">709fe40e6c2e725ae421fab745787301</property>
  </chain>
  <chain id="chain71" out="00:00:03.400">
    <property name="length">00:00:03.440</property>
    <property name="eof">pause</property>
    <property name="resource">voice/013_雨晴はう（ノーマル）_まだ本編が始まる前….wav</property>
    <property name="mlt_service">avformat-novalidate</property>
    <property name="meta.media.nb_streams">1</property>
    <property name="meta.media.0.stream.type">audio</property>
    <property name="meta.media.0.codec.sample_fmt">s16</property>
    <property name="meta.media.0.codec.sample_rate">24000</property>
    <property name="meta.media.0.codec.channels">1</property>
    <property name="meta.media.0.codec.name">pcm_s16le</property>
    <property name="meta.media.0.codec.long_name">PCM signed 16-bit little-endian</property>
    <property name="meta.media.0.codec.bit_rate">384000</property>
    <property name="seekable">1</property>
    <property name="audio_index">0</property>
    <property name="video_index">-1</property>
    <property name="creation_time">2023-12-11T05:02:37</property>
    <property name="astream">0</property>
    <property name="shotcut:skipConvert">1</property>
    <property name="xml">was here</property>
    <property name="shotcut:hash">aa21bb52b48cdaeb65df5595422f4b85</property>
  </chain>
  <chain id="chain72" out="00:00:12.640">
    <property name="length">00:00:12.680</property>
    <property name="eof">pause</property>
    <property name="resource">voice/014_雨晴はう（ノーマル）_本動画において重要….wav</property>
    <property name="mlt_service">avformat-novalidate</property>
    <property name="meta.media.nb_streams">1</property>
    <property name="meta.media.0.stream.type">audio</property>
    <property name="meta.media.0.codec.sample_fmt">s16</property>
    <property name="meta.media.0.codec.sample_rate">24000</property>
    <property name="meta.media.0.codec.channels">1</property>
    <property name="meta.media.0.codec.name">pcm_s16le</property>
    <property name="meta.media.0.codec.long_name">PCM signed 16-bit little-endian</property>
    <property name="meta.media.0.codec.bit_rate">384000</property>
    <property name="seekable">1</property>
    <property name="audio_index">0</property>
    <property name="video_index">-1</property>
    <property name="creation_time">2023-12-11T05:02:37</property>
    <property name="astream">0</property>
    <property name="shotcut:skipConvert">1</property>
    <property name="xml">was here</property>
    <property name="shotcut:hash">65419e01a0c50d28419c08d8700f538c</property>
    <property name="shotcut:caption">014_雨晴はう（ノーマル）_本動画において重要….wav</property>
  </chain>
  <chain id="chain73" out="00:00:03.960">
    <property name="length">00:00:04.000</property>
    <property name="eof">pause</property>
    <property name="resource">voice/016_雨晴はう（ノーマル）_まず，RTAから．….wav</property>
    <property name="mlt_service">avformat-novalidate</property>
    <property name="meta.media.nb_streams">1</property>
    <property name="meta.media.0.stream.type">audio</property>
    <property name="meta.media.0.codec.sample_fmt">s16</property>
    <property name="meta.media.0.codec.sample_rate">24000</property>
    <property name="meta.media.0.codec.channels">1</property>
    <property name="meta.media.0.codec.name">pcm_s16le</property>
    <property name="meta.media.0.codec.long_name">PCM signed 16-bit little-endian</property>
    <property name="meta.media.0.codec.bit_rate">384000</property>
    <property name="seekable">1</property>
    <property name="audio_index">0</property>
    <property name="video_index">-1</property>
    <property name="creation_time">2023-12-11T05:02:37</property>
    <property name="astream">0</property>
    <property name="shotcut:skipConvert">1</property>
    <property name="xml">was here</property>
    <property name="shotcut:hash">f5503343714fc9ee3bb1cebde262a313</property>
    <property name="shotcut:caption">016_雨晴はう（ノーマル）_まず，RTAから．….wav</property>
  </chain>
  <chain id="chain74" out="00:00:04.480">
    <property name="length">00:00:04.520</property>
    <property name="eof">pause</property>
    <property name="resource">voice/017_雨晴はう（ノーマル）_コンピュータゲーム….wav</property>
    <property name="mlt_service">avformat-novalidate</property>
    <property name="meta.media.nb_streams">1</property>
    <property name="meta.media.0.stream.type">audio</property>
    <property name="meta.media.0.codec.sample_fmt">s16</property>
    <property name="meta.media.0.codec.sample_rate">24000</property>
    <property name="meta.media.0.codec.channels">1</property>
    <property name="meta.media.0.codec.name">pcm_s16le</property>
    <property name="meta.media.0.codec.long_name">PCM signed 16-bit little-endian</property>
    <property name="meta.media.0.codec.bit_rate">384000</property>
    <property name="seekable">1</property>
    <property name="audio_index">0</property>
    <property name="video_index">-1</property>
    <property name="creation_time">2023-12-11T05:02:37</property>
    <property name="astream">0</property>
    <property name="shotcut:skipConvert">1</property>
    <property name="xml">was here</property>
    <property name="shotcut:hash">05d80e8640f7de6b61155662caa6f2e0</property>
    <property name="shotcut:caption">017_雨晴はう（ノーマル）_コンピュータゲーム….wav</property>
  </chain>
  <chain id="chain75" out="00:00:04.000">
    <property name="length">00:00:04.040</property>
    <property name="eof">pause</property>
    <property name="resource">voice/018_雨晴はう（ノーマル）_ゲーム内部時間では….wav</property>
    <property name="mlt_service">avformat-novalidate</property>
    <property name="meta.media.nb_streams">1</property>
    <property name="meta.media.0.stream.type">audio</property>
    <property name="meta.media.0.codec.sample_fmt">s16</property>
    <property name="meta.media.0.codec.sample_rate">24000</property>
    <property name="meta.media.0.codec.channels">1</property>
    <property name="meta.media.0.codec.name">pcm_s16le</property>
    <property name="meta.media.0.codec.long_name">PCM signed 16-bit little-endian</property>
    <property name="meta.media.0.codec.bit_rate">384000</property>
    <property name="seekable">1</property>
    <property name="audio_index">0</property>
    <property name="video_index">-1</property>
    <property name="creation_time">2023-12-11T05:02:37</property>
    <property name="astream">0</property>
    <property name="shotcut:skipConvert">1</property>
    <property name="xml">was here</property>
    <property name="shotcut:hash">3b8779b28f63e060ae6b1f82c11890c5</property>
    <property name="shotcut:caption">018_雨晴はう（ノーマル）_ゲーム内部時間では….wav</property>
  </chain>
  <chain id="chain76" out="00:00:05.800">
    <property name="length">00:00:05.840</property>
    <property name="eof">pause</property>
    <property name="resource">voice/019_雨晴はう（ノーマル）_「アールティーエー….wav</property>
    <property name="mlt_service">avformat-novalidate</property>
    <property name="meta.media.nb_streams">1</property>
    <property name="meta.media.0.stream.type">audio</property>
    <property name="meta.media.0.codec.sample_fmt">s16</property>
    <property name="meta.media.0.codec.sample_rate">24000</property>
    <property name="meta.media.0.codec.channels">1</property>
    <property name="meta.media.0.codec.name">pcm_s16le</property>
    <property name="meta.media.0.codec.long_name">PCM signed 16-bit little-endian</property>
    <property name="meta.media.0.codec.bit_rate">384000</property>
    <property name="seekable">1</property>
    <property name="audio_index">0</property>
    <property name="video_index">-1</property>
    <property name="creation_time">2023-12-11T05:02:37</property>
    <property name="astream">0</property>
    <property name="shotcut:skipConvert">1</property>
    <property name="xml">was here</property>
    <property name="shotcut:hash">921a45666fc741c97d660c9d0c16e9e6</property>
    <property name="shotcut:caption">019_雨晴はう（ノーマル）_「アールティーエー….wav</property>
  </chain>
  <chain id="chain77" out="00:00:11.880">
    <property name="length">00:00:11.920</property>
    <property name="eof">pause</property>
    <property name="resource">voice/020_雨晴はう（ノーマル）_まあ，要は素早く何….wav</property>
    <property name="mlt_service">avformat-novalidate</property>
    <property name="meta.media.nb_streams">1</property>
    <property name="meta.media.0.stream.type">audio</property>
    <property name="meta.media.0.codec.sample_fmt">s16</property>
    <property name="meta.media.0.codec.sample_rate">24000</property>
    <property name="meta.media.0.codec.channels">1</property>
    <property name="meta.media.0.codec.name">pcm_s16le</property>
    <property name="meta.media.0.codec.long_name">PCM signed 16-bit little-endian</property>
    <property name="meta.media.0.codec.bit_rate">384000</property>
    <property name="seekable">1</property>
    <property name="audio_index">0</property>
    <property name="video_index">-1</property>
    <property name="creation_time">2023-12-11T05:02:37</property>
    <property name="astream">0</property>
    <property name="shotcut:skipConvert">1</property>
    <property name="xml">was here</property>
    <property name="shotcut:hash">0046e296e29c552ed6599a40b07266e0</property>
    <property name="shotcut:caption">020_雨晴はう（ノーマル）_まあ，要は素早く何….wav</property>
  </chain>
  <chain id="chain78" out="00:00:02.640">
    <property name="length">00:00:02.680</property>
    <property name="eof">pause</property>
    <property name="resource">voice/022_雨晴はう（ノーマル）_次に，LANケーブ….wav</property>
    <property name="mlt_service">avformat-novalidate</property>
    <property name="meta.media.nb_streams">1</property>
    <property name="meta.media.0.stream.type">audio</property>
    <property name="meta.media.0.codec.sample_fmt">s16</property>
    <property name="meta.media.0.codec.sample_rate">24000</property>
    <property name="meta.media.0.codec.channels">1</property>
    <property name="meta.media.0.codec.name">pcm_s16le</property>
    <property name="meta.media.0.codec.long_name">PCM signed 16-bit little-endian</property>
    <property name="meta.media.0.codec.bit_rate">384000</property>
    <property name="seekable">1</property>
    <property name="audio_index">0</property>
    <property name="video_index">-1</property>
    <property name="creation_time">2023-12-11T05:02:37</property>
    <property name="astream">0</property>
    <property name="shotcut:skipConvert">1</property>
    <property name="xml">was here</property>
    <property name="shotcut:hash">26ebe7a1bfa4d6da9911d371ed6c9c12</property>
    <property name="shotcut:caption">022_雨晴はう（ノーマル）_次に，LANケーブ….wav</property>
  </chain>
  <chain id="chain79" out="00:00:01.720">
    <property name="length">00:00:01.760</property>
    <property name="eof">pause</property>
    <property name="resource">voice/023_雨晴はう（ノーマル）_以下Wikiped….wav</property>
    <property name="mlt_service">avformat-novalidate</property>
    <property name="meta.media.nb_streams">1</property>
    <property name="meta.media.0.stream.type">audio</property>
    <property name="meta.media.0.codec.sample_fmt">s16</property>
    <property name="meta.media.0.codec.sample_rate">24000</property>
    <property name="meta.media.0.codec.channels">1</property>
    <property name="meta.media.0.codec.name">pcm_s16le</property>
    <property name="meta.media.0.codec.long_name">PCM signed 16-bit little-endian</property>
    <property name="meta.media.0.codec.bit_rate">384000</property>
    <property name="seekable">1</property>
    <property name="audio_index">0</property>
    <property name="video_index">-1</property>
    <property name="creation_time">2023-12-11T05:02:37</property>
    <property name="astream">0</property>
    <property name="shotcut:skipConvert">1</property>
    <property name="xml">was here</property>
    <property name="shotcut:hash">4c4203394dfb95b93d2890bcc5e04e26</property>
    <property name="shotcut:caption">023_雨晴はう（ノーマル）_以下Wikiped….wav</property>
  </chain>
  <chain id="chain80" out="00:00:06.280">
    <property name="length">00:00:06.320</property>
    <property name="eof">pause</property>
    <property name="resource">voice/024_雨晴はう（ノーマル）_（よりついせん）に….wav</property>
    <property name="mlt_service">avformat-novalidate</property>
    <property name="meta.media.nb_streams">1</property>
    <property name="meta.media.0.stream.type">audio</property>
    <property name="meta.media.0.codec.sample_fmt">s16</property>
    <property name="meta.media.0.codec.sample_rate">24000</property>
    <property name="meta.media.0.codec.channels">1</property>
    <property name="meta.media.0.codec.name">pcm_s16le</property>
    <property name="meta.media.0.codec.long_name">PCM signed 16-bit little-endian</property>
    <property name="meta.media.0.codec.bit_rate">384000</property>
    <property name="seekable">1</property>
    <property name="audio_index">0</property>
    <property name="video_index">-1</property>
    <property name="creation_time">2023-12-11T05:02:37</property>
    <property name="astream">0</property>
    <property name="shotcut:skipConvert">1</property>
    <property name="xml">was here</property>
    <property name="shotcut:hash">44f1af362f7623e0af3c735e64933e8f</property>
    <property name="shotcut:caption">024_雨晴はう（ノーマル）_（よりついせん）に….wav</property>
  </chain>
  <chain id="chain81" out="00:00:12.760">
    <property name="length">00:00:12.800</property>
    <property name="eof">pause</property>
    <property name="resource">voice/025_雨晴はう（ノーマル）_特に4対8線で両端….wav</property>
    <property name="mlt_service">avformat-novalidate</property>
    <property name="meta.media.nb_streams">1</property>
    <property name="meta.media.0.stream.type">audio</property>
    <property name="meta.media.0.codec.sample_fmt">s16</property>
    <property name="meta.media.0.codec.sample_rate">24000</property>
    <property name="meta.media.0.codec.channels">1</property>
    <property name="meta.media.0.codec.name">pcm_s16le</property>
    <property name="meta.media.0.codec.long_name">PCM signed 16-bit little-endian</property>
    <property name="meta.media.0.codec.bit_rate">384000</property>
    <property name="seekable">1</property>
    <property name="audio_index">0</property>
    <property name="video_index">-1</property>
    <property name="creation_time">2023-12-11T05:02:37</property>
    <property name="astream">0</property>
    <property name="shotcut:skipConvert">1</property>
    <property name="xml">was here</property>
    <property name="shotcut:hash">9101cb9632cb24c5e6695751ce072d0c</property>
    <property name="shotcut:caption">025_雨晴はう（ノーマル）_特に4対8線で両端….wav</property>
  </chain>
  <chain id="chain82" out="00:00:05.840">
    <property name="length">00:00:05.880</property>
    <property name="eof">pause</property>
    <property name="resource">voice/026_雨晴はう（ノーマル）_圧接工具を使えば容….wav</property>
    <property name="mlt_service">avformat-novalidate</property>
    <property name="meta.media.nb_streams">1</property>
    <property name="meta.media.0.stream.type">audio</property>
    <property name="meta.media.0.codec.sample_fmt">s16</property>
    <property name="meta.media.0.codec.sample_rate">24000</property>
    <property name="meta.media.0.codec.channels">1</property>
    <property name="meta.media.0.codec.name">pcm_s16le</property>
    <property name="meta.media.0.codec.long_name">PCM signed 16-bit little-endian</property>
    <property name="meta.media.0.codec.bit_rate">384000</property>
    <property name="seekable">1</property>
    <property name="audio_index">0</property>
    <property name="video_index">-1</property>
    <property name="creation_time">2023-12-11T05:02:37</property>
    <property name="astream">0</property>
    <property name="shotcut:skipConvert">1</property>
    <property name="xml">was here</property>
    <property name="shotcut:hash">58f06f8e54447f41ed4504b84403b8ed</property>
    <property name="shotcut:caption">026_雨晴はう（ノーマル）_圧接工具を使えば容….wav</property>
  </chain>
  <chain id="chain83" out="00:00:03.760">
    <property name="length">00:00:03.800</property>
    <property name="eof">pause</property>
    <property name="resource">voice/027_雨晴はう（ノーマル）_ケーブルには配線構….wav</property>
    <property name="mlt_service">avformat-novalidate</property>
    <property name="meta.media.nb_streams">1</property>
    <property name="meta.media.0.stream.type">audio</property>
    <property name="meta.media.0.codec.sample_fmt">s16</property>
    <property name="meta.media.0.codec.sample_rate">24000</property>
    <property name="meta.media.0.codec.channels">1</property>
    <property name="meta.media.0.codec.name">pcm_s16le</property>
    <property name="meta.media.0.codec.long_name">PCM signed 16-bit little-endian</property>
    <property name="meta.media.0.codec.bit_rate">384000</property>
    <property name="seekable">1</property>
    <property name="audio_index">0</property>
    <property name="video_index">-1</property>
    <property name="creation_time">2023-12-11T05:02:37</property>
    <property name="astream">0</property>
    <property name="shotcut:skipConvert">1</property>
    <property name="xml">was here</property>
    <property name="shotcut:hash">67aa18516153f987b2b4e895dd6fbd3e</property>
    <property name="shotcut:caption">027_雨晴はう（ノーマル）_ケーブルには配線構….wav</property>
  </chain>
  <chain id="chain84" out="00:00:05.280">
    <property name="length">00:00:05.320</property>
    <property name="eof">pause</property>
    <property name="resource">voice/028_雨晴はう（ノーマル）_要は，わいふぁいの….wav</property>
    <property name="mlt_service">avformat-novalidate</property>
    <property name="meta.media.nb_streams">1</property>
    <property name="meta.media.0.stream.type">audio</property>
    <property name="meta.media.0.codec.sample_fmt">s16</property>
    <property name="meta.media.0.codec.sample_rate">24000</property>
    <property name="meta.media.0.codec.channels">1</property>
    <property name="meta.media.0.codec.name">pcm_s16le</property>
    <property name="meta.media.0.codec.long_name">PCM signed 16-bit little-endian</property>
    <property name="meta.media.0.codec.bit_rate">384000</property>
    <property name="seekable">1</property>
    <property name="audio_index">0</property>
    <property name="video_index">-1</property>
    <property name="creation_time">2023-12-11T05:02:37</property>
    <property name="astream">0</property>
    <property name="shotcut:skipConvert">1</property>
    <property name="xml">was here</property>
    <property name="shotcut:hash">be4230b62bc4c8d52c7fefe37e4b0a10</property>
    <property name="shotcut:caption">028_雨晴はう（ノーマル）_要は，わいふぁいの….wav</property>
  </chain>
  <chain id="chain85" out="00:00:06.640">
    <property name="length">00:00:06.680</property>
    <property name="eof">pause</property>
    <property name="resource">voice/030_雨晴はう（ノーマル）_また今回は，LAN….wav</property>
    <property name="mlt_service">avformat-novalidate</property>
    <property name="meta.media.nb_streams">1</property>
    <property name="meta.media.0.stream.type">audio</property>
    <property name="meta.media.0.codec.sample_fmt">s16</property>
    <property name="meta.media.0.codec.sample_rate">24000</property>
    <property name="meta.media.0.codec.channels">1</property>
    <property name="meta.media.0.codec.name">pcm_s16le</property>
    <property name="meta.media.0.codec.long_name">PCM signed 16-bit little-endian</property>
    <property name="meta.media.0.codec.bit_rate">384000</property>
    <property name="seekable">1</property>
    <property name="audio_index">0</property>
    <property name="video_index">-1</property>
    <property name="creation_time">2023-12-11T05:02:37</property>
    <property name="astream">0</property>
    <property name="shotcut:skipConvert">1</property>
    <property name="xml">was here</property>
    <property name="shotcut:hash">bf10bfce250b5c28688210c58c9b71f3</property>
    <property name="shotcut:caption">030_雨晴はう（ノーマル）_また今回は，LAN….wav</property>
  </chain>
  <chain id="chain86" out="00:00:05.040">
    <property name="length">00:00:05.080</property>
    <property name="eof">pause</property>
    <property name="resource">voice/031_雨晴はう（ノーマル）_そして，配線はスト….wav</property>
    <property name="mlt_service">avformat-novalidate</property>
    <property name="meta.media.nb_streams">1</property>
    <property name="meta.media.0.stream.type">audio</property>
    <property name="meta.media.0.codec.sample_fmt">s16</property>
    <property name="meta.media.0.codec.sample_rate">24000</property>
    <property name="meta.media.0.codec.channels">1</property>
    <property name="meta.media.0.codec.name">pcm_s16le</property>
    <property name="meta.media.0.codec.long_name">PCM signed 16-bit little-endian</property>
    <property name="meta.media.0.codec.bit_rate">384000</property>
    <property name="seekable">1</property>
    <property name="audio_index">0</property>
    <property name="video_index">-1</property>
    <property name="creation_time">2023-12-11T05:02:37</property>
    <property name="astream">0</property>
    <property name="shotcut:skipConvert">1</property>
    <property name="xml">was here</property>
    <property name="shotcut:hash">0dd4f0f414be63bf40f98563fe979098</property>
    <property name="shotcut:caption">031_雨晴はう（ノーマル）_そして，配線はスト….wav</property>
  </chain>
  <chain id="chain87" out="00:00:02.880">
    <property name="length">00:00:02.920</property>
    <property name="eof">pause</property>
    <property name="resource">voice/032_雨晴はう（ノーマル）_今回はストレートケ….wav</property>
    <property name="mlt_service">avformat-novalidate</property>
    <property name="meta.media.nb_streams">1</property>
    <property name="meta.media.0.stream.type">audio</property>
    <property name="meta.media.0.codec.sample_fmt">s16</property>
    <property name="meta.media.0.codec.sample_rate">24000</property>
    <property name="meta.media.0.codec.channels">1</property>
    <property name="meta.media.0.codec.name">pcm_s16le</property>
    <property name="meta.media.0.codec.long_name">PCM signed 16-bit little-endian</property>
    <property name="meta.media.0.codec.bit_rate">384000</property>
    <property name="seekable">1</property>
    <property name="audio_index">0</property>
    <property name="video_index">-1</property>
    <property name="creation_time">2023-12-11T05:02:37</property>
    <property name="astream">0</property>
    <property name="shotcut:skipConvert">1</property>
    <property name="xml">was here</property>
    <property name="shotcut:hash">c10f66a41057b51b1b666f5822658fb9</property>
    <property name="shotcut:caption">032_雨晴はう（ノーマル）_今回はストレートケ….wav</property>
  </chain>
  <chain id="chain88" out="00:00:07.880">
    <property name="length">00:00:07.920</property>
    <property name="eof">pause</property>
    <property name="resource">voice/034_雨晴はう（ノーマル）_まだまだ，RTAを….wav</property>
    <property name="mlt_service">avformat-novalidate</property>
    <property name="meta.media.nb_streams">1</property>
    <property name="meta.media.0.stream.type">audio</property>
    <property name="meta.media.0.codec.sample_fmt">s16</property>
    <property name="meta.media.0.codec.sample_rate">24000</property>
    <property name="meta.media.0.codec.channels">1</property>
    <property name="meta.media.0.codec.name">pcm_s16le</property>
    <property name="meta.media.0.codec.long_name">PCM signed 16-bit little-endian</property>
    <property name="meta.media.0.codec.bit_rate">384000</property>
    <property name="seekable">1</property>
    <property name="audio_index">0</property>
    <property name="video_index">-1</property>
    <property name="creation_time">2023-12-11T05:02:37</property>
    <property name="astream">0</property>
    <property name="shotcut:skipConvert">1</property>
    <property name="xml">was here</property>
    <property name="shotcut:hash">31e52ddb94e25c35bc3c8fa83bb87509</property>
    <property name="shotcut:caption">034_雨晴はう（ノーマル）_まだまだ，RTAを….wav</property>
  </chain>
  <chain id="chain89" out="00:00:06.640">
    <property name="length">00:00:06.680</property>
    <property name="eof">pause</property>
    <property name="resource">voice/035_雨晴はう（ノーマル）_このRTAでのタイ….wav</property>
    <property name="mlt_service">avformat-novalidate</property>
    <property name="meta.media.nb_streams">1</property>
    <property name="meta.media.0.stream.type">audio</property>
    <property name="meta.media.0.codec.sample_fmt">s16</property>
    <property name="meta.media.0.codec.sample_rate">24000</property>
    <property name="meta.media.0.codec.channels">1</property>
    <property name="meta.media.0.codec.name">pcm_s16le</property>
    <property name="meta.media.0.codec.long_name">PCM signed 16-bit little-endian</property>
    <property name="meta.media.0.codec.bit_rate">384000</property>
    <property name="seekable">1</property>
    <property name="audio_index">0</property>
    <property name="video_index">-1</property>
    <property name="creation_time">2023-12-11T05:02:37</property>
    <property name="astream">0</property>
    <property name="shotcut:skipConvert">1</property>
    <property name="xml">was here</property>
    <property name="shotcut:hash">942c84e621a1456ac535f94ea399398b</property>
    <property name="shotcut:caption">035_雨晴はう（ノーマル）_このRTAでのタイ….wav</property>
    <property name="ignore_points">0</property>
  </chain>
  <chain id="chain90" out="00:00:06.640">
    <property name="length">00:00:06.680</property>
    <property name="eof">pause</property>
    <property name="resource">voice/035_雨晴はう（ノーマル）_このRTAでのタイ….wav</property>
    <property name="mlt_service">avformat-novalidate</property>
    <property name="meta.media.nb_streams">1</property>
    <property name="meta.media.0.stream.type">audio</property>
    <property name="meta.media.0.codec.sample_fmt">s16</property>
    <property name="meta.media.0.codec.sample_rate">24000</property>
    <property name="meta.media.0.codec.channels">1</property>
    <property name="meta.media.0.codec.name">pcm_s16le</property>
    <property name="meta.media.0.codec.long_name">PCM signed 16-bit little-endian</property>
    <property name="meta.media.0.codec.bit_rate">384000</property>
    <property name="seekable">1</property>
    <property name="audio_index">0</property>
    <property name="video_index">-1</property>
    <property name="creation_time">2023-12-11T05:02:37</property>
    <property name="astream">0</property>
    <property name="shotcut:skipConvert">1</property>
    <property name="xml">was here</property>
    <property name="shotcut:hash">942c84e621a1456ac535f94ea399398b</property>
    <property name="shotcut:caption">035_雨晴はう（ノーマル）_このRTAでのタイ….wav</property>
  </chain>
  <chain id="chain91" out="00:00:06.280">
    <property name="length">00:00:06.320</property>
    <property name="eof">pause</property>
    <property name="resource">voice/036_雨晴はう（ノーマル）_従って，LANケー….wav</property>
    <property name="mlt_service">avformat-novalidate</property>
    <property name="meta.media.nb_streams">1</property>
    <property name="meta.media.0.stream.type">audio</property>
    <property name="meta.media.0.codec.sample_fmt">s16</property>
    <property name="meta.media.0.codec.sample_rate">24000</property>
    <property name="meta.media.0.codec.channels">1</property>
    <property name="meta.media.0.codec.name">pcm_s16le</property>
    <property name="meta.media.0.codec.long_name">PCM signed 16-bit little-endian</property>
    <property name="meta.media.0.codec.bit_rate">384000</property>
    <property name="seekable">1</property>
    <property name="audio_index">0</property>
    <property name="video_index">-1</property>
    <property name="creation_time">2023-12-11T05:02:37</property>
    <property name="astream">0</property>
    <property name="shotcut:skipConvert">1</property>
    <property name="xml">was here</property>
    <property name="shotcut:hash">79213faba80fd3c08821ff9043c5a603</property>
    <property name="shotcut:caption">036_雨晴はう（ノーマル）_従って，LANケー….wav</property>
  </chain>
  <chain id="chain92" out="00:00:06.280">
    <property name="length">00:00:06.320</property>
    <property name="eof">pause</property>
    <property name="resource">voice/036_雨晴はう（ノーマル）_従って，LANケー….wav</property>
    <property name="mlt_service">avformat-novalidate</property>
    <property name="meta.media.nb_streams">1</property>
    <property name="meta.media.0.stream.type">audio</property>
    <property name="meta.media.0.codec.sample_fmt">s16</property>
    <property name="meta.media.0.codec.sample_rate">24000</property>
    <property name="meta.media.0.codec.channels">1</property>
    <property name="meta.media.0.codec.name">pcm_s16le</property>
    <property name="meta.media.0.codec.long_name">PCM signed 16-bit little-endian</property>
    <property name="meta.media.0.codec.bit_rate">384000</property>
    <property name="seekable">1</property>
    <property name="audio_index">0</property>
    <property name="video_index">-1</property>
    <property name="creation_time">2023-12-11T05:02:37</property>
    <property name="astream">0</property>
    <property name="shotcut:skipConvert">1</property>
    <property name="xml">was here</property>
    <property name="shotcut:hash">79213faba80fd3c08821ff9043c5a603</property>
    <property name="shotcut:caption">036_雨晴はう（ノーマル）_従って，LANケー….wav</property>
  </chain>
  <chain id="chain93" out="00:00:02.360">
    <property name="length">00:00:02.400</property>
    <property name="eof">pause</property>
    <property name="resource">voice/037_雨晴はう（ノーマル）_このテスターについ….wav</property>
    <property name="mlt_service">avformat-novalidate</property>
    <property name="meta.media.nb_streams">1</property>
    <property name="meta.media.0.stream.type">audio</property>
    <property name="meta.media.0.codec.sample_fmt">s16</property>
    <property name="meta.media.0.codec.sample_rate">24000</property>
    <property name="meta.media.0.codec.channels">1</property>
    <property name="meta.media.0.codec.name">pcm_s16le</property>
    <property name="meta.media.0.codec.long_name">PCM signed 16-bit little-endian</property>
    <property name="meta.media.0.codec.bit_rate">384000</property>
    <property name="seekable">1</property>
    <property name="audio_index">0</property>
    <property name="video_index">-1</property>
    <property name="creation_time">2023-12-11T05:02:37</property>
    <property name="astream">0</property>
    <property name="shotcut:skipConvert">1</property>
    <property name="xml">was here</property>
    <property name="shotcut:hash">bf1a563fc2d20a6fdda7a10219d325d5</property>
  </chain>
  <chain id="chain94" out="00:00:05.920">
    <property name="length">00:00:05.960</property>
    <property name="eof">pause</property>
    <property name="resource">voice/038_雨晴はう（ノーマル）_視聴者兄貴姉貴の中….wav</property>
    <property name="mlt_service">avformat-novalidate</property>
    <property name="meta.media.nb_streams">1</property>
    <property name="meta.media.0.stream.type">audio</property>
    <property name="meta.media.0.codec.sample_fmt">s16</property>
    <property name="meta.media.0.codec.sample_rate">24000</property>
    <property name="meta.media.0.codec.channels">1</property>
    <property name="meta.media.0.codec.name">pcm_s16le</property>
    <property name="meta.media.0.codec.long_name">PCM signed 16-bit little-endian</property>
    <property name="meta.media.0.codec.bit_rate">384000</property>
    <property name="seekable">1</property>
    <property name="audio_index">0</property>
    <property name="video_index">-1</property>
    <property name="creation_time">2023-12-11T05:02:37</property>
    <property name="astream">0</property>
    <property name="shotcut:skipConvert">1</property>
    <property name="xml">was here</property>
    <property name="shotcut:hash">89e07115d53fb718003577e47bd69ecb</property>
  </chain>
  <chain id="chain95" out="00:00:08.720">
    <property name="length">00:00:08.760</property>
    <property name="eof">pause</property>
    <property name="resource">voice/039_雨晴はう（ノーマル）_実は我々がよく目に….wav</property>
    <property name="mlt_service">avformat-novalidate</property>
    <property name="meta.media.nb_streams">1</property>
    <property name="meta.media.0.stream.type">audio</property>
    <property name="meta.media.0.codec.sample_fmt">s16</property>
    <property name="meta.media.0.codec.sample_rate">24000</property>
    <property name="meta.media.0.codec.channels">1</property>
    <property name="meta.media.0.codec.name">pcm_s16le</property>
    <property name="meta.media.0.codec.long_name">PCM signed 16-bit little-endian</property>
    <property name="meta.media.0.codec.bit_rate">384000</property>
    <property name="seekable">1</property>
    <property name="audio_index">0</property>
    <property name="video_index">-1</property>
    <property name="creation_time">2023-12-11T05:02:37</property>
    <property name="astream">0</property>
    <property name="shotcut:skipConvert">1</property>
    <property name="xml">was here</property>
    <property name="shotcut:hash">72ecd460a656186c541b48be365bde10</property>
  </chain>
  <chain id="chain96" out="00:00:10.120">
    <property name="length">00:00:10.160</property>
    <property name="eof">pause</property>
    <property name="resource">voice/040_雨晴はう（ノーマル）_一見素人には同じに….wav</property>
    <property name="mlt_service">avformat-novalidate</property>
    <property name="meta.media.nb_streams">1</property>
    <property name="meta.media.0.stream.type">audio</property>
    <property name="meta.media.0.codec.sample_fmt">s16</property>
    <property name="meta.media.0.codec.sample_rate">24000</property>
    <property name="meta.media.0.codec.channels">1</property>
    <property name="meta.media.0.codec.name">pcm_s16le</property>
    <property name="meta.media.0.codec.long_name">PCM signed 16-bit little-endian</property>
    <property name="meta.media.0.codec.bit_rate">384000</property>
    <property name="seekable">1</property>
    <property name="audio_index">0</property>
    <property name="video_index">-1</property>
    <property name="creation_time">2023-12-11T05:02:37</property>
    <property name="astream">0</property>
    <property name="shotcut:skipConvert">1</property>
    <property name="xml">was here</property>
    <property name="shotcut:hash">5b33d57909aca64ce65d182bee121e21</property>
  </chain>
  <chain id="chain97" out="00:00:07.200">
    <property name="length">00:00:07.240</property>
    <property name="eof">pause</property>
    <property name="resource">voice/041_雨晴はう（ノーマル）_ざっくり説明すると….wav</property>
    <property name="mlt_service">avformat-novalidate</property>
    <property name="meta.media.nb_streams">1</property>
    <property name="meta.media.0.stream.type">audio</property>
    <property name="meta.media.0.codec.sample_fmt">s16</property>
    <property name="meta.media.0.codec.sample_rate">24000</property>
    <property name="meta.media.0.codec.channels">1</property>
    <property name="meta.media.0.codec.name">pcm_s16le</property>
    <property name="meta.media.0.codec.long_name">PCM signed 16-bit little-endian</property>
    <property name="meta.media.0.codec.bit_rate">384000</property>
    <property name="seekable">1</property>
    <property name="audio_index">0</property>
    <property name="video_index">-1</property>
    <property name="creation_time">2023-12-11T05:02:37</property>
    <property name="astream">0</property>
    <property name="shotcut:skipConvert">1</property>
    <property name="xml">was here</property>
    <property name="shotcut:hash">deb53fd2c1c5ee4acb3e919d2ba66aae</property>
  </chain>
  <chain id="chain98" out="00:00:07.720">
    <property name="length">00:00:07.760</property>
    <property name="eof">pause</property>
    <property name="resource">voice/042_雨晴はう（ノーマル）_なので，このテスタ….wav</property>
    <property name="mlt_service">avformat-novalidate</property>
    <property name="meta.media.nb_streams">1</property>
    <property name="meta.media.0.stream.type">audio</property>
    <property name="meta.media.0.codec.sample_fmt">s16</property>
    <property name="meta.media.0.codec.sample_rate">24000</property>
    <property name="meta.media.0.codec.channels">1</property>
    <property name="meta.media.0.codec.name">pcm_s16le</property>
    <property name="meta.media.0.codec.long_name">PCM signed 16-bit little-endian</property>
    <property name="meta.media.0.codec.bit_rate">384000</property>
    <property name="seekable">1</property>
    <property name="audio_index">0</property>
    <property name="video_index">-1</property>
    <property name="creation_time">2023-12-11T05:02:37</property>
    <property name="astream">0</property>
    <property name="shotcut:skipConvert">1</property>
    <property name="xml">was here</property>
    <property name="shotcut:hash">0db0e106e31796c05f8fd453dc2a35bf</property>
  </chain>
  <chain id="chain99" out="00:00:04.880">
    <property name="length">00:00:04.920</property>
    <property name="eof">pause</property>
    <property name="resource">voice/043_雨晴はう（ノーマル）_断線や，正しい配線….wav</property>
    <property name="mlt_service">avformat-novalidate</property>
    <property name="meta.media.nb_streams">1</property>
    <property name="meta.media.0.stream.type">audio</property>
    <property name="meta.media.0.codec.sample_fmt">s16</property>
    <property name="meta.media.0.codec.sample_rate">24000</property>
    <property name="meta.media.0.codec.channels">1</property>
    <property name="meta.media.0.codec.name">pcm_s16le</property>
    <property name="meta.media.0.codec.long_name">PCM signed 16-bit little-endian</property>
    <property name="meta.media.0.codec.bit_rate">384000</property>
    <property name="seekable">1</property>
    <property name="audio_index">0</property>
    <property name="video_index">-1</property>
    <property name="creation_time">2023-12-11T05:02:37</property>
    <property name="astream">0</property>
    <property name="shotcut:skipConvert">1</property>
    <property name="xml">was here</property>
    <property name="shotcut:hash">1bc6a5788d8e5a0798d413456ddb65a1</property>
  </chain>
  <chain id="chain100" out="00:00:03.400">
    <property name="length">00:00:03.440</property>
    <property name="eof">pause</property>
    <property name="resource">voice/044_雨晴はう（ノーマル）_今回はこの部分が光….wav</property>
    <property name="mlt_service">avformat-novalidate</property>
    <property name="meta.media.nb_streams">1</property>
    <property name="meta.media.0.stream.type">audio</property>
    <property name="meta.media.0.codec.sample_fmt">s16</property>
    <property name="meta.media.0.codec.sample_rate">24000</property>
    <property name="meta.media.0.codec.channels">1</property>
    <property name="meta.media.0.codec.name">pcm_s16le</property>
    <property name="meta.media.0.codec.long_name">PCM signed 16-bit little-endian</property>
    <property name="meta.media.0.codec.bit_rate">384000</property>
    <property name="seekable">1</property>
    <property name="audio_index">0</property>
    <property name="video_index">-1</property>
    <property name="creation_time">2023-12-11T05:02:37</property>
    <property name="astream">0</property>
    <property name="shotcut:skipConvert">1</property>
    <property name="xml">was here</property>
    <property name="shotcut:hash">699d88ce6b3d682a198b333a43ce0a7b</property>
  </chain>
  <chain id="chain101" out="00:00:08.360">
    <property name="length">00:00:08.400</property>
    <property name="eof">pause</property>
    <property name="resource">voice/046_雨晴はう（ノーマル）_さて，当然LANケ….wav</property>
    <property name="mlt_service">avformat-novalidate</property>
    <property name="meta.media.nb_streams">1</property>
    <property name="meta.media.0.stream.type">audio</property>
    <property name="meta.media.0.codec.sample_fmt">s16</property>
    <property name="meta.media.0.codec.sample_rate">24000</property>
    <property name="meta.media.0.codec.channels">1</property>
    <property name="meta.media.0.codec.name">pcm_s16le</property>
    <property name="meta.media.0.codec.long_name">PCM signed 16-bit little-endian</property>
    <property name="meta.media.0.codec.bit_rate">384000</property>
    <property name="seekable">1</property>
    <property name="audio_index">0</property>
    <property name="video_index">-1</property>
    <property name="creation_time">2023-12-11T05:02:37</property>
    <property name="astream">0</property>
    <property name="shotcut:skipConvert">1</property>
    <property name="xml">was here</property>
    <property name="shotcut:hash">17709a6787528b874d987a530639ab39</property>
  </chain>
  <chain id="chain102" out="00:00:04.560">
    <property name="length">00:00:04.600</property>
    <property name="eof">pause</property>
    <property name="resource">voice/047_雨晴はう（ノーマル）_UTPという単語に….wav</property>
    <property name="mlt_service">avformat-novalidate</property>
    <property name="meta.media.nb_streams">1</property>
    <property name="meta.media.0.stream.type">audio</property>
    <property name="meta.media.0.codec.sample_fmt">s16</property>
    <property name="meta.media.0.codec.sample_rate">24000</property>
    <property name="meta.media.0.codec.channels">1</property>
    <property name="meta.media.0.codec.name">pcm_s16le</property>
    <property name="meta.media.0.codec.long_name">PCM signed 16-bit little-endian</property>
    <property name="meta.media.0.codec.bit_rate">384000</property>
    <property name="seekable">1</property>
    <property name="audio_index">0</property>
    <property name="video_index">-1</property>
    <property name="creation_time">2023-12-11T05:02:37</property>
    <property name="astream">0</property>
    <property name="shotcut:skipConvert">1</property>
    <property name="xml">was here</property>
    <property name="shotcut:hash">1a1232b3f2ef3a4e569fd471e2f1ddf3</property>
  </chain>
  <chain id="chain103" out="00:00:05.800">
    <property name="length">00:00:05.840</property>
    <property name="eof">pause</property>
    <property name="resource">voice/048_雨晴はう（ノーマル）_そして，RJヨンゴ….wav</property>
    <property name="mlt_service">avformat-novalidate</property>
    <property name="meta.media.nb_streams">1</property>
    <property name="meta.media.0.stream.type">audio</property>
    <property name="meta.media.0.codec.sample_fmt">s16</property>
    <property name="meta.media.0.codec.sample_rate">24000</property>
    <property name="meta.media.0.codec.channels">1</property>
    <property name="meta.media.0.codec.name">pcm_s16le</property>
    <property name="meta.media.0.codec.long_name">PCM signed 16-bit little-endian</property>
    <property name="meta.media.0.codec.bit_rate">384000</property>
    <property name="seekable">1</property>
    <property name="audio_index">0</property>
    <property name="video_index">-1</property>
    <property name="creation_time">2023-12-11T05:02:37</property>
    <property name="astream">0</property>
    <property name="shotcut:skipConvert">1</property>
    <property name="xml">was here</property>
    <property name="shotcut:hash">ef9cae59f799b9d3f8dc714b64ccd2ed</property>
  </chain>
  <chain id="chain104" out="00:00:05.080">
    <property name="length">00:00:05.120</property>
    <property name="eof">pause</property>
    <property name="resource">voice/050_雨晴はう（ノーマル）_あと，ニッパーのよ….wav</property>
    <property name="mlt_service">avformat-novalidate</property>
    <property name="meta.media.nb_streams">1</property>
    <property name="meta.media.0.stream.type">audio</property>
    <property name="meta.media.0.codec.sample_fmt">s16</property>
    <property name="meta.media.0.codec.sample_rate">24000</property>
    <property name="meta.media.0.codec.channels">1</property>
    <property name="meta.media.0.codec.name">pcm_s16le</property>
    <property name="meta.media.0.codec.long_name">PCM signed 16-bit little-endian</property>
    <property name="meta.media.0.codec.bit_rate">384000</property>
    <property name="seekable">1</property>
    <property name="audio_index">0</property>
    <property name="video_index">-1</property>
    <property name="creation_time">2023-12-11T05:02:37</property>
    <property name="astream">0</property>
    <property name="shotcut:skipConvert">1</property>
    <property name="xml">was here</property>
    <property name="shotcut:hash">c46c9b579d98a08584fc0f2dd9fd14e9</property>
  </chain>
  <chain id="chain105" out="00:00:01.840">
    <property name="length">00:00:01.880</property>
    <property name="eof">pause</property>
    <property name="resource">voice/052_雨晴はう（ノーマル）_これにて準備完了で….wav</property>
    <property name="mlt_service">avformat-novalidate</property>
    <property name="meta.media.nb_streams">1</property>
    <property name="meta.media.0.stream.type">audio</property>
    <property name="meta.media.0.codec.sample_fmt">s16</property>
    <property name="meta.media.0.codec.sample_rate">24000</property>
    <property name="meta.media.0.codec.channels">1</property>
    <property name="meta.media.0.codec.name">pcm_s16le</property>
    <property name="meta.media.0.codec.long_name">PCM signed 16-bit little-endian</property>
    <property name="meta.media.0.codec.bit_rate">384000</property>
    <property name="seekable">1</property>
    <property name="audio_index">0</property>
    <property name="video_index">-1</property>
    <property name="creation_time">2023-12-11T05:02:37</property>
    <property name="astream">0</property>
    <property name="shotcut:skipConvert">1</property>
    <property name="xml">was here</property>
    <property name="shotcut:hash">2e9d7f60e504bd2f74f8eb8e81b76308</property>
  </chain>
  <chain id="chain106" out="00:00:02.080">
    <property name="length">00:00:02.120</property>
    <property name="eof">pause</property>
    <property name="resource">voice/053_雨晴はう（ノーマル）_用意するものはこの….wav</property>
    <property name="mlt_service">avformat-novalidate</property>
    <property name="meta.media.nb_streams">1</property>
    <property name="meta.media.0.stream.type">audio</property>
    <property name="meta.media.0.codec.sample_fmt">s16</property>
    <property name="meta.media.0.codec.sample_rate">24000</property>
    <property name="meta.media.0.codec.channels">1</property>
    <property name="meta.media.0.codec.name">pcm_s16le</property>
    <property name="meta.media.0.codec.long_name">PCM signed 16-bit little-endian</property>
    <property name="meta.media.0.codec.bit_rate">384000</property>
    <property name="seekable">1</property>
    <property name="audio_index">0</property>
    <property name="video_index">-1</property>
    <property name="creation_time">2023-12-11T05:02:37</property>
    <property name="astream">0</property>
    <property name="shotcut:skipConvert">1</property>
    <property name="xml">was here</property>
    <property name="shotcut:hash">92de0f3642ffd019926bfab45fa97465</property>
  </chain>
  <chain id="chain107" out="00:00:00.720">
    <property name="length">00:00:00.760</property>
    <property name="eof">pause</property>
    <property name="resource">voice/054_雨晴はう（ノーマル）_テスター.wav</property>
    <property name="mlt_service">avformat-novalidate</property>
    <property name="meta.media.nb_streams">1</property>
    <property name="meta.media.0.stream.type">audio</property>
    <property name="meta.media.0.codec.sample_fmt">s16</property>
    <property name="meta.media.0.codec.sample_rate">24000</property>
    <property name="meta.media.0.codec.channels">1</property>
    <property name="meta.media.0.codec.name">pcm_s16le</property>
    <property name="meta.media.0.codec.long_name">PCM signed 16-bit little-endian</property>
    <property name="meta.media.0.codec.bit_rate">384000</property>
    <property name="seekable">1</property>
    <property name="audio_index">0</property>
    <property name="video_index">-1</property>
    <property name="creation_time">2023-12-11T05:02:37</property>
    <property name="astream">0</property>
    <property name="shotcut:skipConvert">1</property>
    <property name="xml">was here</property>
    <property name="shotcut:hash">52cada10a339388da531b10f5bd3e5b0</property>
  </chain>
  <chain id="chain108" out="00:00:01.800">
    <property name="length">00:00:01.840</property>
    <property name="eof">pause</property>
    <property name="resource">voice/055_雨晴はう（ノーマル）_切り落とされたLA….wav</property>
    <property name="mlt_service">avformat-novalidate</property>
    <property name="meta.media.nb_streams">1</property>
    <property name="meta.media.0.stream.type">audio</property>
    <property name="meta.media.0.codec.sample_fmt">s16</property>
    <property name="meta.media.0.codec.sample_rate">24000</property>
    <property name="meta.media.0.codec.channels">1</property>
    <property name="meta.media.0.codec.name">pcm_s16le</property>
    <property name="meta.media.0.codec.long_name">PCM signed 16-bit little-endian</property>
    <property name="meta.media.0.codec.bit_rate">384000</property>
    <property name="seekable">1</property>
    <property name="audio_index">0</property>
    <property name="video_index">-1</property>
    <property name="creation_time">2023-12-11T05:02:37</property>
    <property name="astream">0</property>
    <property name="shotcut:skipConvert">1</property>
    <property name="xml">was here</property>
    <property name="shotcut:hash">cfc90225c92ed45fe609783c3fa3bf0e</property>
  </chain>
  <chain id="chain109" out="00:00:02.280">
    <property name="length">00:00:02.320</property>
    <property name="eof">pause</property>
    <property name="resource">voice/056_雨晴はう（ノーマル）_RJヨンゴーモジュ….wav</property>
    <property name="mlt_service">avformat-novalidate</property>
    <property name="meta.media.nb_streams">1</property>
    <property name="meta.media.0.stream.type">audio</property>
    <property name="meta.media.0.codec.sample_fmt">s16</property>
    <property name="meta.media.0.codec.sample_rate">24000</property>
    <property name="meta.media.0.codec.channels">1</property>
    <property name="meta.media.0.codec.name">pcm_s16le</property>
    <property name="meta.media.0.codec.long_name">PCM signed 16-bit little-endian</property>
    <property name="meta.media.0.codec.bit_rate">384000</property>
    <property name="seekable">1</property>
    <property name="audio_index">0</property>
    <property name="video_index">-1</property>
    <property name="creation_time">2023-12-11T05:02:37</property>
    <property name="astream">0</property>
    <property name="shotcut:skipConvert">1</property>
    <property name="xml">was here</property>
    <property name="shotcut:hash">ff2ebb89c3375144fed52ecf5b28a754</property>
  </chain>
  <chain id="chain110" out="00:00:01.440">
    <property name="length">00:00:01.480</property>
    <property name="eof">pause</property>
    <property name="resource">voice/057_雨晴はう（ノーマル）_ニッパーのようなもの.wav</property>
    <property name="mlt_service">avformat-novalidate</property>
    <property name="meta.media.nb_streams">1</property>
    <property name="meta.media.0.stream.type">audio</property>
    <property name="meta.media.0.codec.sample_fmt">s16</property>
    <property name="meta.media.0.codec.sample_rate">24000</property>
    <property name="meta.media.0.codec.channels">1</property>
    <property name="meta.media.0.codec.name">pcm_s16le</property>
    <property name="meta.media.0.codec.long_name">PCM signed 16-bit little-endian</property>
    <property name="meta.media.0.codec.bit_rate">384000</property>
    <property name="seekable">1</property>
    <property name="audio_index">0</property>
    <property name="video_index">-1</property>
    <property name="creation_time">2023-12-11T05:02:37</property>
    <property name="astream">0</property>
    <property name="shotcut:skipConvert">1</property>
    <property name="xml">was here</property>
    <property name="shotcut:hash">241d3333fb781d2f33cca3b6994cf818</property>
  </chain>
  <chain id="chain111" out="00:00:01.760">
    <property name="length">00:00:01.800</property>
    <property name="eof">pause</property>
    <property name="resource">voice/058_雨晴はう（ノーマル）_かしめ工具のような….wav</property>
    <property name="mlt_service">avformat-novalidate</property>
    <property name="meta.media.nb_streams">1</property>
    <property name="meta.media.0.stream.type">audio</property>
    <property name="meta.media.0.codec.sample_fmt">s16</property>
    <property name="meta.media.0.codec.sample_rate">24000</property>
    <property name="meta.media.0.codec.channels">1</property>
    <property name="meta.media.0.codec.name">pcm_s16le</property>
    <property name="meta.media.0.codec.long_name">PCM signed 16-bit little-endian</property>
    <property name="meta.media.0.codec.bit_rate">384000</property>
    <property name="seekable">1</property>
    <property name="audio_index">0</property>
    <property name="video_index">-1</property>
    <property name="creation_time">2023-12-11T05:02:37</property>
    <property name="astream">0</property>
    <property name="shotcut:skipConvert">1</property>
    <property name="xml">was here</property>
    <property name="shotcut:hash">49707b9960afbc23fd000796c89146b3</property>
  </chain>
  <chain id="chain112" out="00:00:00.760">
    <property name="length">00:00:00.800</property>
    <property name="eof">pause</property>
    <property name="resource">voice/059_雨晴はう（ノーマル）_だけです．.wav</property>
    <property name="mlt_service">avformat-novalidate</property>
    <property name="meta.media.nb_streams">1</property>
    <property name="meta.media.0.stream.type">audio</property>
    <property name="meta.media.0.codec.sample_fmt">s16</property>
    <property name="meta.media.0.codec.sample_rate">24000</property>
    <property name="meta.media.0.codec.channels">1</property>
    <property name="meta.media.0.codec.name">pcm_s16le</property>
    <property name="meta.media.0.codec.long_name">PCM signed 16-bit little-endian</property>
    <property name="meta.media.0.codec.bit_rate">384000</property>
    <property name="seekable">1</property>
    <property name="audio_index">0</property>
    <property name="video_index">-1</property>
    <property name="creation_time">2023-12-11T05:02:37</property>
    <property name="astream">0</property>
    <property name="shotcut:skipConvert">1</property>
    <property name="xml">was here</property>
    <property name="shotcut:hash">d8b730f9a7cb5e0a87a0137e74b18c16</property>
    <property name="ignore_points">0</property>
    <property name="shotcut:caption">059_雨晴はう（ノーマル）_だけです．.wav</property>
  </chain>
  <playlist id="playlist5">
    <property name="shotcut:audio">1</property>
    <property name="shotcut:name">Audio</property>
    <entry producer="chain20" in="00:00:00.000" out="00:00:04.480"/>
    <blank length="00:00:00.680"/>
    <entry producer="chain23" in="00:00:00.000" out="00:00:05.880"/>
    <blank length="00:00:00.640"/>
    <entry producer="chain29" in="00:00:00.000" out="00:00:10.200"/>
    <blank length="00:00:00.520"/>
    <entry producer="chain37" in="00:00:00.000" out="00:00:03.880"/>
    <blank length="00:00:00.520"/>
    <entry producer="chain41" in="00:00:00.000" out="00:00:04.000"/>
    <blank length="00:00:00.560"/>
    <entry producer="chain53" in="00:00:00.000" out="00:00:08.120"/>
    <blank length="00:00:00.680"/>
    <entry producer="chain57" in="00:00:00.000" out="00:00:06.800"/>
    <entry producer="chain59" in="00:00:06.840" out="00:00:07.680"/>
    <blank length="00:00:00.520"/>
    <entry producer="chain68" in="00:00:00.000" out="00:00:07.720"/>
    <blank length="00:00:00.480"/>
    <entry producer="chain69" in="00:00:00.000" out="00:00:09.000"/>
    <blank length="00:00:00.600"/>
    <entry producer="chain70" in="00:00:00.000" out="00:00:10.800"/>
    <blank length="00:00:00.520"/>
    <entry producer="chain71" in="00:00:00.000" out="00:00:03.400"/>
    <blank length="00:00:00.760"/>
    <entry producer="chain72" in="00:00:00.000" out="00:00:12.640"/>
    <blank length="00:00:01.000"/>
    <entry producer="chain73" in="00:00:00.000" out="00:00:03.960"/>
    <blank length="00:00:01.120"/>
    <entry producer="chain74" in="00:00:00.000" out="00:00:04.480"/>
    <entry producer="chain75" in="00:00:00.000" out="00:00:04.000"/>
    <entry producer="chain76" in="00:00:00.000" out="00:00:05.800"/>
    <blank length="00:00:01.040"/>
    <entry producer="chain77" in="00:00:00.000" out="00:00:11.880"/>
    <blank length="00:00:01.040"/>
    <entry producer="chain78" in="00:00:00.000" out="00:00:02.640"/>
    <entry producer="chain79" in="00:00:00.000" out="00:00:01.720"/>
    <blank length="00:00:01.120"/>
    <entry producer="chain80" in="00:00:00.000" out="00:00:06.280"/>
    <entry producer="chain81" in="00:00:00.000" out="00:00:12.760"/>
    <entry producer="chain82" in="00:00:00.000" out="00:00:05.840"/>
    <entry producer="chain83" in="00:00:00.000" out="00:00:03.760"/>
    <blank length="00:00:01.360"/>
    <entry producer="chain84" in="00:00:00.000" out="00:00:05.280"/>
    <blank length="00:00:01.520"/>
    <entry producer="chain85" in="00:00:00.000" out="00:00:06.640"/>
    <blank length="00:00:01.160"/>
    <entry producer="chain86" in="00:00:00.000" out="00:00:05.040"/>
    <entry producer="chain87" in="00:00:00.000" out="00:00:02.880"/>
    <blank length="00:00:01.080"/>
    <entry producer="chain88" in="00:00:00.000" out="00:00:07.880"/>
    <blank length="00:00:22.720"/>
    <entry producer="chain89" in="00:00:00.000" out="00:00:00.520"/>
    <blank length="00:00:16.080"/>
    <entry producer="chain90" in="00:00:00.000" out="00:00:06.640"/>
    <blank length="00:00:01.000"/>
    <entry producer="chain91" in="00:00:00.000" out="00:00:03.480"/>
    <entry producer="chain92" in="00:00:03.520" out="00:00:06.280"/>
    <entry producer="chain93" in="00:00:00.000" out="00:00:02.360"/>
    <entry producer="chain94" in="00:00:00.000" out="00:00:05.920"/>
    <entry producer="chain95" in="00:00:00.000" out="00:00:08.720"/>
    <entry producer="chain96" in="00:00:00.000" out="00:00:10.120"/>
    <entry producer="chain97" in="00:00:00.000" out="00:00:07.200"/>
    <entry producer="chain98" in="00:00:00.000" out="00:00:07.720"/>
    <entry producer="chain99" in="00:00:00.000" out="00:00:04.880"/>
    <entry producer="chain100" in="00:00:00.000" out="00:00:03.400"/>
    <entry producer="chain101" in="00:00:00.000" out="00:00:08.360"/>
    <entry producer="chain102" in="00:00:00.000" out="00:00:04.560"/>
    <entry producer="chain103" in="00:00:00.000" out="00:00:05.800"/>
    <entry producer="chain104" in="00:00:00.000" out="00:00:05.080"/>
    <entry producer="chain105" in="00:00:00.000" out="00:00:01.840"/>
    <entry producer="chain106" in="00:00:00.000" out="00:00:02.080"/>
    <entry producer="chain107" in="00:00:00.000" out="00:00:00.720"/>
    <entry producer="chain108" in="00:00:00.000" out="00:00:01.800"/>
    <entry producer="chain109" in="00:00:00.000" out="00:00:02.280"/>
    <entry producer="chain110" in="00:00:00.000" out="00:00:01.440"/>
    <entry producer="chain111" in="00:00:00.000" out="00:00:01.760"/>
    <entry producer="chain112" in="00:00:00.000" out="00:00:00.760"/>
  </playlist>
  <tractor id="tractor3" title="Shotcut version 23.11.29" in="00:00:00.000" out="00:10:24.440">
    <property name="shotcut">1</property>
    <property name="shotcut:projectAudioChannels">2</property>
    <property name="shotcut:projectFolder">1</property>
    <property name="shotcut:skipConvert">0</property>
    <property name="shotcut:scaleFactor">0.566426</property>
    <track producer="background"/>
    <track producer="playlist1"/>
    <track producer="playlist0"/>
    <track producer="playlist3" hide="audio"/>
    <track producer="playlist2"/>
    <track producer="playlist4"/>
    <track producer="playlist5" hide="video"/>
    <transition id="transition6">
      <property name="a_track">0</property>
      <property name="b_track">1</property>
      <property name="mlt_service">mix</property>
      <property name="always_active">1</property>
      <property name="sum">1</property>
    </transition>
    <transition id="transition7">
      <property name="a_track">0</property>
      <property name="b_track">1</property>
      <property name="version">0.1</property>
      <property name="mlt_service">frei0r.cairoblend</property>
      <property name="1">normal</property>
      <property name="disable">1</property>
    </transition>
    <transition id="transition8">
      <property name="a_track">0</property>
      <property name="b_track">2</property>
      <property name="mlt_service">mix</property>
      <property name="always_active">1</property>
      <property name="sum">1</property>
    </transition>
    <transition id="transition9">
      <property name="a_track">1</property>
      <property name="b_track">2</property>
      <property name="version">0.1</property>
      <property name="mlt_service">frei0r.cairoblend</property>
      <property name="1">normal</property>
      <property name="disable">0</property>
    </transition>
    <transition id="transition10">
      <property name="a_track">0</property>
      <property name="b_track">3</property>
      <property name="mlt_service">mix</property>
      <property name="always_active">1</property>
      <property name="sum">1</property>
    </transition>
    <transition id="transition11">
      <property name="a_track">1</property>
      <property name="b_track">3</property>
      <property name="version">0.1</property>
      <property name="mlt_service">frei0r.cairoblend</property>
      <property name="1">normal</property>
      <property name="disable">0</property>
    </transition>
    <transition id="transition12">
      <property name="a_track">0</property>
      <property name="b_track">4</property>
      <property name="mlt_service">mix</property>
      <property name="always_active">1</property>
      <property name="sum">1</property>
    </transition>
    <transition id="transition13">
      <property name="a_track">1</property>
      <property name="b_track">4</property>
      <property name="version">0.1</property>
      <property name="mlt_service">frei0r.cairoblend</property>
      <property name="1">normal</property>
      <property name="disable">0</property>
    </transition>
    <transition id="transition14">
      <property name="a_track">0</property>
      <property name="b_track">5</property>
      <property name="mlt_service">mix</property>
      <property name="always_active">1</property>
      <property name="sum">1</property>
    </transition>
    <transition id="transition15">
      <property name="a_track">1</property>
      <property name="b_track">5</property>
      <property name="version">0.1</property>
      <property name="mlt_service">frei0r.cairoblend</property>
      <property name="1">normal</property>
      <property name="disable">0</property>
    </transition>
    <transition id="transition16">
      <property name="a_track">0</property>
      <property name="b_track">6</property>
      <property name="mlt_service">mix</property>
      <property name="always_active">1</property>
      <property name="sum">1</property>
    </transition>
  </tractor>
</mlt>
