<?xml version="1.0" standalone="no"?>
<mlt LC_NUMERIC="C" version="7.22.0" title="Shotcut version 23.11.29" producer="main_bin">
  <profile description="PAL 4:3 DV or DVD" width="1920" height="1080" progressive="1" sample_aspect_num="1" sample_aspect_den="1" display_aspect_num="16" display_aspect_den="9" frame_rate_num="25" frame_rate_den="1" colorspace="709"/>
  <producer id="producer0" in="00:00:00.000" out="03:59:59.960">
    <property name="length">04:00:00.000</property>
    <property name="eof">pause</property>
    <property name="resource">images/irasutoya-lan.png</property>
    <property name="ttl">1</property>
    <property name="aspect_ratio">1</property>
    <property name="meta.media.progressive">1</property>
    <property name="seekable">1</property>
    <property name="format">2</property>
    <property name="meta.media.width">400</property>
    <property name="meta.media.height">400</property>
    <property name="mlt_service">qimage</property>
    <property name="creation_time">2023-12-17T23:52:51</property>
    <property name="shotcut:skipConvert">0</property>
    <property name="shotcut:caption">irasutoya-lan.png</property>
    <property name="shotcut:hash">3dd2c5ca6b6c0eb1f5784efca226632e</property>
    <property name="ignore_points">0</property>
    <property name="xml">was here</property>
  </producer>
  <producer id="producer1" in="00:00:00.000" out="03:59:59.960">
    <property name="length">04:00:00.000</property>
    <property name="eof">pause</property>
    <property name="resource">images/hato.png</property>
    <property name="ttl">1</property>
    <property name="aspect_ratio">1</property>
    <property name="meta.media.progressive">1</property>
    <property name="seekable">1</property>
    <property name="format">2</property>
    <property name="meta.media.width">586</property>
    <property name="meta.media.height">668</property>
    <property name="mlt_service">qimage</property>
    <property name="creation_time">2023-12-17T23:56:06</property>
    <property name="shotcut:skipConvert">0</property>
    <property name="shotcut:caption">hato.png</property>
    <property name="shotcut:hash">f513bdc76e19d124877708cccf68b1e7</property>
    <property name="ignore_points">0</property>
    <property name="xml">was here</property>
  </producer>
  <producer id="producer2" in="00:00:00.000" out="03:59:59.960">
    <property name="length">04:00:00.000</property>
    <property name="eof">pause</property>
    <property name="resource">images/irasutoya-sorry.png</property>
    <property name="ttl">1</property>
    <property name="aspect_ratio">1</property>
    <property name="meta.media.progressive">1</property>
    <property name="seekable">1</property>
    <property name="format">2</property>
    <property name="meta.media.width">180</property>
    <property name="meta.media.height">180</property>
    <property name="mlt_service">qimage</property>
    <property name="creation_time">2023-12-17T23:57:14</property>
    <property name="shotcut:skipConvert">0</property>
    <property name="shotcut:caption">irasutoya-sorry.png</property>
    <property name="shotcut:hash">e9f6e65b279a6bb70a4d9cfc74c69837</property>
    <property name="ignore_points">0</property>
    <property name="xml">was here</property>
  </producer>
  <producer id="producer3" in="00:00:00.000" out="03:59:59.960">
    <property name="length">04:00:00.000</property>
    <property name="eof">pause</property>
    <property name="resource">images/ameharehau.png</property>
    <property name="ttl">1</property>
    <property name="aspect_ratio">1</property>
    <property name="meta.media.progressive">1</property>
    <property name="seekable">1</property>
    <property name="format">2</property>
    <property name="meta.media.width">1280</property>
    <property name="meta.media.height">1280</property>
    <property name="mlt_service">qimage</property>
    <property name="creation_time">2023-12-17T23:57:54</property>
    <property name="shotcut:skipConvert">0</property>
    <property name="shotcut:caption">ameharehau.png</property>
    <property name="shotcut:hash">5a31e6c5d8da97395bbb7bfe034bfcf0</property>
    <property name="ignore_points">0</property>
    <property name="xml">was here</property>
  </producer>
  <chain id="chain0" in="00:00:18.240" out="00:00:41.400">
    <property name="length">00:00:59.800</property>
    <property name="eof">pause</property>
    <property name="resource">video/maron-nunupy.mp4</property>
    <property name="mlt_service">avformat-novalidate</property>
    <property name="meta.media.nb_streams">2</property>
    <property name="meta.media.0.stream.type">audio</property>
    <property name="meta.media.0.codec.sample_fmt">fltp</property>
    <property name="meta.media.0.codec.sample_rate">48000</property>
    <property name="meta.media.0.codec.channels">2</property>
    <property name="meta.media.0.codec.name">ac3</property>
    <property name="meta.media.0.codec.long_name">ATSC A/52A (AC-3)</property>
    <property name="meta.media.0.codec.bit_rate">512000</property>
    <property name="meta.attr.0.stream.creation_time.markup">2023-12-01T07:27:15.000000Z</property>
    <property name="meta.attr.0.stream.language.markup">eng</property>
    <property name="meta.attr.0.stream.handler_name.markup">SoundHandle</property>
    <property name="meta.attr.0.stream.vendor_id.markup">[0][0][0][0]</property>
    <property name="meta.media.1.stream.type">video</property>
    <property name="meta.media.1.stream.frame_rate">30</property>
    <property name="meta.media.1.stream.sample_aspect_ratio">0</property>
    <property name="meta.media.1.codec.width">1280</property>
    <property name="meta.media.1.codec.height">720</property>
    <property name="meta.media.1.codec.rotate">0</property>
    <property name="meta.media.1.codec.pix_fmt">yuv420p</property>
    <property name="meta.media.1.codec.sample_aspect_ratio">0</property>
    <property name="meta.media.1.codec.colorspace">709</property>
    <property name="meta.media.1.codec.color_trc">1</property>
    <property name="meta.media.1.codec.name">h264</property>
    <property name="meta.media.1.codec.long_name">H.264 / AVC / MPEG-4 AVC / MPEG-4 part 10</property>
    <property name="meta.media.1.codec.bit_rate">17424979</property>
    <property name="meta.attr.1.stream.creation_time.markup">2023-12-01T07:27:15.000000Z</property>
    <property name="meta.attr.1.stream.language.markup">eng</property>
    <property name="meta.attr.1.stream.handler_name.markup">VideoHandle</property>
    <property name="meta.attr.1.stream.vendor_id.markup">[0][0][0][0]</property>
    <property name="meta.attr.1.stream.encoder.markup">Lavc60.3.100 libx264</property>
    <property name="meta.attr.major_brand.markup">isom</property>
    <property name="meta.attr.minor_version.markup">512</property>
    <property name="meta.attr.compatible_brands.markup">isomdby1iso2avc1mp41</property>
    <property name="meta.attr.creation_time.markup">2023-12-01T07:27:15.000000Z</property>
    <property name="meta.attr.encoder.markup">Lavf60.3.100</property>
    <property name="seekable">1</property>
    <property name="meta.media.sample_aspect_num">1</property>
    <property name="meta.media.sample_aspect_den">1</property>
    <property name="audio_index">0</property>
    <property name="video_index">1</property>
    <property name="creation_time">2023-12-01T07:27:15</property>
    <property name="vstream">0</property>
    <property name="meta.media.frame_rate_num">30</property>
    <property name="meta.media.frame_rate_den">1</property>
    <property name="meta.media.colorspace">709</property>
    <property name="meta.media.color_trc">1</property>
    <property name="meta.media.has_b_frames">0</property>
    <property name="meta.media.width">1280</property>
    <property name="meta.media.height">720</property>
    <property name="meta.media.color_range">mpeg</property>
    <property name="astream">0</property>
    <property name="shotcut:hash">ab7652cc5bc5bb25d3b7697874af2d77</property>
    <property name="shotcut:caption">maron-nunupy.mp4</property>
    <property name="xml">was here</property>
    <property name="meta.media.top_field_first">0</property>
    <property name="meta.media.progressive">1</property>
    <property name="ignore_points">1</property>
    <property name="meta.shotcut.vui">1</property>
    <filter id="filter0" in="00:00:18.240" out="00:00:41.400">
      <property name="argument">マロンとぬぬーぴー</property>
      <property name="geometry">-6 882 1181 186 1</property>
      <property name="family">Sans</property>
      <property name="size">1080</property>
      <property name="weight">400</property>
      <property name="style">normal</property>
      <property name="fgcolour">#ffffffff</property>
      <property name="bgcolour">#00000000</property>
      <property name="olcolour">#aa000000</property>
      <property name="pad">0</property>
      <property name="halign">center</property>
      <property name="valign">bottom</property>
      <property name="outline">3</property>
      <property name="opacity">0.23</property>
      <property name="mlt_service">dynamictext</property>
      <property name="shotcut:filter">dynamicText</property>
      <property name="shotcut:usePointSize">0</property>
      <property name="shotcut:animIn">00:00:00.000</property>
      <property name="shotcut:animOut">00:00:00.000</property>
    </filter>
  </chain>
  <chain id="chain1" out="00:52:52.840">
    <property name="length">00:52:52.880</property>
    <property name="eof">pause</property>
    <property name="resource">/Users/mattsunkun/video/obs/jack-fes-2023/gazou.mp4</property>
    <property name="mlt_service">avformat-novalidate</property>
    <property name="meta.media.nb_streams">2</property>
    <property name="meta.media.0.stream.type">video</property>
    <property name="meta.media.0.stream.frame_rate">10</property>
    <property name="meta.media.0.stream.sample_aspect_ratio">1</property>
    <property name="meta.media.0.codec.width">640</property>
    <property name="meta.media.0.codec.height">480</property>
    <property name="meta.media.0.codec.rotate">0</property>
    <property name="meta.media.0.codec.pix_fmt">yuv420p</property>
    <property name="meta.media.0.codec.sample_aspect_ratio">1</property>
    <property name="meta.media.0.codec.colorspace">601</property>
    <property name="meta.media.0.codec.name">h264</property>
    <property name="meta.media.0.codec.long_name">H.264 / AVC / MPEG-4 AVC / MPEG-4 part 10</property>
    <property name="meta.media.0.codec.bit_rate">29152</property>
    <property name="meta.attr.0.stream.handler_name.markup">VideoHandler</property>
    <property name="meta.attr.0.stream.vendor_id.markup">[0][0][0][0]</property>
    <property name="meta.media.1.stream.type">audio</property>
    <property name="meta.media.1.codec.sample_fmt">fltp</property>
    <property name="meta.media.1.codec.sample_rate">11025</property>
    <property name="meta.media.1.codec.channels">1</property>
    <property name="meta.media.1.codec.name">aac</property>
    <property name="meta.media.1.codec.long_name">AAC (Advanced Audio Coding)</property>
    <property name="meta.media.1.codec.bit_rate">48228</property>
    <property name="meta.attr.1.stream.handler_name.markup">SoundHandler</property>
    <property name="meta.attr.1.stream.vendor_id.markup">[0][0][0][0]</property>
    <property name="meta.attr.major_brand.markup">isom</property>
    <property name="meta.attr.minor_version.markup">512</property>
    <property name="meta.attr.compatible_brands.markup">isomiso2avc1mp41</property>
    <property name="meta.attr.encoder.markup">Lavf59.20.101</property>
    <property name="seekable">1</property>
    <property name="meta.media.sample_aspect_num">1</property>
    <property name="meta.media.sample_aspect_den">1</property>
    <property name="audio_index">1</property>
    <property name="video_index">0</property>
    <property name="creation_time">2023-12-01T06:14:39</property>
    <property name="vstream">0</property>
    <property name="meta.media.frame_rate_num">10</property>
    <property name="meta.media.frame_rate_den">1</property>
    <property name="meta.media.colorspace">601</property>
    <property name="meta.media.color_trc">2</property>
    <property name="meta.media.has_b_frames">2</property>
    <property name="meta.media.width">640</property>
    <property name="meta.media.height">480</property>
    <property name="meta.media.color_range">mpeg</property>
    <property name="astream">0</property>
    <property name="shotcut:skipConvert">0</property>
    <property name="meta.media.top_field_first">0</property>
    <property name="meta.media.progressive">1</property>
    <property name="shotcut:hash">4a7a378e809863b33e8aa337ed4fd789</property>
    <property name="ignore_points">0</property>
    <property name="shotcut:caption">gazou.mp4</property>
    <property name="xml">was here</property>
  </chain>
  <producer id="producer4" in="00:00:00.000" out="03:59:59.960">
    <property name="length">04:00:00.000</property>
    <property name="eof">pause</property>
    <property name="resource">back/3_sep_b.png</property>
    <property name="ttl">1</property>
    <property name="aspect_ratio">1</property>
    <property name="meta.media.progressive">1</property>
    <property name="seekable">1</property>
    <property name="format">2</property>
    <property name="meta.media.width">1184</property>
    <property name="meta.media.height">664</property>
    <property name="mlt_service">qimage</property>
    <property name="text">INVALID</property>
    <property name="fgcolour">0xffffffff</property>
    <property name="bgcolour">0x00000000</property>
    <property name="olcolour">0x00000000</property>
    <property name="outline">0</property>
    <property name="align">left</property>
    <property name="pad">0</property>
    <property name="family">Sans</property>
    <property name="size">48</property>
    <property name="style">normal</property>
    <property name="weight">400</property>
    <property name="encoding">UTF-8</property>
    <property name="creation_time">2023-12-08T07:18:09</property>
    <property name="shotcut:skipConvert">0</property>
    <property name="shotcut:caption">3_sep_b.png</property>
    <property name="shotcut:hash">7cd4966b9d14bb7004f1bf1635ef5133</property>
    <property name="ignore_points">0</property>
    <property name="xml">was here</property>
  </producer>
  <producer id="producer5" in="00:00:00.000" out="03:59:59.960">
    <property name="length">04:00:00.000</property>
    <property name="eof">pause</property>
    <property name="resource">back/3_sep_b.png</property>
    <property name="ttl">1</property>
    <property name="aspect_ratio">1</property>
    <property name="meta.media.progressive">1</property>
    <property name="seekable">1</property>
    <property name="format">2</property>
    <property name="meta.media.width">1184</property>
    <property name="meta.media.height">664</property>
    <property name="mlt_service">qimage</property>
    <property name="creation_time">2023-12-08T08:23:48</property>
    <property name="shotcut:skipConvert">0</property>
    <property name="shotcut:caption">3_sep_b.png</property>
    <property name="shotcut:hash">7cd4966b9d14bb7004f1bf1635ef5133</property>
    <property name="ignore_points">0</property>
    <property name="xml">was here</property>
  </producer>
  <producer id="producer6" in="00:00:00.000" out="03:59:59.960">
    <property name="length">04:00:00.000</property>
    <property name="eof">pause</property>
    <property name="resource">back/jackkun.png</property>
    <property name="ttl">1</property>
    <property name="aspect_ratio">1</property>
    <property name="meta.media.progressive">1</property>
    <property name="seekable">1</property>
    <property name="format">2</property>
    <property name="meta.media.width">438</property>
    <property name="meta.media.height">436</property>
    <property name="mlt_service">qimage</property>
    <property name="creation_time">2023-12-08T08:56:45</property>
    <property name="shotcut:skipConvert">0</property>
    <property name="shotcut:caption">jackkun.png</property>
    <property name="shotcut:hash">3eac5fb30aaaca6b44c5b134706e7db6</property>
    <property name="ignore_points">0</property>
    <property name="xml">was here</property>
  </producer>
  <chain id="chain3" out="00:00:23.760">
    <property name="length">00:00:23.800</property>
    <property name="eof">pause</property>
    <property name="resource">video/any.mp4</property>
    <property name="mlt_service">avformat-novalidate</property>
    <property name="meta.media.nb_streams">3</property>
    <property name="meta.media.1.stream.type">audio</property>
    <property name="meta.media.1.codec.sample_fmt">fltp</property>
    <property name="meta.media.1.codec.sample_rate">48000</property>
    <property name="meta.media.1.codec.channels">2</property>
    <property name="meta.media.1.codec.name">aac</property>
    <property name="meta.media.1.codec.long_name">AAC (Advanced Audio Coding)</property>
    <property name="meta.media.1.codec.bit_rate">191937</property>
    <property name="meta.attr.1.stream.creation_time.markup">2023-12-10T05:20:28.000000Z</property>
    <property name="meta.attr.1.stream.language.markup">eng</property>
    <property name="meta.attr.1.stream.handler_name.markup">SoundHandle</property>
    <property name="meta.attr.1.stream.vendor_id.markup">[0][0][0][0]</property>
    <property name="meta.media.2.stream.type">video</property>
    <property name="meta.media.2.stream.frame_rate">29.9412</property>
    <property name="meta.media.2.stream.sample_aspect_ratio">0</property>
    <property name="meta.media.2.codec.width">1280</property>
    <property name="meta.media.2.codec.height">720</property>
    <property name="meta.media.2.codec.rotate">0</property>
    <property name="meta.media.2.codec.pix_fmt">yuv420p</property>
    <property name="meta.media.2.codec.sample_aspect_ratio">0</property>
    <property name="meta.media.2.codec.colorspace">709</property>
    <property name="meta.media.2.codec.color_trc">1</property>
    <property name="meta.media.2.codec.name">h264</property>
    <property name="meta.media.2.codec.long_name">H.264 / AVC / MPEG-4 AVC / MPEG-4 part 10</property>
    <property name="meta.media.2.codec.bit_rate">3477734</property>
    <property name="meta.attr.2.stream.creation_time.markup">2023-12-10T05:20:28.000000Z</property>
    <property name="meta.attr.2.stream.language.markup">eng</property>
    <property name="meta.attr.2.stream.handler_name.markup">VideoHandle</property>
    <property name="meta.attr.2.stream.vendor_id.markup">[0][0][0][0]</property>
    <property name="meta.attr.major_brand.markup">mp42</property>
    <property name="meta.attr.minor_version.markup">0</property>
    <property name="meta.attr.compatible_brands.markup">isommp42</property>
    <property name="meta.attr.creation_time.markup">2023-12-10T05:20:28.000000Z</property>
    <property name="meta.attr.com.android.version.markup">12</property>
    <property name="seekable">1</property>
    <property name="meta.media.sample_aspect_num">1</property>
    <property name="meta.media.sample_aspect_den">1</property>
    <property name="audio_index">1</property>
    <property name="video_index">2</property>
    <property name="creation_time">2023-12-10T05:20:28</property>
    <property name="vstream">0</property>
    <property name="meta.media.frame_rate_num">32085000</property>
    <property name="meta.media.frame_rate_den">1071599</property>
    <property name="meta.media.colorspace">709</property>
    <property name="meta.media.color_trc">1</property>
    <property name="meta.media.has_b_frames">0</property>
    <property name="meta.media.width">1280</property>
    <property name="meta.media.height">720</property>
    <property name="meta.media.color_range">mpeg</property>
    <property name="astream">0</property>
    <property name="shotcut:skipConvert">1</property>
    <property name="xml">was here</property>
    <property name="shotcut:hash">f4d230c36689c2a6f1b2bd7a1313b434</property>
  </chain>
  <chain id="chain4" out="00:10:50.560">
    <property name="length">00:10:50.600</property>
    <property name="eof">pause</property>
    <property name="resource">video/intro_fail.mp4</property>
    <property name="mlt_service">avformat-novalidate</property>
    <property name="meta.media.nb_streams">2</property>
    <property name="meta.media.0.stream.type">video</property>
    <property name="meta.media.0.stream.frame_rate">29.915</property>
    <property name="meta.media.0.stream.sample_aspect_ratio">0</property>
    <property name="meta.media.0.codec.width">1920</property>
    <property name="meta.media.0.codec.height">1080</property>
    <property name="meta.media.0.codec.rotate">0</property>
    <property name="meta.media.0.codec.pix_fmt">yuv420p</property>
    <property name="meta.media.0.codec.sample_aspect_ratio">1</property>
    <property name="meta.media.0.codec.colorspace">709</property>
    <property name="meta.media.0.codec.color_trc">1</property>
    <property name="meta.media.0.codec.name">h264</property>
    <property name="meta.media.0.codec.long_name">H.264 / AVC / MPEG-4 AVC / MPEG-4 part 10</property>
    <property name="meta.media.0.codec.bit_rate">1219433</property>
    <property name="meta.attr.0.stream.handler_name.markup">ISO Media file produced by Google Inc.</property>
    <property name="meta.attr.0.stream.vendor_id.markup">[0][0][0][0]</property>
    <property name="meta.media.1.stream.type">audio</property>
    <property name="meta.media.1.codec.sample_fmt">fltp</property>
    <property name="meta.media.1.codec.sample_rate">44100</property>
    <property name="meta.media.1.codec.channels">2</property>
    <property name="meta.media.1.codec.name">aac</property>
    <property name="meta.media.1.codec.long_name">AAC (Advanced Audio Coding)</property>
    <property name="meta.media.1.codec.bit_rate">127999</property>
    <property name="meta.attr.1.stream.language.markup">eng</property>
    <property name="meta.attr.1.stream.handler_name.markup">ISO Media file produced by Google Inc.</property>
    <property name="meta.attr.1.stream.vendor_id.markup">[0][0][0][0]</property>
    <property name="meta.attr.major_brand.markup">mp42</property>
    <property name="meta.attr.minor_version.markup">0</property>
    <property name="meta.attr.compatible_brands.markup">isommp42</property>
    <property name="meta.attr.creation_time.markup">2023-12-09T06:00:24.000000Z</property>
    <property name="meta.attr.location.markup">+35.0104+136.8850/</property>
    <property name="seekable">1</property>
    <property name="meta.media.sample_aspect_num">1</property>
    <property name="meta.media.sample_aspect_den">1</property>
    <property name="audio_index">1</property>
    <property name="video_index">0</property>
    <property name="creation_time">2023-12-09T06:00:24</property>
    <property name="vstream">0</property>
    <property name="meta.media.frame_rate_num">5983</property>
    <property name="meta.media.frame_rate_den">200</property>
    <property name="meta.media.colorspace">709</property>
    <property name="meta.media.color_trc">1</property>
    <property name="meta.media.has_b_frames">0</property>
    <property name="meta.media.width">1920</property>
    <property name="meta.media.height">1080</property>
    <property name="meta.media.color_range">mpeg</property>
    <property name="astream">0</property>
    <property name="shotcut:skipConvert">1</property>
    <property name="xml">was here</property>
    <property name="shotcut:hash">9f0cf3292dedd1d578fbe46a591968c8</property>
  </chain>
  <chain id="chain5" out="00:00:10.400">
    <property name="length">00:00:10.440</property>
    <property name="eof">pause</property>
    <property name="resource">video/null.mp4</property>
    <property name="mlt_service">avformat-novalidate</property>
    <property name="meta.media.nb_streams">3</property>
    <property name="meta.media.1.stream.type">audio</property>
    <property name="meta.media.1.codec.sample_fmt">fltp</property>
    <property name="meta.media.1.codec.sample_rate">48000</property>
    <property name="meta.media.1.codec.channels">2</property>
    <property name="meta.media.1.codec.name">aac</property>
    <property name="meta.media.1.codec.long_name">AAC (Advanced Audio Coding)</property>
    <property name="meta.media.1.codec.bit_rate">191349</property>
    <property name="meta.attr.1.stream.creation_time.markup">2023-12-10T05:20:28.000000Z</property>
    <property name="meta.attr.1.stream.language.markup">eng</property>
    <property name="meta.attr.1.stream.handler_name.markup">SoundHandle</property>
    <property name="meta.attr.1.stream.vendor_id.markup">[0][0][0][0]</property>
    <property name="meta.media.2.stream.type">video</property>
    <property name="meta.media.2.stream.frame_rate">29.9595</property>
    <property name="meta.media.2.stream.sample_aspect_ratio">0</property>
    <property name="meta.media.2.codec.width">1280</property>
    <property name="meta.media.2.codec.height">720</property>
    <property name="meta.media.2.codec.rotate">0</property>
    <property name="meta.media.2.codec.pix_fmt">yuv420p</property>
    <property name="meta.media.2.codec.sample_aspect_ratio">0</property>
    <property name="meta.media.2.codec.colorspace">709</property>
    <property name="meta.media.2.codec.color_trc">1</property>
    <property name="meta.media.2.codec.name">h264</property>
    <property name="meta.media.2.codec.long_name">H.264 / AVC / MPEG-4 AVC / MPEG-4 part 10</property>
    <property name="meta.media.2.codec.bit_rate">3489720</property>
    <property name="meta.attr.2.stream.creation_time.markup">2023-12-10T05:20:28.000000Z</property>
    <property name="meta.attr.2.stream.language.markup">eng</property>
    <property name="meta.attr.2.stream.handler_name.markup">VideoHandle</property>
    <property name="meta.attr.2.stream.vendor_id.markup">[0][0][0][0]</property>
    <property name="meta.attr.major_brand.markup">mp42</property>
    <property name="meta.attr.minor_version.markup">0</property>
    <property name="meta.attr.compatible_brands.markup">isommp42</property>
    <property name="meta.attr.creation_time.markup">2023-12-10T05:20:28.000000Z</property>
    <property name="meta.attr.com.android.version.markup">12</property>
    <property name="seekable">1</property>
    <property name="meta.media.sample_aspect_num">1</property>
    <property name="meta.media.sample_aspect_den">1</property>
    <property name="audio_index">1</property>
    <property name="video_index">2</property>
    <property name="creation_time">2023-12-10T05:20:28</property>
    <property name="vstream">0</property>
    <property name="meta.media.frame_rate_num">9390000</property>
    <property name="meta.media.frame_rate_den">313423</property>
    <property name="meta.media.colorspace">709</property>
    <property name="meta.media.color_trc">1</property>
    <property name="meta.media.has_b_frames">0</property>
    <property name="meta.media.width">1280</property>
    <property name="meta.media.height">720</property>
    <property name="meta.media.color_range">mpeg</property>
    <property name="astream">0</property>
    <property name="shotcut:skipConvert">1</property>
    <property name="xml">was here</property>
    <property name="shotcut:hash">b8b700db4bdacc2305e5f358636f2a8f</property>
  </chain>
  <chain id="chain6" out="00:10:10.560">
    <property name="length">00:10:10.600</property>
    <property name="eof">pause</property>
    <property name="resource">video/success.mp4</property>
    <property name="mlt_service">avformat-novalidate</property>
    <property name="meta.media.nb_streams">3</property>
    <property name="meta.media.1.stream.type">audio</property>
    <property name="meta.media.1.codec.sample_fmt">fltp</property>
    <property name="meta.media.1.codec.sample_rate">48000</property>
    <property name="meta.media.1.codec.channels">2</property>
    <property name="meta.media.1.codec.name">aac</property>
    <property name="meta.media.1.codec.long_name">AAC (Advanced Audio Coding)</property>
    <property name="meta.media.1.codec.bit_rate">191995</property>
    <property name="meta.attr.1.stream.creation_time.markup">2023-12-09T06:12:13.000000Z</property>
    <property name="meta.attr.1.stream.language.markup">eng</property>
    <property name="meta.attr.1.stream.handler_name.markup">SoundHandle</property>
    <property name="meta.attr.1.stream.vendor_id.markup">[0][0][0][0]</property>
    <property name="meta.media.2.stream.type">video</property>
    <property name="meta.media.2.stream.frame_rate">29.9183</property>
    <property name="meta.media.2.stream.sample_aspect_ratio">1</property>
    <property name="meta.media.2.codec.width">1920</property>
    <property name="meta.media.2.codec.height">1080</property>
    <property name="meta.media.2.codec.rotate">0</property>
    <property name="meta.media.2.codec.pix_fmt">yuvj420p</property>
    <property name="meta.media.2.codec.sample_aspect_ratio">0</property>
    <property name="meta.media.2.codec.colorspace">709</property>
    <property name="meta.media.2.codec.color_trc">1</property>
    <property name="meta.media.2.codec.name">hevc</property>
    <property name="meta.media.2.codec.long_name">HEVC (High Efficiency Video Coding)</property>
    <property name="meta.media.2.codec.bit_rate">19575789</property>
    <property name="meta.attr.2.stream.creation_time.markup">2023-12-09T06:12:13.000000Z</property>
    <property name="meta.attr.2.stream.language.markup">eng</property>
    <property name="meta.attr.2.stream.handler_name.markup">VideoHandle</property>
    <property name="meta.attr.2.stream.vendor_id.markup">[0][0][0][0]</property>
    <property name="meta.attr.major_brand.markup">isom</property>
    <property name="meta.attr.minor_version.markup">131072</property>
    <property name="meta.attr.compatible_brands.markup">isomiso2mp41</property>
    <property name="meta.attr.creation_time.markup">2023-12-09T06:12:13.000000Z</property>
    <property name="meta.attr.location.markup">+35.0104+136.8850/</property>
    <property name="meta.attr.location-eng.markup">+35.0104+136.8850/</property>
    <property name="meta.attr.com.android.capture.fps.markup">30.000000</property>
    <property name="seekable">1</property>
    <property name="meta.media.sample_aspect_num">1</property>
    <property name="meta.media.sample_aspect_den">1</property>
    <property name="audio_index">1</property>
    <property name="video_index">2</property>
    <property name="creation_time">2023-12-09T06:12:13</property>
    <property name="vstream">0</property>
    <property name="meta.media.frame_rate_num">411030000</property>
    <property name="meta.media.frame_rate_den">13738417</property>
    <property name="meta.media.colorspace">709</property>
    <property name="meta.media.color_trc">1</property>
    <property name="meta.media.has_b_frames">0</property>
    <property name="meta.media.width">1920</property>
    <property name="meta.media.height">1080</property>
    <property name="meta.media.color_range">full</property>
    <property name="astream">0</property>
    <property name="shotcut:skipConvert">1</property>
    <property name="xml">was here</property>
    <property name="shotcut:hash">64749e65b66254bc204ea7b589f018e0</property>
  </chain>
  <chain id="chain7" out="00:00:23.760">
    <property name="length">00:00:23.800</property>
    <property name="eof">pause</property>
    <property name="resource">video/any - 変換済み1.mp4</property>
    <property name="mlt_service">avformat-novalidate</property>
    <property name="meta.media.nb_streams">2</property>
    <property name="meta.media.0.stream.type">audio</property>
    <property name="meta.media.0.codec.sample_fmt">fltp</property>
    <property name="meta.media.0.codec.sample_rate">48000</property>
    <property name="meta.media.0.codec.channels">2</property>
    <property name="meta.media.0.codec.name">ac3</property>
    <property name="meta.media.0.codec.long_name">ATSC A/52A (AC-3)</property>
    <property name="meta.media.0.codec.bit_rate">512000</property>
    <property name="meta.attr.0.stream.creation_time.markup">2023-12-10T05:20:28.000000Z</property>
    <property name="meta.attr.0.stream.language.markup">eng</property>
    <property name="meta.attr.0.stream.handler_name.markup">SoundHandle</property>
    <property name="meta.attr.0.stream.vendor_id.markup">[0][0][0][0]</property>
    <property name="meta.media.1.stream.type">video</property>
    <property name="meta.media.1.stream.frame_rate">30</property>
    <property name="meta.media.1.stream.sample_aspect_ratio">0</property>
    <property name="meta.media.1.codec.width">1280</property>
    <property name="meta.media.1.codec.height">720</property>
    <property name="meta.media.1.codec.rotate">0</property>
    <property name="meta.media.1.codec.pix_fmt">yuv420p</property>
    <property name="meta.media.1.codec.sample_aspect_ratio">0</property>
    <property name="meta.media.1.codec.colorspace">709</property>
    <property name="meta.media.1.codec.color_trc">1</property>
    <property name="meta.media.1.codec.name">h264</property>
    <property name="meta.media.1.codec.long_name">H.264 / AVC / MPEG-4 AVC / MPEG-4 part 10</property>
    <property name="meta.media.1.codec.bit_rate">13131781</property>
    <property name="meta.attr.1.stream.creation_time.markup">2023-12-10T05:20:28.000000Z</property>
    <property name="meta.attr.1.stream.language.markup">eng</property>
    <property name="meta.attr.1.stream.handler_name.markup">VideoHandle</property>
    <property name="meta.attr.1.stream.vendor_id.markup">[0][0][0][0]</property>
    <property name="meta.attr.1.stream.encoder.markup">Lavc60.3.100 libx264</property>
    <property name="meta.attr.major_brand.markup">isom</property>
    <property name="meta.attr.minor_version.markup">512</property>
    <property name="meta.attr.compatible_brands.markup">isomdby1iso2avc1mp41</property>
    <property name="meta.attr.creation_time.markup">2023-12-10T05:20:28.000000Z</property>
    <property name="meta.attr.encoder.markup">Lavf60.3.100</property>
    <property name="seekable">1</property>
    <property name="meta.media.sample_aspect_num">1</property>
    <property name="meta.media.sample_aspect_den">1</property>
    <property name="audio_index">1</property>
    <property name="video_index">2</property>
    <property name="creation_time">2023-12-10T05:20:28</property>
    <property name="vstream">0</property>
    <property name="meta.media.frame_rate_num">30</property>
    <property name="meta.media.frame_rate_den">1</property>
    <property name="meta.media.colorspace">709</property>
    <property name="meta.media.color_trc">1</property>
    <property name="meta.media.has_b_frames">0</property>
    <property name="meta.media.width">1280</property>
    <property name="meta.media.height">720</property>
    <property name="meta.media.color_range">mpeg</property>
    <property name="astream">0</property>
    <property name="shotcut:hash">839547625b177e0b8a96abf5eae24102</property>
    <property name="shotcut:caption">any - 変換済み1.mp4</property>
    <property name="xml">was here</property>
  </chain>
  <chain id="chain8" out="00:00:10.400">
    <property name="length">00:00:10.440</property>
    <property name="eof">pause</property>
    <property name="resource">video/null - 変換済み1.mp4</property>
    <property name="mlt_service">avformat-novalidate</property>
    <property name="meta.media.nb_streams">2</property>
    <property name="meta.media.0.stream.type">audio</property>
    <property name="meta.media.0.codec.sample_fmt">fltp</property>
    <property name="meta.media.0.codec.sample_rate">48000</property>
    <property name="meta.media.0.codec.channels">2</property>
    <property name="meta.media.0.codec.name">ac3</property>
    <property name="meta.media.0.codec.long_name">ATSC A/52A (AC-3)</property>
    <property name="meta.media.0.codec.bit_rate">512000</property>
    <property name="meta.attr.0.stream.creation_time.markup">2023-12-10T05:20:28.000000Z</property>
    <property name="meta.attr.0.stream.language.markup">eng</property>
    <property name="meta.attr.0.stream.handler_name.markup">SoundHandle</property>
    <property name="meta.attr.0.stream.vendor_id.markup">[0][0][0][0]</property>
    <property name="meta.media.1.stream.type">video</property>
    <property name="meta.media.1.stream.frame_rate">30</property>
    <property name="meta.media.1.stream.sample_aspect_ratio">0</property>
    <property name="meta.media.1.codec.width">1280</property>
    <property name="meta.media.1.codec.height">720</property>
    <property name="meta.media.1.codec.rotate">0</property>
    <property name="meta.media.1.codec.pix_fmt">yuv420p</property>
    <property name="meta.media.1.codec.sample_aspect_ratio">0</property>
    <property name="meta.media.1.codec.colorspace">709</property>
    <property name="meta.media.1.codec.color_trc">1</property>
    <property name="meta.media.1.codec.name">h264</property>
    <property name="meta.media.1.codec.long_name">H.264 / AVC / MPEG-4 AVC / MPEG-4 part 10</property>
    <property name="meta.media.1.codec.bit_rate">14108161</property>
    <property name="meta.attr.1.stream.creation_time.markup">2023-12-10T05:20:28.000000Z</property>
    <property name="meta.attr.1.stream.language.markup">eng</property>
    <property name="meta.attr.1.stream.handler_name.markup">VideoHandle</property>
    <property name="meta.attr.1.stream.vendor_id.markup">[0][0][0][0]</property>
    <property name="meta.attr.1.stream.encoder.markup">Lavc60.3.100 libx264</property>
    <property name="meta.attr.major_brand.markup">isom</property>
    <property name="meta.attr.minor_version.markup">512</property>
    <property name="meta.attr.compatible_brands.markup">isomdby1iso2avc1mp41</property>
    <property name="meta.attr.creation_time.markup">2023-12-10T05:20:28.000000Z</property>
    <property name="meta.attr.encoder.markup">Lavf60.3.100</property>
    <property name="seekable">1</property>
    <property name="meta.media.sample_aspect_num">1</property>
    <property name="meta.media.sample_aspect_den">1</property>
    <property name="audio_index">0</property>
    <property name="video_index">1</property>
    <property name="creation_time">2023-12-10T05:20:28</property>
    <property name="vstream">0</property>
    <property name="meta.media.frame_rate_num">30</property>
    <property name="meta.media.frame_rate_den">1</property>
    <property name="meta.media.colorspace">709</property>
    <property name="meta.media.color_trc">1</property>
    <property name="meta.media.has_b_frames">0</property>
    <property name="meta.media.width">1280</property>
    <property name="meta.media.height">720</property>
    <property name="meta.media.color_range">mpeg</property>
    <property name="astream">0</property>
    <property name="shotcut:hash">0899b52b4ea9f63acbdcbe1a4a369619</property>
    <property name="xml">was here</property>
  </chain>
  <chain id="chain9" out="00:10:10.560">
    <property name="length">00:10:10.600</property>
    <property name="eof">pause</property>
    <property name="resource">video/success - 変換済み1.mp4</property>
    <property name="mlt_service">avformat-novalidate</property>
    <property name="meta.media.nb_streams">2</property>
    <property name="meta.media.0.stream.type">audio</property>
    <property name="meta.media.0.codec.sample_fmt">fltp</property>
    <property name="meta.media.0.codec.sample_rate">48000</property>
    <property name="meta.media.0.codec.channels">2</property>
    <property name="meta.media.0.codec.name">ac3</property>
    <property name="meta.media.0.codec.long_name">ATSC A/52A (AC-3)</property>
    <property name="meta.media.0.codec.bit_rate">512000</property>
    <property name="meta.attr.0.stream.creation_time.markup">2023-12-09T06:12:13.000000Z</property>
    <property name="meta.attr.0.stream.language.markup">eng</property>
    <property name="meta.attr.0.stream.handler_name.markup">SoundHandle</property>
    <property name="meta.attr.0.stream.vendor_id.markup">[0][0][0][0]</property>
    <property name="meta.media.1.stream.type">video</property>
    <property name="meta.media.1.stream.frame_rate">30</property>
    <property name="meta.media.1.stream.sample_aspect_ratio">1</property>
    <property name="meta.media.1.codec.width">1920</property>
    <property name="meta.media.1.codec.height">1080</property>
    <property name="meta.media.1.codec.rotate">0</property>
    <property name="meta.media.1.codec.pix_fmt">yuvj420p</property>
    <property name="meta.media.1.codec.sample_aspect_ratio">1</property>
    <property name="meta.media.1.codec.colorspace">709</property>
    <property name="meta.media.1.codec.color_trc">1</property>
    <property name="meta.media.1.codec.name">h264</property>
    <property name="meta.media.1.codec.long_name">H.264 / AVC / MPEG-4 AVC / MPEG-4 part 10</property>
    <property name="meta.media.1.codec.bit_rate">28948337</property>
    <property name="meta.attr.1.stream.creation_time.markup">2023-12-09T06:12:13.000000Z</property>
    <property name="meta.attr.1.stream.language.markup">eng</property>
    <property name="meta.attr.1.stream.handler_name.markup">VideoHandle</property>
    <property name="meta.attr.1.stream.vendor_id.markup">[0][0][0][0]</property>
    <property name="meta.attr.1.stream.encoder.markup">Lavc60.3.100 libx264</property>
    <property name="meta.attr.major_brand.markup">isom</property>
    <property name="meta.attr.minor_version.markup">512</property>
    <property name="meta.attr.compatible_brands.markup">isomdby1iso2avc1mp41</property>
    <property name="meta.attr.creation_time.markup">2023-12-09T06:12:13.000000Z</property>
    <property name="meta.attr.encoder.markup">Lavf60.3.100</property>
    <property name="meta.attr.location-eng.markup">+35.0104+136.8850/</property>
    <property name="meta.attr.location.markup">+35.0104+136.8850/</property>
    <property name="seekable">1</property>
    <property name="meta.media.sample_aspect_num">1</property>
    <property name="meta.media.sample_aspect_den">1</property>
    <property name="audio_index">0</property>
    <property name="video_index">1</property>
    <property name="creation_time">2023-12-09T06:12:13</property>
    <property name="vstream">0</property>
    <property name="meta.media.frame_rate_num">30</property>
    <property name="meta.media.frame_rate_den">1</property>
    <property name="meta.media.colorspace">709</property>
    <property name="meta.media.color_trc">1</property>
    <property name="meta.media.has_b_frames">0</property>
    <property name="meta.media.width">1920</property>
    <property name="meta.media.height">1080</property>
    <property name="meta.media.color_range">full</property>
    <property name="astream">0</property>
    <property name="shotcut:hash">8f0e6b71f1727ea2b6d2b357f74c0280</property>
    <property name="xml">was here</property>
  </chain>
  <producer id="producer7" in="00:00:00.000" out="03:59:59.960">
    <property name="length">04:00:00.000</property>
    <property name="eof">pause</property>
    <property name="resource">#FF000000</property>
    <property name="aspect_ratio">1</property>
    <property name="mlt_service">color</property>
    <property name="mlt_image_format">rgba</property>
    <property name="shotcut:caption">#FF000000</property>
    <property name="shotcut:detail">#FF000000</property>
    <property name="ignore_points">0</property>
    <property name="xml">was here</property>
    <property name="seekable">1</property>
  </producer>
  <chain id="chain2" out="00:00:02.960">
    <property name="length">00:00:03.000</property>
    <property name="eof">pause</property>
    <property name="resource">voice/aaa/aaa_002_みんな大好きランケ….wav</property>
    <property name="mlt_service">avformat-novalidate</property>
    <property name="meta.media.nb_streams">1</property>
    <property name="meta.media.0.stream.type">audio</property>
    <property name="meta.media.0.codec.sample_fmt">s16</property>
    <property name="meta.media.0.codec.sample_rate">24000</property>
    <property name="meta.media.0.codec.channels">1</property>
    <property name="meta.media.0.codec.name">pcm_s16le</property>
    <property name="meta.media.0.codec.long_name">PCM signed 16-bit little-endian</property>
    <property name="meta.media.0.codec.bit_rate">384000</property>
    <property name="seekable">1</property>
    <property name="audio_index">0</property>
    <property name="video_index">-1</property>
    <property name="creation_time">2023-12-15T03:26:45</property>
    <property name="astream">0</property>
    <property name="shotcut:skipConvert">1</property>
    <property name="xml">was here</property>
    <property name="shotcut:hash">9480c70140c2c56f44bdc29b337884f6</property>
  </chain>
  <chain id="chain10" out="00:00:01.200">
    <property name="length">00:00:01.240</property>
    <property name="eof">pause</property>
    <property name="resource">voice/aaa/aaa_003_はっじまっるよー.wav</property>
    <property name="mlt_service">avformat-novalidate</property>
    <property name="meta.media.nb_streams">1</property>
    <property name="meta.media.0.stream.type">audio</property>
    <property name="meta.media.0.codec.sample_fmt">s16</property>
    <property name="meta.media.0.codec.sample_rate">24000</property>
    <property name="meta.media.0.codec.channels">1</property>
    <property name="meta.media.0.codec.name">pcm_s16le</property>
    <property name="meta.media.0.codec.long_name">PCM signed 16-bit little-endian</property>
    <property name="meta.media.0.codec.bit_rate">384000</property>
    <property name="seekable">1</property>
    <property name="audio_index">0</property>
    <property name="video_index">-1</property>
    <property name="creation_time">2023-12-15T03:26:41</property>
    <property name="astream">0</property>
    <property name="shotcut:skipConvert">1</property>
    <property name="xml">was here</property>
    <property name="shotcut:hash">503152b2dacedbee44c905375b126c37</property>
  </chain>
  <chain id="chain11" out="00:00:01.800">
    <property name="length">00:00:01.840</property>
    <property name="eof">pause</property>
    <property name="resource">voice/aaa/aaa_004_まずは軽く自己紹介．.wav</property>
    <property name="mlt_service">avformat-novalidate</property>
    <property name="meta.media.nb_streams">1</property>
    <property name="meta.media.0.stream.type">audio</property>
    <property name="meta.media.0.codec.sample_fmt">s16</property>
    <property name="meta.media.0.codec.sample_rate">24000</property>
    <property name="meta.media.0.codec.channels">1</property>
    <property name="meta.media.0.codec.name">pcm_s16le</property>
    <property name="meta.media.0.codec.long_name">PCM signed 16-bit little-endian</property>
    <property name="meta.media.0.codec.bit_rate">384000</property>
    <property name="seekable">1</property>
    <property name="audio_index">0</property>
    <property name="video_index">-1</property>
    <property name="creation_time">2023-12-15T03:26:43</property>
    <property name="astream">0</property>
    <property name="shotcut:skipConvert">1</property>
    <property name="xml">was here</property>
    <property name="shotcut:hash">9a0f536fefbbce01bc2964446dbc6fc8</property>
  </chain>
  <chain id="chain12" out="00:00:03.440">
    <property name="length">00:00:03.480</property>
    <property name="eof">pause</property>
    <property name="resource">voice/aaa/aaa_005_うぷぬしはまっつん….wav</property>
    <property name="mlt_service">avformat-novalidate</property>
    <property name="meta.media.nb_streams">1</property>
    <property name="meta.media.0.stream.type">audio</property>
    <property name="meta.media.0.codec.sample_fmt">s16</property>
    <property name="meta.media.0.codec.sample_rate">24000</property>
    <property name="meta.media.0.codec.channels">1</property>
    <property name="meta.media.0.codec.name">pcm_s16le</property>
    <property name="meta.media.0.codec.long_name">PCM signed 16-bit little-endian</property>
    <property name="meta.media.0.codec.bit_rate">384000</property>
    <property name="seekable">1</property>
    <property name="audio_index">0</property>
    <property name="video_index">-1</property>
    <property name="creation_time">2023-12-15T03:56:51</property>
    <property name="astream">0</property>
    <property name="shotcut:skipConvert">1</property>
    <property name="xml">was here</property>
    <property name="shotcut:hash">3a67b1c5fff0c8c7ade7364ccf04baa1</property>
  </chain>
  <chain id="chain13" out="00:00:11.280">
    <property name="length">00:00:11.320</property>
    <property name="eof">pause</property>
    <property name="resource">voice/aaa/aaa_006_名古屋大学の小さな….wav</property>
    <property name="mlt_service">avformat-novalidate</property>
    <property name="meta.media.nb_streams">1</property>
    <property name="meta.media.0.stream.type">audio</property>
    <property name="meta.media.0.codec.sample_fmt">s16</property>
    <property name="meta.media.0.codec.sample_rate">24000</property>
    <property name="meta.media.0.codec.channels">1</property>
    <property name="meta.media.0.codec.name">pcm_s16le</property>
    <property name="meta.media.0.codec.long_name">PCM signed 16-bit little-endian</property>
    <property name="meta.media.0.codec.bit_rate">384000</property>
    <property name="seekable">1</property>
    <property name="audio_index">0</property>
    <property name="video_index">-1</property>
    <property name="creation_time">2023-12-15T03:26:59</property>
    <property name="astream">0</property>
    <property name="shotcut:skipConvert">1</property>
    <property name="xml">was here</property>
    <property name="shotcut:hash">1e39495d95b5767514867c193654fff0</property>
  </chain>
  <chain id="chain14" out="00:00:04.960">
    <property name="length">00:00:05.000</property>
    <property name="eof">pause</property>
    <property name="resource">voice/aaa/aaa_007_そのため，この動画….wav</property>
    <property name="mlt_service">avformat-novalidate</property>
    <property name="meta.media.nb_streams">1</property>
    <property name="meta.media.0.stream.type">audio</property>
    <property name="meta.media.0.codec.sample_fmt">s16</property>
    <property name="meta.media.0.codec.sample_rate">24000</property>
    <property name="meta.media.0.codec.channels">1</property>
    <property name="meta.media.0.codec.name">pcm_s16le</property>
    <property name="meta.media.0.codec.long_name">PCM signed 16-bit little-endian</property>
    <property name="meta.media.0.codec.bit_rate">384000</property>
    <property name="seekable">1</property>
    <property name="audio_index">0</property>
    <property name="video_index">-1</property>
    <property name="creation_time">2023-12-15T03:26:54</property>
    <property name="astream">0</property>
    <property name="shotcut:skipConvert">1</property>
    <property name="xml">was here</property>
    <property name="shotcut:hash">9e44d46f1c4e69c4af3bd121e8b9443d</property>
  </chain>
  <chain id="chain15" out="00:00:04.000">
    <property name="length">00:00:04.040</property>
    <property name="eof">pause</property>
    <property name="resource">voice/aaa/aaa_008_さて,最初に断って….wav</property>
    <property name="mlt_service">avformat-novalidate</property>
    <property name="meta.media.nb_streams">1</property>
    <property name="meta.media.0.stream.type">audio</property>
    <property name="meta.media.0.codec.sample_fmt">s16</property>
    <property name="meta.media.0.codec.sample_rate">24000</property>
    <property name="meta.media.0.codec.channels">1</property>
    <property name="meta.media.0.codec.name">pcm_s16le</property>
    <property name="meta.media.0.codec.long_name">PCM signed 16-bit little-endian</property>
    <property name="meta.media.0.codec.bit_rate">384000</property>
    <property name="seekable">1</property>
    <property name="audio_index">0</property>
    <property name="video_index">-1</property>
    <property name="creation_time">2023-12-15T03:26:54</property>
    <property name="astream">0</property>
    <property name="shotcut:skipConvert">1</property>
    <property name="xml">was here</property>
    <property name="shotcut:hash">2022e900e2dff94901057e2991f432ee</property>
  </chain>
  <chain id="chain16" out="00:00:08.120">
    <property name="length">00:00:08.160</property>
    <property name="eof">pause</property>
    <property name="resource">voice/aaa/aaa_009_1つ目に，この音声….wav</property>
    <property name="mlt_service">avformat-novalidate</property>
    <property name="meta.media.nb_streams">1</property>
    <property name="meta.media.0.stream.type">audio</property>
    <property name="meta.media.0.codec.sample_fmt">s16</property>
    <property name="meta.media.0.codec.sample_rate">24000</property>
    <property name="meta.media.0.codec.channels">1</property>
    <property name="meta.media.0.codec.name">pcm_s16le</property>
    <property name="meta.media.0.codec.long_name">PCM signed 16-bit little-endian</property>
    <property name="meta.media.0.codec.bit_rate">384000</property>
    <property name="seekable">1</property>
    <property name="audio_index">0</property>
    <property name="video_index">-1</property>
    <property name="creation_time">2023-12-15T03:27:02</property>
    <property name="astream">0</property>
    <property name="shotcut:skipConvert">1</property>
    <property name="xml">was here</property>
    <property name="shotcut:hash">6428040937a79943ff8419fe1c7cfb27</property>
  </chain>
  <chain id="chain17" out="00:00:07.680">
    <property name="length">00:00:07.720</property>
    <property name="eof">pause</property>
    <property name="resource">voice/aaa/aaa_010_2つ目に，うぷぬし….wav</property>
    <property name="mlt_service">avformat-novalidate</property>
    <property name="meta.media.nb_streams">1</property>
    <property name="meta.media.0.stream.type">audio</property>
    <property name="meta.media.0.codec.sample_fmt">s16</property>
    <property name="meta.media.0.codec.sample_rate">24000</property>
    <property name="meta.media.0.codec.channels">1</property>
    <property name="meta.media.0.codec.name">pcm_s16le</property>
    <property name="meta.media.0.codec.long_name">PCM signed 16-bit little-endian</property>
    <property name="meta.media.0.codec.bit_rate">384000</property>
    <property name="seekable">1</property>
    <property name="audio_index">0</property>
    <property name="video_index">-1</property>
    <property name="creation_time">2023-12-15T03:57:51</property>
    <property name="astream">0</property>
    <property name="shotcut:skipConvert">1</property>
    <property name="xml">was here</property>
    <property name="shotcut:hash">be520b3f9fba3a038f13723107e60f6a</property>
  </chain>
  <chain id="chain18" out="00:00:07.720">
    <property name="length">00:00:07.760</property>
    <property name="eof">pause</property>
    <property name="resource">voice/aaa/aaa_011_3つ目に，本アール….wav</property>
    <property name="mlt_service">avformat-novalidate</property>
    <property name="meta.media.nb_streams">1</property>
    <property name="meta.media.0.stream.type">audio</property>
    <property name="meta.media.0.codec.sample_fmt">s16</property>
    <property name="meta.media.0.codec.sample_rate">24000</property>
    <property name="meta.media.0.codec.channels">1</property>
    <property name="meta.media.0.codec.name">pcm_s16le</property>
    <property name="meta.media.0.codec.long_name">PCM signed 16-bit little-endian</property>
    <property name="meta.media.0.codec.bit_rate">384000</property>
    <property name="seekable">1</property>
    <property name="audio_index">0</property>
    <property name="video_index">-1</property>
    <property name="creation_time">2023-12-15T03:58:23</property>
    <property name="astream">0</property>
    <property name="shotcut:skipConvert">1</property>
    <property name="xml">was here</property>
    <property name="shotcut:hash">03ef87fd00e5d4943ea9c8ad0d09c256</property>
  </chain>
  <chain id="chain19" out="00:00:09.000">
    <property name="length">00:00:09.040</property>
    <property name="eof">pause</property>
    <property name="resource">voice/aaa/aaa_012_4つ目に，専門知識….wav</property>
    <property name="mlt_service">avformat-novalidate</property>
    <property name="meta.media.nb_streams">1</property>
    <property name="meta.media.0.stream.type">audio</property>
    <property name="meta.media.0.codec.sample_fmt">s16</property>
    <property name="meta.media.0.codec.sample_rate">24000</property>
    <property name="meta.media.0.codec.channels">1</property>
    <property name="meta.media.0.codec.name">pcm_s16le</property>
    <property name="meta.media.0.codec.long_name">PCM signed 16-bit little-endian</property>
    <property name="meta.media.0.codec.bit_rate">384000</property>
    <property name="seekable">1</property>
    <property name="audio_index">0</property>
    <property name="video_index">-1</property>
    <property name="creation_time">2023-12-15T03:27:11</property>
    <property name="astream">0</property>
    <property name="shotcut:skipConvert">1</property>
    <property name="xml">was here</property>
    <property name="shotcut:hash">32f0aca4df9eb72b98bf80012004a7d3</property>
  </chain>
  <chain id="chain20" out="00:00:11.800">
    <property name="length">00:00:11.840</property>
    <property name="eof">pause</property>
    <property name="resource">voice/aaa/aaa_013_5つ目に，本動画は….wav</property>
    <property name="mlt_service">avformat-novalidate</property>
    <property name="meta.media.nb_streams">1</property>
    <property name="meta.media.0.stream.type">audio</property>
    <property name="meta.media.0.codec.sample_fmt">s16</property>
    <property name="meta.media.0.codec.sample_rate">24000</property>
    <property name="meta.media.0.codec.channels">1</property>
    <property name="meta.media.0.codec.name">pcm_s16le</property>
    <property name="meta.media.0.codec.long_name">PCM signed 16-bit little-endian</property>
    <property name="meta.media.0.codec.bit_rate">384000</property>
    <property name="seekable">1</property>
    <property name="audio_index">0</property>
    <property name="video_index">-1</property>
    <property name="creation_time">2023-12-15T03:26:36</property>
    <property name="astream">0</property>
    <property name="shotcut:skipConvert">1</property>
    <property name="xml">was here</property>
    <property name="shotcut:hash">3083086c82841beffeee3c59bef31478</property>
  </chain>
  <chain id="chain21" out="00:00:01.440">
    <property name="length">00:00:01.480</property>
    <property name="eof">pause</property>
    <property name="resource">voice/aaa/aaa_014_intro.wav</property>
    <property name="mlt_service">avformat-novalidate</property>
    <property name="meta.media.nb_streams">1</property>
    <property name="meta.media.0.stream.type">audio</property>
    <property name="meta.media.0.codec.sample_fmt">s16</property>
    <property name="meta.media.0.codec.sample_rate">24000</property>
    <property name="meta.media.0.codec.channels">1</property>
    <property name="meta.media.0.codec.name">pcm_s16le</property>
    <property name="meta.media.0.codec.long_name">PCM signed 16-bit little-endian</property>
    <property name="meta.media.0.codec.bit_rate">384000</property>
    <property name="seekable">1</property>
    <property name="audio_index">0</property>
    <property name="video_index">-1</property>
    <property name="creation_time">2023-12-15T03:26:36</property>
    <property name="astream">0</property>
    <property name="shotcut:skipConvert">1</property>
    <property name="xml">was here</property>
    <property name="shotcut:hash">49ff71f39909e9407df2741a89c48ecb</property>
  </chain>
  <chain id="chain22" out="00:00:03.280">
    <property name="length">00:00:03.320</property>
    <property name="eof">pause</property>
    <property name="resource">voice/aaa/aaa_015_アールティーエー-….wav</property>
    <property name="mlt_service">avformat-novalidate</property>
    <property name="meta.media.nb_streams">1</property>
    <property name="meta.media.0.stream.type">audio</property>
    <property name="meta.media.0.codec.sample_fmt">s16</property>
    <property name="meta.media.0.codec.sample_rate">24000</property>
    <property name="meta.media.0.codec.channels">1</property>
    <property name="meta.media.0.codec.name">pcm_s16le</property>
    <property name="meta.media.0.codec.long_name">PCM signed 16-bit little-endian</property>
    <property name="meta.media.0.codec.bit_rate">384000</property>
    <property name="seekable">1</property>
    <property name="audio_index">0</property>
    <property name="video_index">-1</property>
    <property name="creation_time">2023-12-15T03:26:36</property>
    <property name="astream">0</property>
    <property name="shotcut:skipConvert">1</property>
    <property name="xml">was here</property>
    <property name="shotcut:hash">65489741bd741111ae89a498d8bccc6e</property>
  </chain>
  <chain id="chain23" out="00:00:04.400">
    <property name="length">00:00:04.440</property>
    <property name="eof">pause</property>
    <property name="resource">voice/aaa/aaa_016_さて，本編を始める….wav</property>
    <property name="mlt_service">avformat-novalidate</property>
    <property name="meta.media.nb_streams">1</property>
    <property name="meta.media.0.stream.type">audio</property>
    <property name="meta.media.0.codec.sample_fmt">s16</property>
    <property name="meta.media.0.codec.sample_rate">24000</property>
    <property name="meta.media.0.codec.channels">1</property>
    <property name="meta.media.0.codec.name">pcm_s16le</property>
    <property name="meta.media.0.codec.long_name">PCM signed 16-bit little-endian</property>
    <property name="meta.media.0.codec.bit_rate">384000</property>
    <property name="seekable">1</property>
    <property name="audio_index">0</property>
    <property name="video_index">-1</property>
    <property name="creation_time">2023-12-15T03:59:47</property>
    <property name="astream">0</property>
    <property name="shotcut:skipConvert">1</property>
    <property name="xml">was here</property>
    <property name="shotcut:hash">d8edc67baac4ef45f9a7f205152fbd85</property>
  </chain>
  <chain id="chain24" out="00:00:06.480">
    <property name="length">00:00:06.520</property>
    <property name="eof">pause</property>
    <property name="resource">voice/aaa/aaa_017_本動画において重要….wav</property>
    <property name="mlt_service">avformat-novalidate</property>
    <property name="meta.media.nb_streams">1</property>
    <property name="meta.media.0.stream.type">audio</property>
    <property name="meta.media.0.codec.sample_fmt">s16</property>
    <property name="meta.media.0.codec.sample_rate">24000</property>
    <property name="meta.media.0.codec.channels">1</property>
    <property name="meta.media.0.codec.name">pcm_s16le</property>
    <property name="meta.media.0.codec.long_name">PCM signed 16-bit little-endian</property>
    <property name="meta.media.0.codec.bit_rate">384000</property>
    <property name="seekable">1</property>
    <property name="audio_index">0</property>
    <property name="video_index">-1</property>
    <property name="creation_time">2023-12-15T03:26:36</property>
    <property name="astream">0</property>
    <property name="shotcut:skipConvert">1</property>
    <property name="xml">was here</property>
    <property name="shotcut:hash">7191e2f1b5e39dbd589fd6510db28078</property>
  </chain>
  <chain id="chain25" out="00:00:07.760">
    <property name="length">00:00:07.800</property>
    <property name="eof">pause</property>
    <property name="resource">voice/aaa/aaa_018_しちょうもの兄貴姉….wav</property>
    <property name="mlt_service">avformat-novalidate</property>
    <property name="meta.media.nb_streams">1</property>
    <property name="meta.media.0.stream.type">audio</property>
    <property name="meta.media.0.codec.sample_fmt">s16</property>
    <property name="meta.media.0.codec.sample_rate">24000</property>
    <property name="meta.media.0.codec.channels">1</property>
    <property name="meta.media.0.codec.name">pcm_s16le</property>
    <property name="meta.media.0.codec.long_name">PCM signed 16-bit little-endian</property>
    <property name="meta.media.0.codec.bit_rate">384000</property>
    <property name="seekable">1</property>
    <property name="audio_index">0</property>
    <property name="video_index">-1</property>
    <property name="creation_time">2023-12-15T04:00:10</property>
    <property name="astream">0</property>
    <property name="shotcut:skipConvert">1</property>
    <property name="xml">was here</property>
    <property name="shotcut:hash">c0564ee04a3f44273b1a0edd4d6858d8</property>
  </chain>
  <chain id="chain26" out="00:00:03.960">
    <property name="length">00:00:04.000</property>
    <property name="eof">pause</property>
    <property name="resource">voice/aaa/aaa_019_まず，アールティー….wav</property>
    <property name="mlt_service">avformat-novalidate</property>
    <property name="meta.media.nb_streams">1</property>
    <property name="meta.media.0.stream.type">audio</property>
    <property name="meta.media.0.codec.sample_fmt">s16</property>
    <property name="meta.media.0.codec.sample_rate">24000</property>
    <property name="meta.media.0.codec.channels">1</property>
    <property name="meta.media.0.codec.name">pcm_s16le</property>
    <property name="meta.media.0.codec.long_name">PCM signed 16-bit little-endian</property>
    <property name="meta.media.0.codec.bit_rate">384000</property>
    <property name="seekable">1</property>
    <property name="audio_index">0</property>
    <property name="video_index">-1</property>
    <property name="creation_time">2023-12-15T03:26:36</property>
    <property name="astream">0</property>
    <property name="shotcut:skipConvert">1</property>
    <property name="xml">was here</property>
    <property name="shotcut:hash">e22eab8ea878bfc2d929be38c167ba7c</property>
  </chain>
  <chain id="chain27" out="00:00:04.480">
    <property name="length">00:00:04.520</property>
    <property name="eof">pause</property>
    <property name="resource">voice/aaa/aaa_020_コンピュータゲーム….wav</property>
    <property name="mlt_service">avformat-novalidate</property>
    <property name="meta.media.nb_streams">1</property>
    <property name="meta.media.0.stream.type">audio</property>
    <property name="meta.media.0.codec.sample_fmt">s16</property>
    <property name="meta.media.0.codec.sample_rate">24000</property>
    <property name="meta.media.0.codec.channels">1</property>
    <property name="meta.media.0.codec.name">pcm_s16le</property>
    <property name="meta.media.0.codec.long_name">PCM signed 16-bit little-endian</property>
    <property name="meta.media.0.codec.bit_rate">384000</property>
    <property name="seekable">1</property>
    <property name="audio_index">0</property>
    <property name="video_index">-1</property>
    <property name="creation_time">2023-12-15T03:26:36</property>
    <property name="astream">0</property>
    <property name="shotcut:skipConvert">1</property>
    <property name="xml">was here</property>
    <property name="shotcut:hash">05d80e8640f7de6b61155662caa6f2e0</property>
  </chain>
  <chain id="chain28" out="00:00:04.000">
    <property name="length">00:00:04.040</property>
    <property name="eof">pause</property>
    <property name="resource">voice/aaa/aaa_021_ゲーム内部時間では….wav</property>
    <property name="mlt_service">avformat-novalidate</property>
    <property name="meta.media.nb_streams">1</property>
    <property name="meta.media.0.stream.type">audio</property>
    <property name="meta.media.0.codec.sample_fmt">s16</property>
    <property name="meta.media.0.codec.sample_rate">24000</property>
    <property name="meta.media.0.codec.channels">1</property>
    <property name="meta.media.0.codec.name">pcm_s16le</property>
    <property name="meta.media.0.codec.long_name">PCM signed 16-bit little-endian</property>
    <property name="meta.media.0.codec.bit_rate">384000</property>
    <property name="seekable">1</property>
    <property name="audio_index">0</property>
    <property name="video_index">-1</property>
    <property name="creation_time">2023-12-15T03:26:36</property>
    <property name="astream">0</property>
    <property name="shotcut:skipConvert">1</property>
    <property name="xml">was here</property>
    <property name="shotcut:hash">3b8779b28f63e060ae6b1f82c11890c5</property>
  </chain>
  <chain id="chain29" out="00:00:07.000">
    <property name="length">00:00:07.040</property>
    <property name="eof">pause</property>
    <property name="resource">voice/aaa/aaa_022_「アールティーエー….wav</property>
    <property name="mlt_service">avformat-novalidate</property>
    <property name="meta.media.nb_streams">1</property>
    <property name="meta.media.0.stream.type">audio</property>
    <property name="meta.media.0.codec.sample_fmt">s16</property>
    <property name="meta.media.0.codec.sample_rate">24000</property>
    <property name="meta.media.0.codec.channels">1</property>
    <property name="meta.media.0.codec.name">pcm_s16le</property>
    <property name="meta.media.0.codec.long_name">PCM signed 16-bit little-endian</property>
    <property name="meta.media.0.codec.bit_rate">384000</property>
    <property name="seekable">1</property>
    <property name="audio_index">0</property>
    <property name="video_index">-1</property>
    <property name="creation_time">2023-12-15T03:27:10</property>
    <property name="astream">0</property>
    <property name="shotcut:skipConvert">1</property>
    <property name="xml">was here</property>
    <property name="shotcut:hash">fd1509f0cedd836fe30284e2f5da3614</property>
  </chain>
  <chain id="chain30" out="00:00:06.040">
    <property name="length">00:00:06.080</property>
    <property name="eof">pause</property>
    <property name="resource">voice/aaa/aaa_023_まあ，要は素早く何….wav</property>
    <property name="mlt_service">avformat-novalidate</property>
    <property name="meta.media.nb_streams">1</property>
    <property name="meta.media.0.stream.type">audio</property>
    <property name="meta.media.0.codec.sample_fmt">s16</property>
    <property name="meta.media.0.codec.sample_rate">24000</property>
    <property name="meta.media.0.codec.channels">1</property>
    <property name="meta.media.0.codec.name">pcm_s16le</property>
    <property name="meta.media.0.codec.long_name">PCM signed 16-bit little-endian</property>
    <property name="meta.media.0.codec.bit_rate">384000</property>
    <property name="seekable">1</property>
    <property name="audio_index">0</property>
    <property name="video_index">-1</property>
    <property name="creation_time">2023-12-15T03:27:12</property>
    <property name="astream">0</property>
    <property name="shotcut:skipConvert">1</property>
    <property name="xml">was here</property>
    <property name="shotcut:hash">2113b3f82fb264fceb164fe9688f87f9</property>
  </chain>
  <chain id="chain31" out="00:00:06.040">
    <property name="length">00:00:06.080</property>
    <property name="eof">pause</property>
    <property name="resource">voice/aaa/aaa_024_今回はゲームではあ….wav</property>
    <property name="mlt_service">avformat-novalidate</property>
    <property name="meta.media.nb_streams">1</property>
    <property name="meta.media.0.stream.type">audio</property>
    <property name="meta.media.0.codec.sample_fmt">s16</property>
    <property name="meta.media.0.codec.sample_rate">24000</property>
    <property name="meta.media.0.codec.channels">1</property>
    <property name="meta.media.0.codec.name">pcm_s16le</property>
    <property name="meta.media.0.codec.long_name">PCM signed 16-bit little-endian</property>
    <property name="meta.media.0.codec.bit_rate">384000</property>
    <property name="seekable">1</property>
    <property name="audio_index">0</property>
    <property name="video_index">-1</property>
    <property name="creation_time">2023-12-15T03:27:15</property>
    <property name="astream">0</property>
    <property name="shotcut:skipConvert">1</property>
    <property name="xml">was here</property>
    <property name="shotcut:hash">bde12d1b83bc9a0c460c64694e0621ef</property>
  </chain>
  <chain id="chain32" out="00:00:02.640">
    <property name="length">00:00:02.680</property>
    <property name="eof">pause</property>
    <property name="resource">voice/aaa/aaa_025_次に，LANケーブ….wav</property>
    <property name="mlt_service">avformat-novalidate</property>
    <property name="meta.media.nb_streams">1</property>
    <property name="meta.media.0.stream.type">audio</property>
    <property name="meta.media.0.codec.sample_fmt">s16</property>
    <property name="meta.media.0.codec.sample_rate">24000</property>
    <property name="meta.media.0.codec.channels">1</property>
    <property name="meta.media.0.codec.name">pcm_s16le</property>
    <property name="meta.media.0.codec.long_name">PCM signed 16-bit little-endian</property>
    <property name="meta.media.0.codec.bit_rate">384000</property>
    <property name="seekable">1</property>
    <property name="audio_index">0</property>
    <property name="video_index">-1</property>
    <property name="creation_time">2023-12-15T03:27:11</property>
    <property name="astream">0</property>
    <property name="shotcut:skipConvert">1</property>
    <property name="xml">was here</property>
    <property name="shotcut:hash">26ebe7a1bfa4d6da9911d371ed6c9c12</property>
  </chain>
  <chain id="chain33" out="00:00:01.720">
    <property name="length">00:00:01.760</property>
    <property name="eof">pause</property>
    <property name="resource">voice/aaa/aaa_026_以下Wikiped….wav</property>
    <property name="mlt_service">avformat-novalidate</property>
    <property name="meta.media.nb_streams">1</property>
    <property name="meta.media.0.stream.type">audio</property>
    <property name="meta.media.0.codec.sample_fmt">s16</property>
    <property name="meta.media.0.codec.sample_rate">24000</property>
    <property name="meta.media.0.codec.channels">1</property>
    <property name="meta.media.0.codec.name">pcm_s16le</property>
    <property name="meta.media.0.codec.long_name">PCM signed 16-bit little-endian</property>
    <property name="meta.media.0.codec.bit_rate">384000</property>
    <property name="seekable">1</property>
    <property name="audio_index">0</property>
    <property name="video_index">-1</property>
    <property name="creation_time">2023-12-15T03:27:09</property>
    <property name="astream">0</property>
    <property name="shotcut:skipConvert">1</property>
    <property name="xml">was here</property>
    <property name="shotcut:hash">4c4203394dfb95b93d2890bcc5e04e26</property>
  </chain>
  <chain id="chain34" out="00:00:06.280">
    <property name="length">00:00:06.320</property>
    <property name="eof">pause</property>
    <property name="resource">voice/aaa/aaa_027_（よりついせん）に….wav</property>
    <property name="mlt_service">avformat-novalidate</property>
    <property name="meta.media.nb_streams">1</property>
    <property name="meta.media.0.stream.type">audio</property>
    <property name="meta.media.0.codec.sample_fmt">s16</property>
    <property name="meta.media.0.codec.sample_rate">24000</property>
    <property name="meta.media.0.codec.channels">1</property>
    <property name="meta.media.0.codec.name">pcm_s16le</property>
    <property name="meta.media.0.codec.long_name">PCM signed 16-bit little-endian</property>
    <property name="meta.media.0.codec.bit_rate">384000</property>
    <property name="seekable">1</property>
    <property name="audio_index">0</property>
    <property name="video_index">-1</property>
    <property name="creation_time">2023-12-15T03:27:23</property>
    <property name="astream">0</property>
    <property name="shotcut:skipConvert">1</property>
    <property name="xml">was here</property>
    <property name="shotcut:hash">44f1af362f7623e0af3c735e64933e8f</property>
  </chain>
  <chain id="chain35" out="00:00:12.320">
    <property name="length">00:00:12.360</property>
    <property name="eof">pause</property>
    <property name="resource">voice/aaa/aaa_028_特に4対8線で両端….wav</property>
    <property name="mlt_service">avformat-novalidate</property>
    <property name="meta.media.nb_streams">1</property>
    <property name="meta.media.0.stream.type">audio</property>
    <property name="meta.media.0.codec.sample_fmt">s16</property>
    <property name="meta.media.0.codec.sample_rate">24000</property>
    <property name="meta.media.0.codec.channels">1</property>
    <property name="meta.media.0.codec.name">pcm_s16le</property>
    <property name="meta.media.0.codec.long_name">PCM signed 16-bit little-endian</property>
    <property name="meta.media.0.codec.bit_rate">384000</property>
    <property name="seekable">1</property>
    <property name="audio_index">0</property>
    <property name="video_index">-1</property>
    <property name="creation_time">2023-12-15T03:27:32</property>
    <property name="astream">0</property>
    <property name="shotcut:skipConvert">1</property>
    <property name="xml">was here</property>
    <property name="shotcut:hash">f867ea90be642965597cece2dcedc434</property>
  </chain>
  <chain id="chain36" out="00:00:05.840">
    <property name="length">00:00:05.880</property>
    <property name="eof">pause</property>
    <property name="resource">voice/aaa/aaa_029_圧接工具を使えば容….wav</property>
    <property name="mlt_service">avformat-novalidate</property>
    <property name="meta.media.nb_streams">1</property>
    <property name="meta.media.0.stream.type">audio</property>
    <property name="meta.media.0.codec.sample_fmt">s16</property>
    <property name="meta.media.0.codec.sample_rate">24000</property>
    <property name="meta.media.0.codec.channels">1</property>
    <property name="meta.media.0.codec.name">pcm_s16le</property>
    <property name="meta.media.0.codec.long_name">PCM signed 16-bit little-endian</property>
    <property name="meta.media.0.codec.bit_rate">384000</property>
    <property name="seekable">1</property>
    <property name="audio_index">0</property>
    <property name="video_index">-1</property>
    <property name="creation_time">2023-12-15T03:27:24</property>
    <property name="astream">0</property>
    <property name="shotcut:skipConvert">1</property>
    <property name="xml">was here</property>
    <property name="shotcut:hash">58f06f8e54447f41ed4504b84403b8ed</property>
  </chain>
  <chain id="chain37" out="00:00:03.760">
    <property name="length">00:00:03.800</property>
    <property name="eof">pause</property>
    <property name="resource">voice/aaa/aaa_030_ケーブルには配線構….wav</property>
    <property name="mlt_service">avformat-novalidate</property>
    <property name="meta.media.nb_streams">1</property>
    <property name="meta.media.0.stream.type">audio</property>
    <property name="meta.media.0.codec.sample_fmt">s16</property>
    <property name="meta.media.0.codec.sample_rate">24000</property>
    <property name="meta.media.0.codec.channels">1</property>
    <property name="meta.media.0.codec.name">pcm_s16le</property>
    <property name="meta.media.0.codec.long_name">PCM signed 16-bit little-endian</property>
    <property name="meta.media.0.codec.bit_rate">384000</property>
    <property name="seekable">1</property>
    <property name="audio_index">0</property>
    <property name="video_index">-1</property>
    <property name="creation_time">2023-12-15T03:27:23</property>
    <property name="astream">0</property>
    <property name="shotcut:skipConvert">1</property>
    <property name="xml">was here</property>
    <property name="shotcut:hash">67aa18516153f987b2b4e895dd6fbd3e</property>
  </chain>
  <chain id="chain38" out="00:00:05.280">
    <property name="length">00:00:05.320</property>
    <property name="eof">pause</property>
    <property name="resource">voice/aaa/aaa_031_要は，ワイファイの….wav</property>
    <property name="mlt_service">avformat-novalidate</property>
    <property name="meta.media.nb_streams">1</property>
    <property name="meta.media.0.stream.type">audio</property>
    <property name="meta.media.0.codec.sample_fmt">s16</property>
    <property name="meta.media.0.codec.sample_rate">24000</property>
    <property name="meta.media.0.codec.channels">1</property>
    <property name="meta.media.0.codec.name">pcm_s16le</property>
    <property name="meta.media.0.codec.long_name">PCM signed 16-bit little-endian</property>
    <property name="meta.media.0.codec.bit_rate">384000</property>
    <property name="seekable">1</property>
    <property name="audio_index">0</property>
    <property name="video_index">-1</property>
    <property name="creation_time">2023-12-15T03:27:25</property>
    <property name="astream">0</property>
    <property name="shotcut:skipConvert">1</property>
    <property name="xml">was here</property>
    <property name="shotcut:hash">1d698a3985e1f19130ee7515f3ac6b62</property>
  </chain>
  <chain id="chain39" out="00:00:06.120">
    <property name="length">00:00:06.160</property>
    <property name="eof">pause</property>
    <property name="resource">voice/aaa/aaa_032_また今回は，LAN….wav</property>
    <property name="mlt_service">avformat-novalidate</property>
    <property name="meta.media.nb_streams">1</property>
    <property name="meta.media.0.stream.type">audio</property>
    <property name="meta.media.0.codec.sample_fmt">s16</property>
    <property name="meta.media.0.codec.sample_rate">24000</property>
    <property name="meta.media.0.codec.channels">1</property>
    <property name="meta.media.0.codec.name">pcm_s16le</property>
    <property name="meta.media.0.codec.long_name">PCM signed 16-bit little-endian</property>
    <property name="meta.media.0.codec.bit_rate">384000</property>
    <property name="seekable">1</property>
    <property name="audio_index">0</property>
    <property name="video_index">-1</property>
    <property name="creation_time">2023-12-15T03:27:30</property>
    <property name="astream">0</property>
    <property name="shotcut:skipConvert">1</property>
    <property name="xml">was here</property>
    <property name="shotcut:hash">a3f085a17371bdb20d4127a565ba9833</property>
  </chain>
  <chain id="chain40" out="00:00:05.040">
    <property name="length">00:00:05.080</property>
    <property name="eof">pause</property>
    <property name="resource">voice/aaa/aaa_033_そして，配線はスト….wav</property>
    <property name="mlt_service">avformat-novalidate</property>
    <property name="meta.media.nb_streams">1</property>
    <property name="meta.media.0.stream.type">audio</property>
    <property name="meta.media.0.codec.sample_fmt">s16</property>
    <property name="meta.media.0.codec.sample_rate">24000</property>
    <property name="meta.media.0.codec.channels">1</property>
    <property name="meta.media.0.codec.name">pcm_s16le</property>
    <property name="meta.media.0.codec.long_name">PCM signed 16-bit little-endian</property>
    <property name="meta.media.0.codec.bit_rate">384000</property>
    <property name="seekable">1</property>
    <property name="audio_index">0</property>
    <property name="video_index">-1</property>
    <property name="creation_time">2023-12-15T03:27:35</property>
    <property name="astream">0</property>
    <property name="shotcut:skipConvert">1</property>
    <property name="xml">was here</property>
    <property name="shotcut:hash">0dd4f0f414be63bf40f98563fe979098</property>
  </chain>
  <chain id="chain41" out="00:00:02.880">
    <property name="length">00:00:02.920</property>
    <property name="eof">pause</property>
    <property name="resource">voice/aaa/aaa_034_今回はストレートケ….wav</property>
    <property name="mlt_service">avformat-novalidate</property>
    <property name="meta.media.nb_streams">1</property>
    <property name="meta.media.0.stream.type">audio</property>
    <property name="meta.media.0.codec.sample_fmt">s16</property>
    <property name="meta.media.0.codec.sample_rate">24000</property>
    <property name="meta.media.0.codec.channels">1</property>
    <property name="meta.media.0.codec.name">pcm_s16le</property>
    <property name="meta.media.0.codec.long_name">PCM signed 16-bit little-endian</property>
    <property name="meta.media.0.codec.bit_rate">384000</property>
    <property name="seekable">1</property>
    <property name="audio_index">0</property>
    <property name="video_index">-1</property>
    <property name="creation_time">2023-12-15T03:27:32</property>
    <property name="astream">0</property>
    <property name="shotcut:skipConvert">1</property>
    <property name="xml">was here</property>
    <property name="shotcut:hash">c10f66a41057b51b1b666f5822658fb9</property>
  </chain>
  <chain id="chain42" out="00:00:02.080">
    <property name="length">00:00:02.120</property>
    <property name="eof">pause</property>
    <property name="resource">voice/aaa/aaa_035_アールティーエー-….wav</property>
    <property name="mlt_service">avformat-novalidate</property>
    <property name="meta.media.nb_streams">1</property>
    <property name="meta.media.0.stream.type">audio</property>
    <property name="meta.media.0.codec.sample_fmt">s16</property>
    <property name="meta.media.0.codec.sample_rate">24000</property>
    <property name="meta.media.0.codec.channels">1</property>
    <property name="meta.media.0.codec.name">pcm_s16le</property>
    <property name="meta.media.0.codec.long_name">PCM signed 16-bit little-endian</property>
    <property name="meta.media.0.codec.bit_rate">384000</property>
    <property name="seekable">1</property>
    <property name="audio_index">0</property>
    <property name="video_index">-1</property>
    <property name="creation_time">2023-12-15T03:27:32</property>
    <property name="astream">0</property>
    <property name="shotcut:skipConvert">1</property>
    <property name="xml">was here</property>
    <property name="shotcut:hash">7231692f9547599a580a770951377d3c</property>
  </chain>
  <chain id="chain43" out="00:00:07.880">
    <property name="length">00:00:07.920</property>
    <property name="eof">pause</property>
    <property name="resource">voice/aaa/aaa_037_まだまだ，アールテ….wav</property>
    <property name="mlt_service">avformat-novalidate</property>
    <property name="meta.media.nb_streams">1</property>
    <property name="meta.media.0.stream.type">audio</property>
    <property name="meta.media.0.codec.sample_fmt">s16</property>
    <property name="meta.media.0.codec.sample_rate">24000</property>
    <property name="meta.media.0.codec.channels">1</property>
    <property name="meta.media.0.codec.name">pcm_s16le</property>
    <property name="meta.media.0.codec.long_name">PCM signed 16-bit little-endian</property>
    <property name="meta.media.0.codec.bit_rate">384000</property>
    <property name="seekable">1</property>
    <property name="audio_index">0</property>
    <property name="video_index">-1</property>
    <property name="creation_time">2023-12-15T03:27:47</property>
    <property name="astream">0</property>
    <property name="shotcut:skipConvert">1</property>
    <property name="xml">was here</property>
    <property name="shotcut:hash">f53d59c16ef734eac7af8aa0f722f1db</property>
  </chain>
  <chain id="chain44" out="00:00:06.640">
    <property name="length">00:00:06.680</property>
    <property name="eof">pause</property>
    <property name="resource">voice/aaa/aaa_038_このアールティーエ….wav</property>
    <property name="mlt_service">avformat-novalidate</property>
    <property name="meta.media.nb_streams">1</property>
    <property name="meta.media.0.stream.type">audio</property>
    <property name="meta.media.0.codec.sample_fmt">s16</property>
    <property name="meta.media.0.codec.sample_rate">24000</property>
    <property name="meta.media.0.codec.channels">1</property>
    <property name="meta.media.0.codec.name">pcm_s16le</property>
    <property name="meta.media.0.codec.long_name">PCM signed 16-bit little-endian</property>
    <property name="meta.media.0.codec.bit_rate">384000</property>
    <property name="seekable">1</property>
    <property name="audio_index">0</property>
    <property name="video_index">-1</property>
    <property name="creation_time">2023-12-15T03:27:49</property>
    <property name="astream">0</property>
    <property name="shotcut:skipConvert">1</property>
    <property name="xml">was here</property>
    <property name="shotcut:hash">d002c04995929e543ed767036284db02</property>
  </chain>
  <chain id="chain45" out="00:00:06.280">
    <property name="length">00:00:06.320</property>
    <property name="eof">pause</property>
    <property name="resource">voice/aaa/aaa_039_従って，LANケー….wav</property>
    <property name="mlt_service">avformat-novalidate</property>
    <property name="meta.media.nb_streams">1</property>
    <property name="meta.media.0.stream.type">audio</property>
    <property name="meta.media.0.codec.sample_fmt">s16</property>
    <property name="meta.media.0.codec.sample_rate">24000</property>
    <property name="meta.media.0.codec.channels">1</property>
    <property name="meta.media.0.codec.name">pcm_s16le</property>
    <property name="meta.media.0.codec.long_name">PCM signed 16-bit little-endian</property>
    <property name="meta.media.0.codec.bit_rate">384000</property>
    <property name="seekable">1</property>
    <property name="audio_index">0</property>
    <property name="video_index">-1</property>
    <property name="creation_time">2023-12-15T03:27:47</property>
    <property name="astream">0</property>
    <property name="shotcut:skipConvert">1</property>
    <property name="xml">was here</property>
    <property name="shotcut:hash">79213faba80fd3c08821ff9043c5a603</property>
  </chain>
  <chain id="chain46" out="00:00:02.360">
    <property name="length">00:00:02.400</property>
    <property name="eof">pause</property>
    <property name="resource">voice/aaa/aaa_040_このテスターについ….wav</property>
    <property name="mlt_service">avformat-novalidate</property>
    <property name="meta.media.nb_streams">1</property>
    <property name="meta.media.0.stream.type">audio</property>
    <property name="meta.media.0.codec.sample_fmt">s16</property>
    <property name="meta.media.0.codec.sample_rate">24000</property>
    <property name="meta.media.0.codec.channels">1</property>
    <property name="meta.media.0.codec.name">pcm_s16le</property>
    <property name="meta.media.0.codec.long_name">PCM signed 16-bit little-endian</property>
    <property name="meta.media.0.codec.bit_rate">384000</property>
    <property name="seekable">1</property>
    <property name="audio_index">0</property>
    <property name="video_index">-1</property>
    <property name="creation_time">2023-12-15T03:27:41</property>
    <property name="astream">0</property>
    <property name="shotcut:skipConvert">1</property>
    <property name="xml">was here</property>
    <property name="shotcut:hash">bf1a563fc2d20a6fdda7a10219d325d5</property>
  </chain>
  <chain id="chain47" out="00:00:07.200">
    <property name="length">00:00:07.240</property>
    <property name="eof">pause</property>
    <property name="resource">voice/aaa/aaa_041_視聴者兄貴姉貴の中….wav</property>
    <property name="mlt_service">avformat-novalidate</property>
    <property name="meta.media.nb_streams">1</property>
    <property name="meta.media.0.stream.type">audio</property>
    <property name="meta.media.0.codec.sample_fmt">s16</property>
    <property name="meta.media.0.codec.sample_rate">24000</property>
    <property name="meta.media.0.codec.channels">1</property>
    <property name="meta.media.0.codec.name">pcm_s16le</property>
    <property name="meta.media.0.codec.long_name">PCM signed 16-bit little-endian</property>
    <property name="meta.media.0.codec.bit_rate">384000</property>
    <property name="seekable">1</property>
    <property name="audio_index">0</property>
    <property name="video_index">-1</property>
    <property name="creation_time">2023-12-15T03:27:51</property>
    <property name="astream">0</property>
    <property name="shotcut:skipConvert">1</property>
    <property name="xml">was here</property>
    <property name="shotcut:hash">208a5bf5a376aa88e6ecb6c92abde924</property>
  </chain>
  <chain id="chain48" out="00:00:08.720">
    <property name="length">00:00:08.760</property>
    <property name="eof">pause</property>
    <property name="resource">voice/aaa/aaa_042_実は我々がよく目に….wav</property>
    <property name="mlt_service">avformat-novalidate</property>
    <property name="meta.media.nb_streams">1</property>
    <property name="meta.media.0.stream.type">audio</property>
    <property name="meta.media.0.codec.sample_fmt">s16</property>
    <property name="meta.media.0.codec.sample_rate">24000</property>
    <property name="meta.media.0.codec.channels">1</property>
    <property name="meta.media.0.codec.name">pcm_s16le</property>
    <property name="meta.media.0.codec.long_name">PCM signed 16-bit little-endian</property>
    <property name="meta.media.0.codec.bit_rate">384000</property>
    <property name="seekable">1</property>
    <property name="audio_index">0</property>
    <property name="video_index">-1</property>
    <property name="creation_time">2023-12-15T03:27:53</property>
    <property name="astream">0</property>
    <property name="shotcut:skipConvert">1</property>
    <property name="xml">was here</property>
    <property name="shotcut:hash">72ecd460a656186c541b48be365bde10</property>
  </chain>
  <chain id="chain49" out="00:00:10.120">
    <property name="length">00:00:10.160</property>
    <property name="eof">pause</property>
    <property name="resource">voice/aaa/aaa_043_一見素人には同じに….wav</property>
    <property name="mlt_service">avformat-novalidate</property>
    <property name="meta.media.nb_streams">1</property>
    <property name="meta.media.0.stream.type">audio</property>
    <property name="meta.media.0.codec.sample_fmt">s16</property>
    <property name="meta.media.0.codec.sample_rate">24000</property>
    <property name="meta.media.0.codec.channels">1</property>
    <property name="meta.media.0.codec.name">pcm_s16le</property>
    <property name="meta.media.0.codec.long_name">PCM signed 16-bit little-endian</property>
    <property name="meta.media.0.codec.bit_rate">384000</property>
    <property name="seekable">1</property>
    <property name="audio_index">0</property>
    <property name="video_index">-1</property>
    <property name="creation_time">2023-12-15T03:28:03</property>
    <property name="astream">0</property>
    <property name="shotcut:skipConvert">1</property>
    <property name="xml">was here</property>
    <property name="shotcut:hash">5b33d57909aca64ce65d182bee121e21</property>
  </chain>
  <chain id="chain50" out="00:00:07.200">
    <property name="length">00:00:07.240</property>
    <property name="eof">pause</property>
    <property name="resource">voice/aaa/aaa_044_ざっくり説明すると….wav</property>
    <property name="mlt_service">avformat-novalidate</property>
    <property name="meta.media.nb_streams">1</property>
    <property name="meta.media.0.stream.type">audio</property>
    <property name="meta.media.0.codec.sample_fmt">s16</property>
    <property name="meta.media.0.codec.sample_rate">24000</property>
    <property name="meta.media.0.codec.channels">1</property>
    <property name="meta.media.0.codec.name">pcm_s16le</property>
    <property name="meta.media.0.codec.long_name">PCM signed 16-bit little-endian</property>
    <property name="meta.media.0.codec.bit_rate">384000</property>
    <property name="seekable">1</property>
    <property name="audio_index">0</property>
    <property name="video_index">-1</property>
    <property name="creation_time">2023-12-15T03:28:04</property>
    <property name="astream">0</property>
    <property name="shotcut:skipConvert">1</property>
    <property name="xml">was here</property>
    <property name="shotcut:hash">deb53fd2c1c5ee4acb3e919d2ba66aae</property>
  </chain>
  <chain id="chain51" out="00:00:07.720">
    <property name="length">00:00:07.760</property>
    <property name="eof">pause</property>
    <property name="resource">voice/aaa/aaa_045_なので，このテスタ….wav</property>
    <property name="mlt_service">avformat-novalidate</property>
    <property name="meta.media.nb_streams">1</property>
    <property name="meta.media.0.stream.type">audio</property>
    <property name="meta.media.0.codec.sample_fmt">s16</property>
    <property name="meta.media.0.codec.sample_rate">24000</property>
    <property name="meta.media.0.codec.channels">1</property>
    <property name="meta.media.0.codec.name">pcm_s16le</property>
    <property name="meta.media.0.codec.long_name">PCM signed 16-bit little-endian</property>
    <property name="meta.media.0.codec.bit_rate">384000</property>
    <property name="seekable">1</property>
    <property name="audio_index">0</property>
    <property name="video_index">-1</property>
    <property name="creation_time">2023-12-15T03:28:05</property>
    <property name="astream">0</property>
    <property name="shotcut:skipConvert">1</property>
    <property name="xml">was here</property>
    <property name="shotcut:hash">0db0e106e31796c05f8fd453dc2a35bf</property>
  </chain>
  <chain id="chain52" out="00:00:04.880">
    <property name="length">00:00:04.920</property>
    <property name="eof">pause</property>
    <property name="resource">voice/aaa/aaa_046_断線や，正しい配線….wav</property>
    <property name="mlt_service">avformat-novalidate</property>
    <property name="meta.media.nb_streams">1</property>
    <property name="meta.media.0.stream.type">audio</property>
    <property name="meta.media.0.codec.sample_fmt">s16</property>
    <property name="meta.media.0.codec.sample_rate">24000</property>
    <property name="meta.media.0.codec.channels">1</property>
    <property name="meta.media.0.codec.name">pcm_s16le</property>
    <property name="meta.media.0.codec.long_name">PCM signed 16-bit little-endian</property>
    <property name="meta.media.0.codec.bit_rate">384000</property>
    <property name="seekable">1</property>
    <property name="audio_index">0</property>
    <property name="video_index">-1</property>
    <property name="creation_time">2023-12-15T03:28:02</property>
    <property name="astream">0</property>
    <property name="shotcut:skipConvert">1</property>
    <property name="xml">was here</property>
    <property name="shotcut:hash">1bc6a5788d8e5a0798d413456ddb65a1</property>
  </chain>
  <chain id="chain53" out="00:00:03.400">
    <property name="length">00:00:03.440</property>
    <property name="eof">pause</property>
    <property name="resource">voice/aaa/aaa_047_今回はこの部分が光….wav</property>
    <property name="mlt_service">avformat-novalidate</property>
    <property name="meta.media.nb_streams">1</property>
    <property name="meta.media.0.stream.type">audio</property>
    <property name="meta.media.0.codec.sample_fmt">s16</property>
    <property name="meta.media.0.codec.sample_rate">24000</property>
    <property name="meta.media.0.codec.channels">1</property>
    <property name="meta.media.0.codec.name">pcm_s16le</property>
    <property name="meta.media.0.codec.long_name">PCM signed 16-bit little-endian</property>
    <property name="meta.media.0.codec.bit_rate">384000</property>
    <property name="seekable">1</property>
    <property name="audio_index">0</property>
    <property name="video_index">-1</property>
    <property name="creation_time">2023-12-15T03:28:02</property>
    <property name="astream">0</property>
    <property name="shotcut:skipConvert">1</property>
    <property name="xml">was here</property>
    <property name="shotcut:hash">699d88ce6b3d682a198b333a43ce0a7b</property>
  </chain>
  <chain id="chain54" out="00:00:01.520">
    <property name="length">00:00:01.560</property>
    <property name="eof">pause</property>
    <property name="resource">voice/aaa/aaa_048_tester.wav</property>
    <property name="mlt_service">avformat-novalidate</property>
    <property name="meta.media.nb_streams">1</property>
    <property name="meta.media.0.stream.type">audio</property>
    <property name="meta.media.0.codec.sample_fmt">s16</property>
    <property name="meta.media.0.codec.sample_rate">24000</property>
    <property name="meta.media.0.codec.channels">1</property>
    <property name="meta.media.0.codec.name">pcm_s16le</property>
    <property name="meta.media.0.codec.long_name">PCM signed 16-bit little-endian</property>
    <property name="meta.media.0.codec.bit_rate">384000</property>
    <property name="seekable">1</property>
    <property name="audio_index">0</property>
    <property name="video_index">-1</property>
    <property name="creation_time">2023-12-15T03:28:00</property>
    <property name="astream">0</property>
    <property name="shotcut:skipConvert">1</property>
    <property name="xml">was here</property>
    <property name="shotcut:hash">3764bdc7c9ce768c4aa37039b4d7fd11</property>
  </chain>
  <chain id="chain55" out="00:00:08.360">
    <property name="length">00:00:08.400</property>
    <property name="eof">pause</property>
    <property name="resource">voice/aaa/aaa_050_さて，当然LANケ….wav</property>
    <property name="mlt_service">avformat-novalidate</property>
    <property name="meta.media.nb_streams">1</property>
    <property name="meta.media.0.stream.type">audio</property>
    <property name="meta.media.0.codec.sample_fmt">s16</property>
    <property name="meta.media.0.codec.sample_rate">24000</property>
    <property name="meta.media.0.codec.channels">1</property>
    <property name="meta.media.0.codec.name">pcm_s16le</property>
    <property name="meta.media.0.codec.long_name">PCM signed 16-bit little-endian</property>
    <property name="meta.media.0.codec.bit_rate">384000</property>
    <property name="seekable">1</property>
    <property name="audio_index">0</property>
    <property name="video_index">-1</property>
    <property name="creation_time">2023-12-15T03:28:19</property>
    <property name="astream">0</property>
    <property name="shotcut:skipConvert">1</property>
    <property name="xml">was here</property>
    <property name="shotcut:hash">77ea091a406798afdfe0be000bcfcc40</property>
  </chain>
  <chain id="chain56" out="00:00:04.560">
    <property name="length">00:00:04.600</property>
    <property name="eof">pause</property>
    <property name="resource">voice/aaa/aaa_051_ゆーてぃーぴーとい….wav</property>
    <property name="mlt_service">avformat-novalidate</property>
    <property name="meta.media.nb_streams">1</property>
    <property name="meta.media.0.stream.type">audio</property>
    <property name="meta.media.0.codec.sample_fmt">s16</property>
    <property name="meta.media.0.codec.sample_rate">24000</property>
    <property name="meta.media.0.codec.channels">1</property>
    <property name="meta.media.0.codec.name">pcm_s16le</property>
    <property name="meta.media.0.codec.long_name">PCM signed 16-bit little-endian</property>
    <property name="meta.media.0.codec.bit_rate">384000</property>
    <property name="seekable">1</property>
    <property name="audio_index">0</property>
    <property name="video_index">-1</property>
    <property name="creation_time">2023-12-15T03:28:15</property>
    <property name="astream">0</property>
    <property name="shotcut:skipConvert">1</property>
    <property name="xml">was here</property>
    <property name="shotcut:hash">c5ca33a57f87aa153d0a57c1c3f38937</property>
  </chain>
  <chain id="chain57" out="00:00:06.200">
    <property name="length">00:00:06.240</property>
    <property name="eof">pause</property>
    <property name="resource">voice/aaa/aaa_052_そして，あーるじぇ….wav</property>
    <property name="mlt_service">avformat-novalidate</property>
    <property name="meta.media.nb_streams">1</property>
    <property name="meta.media.0.stream.type">audio</property>
    <property name="meta.media.0.codec.sample_fmt">s16</property>
    <property name="meta.media.0.codec.sample_rate">24000</property>
    <property name="meta.media.0.codec.channels">1</property>
    <property name="meta.media.0.codec.name">pcm_s16le</property>
    <property name="meta.media.0.codec.long_name">PCM signed 16-bit little-endian</property>
    <property name="meta.media.0.codec.bit_rate">384000</property>
    <property name="seekable">1</property>
    <property name="audio_index">0</property>
    <property name="video_index">-1</property>
    <property name="creation_time">2023-12-15T04:01:47</property>
    <property name="astream">0</property>
    <property name="shotcut:skipConvert">1</property>
    <property name="xml">was here</property>
    <property name="shotcut:hash">5e0fbfd927145830b5c7684a835e2192</property>
  </chain>
  <chain id="chain58" out="00:00:01.000">
    <property name="length">00:00:01.040</property>
    <property name="eof">pause</property>
    <property name="resource">voice/aaa/aaa_053_cut.wav</property>
    <property name="mlt_service">avformat-novalidate</property>
    <property name="meta.media.nb_streams">1</property>
    <property name="meta.media.0.stream.type">audio</property>
    <property name="meta.media.0.codec.sample_fmt">s16</property>
    <property name="meta.media.0.codec.sample_rate">24000</property>
    <property name="meta.media.0.codec.channels">1</property>
    <property name="meta.media.0.codec.name">pcm_s16le</property>
    <property name="meta.media.0.codec.long_name">PCM signed 16-bit little-endian</property>
    <property name="meta.media.0.codec.bit_rate">384000</property>
    <property name="seekable">1</property>
    <property name="audio_index">0</property>
    <property name="video_index">-1</property>
    <property name="creation_time">2023-12-15T03:28:09</property>
    <property name="astream">0</property>
    <property name="shotcut:skipConvert">1</property>
    <property name="xml">was here</property>
    <property name="shotcut:hash">a5ce62c382d61d0b0df78db74d685cc2</property>
  </chain>
  <chain id="chain59" out="00:00:04.640">
    <property name="length">00:00:04.680</property>
    <property name="eof">pause</property>
    <property name="resource">voice/aaa/aaa_055_あと，ニッパーのよ….wav</property>
    <property name="mlt_service">avformat-novalidate</property>
    <property name="meta.media.nb_streams">1</property>
    <property name="meta.media.0.stream.type">audio</property>
    <property name="meta.media.0.codec.sample_fmt">s16</property>
    <property name="meta.media.0.codec.sample_rate">24000</property>
    <property name="meta.media.0.codec.channels">1</property>
    <property name="meta.media.0.codec.name">pcm_s16le</property>
    <property name="meta.media.0.codec.long_name">PCM signed 16-bit little-endian</property>
    <property name="meta.media.0.codec.bit_rate">384000</property>
    <property name="seekable">1</property>
    <property name="audio_index">0</property>
    <property name="video_index">-1</property>
    <property name="creation_time">2023-12-15T03:28:19</property>
    <property name="astream">0</property>
    <property name="shotcut:skipConvert">1</property>
    <property name="xml">was here</property>
    <property name="shotcut:hash">7afdc698d09ca829f7c45bab0530652f</property>
  </chain>
  <chain id="chain60" out="00:00:01.840">
    <property name="length">00:00:01.880</property>
    <property name="eof">pause</property>
    <property name="resource">voice/aaa/aaa_056_これにて準備完了で….wav</property>
    <property name="mlt_service">avformat-novalidate</property>
    <property name="meta.media.nb_streams">1</property>
    <property name="meta.media.0.stream.type">audio</property>
    <property name="meta.media.0.codec.sample_fmt">s16</property>
    <property name="meta.media.0.codec.sample_rate">24000</property>
    <property name="meta.media.0.codec.channels">1</property>
    <property name="meta.media.0.codec.name">pcm_s16le</property>
    <property name="meta.media.0.codec.long_name">PCM signed 16-bit little-endian</property>
    <property name="meta.media.0.codec.bit_rate">384000</property>
    <property name="seekable">1</property>
    <property name="audio_index">0</property>
    <property name="video_index">-1</property>
    <property name="creation_time">2023-12-15T03:28:16</property>
    <property name="astream">0</property>
    <property name="shotcut:skipConvert">1</property>
    <property name="xml">was here</property>
    <property name="shotcut:hash">2e9d7f60e504bd2f74f8eb8e81b76308</property>
  </chain>
  <chain id="chain61" out="00:00:02.080">
    <property name="length">00:00:02.120</property>
    <property name="eof">pause</property>
    <property name="resource">voice/aaa/aaa_057_用意するものはこの….wav</property>
    <property name="mlt_service">avformat-novalidate</property>
    <property name="meta.media.nb_streams">1</property>
    <property name="meta.media.0.stream.type">audio</property>
    <property name="meta.media.0.codec.sample_fmt">s16</property>
    <property name="meta.media.0.codec.sample_rate">24000</property>
    <property name="meta.media.0.codec.channels">1</property>
    <property name="meta.media.0.codec.name">pcm_s16le</property>
    <property name="meta.media.0.codec.long_name">PCM signed 16-bit little-endian</property>
    <property name="meta.media.0.codec.bit_rate">384000</property>
    <property name="seekable">1</property>
    <property name="audio_index">0</property>
    <property name="video_index">-1</property>
    <property name="creation_time">2023-12-15T03:28:22</property>
    <property name="astream">0</property>
    <property name="shotcut:skipConvert">1</property>
    <property name="xml">was here</property>
    <property name="shotcut:hash">92de0f3642ffd019926bfab45fa97465</property>
  </chain>
  <chain id="chain62" out="00:00:00.720">
    <property name="length">00:00:00.760</property>
    <property name="eof">pause</property>
    <property name="resource">voice/aaa/aaa_058_テスター.wav</property>
    <property name="mlt_service">avformat-novalidate</property>
    <property name="meta.media.nb_streams">1</property>
    <property name="meta.media.0.stream.type">audio</property>
    <property name="meta.media.0.codec.sample_fmt">s16</property>
    <property name="meta.media.0.codec.sample_rate">24000</property>
    <property name="meta.media.0.codec.channels">1</property>
    <property name="meta.media.0.codec.name">pcm_s16le</property>
    <property name="meta.media.0.codec.long_name">PCM signed 16-bit little-endian</property>
    <property name="meta.media.0.codec.bit_rate">384000</property>
    <property name="seekable">1</property>
    <property name="audio_index">0</property>
    <property name="video_index">-1</property>
    <property name="creation_time">2023-12-15T03:28:19</property>
    <property name="astream">0</property>
    <property name="shotcut:skipConvert">1</property>
    <property name="xml">was here</property>
    <property name="shotcut:hash">52cada10a339388da531b10f5bd3e5b0</property>
  </chain>
  <chain id="chain63" out="00:00:01.800">
    <property name="length">00:00:01.840</property>
    <property name="eof">pause</property>
    <property name="resource">voice/aaa/aaa_059_切り落とされたLA….wav</property>
    <property name="mlt_service">avformat-novalidate</property>
    <property name="meta.media.nb_streams">1</property>
    <property name="meta.media.0.stream.type">audio</property>
    <property name="meta.media.0.codec.sample_fmt">s16</property>
    <property name="meta.media.0.codec.sample_rate">24000</property>
    <property name="meta.media.0.codec.channels">1</property>
    <property name="meta.media.0.codec.name">pcm_s16le</property>
    <property name="meta.media.0.codec.long_name">PCM signed 16-bit little-endian</property>
    <property name="meta.media.0.codec.bit_rate">384000</property>
    <property name="seekable">1</property>
    <property name="audio_index">0</property>
    <property name="video_index">-1</property>
    <property name="creation_time">2023-12-15T03:28:22</property>
    <property name="astream">0</property>
    <property name="shotcut:skipConvert">1</property>
    <property name="xml">was here</property>
    <property name="shotcut:hash">cfc90225c92ed45fe609783c3fa3bf0e</property>
  </chain>
  <chain id="chain64" out="00:00:02.280">
    <property name="length">00:00:02.320</property>
    <property name="eof">pause</property>
    <property name="resource">voice/aaa/aaa_060_あーるじぇーヨンゴ….wav</property>
    <property name="mlt_service">avformat-novalidate</property>
    <property name="meta.media.nb_streams">1</property>
    <property name="meta.media.0.stream.type">audio</property>
    <property name="meta.media.0.codec.sample_fmt">s16</property>
    <property name="meta.media.0.codec.sample_rate">24000</property>
    <property name="meta.media.0.codec.channels">1</property>
    <property name="meta.media.0.codec.name">pcm_s16le</property>
    <property name="meta.media.0.codec.long_name">PCM signed 16-bit little-endian</property>
    <property name="meta.media.0.codec.bit_rate">384000</property>
    <property name="seekable">1</property>
    <property name="audio_index">0</property>
    <property name="video_index">-1</property>
    <property name="creation_time">2023-12-15T03:28:23</property>
    <property name="astream">0</property>
    <property name="shotcut:skipConvert">1</property>
    <property name="xml">was here</property>
    <property name="shotcut:hash">efa65dc32ce9a92a1b1edf4810ce6202</property>
  </chain>
  <chain id="chain65" out="00:00:01.440">
    <property name="length">00:00:01.480</property>
    <property name="eof">pause</property>
    <property name="resource">voice/aaa/aaa_061_ニッパーのようなもの.wav</property>
    <property name="mlt_service">avformat-novalidate</property>
    <property name="meta.media.nb_streams">1</property>
    <property name="meta.media.0.stream.type">audio</property>
    <property name="meta.media.0.codec.sample_fmt">s16</property>
    <property name="meta.media.0.codec.sample_rate">24000</property>
    <property name="meta.media.0.codec.channels">1</property>
    <property name="meta.media.0.codec.name">pcm_s16le</property>
    <property name="meta.media.0.codec.long_name">PCM signed 16-bit little-endian</property>
    <property name="meta.media.0.codec.bit_rate">384000</property>
    <property name="seekable">1</property>
    <property name="audio_index">0</property>
    <property name="video_index">-1</property>
    <property name="creation_time">2023-12-15T03:28:24</property>
    <property name="astream">0</property>
    <property name="shotcut:skipConvert">1</property>
    <property name="xml">was here</property>
    <property name="shotcut:hash">241d3333fb781d2f33cca3b6994cf818</property>
  </chain>
  <chain id="chain66" out="00:00:01.760">
    <property name="length">00:00:01.800</property>
    <property name="eof">pause</property>
    <property name="resource">voice/aaa/aaa_062_かしめ工具のような….wav</property>
    <property name="mlt_service">avformat-novalidate</property>
    <property name="meta.media.nb_streams">1</property>
    <property name="meta.media.0.stream.type">audio</property>
    <property name="meta.media.0.codec.sample_fmt">s16</property>
    <property name="meta.media.0.codec.sample_rate">24000</property>
    <property name="meta.media.0.codec.channels">1</property>
    <property name="meta.media.0.codec.name">pcm_s16le</property>
    <property name="meta.media.0.codec.long_name">PCM signed 16-bit little-endian</property>
    <property name="meta.media.0.codec.bit_rate">384000</property>
    <property name="seekable">1</property>
    <property name="audio_index">0</property>
    <property name="video_index">-1</property>
    <property name="creation_time">2023-12-15T03:28:25</property>
    <property name="astream">0</property>
    <property name="shotcut:skipConvert">1</property>
    <property name="xml">was here</property>
    <property name="shotcut:hash">6b1405d3759305a63f1219af5d8bb5a7</property>
  </chain>
  <chain id="chain67" out="00:00:00.760">
    <property name="length">00:00:00.800</property>
    <property name="eof">pause</property>
    <property name="resource">voice/aaa/aaa_063_だけです．.wav</property>
    <property name="mlt_service">avformat-novalidate</property>
    <property name="meta.media.nb_streams">1</property>
    <property name="meta.media.0.stream.type">audio</property>
    <property name="meta.media.0.codec.sample_fmt">s16</property>
    <property name="meta.media.0.codec.sample_rate">24000</property>
    <property name="meta.media.0.codec.channels">1</property>
    <property name="meta.media.0.codec.name">pcm_s16le</property>
    <property name="meta.media.0.codec.long_name">PCM signed 16-bit little-endian</property>
    <property name="meta.media.0.codec.bit_rate">384000</property>
    <property name="seekable">1</property>
    <property name="audio_index">0</property>
    <property name="video_index">-1</property>
    <property name="creation_time">2023-12-15T03:28:23</property>
    <property name="astream">0</property>
    <property name="shotcut:skipConvert">1</property>
    <property name="xml">was here</property>
    <property name="shotcut:hash">d8b730f9a7cb5e0a87a0137e74b18c16</property>
  </chain>
  <chain id="chain68" out="00:00:01.920">
    <property name="length">00:00:01.960</property>
    <property name="eof">pause</property>
    <property name="resource">voice/aaa/aaa_064_prepare.wav</property>
    <property name="mlt_service">avformat-novalidate</property>
    <property name="meta.media.nb_streams">1</property>
    <property name="meta.media.0.stream.type">audio</property>
    <property name="meta.media.0.codec.sample_fmt">s16</property>
    <property name="meta.media.0.codec.sample_rate">24000</property>
    <property name="meta.media.0.codec.channels">1</property>
    <property name="meta.media.0.codec.name">pcm_s16le</property>
    <property name="meta.media.0.codec.long_name">PCM signed 16-bit little-endian</property>
    <property name="meta.media.0.codec.bit_rate">384000</property>
    <property name="seekable">1</property>
    <property name="audio_index">0</property>
    <property name="video_index">-1</property>
    <property name="creation_time">2023-12-15T03:28:28</property>
    <property name="astream">0</property>
    <property name="shotcut:skipConvert">1</property>
    <property name="xml">was here</property>
    <property name="shotcut:hash">1e576be92bb44fd7a6249be14533f241</property>
  </chain>
  <chain id="chain69" out="00:00:02.720">
    <property name="length">00:00:02.760</property>
    <property name="eof">pause</property>
    <property name="resource">voice/aaa/aaa_066_アールティーエーの….wav</property>
    <property name="mlt_service">avformat-novalidate</property>
    <property name="meta.media.nb_streams">1</property>
    <property name="meta.media.0.stream.type">audio</property>
    <property name="meta.media.0.codec.sample_fmt">s16</property>
    <property name="meta.media.0.codec.sample_rate">24000</property>
    <property name="meta.media.0.codec.channels">1</property>
    <property name="meta.media.0.codec.name">pcm_s16le</property>
    <property name="meta.media.0.codec.long_name">PCM signed 16-bit little-endian</property>
    <property name="meta.media.0.codec.bit_rate">384000</property>
    <property name="seekable">1</property>
    <property name="audio_index">0</property>
    <property name="video_index">-1</property>
    <property name="creation_time">2023-12-15T03:28:32</property>
    <property name="astream">0</property>
    <property name="shotcut:skipConvert">1</property>
    <property name="xml">was here</property>
    <property name="shotcut:hash">3fc09f960168ae5ada75784c674ad4eb</property>
  </chain>
  <chain id="chain70" out="00:00:04.720">
    <property name="length">00:00:04.760</property>
    <property name="eof">pause</property>
    <property name="resource">voice/aaa/aaa_067_配線，長さを整える….wav</property>
    <property name="mlt_service">avformat-novalidate</property>
    <property name="meta.media.nb_streams">1</property>
    <property name="meta.media.0.stream.type">audio</property>
    <property name="meta.media.0.codec.sample_fmt">s16</property>
    <property name="meta.media.0.codec.sample_rate">24000</property>
    <property name="meta.media.0.codec.channels">1</property>
    <property name="meta.media.0.codec.name">pcm_s16le</property>
    <property name="meta.media.0.codec.long_name">PCM signed 16-bit little-endian</property>
    <property name="meta.media.0.codec.bit_rate">384000</property>
    <property name="seekable">1</property>
    <property name="audio_index">0</property>
    <property name="video_index">-1</property>
    <property name="creation_time">2023-12-15T03:28:35</property>
    <property name="astream">0</property>
    <property name="shotcut:skipConvert">1</property>
    <property name="xml">was here</property>
    <property name="shotcut:hash">3611ea107044a7868fd5c81535e15706</property>
  </chain>
  <chain id="chain71" out="00:00:03.520">
    <property name="length">00:00:03.560</property>
    <property name="eof">pause</property>
    <property name="resource">voice/aaa/aaa_068_を両端で行い，最後….wav</property>
    <property name="mlt_service">avformat-novalidate</property>
    <property name="meta.media.nb_streams">1</property>
    <property name="meta.media.0.stream.type">audio</property>
    <property name="meta.media.0.codec.sample_fmt">s16</property>
    <property name="meta.media.0.codec.sample_rate">24000</property>
    <property name="meta.media.0.codec.channels">1</property>
    <property name="meta.media.0.codec.name">pcm_s16le</property>
    <property name="meta.media.0.codec.long_name">PCM signed 16-bit little-endian</property>
    <property name="meta.media.0.codec.bit_rate">384000</property>
    <property name="seekable">1</property>
    <property name="audio_index">0</property>
    <property name="video_index">-1</property>
    <property name="creation_time">2023-12-15T03:28:34</property>
    <property name="astream">0</property>
    <property name="shotcut:skipConvert">1</property>
    <property name="xml">was here</property>
    <property name="shotcut:hash">e6640792e01fb210a5e078839ce23104</property>
  </chain>
  <chain id="chain72" out="00:00:02.840">
    <property name="length">00:00:02.880</property>
    <property name="eof">pause</property>
    <property name="resource">voice/aaa/aaa_069_雰囲気だけ掴んでも….wav</property>
    <property name="mlt_service">avformat-novalidate</property>
    <property name="meta.media.nb_streams">1</property>
    <property name="meta.media.0.stream.type">audio</property>
    <property name="meta.media.0.codec.sample_fmt">s16</property>
    <property name="meta.media.0.codec.sample_rate">24000</property>
    <property name="meta.media.0.codec.channels">1</property>
    <property name="meta.media.0.codec.name">pcm_s16le</property>
    <property name="meta.media.0.codec.long_name">PCM signed 16-bit little-endian</property>
    <property name="meta.media.0.codec.bit_rate">384000</property>
    <property name="seekable">1</property>
    <property name="audio_index">0</property>
    <property name="video_index">-1</property>
    <property name="creation_time">2023-12-15T03:28:34</property>
    <property name="astream">0</property>
    <property name="shotcut:skipConvert">1</property>
    <property name="xml">was here</property>
    <property name="shotcut:hash">ed2e342abb2a4f5154ad43899cbf0343</property>
  </chain>
  <chain id="chain73" out="00:00:04.040">
    <property name="length">00:00:04.080</property>
    <property name="eof">pause</property>
    <property name="resource">voice/aaa/aaa_070_さて，準備ができた….wav</property>
    <property name="mlt_service">avformat-novalidate</property>
    <property name="meta.media.nb_streams">1</property>
    <property name="meta.media.0.stream.type">audio</property>
    <property name="meta.media.0.codec.sample_fmt">s16</property>
    <property name="meta.media.0.codec.sample_rate">24000</property>
    <property name="meta.media.0.codec.channels">1</property>
    <property name="meta.media.0.codec.name">pcm_s16le</property>
    <property name="meta.media.0.codec.long_name">PCM signed 16-bit little-endian</property>
    <property name="meta.media.0.codec.bit_rate">384000</property>
    <property name="seekable">1</property>
    <property name="audio_index">0</property>
    <property name="video_index">-1</property>
    <property name="creation_time">2023-12-15T03:28:39</property>
    <property name="astream">0</property>
    <property name="shotcut:skipConvert">1</property>
    <property name="xml">was here</property>
    <property name="shotcut:hash">fe5bb3335794e537549ad93828397db4</property>
  </chain>
  <chain id="chain74" out="00:00:03.640">
    <property name="length">00:00:03.680</property>
    <property name="eof">pause</property>
    <property name="resource">voice/aaa/aaa_071_LANケーブルを手….wav</property>
    <property name="mlt_service">avformat-novalidate</property>
    <property name="meta.media.nb_streams">1</property>
    <property name="meta.media.0.stream.type">audio</property>
    <property name="meta.media.0.codec.sample_fmt">s16</property>
    <property name="meta.media.0.codec.sample_rate">24000</property>
    <property name="meta.media.0.codec.channels">1</property>
    <property name="meta.media.0.codec.name">pcm_s16le</property>
    <property name="meta.media.0.codec.long_name">PCM signed 16-bit little-endian</property>
    <property name="meta.media.0.codec.bit_rate">384000</property>
    <property name="seekable">1</property>
    <property name="audio_index">0</property>
    <property name="video_index">-1</property>
    <property name="creation_time">2023-12-15T03:28:39</property>
    <property name="astream">0</property>
    <property name="shotcut:skipConvert">1</property>
    <property name="xml">was here</property>
    <property name="shotcut:hash">fae7e1a743735d3d96d334e206c93855</property>
  </chain>
  <chain id="chain75" out="00:00:01.920">
    <property name="length">00:00:01.960</property>
    <property name="eof">pause</property>
    <property name="resource">voice/aaa/aaa_072_はい．よーいすたー….wav</property>
    <property name="mlt_service">avformat-novalidate</property>
    <property name="meta.media.nb_streams">1</property>
    <property name="meta.media.0.stream.type">audio</property>
    <property name="meta.media.0.codec.sample_fmt">s16</property>
    <property name="meta.media.0.codec.sample_rate">24000</property>
    <property name="meta.media.0.codec.channels">1</property>
    <property name="meta.media.0.codec.name">pcm_s16le</property>
    <property name="meta.media.0.codec.long_name">PCM signed 16-bit little-endian</property>
    <property name="meta.media.0.codec.bit_rate">384000</property>
    <property name="seekable">1</property>
    <property name="audio_index">0</property>
    <property name="video_index">-1</property>
    <property name="creation_time">2023-12-15T03:28:39</property>
    <property name="astream">0</property>
    <property name="shotcut:skipConvert">1</property>
    <property name="xml">was here</property>
    <property name="shotcut:hash">1ff315dcdb9143321b0651c5e3a0be73</property>
  </chain>
  <chain id="chain76" out="00:00:00.800">
    <property name="length">00:00:00.840</property>
    <property name="eof">pause</property>
    <property name="resource">voice/aaa/aaa_073_start.wav</property>
    <property name="mlt_service">avformat-novalidate</property>
    <property name="meta.media.nb_streams">1</property>
    <property name="meta.media.0.stream.type">audio</property>
    <property name="meta.media.0.codec.sample_fmt">s16</property>
    <property name="meta.media.0.codec.sample_rate">24000</property>
    <property name="meta.media.0.codec.channels">1</property>
    <property name="meta.media.0.codec.name">pcm_s16le</property>
    <property name="meta.media.0.codec.long_name">PCM signed 16-bit little-endian</property>
    <property name="meta.media.0.codec.bit_rate">384000</property>
    <property name="seekable">1</property>
    <property name="audio_index">0</property>
    <property name="video_index">-1</property>
    <property name="creation_time">2023-12-15T03:28:38</property>
    <property name="astream">0</property>
    <property name="shotcut:skipConvert">1</property>
    <property name="xml">was here</property>
    <property name="shotcut:hash">14450324329f7eebaecccc67a9ab94f8</property>
  </chain>
  <chain id="chain77" out="00:00:03.920">
    <property name="length">00:00:03.960</property>
    <property name="eof">pause</property>
    <property name="resource">voice/aaa/aaa_074_wiring1.0….wav</property>
    <property name="mlt_service">avformat-novalidate</property>
    <property name="meta.media.nb_streams">1</property>
    <property name="meta.media.0.stream.type">audio</property>
    <property name="meta.media.0.codec.sample_fmt">s16</property>
    <property name="meta.media.0.codec.sample_rate">24000</property>
    <property name="meta.media.0.codec.channels">1</property>
    <property name="meta.media.0.codec.name">pcm_s16le</property>
    <property name="meta.media.0.codec.long_name">PCM signed 16-bit little-endian</property>
    <property name="meta.media.0.codec.bit_rate">384000</property>
    <property name="seekable">1</property>
    <property name="audio_index">0</property>
    <property name="video_index">-1</property>
    <property name="creation_time">2023-12-15T03:28:45</property>
    <property name="astream">0</property>
    <property name="shotcut:skipConvert">1</property>
    <property name="xml">was here</property>
    <property name="shotcut:hash">cfdba951d366dda1761412675cd01bd4</property>
  </chain>
  <chain id="chain78" out="00:00:05.080">
    <property name="length">00:00:05.120</property>
    <property name="eof">pause</property>
    <property name="resource">voice/aaa/aaa_075_まずはLANケーブ….wav</property>
    <property name="mlt_service">avformat-novalidate</property>
    <property name="meta.media.nb_streams">1</property>
    <property name="meta.media.0.stream.type">audio</property>
    <property name="meta.media.0.codec.sample_fmt">s16</property>
    <property name="meta.media.0.codec.sample_rate">24000</property>
    <property name="meta.media.0.codec.channels">1</property>
    <property name="meta.media.0.codec.name">pcm_s16le</property>
    <property name="meta.media.0.codec.long_name">PCM signed 16-bit little-endian</property>
    <property name="meta.media.0.codec.bit_rate">384000</property>
    <property name="seekable">1</property>
    <property name="audio_index">0</property>
    <property name="video_index">-1</property>
    <property name="creation_time">2023-12-15T03:28:47</property>
    <property name="astream">0</property>
    <property name="shotcut:skipConvert">1</property>
    <property name="xml">was here</property>
    <property name="shotcut:hash">a995e78614912b595bb7f90e5a31323e</property>
  </chain>
  <chain id="chain79" out="00:00:04.440">
    <property name="length">00:00:04.480</property>
    <property name="eof">pause</property>
    <property name="resource">voice/aaa/aaa_076_うぷぬしは天才なの….wav</property>
    <property name="mlt_service">avformat-novalidate</property>
    <property name="meta.media.nb_streams">1</property>
    <property name="meta.media.0.stream.type">audio</property>
    <property name="meta.media.0.codec.sample_fmt">s16</property>
    <property name="meta.media.0.codec.sample_rate">24000</property>
    <property name="meta.media.0.codec.channels">1</property>
    <property name="meta.media.0.codec.name">pcm_s16le</property>
    <property name="meta.media.0.codec.long_name">PCM signed 16-bit little-endian</property>
    <property name="meta.media.0.codec.bit_rate">384000</property>
    <property name="seekable">1</property>
    <property name="audio_index">0</property>
    <property name="video_index">-1</property>
    <property name="creation_time">2023-12-15T03:28:50</property>
    <property name="astream">0</property>
    <property name="shotcut:skipConvert">1</property>
    <property name="xml">was here</property>
    <property name="shotcut:hash">8be705b87fe1cc015e3461f28c46d20f</property>
  </chain>
  <chain id="chain80" out="00:00:06.440">
    <property name="length">00:00:06.480</property>
    <property name="eof">pause</property>
    <property name="resource">voice/aaa/aaa_077_ですが，記憶力がハ….wav</property>
    <property name="mlt_service">avformat-novalidate</property>
    <property name="meta.media.nb_streams">1</property>
    <property name="meta.media.0.stream.type">audio</property>
    <property name="meta.media.0.codec.sample_fmt">s16</property>
    <property name="meta.media.0.codec.sample_rate">24000</property>
    <property name="meta.media.0.codec.channels">1</property>
    <property name="meta.media.0.codec.name">pcm_s16le</property>
    <property name="meta.media.0.codec.long_name">PCM signed 16-bit little-endian</property>
    <property name="meta.media.0.codec.bit_rate">384000</property>
    <property name="seekable">1</property>
    <property name="audio_index">0</property>
    <property name="video_index">-1</property>
    <property name="creation_time">2023-12-15T03:28:53</property>
    <property name="astream">0</property>
    <property name="shotcut:skipConvert">1</property>
    <property name="xml">was here</property>
    <property name="shotcut:hash">b49a9f262cd397492710c6dac84ef1f0</property>
  </chain>
  <chain id="chain81" out="00:00:02.480">
    <property name="length">00:00:02.520</property>
    <property name="eof">pause</property>
    <property name="resource">voice/aaa/aaa_078_wiring1.0.wav</property>
    <property name="mlt_service">avformat-novalidate</property>
    <property name="meta.media.nb_streams">1</property>
    <property name="meta.media.0.stream.type">audio</property>
    <property name="meta.media.0.codec.sample_fmt">s16</property>
    <property name="meta.media.0.codec.sample_rate">24000</property>
    <property name="meta.media.0.codec.channels">1</property>
    <property name="meta.media.0.codec.name">pcm_s16le</property>
    <property name="meta.media.0.codec.long_name">PCM signed 16-bit little-endian</property>
    <property name="meta.media.0.codec.bit_rate">384000</property>
    <property name="seekable">1</property>
    <property name="audio_index">0</property>
    <property name="video_index">-1</property>
    <property name="creation_time">2023-12-15T03:28:47</property>
    <property name="astream">0</property>
    <property name="shotcut:skipConvert">1</property>
    <property name="xml">was here</property>
    <property name="shotcut:hash">b726b7d5cd162aa10b85e612b693da7a</property>
  </chain>
  <chain id="chain82" out="00:00:03.280">
    <property name="length">00:00:03.320</property>
    <property name="eof">pause</property>
    <property name="resource">voice/aaa/aaa_079_ゆーてぃーぴー-エ….wav</property>
    <property name="mlt_service">avformat-novalidate</property>
    <property name="meta.media.nb_streams">1</property>
    <property name="meta.media.0.stream.type">audio</property>
    <property name="meta.media.0.codec.sample_fmt">s16</property>
    <property name="meta.media.0.codec.sample_rate">24000</property>
    <property name="meta.media.0.codec.channels">1</property>
    <property name="meta.media.0.codec.name">pcm_s16le</property>
    <property name="meta.media.0.codec.long_name">PCM signed 16-bit little-endian</property>
    <property name="meta.media.0.codec.bit_rate">384000</property>
    <property name="seekable">1</property>
    <property name="audio_index">0</property>
    <property name="video_index">-1</property>
    <property name="creation_time">2023-12-15T03:28:50</property>
    <property name="astream">0</property>
    <property name="shotcut:skipConvert">1</property>
    <property name="xml">was here</property>
    <property name="shotcut:hash">482ce14a400cd3be28c28b3ec02ccd3f</property>
  </chain>
  <chain id="chain83" out="00:00:03.360">
    <property name="length">00:00:03.400</property>
    <property name="eof">pause</property>
    <property name="resource">voice/aaa/aaa_080_ここで先程のゆーて….wav</property>
    <property name="mlt_service">avformat-novalidate</property>
    <property name="meta.media.nb_streams">1</property>
    <property name="meta.media.0.stream.type">audio</property>
    <property name="meta.media.0.codec.sample_fmt">s16</property>
    <property name="meta.media.0.codec.sample_rate">24000</property>
    <property name="meta.media.0.codec.channels">1</property>
    <property name="meta.media.0.codec.name">pcm_s16le</property>
    <property name="meta.media.0.codec.long_name">PCM signed 16-bit little-endian</property>
    <property name="meta.media.0.codec.bit_rate">384000</property>
    <property name="seekable">1</property>
    <property name="audio_index">0</property>
    <property name="video_index">-1</property>
    <property name="creation_time">2023-12-15T03:28:55</property>
    <property name="astream">0</property>
    <property name="shotcut:skipConvert">1</property>
    <property name="xml">was here</property>
    <property name="shotcut:hash">95eb9a25492ab90f9aadf4f5dd378c0d</property>
  </chain>
  <chain id="chain84" out="00:00:09.560">
    <property name="length">00:00:09.600</property>
    <property name="eof">pause</property>
    <property name="resource">voice/aaa/aaa_081_ゆーてぃーぴー.wav</property>
    <property name="mlt_service">avformat-novalidate</property>
    <property name="meta.media.nb_streams">1</property>
    <property name="meta.media.0.stream.type">audio</property>
    <property name="meta.media.0.codec.sample_fmt">s16</property>
    <property name="meta.media.0.codec.sample_rate">24000</property>
    <property name="meta.media.0.codec.channels">1</property>
    <property name="meta.media.0.codec.name">pcm_s16le</property>
    <property name="meta.media.0.codec.long_name">PCM signed 16-bit little-endian</property>
    <property name="meta.media.0.codec.bit_rate">384000</property>
    <property name="seekable">1</property>
    <property name="audio_index">0</property>
    <property name="video_index">-1</property>
    <property name="creation_time">2023-12-15T03:29:10</property>
    <property name="astream">0</property>
    <property name="shotcut:skipConvert">1</property>
    <property name="xml">was here</property>
    <property name="shotcut:hash">f55832d1c19b8942ee04eff99707a602</property>
  </chain>
  <chain id="chain85" out="00:00:09.960">
    <property name="length">00:00:10.000</property>
    <property name="eof">pause</property>
    <property name="resource">voice/aaa/aaa_082_それに対して，エス….wav</property>
    <property name="mlt_service">avformat-novalidate</property>
    <property name="meta.media.nb_streams">1</property>
    <property name="meta.media.0.stream.type">audio</property>
    <property name="meta.media.0.codec.sample_fmt">s16</property>
    <property name="meta.media.0.codec.sample_rate">24000</property>
    <property name="meta.media.0.codec.channels">1</property>
    <property name="meta.media.0.codec.name">pcm_s16le</property>
    <property name="meta.media.0.codec.long_name">PCM signed 16-bit little-endian</property>
    <property name="meta.media.0.codec.bit_rate">384000</property>
    <property name="seekable">1</property>
    <property name="audio_index">0</property>
    <property name="video_index">-1</property>
    <property name="creation_time">2023-12-15T03:29:10</property>
    <property name="astream">0</property>
    <property name="shotcut:skipConvert">1</property>
    <property name="xml">was here</property>
    <property name="shotcut:hash">c7e585ed208aa60601e3cf6437edb351</property>
  </chain>
  <chain id="chain86" out="00:00:05.520">
    <property name="length">00:00:05.560</property>
    <property name="eof">pause</property>
    <property name="resource">voice/aaa/aaa_083_当然，エスティーピ….wav</property>
    <property name="mlt_service">avformat-novalidate</property>
    <property name="meta.media.nb_streams">1</property>
    <property name="meta.media.0.stream.type">audio</property>
    <property name="meta.media.0.codec.sample_fmt">s16</property>
    <property name="meta.media.0.codec.sample_rate">24000</property>
    <property name="meta.media.0.codec.channels">1</property>
    <property name="meta.media.0.codec.name">pcm_s16le</property>
    <property name="meta.media.0.codec.long_name">PCM signed 16-bit little-endian</property>
    <property name="meta.media.0.codec.bit_rate">384000</property>
    <property name="seekable">1</property>
    <property name="audio_index">0</property>
    <property name="video_index">-1</property>
    <property name="creation_time">2023-12-15T03:29:05</property>
    <property name="astream">0</property>
    <property name="shotcut:skipConvert">1</property>
    <property name="xml">was here</property>
    <property name="shotcut:hash">6f1018327d154c7fea3f53979c9d8954</property>
  </chain>
  <chain id="chain87" out="00:00:07.920">
    <property name="length">00:00:07.960</property>
    <property name="eof">pause</property>
    <property name="resource">voice/aaa/aaa_084_今回はゆーてぃーぴ….wav</property>
    <property name="mlt_service">avformat-novalidate</property>
    <property name="meta.media.nb_streams">1</property>
    <property name="meta.media.0.stream.type">audio</property>
    <property name="meta.media.0.codec.sample_fmt">s16</property>
    <property name="meta.media.0.codec.sample_rate">24000</property>
    <property name="meta.media.0.codec.channels">1</property>
    <property name="meta.media.0.codec.name">pcm_s16le</property>
    <property name="meta.media.0.codec.long_name">PCM signed 16-bit little-endian</property>
    <property name="meta.media.0.codec.bit_rate">384000</property>
    <property name="seekable">1</property>
    <property name="audio_index">0</property>
    <property name="video_index">-1</property>
    <property name="creation_time">2023-12-15T03:29:08</property>
    <property name="astream">0</property>
    <property name="shotcut:skipConvert">1</property>
    <property name="xml">was here</property>
    <property name="shotcut:hash">3fa13f53f9444950d2d4e25efb54905a</property>
  </chain>
  <chain id="chain88" out="00:00:02.080">
    <property name="length">00:00:02.120</property>
    <property name="eof">pause</property>
    <property name="resource">voice/aaa/aaa_085_ゆーてぃーぴー-エ….wav</property>
    <property name="mlt_service">avformat-novalidate</property>
    <property name="meta.media.nb_streams">1</property>
    <property name="meta.media.0.stream.type">audio</property>
    <property name="meta.media.0.codec.sample_fmt">s16</property>
    <property name="meta.media.0.codec.sample_rate">24000</property>
    <property name="meta.media.0.codec.channels">1</property>
    <property name="meta.media.0.codec.name">pcm_s16le</property>
    <property name="meta.media.0.codec.long_name">PCM signed 16-bit little-endian</property>
    <property name="meta.media.0.codec.bit_rate">384000</property>
    <property name="seekable">1</property>
    <property name="audio_index">0</property>
    <property name="video_index">-1</property>
    <property name="creation_time">2023-12-15T03:29:02</property>
    <property name="astream">0</property>
    <property name="shotcut:skipConvert">1</property>
    <property name="xml">was here</property>
    <property name="shotcut:hash">036b98be3b44b4ad50fa2a58c0f4ca36</property>
  </chain>
  <chain id="chain89" out="00:00:02.640">
    <property name="length">00:00:02.680</property>
    <property name="eof">pause</property>
    <property name="resource">voice/aaa/aaa_086_wiring1.1.wav</property>
    <property name="mlt_service">avformat-novalidate</property>
    <property name="meta.media.nb_streams">1</property>
    <property name="meta.media.0.stream.type">audio</property>
    <property name="meta.media.0.codec.sample_fmt">s16</property>
    <property name="meta.media.0.codec.sample_rate">24000</property>
    <property name="meta.media.0.codec.channels">1</property>
    <property name="meta.media.0.codec.name">pcm_s16le</property>
    <property name="meta.media.0.codec.long_name">PCM signed 16-bit little-endian</property>
    <property name="meta.media.0.codec.bit_rate">384000</property>
    <property name="seekable">1</property>
    <property name="audio_index">0</property>
    <property name="video_index">-1</property>
    <property name="creation_time">2023-12-15T03:29:04</property>
    <property name="astream">0</property>
    <property name="shotcut:skipConvert">1</property>
    <property name="xml">was here</property>
    <property name="shotcut:hash">5567114d747610d44de51096d0dda5c6</property>
  </chain>
  <chain id="chain90" out="00:00:03.600">
    <property name="length">00:00:03.640</property>
    <property name="eof">pause</property>
    <property name="resource">voice/aaa/aaa_087_やはりハトなので，….wav</property>
    <property name="mlt_service">avformat-novalidate</property>
    <property name="meta.media.nb_streams">1</property>
    <property name="meta.media.0.stream.type">audio</property>
    <property name="meta.media.0.codec.sample_fmt">s16</property>
    <property name="meta.media.0.codec.sample_rate">24000</property>
    <property name="meta.media.0.codec.channels">1</property>
    <property name="meta.media.0.codec.name">pcm_s16le</property>
    <property name="meta.media.0.codec.long_name">PCM signed 16-bit little-endian</property>
    <property name="meta.media.0.codec.bit_rate">384000</property>
    <property name="seekable">1</property>
    <property name="audio_index">0</property>
    <property name="video_index">-1</property>
    <property name="creation_time">2023-12-15T03:29:11</property>
    <property name="astream">0</property>
    <property name="shotcut:skipConvert">1</property>
    <property name="xml">was here</property>
    <property name="shotcut:hash">d21ade446104c7af4bfc629582e5f8e2</property>
  </chain>
  <chain id="chain91" out="00:00:04.720">
    <property name="length">00:00:04.760</property>
    <property name="eof">pause</property>
    <property name="resource">voice/aaa/aaa_088_配線にまだまだ時間….wav</property>
    <property name="mlt_service">avformat-novalidate</property>
    <property name="meta.media.nb_streams">1</property>
    <property name="meta.media.0.stream.type">audio</property>
    <property name="meta.media.0.codec.sample_fmt">s16</property>
    <property name="meta.media.0.codec.sample_rate">24000</property>
    <property name="meta.media.0.codec.channels">1</property>
    <property name="meta.media.0.codec.name">pcm_s16le</property>
    <property name="meta.media.0.codec.long_name">PCM signed 16-bit little-endian</property>
    <property name="meta.media.0.codec.bit_rate">384000</property>
    <property name="seekable">1</property>
    <property name="audio_index">0</property>
    <property name="video_index">-1</property>
    <property name="creation_time">2023-12-15T03:29:13</property>
    <property name="astream">0</property>
    <property name="shotcut:skipConvert">1</property>
    <property name="xml">was here</property>
    <property name="shotcut:hash">d8b4ffb323574c8720e9c1cb4f294e64</property>
  </chain>
  <chain id="chain92" out="00:00:02.640">
    <property name="length">00:00:02.680</property>
    <property name="eof">pause</property>
    <property name="resource">voice/aaa/aaa_089_wiring1.1.wav</property>
    <property name="mlt_service">avformat-novalidate</property>
    <property name="meta.media.nb_streams">1</property>
    <property name="meta.media.0.stream.type">audio</property>
    <property name="meta.media.0.codec.sample_fmt">s16</property>
    <property name="meta.media.0.codec.sample_rate">24000</property>
    <property name="meta.media.0.codec.channels">1</property>
    <property name="meta.media.0.codec.name">pcm_s16le</property>
    <property name="meta.media.0.codec.long_name">PCM signed 16-bit little-endian</property>
    <property name="meta.media.0.codec.bit_rate">384000</property>
    <property name="seekable">1</property>
    <property name="audio_index">0</property>
    <property name="video_index">-1</property>
    <property name="creation_time">2023-12-15T03:29:12</property>
    <property name="astream">0</property>
    <property name="shotcut:skipConvert">1</property>
    <property name="xml">was here</property>
    <property name="shotcut:hash">5567114d747610d44de51096d0dda5c6</property>
  </chain>
  <chain id="chain93" out="00:00:00.160">
    <property name="length">00:00:00.200</property>
    <property name="eof">pause</property>
    <property name="resource">voice/bbb/bbb_001_.wav</property>
    <property name="mlt_service">avformat-novalidate</property>
    <property name="meta.media.nb_streams">1</property>
    <property name="meta.media.0.stream.type">audio</property>
    <property name="meta.media.0.codec.sample_fmt">s16</property>
    <property name="meta.media.0.codec.sample_rate">24000</property>
    <property name="meta.media.0.codec.channels">1</property>
    <property name="meta.media.0.codec.name">pcm_s16le</property>
    <property name="meta.media.0.codec.long_name">PCM signed 16-bit little-endian</property>
    <property name="meta.media.0.codec.bit_rate">384000</property>
    <property name="seekable">1</property>
    <property name="audio_index">0</property>
    <property name="video_index">-1</property>
    <property name="creation_time">2023-12-15T04:04:54</property>
    <property name="astream">0</property>
    <property name="shotcut:skipConvert">1</property>
    <property name="xml">was here</property>
    <property name="shotcut:hash">22dd28192b7d2333d8d7510ce523aa81</property>
  </chain>
  <chain id="chain94" out="00:00:07.120">
    <property name="length">00:00:07.160</property>
    <property name="eof">pause</property>
    <property name="resource">voice/bbb/bbb_002_そういえばみなさん….wav</property>
    <property name="mlt_service">avformat-novalidate</property>
    <property name="meta.media.nb_streams">1</property>
    <property name="meta.media.0.stream.type">audio</property>
    <property name="meta.media.0.codec.sample_fmt">s16</property>
    <property name="meta.media.0.codec.sample_rate">24000</property>
    <property name="meta.media.0.codec.channels">1</property>
    <property name="meta.media.0.codec.name">pcm_s16le</property>
    <property name="meta.media.0.codec.long_name">PCM signed 16-bit little-endian</property>
    <property name="meta.media.0.codec.bit_rate">384000</property>
    <property name="seekable">1</property>
    <property name="audio_index">0</property>
    <property name="video_index">-1</property>
    <property name="creation_time">2023-12-15T04:05:07</property>
    <property name="astream">0</property>
    <property name="shotcut:skipConvert">1</property>
    <property name="xml">was here</property>
    <property name="shotcut:hash">917540bb9aa8785037e3c3dbfaca99c3</property>
    <property name="ignore_points">1</property>
    <property name="shotcut:caption">bbb_002_そういえばみなさん….wav</property>
  </chain>
  <chain id="chain95" out="00:00:04.400">
    <property name="length">00:00:04.440</property>
    <property name="eof">pause</property>
    <property name="resource">voice/bbb/bbb_003_もしカテゴリという….wav</property>
    <property name="mlt_service">avformat-novalidate</property>
    <property name="meta.media.nb_streams">1</property>
    <property name="meta.media.0.stream.type">audio</property>
    <property name="meta.media.0.codec.sample_fmt">s16</property>
    <property name="meta.media.0.codec.sample_rate">24000</property>
    <property name="meta.media.0.codec.channels">1</property>
    <property name="meta.media.0.codec.name">pcm_s16le</property>
    <property name="meta.media.0.codec.long_name">PCM signed 16-bit little-endian</property>
    <property name="meta.media.0.codec.bit_rate">384000</property>
    <property name="seekable">1</property>
    <property name="audio_index">0</property>
    <property name="video_index">-1</property>
    <property name="creation_time">2023-12-17T09:07:28</property>
    <property name="astream">0</property>
    <property name="shotcut:skipConvert">0</property>
    <property name="shotcut:hash">be49c7e50925041ec25a4e203a27ff10</property>
    <property name="ignore_points">0</property>
    <property name="shotcut:caption">bbb_003_もしカテゴリという….wav</property>
    <property name="xml">was here</property>
  </chain>
  <chain id="chain96" out="00:00:03.400">
    <property name="length">00:00:03.440</property>
    <property name="eof">pause</property>
    <property name="resource">voice/bbb/bbb_004_是非次からは意識し….wav</property>
    <property name="mlt_service">avformat-novalidate</property>
    <property name="meta.media.nb_streams">1</property>
    <property name="meta.media.0.stream.type">audio</property>
    <property name="meta.media.0.codec.sample_fmt">s16</property>
    <property name="meta.media.0.codec.sample_rate">24000</property>
    <property name="meta.media.0.codec.channels">1</property>
    <property name="meta.media.0.codec.name">pcm_s16le</property>
    <property name="meta.media.0.codec.long_name">PCM signed 16-bit little-endian</property>
    <property name="meta.media.0.codec.bit_rate">384000</property>
    <property name="seekable">1</property>
    <property name="audio_index">0</property>
    <property name="video_index">-1</property>
    <property name="creation_time">2023-12-15T04:05:01</property>
    <property name="astream">0</property>
    <property name="shotcut:skipConvert">1</property>
    <property name="xml">was here</property>
    <property name="shotcut:hash">32b365cfd531aab1b4acdb44301eea79</property>
  </chain>
  <chain id="chain97" out="00:00:04.640">
    <property name="length">00:00:04.680</property>
    <property name="eof">pause</property>
    <property name="resource">voice/bbb/bbb_005_カテゴリとは通信速….wav</property>
    <property name="mlt_service">avformat-novalidate</property>
    <property name="meta.media.nb_streams">1</property>
    <property name="meta.media.0.stream.type">audio</property>
    <property name="meta.media.0.codec.sample_fmt">s16</property>
    <property name="meta.media.0.codec.sample_rate">24000</property>
    <property name="meta.media.0.codec.channels">1</property>
    <property name="meta.media.0.codec.name">pcm_s16le</property>
    <property name="meta.media.0.codec.long_name">PCM signed 16-bit little-endian</property>
    <property name="meta.media.0.codec.bit_rate">384000</property>
    <property name="seekable">1</property>
    <property name="audio_index">0</property>
    <property name="video_index">-1</property>
    <property name="creation_time">2023-12-15T04:05:03</property>
    <property name="astream">0</property>
    <property name="shotcut:skipConvert">1</property>
    <property name="xml">was here</property>
    <property name="shotcut:hash">eb6ddd499a48952c0d29e5cdb0df07fe</property>
  </chain>
  <chain id="chain98" out="00:00:05.640">
    <property name="length">00:00:05.680</property>
    <property name="eof">pause</property>
    <property name="resource">voice/bbb/bbb_006_なので，カテゴリを….wav</property>
    <property name="mlt_service">avformat-novalidate</property>
    <property name="meta.media.nb_streams">1</property>
    <property name="meta.media.0.stream.type">audio</property>
    <property name="meta.media.0.codec.sample_fmt">s16</property>
    <property name="meta.media.0.codec.sample_rate">24000</property>
    <property name="meta.media.0.codec.channels">1</property>
    <property name="meta.media.0.codec.name">pcm_s16le</property>
    <property name="meta.media.0.codec.long_name">PCM signed 16-bit little-endian</property>
    <property name="meta.media.0.codec.bit_rate">384000</property>
    <property name="seekable">1</property>
    <property name="audio_index">0</property>
    <property name="video_index">-1</property>
    <property name="creation_time">2023-12-15T04:05:05</property>
    <property name="astream">0</property>
    <property name="shotcut:skipConvert">1</property>
    <property name="xml">was here</property>
    <property name="shotcut:hash">d985e53e22d3a9975513fe12e3de4c2e</property>
  </chain>
  <chain id="chain99" out="00:00:04.880">
    <property name="length">00:00:04.920</property>
    <property name="eof">pause</property>
    <property name="resource">voice/bbb/bbb_007_ちなみに前に述べた….wav</property>
    <property name="mlt_service">avformat-novalidate</property>
    <property name="meta.media.nb_streams">1</property>
    <property name="meta.media.0.stream.type">audio</property>
    <property name="meta.media.0.codec.sample_fmt">s16</property>
    <property name="meta.media.0.codec.sample_rate">24000</property>
    <property name="meta.media.0.codec.channels">1</property>
    <property name="meta.media.0.codec.name">pcm_s16le</property>
    <property name="meta.media.0.codec.long_name">PCM signed 16-bit little-endian</property>
    <property name="meta.media.0.codec.bit_rate">384000</property>
    <property name="seekable">1</property>
    <property name="audio_index">0</property>
    <property name="video_index">-1</property>
    <property name="creation_time">2023-12-15T04:05:06</property>
    <property name="astream">0</property>
    <property name="shotcut:skipConvert">1</property>
    <property name="xml">was here</property>
    <property name="shotcut:hash">ad70f5fed08ad6510fa9d4f7b59edac3</property>
  </chain>
  <chain id="chain100" out="00:00:04.920">
    <property name="length">00:00:04.960</property>
    <property name="eof">pause</property>
    <property name="resource">voice/bbb/bbb_008_一定以上のカテゴリ….wav</property>
    <property name="mlt_service">avformat-novalidate</property>
    <property name="meta.media.nb_streams">1</property>
    <property name="meta.media.0.stream.type">audio</property>
    <property name="meta.media.0.codec.sample_fmt">s16</property>
    <property name="meta.media.0.codec.sample_rate">24000</property>
    <property name="meta.media.0.codec.channels">1</property>
    <property name="meta.media.0.codec.name">pcm_s16le</property>
    <property name="meta.media.0.codec.long_name">PCM signed 16-bit little-endian</property>
    <property name="meta.media.0.codec.bit_rate">384000</property>
    <property name="seekable">1</property>
    <property name="audio_index">0</property>
    <property name="video_index">-1</property>
    <property name="creation_time">2023-12-15T04:05:13</property>
    <property name="astream">0</property>
    <property name="shotcut:skipConvert">1</property>
    <property name="xml">was here</property>
    <property name="shotcut:hash">a2c7d6de5cd5c744c65833dba0ddf833</property>
  </chain>
  <chain id="chain101" out="00:00:02.360">
    <property name="length">00:00:02.400</property>
    <property name="eof">pause</property>
    <property name="resource">voice/bbb/bbb_009_気になる人は調べて….wav</property>
    <property name="mlt_service">avformat-novalidate</property>
    <property name="meta.media.nb_streams">1</property>
    <property name="meta.media.0.stream.type">audio</property>
    <property name="meta.media.0.codec.sample_fmt">s16</property>
    <property name="meta.media.0.codec.sample_rate">24000</property>
    <property name="meta.media.0.codec.channels">1</property>
    <property name="meta.media.0.codec.name">pcm_s16le</property>
    <property name="meta.media.0.codec.long_name">PCM signed 16-bit little-endian</property>
    <property name="meta.media.0.codec.bit_rate">384000</property>
    <property name="seekable">1</property>
    <property name="audio_index">0</property>
    <property name="video_index">-1</property>
    <property name="creation_time">2023-12-15T04:05:10</property>
    <property name="astream">0</property>
    <property name="shotcut:skipConvert">1</property>
    <property name="xml">was here</property>
    <property name="shotcut:hash">6ec064725a7d02618edf0555e8fffeea</property>
  </chain>
  <chain id="chain102" out="00:00:06.640">
    <property name="length">00:00:06.680</property>
    <property name="eof">pause</property>
    <property name="resource">voice/bbb/bbb_010_図にあるとおり，数….wav</property>
    <property name="mlt_service">avformat-novalidate</property>
    <property name="meta.media.nb_streams">1</property>
    <property name="meta.media.0.stream.type">audio</property>
    <property name="meta.media.0.codec.sample_fmt">s16</property>
    <property name="meta.media.0.codec.sample_rate">24000</property>
    <property name="meta.media.0.codec.channels">1</property>
    <property name="meta.media.0.codec.name">pcm_s16le</property>
    <property name="meta.media.0.codec.long_name">PCM signed 16-bit little-endian</property>
    <property name="meta.media.0.codec.bit_rate">384000</property>
    <property name="seekable">1</property>
    <property name="audio_index">0</property>
    <property name="video_index">-1</property>
    <property name="creation_time">2023-12-15T04:05:19</property>
    <property name="astream">0</property>
    <property name="shotcut:skipConvert">1</property>
    <property name="xml">was here</property>
    <property name="shotcut:hash">65ec90f9331bdd77fb30b6e3efeeb824</property>
  </chain>
  <chain id="chain103" out="00:00:09.440">
    <property name="length">00:00:09.480</property>
    <property name="eof">pause</property>
    <property name="resource">voice/bbb/bbb_011_通信速度の速いケー….wav</property>
    <property name="mlt_service">avformat-novalidate</property>
    <property name="meta.media.nb_streams">1</property>
    <property name="meta.media.0.stream.type">audio</property>
    <property name="meta.media.0.codec.sample_fmt">s16</property>
    <property name="meta.media.0.codec.sample_rate">24000</property>
    <property name="meta.media.0.codec.channels">1</property>
    <property name="meta.media.0.codec.name">pcm_s16le</property>
    <property name="meta.media.0.codec.long_name">PCM signed 16-bit little-endian</property>
    <property name="meta.media.0.codec.bit_rate">384000</property>
    <property name="seekable">1</property>
    <property name="audio_index">0</property>
    <property name="video_index">-1</property>
    <property name="creation_time">2023-12-15T04:05:24</property>
    <property name="astream">0</property>
    <property name="shotcut:skipConvert">1</property>
    <property name="xml">was here</property>
    <property name="shotcut:hash">aba94a10880608a485b615dee5ec3133</property>
  </chain>
  <chain id="chain104" out="00:00:10.440">
    <property name="length">00:00:10.480</property>
    <property name="eof">pause</property>
    <property name="resource">voice/bbb/bbb_012_そのため，要件を満….wav</property>
    <property name="mlt_service">avformat-novalidate</property>
    <property name="meta.media.nb_streams">1</property>
    <property name="meta.media.0.stream.type">audio</property>
    <property name="meta.media.0.codec.sample_fmt">s16</property>
    <property name="meta.media.0.codec.sample_rate">24000</property>
    <property name="meta.media.0.codec.channels">1</property>
    <property name="meta.media.0.codec.name">pcm_s16le</property>
    <property name="meta.media.0.codec.long_name">PCM signed 16-bit little-endian</property>
    <property name="meta.media.0.codec.bit_rate">384000</property>
    <property name="seekable">1</property>
    <property name="audio_index">0</property>
    <property name="video_index">-1</property>
    <property name="creation_time">2023-12-15T04:05:26</property>
    <property name="astream">0</property>
    <property name="shotcut:skipConvert">1</property>
    <property name="xml">was here</property>
    <property name="shotcut:hash">70ecf4023b715a182dc4767cf94a67e3</property>
  </chain>
  <chain id="chain105" out="00:00:00.840">
    <property name="length">00:00:00.880</property>
    <property name="eof">pause</property>
    <property name="resource">voice/bbb/bbb_013_カテゴリ.wav</property>
    <property name="mlt_service">avformat-novalidate</property>
    <property name="meta.media.nb_streams">1</property>
    <property name="meta.media.0.stream.type">audio</property>
    <property name="meta.media.0.codec.sample_fmt">s16</property>
    <property name="meta.media.0.codec.sample_rate">24000</property>
    <property name="meta.media.0.codec.channels">1</property>
    <property name="meta.media.0.codec.name">pcm_s16le</property>
    <property name="meta.media.0.codec.long_name">PCM signed 16-bit little-endian</property>
    <property name="meta.media.0.codec.bit_rate">384000</property>
    <property name="seekable">1</property>
    <property name="audio_index">0</property>
    <property name="video_index">-1</property>
    <property name="creation_time">2023-12-15T04:05:11</property>
    <property name="astream">0</property>
    <property name="shotcut:skipConvert">1</property>
    <property name="xml">was here</property>
    <property name="shotcut:hash">572ba6a860d0444eac1742a26bc5df4b</property>
  </chain>
  <chain id="chain106" out="00:00:02.080">
    <property name="length">00:00:02.120</property>
    <property name="eof">pause</property>
    <property name="resource">voice/bbb/bbb_014_arrange1.wav</property>
    <property name="mlt_service">avformat-novalidate</property>
    <property name="meta.media.nb_streams">1</property>
    <property name="meta.media.0.stream.type">audio</property>
    <property name="meta.media.0.codec.sample_fmt">s16</property>
    <property name="meta.media.0.codec.sample_rate">24000</property>
    <property name="meta.media.0.codec.channels">1</property>
    <property name="meta.media.0.codec.name">pcm_s16le</property>
    <property name="meta.media.0.codec.long_name">PCM signed 16-bit little-endian</property>
    <property name="meta.media.0.codec.bit_rate">384000</property>
    <property name="seekable">1</property>
    <property name="audio_index">0</property>
    <property name="video_index">-1</property>
    <property name="creation_time">2023-12-15T04:05:18</property>
    <property name="astream">0</property>
    <property name="shotcut:skipConvert">1</property>
    <property name="xml">was here</property>
    <property name="shotcut:hash">1b09aa6603ac802ffad190914496bf16</property>
  </chain>
  <chain id="chain107" out="00:00:01.880">
    <property name="length">00:00:01.920</property>
    <property name="eof">pause</property>
    <property name="resource">voice/bbb/bbb_015_なんとか並べたよう….wav</property>
    <property name="mlt_service">avformat-novalidate</property>
    <property name="meta.media.nb_streams">1</property>
    <property name="meta.media.0.stream.type">audio</property>
    <property name="meta.media.0.codec.sample_fmt">s16</property>
    <property name="meta.media.0.codec.sample_rate">24000</property>
    <property name="meta.media.0.codec.channels">1</property>
    <property name="meta.media.0.codec.name">pcm_s16le</property>
    <property name="meta.media.0.codec.long_name">PCM signed 16-bit little-endian</property>
    <property name="meta.media.0.codec.bit_rate">384000</property>
    <property name="seekable">1</property>
    <property name="audio_index">0</property>
    <property name="video_index">-1</property>
    <property name="creation_time">2023-12-15T04:05:18</property>
    <property name="astream">0</property>
    <property name="shotcut:skipConvert">1</property>
    <property name="xml">was here</property>
    <property name="shotcut:hash">ccbdaae2d60528d731998fad5c44d297</property>
  </chain>
  <chain id="chain108" out="00:00:07.120">
    <property name="length">00:00:07.160</property>
    <property name="eof">pause</property>
    <property name="resource">voice/bbb/bbb_016_ここで，先端をペン….wav</property>
    <property name="mlt_service">avformat-novalidate</property>
    <property name="meta.media.nb_streams">1</property>
    <property name="meta.media.0.stream.type">audio</property>
    <property name="meta.media.0.codec.sample_fmt">s16</property>
    <property name="meta.media.0.codec.sample_rate">24000</property>
    <property name="meta.media.0.codec.channels">1</property>
    <property name="meta.media.0.codec.name">pcm_s16le</property>
    <property name="meta.media.0.codec.long_name">PCM signed 16-bit little-endian</property>
    <property name="meta.media.0.codec.bit_rate">384000</property>
    <property name="seekable">1</property>
    <property name="audio_index">0</property>
    <property name="video_index">-1</property>
    <property name="creation_time">2023-12-15T04:05:29</property>
    <property name="astream">0</property>
    <property name="shotcut:skipConvert">1</property>
    <property name="xml">was here</property>
    <property name="shotcut:hash">d9cede6b9ef7bc3c0a53c2bffafb5692</property>
  </chain>
  <chain id="chain109" out="00:00:02.080">
    <property name="length">00:00:02.120</property>
    <property name="eof">pause</property>
    <property name="resource">voice/bbb/bbb_017_arrange1.wav</property>
    <property name="mlt_service">avformat-novalidate</property>
    <property name="meta.media.nb_streams">1</property>
    <property name="meta.media.0.stream.type">audio</property>
    <property name="meta.media.0.codec.sample_fmt">s16</property>
    <property name="meta.media.0.codec.sample_rate">24000</property>
    <property name="meta.media.0.codec.channels">1</property>
    <property name="meta.media.0.codec.name">pcm_s16le</property>
    <property name="meta.media.0.codec.long_name">PCM signed 16-bit little-endian</property>
    <property name="meta.media.0.codec.bit_rate">384000</property>
    <property name="seekable">1</property>
    <property name="audio_index">0</property>
    <property name="video_index">-1</property>
    <property name="creation_time">2023-12-15T04:05:25</property>
    <property name="astream">0</property>
    <property name="shotcut:skipConvert">1</property>
    <property name="xml">was here</property>
    <property name="shotcut:hash">1b09aa6603ac802ffad190914496bf16</property>
  </chain>
  <chain id="chain110" out="00:00:08.120">
    <property name="length">00:00:08.160</property>
    <property name="eof">pause</property>
    <property name="resource">voice/bbb/bbb_019_そういえばみなさん….wav</property>
    <property name="mlt_service">avformat-novalidate</property>
    <property name="meta.media.nb_streams">1</property>
    <property name="meta.media.0.stream.type">audio</property>
    <property name="meta.media.0.codec.sample_fmt">s16</property>
    <property name="meta.media.0.codec.sample_rate">24000</property>
    <property name="meta.media.0.codec.channels">1</property>
    <property name="meta.media.0.codec.name">pcm_s16le</property>
    <property name="meta.media.0.codec.long_name">PCM signed 16-bit little-endian</property>
    <property name="meta.media.0.codec.bit_rate">384000</property>
    <property name="seekable">1</property>
    <property name="audio_index">0</property>
    <property name="video_index">-1</property>
    <property name="creation_time">2023-12-15T04:05:37</property>
    <property name="astream">0</property>
    <property name="shotcut:skipConvert">1</property>
    <property name="xml">was here</property>
    <property name="shotcut:hash">27a869deb531c22bd5b197f0dd8acaf7</property>
  </chain>
  <chain id="chain111" out="00:00:09.200">
    <property name="length">00:00:09.240</property>
    <property name="eof">pause</property>
    <property name="resource">voice/bbb/bbb_020_広義には文字通り，….wav</property>
    <property name="mlt_service">avformat-novalidate</property>
    <property name="meta.media.nb_streams">1</property>
    <property name="meta.media.0.stream.type">audio</property>
    <property name="meta.media.0.codec.sample_fmt">s16</property>
    <property name="meta.media.0.codec.sample_rate">24000</property>
    <property name="meta.media.0.codec.channels">1</property>
    <property name="meta.media.0.codec.name">pcm_s16le</property>
    <property name="meta.media.0.codec.long_name">PCM signed 16-bit little-endian</property>
    <property name="meta.media.0.codec.bit_rate">384000</property>
    <property name="seekable">1</property>
    <property name="audio_index">0</property>
    <property name="video_index">-1</property>
    <property name="creation_time">2023-12-15T04:05:43</property>
    <property name="astream">0</property>
    <property name="shotcut:skipConvert">1</property>
    <property name="xml">was here</property>
    <property name="shotcut:hash">1c582934d572c89d4c17118e618fa107</property>
  </chain>
  <chain id="chain112" out="00:00:09.880">
    <property name="length">00:00:09.920</property>
    <property name="eof">pause</property>
    <property name="resource">voice/bbb/bbb_021_状況によっては，広….wav</property>
    <property name="mlt_service">avformat-novalidate</property>
    <property name="meta.media.nb_streams">1</property>
    <property name="meta.media.0.stream.type">audio</property>
    <property name="meta.media.0.codec.sample_fmt">s16</property>
    <property name="meta.media.0.codec.sample_rate">24000</property>
    <property name="meta.media.0.codec.channels">1</property>
    <property name="meta.media.0.codec.name">pcm_s16le</property>
    <property name="meta.media.0.codec.long_name">PCM signed 16-bit little-endian</property>
    <property name="meta.media.0.codec.bit_rate">384000</property>
    <property name="seekable">1</property>
    <property name="audio_index">0</property>
    <property name="video_index">-1</property>
    <property name="creation_time">2023-12-15T04:05:45</property>
    <property name="astream">0</property>
    <property name="shotcut:skipConvert">1</property>
    <property name="xml">was here</property>
    <property name="shotcut:hash">5c196c7b6e1490c2570d1dc1032955a1</property>
  </chain>
  <chain id="chain113" out="00:00:00.840">
    <property name="length">00:00:00.880</property>
    <property name="eof">pause</property>
    <property name="resource">voice/bbb/bbb_022_def.wav</property>
    <property name="mlt_service">avformat-novalidate</property>
    <property name="meta.media.nb_streams">1</property>
    <property name="meta.media.0.stream.type">audio</property>
    <property name="meta.media.0.codec.sample_fmt">s16</property>
    <property name="meta.media.0.codec.sample_rate">24000</property>
    <property name="meta.media.0.codec.channels">1</property>
    <property name="meta.media.0.codec.name">pcm_s16le</property>
    <property name="meta.media.0.codec.long_name">PCM signed 16-bit little-endian</property>
    <property name="meta.media.0.codec.bit_rate">384000</property>
    <property name="seekable">1</property>
    <property name="audio_index">0</property>
    <property name="video_index">-1</property>
    <property name="creation_time">2023-12-15T04:05:30</property>
    <property name="astream">0</property>
    <property name="shotcut:skipConvert">1</property>
    <property name="xml">was here</property>
    <property name="shotcut:hash">91559d5e9e87cac23e27125ab80ed57a</property>
  </chain>
  <chain id="chain114" out="00:00:01.240">
    <property name="length">00:00:01.280</property>
    <property name="eof">pause</property>
    <property name="resource">voice/bbb/bbb_023_mod1.wav</property>
    <property name="mlt_service">avformat-novalidate</property>
    <property name="meta.media.nb_streams">1</property>
    <property name="meta.media.0.stream.type">audio</property>
    <property name="meta.media.0.codec.sample_fmt">s16</property>
    <property name="meta.media.0.codec.sample_rate">24000</property>
    <property name="meta.media.0.codec.channels">1</property>
    <property name="meta.media.0.codec.name">pcm_s16le</property>
    <property name="meta.media.0.codec.long_name">PCM signed 16-bit little-endian</property>
    <property name="meta.media.0.codec.bit_rate">384000</property>
    <property name="seekable">1</property>
    <property name="audio_index">0</property>
    <property name="video_index">-1</property>
    <property name="creation_time">2023-12-15T04:05:32</property>
    <property name="astream">0</property>
    <property name="shotcut:skipConvert">1</property>
    <property name="xml">was here</property>
    <property name="shotcut:hash">5dee575bc088127026d279c5a62fb6eb</property>
  </chain>
  <chain id="chain115" out="00:00:03.880">
    <property name="length">00:00:03.920</property>
    <property name="eof">pause</property>
    <property name="resource">voice/bbb/bbb_024_そうこうしているう….wav</property>
    <property name="mlt_service">avformat-novalidate</property>
    <property name="meta.media.nb_streams">1</property>
    <property name="meta.media.0.stream.type">audio</property>
    <property name="meta.media.0.codec.sample_fmt">s16</property>
    <property name="meta.media.0.codec.sample_rate">24000</property>
    <property name="meta.media.0.codec.channels">1</property>
    <property name="meta.media.0.codec.name">pcm_s16le</property>
    <property name="meta.media.0.codec.long_name">PCM signed 16-bit little-endian</property>
    <property name="meta.media.0.codec.bit_rate">384000</property>
    <property name="seekable">1</property>
    <property name="audio_index">0</property>
    <property name="video_index">-1</property>
    <property name="creation_time">2023-12-15T04:05:42</property>
    <property name="astream">0</property>
    <property name="shotcut:skipConvert">1</property>
    <property name="xml">was here</property>
    <property name="shotcut:hash">789ed82918fe00df8bdd4e0686d6fdeb</property>
  </chain>
  <chain id="chain116" out="00:00:01.240">
    <property name="length">00:00:01.280</property>
    <property name="eof">pause</property>
    <property name="resource">voice/bbb/bbb_025_mod1.wav</property>
    <property name="mlt_service">avformat-novalidate</property>
    <property name="meta.media.nb_streams">1</property>
    <property name="meta.media.0.stream.type">audio</property>
    <property name="meta.media.0.codec.sample_fmt">s16</property>
    <property name="meta.media.0.codec.sample_rate">24000</property>
    <property name="meta.media.0.codec.channels">1</property>
    <property name="meta.media.0.codec.name">pcm_s16le</property>
    <property name="meta.media.0.codec.long_name">PCM signed 16-bit little-endian</property>
    <property name="meta.media.0.codec.bit_rate">384000</property>
    <property name="seekable">1</property>
    <property name="audio_index">0</property>
    <property name="video_index">-1</property>
    <property name="creation_time">2023-12-15T04:05:36</property>
    <property name="astream">0</property>
    <property name="shotcut:skipConvert">1</property>
    <property name="xml">was here</property>
    <property name="shotcut:hash">5dee575bc088127026d279c5a62fb6eb</property>
  </chain>
  <chain id="chain117" out="00:00:03.320">
    <property name="length">00:00:03.360</property>
    <property name="eof">pause</property>
    <property name="resource">voice/bbb/bbb_027_そして，このかしめ….wav</property>
    <property name="mlt_service">avformat-novalidate</property>
    <property name="meta.media.nb_streams">1</property>
    <property name="meta.media.0.stream.type">audio</property>
    <property name="meta.media.0.codec.sample_fmt">s16</property>
    <property name="meta.media.0.codec.sample_rate">24000</property>
    <property name="meta.media.0.codec.channels">1</property>
    <property name="meta.media.0.codec.name">pcm_s16le</property>
    <property name="meta.media.0.codec.long_name">PCM signed 16-bit little-endian</property>
    <property name="meta.media.0.codec.bit_rate">384000</property>
    <property name="seekable">1</property>
    <property name="audio_index">0</property>
    <property name="video_index">-1</property>
    <property name="creation_time">2023-12-15T04:05:46</property>
    <property name="astream">0</property>
    <property name="shotcut:skipConvert">1</property>
    <property name="xml">was here</property>
    <property name="shotcut:hash">06c0336784d710ed4d7debf4995125b7</property>
  </chain>
  <chain id="chain118" out="00:00:05.480">
    <property name="length">00:00:05.520</property>
    <property name="eof">pause</property>
    <property name="resource">voice/bbb/bbb_028_しちょうもの兄貴姉….wav</property>
    <property name="mlt_service">avformat-novalidate</property>
    <property name="meta.media.nb_streams">1</property>
    <property name="meta.media.0.stream.type">audio</property>
    <property name="meta.media.0.codec.sample_fmt">s16</property>
    <property name="meta.media.0.codec.sample_rate">24000</property>
    <property name="meta.media.0.codec.channels">1</property>
    <property name="meta.media.0.codec.name">pcm_s16le</property>
    <property name="meta.media.0.codec.long_name">PCM signed 16-bit little-endian</property>
    <property name="meta.media.0.codec.bit_rate">384000</property>
    <property name="seekable">1</property>
    <property name="audio_index">0</property>
    <property name="video_index">-1</property>
    <property name="creation_time">2023-12-15T04:05:51</property>
    <property name="astream">0</property>
    <property name="shotcut:skipConvert">1</property>
    <property name="xml">was here</property>
    <property name="shotcut:hash">f8c1d55c43894f74b3641a22290e9dc1</property>
  </chain>
  <chain id="chain119" out="00:00:06.440">
    <property name="length">00:00:06.480</property>
    <property name="eof">pause</property>
    <property name="resource">voice/bbb/bbb_029_うぷぬしは生憎持っ….wav</property>
    <property name="mlt_service">avformat-novalidate</property>
    <property name="meta.media.nb_streams">1</property>
    <property name="meta.media.0.stream.type">audio</property>
    <property name="meta.media.0.codec.sample_fmt">s16</property>
    <property name="meta.media.0.codec.sample_rate">24000</property>
    <property name="meta.media.0.codec.channels">1</property>
    <property name="meta.media.0.codec.name">pcm_s16le</property>
    <property name="meta.media.0.codec.long_name">PCM signed 16-bit little-endian</property>
    <property name="meta.media.0.codec.bit_rate">384000</property>
    <property name="seekable">1</property>
    <property name="audio_index">0</property>
    <property name="video_index">-1</property>
    <property name="creation_time">2023-12-15T04:05:59</property>
    <property name="astream">0</property>
    <property name="shotcut:skipConvert">1</property>
    <property name="xml">was here</property>
    <property name="shotcut:hash">604976bcc1c85a4da271608fd84e98b8</property>
  </chain>
  <chain id="chain120" out="00:00:07.240">
    <property name="length">00:00:07.280</property>
    <property name="eof">pause</property>
    <property name="resource">voice/bbb/bbb_030_また，この動画はそ….wav</property>
    <property name="mlt_service">avformat-novalidate</property>
    <property name="meta.media.nb_streams">1</property>
    <property name="meta.media.0.stream.type">audio</property>
    <property name="meta.media.0.codec.sample_fmt">s16</property>
    <property name="meta.media.0.codec.sample_rate">24000</property>
    <property name="meta.media.0.codec.channels">1</property>
    <property name="meta.media.0.codec.name">pcm_s16le</property>
    <property name="meta.media.0.codec.long_name">PCM signed 16-bit little-endian</property>
    <property name="meta.media.0.codec.bit_rate">384000</property>
    <property name="seekable">1</property>
    <property name="audio_index">0</property>
    <property name="video_index">-1</property>
    <property name="creation_time">2023-12-15T04:06:00</property>
    <property name="astream">0</property>
    <property name="shotcut:skipConvert">1</property>
    <property name="xml">was here</property>
    <property name="shotcut:hash">9db75ece14c794c9a2661770f82a7c7f</property>
  </chain>
  <chain id="chain121" out="00:00:05.960">
    <property name="length">00:00:06.000</property>
    <property name="eof">pause</property>
    <property name="resource">voice/bbb/bbb_031_もちろん，撮影et….wav</property>
    <property name="mlt_service">avformat-novalidate</property>
    <property name="meta.media.nb_streams">1</property>
    <property name="meta.media.0.stream.type">audio</property>
    <property name="meta.media.0.codec.sample_fmt">s16</property>
    <property name="meta.media.0.codec.sample_rate">24000</property>
    <property name="meta.media.0.codec.channels">1</property>
    <property name="meta.media.0.codec.name">pcm_s16le</property>
    <property name="meta.media.0.codec.long_name">PCM signed 16-bit little-endian</property>
    <property name="meta.media.0.codec.bit_rate">384000</property>
    <property name="seekable">1</property>
    <property name="audio_index">0</property>
    <property name="video_index">-1</property>
    <property name="creation_time">2023-12-15T04:06:00</property>
    <property name="astream">0</property>
    <property name="shotcut:skipConvert">1</property>
    <property name="xml">was here</property>
    <property name="shotcut:hash">24b87e27190d812ff1ad521fde19e46e</property>
  </chain>
  <chain id="chain122" out="00:00:05.720">
    <property name="length">00:00:05.760</property>
    <property name="eof">pause</property>
    <property name="resource">voice/bbb/bbb_032_なれてない工具なの….wav</property>
    <property name="mlt_service">avformat-novalidate</property>
    <property name="meta.media.nb_streams">1</property>
    <property name="meta.media.0.stream.type">audio</property>
    <property name="meta.media.0.codec.sample_fmt">s16</property>
    <property name="meta.media.0.codec.sample_rate">24000</property>
    <property name="meta.media.0.codec.channels">1</property>
    <property name="meta.media.0.codec.name">pcm_s16le</property>
    <property name="meta.media.0.codec.long_name">PCM signed 16-bit little-endian</property>
    <property name="meta.media.0.codec.bit_rate">384000</property>
    <property name="seekable">1</property>
    <property name="audio_index">0</property>
    <property name="video_index">-1</property>
    <property name="creation_time">2023-12-15T04:06:01</property>
    <property name="astream">0</property>
    <property name="shotcut:skipConvert">1</property>
    <property name="xml">was here</property>
    <property name="shotcut:hash">1d077c4a822ff880fba0068de4de6d3d</property>
  </chain>
  <chain id="chain123" out="00:00:01.720">
    <property name="length">00:00:01.760</property>
    <property name="eof">pause</property>
    <property name="resource">voice/bbb/bbb_033_swage1.wav</property>
    <property name="mlt_service">avformat-novalidate</property>
    <property name="meta.media.nb_streams">1</property>
    <property name="meta.media.0.stream.type">audio</property>
    <property name="meta.media.0.codec.sample_fmt">s16</property>
    <property name="meta.media.0.codec.sample_rate">24000</property>
    <property name="meta.media.0.codec.channels">1</property>
    <property name="meta.media.0.codec.name">pcm_s16le</property>
    <property name="meta.media.0.codec.long_name">PCM signed 16-bit little-endian</property>
    <property name="meta.media.0.codec.bit_rate">384000</property>
    <property name="seekable">1</property>
    <property name="audio_index">0</property>
    <property name="video_index">-1</property>
    <property name="creation_time">2023-12-15T04:05:53</property>
    <property name="astream">0</property>
    <property name="shotcut:skipConvert">1</property>
    <property name="xml">was here</property>
    <property name="shotcut:hash">eeeb43bbd6577c87175b2245695a194e</property>
  </chain>
  <chain id="chain124" out="00:00:02.560">
    <property name="length">00:00:02.600</property>
    <property name="eof">pause</property>
    <property name="resource">voice/bbb/bbb_034_wiring2.0.wav</property>
    <property name="mlt_service">avformat-novalidate</property>
    <property name="meta.media.nb_streams">1</property>
    <property name="meta.media.0.stream.type">audio</property>
    <property name="meta.media.0.codec.sample_fmt">s16</property>
    <property name="meta.media.0.codec.sample_rate">24000</property>
    <property name="meta.media.0.codec.channels">1</property>
    <property name="meta.media.0.codec.name">pcm_s16le</property>
    <property name="meta.media.0.codec.long_name">PCM signed 16-bit little-endian</property>
    <property name="meta.media.0.codec.bit_rate">384000</property>
    <property name="seekable">1</property>
    <property name="audio_index">0</property>
    <property name="video_index">-1</property>
    <property name="creation_time">2023-12-15T04:06:01</property>
    <property name="astream">0</property>
    <property name="shotcut:skipConvert">1</property>
    <property name="xml">was here</property>
    <property name="shotcut:hash">1cea9524689e750ed54b61d2b1d425bb</property>
  </chain>
  <chain id="chain125" out="00:00:03.080">
    <property name="length">00:00:03.120</property>
    <property name="eof">pause</property>
    <property name="resource">voice/bbb/bbb_035_同様の手順でもう片….wav</property>
    <property name="mlt_service">avformat-novalidate</property>
    <property name="meta.media.nb_streams">1</property>
    <property name="meta.media.0.stream.type">audio</property>
    <property name="meta.media.0.codec.sample_fmt">s16</property>
    <property name="meta.media.0.codec.sample_rate">24000</property>
    <property name="meta.media.0.codec.channels">1</property>
    <property name="meta.media.0.codec.name">pcm_s16le</property>
    <property name="meta.media.0.codec.long_name">PCM signed 16-bit little-endian</property>
    <property name="meta.media.0.codec.bit_rate">384000</property>
    <property name="seekable">1</property>
    <property name="audio_index">0</property>
    <property name="video_index">-1</property>
    <property name="creation_time">2023-12-15T04:06:04</property>
    <property name="astream">0</property>
    <property name="shotcut:skipConvert">1</property>
    <property name="xml">was here</property>
    <property name="shotcut:hash">c5c9f4fc6cc4d0e1c3086cad8ad8de71</property>
  </chain>
  <chain id="chain126" out="00:00:01.200">
    <property name="length">00:00:01.240</property>
    <property name="eof">pause</property>
    <property name="resource">voice/bbb/bbb_036_まずは配線．.wav</property>
    <property name="mlt_service">avformat-novalidate</property>
    <property name="meta.media.nb_streams">1</property>
    <property name="meta.media.0.stream.type">audio</property>
    <property name="meta.media.0.codec.sample_fmt">s16</property>
    <property name="meta.media.0.codec.sample_rate">24000</property>
    <property name="meta.media.0.codec.channels">1</property>
    <property name="meta.media.0.codec.name">pcm_s16le</property>
    <property name="meta.media.0.codec.long_name">PCM signed 16-bit little-endian</property>
    <property name="meta.media.0.codec.bit_rate">384000</property>
    <property name="seekable">1</property>
    <property name="audio_index">0</property>
    <property name="video_index">-1</property>
    <property name="creation_time">2023-12-15T04:06:05</property>
    <property name="astream">0</property>
    <property name="shotcut:skipConvert">1</property>
    <property name="xml">was here</property>
    <property name="shotcut:hash">a009faf8da262bb5e3888acf47c47d3e</property>
  </chain>
  <chain id="chain127" out="00:00:02.560">
    <property name="length">00:00:02.600</property>
    <property name="eof">pause</property>
    <property name="resource">voice/bbb/bbb_037_wiring2.0.wav</property>
    <property name="mlt_service">avformat-novalidate</property>
    <property name="meta.media.nb_streams">1</property>
    <property name="meta.media.0.stream.type">audio</property>
    <property name="meta.media.0.codec.sample_fmt">s16</property>
    <property name="meta.media.0.codec.sample_rate">24000</property>
    <property name="meta.media.0.codec.channels">1</property>
    <property name="meta.media.0.codec.name">pcm_s16le</property>
    <property name="meta.media.0.codec.long_name">PCM signed 16-bit little-endian</property>
    <property name="meta.media.0.codec.bit_rate">384000</property>
    <property name="seekable">1</property>
    <property name="audio_index">0</property>
    <property name="video_index">-1</property>
    <property name="creation_time">2023-12-15T04:06:08</property>
    <property name="astream">0</property>
    <property name="shotcut:skipConvert">1</property>
    <property name="xml">was here</property>
    <property name="shotcut:hash">1cea9524689e750ed54b61d2b1d425bb</property>
  </chain>
  <chain id="chain128" out="00:00:02.920">
    <property name="length">00:00:02.960</property>
    <property name="eof">pause</property>
    <property name="resource">voice/bbb/bbb_039_同じことをやってい….wav</property>
    <property name="mlt_service">avformat-novalidate</property>
    <property name="meta.media.nb_streams">1</property>
    <property name="meta.media.0.stream.type">audio</property>
    <property name="meta.media.0.codec.sample_fmt">s16</property>
    <property name="meta.media.0.codec.sample_rate">24000</property>
    <property name="meta.media.0.codec.channels">1</property>
    <property name="meta.media.0.codec.name">pcm_s16le</property>
    <property name="meta.media.0.codec.long_name">PCM signed 16-bit little-endian</property>
    <property name="meta.media.0.codec.bit_rate">384000</property>
    <property name="seekable">1</property>
    <property name="audio_index">0</property>
    <property name="video_index">-1</property>
    <property name="creation_time">2023-12-15T04:06:11</property>
    <property name="astream">0</property>
    <property name="shotcut:skipConvert">1</property>
    <property name="xml">was here</property>
    <property name="shotcut:hash">d430083ebb89db5907bc73ae19f6b77d</property>
  </chain>
  <chain id="chain129" out="00:00:05.400">
    <property name="length">00:00:05.440</property>
    <property name="eof">pause</property>
    <property name="resource">voice/bbb/bbb_040_本編入る前に解説し….wav</property>
    <property name="mlt_service">avformat-novalidate</property>
    <property name="meta.media.nb_streams">1</property>
    <property name="meta.media.0.stream.type">audio</property>
    <property name="meta.media.0.codec.sample_fmt">s16</property>
    <property name="meta.media.0.codec.sample_rate">24000</property>
    <property name="meta.media.0.codec.channels">1</property>
    <property name="meta.media.0.codec.name">pcm_s16le</property>
    <property name="meta.media.0.codec.long_name">PCM signed 16-bit little-endian</property>
    <property name="meta.media.0.codec.bit_rate">384000</property>
    <property name="seekable">1</property>
    <property name="audio_index">0</property>
    <property name="video_index">-1</property>
    <property name="creation_time">2023-12-15T04:06:16</property>
    <property name="astream">0</property>
    <property name="shotcut:skipConvert">1</property>
    <property name="xml">was here</property>
    <property name="shotcut:hash">31fd7ca5e0740141a6ccaf737a7bed8c</property>
  </chain>
  <chain id="chain130" out="00:00:04.800">
    <property name="length">00:00:04.840</property>
    <property name="eof">pause</property>
    <property name="resource">voice/bbb/bbb_041_LANケーブルがス….wav</property>
    <property name="mlt_service">avformat-novalidate</property>
    <property name="meta.media.nb_streams">1</property>
    <property name="meta.media.0.stream.type">audio</property>
    <property name="meta.media.0.codec.sample_fmt">s16</property>
    <property name="meta.media.0.codec.sample_rate">24000</property>
    <property name="meta.media.0.codec.channels">1</property>
    <property name="meta.media.0.codec.name">pcm_s16le</property>
    <property name="meta.media.0.codec.long_name">PCM signed 16-bit little-endian</property>
    <property name="meta.media.0.codec.bit_rate">384000</property>
    <property name="seekable">1</property>
    <property name="audio_index">0</property>
    <property name="video_index">-1</property>
    <property name="creation_time">2023-12-15T04:06:18</property>
    <property name="astream">0</property>
    <property name="shotcut:skipConvert">1</property>
    <property name="xml">was here</property>
    <property name="shotcut:hash">2148a22267746ad82b9a0289dc797769</property>
  </chain>
  <chain id="chain131" out="00:00:05.360">
    <property name="length">00:00:05.400</property>
    <property name="eof">pause</property>
    <property name="resource">voice/bbb/bbb_042_機器のポートにはえ….wav</property>
    <property name="mlt_service">avformat-novalidate</property>
    <property name="meta.media.nb_streams">1</property>
    <property name="meta.media.0.stream.type">audio</property>
    <property name="meta.media.0.codec.sample_fmt">s16</property>
    <property name="meta.media.0.codec.sample_rate">24000</property>
    <property name="meta.media.0.codec.channels">1</property>
    <property name="meta.media.0.codec.name">pcm_s16le</property>
    <property name="meta.media.0.codec.long_name">PCM signed 16-bit little-endian</property>
    <property name="meta.media.0.codec.bit_rate">384000</property>
    <property name="seekable">1</property>
    <property name="audio_index">0</property>
    <property name="video_index">-1</property>
    <property name="creation_time">2023-12-15T04:06:22</property>
    <property name="astream">0</property>
    <property name="shotcut:skipConvert">1</property>
    <property name="xml">was here</property>
    <property name="shotcut:hash">8adbdc76f329d1eca4cd424322bcf9e0</property>
  </chain>
  <chain id="chain132" out="00:00:08.200">
    <property name="length">00:00:08.240</property>
    <property name="eof">pause</property>
    <property name="resource">voice/bbb/bbb_043_これらえむでぃーあ….wav</property>
    <property name="mlt_service">avformat-novalidate</property>
    <property name="meta.media.nb_streams">1</property>
    <property name="meta.media.0.stream.type">audio</property>
    <property name="meta.media.0.codec.sample_fmt">s16</property>
    <property name="meta.media.0.codec.sample_rate">24000</property>
    <property name="meta.media.0.codec.channels">1</property>
    <property name="meta.media.0.codec.name">pcm_s16le</property>
    <property name="meta.media.0.codec.long_name">PCM signed 16-bit little-endian</property>
    <property name="meta.media.0.codec.bit_rate">384000</property>
    <property name="seekable">1</property>
    <property name="audio_index">0</property>
    <property name="video_index">-1</property>
    <property name="creation_time">2023-12-15T04:06:30</property>
    <property name="astream">0</property>
    <property name="shotcut:skipConvert">1</property>
    <property name="xml">was here</property>
    <property name="shotcut:hash">a03203614c0be1162b3adc7d1c084983</property>
  </chain>
  <chain id="chain133" out="00:00:09.360">
    <property name="length">00:00:09.400</property>
    <property name="eof">pause</property>
    <property name="resource">voice/bbb/bbb_044_そのため図のように….wav</property>
    <property name="mlt_service">avformat-novalidate</property>
    <property name="meta.media.nb_streams">1</property>
    <property name="meta.media.0.stream.type">audio</property>
    <property name="meta.media.0.codec.sample_fmt">s16</property>
    <property name="meta.media.0.codec.sample_rate">24000</property>
    <property name="meta.media.0.codec.channels">1</property>
    <property name="meta.media.0.codec.name">pcm_s16le</property>
    <property name="meta.media.0.codec.long_name">PCM signed 16-bit little-endian</property>
    <property name="meta.media.0.codec.bit_rate">384000</property>
    <property name="seekable">1</property>
    <property name="audio_index">0</property>
    <property name="video_index">-1</property>
    <property name="creation_time">2023-12-15T04:06:32</property>
    <property name="astream">0</property>
    <property name="shotcut:skipConvert">1</property>
    <property name="xml">was here</property>
    <property name="shotcut:hash">d17b0b89ae0a326686e4e23aeab095d1</property>
  </chain>
  <chain id="chain134" out="00:00:06.040">
    <property name="length">00:00:06.080</property>
    <property name="eof">pause</property>
    <property name="resource">voice/bbb/bbb_045_えむでぃーあいとえ….wav</property>
    <property name="mlt_service">avformat-novalidate</property>
    <property name="meta.media.nb_streams">1</property>
    <property name="meta.media.0.stream.type">audio</property>
    <property name="meta.media.0.codec.sample_fmt">s16</property>
    <property name="meta.media.0.codec.sample_rate">24000</property>
    <property name="meta.media.0.codec.channels">1</property>
    <property name="meta.media.0.codec.name">pcm_s16le</property>
    <property name="meta.media.0.codec.long_name">PCM signed 16-bit little-endian</property>
    <property name="meta.media.0.codec.bit_rate">384000</property>
    <property name="seekable">1</property>
    <property name="audio_index">0</property>
    <property name="video_index">-1</property>
    <property name="creation_time">2023-12-15T04:06:29</property>
    <property name="astream">0</property>
    <property name="shotcut:skipConvert">1</property>
    <property name="xml">was here</property>
    <property name="shotcut:hash">6aee80e0cb7615e6d8ed36b99187509e</property>
  </chain>
  <chain id="chain135" out="00:00:04.560">
    <property name="length">00:00:04.600</property>
    <property name="eof">pause</property>
    <property name="resource">voice/bbb/bbb_046_よって，これらのケ….wav</property>
    <property name="mlt_service">avformat-novalidate</property>
    <property name="meta.media.nb_streams">1</property>
    <property name="meta.media.0.stream.type">audio</property>
    <property name="meta.media.0.codec.sample_fmt">s16</property>
    <property name="meta.media.0.codec.sample_rate">24000</property>
    <property name="meta.media.0.codec.channels">1</property>
    <property name="meta.media.0.codec.name">pcm_s16le</property>
    <property name="meta.media.0.codec.long_name">PCM signed 16-bit little-endian</property>
    <property name="meta.media.0.codec.bit_rate">384000</property>
    <property name="seekable">1</property>
    <property name="audio_index">0</property>
    <property name="video_index">-1</property>
    <property name="creation_time">2023-12-15T04:06:31</property>
    <property name="astream">0</property>
    <property name="shotcut:skipConvert">1</property>
    <property name="xml">was here</property>
    <property name="shotcut:hash">bb6b79825c883acea6d4484dd091ad7f</property>
  </chain>
  <chain id="chain136" out="00:00:02.720">
    <property name="length">00:00:02.760</property>
    <property name="eof">pause</property>
    <property name="resource">voice/bbb/bbb_047_ですが，コレはたい….wav</property>
    <property name="mlt_service">avformat-novalidate</property>
    <property name="meta.media.nb_streams">1</property>
    <property name="meta.media.0.stream.type">audio</property>
    <property name="meta.media.0.codec.sample_fmt">s16</property>
    <property name="meta.media.0.codec.sample_rate">24000</property>
    <property name="meta.media.0.codec.channels">1</property>
    <property name="meta.media.0.codec.name">pcm_s16le</property>
    <property name="meta.media.0.codec.long_name">PCM signed 16-bit little-endian</property>
    <property name="meta.media.0.codec.bit_rate">384000</property>
    <property name="seekable">1</property>
    <property name="audio_index">0</property>
    <property name="video_index">-1</property>
    <property name="creation_time">2023-12-15T04:06:29</property>
    <property name="astream">0</property>
    <property name="shotcut:skipConvert">1</property>
    <property name="xml">was here</property>
    <property name="shotcut:hash">c051ac3d95973f83e1b32c6a31df9d97</property>
  </chain>
  <chain id="chain137" out="00:00:06.520">
    <property name="length">00:00:06.560</property>
    <property name="eof">pause</property>
    <property name="resource">voice/bbb/bbb_048_現在では，ほとんど….wav</property>
    <property name="mlt_service">avformat-novalidate</property>
    <property name="meta.media.nb_streams">1</property>
    <property name="meta.media.0.stream.type">audio</property>
    <property name="meta.media.0.codec.sample_fmt">s16</property>
    <property name="meta.media.0.codec.sample_rate">24000</property>
    <property name="meta.media.0.codec.channels">1</property>
    <property name="meta.media.0.codec.name">pcm_s16le</property>
    <property name="meta.media.0.codec.long_name">PCM signed 16-bit little-endian</property>
    <property name="meta.media.0.codec.bit_rate">384000</property>
    <property name="seekable">1</property>
    <property name="audio_index">0</property>
    <property name="video_index">-1</property>
    <property name="creation_time">2023-12-15T04:06:40</property>
    <property name="astream">0</property>
    <property name="shotcut:skipConvert">1</property>
    <property name="xml">was here</property>
    <property name="shotcut:hash">2575c35d6a6d7ef5e0f3c0b7014a1450</property>
  </chain>
  <chain id="chain138" out="00:00:03.720">
    <property name="length">00:00:03.760</property>
    <property name="eof">pause</property>
    <property name="resource">voice/bbb/bbb_049_その機能は，送受信….wav</property>
    <property name="mlt_service">avformat-novalidate</property>
    <property name="meta.media.nb_streams">1</property>
    <property name="meta.media.0.stream.type">audio</property>
    <property name="meta.media.0.codec.sample_fmt">s16</property>
    <property name="meta.media.0.codec.sample_rate">24000</property>
    <property name="meta.media.0.codec.channels">1</property>
    <property name="meta.media.0.codec.name">pcm_s16le</property>
    <property name="meta.media.0.codec.long_name">PCM signed 16-bit little-endian</property>
    <property name="meta.media.0.codec.bit_rate">384000</property>
    <property name="seekable">1</property>
    <property name="audio_index">0</property>
    <property name="video_index">-1</property>
    <property name="creation_time">2023-12-15T04:06:41</property>
    <property name="astream">0</property>
    <property name="shotcut:skipConvert">1</property>
    <property name="xml">was here</property>
    <property name="shotcut:hash">aa3a5c7ceab860050abfc015320f9ae3</property>
  </chain>
  <chain id="chain139" out="00:00:04.600">
    <property name="length">00:00:04.640</property>
    <property name="eof">pause</property>
    <property name="resource">voice/bbb/bbb_050_えむでぃーあいえむ….wav</property>
    <property name="mlt_service">avformat-novalidate</property>
    <property name="meta.media.nb_streams">1</property>
    <property name="meta.media.0.stream.type">audio</property>
    <property name="meta.media.0.codec.sample_fmt">s16</property>
    <property name="meta.media.0.codec.sample_rate">24000</property>
    <property name="meta.media.0.codec.channels">1</property>
    <property name="meta.media.0.codec.name">pcm_s16le</property>
    <property name="meta.media.0.codec.long_name">PCM signed 16-bit little-endian</property>
    <property name="meta.media.0.codec.bit_rate">384000</property>
    <property name="seekable">1</property>
    <property name="audio_index">0</property>
    <property name="video_index">-1</property>
    <property name="creation_time">2023-12-15T04:06:45</property>
    <property name="astream">0</property>
    <property name="shotcut:skipConvert">1</property>
    <property name="xml">was here</property>
    <property name="shotcut:hash">c021c94c27c965809402059aff3ab988</property>
  </chain>
  <chain id="chain140" out="00:00:05.600">
    <property name="length">00:00:05.640</property>
    <property name="eof">pause</property>
    <property name="resource">voice/bbb/bbb_051_そのため，ストレー….wav</property>
    <property name="mlt_service">avformat-novalidate</property>
    <property name="meta.media.nb_streams">1</property>
    <property name="meta.media.0.stream.type">audio</property>
    <property name="meta.media.0.codec.sample_fmt">s16</property>
    <property name="meta.media.0.codec.sample_rate">24000</property>
    <property name="meta.media.0.codec.channels">1</property>
    <property name="meta.media.0.codec.name">pcm_s16le</property>
    <property name="meta.media.0.codec.long_name">PCM signed 16-bit little-endian</property>
    <property name="meta.media.0.codec.bit_rate">384000</property>
    <property name="seekable">1</property>
    <property name="audio_index">0</property>
    <property name="video_index">-1</property>
    <property name="creation_time">2023-12-15T04:06:47</property>
    <property name="astream">0</property>
    <property name="shotcut:skipConvert">1</property>
    <property name="xml">was here</property>
    <property name="shotcut:hash">1b1701e661d65993f3c88f1459ca0580</property>
  </chain>
  <chain id="chain141" out="00:00:05.680">
    <property name="length">00:00:05.720</property>
    <property name="eof">pause</property>
    <property name="resource">voice/bbb/bbb_052_つまり，えむでぃー….wav</property>
    <property name="mlt_service">avformat-novalidate</property>
    <property name="meta.media.nb_streams">1</property>
    <property name="meta.media.0.stream.type">audio</property>
    <property name="meta.media.0.codec.sample_fmt">s16</property>
    <property name="meta.media.0.codec.sample_rate">24000</property>
    <property name="meta.media.0.codec.channels">1</property>
    <property name="meta.media.0.codec.name">pcm_s16le</property>
    <property name="meta.media.0.codec.long_name">PCM signed 16-bit little-endian</property>
    <property name="meta.media.0.codec.bit_rate">384000</property>
    <property name="seekable">1</property>
    <property name="audio_index">0</property>
    <property name="video_index">-1</property>
    <property name="creation_time">2023-12-15T04:06:48</property>
    <property name="astream">0</property>
    <property name="shotcut:skipConvert">1</property>
    <property name="xml">was here</property>
    <property name="shotcut:hash">5725d25d04b42d4655c1c65f86c1bdc5</property>
  </chain>
  <chain id="chain142" out="00:00:09.120">
    <property name="length">00:00:09.160</property>
    <property name="eof">pause</property>
    <property name="resource">voice/bbb/bbb_053_オートえむでぃー.wav</property>
    <property name="mlt_service">avformat-novalidate</property>
    <property name="meta.media.nb_streams">1</property>
    <property name="meta.media.0.stream.type">audio</property>
    <property name="meta.media.0.codec.sample_fmt">s16</property>
    <property name="meta.media.0.codec.sample_rate">24000</property>
    <property name="meta.media.0.codec.channels">1</property>
    <property name="meta.media.0.codec.name">pcm_s16le</property>
    <property name="meta.media.0.codec.long_name">PCM signed 16-bit little-endian</property>
    <property name="meta.media.0.codec.bit_rate">384000</property>
    <property name="seekable">1</property>
    <property name="audio_index">0</property>
    <property name="video_index">-1</property>
    <property name="creation_time">2023-12-15T04:06:57</property>
    <property name="astream">0</property>
    <property name="shotcut:skipConvert">1</property>
    <property name="xml">was here</property>
    <property name="shotcut:hash">59e88d2af42ec1c63d24ae0bc00b0888</property>
  </chain>
  <chain id="chain143" out="00:00:07.000">
    <property name="length">00:00:07.040</property>
    <property name="eof">pause</property>
    <property name="resource">voice/bbb/bbb_054_（何故クロスケーブ….wav</property>
    <property name="mlt_service">avformat-novalidate</property>
    <property name="meta.media.nb_streams">1</property>
    <property name="meta.media.0.stream.type">audio</property>
    <property name="meta.media.0.codec.sample_fmt">s16</property>
    <property name="meta.media.0.codec.sample_rate">24000</property>
    <property name="meta.media.0.codec.channels">1</property>
    <property name="meta.media.0.codec.name">pcm_s16le</property>
    <property name="meta.media.0.codec.long_name">PCM signed 16-bit little-endian</property>
    <property name="meta.media.0.codec.bit_rate">384000</property>
    <property name="seekable">1</property>
    <property name="audio_index">0</property>
    <property name="video_index">-1</property>
    <property name="creation_time">2023-12-15T04:07:01</property>
    <property name="astream">0</property>
    <property name="shotcut:skipConvert">1</property>
    <property name="xml">was here</property>
    <property name="shotcut:hash">e3fa646b6c8b7b244439511f89d6b86f</property>
  </chain>
  <chain id="chain144" out="00:00:06.440">
    <property name="length">00:00:06.480</property>
    <property name="eof">pause</property>
    <property name="resource">voice/bbb/bbb_055_まあ，ストレートケ….wav</property>
    <property name="mlt_service">avformat-novalidate</property>
    <property name="meta.media.nb_streams">1</property>
    <property name="meta.media.0.stream.type">audio</property>
    <property name="meta.media.0.codec.sample_fmt">s16</property>
    <property name="meta.media.0.codec.sample_rate">24000</property>
    <property name="meta.media.0.codec.channels">1</property>
    <property name="meta.media.0.codec.name">pcm_s16le</property>
    <property name="meta.media.0.codec.long_name">PCM signed 16-bit little-endian</property>
    <property name="meta.media.0.codec.bit_rate">384000</property>
    <property name="seekable">1</property>
    <property name="audio_index">0</property>
    <property name="video_index">-1</property>
    <property name="creation_time">2023-12-15T04:07:01</property>
    <property name="astream">0</property>
    <property name="shotcut:skipConvert">1</property>
    <property name="xml">was here</property>
    <property name="shotcut:hash">4deb2ea0e3ca751a8406be346655a80f</property>
  </chain>
  <chain id="chain145" out="00:00:10.160">
    <property name="length">00:00:10.200</property>
    <property name="eof">pause</property>
    <property name="resource">voice/bbb/bbb_056_当然，クロスケーブ….wav</property>
    <property name="mlt_service">avformat-novalidate</property>
    <property name="meta.media.nb_streams">1</property>
    <property name="meta.media.0.stream.type">audio</property>
    <property name="meta.media.0.codec.sample_fmt">s16</property>
    <property name="meta.media.0.codec.sample_rate">24000</property>
    <property name="meta.media.0.codec.channels">1</property>
    <property name="meta.media.0.codec.name">pcm_s16le</property>
    <property name="meta.media.0.codec.long_name">PCM signed 16-bit little-endian</property>
    <property name="meta.media.0.codec.bit_rate">384000</property>
    <property name="seekable">1</property>
    <property name="audio_index">0</property>
    <property name="video_index">-1</property>
    <property name="creation_time">2023-12-15T04:07:10</property>
    <property name="astream">0</property>
    <property name="shotcut:skipConvert">1</property>
    <property name="xml">was here</property>
    <property name="shotcut:hash">62b4e15f8503d7ebbd27e4a13ca2c895</property>
  </chain>
  <chain id="chain146" out="00:00:06.960">
    <property name="length">00:00:07.000</property>
    <property name="eof">pause</property>
    <property name="resource">voice/bbb/bbb_057_LANケーブルとし….wav</property>
    <property name="mlt_service">avformat-novalidate</property>
    <property name="meta.media.nb_streams">1</property>
    <property name="meta.media.0.stream.type">audio</property>
    <property name="meta.media.0.codec.sample_fmt">s16</property>
    <property name="meta.media.0.codec.sample_rate">24000</property>
    <property name="meta.media.0.codec.channels">1</property>
    <property name="meta.media.0.codec.name">pcm_s16le</property>
    <property name="meta.media.0.codec.long_name">PCM signed 16-bit little-endian</property>
    <property name="meta.media.0.codec.bit_rate">384000</property>
    <property name="seekable">1</property>
    <property name="audio_index">0</property>
    <property name="video_index">-1</property>
    <property name="creation_time">2023-12-15T04:07:08</property>
    <property name="astream">0</property>
    <property name="shotcut:skipConvert">1</property>
    <property name="xml">was here</property>
    <property name="shotcut:hash">ad3c4c7f367458e8a88b8fa73aeca16c</property>
  </chain>
  <chain id="chain147" out="00:00:00.880">
    <property name="length">00:00:00.920</property>
    <property name="eof">pause</property>
    <property name="resource">voice/bbb/bbb_058_えむでぃーあい.wav</property>
    <property name="mlt_service">avformat-novalidate</property>
    <property name="meta.media.nb_streams">1</property>
    <property name="meta.media.0.stream.type">audio</property>
    <property name="meta.media.0.codec.sample_fmt">s16</property>
    <property name="meta.media.0.codec.sample_rate">24000</property>
    <property name="meta.media.0.codec.channels">1</property>
    <property name="meta.media.0.codec.name">pcm_s16le</property>
    <property name="meta.media.0.codec.long_name">PCM signed 16-bit little-endian</property>
    <property name="meta.media.0.codec.bit_rate">384000</property>
    <property name="seekable">1</property>
    <property name="audio_index">0</property>
    <property name="video_index">-1</property>
    <property name="creation_time">2023-12-15T04:06:54</property>
    <property name="astream">0</property>
    <property name="shotcut:skipConvert">1</property>
    <property name="xml">was here</property>
    <property name="shotcut:hash">a116dfa6844ca75797db5f9e9b8820b5</property>
  </chain>
  <chain id="chain148" out="00:00:02.680">
    <property name="length">00:00:02.720</property>
    <property name="eof">pause</property>
    <property name="resource">voice/bbb/bbb_059_wiring2.1.wav</property>
    <property name="mlt_service">avformat-novalidate</property>
    <property name="meta.media.nb_streams">1</property>
    <property name="meta.media.0.stream.type">audio</property>
    <property name="meta.media.0.codec.sample_fmt">s16</property>
    <property name="meta.media.0.codec.sample_rate">24000</property>
    <property name="meta.media.0.codec.channels">1</property>
    <property name="meta.media.0.codec.name">pcm_s16le</property>
    <property name="meta.media.0.codec.long_name">PCM signed 16-bit little-endian</property>
    <property name="meta.media.0.codec.bit_rate">384000</property>
    <property name="seekable">1</property>
    <property name="audio_index">0</property>
    <property name="video_index">-1</property>
    <property name="creation_time">2023-12-15T04:07:05</property>
    <property name="astream">0</property>
    <property name="shotcut:skipConvert">1</property>
    <property name="xml">was here</property>
    <property name="shotcut:hash">92c6050a8dba6c058408dab6acbcd247</property>
  </chain>
  <chain id="chain149" out="00:00:04.680">
    <property name="length">00:00:04.720</property>
    <property name="eof">pause</property>
    <property name="resource">voice/bbb/bbb_060_さっきよりも手こず….wav</property>
    <property name="mlt_service">avformat-novalidate</property>
    <property name="meta.media.nb_streams">1</property>
    <property name="meta.media.0.stream.type">audio</property>
    <property name="meta.media.0.codec.sample_fmt">s16</property>
    <property name="meta.media.0.codec.sample_rate">24000</property>
    <property name="meta.media.0.codec.channels">1</property>
    <property name="meta.media.0.codec.name">pcm_s16le</property>
    <property name="meta.media.0.codec.long_name">PCM signed 16-bit little-endian</property>
    <property name="meta.media.0.codec.bit_rate">384000</property>
    <property name="seekable">1</property>
    <property name="audio_index">0</property>
    <property name="video_index">-1</property>
    <property name="creation_time">2023-12-15T04:07:11</property>
    <property name="astream">0</property>
    <property name="shotcut:skipConvert">1</property>
    <property name="xml">was here</property>
    <property name="shotcut:hash">c14fcba97698b03b4729e4565201398f</property>
  </chain>
  <chain id="chain150" out="00:00:02.680">
    <property name="length">00:00:02.720</property>
    <property name="eof">pause</property>
    <property name="resource">voice/bbb/bbb_061_wiring2.1.wav</property>
    <property name="mlt_service">avformat-novalidate</property>
    <property name="meta.media.nb_streams">1</property>
    <property name="meta.media.0.stream.type">audio</property>
    <property name="meta.media.0.codec.sample_fmt">s16</property>
    <property name="meta.media.0.codec.sample_rate">24000</property>
    <property name="meta.media.0.codec.channels">1</property>
    <property name="meta.media.0.codec.name">pcm_s16le</property>
    <property name="meta.media.0.codec.long_name">PCM signed 16-bit little-endian</property>
    <property name="meta.media.0.codec.bit_rate">384000</property>
    <property name="seekable">1</property>
    <property name="audio_index">0</property>
    <property name="video_index">-1</property>
    <property name="creation_time">2023-12-15T04:07:11</property>
    <property name="astream">0</property>
    <property name="shotcut:skipConvert">1</property>
    <property name="xml">was here</property>
    <property name="shotcut:hash">92c6050a8dba6c058408dab6acbcd247</property>
  </chain>
  <chain id="chain151" out="00:00:02.000">
    <property name="length">00:00:02.040</property>
    <property name="eof">pause</property>
    <property name="resource">voice/bbb/bbb_062_arrange2.wav</property>
    <property name="mlt_service">avformat-novalidate</property>
    <property name="meta.media.nb_streams">1</property>
    <property name="meta.media.0.stream.type">audio</property>
    <property name="meta.media.0.codec.sample_fmt">s16</property>
    <property name="meta.media.0.codec.sample_rate">24000</property>
    <property name="meta.media.0.codec.channels">1</property>
    <property name="meta.media.0.codec.name">pcm_s16le</property>
    <property name="meta.media.0.codec.long_name">PCM signed 16-bit little-endian</property>
    <property name="meta.media.0.codec.bit_rate">384000</property>
    <property name="seekable">1</property>
    <property name="audio_index">0</property>
    <property name="video_index">-1</property>
    <property name="creation_time">2023-12-15T04:07:09</property>
    <property name="astream">0</property>
    <property name="shotcut:skipConvert">1</property>
    <property name="xml">was here</property>
    <property name="shotcut:hash">e9a9b6485fd0fc816bf96d961a74a2da</property>
  </chain>
  <chain id="chain152" out="00:00:07.320">
    <property name="length">00:00:07.360</property>
    <property name="eof">pause</property>
    <property name="resource">voice/bbb/bbb_063_はい，みなさんの応….wav</property>
    <property name="mlt_service">avformat-novalidate</property>
    <property name="meta.media.nb_streams">1</property>
    <property name="meta.media.0.stream.type">audio</property>
    <property name="meta.media.0.codec.sample_fmt">s16</property>
    <property name="meta.media.0.codec.sample_rate">24000</property>
    <property name="meta.media.0.codec.channels">1</property>
    <property name="meta.media.0.codec.name">pcm_s16le</property>
    <property name="meta.media.0.codec.long_name">PCM signed 16-bit little-endian</property>
    <property name="meta.media.0.codec.bit_rate">384000</property>
    <property name="seekable">1</property>
    <property name="audio_index">0</property>
    <property name="video_index">-1</property>
    <property name="creation_time">2023-12-15T04:07:24</property>
    <property name="astream">0</property>
    <property name="shotcut:skipConvert">1</property>
    <property name="xml">was here</property>
    <property name="shotcut:hash">92dbdfd3e81bf65e6856d03cc3557319</property>
  </chain>
  <chain id="chain153" out="00:00:02.000">
    <property name="length">00:00:02.040</property>
    <property name="eof">pause</property>
    <property name="resource">voice/bbb/bbb_064_arrange2.wav</property>
    <property name="mlt_service">avformat-novalidate</property>
    <property name="meta.media.nb_streams">1</property>
    <property name="meta.media.0.stream.type">audio</property>
    <property name="meta.media.0.codec.sample_fmt">s16</property>
    <property name="meta.media.0.codec.sample_rate">24000</property>
    <property name="meta.media.0.codec.channels">1</property>
    <property name="meta.media.0.codec.name">pcm_s16le</property>
    <property name="meta.media.0.codec.long_name">PCM signed 16-bit little-endian</property>
    <property name="meta.media.0.codec.bit_rate">384000</property>
    <property name="seekable">1</property>
    <property name="audio_index">0</property>
    <property name="video_index">-1</property>
    <property name="creation_time">2023-12-15T04:07:17</property>
    <property name="astream">0</property>
    <property name="shotcut:skipConvert">1</property>
    <property name="xml">was here</property>
    <property name="shotcut:hash">e9a9b6485fd0fc816bf96d961a74a2da</property>
  </chain>
  <chain id="chain154" out="00:00:04.240">
    <property name="length">00:00:04.280</property>
    <property name="eof">pause</property>
    <property name="resource">voice/bbb/bbb_066_一応線の長さを整え….wav</property>
    <property name="mlt_service">avformat-novalidate</property>
    <property name="meta.media.nb_streams">1</property>
    <property name="meta.media.0.stream.type">audio</property>
    <property name="meta.media.0.codec.sample_fmt">s16</property>
    <property name="meta.media.0.codec.sample_rate">24000</property>
    <property name="meta.media.0.codec.channels">1</property>
    <property name="meta.media.0.codec.name">pcm_s16le</property>
    <property name="meta.media.0.codec.long_name">PCM signed 16-bit little-endian</property>
    <property name="meta.media.0.codec.bit_rate">384000</property>
    <property name="seekable">1</property>
    <property name="audio_index">0</property>
    <property name="video_index">-1</property>
    <property name="creation_time">2023-12-15T04:07:24</property>
    <property name="astream">0</property>
    <property name="shotcut:skipConvert">1</property>
    <property name="xml">was here</property>
    <property name="shotcut:hash">10c583a94c3f018e539550e89c393951</property>
  </chain>
  <chain id="chain155" out="00:00:04.400">
    <property name="length">00:00:04.440</property>
    <property name="eof">pause</property>
    <property name="resource">voice/bbb/bbb_067_みなさんこれらの導….wav</property>
    <property name="mlt_service">avformat-novalidate</property>
    <property name="meta.media.nb_streams">1</property>
    <property name="meta.media.0.stream.type">audio</property>
    <property name="meta.media.0.codec.sample_fmt">s16</property>
    <property name="meta.media.0.codec.sample_rate">24000</property>
    <property name="meta.media.0.codec.channels">1</property>
    <property name="meta.media.0.codec.name">pcm_s16le</property>
    <property name="meta.media.0.codec.long_name">PCM signed 16-bit little-endian</property>
    <property name="meta.media.0.codec.bit_rate">384000</property>
    <property name="seekable">1</property>
    <property name="audio_index">0</property>
    <property name="video_index">-1</property>
    <property name="creation_time">2023-12-15T04:07:25</property>
    <property name="astream">0</property>
    <property name="shotcut:skipConvert">1</property>
    <property name="xml">was here</property>
    <property name="shotcut:hash">e5a0baf6ded8d2dfd7aa523c3cd883fc</property>
  </chain>
  <chain id="chain156" out="00:00:06.800">
    <property name="length">00:00:06.840</property>
    <property name="eof">pause</property>
    <property name="resource">voice/bbb/bbb_068_実はこの8本の導線….wav</property>
    <property name="mlt_service">avformat-novalidate</property>
    <property name="meta.media.nb_streams">1</property>
    <property name="meta.media.0.stream.type">audio</property>
    <property name="meta.media.0.codec.sample_fmt">s16</property>
    <property name="meta.media.0.codec.sample_rate">24000</property>
    <property name="meta.media.0.codec.channels">1</property>
    <property name="meta.media.0.codec.name">pcm_s16le</property>
    <property name="meta.media.0.codec.long_name">PCM signed 16-bit little-endian</property>
    <property name="meta.media.0.codec.bit_rate">384000</property>
    <property name="seekable">1</property>
    <property name="audio_index">0</property>
    <property name="video_index">-1</property>
    <property name="creation_time">2023-12-15T04:07:31</property>
    <property name="astream">0</property>
    <property name="shotcut:skipConvert">1</property>
    <property name="xml">was here</property>
    <property name="shotcut:hash">1c4c39d07306b361daf01f3639a917f1</property>
  </chain>
  <chain id="chain157" out="00:00:05.240">
    <property name="length">00:00:05.280</property>
    <property name="eof">pause</property>
    <property name="resource">voice/bbb/bbb_069_この部分まで達して….wav</property>
    <property name="mlt_service">avformat-novalidate</property>
    <property name="meta.media.nb_streams">1</property>
    <property name="meta.media.0.stream.type">audio</property>
    <property name="meta.media.0.codec.sample_fmt">s16</property>
    <property name="meta.media.0.codec.sample_rate">24000</property>
    <property name="meta.media.0.codec.channels">1</property>
    <property name="meta.media.0.codec.name">pcm_s16le</property>
    <property name="meta.media.0.codec.long_name">PCM signed 16-bit little-endian</property>
    <property name="meta.media.0.codec.bit_rate">384000</property>
    <property name="seekable">1</property>
    <property name="audio_index">0</property>
    <property name="video_index">-1</property>
    <property name="creation_time">2023-12-15T04:07:33</property>
    <property name="astream">0</property>
    <property name="shotcut:skipConvert">1</property>
    <property name="xml">was here</property>
    <property name="shotcut:hash">06819db60085fffc31caafa8a15d628b</property>
  </chain>
  <chain id="chain158" out="00:00:05.480">
    <property name="length">00:00:05.520</property>
    <property name="eof">pause</property>
    <property name="resource">voice/bbb/bbb_070_機器との接続はその….wav</property>
    <property name="mlt_service">avformat-novalidate</property>
    <property name="meta.media.nb_streams">1</property>
    <property name="meta.media.0.stream.type">audio</property>
    <property name="meta.media.0.codec.sample_fmt">s16</property>
    <property name="meta.media.0.codec.sample_rate">24000</property>
    <property name="meta.media.0.codec.channels">1</property>
    <property name="meta.media.0.codec.name">pcm_s16le</property>
    <property name="meta.media.0.codec.long_name">PCM signed 16-bit little-endian</property>
    <property name="meta.media.0.codec.bit_rate">384000</property>
    <property name="seekable">1</property>
    <property name="audio_index">0</property>
    <property name="video_index">-1</property>
    <property name="creation_time">2023-12-15T04:07:32</property>
    <property name="astream">0</property>
    <property name="shotcut:skipConvert">1</property>
    <property name="xml">was here</property>
    <property name="shotcut:hash">2d3dff5d159f4aa738e8877db1c933cc</property>
  </chain>
  <chain id="chain159" out="00:00:05.800">
    <property name="length">00:00:05.840</property>
    <property name="eof">pause</property>
    <property name="resource">voice/bbb/bbb_071_その部分に達するだ….wav</property>
    <property name="mlt_service">avformat-novalidate</property>
    <property name="meta.media.nb_streams">1</property>
    <property name="meta.media.0.stream.type">audio</property>
    <property name="meta.media.0.codec.sample_fmt">s16</property>
    <property name="meta.media.0.codec.sample_rate">24000</property>
    <property name="meta.media.0.codec.channels">1</property>
    <property name="meta.media.0.codec.name">pcm_s16le</property>
    <property name="meta.media.0.codec.long_name">PCM signed 16-bit little-endian</property>
    <property name="meta.media.0.codec.bit_rate">384000</property>
    <property name="seekable">1</property>
    <property name="audio_index">0</property>
    <property name="video_index">-1</property>
    <property name="creation_time">2023-12-15T04:07:42</property>
    <property name="astream">0</property>
    <property name="shotcut:skipConvert">1</property>
    <property name="xml">was here</property>
    <property name="shotcut:hash">0b1755b663db1ab353f072fd3fc4c9bd</property>
  </chain>
  <chain id="chain160" out="00:00:10.600">
    <property name="length">00:00:10.640</property>
    <property name="eof">pause</property>
    <property name="resource">voice/bbb/bbb_072_なぜなら，後の工程….wav</property>
    <property name="mlt_service">avformat-novalidate</property>
    <property name="meta.media.nb_streams">1</property>
    <property name="meta.media.0.stream.type">audio</property>
    <property name="meta.media.0.codec.sample_fmt">s16</property>
    <property name="meta.media.0.codec.sample_rate">24000</property>
    <property name="meta.media.0.codec.channels">1</property>
    <property name="meta.media.0.codec.name">pcm_s16le</property>
    <property name="meta.media.0.codec.long_name">PCM signed 16-bit little-endian</property>
    <property name="meta.media.0.codec.bit_rate">384000</property>
    <property name="seekable">1</property>
    <property name="audio_index">0</property>
    <property name="video_index">-1</property>
    <property name="creation_time">2023-12-15T04:07:51</property>
    <property name="astream">0</property>
    <property name="shotcut:skipConvert">1</property>
    <property name="xml">was here</property>
    <property name="shotcut:hash">4e8e2047a06f7c8820aba6e4191cf8d1</property>
  </chain>
  <chain id="chain161" out="00:00:04.000">
    <property name="length">00:00:04.040</property>
    <property name="eof">pause</property>
    <property name="resource">voice/bbb/bbb_073_これで，LANケー….wav</property>
    <property name="mlt_service">avformat-novalidate</property>
    <property name="meta.media.nb_streams">1</property>
    <property name="meta.media.0.stream.type">audio</property>
    <property name="meta.media.0.codec.sample_fmt">s16</property>
    <property name="meta.media.0.codec.sample_rate">24000</property>
    <property name="meta.media.0.codec.channels">1</property>
    <property name="meta.media.0.codec.name">pcm_s16le</property>
    <property name="meta.media.0.codec.long_name">PCM signed 16-bit little-endian</property>
    <property name="meta.media.0.codec.bit_rate">384000</property>
    <property name="seekable">1</property>
    <property name="audio_index">0</property>
    <property name="video_index">-1</property>
    <property name="creation_time">2023-12-15T04:07:39</property>
    <property name="astream">0</property>
    <property name="shotcut:skipConvert">1</property>
    <property name="xml">was here</property>
    <property name="shotcut:hash">9b78a9dccb407931bb800bfe71ee43c3</property>
  </chain>
  <chain id="chain162" out="00:00:07.720">
    <property name="length">00:00:07.760</property>
    <property name="eof">pause</property>
    <property name="resource">voice/bbb/bbb_074_つまり，導線の先端….wav</property>
    <property name="mlt_service">avformat-novalidate</property>
    <property name="meta.media.nb_streams">1</property>
    <property name="meta.media.0.stream.type">audio</property>
    <property name="meta.media.0.codec.sample_fmt">s16</property>
    <property name="meta.media.0.codec.sample_rate">24000</property>
    <property name="meta.media.0.codec.channels">1</property>
    <property name="meta.media.0.codec.name">pcm_s16le</property>
    <property name="meta.media.0.codec.long_name">PCM signed 16-bit little-endian</property>
    <property name="meta.media.0.codec.bit_rate">384000</property>
    <property name="seekable">1</property>
    <property name="audio_index">0</property>
    <property name="video_index">-1</property>
    <property name="creation_time">2023-12-15T04:07:53</property>
    <property name="astream">0</property>
    <property name="shotcut:skipConvert">1</property>
    <property name="xml">was here</property>
    <property name="shotcut:hash">5c3c969d650113fcaaa9ebc2cae17ee7</property>
  </chain>
  <chain id="chain163" out="00:00:00.640">
    <property name="length">00:00:00.680</property>
    <property name="eof">pause</property>
    <property name="resource">voice/bbb/bbb_075_long.wav</property>
    <property name="mlt_service">avformat-novalidate</property>
    <property name="meta.media.nb_streams">1</property>
    <property name="meta.media.0.stream.type">audio</property>
    <property name="meta.media.0.codec.sample_fmt">s16</property>
    <property name="meta.media.0.codec.sample_rate">24000</property>
    <property name="meta.media.0.codec.channels">1</property>
    <property name="meta.media.0.codec.name">pcm_s16le</property>
    <property name="meta.media.0.codec.long_name">PCM signed 16-bit little-endian</property>
    <property name="meta.media.0.codec.bit_rate">384000</property>
    <property name="seekable">1</property>
    <property name="audio_index">0</property>
    <property name="video_index">-1</property>
    <property name="creation_time">2023-12-15T04:07:38</property>
    <property name="astream">0</property>
    <property name="shotcut:skipConvert">1</property>
    <property name="xml">was here</property>
    <property name="shotcut:hash">d84e4b42c8dafa204f8da1d5cbc0f6e4</property>
  </chain>
  <chain id="chain164" out="00:00:01.120">
    <property name="length">00:00:01.160</property>
    <property name="eof">pause</property>
    <property name="resource">voice/bbb/bbb_076_mod2.wav</property>
    <property name="mlt_service">avformat-novalidate</property>
    <property name="meta.media.nb_streams">1</property>
    <property name="meta.media.0.stream.type">audio</property>
    <property name="meta.media.0.codec.sample_fmt">s16</property>
    <property name="meta.media.0.codec.sample_rate">24000</property>
    <property name="meta.media.0.codec.channels">1</property>
    <property name="meta.media.0.codec.name">pcm_s16le</property>
    <property name="meta.media.0.codec.long_name">PCM signed 16-bit little-endian</property>
    <property name="meta.media.0.codec.bit_rate">384000</property>
    <property name="seekable">1</property>
    <property name="audio_index">0</property>
    <property name="video_index">-1</property>
    <property name="creation_time">2023-12-15T04:07:40</property>
    <property name="astream">0</property>
    <property name="shotcut:skipConvert">1</property>
    <property name="xml">was here</property>
    <property name="shotcut:hash">21487c0f42c2b1abffa215ff81585e39</property>
  </chain>
  <chain id="chain165" out="00:00:02.640">
    <property name="length">00:00:02.680</property>
    <property name="eof">pause</property>
    <property name="resource">voice/bbb/bbb_077_あとはモジュールを….wav</property>
    <property name="mlt_service">avformat-novalidate</property>
    <property name="meta.media.nb_streams">1</property>
    <property name="meta.media.0.stream.type">audio</property>
    <property name="meta.media.0.codec.sample_fmt">s16</property>
    <property name="meta.media.0.codec.sample_rate">24000</property>
    <property name="meta.media.0.codec.channels">1</property>
    <property name="meta.media.0.codec.name">pcm_s16le</property>
    <property name="meta.media.0.codec.long_name">PCM signed 16-bit little-endian</property>
    <property name="meta.media.0.codec.bit_rate">384000</property>
    <property name="seekable">1</property>
    <property name="audio_index">0</property>
    <property name="video_index">-1</property>
    <property name="creation_time">2023-12-15T04:07:49</property>
    <property name="astream">0</property>
    <property name="shotcut:skipConvert">1</property>
    <property name="xml">was here</property>
    <property name="shotcut:hash">2ed10f702e0bb54c9161ec25db08bb69</property>
  </chain>
  <chain id="chain166" out="00:00:08.120">
    <property name="length">00:00:08.160</property>
    <property name="eof">pause</property>
    <property name="resource">voice/bbb/bbb_078_実は，配線がうまく….wav</property>
    <property name="mlt_service">avformat-novalidate</property>
    <property name="meta.media.nb_streams">1</property>
    <property name="meta.media.0.stream.type">audio</property>
    <property name="meta.media.0.codec.sample_fmt">s16</property>
    <property name="meta.media.0.codec.sample_rate">24000</property>
    <property name="meta.media.0.codec.channels">1</property>
    <property name="meta.media.0.codec.name">pcm_s16le</property>
    <property name="meta.media.0.codec.long_name">PCM signed 16-bit little-endian</property>
    <property name="meta.media.0.codec.bit_rate">384000</property>
    <property name="seekable">1</property>
    <property name="audio_index">0</property>
    <property name="video_index">-1</property>
    <property name="creation_time">2023-12-15T04:07:59</property>
    <property name="astream">0</property>
    <property name="shotcut:skipConvert">1</property>
    <property name="xml">was here</property>
    <property name="shotcut:hash">6d3d1bb32e22872a8d414073ed442934</property>
  </chain>
  <chain id="chain167" out="00:00:01.200">
    <property name="length">00:00:01.240</property>
    <property name="eof">pause</property>
    <property name="resource">voice/bbb/bbb_079_不思議ですよね．.wav</property>
    <property name="mlt_service">avformat-novalidate</property>
    <property name="meta.media.nb_streams">1</property>
    <property name="meta.media.0.stream.type">audio</property>
    <property name="meta.media.0.codec.sample_fmt">s16</property>
    <property name="meta.media.0.codec.sample_rate">24000</property>
    <property name="meta.media.0.codec.channels">1</property>
    <property name="meta.media.0.codec.name">pcm_s16le</property>
    <property name="meta.media.0.codec.long_name">PCM signed 16-bit little-endian</property>
    <property name="meta.media.0.codec.bit_rate">384000</property>
    <property name="seekable">1</property>
    <property name="audio_index">0</property>
    <property name="video_index">-1</property>
    <property name="creation_time">2023-12-15T04:07:46</property>
    <property name="astream">0</property>
    <property name="shotcut:skipConvert">1</property>
    <property name="xml">was here</property>
    <property name="shotcut:hash">e158486458af293ce3c6de2ec9441dcd</property>
  </chain>
  <chain id="chain168" out="00:00:03.800">
    <property name="length">00:00:03.840</property>
    <property name="eof">pause</property>
    <property name="resource">voice/bbb/bbb_080_特に語ることが無い….wav</property>
    <property name="mlt_service">avformat-novalidate</property>
    <property name="meta.media.nb_streams">1</property>
    <property name="meta.media.0.stream.type">audio</property>
    <property name="meta.media.0.codec.sample_fmt">s16</property>
    <property name="meta.media.0.codec.sample_rate">24000</property>
    <property name="meta.media.0.codec.channels">1</property>
    <property name="meta.media.0.codec.name">pcm_s16le</property>
    <property name="meta.media.0.codec.long_name">PCM signed 16-bit little-endian</property>
    <property name="meta.media.0.codec.bit_rate">384000</property>
    <property name="seekable">1</property>
    <property name="audio_index">0</property>
    <property name="video_index">-1</property>
    <property name="creation_time">2023-12-15T04:07:55</property>
    <property name="astream">0</property>
    <property name="shotcut:skipConvert">1</property>
    <property name="xml">was here</property>
    <property name="shotcut:hash">b3b455671d25499ebee5d6b64a4ed186</property>
  </chain>
  <chain id="chain169" out="00:00:01.120">
    <property name="length">00:00:01.160</property>
    <property name="eof">pause</property>
    <property name="resource">voice/bbb/bbb_081_mod2.wav</property>
    <property name="mlt_service">avformat-novalidate</property>
    <property name="meta.media.nb_streams">1</property>
    <property name="meta.media.0.stream.type">audio</property>
    <property name="meta.media.0.codec.sample_fmt">s16</property>
    <property name="meta.media.0.codec.sample_rate">24000</property>
    <property name="meta.media.0.codec.channels">1</property>
    <property name="meta.media.0.codec.name">pcm_s16le</property>
    <property name="meta.media.0.codec.long_name">PCM signed 16-bit little-endian</property>
    <property name="meta.media.0.codec.bit_rate">384000</property>
    <property name="seekable">1</property>
    <property name="audio_index">0</property>
    <property name="video_index">-1</property>
    <property name="creation_time">2023-12-15T04:07:53</property>
    <property name="astream">0</property>
    <property name="shotcut:skipConvert">1</property>
    <property name="xml">was here</property>
    <property name="shotcut:hash">21487c0f42c2b1abffa215ff81585e39</property>
  </chain>
  <chain id="chain170" out="00:00:01.640">
    <property name="length">00:00:01.680</property>
    <property name="eof">pause</property>
    <property name="resource">voice/bbb/bbb_082_swage2.wav</property>
    <property name="mlt_service">avformat-novalidate</property>
    <property name="meta.media.nb_streams">1</property>
    <property name="meta.media.0.stream.type">audio</property>
    <property name="meta.media.0.codec.sample_fmt">s16</property>
    <property name="meta.media.0.codec.sample_rate">24000</property>
    <property name="meta.media.0.codec.channels">1</property>
    <property name="meta.media.0.codec.name">pcm_s16le</property>
    <property name="meta.media.0.codec.long_name">PCM signed 16-bit little-endian</property>
    <property name="meta.media.0.codec.bit_rate">384000</property>
    <property name="seekable">1</property>
    <property name="audio_index">0</property>
    <property name="video_index">-1</property>
    <property name="creation_time">2023-12-15T04:07:56</property>
    <property name="astream">0</property>
    <property name="shotcut:skipConvert">1</property>
    <property name="xml">was here</property>
    <property name="shotcut:hash">8c037f43430e0689ba0511b202b6ff42</property>
  </chain>
  <chain id="chain171" out="00:00:05.320">
    <property name="length">00:00:05.360</property>
    <property name="eof">pause</property>
    <property name="resource">voice/bbb/bbb_083_さて，モジュールの….wav</property>
    <property name="mlt_service">avformat-novalidate</property>
    <property name="meta.media.nb_streams">1</property>
    <property name="meta.media.0.stream.type">audio</property>
    <property name="meta.media.0.codec.sample_fmt">s16</property>
    <property name="meta.media.0.codec.sample_rate">24000</property>
    <property name="meta.media.0.codec.channels">1</property>
    <property name="meta.media.0.codec.name">pcm_s16le</property>
    <property name="meta.media.0.codec.long_name">PCM signed 16-bit little-endian</property>
    <property name="meta.media.0.codec.bit_rate">384000</property>
    <property name="seekable">1</property>
    <property name="audio_index">0</property>
    <property name="video_index">-1</property>
    <property name="creation_time">2023-12-15T04:08:04</property>
    <property name="astream">0</property>
    <property name="shotcut:skipConvert">1</property>
    <property name="xml">was here</property>
    <property name="shotcut:hash">2c4ffd10c156f04b4d548777e3b13c1e</property>
  </chain>
  <chain id="chain172" out="00:00:01.640">
    <property name="length">00:00:01.680</property>
    <property name="eof">pause</property>
    <property name="resource">voice/bbb/bbb_084_swage2.wav</property>
    <property name="mlt_service">avformat-novalidate</property>
    <property name="meta.media.nb_streams">1</property>
    <property name="meta.media.0.stream.type">audio</property>
    <property name="meta.media.0.codec.sample_fmt">s16</property>
    <property name="meta.media.0.codec.sample_rate">24000</property>
    <property name="meta.media.0.codec.channels">1</property>
    <property name="meta.media.0.codec.name">pcm_s16le</property>
    <property name="meta.media.0.codec.long_name">PCM signed 16-bit little-endian</property>
    <property name="meta.media.0.codec.bit_rate">384000</property>
    <property name="seekable">1</property>
    <property name="audio_index">0</property>
    <property name="video_index">-1</property>
    <property name="creation_time">2023-12-15T04:07:59</property>
    <property name="astream">0</property>
    <property name="shotcut:skipConvert">1</property>
    <property name="xml">was here</property>
    <property name="shotcut:hash">8c037f43430e0689ba0511b202b6ff42</property>
  </chain>
  <chain id="chain173" out="00:00:00.680">
    <property name="length">00:00:00.720</property>
    <property name="eof">pause</property>
    <property name="resource">voice/bbb/bbb_085_test.wav</property>
    <property name="mlt_service">avformat-novalidate</property>
    <property name="meta.media.nb_streams">1</property>
    <property name="meta.media.0.stream.type">audio</property>
    <property name="meta.media.0.codec.sample_fmt">s16</property>
    <property name="meta.media.0.codec.sample_rate">24000</property>
    <property name="meta.media.0.codec.channels">1</property>
    <property name="meta.media.0.codec.name">pcm_s16le</property>
    <property name="meta.media.0.codec.long_name">PCM signed 16-bit little-endian</property>
    <property name="meta.media.0.codec.bit_rate">384000</property>
    <property name="seekable">1</property>
    <property name="audio_index">0</property>
    <property name="video_index">-1</property>
    <property name="creation_time">2023-12-15T04:07:58</property>
    <property name="astream">0</property>
    <property name="shotcut:skipConvert">1</property>
    <property name="xml">was here</property>
    <property name="shotcut:hash">370d337d1515e5866a1f8879b501b3e6</property>
  </chain>
  <chain id="chain174" out="00:00:03.520">
    <property name="length">00:00:03.560</property>
    <property name="eof">pause</property>
    <property name="resource">voice/bbb/bbb_086_最後はテスターで確….wav</property>
    <property name="mlt_service">avformat-novalidate</property>
    <property name="meta.media.nb_streams">1</property>
    <property name="meta.media.0.stream.type">audio</property>
    <property name="meta.media.0.codec.sample_fmt">s16</property>
    <property name="meta.media.0.codec.sample_rate">24000</property>
    <property name="meta.media.0.codec.channels">1</property>
    <property name="meta.media.0.codec.name">pcm_s16le</property>
    <property name="meta.media.0.codec.long_name">PCM signed 16-bit little-endian</property>
    <property name="meta.media.0.codec.bit_rate">384000</property>
    <property name="seekable">1</property>
    <property name="audio_index">0</property>
    <property name="video_index">-1</property>
    <property name="creation_time">2023-12-15T04:08:05</property>
    <property name="astream">0</property>
    <property name="shotcut:skipConvert">1</property>
    <property name="xml">was here</property>
    <property name="shotcut:hash">13e63aaf95a14f71eff8ef3679dd9776</property>
  </chain>
  <chain id="chain175" out="00:00:00.680">
    <property name="length">00:00:00.720</property>
    <property name="eof">pause</property>
    <property name="resource">voice/bbb/bbb_087_test.wav</property>
    <property name="mlt_service">avformat-novalidate</property>
    <property name="meta.media.nb_streams">1</property>
    <property name="meta.media.0.stream.type">audio</property>
    <property name="meta.media.0.codec.sample_fmt">s16</property>
    <property name="meta.media.0.codec.sample_rate">24000</property>
    <property name="meta.media.0.codec.channels">1</property>
    <property name="meta.media.0.codec.name">pcm_s16le</property>
    <property name="meta.media.0.codec.long_name">PCM signed 16-bit little-endian</property>
    <property name="meta.media.0.codec.bit_rate">384000</property>
    <property name="seekable">1</property>
    <property name="audio_index">0</property>
    <property name="video_index">-1</property>
    <property name="creation_time">2023-12-15T04:08:00</property>
    <property name="astream">0</property>
    <property name="shotcut:skipConvert">1</property>
    <property name="xml">was here</property>
    <property name="shotcut:hash">370d337d1515e5866a1f8879b501b3e6</property>
  </chain>
  <chain id="chain176" out="00:00:01.120">
    <property name="length">00:00:01.160</property>
    <property name="eof">pause</property>
    <property name="resource">voice/bbb/bbb_088_goal.wav</property>
    <property name="mlt_service">avformat-novalidate</property>
    <property name="meta.media.nb_streams">1</property>
    <property name="meta.media.0.stream.type">audio</property>
    <property name="meta.media.0.codec.sample_fmt">s16</property>
    <property name="meta.media.0.codec.sample_rate">24000</property>
    <property name="meta.media.0.codec.channels">1</property>
    <property name="meta.media.0.codec.name">pcm_s16le</property>
    <property name="meta.media.0.codec.long_name">PCM signed 16-bit little-endian</property>
    <property name="meta.media.0.codec.bit_rate">384000</property>
    <property name="seekable">1</property>
    <property name="audio_index">0</property>
    <property name="video_index">-1</property>
    <property name="creation_time">2023-12-15T04:08:04</property>
    <property name="astream">0</property>
    <property name="shotcut:skipConvert">1</property>
    <property name="xml">was here</property>
    <property name="shotcut:hash">9afaced8fe51683e839507b499e31bbb</property>
  </chain>
  <chain id="chain177" out="00:00:02.280">
    <property name="length">00:00:02.320</property>
    <property name="eof">pause</property>
    <property name="resource">voice/bbb/bbb_089_はい．ここでタイマ….wav</property>
    <property name="mlt_service">avformat-novalidate</property>
    <property name="meta.media.nb_streams">1</property>
    <property name="meta.media.0.stream.type">audio</property>
    <property name="meta.media.0.codec.sample_fmt">s16</property>
    <property name="meta.media.0.codec.sample_rate">24000</property>
    <property name="meta.media.0.codec.channels">1</property>
    <property name="meta.media.0.codec.name">pcm_s16le</property>
    <property name="meta.media.0.codec.long_name">PCM signed 16-bit little-endian</property>
    <property name="meta.media.0.codec.bit_rate">384000</property>
    <property name="seekable">1</property>
    <property name="audio_index">0</property>
    <property name="video_index">-1</property>
    <property name="creation_time">2023-12-15T04:08:06</property>
    <property name="astream">0</property>
    <property name="shotcut:skipConvert">1</property>
    <property name="xml">was here</property>
    <property name="shotcut:hash">ce3e6d1f8b7021768bd6600dc8592e3b</property>
  </chain>
  <chain id="chain178" out="00:00:01.120">
    <property name="length">00:00:01.160</property>
    <property name="eof">pause</property>
    <property name="resource">voice/bbb/bbb_090_goal.wav</property>
    <property name="mlt_service">avformat-novalidate</property>
    <property name="meta.media.nb_streams">1</property>
    <property name="meta.media.0.stream.type">audio</property>
    <property name="meta.media.0.codec.sample_fmt">s16</property>
    <property name="meta.media.0.codec.sample_rate">24000</property>
    <property name="meta.media.0.codec.channels">1</property>
    <property name="meta.media.0.codec.name">pcm_s16le</property>
    <property name="meta.media.0.codec.long_name">PCM signed 16-bit little-endian</property>
    <property name="meta.media.0.codec.bit_rate">384000</property>
    <property name="seekable">1</property>
    <property name="audio_index">0</property>
    <property name="video_index">-1</property>
    <property name="creation_time">2023-12-15T04:08:05</property>
    <property name="astream">0</property>
    <property name="shotcut:skipConvert">1</property>
    <property name="xml">was here</property>
    <property name="shotcut:hash">9afaced8fe51683e839507b499e31bbb</property>
  </chain>
  <chain id="chain179" out="00:00:00.840">
    <property name="length">00:00:00.880</property>
    <property name="eof">pause</property>
    <property name="resource">voice/bbb/bbb_091_ps.wav</property>
    <property name="mlt_service">avformat-novalidate</property>
    <property name="meta.media.nb_streams">1</property>
    <property name="meta.media.0.stream.type">audio</property>
    <property name="meta.media.0.codec.sample_fmt">s16</property>
    <property name="meta.media.0.codec.sample_rate">24000</property>
    <property name="meta.media.0.codec.channels">1</property>
    <property name="meta.media.0.codec.name">pcm_s16le</property>
    <property name="meta.media.0.codec.long_name">PCM signed 16-bit little-endian</property>
    <property name="meta.media.0.codec.bit_rate">384000</property>
    <property name="seekable">1</property>
    <property name="audio_index">0</property>
    <property name="video_index">-1</property>
    <property name="creation_time">2023-12-15T04:08:05</property>
    <property name="astream">0</property>
    <property name="shotcut:skipConvert">1</property>
    <property name="xml">was here</property>
    <property name="shotcut:hash">922ec3f53acb6564a424e9f039e90b70</property>
  </chain>
  <chain id="chain180" out="00:00:01.400">
    <property name="length">00:00:01.440</property>
    <property name="eof">pause</property>
    <property name="resource">voice/bbb/bbb_092_乾燥した乾燥.wav</property>
    <property name="mlt_service">avformat-novalidate</property>
    <property name="meta.media.nb_streams">1</property>
    <property name="meta.media.0.stream.type">audio</property>
    <property name="meta.media.0.codec.sample_fmt">s16</property>
    <property name="meta.media.0.codec.sample_rate">24000</property>
    <property name="meta.media.0.codec.channels">1</property>
    <property name="meta.media.0.codec.name">pcm_s16le</property>
    <property name="meta.media.0.codec.long_name">PCM signed 16-bit little-endian</property>
    <property name="meta.media.0.codec.bit_rate">384000</property>
    <property name="seekable">1</property>
    <property name="audio_index">0</property>
    <property name="video_index">-1</property>
    <property name="creation_time">2023-12-15T04:08:10</property>
    <property name="astream">0</property>
    <property name="shotcut:skipConvert">1</property>
    <property name="xml">was here</property>
    <property name="shotcut:hash">4f82bed3cb9f45a83f7eed6bc4c5819d</property>
  </chain>
  <chain id="chain181" out="00:00:09.120">
    <property name="length">00:00:09.160</property>
    <property name="eof">pause</property>
    <property name="resource">voice/bbb/bbb_093_うぷぬしがあーるじ….wav</property>
    <property name="mlt_service">avformat-novalidate</property>
    <property name="meta.media.nb_streams">1</property>
    <property name="meta.media.0.stream.type">audio</property>
    <property name="meta.media.0.codec.sample_fmt">s16</property>
    <property name="meta.media.0.codec.sample_rate">24000</property>
    <property name="meta.media.0.codec.channels">1</property>
    <property name="meta.media.0.codec.name">pcm_s16le</property>
    <property name="meta.media.0.codec.long_name">PCM signed 16-bit little-endian</property>
    <property name="meta.media.0.codec.bit_rate">384000</property>
    <property name="seekable">1</property>
    <property name="audio_index">0</property>
    <property name="video_index">-1</property>
    <property name="creation_time">2023-12-15T04:08:28</property>
    <property name="astream">0</property>
    <property name="shotcut:skipConvert">1</property>
    <property name="xml">was here</property>
    <property name="shotcut:hash">c3527ee51881db80426917ddc2373942</property>
  </chain>
  <chain id="chain182" out="00:00:07.680">
    <property name="length">00:00:07.720</property>
    <property name="eof">pause</property>
    <property name="resource">voice/bbb/bbb_094_ちなみに，この動画….wav</property>
    <property name="mlt_service">avformat-novalidate</property>
    <property name="meta.media.nb_streams">1</property>
    <property name="meta.media.0.stream.type">audio</property>
    <property name="meta.media.0.codec.sample_fmt">s16</property>
    <property name="meta.media.0.codec.sample_rate">24000</property>
    <property name="meta.media.0.codec.channels">1</property>
    <property name="meta.media.0.codec.name">pcm_s16le</property>
    <property name="meta.media.0.codec.long_name">PCM signed 16-bit little-endian</property>
    <property name="meta.media.0.codec.bit_rate">384000</property>
    <property name="seekable">1</property>
    <property name="audio_index">0</property>
    <property name="video_index">-1</property>
    <property name="creation_time">2023-12-15T04:08:26</property>
    <property name="astream">0</property>
    <property name="shotcut:skipConvert">1</property>
    <property name="xml">was here</property>
    <property name="shotcut:hash">77e0c587344fe2e9da1a57af47161a3f</property>
  </chain>
  <chain id="chain183" out="00:00:04.600">
    <property name="length">00:00:04.640</property>
    <property name="eof">pause</property>
    <property name="resource">voice/bbb/bbb_095_うぷぬしの興味のあ….wav</property>
    <property name="mlt_service">avformat-novalidate</property>
    <property name="meta.media.nb_streams">1</property>
    <property name="meta.media.0.stream.type">audio</property>
    <property name="meta.media.0.codec.sample_fmt">s16</property>
    <property name="meta.media.0.codec.sample_rate">24000</property>
    <property name="meta.media.0.codec.channels">1</property>
    <property name="meta.media.0.codec.name">pcm_s16le</property>
    <property name="meta.media.0.codec.long_name">PCM signed 16-bit little-endian</property>
    <property name="meta.media.0.codec.bit_rate">384000</property>
    <property name="seekable">1</property>
    <property name="audio_index">0</property>
    <property name="video_index">-1</property>
    <property name="creation_time">2023-12-15T04:08:19</property>
    <property name="astream">0</property>
    <property name="shotcut:skipConvert">1</property>
    <property name="xml">was here</property>
    <property name="shotcut:hash">f5899dc88fd745a3790a274f7b800550</property>
  </chain>
  <chain id="chain184" out="00:00:03.320">
    <property name="length">00:00:03.360</property>
    <property name="eof">pause</property>
    <property name="resource">voice/bbb/bbb_096_ちょっと前では競プ….wav</property>
    <property name="mlt_service">avformat-novalidate</property>
    <property name="meta.media.nb_streams">1</property>
    <property name="meta.media.0.stream.type">audio</property>
    <property name="meta.media.0.codec.sample_fmt">s16</property>
    <property name="meta.media.0.codec.sample_rate">24000</property>
    <property name="meta.media.0.codec.channels">1</property>
    <property name="meta.media.0.codec.name">pcm_s16le</property>
    <property name="meta.media.0.codec.long_name">PCM signed 16-bit little-endian</property>
    <property name="meta.media.0.codec.bit_rate">384000</property>
    <property name="seekable">1</property>
    <property name="audio_index">0</property>
    <property name="video_index">-1</property>
    <property name="creation_time">2023-12-15T04:08:17</property>
    <property name="astream">0</property>
    <property name="shotcut:skipConvert">1</property>
    <property name="xml">was here</property>
    <property name="shotcut:hash">d84e59307f71ab40b42a9a889153d38e</property>
  </chain>
  <chain id="chain185" out="00:00:06.160">
    <property name="length">00:00:06.200</property>
    <property name="eof">pause</property>
    <property name="resource">voice/bbb/bbb_097_まあ，今はもっぱら….wav</property>
    <property name="mlt_service">avformat-novalidate</property>
    <property name="meta.media.nb_streams">1</property>
    <property name="meta.media.0.stream.type">audio</property>
    <property name="meta.media.0.codec.sample_fmt">s16</property>
    <property name="meta.media.0.codec.sample_rate">24000</property>
    <property name="meta.media.0.codec.channels">1</property>
    <property name="meta.media.0.codec.name">pcm_s16le</property>
    <property name="meta.media.0.codec.long_name">PCM signed 16-bit little-endian</property>
    <property name="meta.media.0.codec.bit_rate">384000</property>
    <property name="seekable">1</property>
    <property name="audio_index">0</property>
    <property name="video_index">-1</property>
    <property name="creation_time">2023-12-15T04:08:24</property>
    <property name="astream">0</property>
    <property name="shotcut:skipConvert">1</property>
    <property name="xml">was here</property>
    <property name="shotcut:hash">135b488358509518326a31be1b2257c9</property>
  </chain>
  <chain id="chain186" out="00:00:02.360">
    <property name="length">00:00:02.400</property>
    <property name="eof">pause</property>
    <property name="resource">voice/bbb/bbb_098_是非うぷぬしに話し….wav</property>
    <property name="mlt_service">avformat-novalidate</property>
    <property name="meta.media.nb_streams">1</property>
    <property name="meta.media.0.stream.type">audio</property>
    <property name="meta.media.0.codec.sample_fmt">s16</property>
    <property name="meta.media.0.codec.sample_rate">24000</property>
    <property name="meta.media.0.codec.channels">1</property>
    <property name="meta.media.0.codec.name">pcm_s16le</property>
    <property name="meta.media.0.codec.long_name">PCM signed 16-bit little-endian</property>
    <property name="meta.media.0.codec.bit_rate">384000</property>
    <property name="seekable">1</property>
    <property name="audio_index">0</property>
    <property name="video_index">-1</property>
    <property name="creation_time">2023-12-15T04:08:20</property>
    <property name="astream">0</property>
    <property name="shotcut:skipConvert">1</property>
    <property name="xml">was here</property>
    <property name="shotcut:hash">ba973ee542d6516efdaa053e8c01aa87</property>
  </chain>
  <chain id="chain187" out="00:00:10.880">
    <property name="length">00:00:10.920</property>
    <property name="eof">pause</property>
    <property name="resource">voice/bbb/bbb_099_一応この動画で述べ….wav</property>
    <property name="mlt_service">avformat-novalidate</property>
    <property name="meta.media.nb_streams">1</property>
    <property name="meta.media.0.stream.type">audio</property>
    <property name="meta.media.0.codec.sample_fmt">s16</property>
    <property name="meta.media.0.codec.sample_rate">24000</property>
    <property name="meta.media.0.codec.channels">1</property>
    <property name="meta.media.0.codec.name">pcm_s16le</property>
    <property name="meta.media.0.codec.long_name">PCM signed 16-bit little-endian</property>
    <property name="meta.media.0.codec.bit_rate">384000</property>
    <property name="seekable">1</property>
    <property name="audio_index">0</property>
    <property name="video_index">-1</property>
    <property name="creation_time">2023-12-15T04:08:48</property>
    <property name="astream">0</property>
    <property name="shotcut:skipConvert">1</property>
    <property name="xml">was here</property>
    <property name="shotcut:hash">ab3348a13219ebec6206c35c05170efc</property>
  </chain>
  <chain id="chain188" out="00:00:11.040">
    <property name="length">00:00:11.080</property>
    <property name="eof">pause</property>
    <property name="resource">voice/bbb/bbb_100_一つ目．LANケー….wav</property>
    <property name="mlt_service">avformat-novalidate</property>
    <property name="meta.media.nb_streams">1</property>
    <property name="meta.media.0.stream.type">audio</property>
    <property name="meta.media.0.codec.sample_fmt">s16</property>
    <property name="meta.media.0.codec.sample_rate">24000</property>
    <property name="meta.media.0.codec.channels">1</property>
    <property name="meta.media.0.codec.name">pcm_s16le</property>
    <property name="meta.media.0.codec.long_name">PCM signed 16-bit little-endian</property>
    <property name="meta.media.0.codec.bit_rate">384000</property>
    <property name="seekable">1</property>
    <property name="audio_index">0</property>
    <property name="video_index">-1</property>
    <property name="creation_time">2023-12-15T04:08:50</property>
    <property name="astream">0</property>
    <property name="shotcut:skipConvert">1</property>
    <property name="xml">was here</property>
    <property name="shotcut:hash">4cc09aa6812831a10b36f5da05a52076</property>
  </chain>
  <chain id="chain189" out="00:00:07.400">
    <property name="length">00:00:07.440</property>
    <property name="eof">pause</property>
    <property name="resource">voice/bbb/bbb_101_二つ目．LANケー….wav</property>
    <property name="mlt_service">avformat-novalidate</property>
    <property name="meta.media.nb_streams">1</property>
    <property name="meta.media.0.stream.type">audio</property>
    <property name="meta.media.0.codec.sample_fmt">s16</property>
    <property name="meta.media.0.codec.sample_rate">24000</property>
    <property name="meta.media.0.codec.channels">1</property>
    <property name="meta.media.0.codec.name">pcm_s16le</property>
    <property name="meta.media.0.codec.long_name">PCM signed 16-bit little-endian</property>
    <property name="meta.media.0.codec.bit_rate">384000</property>
    <property name="seekable">1</property>
    <property name="audio_index">0</property>
    <property name="video_index">-1</property>
    <property name="creation_time">2023-12-15T04:08:43</property>
    <property name="astream">0</property>
    <property name="shotcut:skipConvert">1</property>
    <property name="xml">was here</property>
    <property name="shotcut:hash">2eb7d21e15273ac780f232bc33cd15f5</property>
  </chain>
  <chain id="chain190" out="00:00:08.680">
    <property name="length">00:00:08.720</property>
    <property name="eof">pause</property>
    <property name="resource">voice/bbb/bbb_102_三つ目．LANケー….wav</property>
    <property name="mlt_service">avformat-novalidate</property>
    <property name="meta.media.nb_streams">1</property>
    <property name="meta.media.0.stream.type">audio</property>
    <property name="meta.media.0.codec.sample_fmt">s16</property>
    <property name="meta.media.0.codec.sample_rate">24000</property>
    <property name="meta.media.0.codec.channels">1</property>
    <property name="meta.media.0.codec.name">pcm_s16le</property>
    <property name="meta.media.0.codec.long_name">PCM signed 16-bit little-endian</property>
    <property name="meta.media.0.codec.bit_rate">384000</property>
    <property name="seekable">1</property>
    <property name="audio_index">0</property>
    <property name="video_index">-1</property>
    <property name="creation_time">2023-12-15T04:08:50</property>
    <property name="astream">0</property>
    <property name="shotcut:skipConvert">1</property>
    <property name="xml">was here</property>
    <property name="shotcut:hash">e46d0fdec6985d67204e273e21334135</property>
  </chain>
  <chain id="chain191" out="00:00:08.440">
    <property name="length">00:00:08.480</property>
    <property name="eof">pause</property>
    <property name="resource">voice/bbb/bbb_103_この動画をきっかけ….wav</property>
    <property name="mlt_service">avformat-novalidate</property>
    <property name="meta.media.nb_streams">1</property>
    <property name="meta.media.0.stream.type">audio</property>
    <property name="meta.media.0.codec.sample_fmt">s16</property>
    <property name="meta.media.0.codec.sample_rate">24000</property>
    <property name="meta.media.0.codec.channels">1</property>
    <property name="meta.media.0.codec.name">pcm_s16le</property>
    <property name="meta.media.0.codec.long_name">PCM signed 16-bit little-endian</property>
    <property name="meta.media.0.codec.bit_rate">384000</property>
    <property name="seekable">1</property>
    <property name="audio_index">0</property>
    <property name="video_index">-1</property>
    <property name="creation_time">2023-12-15T04:08:51</property>
    <property name="astream">0</property>
    <property name="shotcut:skipConvert">1</property>
    <property name="xml">was here</property>
    <property name="shotcut:hash">aee6ee207cd1b83ac036f6fd10056bb3</property>
  </chain>
  <chain id="chain192" out="00:00:04.080">
    <property name="length">00:00:04.120</property>
    <property name="eof">pause</property>
    <property name="resource">voice/bbb/bbb_104_以上で発表を終わり….wav</property>
    <property name="mlt_service">avformat-novalidate</property>
    <property name="meta.media.nb_streams">1</property>
    <property name="meta.media.0.stream.type">audio</property>
    <property name="meta.media.0.codec.sample_fmt">s16</property>
    <property name="meta.media.0.codec.sample_rate">24000</property>
    <property name="meta.media.0.codec.channels">1</property>
    <property name="meta.media.0.codec.name">pcm_s16le</property>
    <property name="meta.media.0.codec.long_name">PCM signed 16-bit little-endian</property>
    <property name="meta.media.0.codec.bit_rate">384000</property>
    <property name="seekable">1</property>
    <property name="audio_index">0</property>
    <property name="video_index">-1</property>
    <property name="creation_time">2023-12-15T04:08:45</property>
    <property name="astream">0</property>
    <property name="shotcut:skipConvert">1</property>
    <property name="xml">was here</property>
    <property name="shotcut:hash">b7dddbecd2218da7b89ad5b2ebe5d27a</property>
  </chain>
  <chain id="chain193" out="00:00:00.840">
    <property name="length">00:00:00.880</property>
    <property name="eof">pause</property>
    <property name="resource">voice/bbb/bbb_105_ps.wav</property>
    <property name="mlt_service">avformat-novalidate</property>
    <property name="meta.media.nb_streams">1</property>
    <property name="meta.media.0.stream.type">audio</property>
    <property name="meta.media.0.codec.sample_fmt">s16</property>
    <property name="meta.media.0.codec.sample_rate">24000</property>
    <property name="meta.media.0.codec.channels">1</property>
    <property name="meta.media.0.codec.name">pcm_s16le</property>
    <property name="meta.media.0.codec.long_name">PCM signed 16-bit little-endian</property>
    <property name="meta.media.0.codec.bit_rate">384000</property>
    <property name="seekable">1</property>
    <property name="audio_index">0</property>
    <property name="video_index">-1</property>
    <property name="creation_time">2023-12-15T04:08:49</property>
    <property name="astream">0</property>
    <property name="shotcut:skipConvert">1</property>
    <property name="xml">was here</property>
    <property name="shotcut:hash">922ec3f53acb6564a424e9f039e90b70</property>
  </chain>
  <chain id="chain194" out="00:00:01.840">
    <property name="length">00:00:01.880</property>
    <property name="eof">pause</property>
    <property name="resource">voice/bbb/bbb_106_はっじまーるよーの….wav</property>
    <property name="mlt_service">avformat-novalidate</property>
    <property name="meta.media.nb_streams">1</property>
    <property name="meta.media.0.stream.type">audio</property>
    <property name="meta.media.0.codec.sample_fmt">s16</property>
    <property name="meta.media.0.codec.sample_rate">24000</property>
    <property name="meta.media.0.codec.channels">1</property>
    <property name="meta.media.0.codec.name">pcm_s16le</property>
    <property name="meta.media.0.codec.long_name">PCM signed 16-bit little-endian</property>
    <property name="meta.media.0.codec.bit_rate">384000</property>
    <property name="seekable">1</property>
    <property name="audio_index">0</property>
    <property name="video_index">-1</property>
    <property name="creation_time">2023-12-15T04:08:52</property>
    <property name="astream">0</property>
    <property name="shotcut:skipConvert">1</property>
    <property name="xml">was here</property>
    <property name="shotcut:hash">9938d7c0340db8e3b1525b50036107ba</property>
  </chain>
  <producer id="producer8" in="00:00:00.000" out="03:59:59.960">
    <property name="length">04:00:00.000</property>
    <property name="eof">pause</property>
    <property name="resource">images/irasutoya-lan.png</property>
    <property name="ttl">1</property>
    <property name="aspect_ratio">1</property>
    <property name="meta.media.progressive">1</property>
    <property name="seekable">1</property>
    <property name="format">2</property>
    <property name="meta.media.width">400</property>
    <property name="meta.media.height">400</property>
    <property name="mlt_service">qimage</property>
    <property name="creation_time">2023-12-17T23:52:51</property>
    <property name="shotcut:skipConvert">0</property>
    <property name="shotcut:caption">irasutoya-lan.png</property>
    <property name="shotcut:hash">3dd2c5ca6b6c0eb1f5784efca226632e</property>
    <property name="ignore_points">0</property>
    <property name="xml">was here</property>
  </producer>
  <playlist id="main_bin" title="Shotcut version 23.11.29">
    <property name="shotcut:projectAudioChannels">2</property>
    <property name="shotcut:projectFolder">1</property>
    <property name="shotcut:skipConvert">0</property>
    <property name="xml_retain">1</property>
    <entry producer="producer0" in="00:00:00.000" out="00:00:03.960"/>
    <entry producer="producer1" in="00:00:00.000" out="00:00:03.960"/>
    <entry producer="producer2" in="00:00:00.000" out="00:00:03.960"/>
    <entry producer="producer3" in="00:00:00.000" out="00:00:03.960"/>
    <entry producer="chain0" in="00:00:18.240" out="00:00:41.400"/>
    <entry producer="chain1" in="00:00:00.000" out="00:52:52.840"/>
    <entry producer="producer4" in="00:00:00.000" out="00:00:03.960"/>
    <entry producer="producer5" in="00:00:00.000" out="00:00:03.960"/>
    <entry producer="producer6" in="00:00:00.000" out="00:00:03.960"/>
    <entry producer="chain3" in="00:00:00.000" out="00:00:23.760"/>
    <entry producer="chain4" in="00:00:00.000" out="00:10:50.560"/>
    <entry producer="chain5" in="00:00:00.000" out="00:00:10.400"/>
    <entry producer="chain6" in="00:00:00.000" out="00:10:10.560"/>
    <entry producer="chain7" in="00:00:00.000" out="00:00:23.760"/>
    <entry producer="chain8" in="00:00:00.000" out="00:00:10.400"/>
    <entry producer="chain9" in="00:00:00.000" out="00:10:10.560"/>
    <entry producer="producer7" in="00:00:00.000" out="00:00:03.960"/>
    <entry producer="chain2" in="00:00:00.000" out="00:00:02.960"/>
    <entry producer="chain10" in="00:00:00.000" out="00:00:01.200"/>
    <entry producer="chain11" in="00:00:00.000" out="00:00:01.800"/>
    <entry producer="chain12" in="00:00:00.000" out="00:00:03.440"/>
    <entry producer="chain13" in="00:00:00.000" out="00:00:11.280"/>
    <entry producer="chain14" in="00:00:00.000" out="00:00:04.960"/>
    <entry producer="chain15" in="00:00:00.000" out="00:00:04.000"/>
    <entry producer="chain16" in="00:00:00.000" out="00:00:08.120"/>
    <entry producer="chain17" in="00:00:00.000" out="00:00:07.680"/>
    <entry producer="chain18" in="00:00:00.000" out="00:00:07.720"/>
    <entry producer="chain19" in="00:00:00.000" out="00:00:09.000"/>
    <entry producer="chain20" in="00:00:00.000" out="00:00:11.800"/>
    <entry producer="chain21" in="00:00:00.000" out="00:00:01.440"/>
    <entry producer="chain22" in="00:00:00.000" out="00:00:03.280"/>
    <entry producer="chain23" in="00:00:00.000" out="00:00:04.400"/>
    <entry producer="chain24" in="00:00:00.000" out="00:00:06.480"/>
    <entry producer="chain25" in="00:00:00.000" out="00:00:07.760"/>
    <entry producer="chain26" in="00:00:00.000" out="00:00:03.960"/>
    <entry producer="chain27" in="00:00:00.000" out="00:00:04.480"/>
    <entry producer="chain28" in="00:00:00.000" out="00:00:04.000"/>
    <entry producer="chain29" in="00:00:00.000" out="00:00:07.000"/>
    <entry producer="chain30" in="00:00:00.000" out="00:00:06.040"/>
    <entry producer="chain31" in="00:00:00.000" out="00:00:06.040"/>
    <entry producer="chain32" in="00:00:00.000" out="00:00:02.640"/>
    <entry producer="chain33" in="00:00:00.000" out="00:00:01.720"/>
    <entry producer="chain34" in="00:00:00.000" out="00:00:06.280"/>
    <entry producer="chain35" in="00:00:00.000" out="00:00:12.320"/>
    <entry producer="chain36" in="00:00:00.000" out="00:00:05.840"/>
    <entry producer="chain37" in="00:00:00.000" out="00:00:03.760"/>
    <entry producer="chain38" in="00:00:00.000" out="00:00:05.280"/>
    <entry producer="chain39" in="00:00:00.000" out="00:00:06.120"/>
    <entry producer="chain40" in="00:00:00.000" out="00:00:05.040"/>
    <entry producer="chain41" in="00:00:00.000" out="00:00:02.880"/>
    <entry producer="chain42" in="00:00:00.000" out="00:00:02.080"/>
    <entry producer="chain43" in="00:00:00.000" out="00:00:07.880"/>
    <entry producer="chain44" in="00:00:00.000" out="00:00:06.640"/>
    <entry producer="chain45" in="00:00:00.000" out="00:00:06.280"/>
    <entry producer="chain46" in="00:00:00.000" out="00:00:02.360"/>
    <entry producer="chain47" in="00:00:00.000" out="00:00:07.200"/>
    <entry producer="chain48" in="00:00:00.000" out="00:00:08.720"/>
    <entry producer="chain49" in="00:00:00.000" out="00:00:10.120"/>
    <entry producer="chain50" in="00:00:00.000" out="00:00:07.200"/>
    <entry producer="chain51" in="00:00:00.000" out="00:00:07.720"/>
    <entry producer="chain52" in="00:00:00.000" out="00:00:04.880"/>
    <entry producer="chain53" in="00:00:00.000" out="00:00:03.400"/>
    <entry producer="chain54" in="00:00:00.000" out="00:00:01.520"/>
    <entry producer="chain55" in="00:00:00.000" out="00:00:08.360"/>
    <entry producer="chain56" in="00:00:00.000" out="00:00:04.560"/>
    <entry producer="chain57" in="00:00:00.000" out="00:00:06.200"/>
    <entry producer="chain58" in="00:00:00.000" out="00:00:01.000"/>
    <entry producer="chain59" in="00:00:00.000" out="00:00:04.640"/>
    <entry producer="chain60" in="00:00:00.000" out="00:00:01.840"/>
    <entry producer="chain61" in="00:00:00.000" out="00:00:02.080"/>
    <entry producer="chain62" in="00:00:00.000" out="00:00:00.720"/>
    <entry producer="chain63" in="00:00:00.000" out="00:00:01.800"/>
    <entry producer="chain64" in="00:00:00.000" out="00:00:02.280"/>
    <entry producer="chain65" in="00:00:00.000" out="00:00:01.440"/>
    <entry producer="chain66" in="00:00:00.000" out="00:00:01.760"/>
    <entry producer="chain67" in="00:00:00.000" out="00:00:00.760"/>
    <entry producer="chain68" in="00:00:00.000" out="00:00:01.920"/>
    <entry producer="chain69" in="00:00:00.000" out="00:00:02.720"/>
    <entry producer="chain70" in="00:00:00.000" out="00:00:04.720"/>
    <entry producer="chain71" in="00:00:00.000" out="00:00:03.520"/>
    <entry producer="chain72" in="00:00:00.000" out="00:00:02.840"/>
    <entry producer="chain73" in="00:00:00.000" out="00:00:04.040"/>
    <entry producer="chain74" in="00:00:00.000" out="00:00:03.640"/>
    <entry producer="chain75" in="00:00:00.000" out="00:00:01.920"/>
    <entry producer="chain76" in="00:00:00.000" out="00:00:00.800"/>
    <entry producer="chain77" in="00:00:00.000" out="00:00:03.920"/>
    <entry producer="chain78" in="00:00:00.000" out="00:00:05.080"/>
    <entry producer="chain79" in="00:00:00.000" out="00:00:04.440"/>
    <entry producer="chain80" in="00:00:00.000" out="00:00:06.440"/>
    <entry producer="chain81" in="00:00:00.000" out="00:00:02.480"/>
    <entry producer="chain82" in="00:00:00.000" out="00:00:03.280"/>
    <entry producer="chain83" in="00:00:00.000" out="00:00:03.360"/>
    <entry producer="chain84" in="00:00:00.000" out="00:00:09.560"/>
    <entry producer="chain85" in="00:00:00.000" out="00:00:09.960"/>
    <entry producer="chain86" in="00:00:00.000" out="00:00:05.520"/>
    <entry producer="chain87" in="00:00:00.000" out="00:00:07.920"/>
    <entry producer="chain88" in="00:00:00.000" out="00:00:02.080"/>
    <entry producer="chain89" in="00:00:00.000" out="00:00:02.640"/>
    <entry producer="chain90" in="00:00:00.000" out="00:00:03.600"/>
    <entry producer="chain91" in="00:00:00.000" out="00:00:04.720"/>
    <entry producer="chain92" in="00:00:00.000" out="00:00:02.640"/>
    <entry producer="chain93" in="00:00:00.000" out="00:00:00.160"/>
    <entry producer="chain94" in="00:00:00.000" out="00:00:07.120"/>
    <entry producer="chain95" in="00:00:00.000" out="00:00:04.400"/>
    <entry producer="chain96" in="00:00:00.000" out="00:00:03.400"/>
    <entry producer="chain97" in="00:00:00.000" out="00:00:04.640"/>
    <entry producer="chain98" in="00:00:00.000" out="00:00:05.640"/>
    <entry producer="chain99" in="00:00:00.000" out="00:00:04.880"/>
    <entry producer="chain100" in="00:00:00.000" out="00:00:04.920"/>
    <entry producer="chain101" in="00:00:00.000" out="00:00:02.360"/>
    <entry producer="chain102" in="00:00:00.000" out="00:00:06.640"/>
    <entry producer="chain103" in="00:00:00.000" out="00:00:09.440"/>
    <entry producer="chain104" in="00:00:00.000" out="00:00:10.440"/>
    <entry producer="chain105" in="00:00:00.000" out="00:00:00.840"/>
    <entry producer="chain106" in="00:00:00.000" out="00:00:02.080"/>
    <entry producer="chain107" in="00:00:00.000" out="00:00:01.880"/>
    <entry producer="chain108" in="00:00:00.000" out="00:00:07.120"/>
    <entry producer="chain109" in="00:00:00.000" out="00:00:02.080"/>
    <entry producer="chain110" in="00:00:00.000" out="00:00:08.120"/>
    <entry producer="chain111" in="00:00:00.000" out="00:00:09.200"/>
    <entry producer="chain112" in="00:00:00.000" out="00:00:09.880"/>
    <entry producer="chain113" in="00:00:00.000" out="00:00:00.840"/>
    <entry producer="chain114" in="00:00:00.000" out="00:00:01.240"/>
    <entry producer="chain115" in="00:00:00.000" out="00:00:03.880"/>
    <entry producer="chain116" in="00:00:00.000" out="00:00:01.240"/>
    <entry producer="chain117" in="00:00:00.000" out="00:00:03.320"/>
    <entry producer="chain118" in="00:00:00.000" out="00:00:05.480"/>
    <entry producer="chain119" in="00:00:00.000" out="00:00:06.440"/>
    <entry producer="chain120" in="00:00:00.000" out="00:00:07.240"/>
    <entry producer="chain121" in="00:00:00.000" out="00:00:05.960"/>
    <entry producer="chain122" in="00:00:00.000" out="00:00:05.720"/>
    <entry producer="chain123" in="00:00:00.000" out="00:00:01.720"/>
    <entry producer="chain124" in="00:00:00.000" out="00:00:02.560"/>
    <entry producer="chain125" in="00:00:00.000" out="00:00:03.080"/>
    <entry producer="chain126" in="00:00:00.000" out="00:00:01.200"/>
    <entry producer="chain127" in="00:00:00.000" out="00:00:02.560"/>
    <entry producer="chain128" in="00:00:00.000" out="00:00:02.920"/>
    <entry producer="chain129" in="00:00:00.000" out="00:00:05.400"/>
    <entry producer="chain130" in="00:00:00.000" out="00:00:04.800"/>
    <entry producer="chain131" in="00:00:00.000" out="00:00:05.360"/>
    <entry producer="chain132" in="00:00:00.000" out="00:00:08.200"/>
    <entry producer="chain133" in="00:00:00.000" out="00:00:09.360"/>
    <entry producer="chain134" in="00:00:00.000" out="00:00:06.040"/>
    <entry producer="chain135" in="00:00:00.000" out="00:00:04.560"/>
    <entry producer="chain136" in="00:00:00.000" out="00:00:02.720"/>
    <entry producer="chain137" in="00:00:00.000" out="00:00:06.520"/>
    <entry producer="chain138" in="00:00:00.000" out="00:00:03.720"/>
    <entry producer="chain139" in="00:00:00.000" out="00:00:04.600"/>
    <entry producer="chain140" in="00:00:00.000" out="00:00:05.600"/>
    <entry producer="chain141" in="00:00:00.000" out="00:00:05.680"/>
    <entry producer="chain142" in="00:00:00.000" out="00:00:09.120"/>
    <entry producer="chain143" in="00:00:00.000" out="00:00:07.000"/>
    <entry producer="chain144" in="00:00:00.000" out="00:00:06.440"/>
    <entry producer="chain145" in="00:00:00.000" out="00:00:10.160"/>
    <entry producer="chain146" in="00:00:00.000" out="00:00:06.960"/>
    <entry producer="chain147" in="00:00:00.000" out="00:00:00.880"/>
    <entry producer="chain148" in="00:00:00.000" out="00:00:02.680"/>
    <entry producer="chain149" in="00:00:00.000" out="00:00:04.680"/>
    <entry producer="chain150" in="00:00:00.000" out="00:00:02.680"/>
    <entry producer="chain151" in="00:00:00.000" out="00:00:02.000"/>
    <entry producer="chain152" in="00:00:00.000" out="00:00:07.320"/>
    <entry producer="chain153" in="00:00:00.000" out="00:00:02.000"/>
    <entry producer="chain154" in="00:00:00.000" out="00:00:04.240"/>
    <entry producer="chain155" in="00:00:00.000" out="00:00:04.400"/>
    <entry producer="chain156" in="00:00:00.000" out="00:00:06.800"/>
    <entry producer="chain157" in="00:00:00.000" out="00:00:05.240"/>
    <entry producer="chain158" in="00:00:00.000" out="00:00:05.480"/>
    <entry producer="chain159" in="00:00:00.000" out="00:00:05.800"/>
    <entry producer="chain160" in="00:00:00.000" out="00:00:10.600"/>
    <entry producer="chain161" in="00:00:00.000" out="00:00:04.000"/>
    <entry producer="chain162" in="00:00:00.000" out="00:00:07.720"/>
    <entry producer="chain163" in="00:00:00.000" out="00:00:00.640"/>
    <entry producer="chain164" in="00:00:00.000" out="00:00:01.120"/>
    <entry producer="chain165" in="00:00:00.000" out="00:00:02.640"/>
    <entry producer="chain166" in="00:00:00.000" out="00:00:08.120"/>
    <entry producer="chain167" in="00:00:00.000" out="00:00:01.200"/>
    <entry producer="chain168" in="00:00:00.000" out="00:00:03.800"/>
    <entry producer="chain169" in="00:00:00.000" out="00:00:01.120"/>
    <entry producer="chain170" in="00:00:00.000" out="00:00:01.640"/>
    <entry producer="chain171" in="00:00:00.000" out="00:00:05.320"/>
    <entry producer="chain172" in="00:00:00.000" out="00:00:01.640"/>
    <entry producer="chain173" in="00:00:00.000" out="00:00:00.680"/>
    <entry producer="chain174" in="00:00:00.000" out="00:00:03.520"/>
    <entry producer="chain175" in="00:00:00.000" out="00:00:00.680"/>
    <entry producer="chain176" in="00:00:00.000" out="00:00:01.120"/>
    <entry producer="chain177" in="00:00:00.000" out="00:00:02.280"/>
    <entry producer="chain178" in="00:00:00.000" out="00:00:01.120"/>
    <entry producer="chain179" in="00:00:00.000" out="00:00:00.840"/>
    <entry producer="chain180" in="00:00:00.000" out="00:00:01.400"/>
    <entry producer="chain181" in="00:00:00.000" out="00:00:09.120"/>
    <entry producer="chain182" in="00:00:00.000" out="00:00:07.680"/>
    <entry producer="chain183" in="00:00:00.000" out="00:00:04.600"/>
    <entry producer="chain184" in="00:00:00.000" out="00:00:03.320"/>
    <entry producer="chain185" in="00:00:00.000" out="00:00:06.160"/>
    <entry producer="chain186" in="00:00:00.000" out="00:00:02.360"/>
    <entry producer="chain187" in="00:00:00.000" out="00:00:10.880"/>
    <entry producer="chain188" in="00:00:00.000" out="00:00:11.040"/>
    <entry producer="chain189" in="00:00:00.000" out="00:00:07.400"/>
    <entry producer="chain190" in="00:00:00.000" out="00:00:08.680"/>
    <entry producer="chain191" in="00:00:00.000" out="00:00:08.440"/>
    <entry producer="chain192" in="00:00:00.000" out="00:00:04.080"/>
    <entry producer="chain193" in="00:00:00.000" out="00:00:00.840"/>
    <entry producer="chain194" in="00:00:00.000" out="00:00:01.840"/>
    <entry producer="producer8" in="00:00:00.000" out="00:00:03.960"/>
  </playlist>
  <producer id="black" in="00:00:00.000" out="00:14:58.200">
    <property name="length">00:14:58.240</property>
    <property name="eof">pause</property>
    <property name="resource">0</property>
    <property name="aspect_ratio">1</property>
    <property name="mlt_service">color</property>
    <property name="mlt_image_format">rgba</property>
    <property name="set.test_audio">0</property>
  </producer>
  <playlist id="background">
    <entry producer="black" in="00:00:00.000" out="00:14:58.200"/>
  </playlist>
  <producer id="producer19" in="00:00:00.000" out="03:59:59.960">
    <property name="length">04:00:00.000</property>
    <property name="eof">pause</property>
    <property name="resource">back/3_sep_b.png</property>
    <property name="ttl">1</property>
    <property name="aspect_ratio">1</property>
    <property name="meta.media.progressive">1</property>
    <property name="seekable">1</property>
    <property name="format">2</property>
    <property name="meta.media.width">1184</property>
    <property name="meta.media.height">664</property>
    <property name="mlt_service">qimage</property>
    <property name="creation_time">2023-12-08T08:23:48</property>
    <property name="shotcut:skipConvert">0</property>
    <property name="shotcut:caption">3_sep_b.png</property>
    <property name="shotcut:hash">7cd4966b9d14bb7004f1bf1635ef5133</property>
    <property name="ignore_points">0</property>
    <property name="xml">was here</property>
    <property name="meta.shotcut.vui">1</property>
    <filter id="filter17" out="00:14:58.200">
      <property name="format">MM:SS.SS</property>
      <property name="start">00:05:06.030</property>
      <property name="duration">00:08:13.520</property>
      <property name="offset">00:00:00.000</property>
      <property name="speed">1</property>
      <property name="direction">up</property>
      <property name="geometry">1514 71 332 129 1</property>
      <property name="family">Hiragino Sans</property>
      <property name="size">1080</property>
      <property name="weight">500</property>
      <property name="style">normal</property>
      <property name="fgcolour">#ff00f7ff</property>
      <property name="bgcolour">#00000000</property>
      <property name="olcolour">#ff000000</property>
      <property name="pad">0</property>
      <property name="halign">center</property>
      <property name="valign">middle</property>
      <property name="outline">0</property>
      <property name="opacity">00:05:00.160=0;00:05:00.200=1</property>
      <property name="mlt_service">timer</property>
      <property name="shotcut:filter">timer</property>
      <property name="shotcut:usePointSize">1</property>
      <property name="disable">0</property>
      <property name="shotcut:pointSize">1080</property>
    </filter>
    <filter id="filter1" out="00:14:58.200">
      <property name="argument"> RTAの流れ↓
　配線
　先端を整える
　モジュール取付
　かしめる
　配線(2)
　先端を整える(2)
　モジュール取付(2)
　かしめる(2)
　テスト
</property>
      <property name="geometry">1497 191 397 637 1</property>
      <property name="family">Sans</property>
      <property name="size">98.1818</property>
      <property name="weight">400</property>
      <property name="style">normal</property>
      <property name="fgcolour">#ffffffff</property>
      <property name="bgcolour">#00000000</property>
      <property name="olcolour">#aa000000</property>
      <property name="pad">0</property>
      <property name="halign">left</property>
      <property name="valign">bottom</property>
      <property name="outline">3</property>
      <property name="opacity">00:04:01.040=0;00:04:40.040=0;00:04:41.040=1</property>
      <property name="mlt_service">dynamictext</property>
      <property name="shotcut:filter">dynamicText</property>
      <property name="shotcut:usePointSize">0</property>
      <property name="shotcut:animIn">00:00:00.000</property>
      <property name="shotcut:animOut">00:00:00.000</property>
      <property name="disable">0</property>
    </filter>
    <filter id="filter2" out="00:14:58.200">
      <property name="argument">ー</property>
      <property name="geometry">1357 106 553 675 1</property>
      <property name="family">Hiragino Sans</property>
      <property name="size">1080</property>
      <property name="weight">100</property>
      <property name="style">normal</property>
      <property name="fgcolour">#ff00fdff</property>
      <property name="bgcolour">#00000000</property>
      <property name="olcolour">#aa000000</property>
      <property name="pad">0</property>
      <property name="halign">right</property>
      <property name="valign">bottom</property>
      <property name="outline">3</property>
      <property name="opacity">00:00:06.080=0;00:07:01.600=0;00:07:02.680=1</property>
      <property name="mlt_service">dynamictext</property>
      <property name="shotcut:filter">dynamicText</property>
      <property name="shotcut:usePointSize">0</property>
      <property name="shotcut:animIn">00:00:00.000</property>
      <property name="shotcut:animOut">00:00:00.000</property>
      <property name="disable">0</property>
    </filter>
    <filter id="filter8" out="00:14:58.200">
      <property name="argument">ー</property>
      <property name="geometry">1357 156 553 675 1</property>
      <property name="family">Hiragino Sans</property>
      <property name="size">1080</property>
      <property name="weight">100</property>
      <property name="style">normal</property>
      <property name="fgcolour">#ff00fdff</property>
      <property name="bgcolour">#00000000</property>
      <property name="olcolour">#aa000000</property>
      <property name="pad">0</property>
      <property name="halign">right</property>
      <property name="valign">bottom</property>
      <property name="outline">3</property>
      <property name="opacity">00:00:06.040=0;00:07:32.400=0;00:07:35.520=1</property>
      <property name="mlt_service">dynamictext</property>
      <property name="shotcut:filter">dynamicText</property>
      <property name="shotcut:usePointSize">0</property>
      <property name="shotcut:animIn">00:00:00.000</property>
      <property name="shotcut:animOut">00:00:00.000</property>
      <property name="disable">0</property>
    </filter>
    <filter id="filter3" out="00:14:58.200">
      <property name="argument">ー</property>
      <property name="geometry">1357 206 553 675 1</property>
      <property name="family">Hiragino Sans</property>
      <property name="size">1080</property>
      <property name="weight">100</property>
      <property name="style">normal</property>
      <property name="fgcolour">#ff00fdff</property>
      <property name="bgcolour">#00000000</property>
      <property name="olcolour">#aa000000</property>
      <property name="pad">0</property>
      <property name="halign">right</property>
      <property name="valign">bottom</property>
      <property name="outline">3</property>
      <property name="opacity">00:00:05.960=0;00:08:10.680=0;00:08:12.640=0;00:08:14.480=1</property>
      <property name="mlt_service">dynamictext</property>
      <property name="shotcut:filter">dynamicText</property>
      <property name="shotcut:usePointSize">0</property>
      <property name="shotcut:animIn">00:00:00.000</property>
      <property name="shotcut:animOut">00:00:00.000</property>
      <property name="disable">0</property>
    </filter>
    <filter id="filter4" out="00:14:58.200">
      <property name="argument">ー</property>
      <property name="geometry">1357 256 553 675 1</property>
      <property name="family">Hiragino Sans</property>
      <property name="size">1080</property>
      <property name="weight">100</property>
      <property name="style">normal</property>
      <property name="fgcolour">#ff00fdff</property>
      <property name="bgcolour">#00000000</property>
      <property name="olcolour">#aa000000</property>
      <property name="pad">0</property>
      <property name="halign">right</property>
      <property name="valign">bottom</property>
      <property name="outline">3</property>
      <property name="opacity">00:00:06.040=0;00:09:02.760=0;00:09:04.800=1</property>
      <property name="mlt_service">dynamictext</property>
      <property name="shotcut:filter">dynamicText</property>
      <property name="shotcut:usePointSize">0</property>
      <property name="shotcut:animIn">00:00:00.000</property>
      <property name="shotcut:animOut">00:00:00.000</property>
      <property name="disable">0</property>
    </filter>
    <filter id="filter5" out="00:14:58.200">
      <property name="argument">ー</property>
      <property name="geometry">1357 316 553 675 1</property>
      <property name="family">Hiragino Sans</property>
      <property name="size">1080</property>
      <property name="weight">100</property>
      <property name="style">normal</property>
      <property name="fgcolour">#ff00fdff</property>
      <property name="bgcolour">#00000000</property>
      <property name="olcolour">#aa000000</property>
      <property name="pad">0</property>
      <property name="halign">right</property>
      <property name="valign">bottom</property>
      <property name="outline">3</property>
      <property name="opacity">00:00:06.040=0;00:11:30.560=0;00:11:32.080=1</property>
      <property name="mlt_service">dynamictext</property>
      <property name="shotcut:filter">dynamicText</property>
      <property name="shotcut:usePointSize">0</property>
      <property name="shotcut:animIn">00:00:00.000</property>
      <property name="shotcut:animOut">00:00:00.000</property>
      <property name="disable">0</property>
    </filter>
    <filter id="filter6" out="00:14:58.200">
      <property name="argument">ー</property>
      <property name="geometry">1357 366 553 675 1</property>
      <property name="family">Hiragino Sans</property>
      <property name="size">1080</property>
      <property name="weight">100</property>
      <property name="style">normal</property>
      <property name="fgcolour">#ff00fdff</property>
      <property name="bgcolour">#00000000</property>
      <property name="olcolour">#aa000000</property>
      <property name="pad">0</property>
      <property name="halign">right</property>
      <property name="valign">bottom</property>
      <property name="outline">3</property>
      <property name="opacity">00:00:06.040=0;00:12:06.040=0;00:12:07.480=1</property>
      <property name="mlt_service">dynamictext</property>
      <property name="shotcut:filter">dynamicText</property>
      <property name="shotcut:usePointSize">0</property>
      <property name="shotcut:animIn">00:00:00.000</property>
      <property name="shotcut:animOut">00:00:00.000</property>
      <property name="disable">0</property>
    </filter>
    <filter id="filter7" out="00:14:58.200">
      <property name="argument">ー</property>
      <property name="geometry">1357 416 553 675 1</property>
      <property name="family">Hiragino Sans</property>
      <property name="size">1080</property>
      <property name="weight">100</property>
      <property name="style">normal</property>
      <property name="fgcolour">#ff00fdff</property>
      <property name="bgcolour">#00000000</property>
      <property name="olcolour">#aa000000</property>
      <property name="pad">0</property>
      <property name="halign">right</property>
      <property name="valign">bottom</property>
      <property name="outline">3</property>
      <property name="opacity">00:00:06.040=0;00:12:48.520=0;00:12:49.680=1</property>
      <property name="mlt_service">dynamictext</property>
      <property name="shotcut:filter">dynamicText</property>
      <property name="shotcut:usePointSize">0</property>
      <property name="shotcut:animIn">00:00:00.000</property>
      <property name="shotcut:animOut">00:00:00.000</property>
      <property name="disable">0</property>
    </filter>
    <filter id="filter9" out="00:14:58.200">
      <property name="argument">ー</property>
      <property name="geometry">1357 466 553 675 1</property>
      <property name="family">Hiragino Sans</property>
      <property name="size">1080</property>
      <property name="weight">100</property>
      <property name="style">normal</property>
      <property name="fgcolour">#ff00fdff</property>
      <property name="bgcolour">#00000000</property>
      <property name="olcolour">#aa000000</property>
      <property name="pad">0</property>
      <property name="halign">right</property>
      <property name="valign">bottom</property>
      <property name="outline">3</property>
      <property name="opacity">00:00:06.040=0;00:13:04.640=0;00:13:06.200=1</property>
      <property name="mlt_service">dynamictext</property>
      <property name="shotcut:filter">dynamicText</property>
      <property name="shotcut:usePointSize">0</property>
      <property name="shotcut:animIn">00:00:00.000</property>
      <property name="shotcut:animOut">00:00:00.000</property>
      <property name="disable">0</property>
    </filter>
    <filter id="filter10" out="00:14:58.200">
      <property name="argument">ー</property>
      <property name="geometry">1357 526 553 675 1</property>
      <property name="family">Hiragino Sans</property>
      <property name="size">1080</property>
      <property name="weight">100</property>
      <property name="style">normal</property>
      <property name="fgcolour">#ff00fdff</property>
      <property name="bgcolour">#00000000</property>
      <property name="olcolour">#aa000000</property>
      <property name="pad">0</property>
      <property name="halign">right</property>
      <property name="valign">bottom</property>
      <property name="outline">3</property>
      <property name="opacity">00:00:06.040=0;00:13:19.680=0;00:13:20.040=1</property>
      <property name="mlt_service">dynamictext</property>
      <property name="shotcut:filter">dynamicText</property>
      <property name="shotcut:usePointSize">0</property>
      <property name="shotcut:animIn">00:00:00.000</property>
      <property name="shotcut:animOut">00:00:00.000</property>
      <property name="disable">0</property>
    </filter>
  </producer>
  <playlist id="playlist1">
    <property name="shotcut:video">1</property>
    <property name="shotcut:name">Back</property>
    <property name="shotcut:lock">1</property>
    <entry producer="producer19" in="00:00:00.000" out="00:14:58.200"/>
  </playlist>
  <producer id="producer100" in="00:00:00.000" out="03:59:59.960">
    <property name="length">04:00:00.000</property>
    <property name="eof">pause</property>
    <property name="resource">#00000000</property>
    <property name="aspect_ratio">1</property>
    <property name="mlt_service">color</property>
    <property name="mlt_image_format">rgba</property>
    <property name="shotcut:caption">transparent</property>
    <property name="shotcut:detail">transparent</property>
    <property name="xml">was here</property>
    <property name="seekable">1</property>
    <property name="meta.shotcut.vui">1</property>
    <filter id="filter118" out="00:00:05.560">
      <property name="argument">みんな大好きLANケーブル作成RTA
はっじまっるよー
</property>
      <property name="geometry">371 834 1505 211 1</property>
      <property name="family">Hiragino Sans</property>
      <property name="size">144</property>
      <property name="weight">900</property>
      <property name="style">normal</property>
      <property name="fgcolour">#ffffffff</property>
      <property name="bgcolour">#00000000</property>
      <property name="olcolour">#aa000000</property>
      <property name="pad">0</property>
      <property name="halign">left</property>
      <property name="valign">middle</property>
      <property name="outline">3</property>
      <property name="opacity">1</property>
      <property name="mlt_service">dynamictext</property>
      <property name="shotcut:filter">dynamicText</property>
      <property name="shotcut:usePointSize">1</property>
      <property name="shotcut:pointSize">144</property>
    </filter>
  </producer>
  <producer id="producer101" in="00:00:00.000" out="03:59:59.960">
    <property name="length">04:00:00.000</property>
    <property name="eof">pause</property>
    <property name="resource">#00000000</property>
    <property name="aspect_ratio">1</property>
    <property name="mlt_service">color</property>
    <property name="mlt_image_format">rgba</property>
    <property name="shotcut:caption">transparent</property>
    <property name="shotcut:detail">transparent</property>
    <property name="xml">was here</property>
    <property name="seekable">1</property>
    <property name="meta.shotcut.vui">1</property>
    <filter id="filter119" out="00:00:06.640">
      <property name="argument">まずは軽く自己紹介．
うｐ主はまっつんくんという名前で活動しています．
</property>
      <property name="geometry">371 834 1505 211 1</property>
      <property name="family">Hiragino Sans</property>
      <property name="size">144</property>
      <property name="weight">900</property>
      <property name="style">normal</property>
      <property name="fgcolour">#ffffffff</property>
      <property name="bgcolour">#00000000</property>
      <property name="olcolour">#aa000000</property>
      <property name="pad">0</property>
      <property name="halign">left</property>
      <property name="valign">middle</property>
      <property name="outline">3</property>
      <property name="opacity">1</property>
      <property name="mlt_service">dynamictext</property>
      <property name="shotcut:filter">dynamicText</property>
      <property name="shotcut:usePointSize">1</property>
      <property name="shotcut:pointSize">144</property>
    </filter>
  </producer>
  <producer id="producer102" in="00:00:00.000" out="03:59:59.960">
    <property name="length">04:00:00.000</property>
    <property name="eof">pause</property>
    <property name="resource">#00000000</property>
    <property name="aspect_ratio">1</property>
    <property name="mlt_service">color</property>
    <property name="mlt_image_format">rgba</property>
    <property name="shotcut:caption">transparent</property>
    <property name="shotcut:detail">transparent</property>
    <property name="xml">was here</property>
    <property name="seekable">1</property>
    <property name="meta.shotcut.vui">1</property>
    <filter id="filter120" out="00:00:17.640">
      <property name="argument">名古屋大学の小さな非公式サークル「アプリ開発団体jack」の
大きな公式イベント，jackFes2023に参加できなく申し訳ありません．
そのため，この動画を提供することで償いをしようと考えました．</property>
      <property name="geometry">371 834 1505 211 1</property>
      <property name="family">Hiragino Sans</property>
      <property name="size">144</property>
      <property name="weight">900</property>
      <property name="style">normal</property>
      <property name="fgcolour">#ffffffff</property>
      <property name="bgcolour">#00000000</property>
      <property name="olcolour">#aa000000</property>
      <property name="pad">0</property>
      <property name="halign">left</property>
      <property name="valign">middle</property>
      <property name="outline">3</property>
      <property name="opacity">1</property>
      <property name="mlt_service">dynamictext</property>
      <property name="shotcut:filter">dynamicText</property>
      <property name="shotcut:usePointSize">1</property>
      <property name="shotcut:pointSize">144</property>
    </filter>
  </producer>
  <producer id="producer103" in="00:00:00.000" out="03:59:59.960">
    <property name="length">04:00:00.000</property>
    <property name="eof">pause</property>
    <property name="resource">#00000000</property>
    <property name="aspect_ratio">1</property>
    <property name="mlt_service">color</property>
    <property name="mlt_image_format">rgba</property>
    <property name="shotcut:caption">transparent</property>
    <property name="shotcut:detail">transparent</property>
    <property name="xml">was here</property>
    <property name="seekable">1</property>
    <property name="meta.shotcut.vui">1</property>
    <filter id="filter121" out="00:00:05.360">
      <property name="argument">さて,最初に断っておくべきことが5つございます．

</property>
      <property name="geometry">371 834 1505 211 1</property>
      <property name="family">Hiragino Sans</property>
      <property name="size">144</property>
      <property name="weight">900</property>
      <property name="style">normal</property>
      <property name="fgcolour">#ffffffff</property>
      <property name="bgcolour">#00000000</property>
      <property name="olcolour">#aa000000</property>
      <property name="pad">0</property>
      <property name="halign">left</property>
      <property name="valign">middle</property>
      <property name="outline">3</property>
      <property name="opacity">1</property>
      <property name="mlt_service">dynamictext</property>
      <property name="shotcut:filter">dynamicText</property>
      <property name="shotcut:usePointSize">1</property>
      <property name="shotcut:pointSize">144</property>
    </filter>
  </producer>
  <producer id="producer104" in="00:00:00.000" out="03:59:59.960">
    <property name="length">04:00:00.000</property>
    <property name="eof">pause</property>
    <property name="resource">#00000000</property>
    <property name="aspect_ratio">1</property>
    <property name="mlt_service">color</property>
    <property name="mlt_image_format">rgba</property>
    <property name="shotcut:caption">transparent</property>
    <property name="shotcut:detail">transparent</property>
    <property name="xml">was here</property>
    <property name="seekable">1</property>
    <property name="meta.shotcut.vui">1</property>
    <filter id="filter122" out="00:00:09.480">
      <property name="argument">1つ目に，
この音声は“VOICEVOX:雨晴はう“を利用しています．
製作者様に感謝です．</property>
      <property name="geometry">371 834 1505 211 1</property>
      <property name="family">Hiragino Sans</property>
      <property name="size">144</property>
      <property name="weight">900</property>
      <property name="style">normal</property>
      <property name="fgcolour">#ffffffff</property>
      <property name="bgcolour">#00000000</property>
      <property name="olcolour">#aa000000</property>
      <property name="pad">0</property>
      <property name="halign">left</property>
      <property name="valign">middle</property>
      <property name="outline">3</property>
      <property name="opacity">1</property>
      <property name="mlt_service">dynamictext</property>
      <property name="shotcut:filter">dynamicText</property>
      <property name="shotcut:usePointSize">1</property>
      <property name="shotcut:pointSize">144</property>
    </filter>
  </producer>
  <producer id="producer105" in="00:00:00.000" out="03:59:59.960">
    <property name="length">04:00:00.000</property>
    <property name="eof">pause</property>
    <property name="resource">#00000000</property>
    <property name="aspect_ratio">1</property>
    <property name="mlt_service">color</property>
    <property name="mlt_image_format">rgba</property>
    <property name="shotcut:caption">transparent</property>
    <property name="shotcut:detail">transparent</property>
    <property name="xml">was here</property>
    <property name="seekable">1</property>
    <property name="meta.shotcut.vui">1</property>
    <filter id="filter123" out="00:00:09.040">
      <property name="argument">2つ目に，
うｐ主は動画編集が初めてなので，
雑な部分が多いかもしれませんがご了承下さい．</property>
      <property name="geometry">371 834 1505 211 1</property>
      <property name="family">Hiragino Sans</property>
      <property name="size">144</property>
      <property name="weight">900</property>
      <property name="style">normal</property>
      <property name="fgcolour">#ffffffff</property>
      <property name="bgcolour">#00000000</property>
      <property name="olcolour">#aa000000</property>
      <property name="pad">0</property>
      <property name="halign">left</property>
      <property name="valign">middle</property>
      <property name="outline">3</property>
      <property name="opacity">1</property>
      <property name="mlt_service">dynamictext</property>
      <property name="shotcut:filter">dynamicText</property>
      <property name="shotcut:usePointSize">1</property>
      <property name="shotcut:pointSize">144</property>
    </filter>
  </producer>
  <producer id="producer106" in="00:00:00.000" out="03:59:59.960">
    <property name="length">04:00:00.000</property>
    <property name="eof">pause</property>
    <property name="resource">#00000000</property>
    <property name="aspect_ratio">1</property>
    <property name="mlt_service">color</property>
    <property name="mlt_image_format">rgba</property>
    <property name="shotcut:caption">transparent</property>
    <property name="shotcut:detail">transparent</property>
    <property name="xml">was here</property>
    <property name="seekable">1</property>
    <property name="meta.shotcut.vui">1</property>
    <filter id="filter124" out="00:00:09.080">
      <property name="argument">3つ目に，
本RTAはガバガバレギュレーションの下，
ガバガバに走っていますが，ご了承下さい．</property>
      <property name="geometry">371 834 1505 211 1</property>
      <property name="family">Hiragino Sans</property>
      <property name="size">144</property>
      <property name="weight">900</property>
      <property name="style">normal</property>
      <property name="fgcolour">#ffffffff</property>
      <property name="bgcolour">#00000000</property>
      <property name="olcolour">#aa000000</property>
      <property name="pad">0</property>
      <property name="halign">left</property>
      <property name="valign">middle</property>
      <property name="outline">3</property>
      <property name="opacity">1</property>
      <property name="mlt_service">dynamictext</property>
      <property name="shotcut:filter">dynamicText</property>
      <property name="shotcut:usePointSize">1</property>
      <property name="shotcut:pointSize">144</property>
    </filter>
  </producer>
  <producer id="producer107" in="00:00:00.000" out="03:59:59.960">
    <property name="length">04:00:00.000</property>
    <property name="eof">pause</property>
    <property name="resource">#00000000</property>
    <property name="aspect_ratio">1</property>
    <property name="mlt_service">color</property>
    <property name="mlt_image_format">rgba</property>
    <property name="shotcut:caption">transparent</property>
    <property name="shotcut:detail">transparent</property>
    <property name="xml">was here</property>
    <property name="seekable">1</property>
    <property name="meta.shotcut.vui">1</property>
    <filter id="filter125" out="00:00:10.360">
      <property name="argument">4つ目に，
専門知識において間違った点があるかもしれませんが，
その際はコメント欄にてご指摘いただけるとありがたいです．</property>
      <property name="geometry">371 834 1505 211 1</property>
      <property name="family">Hiragino Sans</property>
      <property name="size">144</property>
      <property name="weight">900</property>
      <property name="style">normal</property>
      <property name="fgcolour">#ffffffff</property>
      <property name="bgcolour">#00000000</property>
      <property name="olcolour">#aa000000</property>
      <property name="pad">0</property>
      <property name="halign">left</property>
      <property name="valign">middle</property>
      <property name="outline">3</property>
      <property name="opacity">1</property>
      <property name="mlt_service">dynamictext</property>
      <property name="shotcut:filter">dynamicText</property>
      <property name="shotcut:usePointSize">1</property>
      <property name="shotcut:pointSize">144</property>
    </filter>
  </producer>
  <producer id="producer108" in="00:00:00.000" out="03:59:59.960">
    <property name="length">04:00:00.000</property>
    <property name="eof">pause</property>
    <property name="resource">#00000000</property>
    <property name="aspect_ratio">1</property>
    <property name="mlt_service">color</property>
    <property name="mlt_image_format">rgba</property>
    <property name="shotcut:caption">transparent</property>
    <property name="shotcut:detail">transparent</property>
    <property name="xml">was here</property>
    <property name="seekable">1</property>
    <property name="meta.shotcut.vui">1</property>
    <filter id="filter126" out="00:00:12.720">
      <property name="argument">5つ目に，
本動画は，LANケーブルを作成するという，細々してて何やってるか
分かりにくい動画になっていますが，その分解説でカバーするように努めます．</property>
      <property name="geometry">371 834 1505 211 1</property>
      <property name="family">Hiragino Sans</property>
      <property name="size">144</property>
      <property name="weight">900</property>
      <property name="style">normal</property>
      <property name="fgcolour">#ffffffff</property>
      <property name="bgcolour">#00000000</property>
      <property name="olcolour">#aa000000</property>
      <property name="pad">0</property>
      <property name="halign">left</property>
      <property name="valign">middle</property>
      <property name="outline">3</property>
      <property name="opacity">1</property>
      <property name="mlt_service">dynamictext</property>
      <property name="shotcut:filter">dynamicText</property>
      <property name="shotcut:usePointSize">1</property>
      <property name="shotcut:pointSize">144</property>
    </filter>
  </producer>
  <producer id="producer50" in="00:00:00.000" out="03:59:59.960">
    <property name="length">04:00:00.000</property>
    <property name="eof">pause</property>
    <property name="resource">#00000000</property>
    <property name="aspect_ratio">1</property>
    <property name="mlt_service">color</property>
    <property name="mlt_image_format">rgba</property>
    <property name="shotcut:caption">transparent</property>
    <property name="shotcut:detail">transparent</property>
    <property name="xml">was here</property>
    <property name="seekable">1</property>
    <property name="meta.shotcut.vui">1</property>
    <filter id="filter127" out="00:00:05.760">
      <property name="argument">さて，本編を始める前に少々時間がございますので，

</property>
      <property name="geometry">371 834 1505 211 1</property>
      <property name="family">Hiragino Sans</property>
      <property name="size">144</property>
      <property name="weight">900</property>
      <property name="style">normal</property>
      <property name="fgcolour">#ffffffff</property>
      <property name="bgcolour">#00000000</property>
      <property name="olcolour">#aa000000</property>
      <property name="pad">0</property>
      <property name="halign">left</property>
      <property name="valign">middle</property>
      <property name="outline">3</property>
      <property name="opacity">1</property>
      <property name="mlt_service">dynamictext</property>
      <property name="shotcut:filter">dynamicText</property>
      <property name="shotcut:usePointSize">1</property>
      <property name="shotcut:pointSize">144</property>
    </filter>
  </producer>
  <producer id="producer110" in="00:00:00.000" out="03:59:59.960">
    <property name="length">04:00:00.000</property>
    <property name="eof">pause</property>
    <property name="resource">#00000000</property>
    <property name="aspect_ratio">1</property>
    <property name="mlt_service">color</property>
    <property name="mlt_image_format">rgba</property>
    <property name="shotcut:caption">transparent</property>
    <property name="shotcut:detail">transparent</property>
    <property name="xml">was here</property>
    <property name="seekable">1</property>
    <property name="meta.shotcut.vui">1</property>
    <filter id="filter128" out="00:00:15.640">
      <property name="argument">本動画において重要な言葉，「RTA」と「LANケーブル」について，
視聴者兄貴姉貴たちの中には馴染のない方もいるかと思われるので，
先にざっくり解説したいと思います．</property>
      <property name="geometry">371 834 1505 211 1</property>
      <property name="family">Hiragino Sans</property>
      <property name="size">144</property>
      <property name="weight">900</property>
      <property name="style">normal</property>
      <property name="fgcolour">#ffffffff</property>
      <property name="bgcolour">#00000000</property>
      <property name="olcolour">#aa000000</property>
      <property name="pad">0</property>
      <property name="halign">left</property>
      <property name="valign">middle</property>
      <property name="outline">3</property>
      <property name="opacity">1</property>
      <property name="mlt_service">dynamictext</property>
      <property name="shotcut:filter">dynamicText</property>
      <property name="shotcut:usePointSize">1</property>
      <property name="shotcut:pointSize">144</property>
    </filter>
  </producer>
  <producer id="producer111" in="00:00:00.000" out="03:59:59.960">
    <property name="length">04:00:00.000</property>
    <property name="eof">pause</property>
    <property name="resource">#00000000</property>
    <property name="aspect_ratio">1</property>
    <property name="mlt_service">color</property>
    <property name="mlt_image_format">rgba</property>
    <property name="shotcut:caption">transparent</property>
    <property name="shotcut:detail">transparent</property>
    <property name="xml">was here</property>
    <property name="seekable">1</property>
    <property name="meta.shotcut.vui">1</property>
    <filter id="filter129" out="00:00:05.320">
      <property name="argument">まず，RTAから．以下Wikipediaより引用

</property>
      <property name="geometry">371 834 1505 211 1</property>
      <property name="family">Hiragino Sans</property>
      <property name="size">144</property>
      <property name="weight">900</property>
      <property name="style">normal</property>
      <property name="fgcolour">#ffffffff</property>
      <property name="bgcolour">#00000000</property>
      <property name="olcolour">#aa000000</property>
      <property name="pad">0</property>
      <property name="halign">left</property>
      <property name="valign">middle</property>
      <property name="outline">3</property>
      <property name="opacity">1</property>
      <property name="mlt_service">dynamictext</property>
      <property name="shotcut:filter">dynamicText</property>
      <property name="shotcut:usePointSize">1</property>
      <property name="shotcut:pointSize">144</property>
    </filter>
  </producer>
  <producer id="producer112" in="00:00:00.000" out="03:59:59.960">
    <property name="length">04:00:00.000</property>
    <property name="eof">pause</property>
    <property name="resource">#00000000</property>
    <property name="aspect_ratio">1</property>
    <property name="mlt_service">color</property>
    <property name="mlt_image_format">rgba</property>
    <property name="shotcut:caption">transparent</property>
    <property name="shotcut:detail">transparent</property>
    <property name="xml">was here</property>
    <property name="seekable">1</property>
    <property name="meta.shotcut.vui">1</property>
    <filter id="filter130" out="00:00:09.160">
      <property name="argument">コンピュータゲームにおけるやり込みの一種，「リアルタイムアタック」 (Real Time Attack)．
ゲーム内部時間ではなく実際のプレイ時間で計測する．「RTA in Japan」など，
集団運営によるイベントが実施されることもある．</property>
      <property name="geometry">371 834 1505 211 1</property>
      <property name="family">Hiragino Sans</property>
      <property name="size">144</property>
      <property name="weight">900</property>
      <property name="style">normal</property>
      <property name="fgcolour">#ffffffff</property>
      <property name="bgcolour">#00000000</property>
      <property name="olcolour">#aa000000</property>
      <property name="pad">0</property>
      <property name="halign">left</property>
      <property name="valign">middle</property>
      <property name="outline">3</property>
      <property name="opacity">1</property>
      <property name="mlt_service">dynamictext</property>
      <property name="shotcut:filter">dynamicText</property>
      <property name="shotcut:usePointSize">1</property>
      <property name="shotcut:pointSize">144</property>
    </filter>
  </producer>
  <producer id="producer113" in="00:00:00.000" out="03:59:59.960">
    <property name="length">04:00:00.000</property>
    <property name="eof">pause</property>
    <property name="resource">#00000000</property>
    <property name="aspect_ratio">1</property>
    <property name="mlt_service">color</property>
    <property name="mlt_image_format">rgba</property>
    <property name="shotcut:caption">transparent</property>
    <property name="shotcut:detail">transparent</property>
    <property name="xml">was here</property>
    <property name="seekable">1</property>
    <property name="meta.shotcut.vui">1</property>
    <filter id="filter131" out="00:00:07.400">
      <property name="argument">まあ，
要は素早く何かを成功させるという意味です．
（クソガバ解説）</property>
      <property name="geometry">371 834 1505 211 1</property>
      <property name="family">Hiragino Sans</property>
      <property name="size">144</property>
      <property name="weight">900</property>
      <property name="style">normal</property>
      <property name="fgcolour">#ffffffff</property>
      <property name="bgcolour">#00000000</property>
      <property name="olcolour">#aa000000</property>
      <property name="pad">0</property>
      <property name="halign">left</property>
      <property name="valign">middle</property>
      <property name="outline">3</property>
      <property name="opacity">1</property>
      <property name="mlt_service">dynamictext</property>
      <property name="shotcut:filter">dynamicText</property>
      <property name="shotcut:usePointSize">1</property>
      <property name="shotcut:pointSize">144</property>
    </filter>
  </producer>
  <producer id="producer114" in="00:00:00.000" out="03:59:59.960">
    <property name="length">04:00:00.000</property>
    <property name="eof">pause</property>
    <property name="resource">#00000000</property>
    <property name="aspect_ratio">1</property>
    <property name="mlt_service">color</property>
    <property name="mlt_image_format">rgba</property>
    <property name="shotcut:caption">transparent</property>
    <property name="shotcut:detail">transparent</property>
    <property name="xml">was here</property>
    <property name="seekable">1</property>
    <property name="meta.shotcut.vui">1</property>
    <filter id="filter133" out="00:00:07.400">
      <property name="argument">今回はゲームではありませんが，
LANケーブル(次に解説)を素早く作成する動画となっております．
</property>
      <property name="geometry">371 834 1505 211 1</property>
      <property name="family">Hiragino Sans</property>
      <property name="size">144</property>
      <property name="weight">900</property>
      <property name="style">normal</property>
      <property name="fgcolour">#ffffffff</property>
      <property name="bgcolour">#00000000</property>
      <property name="olcolour">#aa000000</property>
      <property name="pad">0</property>
      <property name="halign">left</property>
      <property name="valign">middle</property>
      <property name="outline">3</property>
      <property name="opacity">1</property>
      <property name="mlt_service">dynamictext</property>
      <property name="shotcut:filter">dynamicText</property>
      <property name="shotcut:usePointSize">1</property>
      <property name="shotcut:pointSize">144</property>
    </filter>
  </producer>
  <producer id="producer115" in="00:00:00.000" out="03:59:59.960">
    <property name="length">04:00:00.000</property>
    <property name="eof">pause</property>
    <property name="resource">#00000000</property>
    <property name="aspect_ratio">1</property>
    <property name="mlt_service">color</property>
    <property name="mlt_image_format">rgba</property>
    <property name="shotcut:caption">transparent</property>
    <property name="shotcut:detail">transparent</property>
    <property name="xml">was here</property>
    <property name="seekable">1</property>
    <property name="meta.shotcut.vui">1</property>
    <filter id="filter134" out="00:00:05.760">
      <property name="argument">次に，LANケーブルという言葉
以下Wikipediaより引用
</property>
      <property name="geometry">371 834 1505 211 1</property>
      <property name="family">Hiragino Sans</property>
      <property name="size">144</property>
      <property name="weight">900</property>
      <property name="style">normal</property>
      <property name="fgcolour">#ffffffff</property>
      <property name="bgcolour">#00000000</property>
      <property name="olcolour">#aa000000</property>
      <property name="pad">0</property>
      <property name="halign">left</property>
      <property name="valign">middle</property>
      <property name="outline">3</property>
      <property name="opacity">1</property>
      <property name="mlt_service">dynamictext</property>
      <property name="shotcut:filter">dynamicText</property>
      <property name="shotcut:usePointSize">1</property>
      <property name="shotcut:pointSize">144</property>
    </filter>
  </producer>
  <producer id="producer116" in="00:00:00.000" out="03:59:59.960">
    <property name="length">04:00:00.000</property>
    <property name="eof">pause</property>
    <property name="resource">#00000000</property>
    <property name="aspect_ratio">1</property>
    <property name="mlt_service">color</property>
    <property name="mlt_image_format">rgba</property>
    <property name="shotcut:caption">transparent</property>
    <property name="shotcut:detail">transparent</property>
    <property name="xml">was here</property>
    <property name="seekable">1</property>
    <property name="meta.shotcut.vui">1</property>
    <filter id="filter135" out="00:00:15.520">
      <property name="argument">撚り対線（よりついせん）による平衡接続で100Ωの特性インピーダンスを持つ銅線ケーブル．
特に4対8線で両端にオス型8P8C（通称RJ(Registered Jack)-45）コネクタのついたものが
最も多く使用され，一般に「LANケーブル」と呼ばれる．
圧接工具を使えば容易に任意の長さのケーブルにコネクタを接続することもできる．
ケーブルには配線構成によっていくつかの種類がある．</property>
      <property name="geometry">371 834 1505 211 1</property>
      <property name="family">Hiragino Sans</property>
      <property name="size">144</property>
      <property name="weight">900</property>
      <property name="style">normal</property>
      <property name="fgcolour">#ffffffff</property>
      <property name="bgcolour">#00000000</property>
      <property name="olcolour">#aa000000</property>
      <property name="pad">0</property>
      <property name="halign">left</property>
      <property name="valign">middle</property>
      <property name="outline">3</property>
      <property name="opacity">1</property>
      <property name="mlt_service">dynamictext</property>
      <property name="shotcut:filter">dynamicText</property>
      <property name="shotcut:usePointSize">1</property>
      <property name="shotcut:pointSize">144</property>
    </filter>
  </producer>
  <producer id="producer117" in="00:00:00.000" out="03:59:59.960">
    <property name="length">04:00:00.000</property>
    <property name="eof">pause</property>
    <property name="resource">#00000000</property>
    <property name="aspect_ratio">1</property>
    <property name="mlt_service">color</property>
    <property name="mlt_image_format">rgba</property>
    <property name="shotcut:caption">transparent</property>
    <property name="shotcut:detail">transparent</property>
    <property name="xml">was here</property>
    <property name="seekable">1</property>
    <property name="meta.shotcut.vui">1</property>
    <filter id="filter136" out="00:00:06.600">
      <property name="argument">要は，Wi-Fiの有線バージョンってことです
（クソガバ解説）．
</property>
      <property name="geometry">371 834 1505 211 1</property>
      <property name="family">Hiragino Sans</property>
      <property name="size">144</property>
      <property name="weight">900</property>
      <property name="style">normal</property>
      <property name="fgcolour">#ffffffff</property>
      <property name="bgcolour">#00000000</property>
      <property name="olcolour">#aa000000</property>
      <property name="pad">0</property>
      <property name="halign">left</property>
      <property name="valign">middle</property>
      <property name="outline">3</property>
      <property name="opacity">1</property>
      <property name="mlt_service">dynamictext</property>
      <property name="shotcut:filter">dynamicText</property>
      <property name="shotcut:usePointSize">1</property>
      <property name="shotcut:pointSize">144</property>
    </filter>
  </producer>
  <producer id="producer118" in="00:00:00.000" out="03:59:59.960">
    <property name="length">04:00:00.000</property>
    <property name="eof">pause</property>
    <property name="resource">#00000000</property>
    <property name="aspect_ratio">1</property>
    <property name="mlt_service">color</property>
    <property name="mlt_image_format">rgba</property>
    <property name="shotcut:caption">transparent</property>
    <property name="shotcut:detail">transparent</property>
    <property name="xml">was here</property>
    <property name="seekable">1</property>
    <property name="meta.shotcut.vui">1</property>
    <filter id="filter137" out="00:00:07.520">
      <property name="argument">また今回は，LANケーブルにRJ-45という規格を
両端に作成するものとなっております．
</property>
      <property name="geometry">371 834 1505 211 1</property>
      <property name="family">Hiragino Sans</property>
      <property name="size">144</property>
      <property name="weight">900</property>
      <property name="style">normal</property>
      <property name="fgcolour">#ffffffff</property>
      <property name="bgcolour">#00000000</property>
      <property name="olcolour">#aa000000</property>
      <property name="pad">0</property>
      <property name="halign">left</property>
      <property name="valign">middle</property>
      <property name="outline">3</property>
      <property name="opacity">1</property>
      <property name="mlt_service">dynamictext</property>
      <property name="shotcut:filter">dynamicText</property>
      <property name="shotcut:usePointSize">1</property>
      <property name="shotcut:pointSize">144</property>
    </filter>
  </producer>
  <producer id="producer119" in="00:00:00.000" out="03:59:59.960">
    <property name="length">04:00:00.000</property>
    <property name="eof">pause</property>
    <property name="resource">#00000000</property>
    <property name="aspect_ratio">1</property>
    <property name="mlt_service">color</property>
    <property name="mlt_image_format">rgba</property>
    <property name="shotcut:caption">transparent</property>
    <property name="shotcut:detail">transparent</property>
    <property name="xml">was here</property>
    <property name="seekable">1</property>
    <property name="meta.shotcut.vui">1</property>
    <filter id="filter138" out="00:00:09.320">
      <property name="argument">そして，配線はストレートケーブルとクロスケーブルの2種類ありますが
今回はストレートケーブルを作成します．
</property>
      <property name="geometry">371 834 1505 211 1</property>
      <property name="family">Hiragino Sans</property>
      <property name="size">144</property>
      <property name="weight">900</property>
      <property name="style">normal</property>
      <property name="fgcolour">#ffffffff</property>
      <property name="bgcolour">#00000000</property>
      <property name="olcolour">#aa000000</property>
      <property name="pad">0</property>
      <property name="halign">left</property>
      <property name="valign">middle</property>
      <property name="outline">3</property>
      <property name="opacity">1</property>
      <property name="mlt_service">dynamictext</property>
      <property name="shotcut:filter">dynamicText</property>
      <property name="shotcut:usePointSize">1</property>
      <property name="shotcut:pointSize">144</property>
    </filter>
  </producer>
  <producer id="producer120" in="00:00:00.000" out="03:59:59.960">
    <property name="length">04:00:00.000</property>
    <property name="eof">pause</property>
    <property name="resource">#00000000</property>
    <property name="aspect_ratio">1</property>
    <property name="mlt_service">color</property>
    <property name="mlt_image_format">rgba</property>
    <property name="shotcut:caption">transparent</property>
    <property name="shotcut:detail">transparent</property>
    <property name="xml">was here</property>
    <property name="seekable">1</property>
    <property name="meta.shotcut.vui">1</property>
    <filter id="filter139" out="00:00:09.240">
      <property name="argument">まだまだ，RTAを開始するまで時間がありそうなので，
RTAの下準備について解説していきます．
</property>
      <property name="geometry">371 834 1505 211 1</property>
      <property name="family">Hiragino Sans</property>
      <property name="size">144</property>
      <property name="weight">900</property>
      <property name="style">normal</property>
      <property name="fgcolour">#ffffffff</property>
      <property name="bgcolour">#00000000</property>
      <property name="olcolour">#aa000000</property>
      <property name="pad">0</property>
      <property name="halign">left</property>
      <property name="valign">middle</property>
      <property name="outline">3</property>
      <property name="opacity">1</property>
      <property name="mlt_service">dynamictext</property>
      <property name="shotcut:filter">dynamicText</property>
      <property name="shotcut:usePointSize">1</property>
      <property name="shotcut:pointSize">144</property>
    </filter>
  </producer>
  <producer id="producer121" in="00:00:00.000" out="03:59:59.960">
    <property name="length">04:00:00.000</property>
    <property name="eof">pause</property>
    <property name="resource">#00000000</property>
    <property name="aspect_ratio">1</property>
    <property name="mlt_service">color</property>
    <property name="mlt_image_format">rgba</property>
    <property name="shotcut:caption">transparent</property>
    <property name="shotcut:detail">transparent</property>
    <property name="xml">was here</property>
    <property name="seekable">1</property>
    <property name="meta.shotcut.vui">1</property>
    <filter id="filter140" out="00:00:08.000">
      <property name="argument">このRTAでのタイマーストップはLANケーブルが
正常に動作していることを確認できたタイミングです．
</property>
      <property name="geometry">371 834 1505 211 1</property>
      <property name="family">Hiragino Sans</property>
      <property name="size">144</property>
      <property name="weight">900</property>
      <property name="style">normal</property>
      <property name="fgcolour">#ffffffff</property>
      <property name="bgcolour">#00000000</property>
      <property name="olcolour">#aa000000</property>
      <property name="pad">0</property>
      <property name="halign">left</property>
      <property name="valign">middle</property>
      <property name="outline">3</property>
      <property name="opacity">1</property>
      <property name="mlt_service">dynamictext</property>
      <property name="shotcut:filter">dynamicText</property>
      <property name="shotcut:usePointSize">1</property>
      <property name="shotcut:pointSize">144</property>
    </filter>
  </producer>
  <producer id="producer122" in="00:00:00.000" out="03:59:59.960">
    <property name="length">04:00:00.000</property>
    <property name="eof">pause</property>
    <property name="resource">#00000000</property>
    <property name="aspect_ratio">1</property>
    <property name="mlt_service">color</property>
    <property name="mlt_image_format">rgba</property>
    <property name="shotcut:caption">transparent</property>
    <property name="shotcut:detail">transparent</property>
    <property name="xml">was here</property>
    <property name="seekable">1</property>
    <property name="meta.shotcut.vui">1</property>
    <filter id="filter141" out="00:00:07.600">
      <property name="argument">従って，LANケーブルの動作確認のため，
LANケーブルのテスターを用意してください．
</property>
      <property name="geometry">371 834 1505 211 1</property>
      <property name="family">Hiragino Sans</property>
      <property name="size">144</property>
      <property name="weight">900</property>
      <property name="style">normal</property>
      <property name="fgcolour">#ffffffff</property>
      <property name="bgcolour">#00000000</property>
      <property name="olcolour">#aa000000</property>
      <property name="pad">0</property>
      <property name="halign">left</property>
      <property name="valign">middle</property>
      <property name="outline">3</property>
      <property name="opacity">1</property>
      <property name="mlt_service">dynamictext</property>
      <property name="shotcut:filter">dynamicText</property>
      <property name="shotcut:usePointSize">1</property>
      <property name="shotcut:pointSize">144</property>
    </filter>
  </producer>
  <producer id="producer123" in="00:00:00.000" out="03:59:59.960">
    <property name="length">04:00:00.000</property>
    <property name="eof">pause</property>
    <property name="resource">#00000000</property>
    <property name="aspect_ratio">1</property>
    <property name="mlt_service">color</property>
    <property name="mlt_image_format">rgba</property>
    <property name="shotcut:caption">transparent</property>
    <property name="shotcut:detail">transparent</property>
    <property name="xml">was here</property>
    <property name="seekable">1</property>
    <property name="meta.shotcut.vui">1</property>
    <filter id="filter142" out="00:00:11.000">
      <property name="argument">このテスターについて少し紹介．
視聴者兄貴姉貴の中には当然のことのように知っている方も
おられるかもしれませんが一応解説します，</property>
      <property name="geometry">371 834 1505 211 1</property>
      <property name="family">Hiragino Sans</property>
      <property name="size">144</property>
      <property name="weight">900</property>
      <property name="style">normal</property>
      <property name="fgcolour">#ffffffff</property>
      <property name="bgcolour">#00000000</property>
      <property name="olcolour">#aa000000</property>
      <property name="pad">0</property>
      <property name="halign">left</property>
      <property name="valign">middle</property>
      <property name="outline">3</property>
      <property name="opacity">1</property>
      <property name="mlt_service">dynamictext</property>
      <property name="shotcut:filter">dynamicText</property>
      <property name="shotcut:usePointSize">1</property>
      <property name="shotcut:pointSize">144</property>
    </filter>
  </producer>
  <producer id="producer124" in="00:00:00.000" out="03:59:59.960">
    <property name="length">04:00:00.000</property>
    <property name="eof">pause</property>
    <property name="resource">#00000000</property>
    <property name="aspect_ratio">1</property>
    <property name="mlt_service">color</property>
    <property name="mlt_image_format">rgba</property>
    <property name="shotcut:caption">transparent</property>
    <property name="shotcut:detail">transparent</property>
    <property name="xml">was here</property>
    <property name="seekable">1</property>
    <property name="meta.shotcut.vui">1</property>
    <filter id="filter144" out="00:00:10.120">
      <property name="argument">実は我々がよく目にするLANケーブルには，
先ほども少し触れたように，
ストレートケーブルとクロスケーブルの2種類あります．</property>
      <property name="geometry">371 834 1505 211 1</property>
      <property name="family">Hiragino Sans</property>
      <property name="size">144</property>
      <property name="weight">900</property>
      <property name="style">normal</property>
      <property name="fgcolour">#ffffffff</property>
      <property name="bgcolour">#00000000</property>
      <property name="olcolour">#aa000000</property>
      <property name="pad">0</property>
      <property name="halign">left</property>
      <property name="valign">middle</property>
      <property name="outline">3</property>
      <property name="opacity">1</property>
      <property name="mlt_service">dynamictext</property>
      <property name="shotcut:filter">dynamicText</property>
      <property name="shotcut:usePointSize">1</property>
      <property name="shotcut:pointSize">144</property>
    </filter>
  </producer>
  <producer id="producer125" in="00:00:00.000" out="03:59:59.960">
    <property name="length">04:00:00.000</property>
    <property name="eof">pause</property>
    <property name="resource">#00000000</property>
    <property name="aspect_ratio">1</property>
    <property name="mlt_service">color</property>
    <property name="mlt_image_format">rgba</property>
    <property name="shotcut:caption">transparent</property>
    <property name="shotcut:detail">transparent</property>
    <property name="xml">was here</property>
    <property name="seekable">1</property>
    <property name="meta.shotcut.vui">1</property>
    <filter id="filter145" out="00:00:11.400">
      <property name="argument">一見素人には同じに見えますが，モジュールの部分をよーく見てみると，
両端の順番が同じものと，少し順番が違うものがあります．
</property>
      <property name="geometry">371 834 1505 211 1</property>
      <property name="family">Hiragino Sans</property>
      <property name="size">144</property>
      <property name="weight">900</property>
      <property name="style">normal</property>
      <property name="fgcolour">#ffffffff</property>
      <property name="bgcolour">#00000000</property>
      <property name="olcolour">#aa000000</property>
      <property name="pad">0</property>
      <property name="halign">left</property>
      <property name="valign">middle</property>
      <property name="outline">3</property>
      <property name="opacity">1</property>
      <property name="mlt_service">dynamictext</property>
      <property name="shotcut:filter">dynamicText</property>
      <property name="shotcut:usePointSize">1</property>
      <property name="shotcut:pointSize">144</property>
    </filter>
  </producer>
  <producer id="producer126" in="00:00:00.000" out="03:59:59.960">
    <property name="length">04:00:00.000</property>
    <property name="eof">pause</property>
    <property name="resource">#00000000</property>
    <property name="aspect_ratio">1</property>
    <property name="mlt_service">color</property>
    <property name="mlt_image_format">rgba</property>
    <property name="shotcut:caption">transparent</property>
    <property name="shotcut:detail">transparent</property>
    <property name="xml">was here</property>
    <property name="seekable">1</property>
    <property name="meta.shotcut.vui">1</property>
    <filter id="filter146" out="00:00:08.600">
      <property name="argument">ざっくり説明すると，
順番が同じものがストレートケーブル，
違うものがクロスケーブルとなります．</property>
      <property name="geometry">371 834 1505 211 1</property>
      <property name="family">Hiragino Sans</property>
      <property name="size">144</property>
      <property name="weight">900</property>
      <property name="style">normal</property>
      <property name="fgcolour">#ffffffff</property>
      <property name="bgcolour">#00000000</property>
      <property name="olcolour">#aa000000</property>
      <property name="pad">0</property>
      <property name="halign">left</property>
      <property name="valign">middle</property>
      <property name="outline">3</property>
      <property name="opacity">1</property>
      <property name="mlt_service">dynamictext</property>
      <property name="shotcut:filter">dynamicText</property>
      <property name="shotcut:usePointSize">1</property>
      <property name="shotcut:pointSize">144</property>
    </filter>
  </producer>
  <producer id="producer127" in="00:00:00.000" out="03:59:59.960">
    <property name="length">04:00:00.000</property>
    <property name="eof">pause</property>
    <property name="resource">#00000000</property>
    <property name="aspect_ratio">1</property>
    <property name="mlt_service">color</property>
    <property name="mlt_image_format">rgba</property>
    <property name="shotcut:caption">transparent</property>
    <property name="shotcut:detail">transparent</property>
    <property name="xml">was here</property>
    <property name="seekable">1</property>
    <property name="meta.shotcut.vui">1</property>
    <filter id="filter147" out="00:00:09.040">
      <property name="argument">なので，このテスターにおいて，
ストレートケーブルであればここが光り
クロスケーブルであればここが光ります．</property>
      <property name="geometry">371 834 1505 211 1</property>
      <property name="family">Hiragino Sans</property>
      <property name="size">144</property>
      <property name="weight">900</property>
      <property name="style">normal</property>
      <property name="fgcolour">#ffffffff</property>
      <property name="bgcolour">#00000000</property>
      <property name="olcolour">#aa000000</property>
      <property name="pad">0</property>
      <property name="halign">left</property>
      <property name="valign">middle</property>
      <property name="outline">3</property>
      <property name="opacity">1</property>
      <property name="mlt_service">dynamictext</property>
      <property name="shotcut:filter">dynamicText</property>
      <property name="shotcut:usePointSize">1</property>
      <property name="shotcut:pointSize">144</property>
    </filter>
  </producer>
  <producer id="producer128" in="00:00:00.000" out="03:59:59.960">
    <property name="length">04:00:00.000</property>
    <property name="eof">pause</property>
    <property name="resource">#00000000</property>
    <property name="aspect_ratio">1</property>
    <property name="mlt_service">color</property>
    <property name="mlt_image_format">rgba</property>
    <property name="shotcut:caption">transparent</property>
    <property name="shotcut:detail">transparent</property>
    <property name="xml">was here</property>
    <property name="seekable">1</property>
    <property name="meta.shotcut.vui">1</property>
    <filter id="filter148" out="00:00:09.680">
      <property name="argument">断線や，正しい配線がされていなければ，ここが光ります．
今回はこの部分が光ったらタイマーストップします．
</property>
      <property name="geometry">371 834 1505 211 1</property>
      <property name="family">Hiragino Sans</property>
      <property name="size">144</property>
      <property name="weight">900</property>
      <property name="style">normal</property>
      <property name="fgcolour">#ffffffff</property>
      <property name="bgcolour">#00000000</property>
      <property name="olcolour">#aa000000</property>
      <property name="pad">0</property>
      <property name="halign">left</property>
      <property name="valign">middle</property>
      <property name="outline">3</property>
      <property name="opacity">1</property>
      <property name="mlt_service">dynamictext</property>
      <property name="shotcut:filter">dynamicText</property>
      <property name="shotcut:usePointSize">1</property>
      <property name="shotcut:pointSize">144</property>
    </filter>
  </producer>
  <producer id="producer129" in="00:00:00.000" out="03:59:59.960">
    <property name="length">04:00:00.000</property>
    <property name="eof">pause</property>
    <property name="resource">#00000000</property>
    <property name="aspect_ratio">1</property>
    <property name="mlt_service">color</property>
    <property name="mlt_image_format">rgba</property>
    <property name="shotcut:caption">transparent</property>
    <property name="shotcut:detail">transparent</property>
    <property name="xml">was here</property>
    <property name="seekable">1</property>
    <property name="meta.shotcut.vui">1</property>
    <filter id="filter149" out="00:00:15.360">
      <property name="argument">さて，当然LANケーブル作成RTAなので，
通常のUTPのLANケーブルの両端を切り落としといて下さい．
UTPという単語については本編に入ったらまた解説します．</property>
      <property name="geometry">371 834 1505 211 1</property>
      <property name="family">Hiragino Sans</property>
      <property name="size">144</property>
      <property name="weight">900</property>
      <property name="style">normal</property>
      <property name="fgcolour">#ffffffff</property>
      <property name="bgcolour">#00000000</property>
      <property name="olcolour">#aa000000</property>
      <property name="pad">0</property>
      <property name="halign">left</property>
      <property name="valign">middle</property>
      <property name="outline">3</property>
      <property name="opacity">1</property>
      <property name="mlt_service">dynamictext</property>
      <property name="shotcut:filter">dynamicText</property>
      <property name="shotcut:usePointSize">1</property>
      <property name="shotcut:pointSize">144</property>
    </filter>
  </producer>
  <producer id="producer51" in="00:00:00.000" out="03:59:59.960">
    <property name="length">04:00:00.000</property>
    <property name="eof">pause</property>
    <property name="resource">#00000000</property>
    <property name="aspect_ratio">1</property>
    <property name="mlt_service">color</property>
    <property name="mlt_image_format">rgba</property>
    <property name="shotcut:caption">transparent</property>
    <property name="shotcut:detail">transparent</property>
    <property name="xml">was here</property>
    <property name="seekable">1</property>
    <property name="meta.shotcut.vui">1</property>
    <filter id="filter150" out="00:00:12.240">
      <property name="argument">そして，RJ-45モジュールを両端につけるため，
それを二つ用意してください．
あと，「ニッパーのようなもの」と「かしめ工具のようなもの」も必要です．</property>
      <property name="geometry">371 834 1505 211 1</property>
      <property name="family">Hiragino Sans</property>
      <property name="size">144</property>
      <property name="weight">900</property>
      <property name="style">normal</property>
      <property name="fgcolour">#ffffffff</property>
      <property name="bgcolour">#00000000</property>
      <property name="olcolour">#aa000000</property>
      <property name="pad">0</property>
      <property name="halign">left</property>
      <property name="valign">middle</property>
      <property name="outline">3</property>
      <property name="opacity">1</property>
      <property name="mlt_service">dynamictext</property>
      <property name="shotcut:filter">dynamicText</property>
      <property name="shotcut:usePointSize">1</property>
      <property name="shotcut:pointSize">144</property>
    </filter>
  </producer>
  <producer id="producer131" in="00:00:00.000" out="03:59:59.960">
    <property name="length">04:00:00.000</property>
    <property name="eof">pause</property>
    <property name="resource">#00000000</property>
    <property name="aspect_ratio">1</property>
    <property name="mlt_service">color</property>
    <property name="mlt_image_format">rgba</property>
    <property name="shotcut:caption">transparent</property>
    <property name="shotcut:detail">transparent</property>
    <property name="xml">was here</property>
    <property name="seekable">1</property>
    <property name="meta.shotcut.vui">1</property>
    <filter id="filter151" out="00:00:14.280">
      <property name="argument">これにて準備完了です．用意するものはこの通りです．
テスター，切り落とされたLANケーブル，RJ-45モジュールｘ２，
ニッパーのようなもの，かしめ工具のようなもの，だけです．</property>
      <property name="geometry">371 834 1505 211 1</property>
      <property name="family">Hiragino Sans</property>
      <property name="size">144</property>
      <property name="weight">900</property>
      <property name="style">normal</property>
      <property name="fgcolour">#ffffffff</property>
      <property name="bgcolour">#00000000</property>
      <property name="olcolour">#aa000000</property>
      <property name="pad">0</property>
      <property name="halign">left</property>
      <property name="valign">middle</property>
      <property name="outline">3</property>
      <property name="opacity">1</property>
      <property name="mlt_service">dynamictext</property>
      <property name="shotcut:filter">dynamicText</property>
      <property name="shotcut:usePointSize">1</property>
      <property name="shotcut:pointSize">144</property>
    </filter>
  </producer>
  <producer id="producer52" in="00:00:00.000" out="03:59:59.960">
    <property name="length">04:00:00.000</property>
    <property name="eof">pause</property>
    <property name="resource">#00000000</property>
    <property name="aspect_ratio">1</property>
    <property name="mlt_service">color</property>
    <property name="mlt_image_format">rgba</property>
    <property name="shotcut:caption">transparent</property>
    <property name="shotcut:detail">transparent</property>
    <property name="xml">was here</property>
    <property name="seekable">1</property>
    <property name="meta.shotcut.vui">1</property>
    <filter id="filter152" out="00:00:12.560">
      <property name="argument">RTAのマイルストーンは簡単です．
配線→長さを整える→モジュール取り付け→かしめる
を両端で行い，最後にテストをするだけです．</property>
      <property name="geometry">371 834 1505 211 1</property>
      <property name="family">Hiragino Sans</property>
      <property name="size">144</property>
      <property name="weight">900</property>
      <property name="style">normal</property>
      <property name="fgcolour">#ffffffff</property>
      <property name="bgcolour">#00000000</property>
      <property name="olcolour">#aa000000</property>
      <property name="pad">0</property>
      <property name="halign">left</property>
      <property name="valign">middle</property>
      <property name="outline">3</property>
      <property name="opacity">1</property>
      <property name="mlt_service">dynamictext</property>
      <property name="shotcut:filter">dynamicText</property>
      <property name="shotcut:usePointSize">1</property>
      <property name="shotcut:pointSize">144</property>
    </filter>
  </producer>
  <producer id="producer133" in="00:00:00.000" out="03:59:59.960">
    <property name="length">04:00:00.000</property>
    <property name="eof">pause</property>
    <property name="resource">#00000000</property>
    <property name="aspect_ratio">1</property>
    <property name="mlt_service">color</property>
    <property name="mlt_image_format">rgba</property>
    <property name="shotcut:caption">transparent</property>
    <property name="shotcut:detail">transparent</property>
    <property name="xml">was here</property>
    <property name="seekable">1</property>
    <property name="meta.shotcut.vui">1</property>
    <filter id="filter153" out="00:00:04.360">
      <property name="argument">雰囲気だけ掴んでもらえれば大丈夫です．

</property>
      <property name="geometry">371 834 1505 211 1</property>
      <property name="family">Hiragino Sans</property>
      <property name="size">144</property>
      <property name="weight">900</property>
      <property name="style">normal</property>
      <property name="fgcolour">#ffffffff</property>
      <property name="bgcolour">#00000000</property>
      <property name="olcolour">#aa000000</property>
      <property name="pad">0</property>
      <property name="halign">left</property>
      <property name="valign">middle</property>
      <property name="outline">3</property>
      <property name="opacity">1</property>
      <property name="mlt_service">dynamictext</property>
      <property name="shotcut:filter">dynamicText</property>
      <property name="shotcut:usePointSize">1</property>
      <property name="shotcut:pointSize">144</property>
    </filter>
  </producer>
  <producer id="producer134" in="00:00:00.000" out="03:59:59.960">
    <property name="length">04:00:00.000</property>
    <property name="eof">pause</property>
    <property name="resource">#00000000</property>
    <property name="aspect_ratio">1</property>
    <property name="mlt_service">color</property>
    <property name="mlt_image_format">rgba</property>
    <property name="shotcut:caption">transparent</property>
    <property name="shotcut:detail">transparent</property>
    <property name="xml">was here</property>
    <property name="seekable">1</property>
    <property name="meta.shotcut.vui">1</property>
    <filter id="filter154" in="00:00:01.000" out="00:00:06.200">
      <property name="argument">さて，準備ができたようなので，始めていきます．

</property>
      <property name="geometry">371 834 1505 211 1</property>
      <property name="family">Hiragino Sans</property>
      <property name="size">144</property>
      <property name="weight">900</property>
      <property name="style">normal</property>
      <property name="fgcolour">#ffffffff</property>
      <property name="bgcolour">#00000000</property>
      <property name="olcolour">#aa000000</property>
      <property name="pad">0</property>
      <property name="halign">left</property>
      <property name="valign">middle</property>
      <property name="outline">3</property>
      <property name="opacity">1</property>
      <property name="mlt_service">dynamictext</property>
      <property name="shotcut:filter">dynamicText</property>
      <property name="shotcut:usePointSize">1</property>
      <property name="shotcut:pointSize">144</property>
    </filter>
  </producer>
  <producer id="producer53" in="00:00:00.000" out="03:59:59.960">
    <property name="length">04:00:00.000</property>
    <property name="eof">pause</property>
    <property name="resource">#00000000</property>
    <property name="aspect_ratio">1</property>
    <property name="mlt_service">color</property>
    <property name="mlt_image_format">rgba</property>
    <property name="shotcut:caption">transparent</property>
    <property name="shotcut:detail">transparent</property>
    <property name="xml">was here</property>
    <property name="seekable">1</property>
    <property name="meta.shotcut.vui">1</property>
    <filter id="filter155" in="00:00:04.840" out="00:00:09.080">
      <property name="argument">LANケーブルを手で触れた瞬間からタイマースタートです．

</property>
      <property name="geometry">371 834 1505 211 1</property>
      <property name="family">Hiragino Sans</property>
      <property name="size">144</property>
      <property name="weight">900</property>
      <property name="style">normal</property>
      <property name="fgcolour">#ffffffff</property>
      <property name="bgcolour">#00000000</property>
      <property name="olcolour">#aa000000</property>
      <property name="pad">0</property>
      <property name="halign">left</property>
      <property name="valign">middle</property>
      <property name="outline">3</property>
      <property name="opacity">1</property>
      <property name="mlt_service">dynamictext</property>
      <property name="shotcut:filter">dynamicText</property>
      <property name="shotcut:usePointSize">1</property>
      <property name="shotcut:pointSize">144</property>
    </filter>
  </producer>
  <producer id="producer135" in="00:00:00.000" out="03:59:59.960">
    <property name="length">04:00:00.000</property>
    <property name="eof">pause</property>
    <property name="resource">#00000000</property>
    <property name="aspect_ratio">1</property>
    <property name="mlt_service">color</property>
    <property name="mlt_image_format">rgba</property>
    <property name="shotcut:caption">transparent</property>
    <property name="shotcut:detail">transparent</property>
    <property name="xml">was here</property>
    <property name="seekable">1</property>
    <property name="meta.shotcut.vui">1</property>
    <filter id="filter156" in="00:00:01.120" out="00:00:03.240">
      <property name="argument">はい．よーいすたーと．

</property>
      <property name="geometry">371 834 1505 211 1</property>
      <property name="family">Hiragino Sans</property>
      <property name="size">144</property>
      <property name="weight">900</property>
      <property name="style">normal</property>
      <property name="fgcolour">#ffffffff</property>
      <property name="bgcolour">#00000000</property>
      <property name="olcolour">#aa000000</property>
      <property name="pad">0</property>
      <property name="halign">left</property>
      <property name="valign">middle</property>
      <property name="outline">3</property>
      <property name="opacity">1</property>
      <property name="mlt_service">dynamictext</property>
      <property name="shotcut:filter">dynamicText</property>
      <property name="shotcut:usePointSize">1</property>
      <property name="shotcut:pointSize">144</property>
    </filter>
  </producer>
  <producer id="producer136" in="00:00:00.000" out="03:59:59.960">
    <property name="length">04:00:00.000</property>
    <property name="eof">pause</property>
    <property name="resource">#00000000</property>
    <property name="aspect_ratio">1</property>
    <property name="mlt_service">color</property>
    <property name="mlt_image_format">rgba</property>
    <property name="shotcut:caption">transparent</property>
    <property name="shotcut:detail">transparent</property>
    <property name="xml">was here</property>
    <property name="seekable">1</property>
    <property name="meta.shotcut.vui">1</property>
    <filter id="filter157" out="00:00:10.920">
      <property name="argument">まずはLANケーブルから出ている８本の線を
図のように並べる必要があります．
うp主は天才なので，当然この配線を暗記しています．</property>
      <property name="geometry">371 834 1505 211 1</property>
      <property name="family">Hiragino Sans</property>
      <property name="size">144</property>
      <property name="weight">900</property>
      <property name="style">normal</property>
      <property name="fgcolour">#ffffffff</property>
      <property name="bgcolour">#00000000</property>
      <property name="olcolour">#aa000000</property>
      <property name="pad">0</property>
      <property name="halign">left</property>
      <property name="valign">middle</property>
      <property name="outline">3</property>
      <property name="opacity">1</property>
      <property name="mlt_service">dynamictext</property>
      <property name="shotcut:filter">dynamicText</property>
      <property name="shotcut:usePointSize">1</property>
      <property name="shotcut:pointSize">144</property>
    </filter>
  </producer>
  <producer id="producer137" in="00:00:00.000" out="03:59:59.960">
    <property name="length">04:00:00.000</property>
    <property name="eof">pause</property>
    <property name="resource">#00000000</property>
    <property name="aspect_ratio">1</property>
    <property name="mlt_service">color</property>
    <property name="mlt_image_format">rgba</property>
    <property name="shotcut:caption">transparent</property>
    <property name="shotcut:detail">transparent</property>
    <property name="xml">was here</property>
    <property name="seekable">1</property>
    <property name="meta.shotcut.vui">1</property>
    <filter id="filter158" out="00:00:07.760">
      <property name="argument">ですが，記憶力がハトなので，
完成したLANケーブルから配線を確認していますね．
</property>
      <property name="geometry">371 834 1505 211 1</property>
      <property name="family">Hiragino Sans</property>
      <property name="size">144</property>
      <property name="weight">900</property>
      <property name="style">normal</property>
      <property name="fgcolour">#ffffffff</property>
      <property name="bgcolour">#00000000</property>
      <property name="olcolour">#aa000000</property>
      <property name="pad">0</property>
      <property name="halign">left</property>
      <property name="valign">middle</property>
      <property name="outline">3</property>
      <property name="opacity">1</property>
      <property name="mlt_service">dynamictext</property>
      <property name="shotcut:filter">dynamicText</property>
      <property name="shotcut:usePointSize">1</property>
      <property name="shotcut:pointSize">144</property>
    </filter>
  </producer>
  <producer id="producer138" in="00:00:00.000" out="03:59:59.960">
    <property name="length">04:00:00.000</property>
    <property name="eof">pause</property>
    <property name="resource">#00000000</property>
    <property name="aspect_ratio">1</property>
    <property name="mlt_service">color</property>
    <property name="mlt_image_format">rgba</property>
    <property name="shotcut:caption">transparent</property>
    <property name="shotcut:detail">transparent</property>
    <property name="xml">was here</property>
    <property name="seekable">1</property>
    <property name="meta.shotcut.vui">1</property>
    <filter id="filter160" out="00:00:14.320">
      <property name="argument">ここで先程のUTPという用語の補足です．
UTP(UNshielded twisted pair)とは断面図が
こういう感じでバラバラで，ノイズの影響を受けやすいものになっています．</property>
      <property name="geometry">371 834 1505 211 1</property>
      <property name="family">Hiragino Sans</property>
      <property name="size">144</property>
      <property name="weight">900</property>
      <property name="style">normal</property>
      <property name="fgcolour">#ffffffff</property>
      <property name="bgcolour">#00000000</property>
      <property name="olcolour">#aa000000</property>
      <property name="pad">0</property>
      <property name="halign">left</property>
      <property name="valign">middle</property>
      <property name="outline">3</property>
      <property name="opacity">1</property>
      <property name="mlt_service">dynamictext</property>
      <property name="shotcut:filter">dynamicText</property>
      <property name="shotcut:usePointSize">1</property>
      <property name="shotcut:pointSize">144</property>
    </filter>
  </producer>
  <producer id="producer139" in="00:00:00.000" out="03:59:59.960">
    <property name="length">04:00:00.000</property>
    <property name="eof">pause</property>
    <property name="resource">#00000000</property>
    <property name="aspect_ratio">1</property>
    <property name="mlt_service">color</property>
    <property name="mlt_image_format">rgba</property>
    <property name="shotcut:caption">transparent</property>
    <property name="shotcut:detail">transparent</property>
    <property name="xml">was here</property>
    <property name="seekable">1</property>
    <property name="meta.shotcut.vui">1</property>
    <filter id="filter161" out="00:00:16.880">
      <property name="argument">それに対して，STP(shielded twisted pair)とは
こういう感じの断面図であり，ノイズの影響を受けにくくなっています．
当然，STPの方が高性能ですが，その分高価になっています．</property>
      <property name="geometry">371 834 1505 211 1</property>
      <property name="family">Hiragino Sans</property>
      <property name="size">144</property>
      <property name="weight">900</property>
      <property name="style">normal</property>
      <property name="fgcolour">#ffffffff</property>
      <property name="bgcolour">#00000000</property>
      <property name="olcolour">#aa000000</property>
      <property name="pad">0</property>
      <property name="halign">left</property>
      <property name="valign">middle</property>
      <property name="outline">3</property>
      <property name="opacity">1</property>
      <property name="mlt_service">dynamictext</property>
      <property name="shotcut:filter">dynamicText</property>
      <property name="shotcut:usePointSize">1</property>
      <property name="shotcut:pointSize">144</property>
    </filter>
  </producer>
  <producer id="producer140" in="00:00:00.000" out="03:59:59.960">
    <property name="length">04:00:00.000</property>
    <property name="eof">pause</property>
    <property name="resource">#00000000</property>
    <property name="aspect_ratio">1</property>
    <property name="mlt_service">color</property>
    <property name="mlt_image_format">rgba</property>
    <property name="shotcut:caption">transparent</property>
    <property name="shotcut:detail">transparent</property>
    <property name="xml">was here</property>
    <property name="seekable">1</property>
    <property name="meta.shotcut.vui">1</property>
    <filter id="filter162" out="00:00:09.440">
      <property name="argument">今回はUTPケーブルです．
頑張ってうp主が線を並べている様子をご覧ください．
(見難い(醜い)けどごめんね．)</property>
      <property name="geometry">371 834 1505 211 1</property>
      <property name="family">Hiragino Sans</property>
      <property name="size">144</property>
      <property name="weight">900</property>
      <property name="style">normal</property>
      <property name="fgcolour">#ffffffff</property>
      <property name="bgcolour">#00000000</property>
      <property name="olcolour">#aa000000</property>
      <property name="pad">0</property>
      <property name="halign">left</property>
      <property name="valign">middle</property>
      <property name="outline">3</property>
      <property name="opacity">1</property>
      <property name="mlt_service">dynamictext</property>
      <property name="shotcut:filter">dynamicText</property>
      <property name="shotcut:usePointSize">1</property>
      <property name="shotcut:pointSize">144</property>
    </filter>
  </producer>
  <producer id="producer141" in="00:00:00.000" out="03:59:59.960">
    <property name="length">04:00:00.000</property>
    <property name="eof">pause</property>
    <property name="resource">#00000000</property>
    <property name="aspect_ratio">1</property>
    <property name="mlt_service">color</property>
    <property name="mlt_image_format">rgba</property>
    <property name="shotcut:caption">transparent</property>
    <property name="shotcut:detail">transparent</property>
    <property name="xml">was here</property>
    <property name="seekable">1</property>
    <property name="meta.shotcut.vui">1</property>
    <filter id="filter163" out="00:00:09.760">
      <property name="argument">やはりハトなので，配線を確認していますね．
配線にまだまだ時間がかかりそうなので
皆さんに聞きたいことがあります．</property>
      <property name="geometry">371 834 1505 211 1</property>
      <property name="family">Hiragino Sans</property>
      <property name="size">144</property>
      <property name="weight">900</property>
      <property name="style">normal</property>
      <property name="fgcolour">#ffffffff</property>
      <property name="bgcolour">#00000000</property>
      <property name="olcolour">#aa000000</property>
      <property name="pad">0</property>
      <property name="halign">left</property>
      <property name="valign">middle</property>
      <property name="outline">3</property>
      <property name="opacity">1</property>
      <property name="mlt_service">dynamictext</property>
      <property name="shotcut:filter">dynamicText</property>
      <property name="shotcut:usePointSize">1</property>
      <property name="shotcut:pointSize">144</property>
    </filter>
  </producer>
  <producer id="producer142" in="00:00:00.000" out="03:59:59.960">
    <property name="length">04:00:00.000</property>
    <property name="eof">pause</property>
    <property name="resource">#00000000</property>
    <property name="aspect_ratio">1</property>
    <property name="mlt_service">color</property>
    <property name="mlt_image_format">rgba</property>
    <property name="shotcut:caption">transparent</property>
    <property name="shotcut:detail">transparent</property>
    <property name="xml">was here</property>
    <property name="seekable">1</property>
    <property name="meta.shotcut.vui">1</property>
    <filter id="filter164" out="00:00:08.480">
      <property name="argument">そういえばみなさん
LANケーブルを買うときに何を気にしていますか？
LANケーブルの長さ？高級感？</property>
      <property name="geometry">371 834 1505 211 1</property>
      <property name="family">Hiragino Sans</property>
      <property name="size">144</property>
      <property name="weight">900</property>
      <property name="style">normal</property>
      <property name="fgcolour">#ffffffff</property>
      <property name="bgcolour">#00000000</property>
      <property name="olcolour">#aa000000</property>
      <property name="pad">0</property>
      <property name="halign">left</property>
      <property name="valign">middle</property>
      <property name="outline">3</property>
      <property name="opacity">1</property>
      <property name="mlt_service">dynamictext</property>
      <property name="shotcut:filter">dynamicText</property>
      <property name="shotcut:usePointSize">1</property>
      <property name="shotcut:pointSize">144</property>
    </filter>
  </producer>
  <producer id="producer54" in="00:00:00.000" out="03:59:59.960">
    <property name="length">04:00:00.000</property>
    <property name="eof">pause</property>
    <property name="resource">#00000000</property>
    <property name="aspect_ratio">1</property>
    <property name="mlt_service">color</property>
    <property name="mlt_image_format">rgba</property>
    <property name="shotcut:caption">transparent</property>
    <property name="shotcut:detail">transparent</property>
    <property name="xml">was here</property>
    <property name="seekable">1</property>
    <property name="meta.shotcut.vui">1</property>
    <filter id="filter165" out="00:00:09.160">
      <property name="argument">もしCat(カテゴリ)という規格を初めて聞く
視聴者兄貴姉貴がいたら是非次からは
意識していただけると良いかと思います．</property>
      <property name="geometry">371 834 1505 211 1</property>
      <property name="family">Hiragino Sans</property>
      <property name="size">144</property>
      <property name="weight">900</property>
      <property name="style">normal</property>
      <property name="fgcolour">#ffffffff</property>
      <property name="bgcolour">#00000000</property>
      <property name="olcolour">#aa000000</property>
      <property name="pad">0</property>
      <property name="halign">left</property>
      <property name="valign">middle</property>
      <property name="outline">3</property>
      <property name="opacity">1</property>
      <property name="mlt_service">dynamictext</property>
      <property name="shotcut:filter">dynamicText</property>
      <property name="shotcut:usePointSize">1</property>
      <property name="shotcut:pointSize">144</property>
    </filter>
  </producer>
  <producer id="producer144" in="00:00:00.000" out="03:59:59.960">
    <property name="length">04:00:00.000</property>
    <property name="eof">pause</property>
    <property name="resource">#00000000</property>
    <property name="aspect_ratio">1</property>
    <property name="mlt_service">color</property>
    <property name="mlt_image_format">rgba</property>
    <property name="shotcut:caption">transparent</property>
    <property name="shotcut:detail">transparent</property>
    <property name="xml">was here</property>
    <property name="seekable">1</property>
    <property name="meta.shotcut.vui">1</property>
    <filter id="filter166" out="00:00:16.640">
      <property name="argument">Catとは通信速度や伝送帯域などを表している規格です．
なので，Catを見れば通信速度が分かるので，確認してみて下さい．
ちなみに前に述べたUTPとSTPはCatに関係しています．</property>
      <property name="geometry">371 834 1505 211 1</property>
      <property name="family">Hiragino Sans</property>
      <property name="size">144</property>
      <property name="weight">900</property>
      <property name="style">normal</property>
      <property name="fgcolour">#ffffffff</property>
      <property name="bgcolour">#00000000</property>
      <property name="olcolour">#aa000000</property>
      <property name="pad">0</property>
      <property name="halign">left</property>
      <property name="valign">middle</property>
      <property name="outline">3</property>
      <property name="opacity">1</property>
      <property name="mlt_service">dynamictext</property>
      <property name="shotcut:filter">dynamicText</property>
      <property name="shotcut:usePointSize">1</property>
      <property name="shotcut:pointSize">144</property>
    </filter>
  </producer>
  <producer id="producer145" in="00:00:00.000" out="03:59:59.960">
    <property name="length">04:00:00.000</property>
    <property name="eof">pause</property>
    <property name="resource">#00000000</property>
    <property name="aspect_ratio">1</property>
    <property name="mlt_service">color</property>
    <property name="mlt_image_format">rgba</property>
    <property name="shotcut:caption">transparent</property>
    <property name="shotcut:detail">transparent</property>
    <property name="xml">was here</property>
    <property name="seekable">1</property>
    <property name="meta.shotcut.vui">1</property>
    <filter id="filter167" out="00:00:08.640">
      <property name="argument">一定以上のCatにはSTPでないと実現できないものがあります．
気になる人は調べてみて下さい．
</property>
      <property name="geometry">371 834 1505 211 1</property>
      <property name="family">Hiragino Sans</property>
      <property name="size">144</property>
      <property name="weight">900</property>
      <property name="style">normal</property>
      <property name="fgcolour">#ffffffff</property>
      <property name="bgcolour">#00000000</property>
      <property name="olcolour">#aa000000</property>
      <property name="pad">0</property>
      <property name="halign">left</property>
      <property name="valign">middle</property>
      <property name="outline">3</property>
      <property name="opacity">1</property>
      <property name="mlt_service">dynamictext</property>
      <property name="shotcut:filter">dynamicText</property>
      <property name="shotcut:usePointSize">1</property>
      <property name="shotcut:pointSize">144</property>
    </filter>
  </producer>
  <producer id="producer146" in="00:00:00.000" out="03:59:59.960">
    <property name="length">04:00:00.000</property>
    <property name="eof">pause</property>
    <property name="resource">#00000000</property>
    <property name="aspect_ratio">1</property>
    <property name="mlt_service">color</property>
    <property name="mlt_image_format">rgba</property>
    <property name="shotcut:caption">transparent</property>
    <property name="shotcut:detail">transparent</property>
    <property name="xml">was here</property>
    <property name="seekable">1</property>
    <property name="meta.shotcut.vui">1</property>
    <filter id="filter168" out="00:00:08.040">
      <property name="argument">図にあるとおり，数字が上がるほど性能が良くなりますが，
その分値段が高くなっています．
</property>
      <property name="geometry">371 834 1505 211 1</property>
      <property name="family">Hiragino Sans</property>
      <property name="size">144</property>
      <property name="weight">900</property>
      <property name="style">normal</property>
      <property name="fgcolour">#ffffffff</property>
      <property name="bgcolour">#00000000</property>
      <property name="olcolour">#aa000000</property>
      <property name="pad">0</property>
      <property name="halign">left</property>
      <property name="valign">middle</property>
      <property name="outline">3</property>
      <property name="opacity">1</property>
      <property name="mlt_service">dynamictext</property>
      <property name="shotcut:filter">dynamicText</property>
      <property name="shotcut:usePointSize">1</property>
      <property name="shotcut:pointSize">144</property>
    </filter>
  </producer>
  <producer id="producer147" in="00:00:00.000" out="03:59:59.960">
    <property name="length">04:00:00.000</property>
    <property name="eof">pause</property>
    <property name="resource">#00000000</property>
    <property name="aspect_ratio">1</property>
    <property name="mlt_service">color</property>
    <property name="mlt_image_format">rgba</property>
    <property name="shotcut:caption">transparent</property>
    <property name="shotcut:detail">transparent</property>
    <property name="xml">was here</property>
    <property name="seekable">1</property>
    <property name="meta.shotcut.vui">1</property>
    <filter id="filter169" out="00:00:10.760">
      <property name="argument">通信速度の速いケーブルを買っても，
ケーブルが繋ぐ機器がその速度に対応していなければ，
その機器がボトルネックになってしまいます．</property>
      <property name="geometry">371 834 1505 211 1</property>
      <property name="family">Hiragino Sans</property>
      <property name="size">144</property>
      <property name="weight">900</property>
      <property name="style">normal</property>
      <property name="fgcolour">#ffffffff</property>
      <property name="bgcolour">#00000000</property>
      <property name="olcolour">#aa000000</property>
      <property name="pad">0</property>
      <property name="halign">left</property>
      <property name="valign">middle</property>
      <property name="outline">3</property>
      <property name="opacity">1</property>
      <property name="mlt_service">dynamictext</property>
      <property name="shotcut:filter">dynamicText</property>
      <property name="shotcut:usePointSize">1</property>
      <property name="shotcut:pointSize">144</property>
    </filter>
  </producer>
  <producer id="producer148" in="00:00:00.000" out="03:59:59.960">
    <property name="length">04:00:00.000</property>
    <property name="eof">pause</property>
    <property name="resource">#00000000</property>
    <property name="aspect_ratio">1</property>
    <property name="mlt_service">color</property>
    <property name="mlt_image_format">rgba</property>
    <property name="shotcut:caption">transparent</property>
    <property name="shotcut:detail">transparent</property>
    <property name="xml">was here</property>
    <property name="seekable">1</property>
    <property name="meta.shotcut.vui">1</property>
    <filter id="filter170" out="00:00:11.800">
      <property name="argument">そのため，要件を満たす速度のケーブルを買い，
あまりにオーバースペックなものは勿体無いので，
適切なLANケーブルを買うようにすると良いと思います．</property>
      <property name="geometry">371 834 1505 211 1</property>
      <property name="family">Hiragino Sans</property>
      <property name="size">144</property>
      <property name="weight">900</property>
      <property name="style">normal</property>
      <property name="fgcolour">#ffffffff</property>
      <property name="bgcolour">#00000000</property>
      <property name="olcolour">#aa000000</property>
      <property name="pad">0</property>
      <property name="halign">left</property>
      <property name="valign">middle</property>
      <property name="outline">3</property>
      <property name="opacity">1</property>
      <property name="mlt_service">dynamictext</property>
      <property name="shotcut:filter">dynamicText</property>
      <property name="shotcut:usePointSize">1</property>
      <property name="shotcut:pointSize">144</property>
    </filter>
  </producer>
  <producer id="producer149" in="00:00:00.000" out="03:59:59.960">
    <property name="length">04:00:00.000</property>
    <property name="eof">pause</property>
    <property name="resource">#00000000</property>
    <property name="aspect_ratio">1</property>
    <property name="mlt_service">color</property>
    <property name="mlt_image_format">rgba</property>
    <property name="shotcut:caption">transparent</property>
    <property name="shotcut:detail">transparent</property>
    <property name="xml">was here</property>
    <property name="seekable">1</property>
    <property name="meta.shotcut.vui">1</property>
    <filter id="filter171" out="00:00:10.360">
      <property name="argument">なんとか並べたようですね．
ここで，先端をペンチのようなもので
切って，揃えてRJ-45のモジュールに線を差し込みます．</property>
      <property name="geometry">371 834 1505 211 1</property>
      <property name="family">Hiragino Sans</property>
      <property name="size">144</property>
      <property name="weight">900</property>
      <property name="style">normal</property>
      <property name="fgcolour">#ffffffff</property>
      <property name="bgcolour">#00000000</property>
      <property name="olcolour">#aa000000</property>
      <property name="pad">0</property>
      <property name="halign">left</property>
      <property name="valign">middle</property>
      <property name="outline">3</property>
      <property name="opacity">1</property>
      <property name="mlt_service">dynamictext</property>
      <property name="shotcut:filter">dynamicText</property>
      <property name="shotcut:usePointSize">1</property>
      <property name="shotcut:pointSize">144</property>
    </filter>
  </producer>
  <producer id="producer153" in="00:00:00.000" out="03:59:59.960">
    <property name="length">04:00:00.000</property>
    <property name="eof">pause</property>
    <property name="resource">#00000000</property>
    <property name="aspect_ratio">1</property>
    <property name="mlt_service">color</property>
    <property name="mlt_image_format">rgba</property>
    <property name="shotcut:caption">transparent</property>
    <property name="shotcut:detail">transparent</property>
    <property name="xml">was here</property>
    <property name="seekable">1</property>
    <property name="meta.shotcut.vui">1</property>
    <filter id="filter172" out="00:00:11.920">
      <property name="argument">(うp主は非力ですね．)
(ニッパーの扱いもおぼつかなさそうです．)</property>
      <property name="geometry">371 834 1505 211 1</property>
      <property name="family">Hiragino Sans</property>
      <property name="size">144</property>
      <property name="weight">900</property>
      <property name="style">normal</property>
      <property name="fgcolour">#ffffffff</property>
      <property name="bgcolour">#00000000</property>
      <property name="olcolour">#aa000000</property>
      <property name="pad">0</property>
      <property name="halign">left</property>
      <property name="valign">middle</property>
      <property name="outline">3</property>
      <property name="opacity">1</property>
      <property name="mlt_service">dynamictext</property>
      <property name="shotcut:filter">dynamicText</property>
      <property name="shotcut:usePointSize">1</property>
      <property name="shotcut:pointSize">144</property>
    </filter>
  </producer>
  <producer id="producer150" in="00:00:00.000" out="03:59:59.960">
    <property name="length">04:00:00.000</property>
    <property name="eof">pause</property>
    <property name="resource">#00000000</property>
    <property name="aspect_ratio">1</property>
    <property name="mlt_service">color</property>
    <property name="mlt_image_format">rgba</property>
    <property name="shotcut:caption">transparent</property>
    <property name="shotcut:detail">transparent</property>
    <property name="xml">was here</property>
    <property name="seekable">1</property>
    <property name="meta.shotcut.vui">1</property>
    <filter id="filter173" in="00:00:00.960" out="00:00:09.440">
      <property name="argument">そういえばみなさんLANケーブルと聞くと今作成しているものを
想像されるかもしれませんが，これは狭義のLANケーブルです．
</property>
      <property name="geometry">371 834 1505 211 1</property>
      <property name="family">Hiragino Sans</property>
      <property name="size">144</property>
      <property name="weight">900</property>
      <property name="style">normal</property>
      <property name="fgcolour">#ffffffff</property>
      <property name="bgcolour">#00000000</property>
      <property name="olcolour">#aa000000</property>
      <property name="pad">0</property>
      <property name="halign">left</property>
      <property name="valign">middle</property>
      <property name="outline">3</property>
      <property name="opacity">1</property>
      <property name="mlt_service">dynamictext</property>
      <property name="shotcut:filter">dynamicText</property>
      <property name="shotcut:usePointSize">1</property>
      <property name="shotcut:pointSize">144</property>
    </filter>
  </producer>
  <producer id="producer151" in="00:00:00.000" out="03:59:59.960">
    <property name="length">04:00:00.000</property>
    <property name="eof">pause</property>
    <property name="resource">#00000000</property>
    <property name="aspect_ratio">1</property>
    <property name="mlt_service">color</property>
    <property name="mlt_image_format">rgba</property>
    <property name="shotcut:caption">transparent</property>
    <property name="shotcut:detail">transparent</property>
    <property name="xml">was here</property>
    <property name="seekable">1</property>
    <property name="meta.shotcut.vui">1</property>
    <filter id="filter174" out="00:00:10.560">
      <property name="argument">広義には文字通り，
「LANをケーブルで繋ぐこと」ができればLANケーブルなので，
光ファイバー，電話線なども含みます．</property>
      <property name="geometry">371 834 1505 211 1</property>
      <property name="family">Hiragino Sans</property>
      <property name="size">144</property>
      <property name="weight">900</property>
      <property name="style">normal</property>
      <property name="fgcolour">#ffffffff</property>
      <property name="bgcolour">#00000000</property>
      <property name="olcolour">#aa000000</property>
      <property name="pad">0</property>
      <property name="halign">left</property>
      <property name="valign">middle</property>
      <property name="outline">3</property>
      <property name="opacity">1</property>
      <property name="mlt_service">dynamictext</property>
      <property name="shotcut:filter">dynamicText</property>
      <property name="shotcut:usePointSize">1</property>
      <property name="shotcut:pointSize">144</property>
    </filter>
  </producer>
  <producer id="producer152" in="00:00:00.000" out="03:59:59.960">
    <property name="length">04:00:00.000</property>
    <property name="eof">pause</property>
    <property name="resource">#00000000</property>
    <property name="aspect_ratio">1</property>
    <property name="mlt_service">color</property>
    <property name="mlt_image_format">rgba</property>
    <property name="shotcut:caption">transparent</property>
    <property name="shotcut:detail">transparent</property>
    <property name="xml">was here</property>
    <property name="seekable">1</property>
    <property name="meta.shotcut.vui">1</property>
    <filter id="filter175" out="00:00:11.280">
      <property name="argument">状況によっては，広義のLANケーブルを指している可能性があるので，
一応頭に入れておくと良いでしょう．いつか役に立つかもしれません．
</property>
      <property name="geometry">371 834 1505 211 1</property>
      <property name="family">Hiragino Sans</property>
      <property name="size">144</property>
      <property name="weight">900</property>
      <property name="style">normal</property>
      <property name="fgcolour">#ffffffff</property>
      <property name="bgcolour">#00000000</property>
      <property name="olcolour">#aa000000</property>
      <property name="pad">0</property>
      <property name="halign">left</property>
      <property name="valign">middle</property>
      <property name="outline">3</property>
      <property name="opacity">1</property>
      <property name="mlt_service">dynamictext</property>
      <property name="shotcut:filter">dynamicText</property>
      <property name="shotcut:usePointSize">1</property>
      <property name="shotcut:pointSize">144</property>
    </filter>
  </producer>
  <producer id="producer55" in="00:00:00.000" out="03:59:59.960">
    <property name="length">04:00:00.000</property>
    <property name="eof">pause</property>
    <property name="resource">#00000000</property>
    <property name="aspect_ratio">1</property>
    <property name="mlt_service">color</property>
    <property name="mlt_image_format">rgba</property>
    <property name="shotcut:caption">transparent</property>
    <property name="shotcut:detail">transparent</property>
    <property name="xml">was here</property>
    <property name="seekable">1</property>
    <property name="meta.shotcut.vui">1</property>
    <filter id="filter176" out="00:00:14.880">
      <property name="argument">(もしかしてうp主は不器用なのか．．？)
(時間かかりすぎじゃね．．．？)
</property>
      <property name="geometry">371 834 1505 211 1</property>
      <property name="family">Hiragino Sans</property>
      <property name="size">144</property>
      <property name="weight">900</property>
      <property name="style">normal</property>
      <property name="fgcolour">#ffffffff</property>
      <property name="bgcolour">#00000000</property>
      <property name="olcolour">#aa000000</property>
      <property name="pad">0</property>
      <property name="halign">left</property>
      <property name="valign">middle</property>
      <property name="outline">3</property>
      <property name="opacity">1</property>
      <property name="mlt_service">dynamictext</property>
      <property name="shotcut:filter">dynamicText</property>
      <property name="shotcut:usePointSize">1</property>
      <property name="shotcut:pointSize">144</property>
    </filter>
  </producer>
  <producer id="producer56" in="00:00:00.000" out="03:59:59.960">
    <property name="length">04:00:00.000</property>
    <property name="eof">pause</property>
    <property name="resource">#00000000</property>
    <property name="aspect_ratio">1</property>
    <property name="mlt_service">color</property>
    <property name="mlt_image_format">rgba</property>
    <property name="shotcut:caption">transparent</property>
    <property name="shotcut:detail">transparent</property>
    <property name="xml">was here</property>
    <property name="seekable">1</property>
    <property name="meta.shotcut.vui">1</property>
    <filter id="filter177" in="00:00:00.960" out="00:00:05.000">
      <property name="argument">そうこうしているうちにモジュールへの差し込みができたようですね．

</property>
      <property name="geometry">371 834 1505 211 1</property>
      <property name="family">Hiragino Sans</property>
      <property name="size">144</property>
      <property name="weight">900</property>
      <property name="style">normal</property>
      <property name="fgcolour">#ffffffff</property>
      <property name="bgcolour">#00000000</property>
      <property name="olcolour">#aa000000</property>
      <property name="pad">0</property>
      <property name="halign">left</property>
      <property name="valign">middle</property>
      <property name="outline">3</property>
      <property name="opacity">1</property>
      <property name="mlt_service">dynamictext</property>
      <property name="shotcut:filter">dynamicText</property>
      <property name="shotcut:usePointSize">1</property>
      <property name="shotcut:pointSize">144</property>
    </filter>
  </producer>
  <producer id="producer154" in="00:00:00.000" out="03:59:59.960">
    <property name="length">04:00:00.000</property>
    <property name="eof">pause</property>
    <property name="resource">#00000000</property>
    <property name="aspect_ratio">1</property>
    <property name="mlt_service">color</property>
    <property name="mlt_image_format">rgba</property>
    <property name="shotcut:caption">transparent</property>
    <property name="shotcut:detail">transparent</property>
    <property name="xml">was here</property>
    <property name="seekable">1</property>
    <property name="meta.shotcut.vui">1</property>
    <filter id="filter178" out="00:00:10.600">
      <property name="argument">そして，このかしめる道具でかしめていきます．
視聴者兄貴姉貴の中で，
このかしめる道具を持っている方はおられますか？</property>
      <property name="geometry">371 834 1505 211 1</property>
      <property name="family">Hiragino Sans</property>
      <property name="size">144</property>
      <property name="weight">900</property>
      <property name="style">normal</property>
      <property name="fgcolour">#ffffffff</property>
      <property name="bgcolour">#00000000</property>
      <property name="olcolour">#aa000000</property>
      <property name="pad">0</property>
      <property name="halign">left</property>
      <property name="valign">middle</property>
      <property name="outline">3</property>
      <property name="opacity">1</property>
      <property name="mlt_service">dynamictext</property>
      <property name="shotcut:filter">dynamicText</property>
      <property name="shotcut:usePointSize">1</property>
      <property name="shotcut:pointSize">144</property>
    </filter>
  </producer>
  <producer id="producer155" in="00:00:00.000" out="03:59:59.960">
    <property name="length">04:00:00.000</property>
    <property name="eof">pause</property>
    <property name="resource">#00000000</property>
    <property name="aspect_ratio">1</property>
    <property name="mlt_service">color</property>
    <property name="mlt_image_format">rgba</property>
    <property name="shotcut:caption">transparent</property>
    <property name="shotcut:detail">transparent</property>
    <property name="xml">was here</property>
    <property name="seekable">1</property>
    <property name="meta.shotcut.vui">1</property>
    <filter id="filter179" out="00:00:07.840">
      <property name="argument">うp主は生憎持っていなかったので，
職場の方にこれを借りて本RTAを走っています．
</property>
      <property name="geometry">371 834 1505 211 1</property>
      <property name="family">Hiragino Sans</property>
      <property name="size">144</property>
      <property name="weight">900</property>
      <property name="style">normal</property>
      <property name="fgcolour">#ffffffff</property>
      <property name="bgcolour">#00000000</property>
      <property name="olcolour">#aa000000</property>
      <property name="pad">0</property>
      <property name="halign">left</property>
      <property name="valign">middle</property>
      <property name="outline">3</property>
      <property name="opacity">1</property>
      <property name="mlt_service">dynamictext</property>
      <property name="shotcut:filter">dynamicText</property>
      <property name="shotcut:usePointSize">1</property>
      <property name="shotcut:pointSize">144</property>
    </filter>
  </producer>
  <producer id="producer156" in="00:00:00.000" out="03:59:59.960">
    <property name="length">04:00:00.000</property>
    <property name="eof">pause</property>
    <property name="resource">#00000000</property>
    <property name="aspect_ratio">1</property>
    <property name="mlt_service">color</property>
    <property name="mlt_image_format">rgba</property>
    <property name="shotcut:caption">transparent</property>
    <property name="shotcut:detail">transparent</property>
    <property name="xml">was here</property>
    <property name="seekable">1</property>
    <property name="meta.shotcut.vui">1</property>
    <filter id="filter180" out="00:00:14.520">
      <property name="argument">また，この動画はその職場で撮影しています．普段は楽しく
プログラミングをしながら働いています．もちろん，撮影etcの許可が
降りた上で動画を撮っているので安心してください．</property>
      <property name="geometry">371 834 1505 211 1</property>
      <property name="family">Hiragino Sans</property>
      <property name="size">144</property>
      <property name="weight">900</property>
      <property name="style">normal</property>
      <property name="fgcolour">#ffffffff</property>
      <property name="bgcolour">#00000000</property>
      <property name="olcolour">#aa000000</property>
      <property name="pad">0</property>
      <property name="halign">left</property>
      <property name="valign">middle</property>
      <property name="outline">3</property>
      <property name="opacity">1</property>
      <property name="mlt_service">dynamictext</property>
      <property name="shotcut:filter">dynamicText</property>
      <property name="shotcut:usePointSize">1</property>
      <property name="shotcut:pointSize">144</property>
    </filter>
  </producer>
  <producer id="producer57" in="00:00:00.000" out="03:59:59.960">
    <property name="length">04:00:00.000</property>
    <property name="eof">pause</property>
    <property name="resource">#00000000</property>
    <property name="aspect_ratio">1</property>
    <property name="mlt_service">color</property>
    <property name="mlt_image_format">rgba</property>
    <property name="shotcut:caption">transparent</property>
    <property name="shotcut:detail">transparent</property>
    <property name="xml">was here</property>
    <property name="seekable">1</property>
    <property name="meta.shotcut.vui">1</property>
    <filter id="filter181" in="00:00:00.960" out="00:00:04.480">
      <property name="argument">(作業が遅すぎて場がもたないな．．．)
(俺っちの小ネタを挟むか．．．)
</property>
      <property name="geometry">371 834 1505 211 1</property>
      <property name="family">Hiragino Sans</property>
      <property name="size">144</property>
      <property name="weight">900</property>
      <property name="style">normal</property>
      <property name="fgcolour">#ffffffff</property>
      <property name="bgcolour">#00000000</property>
      <property name="olcolour">#aa000000</property>
      <property name="pad">0</property>
      <property name="halign">left</property>
      <property name="valign">middle</property>
      <property name="outline">3</property>
      <property name="opacity">1</property>
      <property name="mlt_service">dynamictext</property>
      <property name="shotcut:filter">dynamicText</property>
      <property name="shotcut:usePointSize">1</property>
      <property name="shotcut:pointSize">144</property>
    </filter>
  </producer>
  <producer id="producer58" in="00:00:00.000" out="03:59:59.960">
    <property name="length">04:00:00.000</property>
    <property name="eof">pause</property>
    <property name="resource">#00000000</property>
    <property name="aspect_ratio">1</property>
    <property name="mlt_service">color</property>
    <property name="mlt_image_format">rgba</property>
    <property name="shotcut:caption">transparent</property>
    <property name="shotcut:detail">transparent</property>
    <property name="xml">was here</property>
    <property name="seekable">1</property>
    <property name="meta.shotcut.vui">1</property>
    <filter id="filter182" in="00:00:00.160" out="00:00:06.200">
      <property name="argument">(左下で喋ってる俺っちの紹介！)
(弊サークル(アプリ開発団体jack)のマスコットキャラクターだぜ！)
(名前は「じゃっくん」だぜ！！！)</property>
      <property name="geometry">371 834 1505 211 1</property>
      <property name="family">Hiragino Sans</property>
      <property name="size">144</property>
      <property name="weight">900</property>
      <property name="style">normal</property>
      <property name="fgcolour">#ffffffff</property>
      <property name="bgcolour">#00000000</property>
      <property name="olcolour">#aa000000</property>
      <property name="pad">0</property>
      <property name="halign">left</property>
      <property name="valign">middle</property>
      <property name="outline">3</property>
      <property name="opacity">1</property>
      <property name="mlt_service">dynamictext</property>
      <property name="shotcut:filter">dynamicText</property>
      <property name="shotcut:usePointSize">1</property>
      <property name="shotcut:pointSize">144</property>
    </filter>
  </producer>
  <producer id="producer59" in="00:00:00.000" out="03:59:59.960">
    <property name="length">04:00:00.000</property>
    <property name="eof">pause</property>
    <property name="resource">#00000000</property>
    <property name="aspect_ratio">1</property>
    <property name="mlt_service">color</property>
    <property name="mlt_image_format">rgba</property>
    <property name="shotcut:caption">transparent</property>
    <property name="shotcut:detail">transparent</property>
    <property name="xml">was here</property>
    <property name="seekable">1</property>
    <property name="meta.shotcut.vui">1</property>
    <filter id="filter183" in="00:00:00.960" out="00:00:04.120">
      <property name="argument">・・・

</property>
      <property name="geometry">371 834 1505 211 1</property>
      <property name="family">Hiragino Sans</property>
      <property name="size">144</property>
      <property name="weight">900</property>
      <property name="style">normal</property>
      <property name="fgcolour">#ffffffff</property>
      <property name="bgcolour">#00000000</property>
      <property name="olcolour">#aa000000</property>
      <property name="pad">0</property>
      <property name="halign">left</property>
      <property name="valign">middle</property>
      <property name="outline">3</property>
      <property name="opacity">1</property>
      <property name="mlt_service">dynamictext</property>
      <property name="shotcut:filter">dynamicText</property>
      <property name="shotcut:usePointSize">1</property>
      <property name="shotcut:pointSize">144</property>
    </filter>
  </producer>
  <producer id="producer157" in="00:00:00.000" out="03:59:59.960">
    <property name="length">04:00:00.000</property>
    <property name="eof">pause</property>
    <property name="resource">#00000000</property>
    <property name="aspect_ratio">1</property>
    <property name="mlt_service">color</property>
    <property name="mlt_image_format">rgba</property>
    <property name="shotcut:caption">transparent</property>
    <property name="shotcut:detail">transparent</property>
    <property name="xml">was here</property>
    <property name="seekable">1</property>
    <property name="meta.shotcut.vui">1</property>
    <filter id="filter184" in="00:00:00.960" out="00:00:07.280">
      <property name="argument">なれてない工具なので戸惑いが見られましたが，
なんとか片方をかしめ終わりました．
</property>
      <property name="geometry">371 834 1505 211 1</property>
      <property name="family">Hiragino Sans</property>
      <property name="size">144</property>
      <property name="weight">900</property>
      <property name="style">normal</property>
      <property name="fgcolour">#ffffffff</property>
      <property name="bgcolour">#00000000</property>
      <property name="olcolour">#aa000000</property>
      <property name="pad">0</property>
      <property name="halign">left</property>
      <property name="valign">middle</property>
      <property name="outline">3</property>
      <property name="opacity">1</property>
      <property name="mlt_service">dynamictext</property>
      <property name="shotcut:filter">dynamicText</property>
      <property name="shotcut:usePointSize">1</property>
      <property name="shotcut:pointSize">144</property>
    </filter>
  </producer>
  <tractor id="tractor3" in="00:00:00.000" out="00:00:00.920">
    <property name="shotcut:transition">lumaMix</property>
    <track producer="producer59" in="00:00:04.080" out="00:00:04.080"/>
    <track producer="producer157" in="00:00:00.960" out="00:00:01.880"/>
    <transition id="transition6">
      <property name="a_track">0</property>
      <property name="b_track">1</property>
      <property name="factory">loader</property>
      <property name="mlt_service">luma</property>
      <property name="alpha_over">1</property>
      <property name="fix_background_alpha">1</property>
    </transition>
    <transition id="transition7">
      <property name="a_track">0</property>
      <property name="b_track">1</property>
      <property name="mlt_service">mix</property>
      <property name="start">-1</property>
      <property name="accepts_blanks">1</property>
    </transition>
  </tractor>
  <producer id="producer158" in="00:00:00.000" out="03:59:59.960">
    <property name="length">04:00:00.000</property>
    <property name="eof">pause</property>
    <property name="resource">#00000000</property>
    <property name="aspect_ratio">1</property>
    <property name="mlt_service">color</property>
    <property name="mlt_image_format">rgba</property>
    <property name="shotcut:caption">transparent</property>
    <property name="shotcut:detail">transparent</property>
    <property name="xml">was here</property>
    <property name="seekable">1</property>
    <property name="meta.shotcut.vui">1</property>
    <filter id="filter185" out="00:00:04.840">
      <property name="argument">同様の手順でもう片方もかしめていきます．

</property>
      <property name="geometry">371 834 1505 211 1</property>
      <property name="family">Hiragino Sans</property>
      <property name="size">144</property>
      <property name="weight">900</property>
      <property name="style">normal</property>
      <property name="fgcolour">#ffffffff</property>
      <property name="bgcolour">#00000000</property>
      <property name="olcolour">#aa000000</property>
      <property name="pad">0</property>
      <property name="halign">left</property>
      <property name="valign">middle</property>
      <property name="outline">3</property>
      <property name="opacity">1</property>
      <property name="mlt_service">dynamictext</property>
      <property name="shotcut:filter">dynamicText</property>
      <property name="shotcut:usePointSize">1</property>
      <property name="shotcut:pointSize">144</property>
    </filter>
  </producer>
  <producer id="producer60" in="00:00:00.000" out="03:59:59.960">
    <property name="length">04:00:00.000</property>
    <property name="eof">pause</property>
    <property name="resource">#00000000</property>
    <property name="aspect_ratio">1</property>
    <property name="mlt_service">color</property>
    <property name="mlt_image_format">rgba</property>
    <property name="shotcut:caption">transparent</property>
    <property name="shotcut:detail">transparent</property>
    <property name="xml">was here</property>
    <property name="seekable">1</property>
    <property name="meta.shotcut.vui">1</property>
    <filter id="filter186" in="00:00:00.960" out="00:00:02.600">
      <property name="argument">まずは配線．

</property>
      <property name="geometry">371 834 1505 211 1</property>
      <property name="family">Hiragino Sans</property>
      <property name="size">144</property>
      <property name="weight">900</property>
      <property name="style">normal</property>
      <property name="fgcolour">#ffffffff</property>
      <property name="bgcolour">#00000000</property>
      <property name="olcolour">#aa000000</property>
      <property name="pad">0</property>
      <property name="halign">left</property>
      <property name="valign">middle</property>
      <property name="outline">3</property>
      <property name="opacity">1</property>
      <property name="mlt_service">dynamictext</property>
      <property name="shotcut:filter">dynamicText</property>
      <property name="shotcut:usePointSize">1</property>
      <property name="shotcut:pointSize">144</property>
    </filter>
  </producer>
  <producer id="producer160" in="00:00:00.000" out="03:59:59.960">
    <property name="length">04:00:00.000</property>
    <property name="eof">pause</property>
    <property name="resource">#00000000</property>
    <property name="aspect_ratio">1</property>
    <property name="mlt_service">color</property>
    <property name="mlt_image_format">rgba</property>
    <property name="shotcut:caption">transparent</property>
    <property name="shotcut:detail">transparent</property>
    <property name="xml">was here</property>
    <property name="seekable">1</property>
    <property name="meta.shotcut.vui">1</property>
    <filter id="filter187" out="00:00:04.280">
      <property name="argument">同じことをやっているので，少し余談．

</property>
      <property name="geometry">371 834 1505 211 1</property>
      <property name="family">Hiragino Sans</property>
      <property name="size">144</property>
      <property name="weight">900</property>
      <property name="style">normal</property>
      <property name="fgcolour">#ffffffff</property>
      <property name="bgcolour">#00000000</property>
      <property name="olcolour">#aa000000</property>
      <property name="pad">0</property>
      <property name="halign">left</property>
      <property name="valign">middle</property>
      <property name="outline">3</property>
      <property name="opacity">1</property>
      <property name="mlt_service">dynamictext</property>
      <property name="shotcut:filter">dynamicText</property>
      <property name="shotcut:usePointSize">1</property>
      <property name="shotcut:pointSize">144</property>
    </filter>
  </producer>
  <producer id="producer161" in="00:00:00.000" out="03:59:59.960">
    <property name="length">04:00:00.000</property>
    <property name="eof">pause</property>
    <property name="resource">#00000000</property>
    <property name="aspect_ratio">1</property>
    <property name="mlt_service">color</property>
    <property name="mlt_image_format">rgba</property>
    <property name="shotcut:caption">transparent</property>
    <property name="shotcut:detail">transparent</property>
    <property name="xml">was here</property>
    <property name="seekable">1</property>
    <property name="meta.shotcut.vui">1</property>
    <filter id="filter188" out="00:00:06.760">
      <property name="argument">本編入る前に解説した
「ストレートケーブル」と「クロスケーブル」
についての補足です．</property>
      <property name="geometry">371 834 1505 211 1</property>
      <property name="family">Hiragino Sans</property>
      <property name="size">144</property>
      <property name="weight">900</property>
      <property name="style">normal</property>
      <property name="fgcolour">#ffffffff</property>
      <property name="bgcolour">#00000000</property>
      <property name="olcolour">#aa000000</property>
      <property name="pad">0</property>
      <property name="halign">left</property>
      <property name="valign">middle</property>
      <property name="outline">3</property>
      <property name="opacity">1</property>
      <property name="mlt_service">dynamictext</property>
      <property name="shotcut:filter">dynamicText</property>
      <property name="shotcut:usePointSize">1</property>
      <property name="shotcut:pointSize">144</property>
    </filter>
  </producer>
  <producer id="producer162" in="00:00:00.000" out="03:59:59.960">
    <property name="length">04:00:00.000</property>
    <property name="eof">pause</property>
    <property name="resource">#00000000</property>
    <property name="aspect_ratio">1</property>
    <property name="mlt_service">color</property>
    <property name="mlt_image_format">rgba</property>
    <property name="shotcut:caption">transparent</property>
    <property name="shotcut:detail">transparent</property>
    <property name="xml">was here</property>
    <property name="seekable">1</property>
    <property name="meta.shotcut.vui">1</property>
    <filter id="filter189" out="00:00:11.560">
      <property name="argument">LANケーブルがストレートケーブルとクロスケーブル
の二種類存在しているのは，
機器のポートにはMDIとMDI-Xという二種類あることに起因しています．</property>
      <property name="geometry">371 834 1505 211 1</property>
      <property name="family">Hiragino Sans</property>
      <property name="size">144</property>
      <property name="weight">900</property>
      <property name="style">normal</property>
      <property name="fgcolour">#ffffffff</property>
      <property name="bgcolour">#00000000</property>
      <property name="olcolour">#aa000000</property>
      <property name="pad">0</property>
      <property name="halign">left</property>
      <property name="valign">middle</property>
      <property name="outline">3</property>
      <property name="opacity">1</property>
      <property name="mlt_service">dynamictext</property>
      <property name="shotcut:filter">dynamicText</property>
      <property name="shotcut:usePointSize">1</property>
      <property name="shotcut:pointSize">144</property>
    </filter>
  </producer>
  <producer id="producer163" in="00:00:00.000" out="03:59:59.960">
    <property name="length">04:00:00.000</property>
    <property name="eof">pause</property>
    <property name="resource">#00000000</property>
    <property name="aspect_ratio">1</property>
    <property name="mlt_service">color</property>
    <property name="mlt_image_format">rgba</property>
    <property name="shotcut:caption">transparent</property>
    <property name="shotcut:detail">transparent</property>
    <property name="xml">was here</property>
    <property name="seekable">1</property>
    <property name="meta.shotcut.vui">1</property>
    <filter id="filter190" out="00:00:09.560">
      <property name="argument">これらMDIとMDI-Xでは，LANケーブルの8本の線のうち，
送受信に用いている線が異なります．
</property>
      <property name="geometry">371 834 1505 211 1</property>
      <property name="family">Hiragino Sans</property>
      <property name="size">144</property>
      <property name="weight">900</property>
      <property name="style">normal</property>
      <property name="fgcolour">#ffffffff</property>
      <property name="bgcolour">#00000000</property>
      <property name="olcolour">#aa000000</property>
      <property name="pad">0</property>
      <property name="halign">left</property>
      <property name="valign">middle</property>
      <property name="outline">3</property>
      <property name="opacity">1</property>
      <property name="mlt_service">dynamictext</property>
      <property name="shotcut:filter">dynamicText</property>
      <property name="shotcut:usePointSize">1</property>
      <property name="shotcut:pointSize">144</property>
    </filter>
  </producer>
  <producer id="producer164" in="00:00:00.000" out="03:59:59.960">
    <property name="length">04:00:00.000</property>
    <property name="eof">pause</property>
    <property name="resource">#00000000</property>
    <property name="aspect_ratio">1</property>
    <property name="mlt_service">color</property>
    <property name="mlt_image_format">rgba</property>
    <property name="shotcut:caption">transparent</property>
    <property name="shotcut:detail">transparent</property>
    <property name="xml">was here</property>
    <property name="seekable">1</property>
    <property name="meta.shotcut.vui">1</property>
    <filter id="filter191" out="00:00:16.800">
      <property name="argument">そのため図のように，
同じMDIとMDI，MDI-XとMDI-X同士の接続にはこのクロスケーブルを用いて，
MDIとMDI-X同士の接続にはストレートケーブルを用いる必要があります</property>
      <property name="geometry">371 834 1505 211 1</property>
      <property name="family">Hiragino Sans</property>
      <property name="size">144</property>
      <property name="weight">900</property>
      <property name="style">normal</property>
      <property name="fgcolour">#ffffffff</property>
      <property name="bgcolour">#00000000</property>
      <property name="olcolour">#aa000000</property>
      <property name="pad">0</property>
      <property name="halign">left</property>
      <property name="valign">middle</property>
      <property name="outline">3</property>
      <property name="opacity">1</property>
      <property name="mlt_service">dynamictext</property>
      <property name="shotcut:filter">dynamicText</property>
      <property name="shotcut:usePointSize">1</property>
      <property name="shotcut:pointSize">144</property>
    </filter>
  </producer>
  <producer id="producer165" in="00:00:00.000" out="03:59:59.960">
    <property name="length">04:00:00.000</property>
    <property name="eof">pause</property>
    <property name="resource">#00000000</property>
    <property name="aspect_ratio">1</property>
    <property name="mlt_service">color</property>
    <property name="mlt_image_format">rgba</property>
    <property name="shotcut:caption">transparent</property>
    <property name="shotcut:detail">transparent</property>
    <property name="xml">was here</property>
    <property name="seekable">1</property>
    <property name="meta.shotcut.vui">1</property>
    <filter id="filter192" out="00:00:05.920">
      <property name="argument">よって，これらのケーブルは適切に使い分ける必要があります．

</property>
      <property name="geometry">371 834 1505 211 1</property>
      <property name="family">Hiragino Sans</property>
      <property name="size">144</property>
      <property name="weight">900</property>
      <property name="style">normal</property>
      <property name="fgcolour">#ffffffff</property>
      <property name="bgcolour">#00000000</property>
      <property name="olcolour">#aa000000</property>
      <property name="pad">0</property>
      <property name="halign">left</property>
      <property name="valign">middle</property>
      <property name="outline">3</property>
      <property name="opacity">1</property>
      <property name="mlt_service">dynamictext</property>
      <property name="shotcut:filter">dynamicText</property>
      <property name="shotcut:usePointSize">1</property>
      <property name="shotcut:pointSize">144</property>
    </filter>
  </producer>
  <producer id="producer166" in="00:00:00.000" out="03:59:59.960">
    <property name="length">04:00:00.000</property>
    <property name="eof">pause</property>
    <property name="resource">#00000000</property>
    <property name="aspect_ratio">1</property>
    <property name="mlt_service">color</property>
    <property name="mlt_image_format">rgba</property>
    <property name="shotcut:caption">transparent</property>
    <property name="shotcut:detail">transparent</property>
    <property name="xml">was here</property>
    <property name="seekable">1</property>
    <property name="meta.shotcut.vui">1</property>
    <filter id="filter193" out="00:00:19.040">
      <property name="argument">ですが，コレは太古のお話です．現在では，ほとんどの機器のポートにて
Auto MDI/MDI-Xという機能があり，その機能は，送受信方法を自動で
検知し，MDI/MDI-Xの差異を自動で吸収するものです．</property>
      <property name="geometry">371 834 1505 211 1</property>
      <property name="family">Hiragino Sans</property>
      <property name="size">144</property>
      <property name="weight">900</property>
      <property name="style">normal</property>
      <property name="fgcolour">#ffffffff</property>
      <property name="bgcolour">#00000000</property>
      <property name="olcolour">#aa000000</property>
      <property name="pad">0</property>
      <property name="halign">left</property>
      <property name="valign">middle</property>
      <property name="outline">3</property>
      <property name="opacity">1</property>
      <property name="mlt_service">dynamictext</property>
      <property name="shotcut:filter">dynamicText</property>
      <property name="shotcut:usePointSize">1</property>
      <property name="shotcut:pointSize">144</property>
    </filter>
  </producer>
  <producer id="producer167" in="00:00:00.000" out="03:59:59.960">
    <property name="length">04:00:00.000</property>
    <property name="eof">pause</property>
    <property name="resource">#00000000</property>
    <property name="aspect_ratio">1</property>
    <property name="mlt_service">color</property>
    <property name="mlt_image_format">rgba</property>
    <property name="shotcut:caption">transparent</property>
    <property name="shotcut:detail">transparent</property>
    <property name="xml">was here</property>
    <property name="seekable">1</property>
    <property name="meta.shotcut.vui">1</property>
    <filter id="filter194" out="00:00:12.680">
      <property name="argument">そのため，ストレートケーブルとクロスケーブルを
使い分ける必要がなくなりました．
つまり，MDIとMDI-Xを気にせずにLANケーブルを使うことができます．</property>
      <property name="geometry">371 834 1505 211 1</property>
      <property name="family">Hiragino Sans</property>
      <property name="size">144</property>
      <property name="weight">900</property>
      <property name="style">normal</property>
      <property name="fgcolour">#ffffffff</property>
      <property name="bgcolour">#00000000</property>
      <property name="olcolour">#aa000000</property>
      <property name="pad">0</property>
      <property name="halign">left</property>
      <property name="valign">middle</property>
      <property name="outline">3</property>
      <property name="opacity">1</property>
      <property name="mlt_service">dynamictext</property>
      <property name="shotcut:filter">dynamicText</property>
      <property name="shotcut:usePointSize">1</property>
      <property name="shotcut:pointSize">144</property>
    </filter>
  </producer>
  <producer id="producer168" in="00:00:00.000" out="03:59:59.960">
    <property name="length">04:00:00.000</property>
    <property name="eof">pause</property>
    <property name="resource">#00000000</property>
    <property name="aspect_ratio">1</property>
    <property name="mlt_service">color</property>
    <property name="mlt_image_format">rgba</property>
    <property name="shotcut:caption">transparent</property>
    <property name="shotcut:detail">transparent</property>
    <property name="xml">was here</property>
    <property name="seekable">1</property>
    <property name="meta.shotcut.vui">1</property>
    <filter id="filter195" out="00:00:10.480">
      <property name="argument">Auto MDI/MDI-Xのおかげか，現在流通しているケーブルは
基本的にストレートケーブルのみになっております
</property>
      <property name="geometry">371 834 1505 211 1</property>
      <property name="family">Hiragino Sans</property>
      <property name="size">144</property>
      <property name="weight">900</property>
      <property name="style">normal</property>
      <property name="fgcolour">#ffffffff</property>
      <property name="bgcolour">#00000000</property>
      <property name="olcolour">#aa000000</property>
      <property name="pad">0</property>
      <property name="halign">left</property>
      <property name="valign">middle</property>
      <property name="outline">3</property>
      <property name="opacity">1</property>
      <property name="mlt_service">dynamictext</property>
      <property name="shotcut:filter">dynamicText</property>
      <property name="shotcut:usePointSize">1</property>
      <property name="shotcut:pointSize">144</property>
    </filter>
  </producer>
  <producer id="producer169" in="00:00:00.000" out="03:59:59.960">
    <property name="length">04:00:00.000</property>
    <property name="eof">pause</property>
    <property name="resource">#00000000</property>
    <property name="aspect_ratio">1</property>
    <property name="mlt_service">color</property>
    <property name="mlt_image_format">rgba</property>
    <property name="shotcut:caption">transparent</property>
    <property name="shotcut:detail">transparent</property>
    <property name="xml">was here</property>
    <property name="seekable">1</property>
    <property name="meta.shotcut.vui">1</property>
    <filter id="filter196" out="00:00:14.840">
      <property name="argument">（何故クロスケーブルではなく，ストレートケーブルが一般的に流通する
ようになったかの経緯は知りません．まあ，ストレートケーブルは両端が
同じ配線だから作りやすいっていう理由もあるやろうな）</property>
      <property name="geometry">371 834 1505 211 1</property>
      <property name="family">Hiragino Sans</property>
      <property name="size">144</property>
      <property name="weight">900</property>
      <property name="style">normal</property>
      <property name="fgcolour">#ffffffff</property>
      <property name="bgcolour">#00000000</property>
      <property name="olcolour">#aa000000</property>
      <property name="pad">0</property>
      <property name="halign">left</property>
      <property name="valign">middle</property>
      <property name="outline">3</property>
      <property name="opacity">1</property>
      <property name="mlt_service">dynamictext</property>
      <property name="shotcut:filter">dynamicText</property>
      <property name="shotcut:usePointSize">1</property>
      <property name="shotcut:pointSize">144</property>
    </filter>
  </producer>
  <producer id="producer170" in="00:00:00.000" out="03:59:59.960">
    <property name="length">04:00:00.000</property>
    <property name="eof">pause</property>
    <property name="resource">#00000000</property>
    <property name="aspect_ratio">1</property>
    <property name="mlt_service">color</property>
    <property name="mlt_image_format">rgba</property>
    <property name="shotcut:caption">transparent</property>
    <property name="shotcut:detail">transparent</property>
    <property name="xml">was here</property>
    <property name="seekable">1</property>
    <property name="meta.shotcut.vui">1</property>
    <filter id="filter197" out="00:00:14.320">
      <property name="argument">当然，クロスケーブルでも問題なく通信できます．
今RTAで作成している配線を入れ替えることで，
クロスケーブルを作成しても，LANケーブルとして問題無く機能します</property>
      <property name="geometry">371 834 1505 211 1</property>
      <property name="family">Hiragino Sans</property>
      <property name="size">144</property>
      <property name="weight">900</property>
      <property name="style">normal</property>
      <property name="fgcolour">#ffffffff</property>
      <property name="bgcolour">#00000000</property>
      <property name="olcolour">#aa000000</property>
      <property name="pad">0</property>
      <property name="halign">left</property>
      <property name="valign">middle</property>
      <property name="outline">3</property>
      <property name="opacity">1</property>
      <property name="mlt_service">dynamictext</property>
      <property name="shotcut:filter">dynamicText</property>
      <property name="shotcut:usePointSize">1</property>
      <property name="shotcut:pointSize">144</property>
    </filter>
  </producer>
  <producer id="producer171" in="00:00:00.000" out="03:59:59.960">
    <property name="length">04:00:00.000</property>
    <property name="eof">pause</property>
    <property name="resource">#00000000</property>
    <property name="aspect_ratio">1</property>
    <property name="mlt_service">color</property>
    <property name="mlt_image_format">rgba</property>
    <property name="shotcut:caption">transparent</property>
    <property name="shotcut:detail">transparent</property>
    <property name="xml">was here</property>
    <property name="seekable">1</property>
    <property name="meta.shotcut.vui">1</property>
    <filter id="filter198" out="00:00:05.120">
      <property name="argument">（まあ，クロスケーブルにわざわざする必要もないですが．）．

</property>
      <property name="geometry">371 834 1505 211 1</property>
      <property name="family">Hiragino Sans</property>
      <property name="size">144</property>
      <property name="weight">900</property>
      <property name="style">normal</property>
      <property name="fgcolour">#ffffffff</property>
      <property name="bgcolour">#00000000</property>
      <property name="olcolour">#aa000000</property>
      <property name="pad">0</property>
      <property name="halign">left</property>
      <property name="valign">middle</property>
      <property name="outline">3</property>
      <property name="opacity">1</property>
      <property name="mlt_service">dynamictext</property>
      <property name="shotcut:filter">dynamicText</property>
      <property name="shotcut:usePointSize">1</property>
      <property name="shotcut:pointSize">144</property>
    </filter>
  </producer>
  <producer id="producer172" in="00:00:00.000" out="03:59:59.960">
    <property name="length">04:00:00.000</property>
    <property name="eof">pause</property>
    <property name="resource">#00000000</property>
    <property name="aspect_ratio">1</property>
    <property name="mlt_service">color</property>
    <property name="mlt_image_format">rgba</property>
    <property name="shotcut:caption">transparent</property>
    <property name="shotcut:detail">transparent</property>
    <property name="xml">was here</property>
    <property name="seekable">1</property>
    <property name="meta.shotcut.vui">1</property>
    <filter id="filter199" out="00:00:06.120">
      <property name="argument">さっきよりも手こずっていますね．みなさん応援して待っててください．

</property>
      <property name="geometry">371 834 1505 211 1</property>
      <property name="family">Hiragino Sans</property>
      <property name="size">144</property>
      <property name="weight">900</property>
      <property name="style">normal</property>
      <property name="fgcolour">#ffffffff</property>
      <property name="bgcolour">#00000000</property>
      <property name="olcolour">#aa000000</property>
      <property name="pad">0</property>
      <property name="halign">left</property>
      <property name="valign">middle</property>
      <property name="outline">3</property>
      <property name="opacity">1</property>
      <property name="mlt_service">dynamictext</property>
      <property name="shotcut:filter">dynamicText</property>
      <property name="shotcut:usePointSize">1</property>
      <property name="shotcut:pointSize">144</property>
    </filter>
  </producer>
  <producer id="producer173" in="00:00:00.000" out="03:59:59.960">
    <property name="length">04:00:00.000</property>
    <property name="eof">pause</property>
    <property name="resource">#00000000</property>
    <property name="aspect_ratio">1</property>
    <property name="mlt_service">color</property>
    <property name="mlt_image_format">rgba</property>
    <property name="shotcut:caption">transparent</property>
    <property name="shotcut:detail">transparent</property>
    <property name="xml">was here</property>
    <property name="seekable">1</property>
    <property name="meta.shotcut.vui">1</property>
    <filter id="filter200" out="00:00:08.600">
      <property name="argument">はい，みなさんの応援のおかげで配線は終わったようなので，
次にニッパーで先端を整えて行きます．
</property>
      <property name="geometry">371 834 1505 211 1</property>
      <property name="family">Hiragino Sans</property>
      <property name="size">144</property>
      <property name="weight">900</property>
      <property name="style">normal</property>
      <property name="fgcolour">#ffffffff</property>
      <property name="bgcolour">#00000000</property>
      <property name="olcolour">#aa000000</property>
      <property name="pad">0</property>
      <property name="halign">left</property>
      <property name="valign">middle</property>
      <property name="outline">3</property>
      <property name="opacity">1</property>
      <property name="mlt_service">dynamictext</property>
      <property name="shotcut:filter">dynamicText</property>
      <property name="shotcut:usePointSize">1</property>
      <property name="shotcut:pointSize">144</property>
    </filter>
  </producer>
  <producer id="producer174" in="00:00:00.000" out="03:59:59.960">
    <property name="length">04:00:00.000</property>
    <property name="eof">pause</property>
    <property name="resource">#00000000</property>
    <property name="aspect_ratio">1</property>
    <property name="mlt_service">color</property>
    <property name="mlt_image_format">rgba</property>
    <property name="shotcut:caption">transparent</property>
    <property name="shotcut:detail">transparent</property>
    <property name="xml">was here</property>
    <property name="seekable">1</property>
    <property name="meta.shotcut.vui">1</property>
    <filter id="filter201" out="00:00:10.000">
      <property name="argument">一応線の長さを整えることに関する補足をしておきます．
みなさんこれらの導線はどのくらい出す必要があると思いますか？
</property>
      <property name="geometry">371 834 1505 211 1</property>
      <property name="family">Hiragino Sans</property>
      <property name="size">144</property>
      <property name="weight">900</property>
      <property name="style">normal</property>
      <property name="fgcolour">#ffffffff</property>
      <property name="bgcolour">#00000000</property>
      <property name="olcolour">#aa000000</property>
      <property name="pad">0</property>
      <property name="halign">left</property>
      <property name="valign">middle</property>
      <property name="outline">3</property>
      <property name="opacity">1</property>
      <property name="mlt_service">dynamictext</property>
      <property name="shotcut:filter">dynamicText</property>
      <property name="shotcut:usePointSize">1</property>
      <property name="shotcut:pointSize">144</property>
    </filter>
  </producer>
  <producer id="producer175" in="00:00:00.000" out="03:59:59.960">
    <property name="length">04:00:00.000</property>
    <property name="eof">pause</property>
    <property name="resource">#00000000</property>
    <property name="aspect_ratio">1</property>
    <property name="mlt_service">color</property>
    <property name="mlt_image_format">rgba</property>
    <property name="shotcut:caption">transparent</property>
    <property name="shotcut:detail">transparent</property>
    <property name="xml">was here</property>
    <property name="seekable">1</property>
    <property name="meta.shotcut.vui">1</property>
    <filter id="filter202" out="00:00:08.160">
      <property name="argument">実はこの8本の導線全てがこのRJ-45モジュールの先端まで
達している必要はありません．
</property>
      <property name="geometry">371 834 1505 211 1</property>
      <property name="family">Hiragino Sans</property>
      <property name="size">144</property>
      <property name="weight">900</property>
      <property name="style">normal</property>
      <property name="fgcolour">#ffffffff</property>
      <property name="bgcolour">#00000000</property>
      <property name="olcolour">#aa000000</property>
      <property name="pad">0</property>
      <property name="halign">left</property>
      <property name="valign">middle</property>
      <property name="outline">3</property>
      <property name="opacity">1</property>
      <property name="mlt_service">dynamictext</property>
      <property name="shotcut:filter">dynamicText</property>
      <property name="shotcut:usePointSize">1</property>
      <property name="shotcut:pointSize">144</property>
    </filter>
  </producer>
  <producer id="producer176" in="00:00:00.000" out="03:59:59.960">
    <property name="length">04:00:00.000</property>
    <property name="eof">pause</property>
    <property name="resource">#00000000</property>
    <property name="aspect_ratio">1</property>
    <property name="mlt_service">color</property>
    <property name="mlt_image_format">rgba</property>
    <property name="shotcut:caption">transparent</property>
    <property name="shotcut:detail">transparent</property>
    <property name="xml">was here</property>
    <property name="seekable">1</property>
    <property name="meta.shotcut.vui">1</property>
    <filter id="filter203" out="00:00:12.120">
      <property name="argument">この部分まで達していることが接続を行う上での
必要条件となっています．
機器との接続はその部分を媒介して行われるので，問題はありません．</property>
      <property name="geometry">371 834 1505 211 1</property>
      <property name="family">Hiragino Sans</property>
      <property name="size">144</property>
      <property name="weight">900</property>
      <property name="style">normal</property>
      <property name="fgcolour">#ffffffff</property>
      <property name="bgcolour">#00000000</property>
      <property name="olcolour">#aa000000</property>
      <property name="pad">0</property>
      <property name="halign">left</property>
      <property name="valign">middle</property>
      <property name="outline">3</property>
      <property name="opacity">1</property>
      <property name="mlt_service">dynamictext</property>
      <property name="shotcut:filter">dynamicText</property>
      <property name="shotcut:usePointSize">1</property>
      <property name="shotcut:pointSize">144</property>
    </filter>
  </producer>
  <producer id="producer177" in="00:00:00.000" out="03:59:59.960">
    <property name="length">04:00:00.000</property>
    <property name="eof">pause</property>
    <property name="resource">#00000000</property>
    <property name="aspect_ratio">1</property>
    <property name="mlt_service">color</property>
    <property name="mlt_image_format">rgba</property>
    <property name="shotcut:caption">transparent</property>
    <property name="shotcut:detail">transparent</property>
    <property name="xml">was here</property>
    <property name="seekable">1</property>
    <property name="meta.shotcut.vui">1</property>
    <filter id="filter204" out="00:00:07.160">
      <property name="argument">その部分に達するだけではなく，
長さも一定の長さ以下にする必要があります．
</property>
      <property name="geometry">371 834 1505 211 1</property>
      <property name="family">Hiragino Sans</property>
      <property name="size">144</property>
      <property name="weight">900</property>
      <property name="style">normal</property>
      <property name="fgcolour">#ffffffff</property>
      <property name="bgcolour">#00000000</property>
      <property name="olcolour">#aa000000</property>
      <property name="pad">0</property>
      <property name="halign">left</property>
      <property name="valign">middle</property>
      <property name="outline">3</property>
      <property name="opacity">1</property>
      <property name="mlt_service">dynamictext</property>
      <property name="shotcut:filter">dynamicText</property>
      <property name="shotcut:usePointSize">1</property>
      <property name="shotcut:pointSize">144</property>
    </filter>
  </producer>
  <producer id="producer178" in="00:00:00.000" out="03:59:59.960">
    <property name="length">04:00:00.000</property>
    <property name="eof">pause</property>
    <property name="resource">#00000000</property>
    <property name="aspect_ratio">1</property>
    <property name="mlt_service">color</property>
    <property name="mlt_image_format">rgba</property>
    <property name="shotcut:caption">transparent</property>
    <property name="shotcut:detail">transparent</property>
    <property name="xml">was here</property>
    <property name="seekable">1</property>
    <property name="meta.shotcut.vui">1</property>
    <filter id="filter205" out="00:00:11.960">
      <property name="argument">なぜなら，後の工程である「かしめる」作業にて，
RJ-45モジュールのこの部分をケーブルでかしめて，
安定させる必要があるからです．</property>
      <property name="geometry">371 834 1505 211 1</property>
      <property name="family">Hiragino Sans</property>
      <property name="size">144</property>
      <property name="weight">900</property>
      <property name="style">normal</property>
      <property name="fgcolour">#ffffffff</property>
      <property name="bgcolour">#00000000</property>
      <property name="olcolour">#aa000000</property>
      <property name="pad">0</property>
      <property name="halign">left</property>
      <property name="valign">middle</property>
      <property name="outline">3</property>
      <property name="opacity">1</property>
      <property name="mlt_service">dynamictext</property>
      <property name="shotcut:filter">dynamicText</property>
      <property name="shotcut:usePointSize">1</property>
      <property name="shotcut:pointSize">144</property>
    </filter>
  </producer>
  <producer id="producer179" in="00:00:00.000" out="03:59:59.960">
    <property name="length">04:00:00.000</property>
    <property name="eof">pause</property>
    <property name="resource">#00000000</property>
    <property name="aspect_ratio">1</property>
    <property name="mlt_service">color</property>
    <property name="mlt_image_format">rgba</property>
    <property name="shotcut:caption">transparent</property>
    <property name="shotcut:detail">transparent</property>
    <property name="xml">was here</property>
    <property name="seekable">1</property>
    <property name="meta.shotcut.vui">1</property>
    <filter id="filter206" out="00:00:13.520">
      <property name="argument">これで，LANケーブルがすっぽ抜けてしまうこともありません．
つまり，導線の先端は全てここからここまでの
長さにする必要があります(結構めんどくさいですね)．</property>
      <property name="geometry">371 834 1505 211 1</property>
      <property name="family">Hiragino Sans</property>
      <property name="size">144</property>
      <property name="weight">900</property>
      <property name="style">normal</property>
      <property name="fgcolour">#ffffffff</property>
      <property name="bgcolour">#00000000</property>
      <property name="olcolour">#aa000000</property>
      <property name="pad">0</property>
      <property name="halign">left</property>
      <property name="valign">middle</property>
      <property name="outline">3</property>
      <property name="opacity">1</property>
      <property name="mlt_service">dynamictext</property>
      <property name="shotcut:filter">dynamicText</property>
      <property name="shotcut:usePointSize">1</property>
      <property name="shotcut:pointSize">144</property>
    </filter>
  </producer>
  <producer id="producer180" in="00:00:00.000" out="03:59:59.960">
    <property name="length">04:00:00.000</property>
    <property name="eof">pause</property>
    <property name="resource">#00000000</property>
    <property name="aspect_ratio">1</property>
    <property name="mlt_service">color</property>
    <property name="mlt_image_format">rgba</property>
    <property name="shotcut:caption">transparent</property>
    <property name="shotcut:detail">transparent</property>
    <property name="xml">was here</property>
    <property name="seekable">1</property>
    <property name="meta.shotcut.vui">1</property>
    <filter id="filter207" out="00:00:06.200">
      <property name="argument">話は本編(RTA)に戻りまして
あとはモジュールをうまく取り付けるだけです．
</property>
      <property name="geometry">371 834 1505 211 1</property>
      <property name="family">Hiragino Sans</property>
      <property name="size">144</property>
      <property name="weight">900</property>
      <property name="style">normal</property>
      <property name="fgcolour">#ffffffff</property>
      <property name="bgcolour">#00000000</property>
      <property name="olcolour">#aa000000</property>
      <property name="pad">0</property>
      <property name="halign">left</property>
      <property name="valign">middle</property>
      <property name="outline">3</property>
      <property name="opacity">1</property>
      <property name="mlt_service">dynamictext</property>
      <property name="shotcut:filter">dynamicText</property>
      <property name="shotcut:usePointSize">1</property>
      <property name="shotcut:pointSize">144</property>
    </filter>
  </producer>
  <producer id="producer181" in="00:00:00.000" out="03:59:59.960">
    <property name="length">04:00:00.000</property>
    <property name="eof">pause</property>
    <property name="resource">#00000000</property>
    <property name="aspect_ratio">1</property>
    <property name="mlt_service">color</property>
    <property name="mlt_image_format">rgba</property>
    <property name="shotcut:caption">transparent</property>
    <property name="shotcut:detail">transparent</property>
    <property name="xml">was here</property>
    <property name="seekable">1</property>
    <property name="meta.shotcut.vui">1</property>
    <filter id="filter208" out="00:00:09.480">
      <property name="argument">実は，配線がうまくいっていれば，
モジュールにこれらの線を入れるだけで
結構自動的に適所に入るんですよね．</property>
      <property name="geometry">371 834 1505 211 1</property>
      <property name="family">Hiragino Sans</property>
      <property name="size">144</property>
      <property name="weight">900</property>
      <property name="style">normal</property>
      <property name="fgcolour">#ffffffff</property>
      <property name="bgcolour">#00000000</property>
      <property name="olcolour">#aa000000</property>
      <property name="pad">0</property>
      <property name="halign">left</property>
      <property name="valign">middle</property>
      <property name="outline">3</property>
      <property name="opacity">1</property>
      <property name="mlt_service">dynamictext</property>
      <property name="shotcut:filter">dynamicText</property>
      <property name="shotcut:usePointSize">1</property>
      <property name="shotcut:pointSize">144</property>
    </filter>
  </producer>
  <producer id="producer182" in="00:00:00.000" out="03:59:59.960">
    <property name="length">04:00:00.000</property>
    <property name="eof">pause</property>
    <property name="resource">#00000000</property>
    <property name="aspect_ratio">1</property>
    <property name="mlt_service">color</property>
    <property name="mlt_image_format">rgba</property>
    <property name="shotcut:caption">transparent</property>
    <property name="shotcut:detail">transparent</property>
    <property name="xml">was here</property>
    <property name="seekable">1</property>
    <property name="meta.shotcut.vui">1</property>
    <filter id="filter209" out="00:00:02.600">
      <property name="argument">不思議ですよね．

</property>
      <property name="geometry">371 834 1505 211 1</property>
      <property name="family">Hiragino Sans</property>
      <property name="size">144</property>
      <property name="weight">900</property>
      <property name="style">normal</property>
      <property name="fgcolour">#ffffffff</property>
      <property name="bgcolour">#00000000</property>
      <property name="olcolour">#aa000000</property>
      <property name="pad">0</property>
      <property name="halign">left</property>
      <property name="valign">middle</property>
      <property name="outline">3</property>
      <property name="opacity">1</property>
      <property name="mlt_service">dynamictext</property>
      <property name="shotcut:filter">dynamicText</property>
      <property name="shotcut:usePointSize">1</property>
      <property name="shotcut:pointSize">144</property>
    </filter>
  </producer>
  <producer id="producer184" in="00:00:00.000" out="03:59:59.960">
    <property name="length">04:00:00.000</property>
    <property name="eof">pause</property>
    <property name="resource">#00000000</property>
    <property name="aspect_ratio">1</property>
    <property name="mlt_service">color</property>
    <property name="mlt_image_format">rgba</property>
    <property name="shotcut:caption">transparent</property>
    <property name="shotcut:detail">transparent</property>
    <property name="xml">was here</property>
    <property name="seekable">1</property>
    <property name="meta.shotcut.vui">1</property>
    <filter id="filter210" in="00:00:00.960" out="00:00:06.720">
      <property name="argument">さて，モジュールの取り付けがうまくいき，
かしめるのもうまくいきそうですね．
</property>
      <property name="geometry">371 834 1505 211 1</property>
      <property name="family">Hiragino Sans</property>
      <property name="size">144</property>
      <property name="weight">900</property>
      <property name="style">normal</property>
      <property name="fgcolour">#ffffffff</property>
      <property name="bgcolour">#00000000</property>
      <property name="olcolour">#aa000000</property>
      <property name="pad">0</property>
      <property name="halign">left</property>
      <property name="valign">middle</property>
      <property name="outline">3</property>
      <property name="opacity">1</property>
      <property name="mlt_service">dynamictext</property>
      <property name="shotcut:filter">dynamicText</property>
      <property name="shotcut:usePointSize">1</property>
      <property name="shotcut:pointSize">144</property>
    </filter>
  </producer>
  <producer id="producer183" in="00:00:00.000" out="03:59:59.960">
    <property name="length">04:00:00.000</property>
    <property name="eof">pause</property>
    <property name="resource">#00000000</property>
    <property name="aspect_ratio">1</property>
    <property name="mlt_service">color</property>
    <property name="mlt_image_format">rgba</property>
    <property name="shotcut:caption">transparent</property>
    <property name="shotcut:detail">transparent</property>
    <property name="xml">was here</property>
    <property name="seekable">1</property>
    <property name="meta.shotcut.vui">1</property>
    <filter id="filter211" out="00:00:05.280">
      <property name="argument">特に語ることが無いので，みんなで応援しましょう．

</property>
      <property name="geometry">371 834 1505 211 1</property>
      <property name="family">Hiragino Sans</property>
      <property name="size">144</property>
      <property name="weight">900</property>
      <property name="style">normal</property>
      <property name="fgcolour">#ffffffff</property>
      <property name="bgcolour">#00000000</property>
      <property name="olcolour">#aa000000</property>
      <property name="pad">0</property>
      <property name="halign">left</property>
      <property name="valign">middle</property>
      <property name="outline">3</property>
      <property name="opacity">1</property>
      <property name="mlt_service">dynamictext</property>
      <property name="shotcut:filter">dynamicText</property>
      <property name="shotcut:usePointSize">1</property>
      <property name="shotcut:pointSize">144</property>
    </filter>
  </producer>
  <producer id="producer61" in="00:00:00.000" out="03:59:59.960">
    <property name="length">04:00:00.000</property>
    <property name="eof">pause</property>
    <property name="resource">#00000000</property>
    <property name="aspect_ratio">1</property>
    <property name="mlt_service">color</property>
    <property name="mlt_image_format">rgba</property>
    <property name="shotcut:caption">transparent</property>
    <property name="shotcut:detail">transparent</property>
    <property name="xml">was here</property>
    <property name="seekable">1</property>
    <property name="meta.shotcut.vui">1</property>
    <filter id="filter212" in="00:00:00.960" out="00:00:01.960">
      <property name="argument">・</property>
      <property name="geometry">371 834 1505 211 1</property>
      <property name="family">Hiragino Sans</property>
      <property name="size">144</property>
      <property name="weight">900</property>
      <property name="style">normal</property>
      <property name="fgcolour">#ffffffff</property>
      <property name="bgcolour">#00000000</property>
      <property name="olcolour">#aa000000</property>
      <property name="pad">0</property>
      <property name="halign">left</property>
      <property name="valign">middle</property>
      <property name="outline">3</property>
      <property name="opacity">1</property>
      <property name="mlt_service">dynamictext</property>
      <property name="shotcut:filter">dynamicText</property>
      <property name="shotcut:usePointSize">1</property>
      <property name="shotcut:pointSize">144</property>
    </filter>
  </producer>
  <producer id="producer62" in="00:00:00.000" out="03:59:59.960">
    <property name="length">04:00:00.000</property>
    <property name="eof">pause</property>
    <property name="resource">#00000000</property>
    <property name="aspect_ratio">1</property>
    <property name="mlt_service">color</property>
    <property name="mlt_image_format">rgba</property>
    <property name="shotcut:caption">transparent</property>
    <property name="shotcut:detail">transparent</property>
    <property name="xml">was here</property>
    <property name="seekable">1</property>
    <property name="meta.shotcut.vui">1</property>
    <filter id="filter213" in="00:00:00.960" out="00:00:01.960">
      <property name="argument">・・</property>
      <property name="geometry">371 834 1505 211 1</property>
      <property name="family">Hiragino Sans</property>
      <property name="size">144</property>
      <property name="weight">900</property>
      <property name="style">normal</property>
      <property name="fgcolour">#ffffffff</property>
      <property name="bgcolour">#00000000</property>
      <property name="olcolour">#aa000000</property>
      <property name="pad">0</property>
      <property name="halign">left</property>
      <property name="valign">middle</property>
      <property name="outline">3</property>
      <property name="opacity">1</property>
      <property name="mlt_service">dynamictext</property>
      <property name="shotcut:filter">dynamicText</property>
      <property name="shotcut:usePointSize">1</property>
      <property name="shotcut:pointSize">144</property>
    </filter>
  </producer>
  <producer id="producer63" in="00:00:00.000" out="03:59:59.960">
    <property name="length">04:00:00.000</property>
    <property name="eof">pause</property>
    <property name="resource">#00000000</property>
    <property name="aspect_ratio">1</property>
    <property name="mlt_service">color</property>
    <property name="mlt_image_format">rgba</property>
    <property name="shotcut:caption">transparent</property>
    <property name="shotcut:detail">transparent</property>
    <property name="xml">was here</property>
    <property name="seekable">1</property>
    <property name="meta.shotcut.vui">1</property>
    <filter id="filter214" in="00:00:00.960" out="00:00:01.960">
      <property name="argument">・・・</property>
      <property name="geometry">371 834 1505 211 1</property>
      <property name="family">Hiragino Sans</property>
      <property name="size">144</property>
      <property name="weight">900</property>
      <property name="style">normal</property>
      <property name="fgcolour">#ffffffff</property>
      <property name="bgcolour">#00000000</property>
      <property name="olcolour">#aa000000</property>
      <property name="pad">0</property>
      <property name="halign">left</property>
      <property name="valign">middle</property>
      <property name="outline">3</property>
      <property name="opacity">1</property>
      <property name="mlt_service">dynamictext</property>
      <property name="shotcut:filter">dynamicText</property>
      <property name="shotcut:usePointSize">1</property>
      <property name="shotcut:pointSize">144</property>
    </filter>
  </producer>
  <producer id="producer64" in="00:00:00.000" out="03:59:59.960">
    <property name="length">04:00:00.000</property>
    <property name="eof">pause</property>
    <property name="resource">#00000000</property>
    <property name="aspect_ratio">1</property>
    <property name="mlt_service">color</property>
    <property name="mlt_image_format">rgba</property>
    <property name="shotcut:caption">transparent</property>
    <property name="shotcut:detail">transparent</property>
    <property name="xml">was here</property>
    <property name="seekable">1</property>
    <property name="meta.shotcut.vui">1</property>
    <filter id="filter215" in="00:00:00.960" out="00:00:01.960">
      <property name="argument">・・・・</property>
      <property name="geometry">371 834 1505 211 1</property>
      <property name="family">Hiragino Sans</property>
      <property name="size">144</property>
      <property name="weight">900</property>
      <property name="style">normal</property>
      <property name="fgcolour">#ffffffff</property>
      <property name="bgcolour">#00000000</property>
      <property name="olcolour">#aa000000</property>
      <property name="pad">0</property>
      <property name="halign">left</property>
      <property name="valign">middle</property>
      <property name="outline">3</property>
      <property name="opacity">1</property>
      <property name="mlt_service">dynamictext</property>
      <property name="shotcut:filter">dynamicText</property>
      <property name="shotcut:usePointSize">1</property>
      <property name="shotcut:pointSize">144</property>
    </filter>
  </producer>
  <producer id="producer65" in="00:00:00.000" out="03:59:59.960">
    <property name="length">04:00:00.000</property>
    <property name="eof">pause</property>
    <property name="resource">#00000000</property>
    <property name="aspect_ratio">1</property>
    <property name="mlt_service">color</property>
    <property name="mlt_image_format">rgba</property>
    <property name="shotcut:caption">transparent</property>
    <property name="shotcut:detail">transparent</property>
    <property name="xml">was here</property>
    <property name="seekable">1</property>
    <property name="meta.shotcut.vui">1</property>
    <filter id="filter216" in="00:00:00.960" out="00:00:01.960">
      <property name="argument">・・・・・</property>
      <property name="geometry">371 834 1505 211 1</property>
      <property name="family">Hiragino Sans</property>
      <property name="size">144</property>
      <property name="weight">900</property>
      <property name="style">normal</property>
      <property name="fgcolour">#ffffffff</property>
      <property name="bgcolour">#00000000</property>
      <property name="olcolour">#aa000000</property>
      <property name="pad">0</property>
      <property name="halign">left</property>
      <property name="valign">middle</property>
      <property name="outline">3</property>
      <property name="opacity">1</property>
      <property name="mlt_service">dynamictext</property>
      <property name="shotcut:filter">dynamicText</property>
      <property name="shotcut:usePointSize">1</property>
      <property name="shotcut:pointSize">144</property>
    </filter>
  </producer>
  <producer id="producer185" in="00:00:00.000" out="03:59:59.960">
    <property name="length">04:00:00.000</property>
    <property name="eof">pause</property>
    <property name="resource">#00000000</property>
    <property name="aspect_ratio">1</property>
    <property name="mlt_service">color</property>
    <property name="mlt_image_format">rgba</property>
    <property name="shotcut:caption">transparent</property>
    <property name="shotcut:detail">transparent</property>
    <property name="xml">was here</property>
    <property name="seekable">1</property>
    <property name="meta.shotcut.vui">1</property>
    <filter id="filter217" out="00:00:05.000">
      <property name="argument">最後はテスターで確認できたらタイマーストップです．

</property>
      <property name="geometry">371 834 1505 211 1</property>
      <property name="family">Hiragino Sans</property>
      <property name="size">144</property>
      <property name="weight">900</property>
      <property name="style">normal</property>
      <property name="fgcolour">#ffffffff</property>
      <property name="bgcolour">#00000000</property>
      <property name="olcolour">#aa000000</property>
      <property name="pad">0</property>
      <property name="halign">left</property>
      <property name="valign">middle</property>
      <property name="outline">3</property>
      <property name="opacity">1</property>
      <property name="mlt_service">dynamictext</property>
      <property name="shotcut:filter">dynamicText</property>
      <property name="shotcut:usePointSize">1</property>
      <property name="shotcut:pointSize">144</property>
    </filter>
  </producer>
  <producer id="producer66" in="00:00:00.000" out="03:59:59.960">
    <property name="length">04:00:00.000</property>
    <property name="eof">pause</property>
    <property name="resource">#00000000</property>
    <property name="aspect_ratio">1</property>
    <property name="mlt_service">color</property>
    <property name="mlt_image_format">rgba</property>
    <property name="shotcut:caption">transparent</property>
    <property name="shotcut:detail">transparent</property>
    <property name="xml">was here</property>
    <property name="seekable">1</property>
    <property name="meta.shotcut.vui">1</property>
    <filter id="filter218" in="00:00:00.960" out="00:00:01.960">
      <property name="argument">最後くらい，</property>
      <property name="geometry">371 834 1505 211 1</property>
      <property name="family">Hiragino Sans</property>
      <property name="size">144</property>
      <property name="weight">900</property>
      <property name="style">normal</property>
      <property name="fgcolour">#ffffffff</property>
      <property name="bgcolour">#00000000</property>
      <property name="olcolour">#aa000000</property>
      <property name="pad">0</property>
      <property name="halign">left</property>
      <property name="valign">middle</property>
      <property name="outline">3</property>
      <property name="opacity">1</property>
      <property name="mlt_service">dynamictext</property>
      <property name="shotcut:filter">dynamicText</property>
      <property name="shotcut:usePointSize">1</property>
      <property name="shotcut:pointSize">144</property>
    </filter>
  </producer>
  <producer id="producer67" in="00:00:00.000" out="03:59:59.960">
    <property name="length">04:00:00.000</property>
    <property name="eof">pause</property>
    <property name="resource">#00000000</property>
    <property name="aspect_ratio">1</property>
    <property name="mlt_service">color</property>
    <property name="mlt_image_format">rgba</property>
    <property name="shotcut:caption">transparent</property>
    <property name="shotcut:detail">transparent</property>
    <property name="xml">was here</property>
    <property name="seekable">1</property>
    <property name="meta.shotcut.vui">1</property>
    <filter id="filter219" in="00:00:00.960" out="00:00:01.960">
      <property name="argument">最後くらい，手際良く，</property>
      <property name="geometry">371 834 1505 211 1</property>
      <property name="family">Hiragino Sans</property>
      <property name="size">144</property>
      <property name="weight">900</property>
      <property name="style">normal</property>
      <property name="fgcolour">#ffffffff</property>
      <property name="bgcolour">#00000000</property>
      <property name="olcolour">#aa000000</property>
      <property name="pad">0</property>
      <property name="halign">left</property>
      <property name="valign">middle</property>
      <property name="outline">3</property>
      <property name="opacity">1</property>
      <property name="mlt_service">dynamictext</property>
      <property name="shotcut:filter">dynamicText</property>
      <property name="shotcut:usePointSize">1</property>
      <property name="shotcut:pointSize">144</property>
    </filter>
  </producer>
  <producer id="producer68" in="00:00:00.000" out="03:59:59.960">
    <property name="length">04:00:00.000</property>
    <property name="eof">pause</property>
    <property name="resource">#00000000</property>
    <property name="aspect_ratio">1</property>
    <property name="mlt_service">color</property>
    <property name="mlt_image_format">rgba</property>
    <property name="shotcut:caption">transparent</property>
    <property name="shotcut:detail">transparent</property>
    <property name="xml">was here</property>
    <property name="seekable">1</property>
    <property name="meta.shotcut.vui">1</property>
    <filter id="filter220" in="00:00:00.960" out="00:00:01.960">
      <property name="argument">最後くらい，手際良く，やれ</property>
      <property name="geometry">371 834 1505 211 1</property>
      <property name="family">Hiragino Sans</property>
      <property name="size">144</property>
      <property name="weight">900</property>
      <property name="style">normal</property>
      <property name="fgcolour">#ffffffff</property>
      <property name="bgcolour">#00000000</property>
      <property name="olcolour">#aa000000</property>
      <property name="pad">0</property>
      <property name="halign">left</property>
      <property name="valign">middle</property>
      <property name="outline">3</property>
      <property name="opacity">1</property>
      <property name="mlt_service">dynamictext</property>
      <property name="shotcut:filter">dynamicText</property>
      <property name="shotcut:usePointSize">1</property>
      <property name="shotcut:pointSize">144</property>
    </filter>
  </producer>
  <producer id="producer69" in="00:00:00.000" out="03:59:59.960">
    <property name="length">04:00:00.000</property>
    <property name="eof">pause</property>
    <property name="resource">#00000000</property>
    <property name="aspect_ratio">1</property>
    <property name="mlt_service">color</property>
    <property name="mlt_image_format">rgba</property>
    <property name="shotcut:caption">transparent</property>
    <property name="shotcut:detail">transparent</property>
    <property name="xml">was here</property>
    <property name="seekable">1</property>
    <property name="meta.shotcut.vui">1</property>
    <filter id="filter221" in="00:00:00.960" out="00:00:01.960">
      <property name="argument">最後くらい，手際良く，やれ！！</property>
      <property name="geometry">371 834 1505 211 1</property>
      <property name="family">Hiragino Sans</property>
      <property name="size">144</property>
      <property name="weight">900</property>
      <property name="style">normal</property>
      <property name="fgcolour">#ffffffff</property>
      <property name="bgcolour">#00000000</property>
      <property name="olcolour">#aa000000</property>
      <property name="pad">0</property>
      <property name="halign">left</property>
      <property name="valign">middle</property>
      <property name="outline">3</property>
      <property name="opacity">1</property>
      <property name="mlt_service">dynamictext</property>
      <property name="shotcut:filter">dynamicText</property>
      <property name="shotcut:usePointSize">1</property>
      <property name="shotcut:pointSize">144</property>
    </filter>
  </producer>
  <producer id="producer186" in="00:00:00.000" out="03:59:59.960">
    <property name="length">04:00:00.000</property>
    <property name="eof">pause</property>
    <property name="resource">#00000000</property>
    <property name="aspect_ratio">1</property>
    <property name="mlt_service">color</property>
    <property name="mlt_image_format">rgba</property>
    <property name="shotcut:caption">transparent</property>
    <property name="shotcut:detail">transparent</property>
    <property name="xml">was here</property>
    <property name="seekable">1</property>
    <property name="meta.shotcut.vui">1</property>
    <filter id="filter226" out="00:00:03.640">
      <property name="argument">はい．ここでタイマーストップ．

</property>
      <property name="geometry">371 834 1505 211 1</property>
      <property name="family">Hiragino Sans</property>
      <property name="size">144</property>
      <property name="weight">900</property>
      <property name="style">normal</property>
      <property name="fgcolour">#ffffffff</property>
      <property name="bgcolour">#00000000</property>
      <property name="olcolour">#aa000000</property>
      <property name="pad">0</property>
      <property name="halign">left</property>
      <property name="valign">middle</property>
      <property name="outline">3</property>
      <property name="opacity">1</property>
      <property name="mlt_service">dynamictext</property>
      <property name="shotcut:filter">dynamicText</property>
      <property name="shotcut:usePointSize">1</property>
      <property name="shotcut:pointSize">144</property>
    </filter>
  </producer>
  <producer id="producer187" in="00:00:00.000" out="03:59:59.960">
    <property name="length">04:00:00.000</property>
    <property name="eof">pause</property>
    <property name="resource">#00000000</property>
    <property name="aspect_ratio">1</property>
    <property name="mlt_service">color</property>
    <property name="mlt_image_format">rgba</property>
    <property name="shotcut:caption">transparent</property>
    <property name="shotcut:detail">transparent</property>
    <property name="xml">was here</property>
    <property name="seekable">1</property>
    <property name="meta.shotcut.vui">1</property>
    <filter id="filter227" out="00:00:02.720">
      <property name="argument">乾燥した乾燥

</property>
      <property name="geometry">371 834 1505 211 1</property>
      <property name="family">Hiragino Sans</property>
      <property name="size">144</property>
      <property name="weight">900</property>
      <property name="style">normal</property>
      <property name="fgcolour">#ffffffff</property>
      <property name="bgcolour">#00000000</property>
      <property name="olcolour">#aa000000</property>
      <property name="pad">0</property>
      <property name="halign">left</property>
      <property name="valign">middle</property>
      <property name="outline">3</property>
      <property name="opacity">1</property>
      <property name="mlt_service">dynamictext</property>
      <property name="shotcut:filter">dynamicText</property>
      <property name="shotcut:usePointSize">1</property>
      <property name="shotcut:pointSize">144</property>
    </filter>
  </producer>
  <producer id="producer188" in="00:00:00.000" out="03:59:59.960">
    <property name="length">04:00:00.000</property>
    <property name="eof">pause</property>
    <property name="resource">#00000000</property>
    <property name="aspect_ratio">1</property>
    <property name="mlt_service">color</property>
    <property name="mlt_image_format">rgba</property>
    <property name="shotcut:caption">transparent</property>
    <property name="shotcut:detail">transparent</property>
    <property name="xml">was here</property>
    <property name="seekable">1</property>
    <property name="meta.shotcut.vui">1</property>
    <filter id="filter228" out="00:00:10.480">
      <property name="argument">うp主がRJ-45x2のLANケーブルを作るのは初めてですが，
完走することができ，楽しかったです(小並感)．
</property>
      <property name="geometry">371 834 1505 211 1</property>
      <property name="family">Hiragino Sans</property>
      <property name="size">144</property>
      <property name="weight">900</property>
      <property name="style">normal</property>
      <property name="fgcolour">#ffffffff</property>
      <property name="bgcolour">#00000000</property>
      <property name="olcolour">#aa000000</property>
      <property name="pad">0</property>
      <property name="halign">left</property>
      <property name="valign">middle</property>
      <property name="outline">3</property>
      <property name="opacity">1</property>
      <property name="mlt_service">dynamictext</property>
      <property name="shotcut:filter">dynamicText</property>
      <property name="shotcut:usePointSize">1</property>
      <property name="shotcut:pointSize">144</property>
    </filter>
  </producer>
  <producer id="producer189" in="00:00:00.000" out="03:59:59.960">
    <property name="length">04:00:00.000</property>
    <property name="eof">pause</property>
    <property name="resource">#00000000</property>
    <property name="aspect_ratio">1</property>
    <property name="mlt_service">color</property>
    <property name="mlt_image_format">rgba</property>
    <property name="shotcut:caption">transparent</property>
    <property name="shotcut:detail">transparent</property>
    <property name="xml">was here</property>
    <property name="seekable">1</property>
    <property name="meta.shotcut.vui">1</property>
    <filter id="filter229" out="00:00:09.040">
      <property name="argument">ちなみに，この動画を作ろうと思ったきっかけは，
うp主が最近ネットワークに興味を持ち始めたからです．
</property>
      <property name="geometry">371 834 1505 211 1</property>
      <property name="family">Hiragino Sans</property>
      <property name="size">144</property>
      <property name="weight">900</property>
      <property name="style">normal</property>
      <property name="fgcolour">#ffffffff</property>
      <property name="bgcolour">#00000000</property>
      <property name="olcolour">#aa000000</property>
      <property name="pad">0</property>
      <property name="halign">left</property>
      <property name="valign">middle</property>
      <property name="outline">3</property>
      <property name="opacity">1</property>
      <property name="mlt_service">dynamictext</property>
      <property name="shotcut:filter">dynamicText</property>
      <property name="shotcut:usePointSize">1</property>
      <property name="shotcut:pointSize">144</property>
    </filter>
  </producer>
  <producer id="producer190" in="00:00:00.000" out="03:59:59.960">
    <property name="length">04:00:00.000</property>
    <property name="eof">pause</property>
    <property name="resource">#00000000</property>
    <property name="aspect_ratio">1</property>
    <property name="mlt_service">color</property>
    <property name="mlt_image_format">rgba</property>
    <property name="shotcut:caption">transparent</property>
    <property name="shotcut:detail">transparent</property>
    <property name="xml">was here</property>
    <property name="seekable">1</property>
    <property name="meta.shotcut.vui">1</property>
    <filter id="filter230" out="00:00:09.680">
      <property name="argument">うp主の興味のある分野があっち行ったりこっち行ったりして大変です．
ちょっと前では競プロに興味を持ったり色々．．．
</property>
      <property name="geometry">371 834 1505 211 1</property>
      <property name="family">Hiragino Sans</property>
      <property name="size">144</property>
      <property name="weight">900</property>
      <property name="style">normal</property>
      <property name="fgcolour">#ffffffff</property>
      <property name="bgcolour">#00000000</property>
      <property name="olcolour">#aa000000</property>
      <property name="pad">0</property>
      <property name="halign">left</property>
      <property name="valign">middle</property>
      <property name="outline">3</property>
      <property name="opacity">1</property>
      <property name="mlt_service">dynamictext</property>
      <property name="shotcut:filter">dynamicText</property>
      <property name="shotcut:usePointSize">1</property>
      <property name="shotcut:pointSize">144</property>
    </filter>
  </producer>
  <producer id="producer191" in="00:00:00.000" out="03:59:59.960">
    <property name="length">04:00:00.000</property>
    <property name="eof">pause</property>
    <property name="resource">#00000000</property>
    <property name="aspect_ratio">1</property>
    <property name="mlt_service">color</property>
    <property name="mlt_image_format">rgba</property>
    <property name="shotcut:caption">transparent</property>
    <property name="shotcut:detail">transparent</property>
    <property name="xml">was here</property>
    <property name="seekable">1</property>
    <property name="meta.shotcut.vui">1</property>
    <filter id="filter231" out="00:00:10.320">
      <property name="argument">まあ，今はもっぱらネットワーク機器なので，
通信などの低レイヤーに興味があったら
是非うp主に話しかけてください．</property>
      <property name="geometry">371 834 1505 211 1</property>
      <property name="family">Hiragino Sans</property>
      <property name="size">144</property>
      <property name="weight">900</property>
      <property name="style">normal</property>
      <property name="fgcolour">#ffffffff</property>
      <property name="bgcolour">#00000000</property>
      <property name="olcolour">#aa000000</property>
      <property name="pad">0</property>
      <property name="halign">left</property>
      <property name="valign">middle</property>
      <property name="outline">3</property>
      <property name="opacity">1</property>
      <property name="mlt_service">dynamictext</property>
      <property name="shotcut:filter">dynamicText</property>
      <property name="shotcut:usePointSize">1</property>
      <property name="shotcut:pointSize">144</property>
    </filter>
  </producer>
  <producer id="producer192" in="00:00:00.000" out="03:59:59.960">
    <property name="length">04:00:00.000</property>
    <property name="eof">pause</property>
    <property name="resource">#00000000</property>
    <property name="aspect_ratio">1</property>
    <property name="mlt_service">color</property>
    <property name="mlt_image_format">rgba</property>
    <property name="shotcut:caption">transparent</property>
    <property name="shotcut:detail">transparent</property>
    <property name="xml">was here</property>
    <property name="seekable">1</property>
    <property name="meta.shotcut.vui">1</property>
    <filter id="filter232" out="00:00:12.280">
      <property name="argument">一応この動画で述べた重要なこと(うp主的に)のまとめに入ります．
動画で出てきた順番通りの説明ではありませんが，あしからず．
</property>
      <property name="geometry">371 834 1505 211 1</property>
      <property name="family">Hiragino Sans</property>
      <property name="size">144</property>
      <property name="weight">900</property>
      <property name="style">normal</property>
      <property name="fgcolour">#ffffffff</property>
      <property name="bgcolour">#00000000</property>
      <property name="olcolour">#aa000000</property>
      <property name="pad">0</property>
      <property name="halign">left</property>
      <property name="valign">middle</property>
      <property name="outline">3</property>
      <property name="opacity">1</property>
      <property name="mlt_service">dynamictext</property>
      <property name="shotcut:filter">dynamicText</property>
      <property name="shotcut:usePointSize">1</property>
      <property name="shotcut:pointSize">144</property>
    </filter>
  </producer>
  <producer id="producer193" in="00:00:00.000" out="03:59:59.960">
    <property name="length">04:00:00.000</property>
    <property name="eof">pause</property>
    <property name="resource">#00000000</property>
    <property name="aspect_ratio">1</property>
    <property name="mlt_service">color</property>
    <property name="mlt_image_format">rgba</property>
    <property name="shotcut:caption">transparent</property>
    <property name="shotcut:detail">transparent</property>
    <property name="xml">was here</property>
    <property name="seekable">1</property>
    <property name="meta.shotcut.vui">1</property>
    <filter id="filter233" out="00:00:12.360">
      <property name="argument">一つ目．LANケーブルには狭義と広義のものがあり，
一般的には狭義のLANケーブルを指していることが多く，
この動画でも狭義のLANケーブルを指している．</property>
      <property name="geometry">371 834 1505 211 1</property>
      <property name="family">Hiragino Sans</property>
      <property name="size">144</property>
      <property name="weight">900</property>
      <property name="style">normal</property>
      <property name="fgcolour">#ffffffff</property>
      <property name="bgcolour">#00000000</property>
      <property name="olcolour">#aa000000</property>
      <property name="pad">0</property>
      <property name="halign">left</property>
      <property name="valign">middle</property>
      <property name="outline">3</property>
      <property name="opacity">1</property>
      <property name="mlt_service">dynamictext</property>
      <property name="shotcut:filter">dynamicText</property>
      <property name="shotcut:usePointSize">1</property>
      <property name="shotcut:pointSize">144</property>
    </filter>
  </producer>
  <producer id="producer194" in="00:00:00.000" out="03:59:59.960">
    <property name="length">04:00:00.000</property>
    <property name="eof">pause</property>
    <property name="resource">#00000000</property>
    <property name="aspect_ratio">1</property>
    <property name="mlt_service">color</property>
    <property name="mlt_image_format">rgba</property>
    <property name="shotcut:caption">transparent</property>
    <property name="shotcut:detail">transparent</property>
    <property name="xml">was here</property>
    <property name="seekable">1</property>
    <property name="meta.shotcut.vui">1</property>
    <filter id="filter234" out="00:00:08.800">
      <property name="argument">二つ目．LANケーブルにはストレートケーブルとクロスケーブルがあるが
現在は気にする機会はほぼ無い．
</property>
      <property name="geometry">371 834 1505 211 1</property>
      <property name="family">Hiragino Sans</property>
      <property name="size">144</property>
      <property name="weight">900</property>
      <property name="style">normal</property>
      <property name="fgcolour">#ffffffff</property>
      <property name="bgcolour">#00000000</property>
      <property name="olcolour">#aa000000</property>
      <property name="pad">0</property>
      <property name="halign">left</property>
      <property name="valign">middle</property>
      <property name="outline">3</property>
      <property name="opacity">1</property>
      <property name="mlt_service">dynamictext</property>
      <property name="shotcut:filter">dynamicText</property>
      <property name="shotcut:usePointSize">1</property>
      <property name="shotcut:pointSize">144</property>
    </filter>
  </producer>
  <producer id="producer195" in="00:00:00.000" out="03:59:59.960">
    <property name="length">04:00:00.000</property>
    <property name="eof">pause</property>
    <property name="resource">#00000000</property>
    <property name="aspect_ratio">1</property>
    <property name="mlt_service">color</property>
    <property name="mlt_image_format">rgba</property>
    <property name="shotcut:caption">transparent</property>
    <property name="shotcut:detail">transparent</property>
    <property name="xml">was here</property>
    <property name="seekable">1</property>
    <property name="meta.shotcut.vui">1</property>
    <filter id="filter235" out="00:00:10.000">
      <property name="argument">三つ目．LANケーブルを選ぶときはCatが重要な指標の一つになり，
UTPやSTPはこれに関わっている．
</property>
      <property name="geometry">371 834 1505 211 1</property>
      <property name="family">Hiragino Sans</property>
      <property name="size">144</property>
      <property name="weight">900</property>
      <property name="style">normal</property>
      <property name="fgcolour">#ffffffff</property>
      <property name="bgcolour">#00000000</property>
      <property name="olcolour">#aa000000</property>
      <property name="pad">0</property>
      <property name="halign">left</property>
      <property name="valign">middle</property>
      <property name="outline">3</property>
      <property name="opacity">1</property>
      <property name="mlt_service">dynamictext</property>
      <property name="shotcut:filter">dynamicText</property>
      <property name="shotcut:usePointSize">1</property>
      <property name="shotcut:pointSize">144</property>
    </filter>
  </producer>
  <producer id="producer196" in="00:00:00.000" out="03:59:59.960">
    <property name="length">04:00:00.000</property>
    <property name="eof">pause</property>
    <property name="resource">#00000000</property>
    <property name="aspect_ratio">1</property>
    <property name="mlt_service">color</property>
    <property name="mlt_image_format">rgba</property>
    <property name="shotcut:caption">transparent</property>
    <property name="shotcut:detail">transparent</property>
    <property name="xml">was here</property>
    <property name="seekable">1</property>
    <property name="meta.shotcut.vui">1</property>
    <filter id="filter236" out="00:00:12.080">
      <property name="argument">この動画をきっかけに「アプリ開発団体jack」にて
低レイヤーに興味を持つ人が一人でも増えてくれたら嬉しいです．
以上で発表を終わります．</property>
      <property name="geometry">371 834 1505 211 1</property>
      <property name="family">Hiragino Sans</property>
      <property name="size">144</property>
      <property name="weight">900</property>
      <property name="style">normal</property>
      <property name="fgcolour">#ffffffff</property>
      <property name="bgcolour">#00000000</property>
      <property name="olcolour">#aa000000</property>
      <property name="pad">0</property>
      <property name="halign">left</property>
      <property name="valign">middle</property>
      <property name="outline">3</property>
      <property name="opacity">1</property>
      <property name="mlt_service">dynamictext</property>
      <property name="shotcut:filter">dynamicText</property>
      <property name="shotcut:usePointSize">1</property>
      <property name="shotcut:pointSize">144</property>
    </filter>
  </producer>
  <producer id="producer197" in="00:00:00.000" out="03:59:59.960">
    <property name="length">04:00:00.000</property>
    <property name="eof">pause</property>
    <property name="resource">#00000000</property>
    <property name="aspect_ratio">1</property>
    <property name="mlt_service">color</property>
    <property name="mlt_image_format">rgba</property>
    <property name="shotcut:caption">transparent</property>
    <property name="shotcut:detail">transparent</property>
    <property name="xml">was here</property>
    <property name="seekable">1</property>
    <property name="meta.shotcut.vui">1</property>
    <filter id="filter237" out="00:00:07.960">
      <property name="argument">ご視聴ありがとうございました．

</property>
      <property name="geometry">371 834 1505 211 1</property>
      <property name="family">Hiragino Sans</property>
      <property name="size">144</property>
      <property name="weight">900</property>
      <property name="style">normal</property>
      <property name="fgcolour">#ffffffff</property>
      <property name="bgcolour">#00000000</property>
      <property name="olcolour">#aa000000</property>
      <property name="pad">0</property>
      <property name="halign">left</property>
      <property name="valign">middle</property>
      <property name="outline">3</property>
      <property name="opacity">1</property>
      <property name="mlt_service">dynamictext</property>
      <property name="shotcut:filter">dynamicText</property>
      <property name="shotcut:usePointSize">1</property>
      <property name="shotcut:pointSize">144</property>
    </filter>
  </producer>
  <playlist id="playlist0">
    <property name="shotcut:video">1</property>
    <property name="shotcut:name">Transcript</property>
    <property name="shotcut:lock">1</property>
    <entry producer="producer100" in="00:00:00.960" out="00:00:05.560"/>
    <entry producer="producer101" in="00:00:00.960" out="00:00:06.640"/>
    <entry producer="producer102" in="00:00:00.960" out="00:00:17.640"/>
    <entry producer="producer103" in="00:00:00.960" out="00:00:05.360"/>
    <entry producer="producer104" in="00:00:00.960" out="00:00:09.480"/>
    <entry producer="producer105" in="00:00:00.960" out="00:00:09.040"/>
    <entry producer="producer106" in="00:00:00.960" out="00:00:09.080"/>
    <entry producer="producer107" in="00:00:00.960" out="00:00:10.360"/>
    <entry producer="producer108" in="00:00:00.960" out="00:00:12.720"/>
    <blank length="00:00:00.800"/>
    <entry producer="producer50" in="00:00:00.960" out="00:00:05.760"/>
    <entry producer="producer110" in="00:00:00.960" out="00:00:15.640"/>
    <entry producer="producer111" in="00:00:00.960" out="00:00:05.320"/>
    <entry producer="producer112" in="00:00:00.960" out="00:00:09.160"/>
    <entry producer="producer113" in="00:00:00.960" out="00:00:07.400"/>
    <entry producer="producer114" in="00:00:00.960" out="00:00:07.400"/>
    <entry producer="producer115" in="00:00:00.960" out="00:00:05.760"/>
    <entry producer="producer116" in="00:00:00.960" out="00:00:15.520"/>
    <blank length="00:00:00.040"/>
    <entry producer="producer117" in="00:00:00.960" out="00:00:06.600"/>
    <entry producer="producer118" in="00:00:00.960" out="00:00:07.520"/>
    <entry producer="producer119" in="00:00:00.960" out="00:00:09.320"/>
    <blank length="00:00:00.600"/>
    <entry producer="producer120" in="00:00:00.960" out="00:00:09.240"/>
    <entry producer="producer121" in="00:00:00.960" out="00:00:08.000"/>
    <entry producer="producer122" in="00:00:00.960" out="00:00:07.600"/>
    <entry producer="producer123" in="00:00:00.960" out="00:00:11.000"/>
    <entry producer="producer124" in="00:00:00.960" out="00:00:10.120"/>
    <entry producer="producer125" in="00:00:00.960" out="00:00:11.400"/>
    <entry producer="producer126" in="00:00:00.960" out="00:00:08.600"/>
    <entry producer="producer127" in="00:00:00.960" out="00:00:09.040"/>
    <entry producer="producer128" in="00:00:00.960" out="00:00:09.680"/>
    <entry producer="producer129" in="00:00:00.960" out="00:00:15.360"/>
    <entry producer="producer51" in="00:00:00.960" out="00:00:12.240"/>
    <entry producer="producer131" in="00:00:00.960" out="00:00:14.280"/>
    <entry producer="producer52" in="00:00:00.960" out="00:00:12.560"/>
    <entry producer="producer133" in="00:00:00.960" out="00:00:04.360"/>
    <entry producer="producer134" in="00:00:01.000" out="00:00:06.200"/>
    <entry producer="producer53" in="00:00:04.920" out="00:00:09.080"/>
    <entry producer="producer135" in="00:00:01.120" out="00:00:03.240"/>
    <entry producer="producer136" in="00:00:00.960" out="00:00:10.920"/>
    <entry producer="producer137" in="00:00:00.960" out="00:00:07.760"/>
    <entry producer="producer138" in="00:00:00.960" out="00:00:14.320"/>
    <entry producer="producer139" in="00:00:00.960" out="00:00:16.880"/>
    <entry producer="producer140" in="00:00:00.960" out="00:00:09.440"/>
    <entry producer="producer141" in="00:00:00.960" out="00:00:09.760"/>
    <entry producer="producer142" in="00:00:00.960" out="00:00:08.480"/>
    <entry producer="producer54" in="00:00:00.960" out="00:00:09.160"/>
    <entry producer="producer144" in="00:00:00.960" out="00:00:16.640"/>
    <entry producer="producer145" in="00:00:00.960" out="00:00:08.640"/>
    <entry producer="producer146" in="00:00:00.960" out="00:00:08.040"/>
    <entry producer="producer147" in="00:00:00.960" out="00:00:10.760"/>
    <entry producer="producer148" in="00:00:00.960" out="00:00:11.800"/>
    <entry producer="producer149" in="00:00:00.960" out="00:00:10.360"/>
    <blank length="00:00:00.080"/>
    <entry producer="producer153" in="00:00:00.960" out="00:00:07.320"/>
    <entry producer="producer150" in="00:00:00.960" out="00:00:09.440"/>
    <entry producer="producer151" in="00:00:00.960" out="00:00:10.560"/>
    <entry producer="producer152" in="00:00:00.960" out="00:00:11.280"/>
    <entry producer="producer55" in="00:00:00.960" out="00:00:12.360"/>
    <entry producer="producer56" in="00:00:00.960" out="00:00:05.000"/>
    <blank length="00:00:01.920"/>
    <entry producer="producer154" in="00:00:00.960" out="00:00:10.600"/>
    <entry producer="producer155" in="00:00:00.960" out="00:00:07.840"/>
    <entry producer="producer156" in="00:00:00.960" out="00:00:14.520"/>
    <blank length="00:00:01.720"/>
    <entry producer="producer57" in="00:00:00.960" out="00:00:04.480"/>
    <entry producer="producer58" in="00:00:00.160" out="00:00:06.200"/>
    <entry producer="producer59" in="00:00:00.960" out="00:00:04.040"/>
    <entry producer="tractor3" in="00:00:00.000" out="00:00:00.000"/>
    <entry producer="producer157" in="00:00:01.000" out="00:00:07.280"/>
    <entry producer="producer158" in="00:00:00.960" out="00:00:04.440"/>
    <entry producer="producer60" in="00:00:00.960" out="00:00:02.600"/>
    <entry producer="producer160" in="00:00:00.960" out="00:00:04.280"/>
    <entry producer="producer161" in="00:00:00.960" out="00:00:06.760"/>
    <entry producer="producer162" in="00:00:00.960" out="00:00:11.560"/>
    <entry producer="producer163" in="00:00:00.960" out="00:00:09.560"/>
    <entry producer="producer164" in="00:00:00.960" out="00:00:16.800"/>
    <entry producer="producer165" in="00:00:00.960" out="00:00:05.920"/>
    <entry producer="producer166" in="00:00:00.960" out="00:00:19.040"/>
    <entry producer="producer167" in="00:00:00.960" out="00:00:12.680"/>
    <entry producer="producer168" in="00:00:00.960" out="00:00:10.480"/>
    <entry producer="producer169" in="00:00:00.960" out="00:00:14.840"/>
    <entry producer="producer170" in="00:00:00.960" out="00:00:14.320"/>
    <entry producer="producer171" in="00:00:00.960" out="00:00:05.120"/>
    <entry producer="producer172" in="00:00:00.960" out="00:00:06.120"/>
    <blank length="00:00:09.600"/>
    <entry producer="producer173" in="00:00:00.960" out="00:00:08.600"/>
    <entry producer="producer174" in="00:00:00.960" out="00:00:10.000"/>
    <entry producer="producer175" in="00:00:00.960" out="00:00:08.160"/>
    <entry producer="producer176" in="00:00:00.960" out="00:00:12.120"/>
    <entry producer="producer177" in="00:00:00.960" out="00:00:07.160"/>
    <entry producer="producer178" in="00:00:00.960" out="00:00:11.960"/>
    <entry producer="producer179" in="00:00:00.960" out="00:00:13.520"/>
    <entry producer="producer180" in="00:00:00.960" out="00:00:06.200"/>
    <entry producer="producer181" in="00:00:00.960" out="00:00:09.480"/>
    <entry producer="producer182" in="00:00:00.960" out="00:00:02.600"/>
    <entry producer="producer184" in="00:00:00.960" out="00:00:06.720"/>
    <entry producer="producer183" in="00:00:00.960" out="00:00:05.280"/>
    <blank length="00:00:00.600"/>
    <entry producer="producer61" in="00:00:00.960" out="00:00:01.960"/>
    <entry producer="producer62" in="00:00:00.960" out="00:00:01.960"/>
    <entry producer="producer63" in="00:00:00.960" out="00:00:01.960"/>
    <entry producer="producer64" in="00:00:00.960" out="00:00:01.960"/>
    <entry producer="producer65" in="00:00:00.960" out="00:00:01.960"/>
    <blank length="00:00:00.760"/>
    <entry producer="producer185" in="00:00:00.960" out="00:00:05.000"/>
    <blank length="00:00:00.760"/>
    <entry producer="producer66" in="00:00:00.960" out="00:00:01.960"/>
    <entry producer="producer67" in="00:00:00.960" out="00:00:01.960"/>
    <entry producer="producer68" in="00:00:00.960" out="00:00:01.960"/>
    <entry producer="producer69" in="00:00:00.960" out="00:00:01.960"/>
    <blank length="00:00:02.720"/>
    <entry producer="producer186" in="00:00:00.960" out="00:00:03.640"/>
    <blank length="00:00:00.480"/>
    <entry producer="producer187" in="00:00:00.960" out="00:00:02.720"/>
    <entry producer="producer188" in="00:00:00.960" out="00:00:10.480"/>
    <entry producer="producer189" in="00:00:00.960" out="00:00:09.040"/>
    <entry producer="producer190" in="00:00:00.960" out="00:00:09.680"/>
    <entry producer="producer191" in="00:00:00.960" out="00:00:10.320"/>
    <entry producer="producer192" in="00:00:00.960" out="00:00:12.280"/>
    <entry producer="producer193" in="00:00:00.960" out="00:00:12.360"/>
    <entry producer="producer194" in="00:00:00.960" out="00:00:08.800"/>
    <entry producer="producer195" in="00:00:00.960" out="00:00:10.000"/>
    <entry producer="producer196" in="00:00:00.960" out="00:00:12.080"/>
    <entry producer="producer197" in="00:00:00.960" out="00:00:07.960"/>
  </playlist>
  <chain id="chain196" out="00:10:50.560">
    <property name="length">00:10:50.600</property>
    <property name="eof">pause</property>
    <property name="resource">video/intro_fail.mp4</property>
    <property name="mlt_service">avformat-novalidate</property>
    <property name="meta.media.nb_streams">2</property>
    <property name="meta.media.0.stream.type">video</property>
    <property name="meta.media.0.stream.frame_rate">29.915</property>
    <property name="meta.media.0.stream.sample_aspect_ratio">0</property>
    <property name="meta.media.0.codec.width">1920</property>
    <property name="meta.media.0.codec.height">1080</property>
    <property name="meta.media.0.codec.rotate">0</property>
    <property name="meta.media.0.codec.pix_fmt">yuv420p</property>
    <property name="meta.media.0.codec.sample_aspect_ratio">1</property>
    <property name="meta.media.0.codec.colorspace">709</property>
    <property name="meta.media.0.codec.color_trc">1</property>
    <property name="meta.media.0.codec.name">h264</property>
    <property name="meta.media.0.codec.long_name">H.264 / AVC / MPEG-4 AVC / MPEG-4 part 10</property>
    <property name="meta.media.0.codec.bit_rate">1219433</property>
    <property name="meta.attr.0.stream.handler_name.markup">ISO Media file produced by Google Inc.</property>
    <property name="meta.attr.0.stream.vendor_id.markup">[0][0][0][0]</property>
    <property name="meta.media.1.stream.type">audio</property>
    <property name="meta.media.1.codec.sample_fmt">fltp</property>
    <property name="meta.media.1.codec.sample_rate">44100</property>
    <property name="meta.media.1.codec.channels">2</property>
    <property name="meta.media.1.codec.name">aac</property>
    <property name="meta.media.1.codec.long_name">AAC (Advanced Audio Coding)</property>
    <property name="meta.media.1.codec.bit_rate">127999</property>
    <property name="meta.attr.1.stream.language.markup">eng</property>
    <property name="meta.attr.1.stream.handler_name.markup">ISO Media file produced by Google Inc.</property>
    <property name="meta.attr.1.stream.vendor_id.markup">[0][0][0][0]</property>
    <property name="meta.attr.major_brand.markup">mp42</property>
    <property name="meta.attr.minor_version.markup">0</property>
    <property name="meta.attr.compatible_brands.markup">isommp42</property>
    <property name="meta.attr.creation_time.markup">2023-12-09T06:00:24.000000Z</property>
    <property name="meta.attr.location.markup">+35.0104+136.8850/</property>
    <property name="seekable">1</property>
    <property name="meta.media.sample_aspect_num">1</property>
    <property name="meta.media.sample_aspect_den">1</property>
    <property name="audio_index">1</property>
    <property name="video_index">0</property>
    <property name="creation_time">2023-12-09T06:00:24</property>
    <property name="vstream">0</property>
    <property name="meta.media.frame_rate_num">5983</property>
    <property name="meta.media.frame_rate_den">200</property>
    <property name="meta.media.colorspace">709</property>
    <property name="meta.media.color_trc">1</property>
    <property name="meta.media.has_b_frames">0</property>
    <property name="meta.media.width">1920</property>
    <property name="meta.media.height">1080</property>
    <property name="meta.media.color_range">mpeg</property>
    <property name="astream">0</property>
    <property name="shotcut:skipConvert">1</property>
    <property name="xml">was here</property>
    <property name="shotcut:hash">9f0cf3292dedd1d578fbe46a591968c8</property>
    <property name="meta.media.top_field_first">0</property>
    <property name="meta.media.progressive">1</property>
    <property name="shotcut:caption">intro_fail.mp4</property>
    <property name="meta.shotcut.vui">1</property>
    <filter id="filter245" in="00:01:53.320" out="00:04:08.960">
      <property name="background">color:#00000000</property>
      <property name="mlt_service">affine</property>
      <property name="shotcut:filter">affineSizePosition</property>
      <property name="transition.fill">1</property>
      <property name="transition.distort">0</property>
      <property name="transition.rect">0 0 1392 783 1</property>
      <property name="transition.valign">middle</property>
      <property name="transition.halign">center</property>
      <property name="shotcut:animIn">00:00:00.000</property>
      <property name="shotcut:animOut">00:00:00.000</property>
      <property name="transition.threads">0</property>
      <property name="transition.fix_rotate_x">0</property>
    </filter>
  </chain>
  <chain id="chain197" out="00:10:10.560">
    <property name="length">00:10:10.600</property>
    <property name="eof">pause</property>
    <property name="resource">video/success.mp4</property>
    <property name="mlt_service">avformat-novalidate</property>
    <property name="meta.media.nb_streams">3</property>
    <property name="meta.media.1.stream.type">audio</property>
    <property name="meta.media.1.codec.sample_fmt">fltp</property>
    <property name="meta.media.1.codec.sample_rate">48000</property>
    <property name="meta.media.1.codec.channels">2</property>
    <property name="meta.media.1.codec.name">aac</property>
    <property name="meta.media.1.codec.long_name">AAC (Advanced Audio Coding)</property>
    <property name="meta.media.1.codec.bit_rate">191995</property>
    <property name="meta.attr.1.stream.creation_time.markup">2023-12-09T06:12:13.000000Z</property>
    <property name="meta.attr.1.stream.language.markup">eng</property>
    <property name="meta.attr.1.stream.handler_name.markup">SoundHandle</property>
    <property name="meta.attr.1.stream.vendor_id.markup">[0][0][0][0]</property>
    <property name="meta.media.2.stream.type">video</property>
    <property name="meta.media.2.stream.frame_rate">29.9183</property>
    <property name="meta.media.2.stream.sample_aspect_ratio">1</property>
    <property name="meta.media.2.codec.width">1920</property>
    <property name="meta.media.2.codec.height">1080</property>
    <property name="meta.media.2.codec.rotate">0</property>
    <property name="meta.media.2.codec.pix_fmt">yuvj420p</property>
    <property name="meta.media.2.codec.sample_aspect_ratio">0</property>
    <property name="meta.media.2.codec.colorspace">709</property>
    <property name="meta.media.2.codec.color_trc">1</property>
    <property name="meta.media.2.codec.name">hevc</property>
    <property name="meta.media.2.codec.long_name">HEVC (High Efficiency Video Coding)</property>
    <property name="meta.media.2.codec.bit_rate">19575789</property>
    <property name="meta.attr.2.stream.creation_time.markup">2023-12-09T06:12:13.000000Z</property>
    <property name="meta.attr.2.stream.language.markup">eng</property>
    <property name="meta.attr.2.stream.handler_name.markup">VideoHandle</property>
    <property name="meta.attr.2.stream.vendor_id.markup">[0][0][0][0]</property>
    <property name="meta.attr.major_brand.markup">isom</property>
    <property name="meta.attr.minor_version.markup">131072</property>
    <property name="meta.attr.compatible_brands.markup">isomiso2mp41</property>
    <property name="meta.attr.creation_time.markup">2023-12-09T06:12:13.000000Z</property>
    <property name="meta.attr.location.markup">+35.0104+136.8850/</property>
    <property name="meta.attr.location-eng.markup">+35.0104+136.8850/</property>
    <property name="meta.attr.com.android.capture.fps.markup">30.000000</property>
    <property name="seekable">1</property>
    <property name="meta.media.sample_aspect_num">1</property>
    <property name="meta.media.sample_aspect_den">1</property>
    <property name="audio_index">1</property>
    <property name="video_index">2</property>
    <property name="creation_time">2023-12-09T06:12:13</property>
    <property name="vstream">0</property>
    <property name="meta.media.frame_rate_num">411030000</property>
    <property name="meta.media.frame_rate_den">13738417</property>
    <property name="meta.media.colorspace">709</property>
    <property name="meta.media.color_trc">1</property>
    <property name="meta.media.has_b_frames">0</property>
    <property name="meta.media.width">1920</property>
    <property name="meta.media.height">1080</property>
    <property name="meta.media.color_range">full</property>
    <property name="astream">0</property>
    <property name="shotcut:skipConvert">1</property>
    <property name="xml">was here</property>
    <property name="shotcut:hash">64749e65b66254bc204ea7b589f018e0</property>
    <property name="meta.media.variable_frame_rate">1</property>
    <property name="meta.media.top_field_first">0</property>
    <property name="meta.media.progressive">1</property>
    <property name="shotcut:caption">success.mp4</property>
    <property name="meta.shotcut.vui">1</property>
    <filter id="filter246" in="00:00:00.040" out="00:09:58.080">
      <property name="background">color:#00000000</property>
      <property name="mlt_service">affine</property>
      <property name="shotcut:filter">affineSizePosition</property>
      <property name="transition.fill">1</property>
      <property name="transition.distort">0</property>
      <property name="transition.rect">0 0 1392.74 783.415 1</property>
      <property name="transition.valign">middle</property>
      <property name="transition.halign">center</property>
      <property name="shotcut:animIn">00:00:00.000</property>
      <property name="shotcut:animOut">00:00:00.000</property>
      <property name="transition.threads">0</property>
      <property name="transition.fix_rotate_x">0</property>
    </filter>
  </chain>
  <playlist id="playlist3">
    <property name="shotcut:video">1</property>
    <property name="shotcut:name">Main</property>
    <property name="shotcut:lock">1</property>
    <blank length="00:02:44.400"/>
    <entry producer="chain196" in="00:01:53.320" out="00:04:08.960"/>
    <blank length="00:00:00.080"/>
    <entry producer="chain197" in="00:00:00.040" out="00:09:58.080"/>
  </playlist>
  <producer id="producer9" in="00:00:00.000" out="03:59:59.960">
    <property name="length">04:00:00.000</property>
    <property name="eof">pause</property>
    <property name="resource">images/irasutoya-lan.png</property>
    <property name="ttl">1</property>
    <property name="aspect_ratio">1</property>
    <property name="meta.media.progressive">1</property>
    <property name="seekable">1</property>
    <property name="format">2</property>
    <property name="meta.media.width">400</property>
    <property name="meta.media.height">400</property>
    <property name="mlt_service">qimage</property>
    <property name="creation_time">2023-12-17T23:52:51</property>
    <property name="shotcut:skipConvert">0</property>
    <property name="shotcut:caption">irasutoya-lan.png</property>
    <property name="shotcut:hash">3dd2c5ca6b6c0eb1f5784efca226632e</property>
    <property name="ignore_points">0</property>
    <property name="xml">was here</property>
    <property name="meta.shotcut.vui">1</property>
    <filter id="filter11" out="00:00:04.600">
      <property name="background">color:#00000000</property>
      <property name="mlt_service">affine</property>
      <property name="shotcut:filter">affineSizePosition</property>
      <property name="transition.fill">1</property>
      <property name="transition.distort">0</property>
      <property name="transition.rect">645.931 9.93103 801.931 801.931 1</property>
      <property name="transition.valign">middle</property>
      <property name="transition.halign">center</property>
      <property name="shotcut:animIn">00:00:00.000</property>
      <property name="shotcut:animOut">00:00:00.000</property>
      <property name="transition.threads">0</property>
    </filter>
    <filter id="filter12" out="00:00:04.600">
      <property name="argument">LANケーブル→</property>
      <property name="geometry">112 186 790 300 1</property>
      <property name="family">Sans</property>
      <property name="size">1080</property>
      <property name="weight">400</property>
      <property name="style">normal</property>
      <property name="fgcolour">#ffffffff</property>
      <property name="bgcolour">#00000000</property>
      <property name="olcolour">#aa000000</property>
      <property name="pad">0</property>
      <property name="halign">center</property>
      <property name="valign">middle</property>
      <property name="outline">3</property>
      <property name="opacity">1.0</property>
      <property name="mlt_service">dynamictext</property>
      <property name="shotcut:filter">dynamicText</property>
      <property name="shotcut:usePointSize">0</property>
      <property name="shotcut:animIn">00:00:00.000</property>
      <property name="shotcut:animOut">00:00:00.000</property>
    </filter>
  </producer>
  <producer id="producer10" in="00:00:00.000" out="03:59:59.960">
    <property name="length">04:00:00.000</property>
    <property name="eof">pause</property>
    <property name="resource">images/hato.png</property>
    <property name="ttl">1</property>
    <property name="aspect_ratio">1</property>
    <property name="meta.media.progressive">1</property>
    <property name="seekable">1</property>
    <property name="format">2</property>
    <property name="meta.media.width">586</property>
    <property name="meta.media.height">668</property>
    <property name="mlt_service">qimage</property>
    <property name="creation_time">2023-12-17T23:56:06</property>
    <property name="shotcut:skipConvert">0</property>
    <property name="shotcut:caption">hato.png</property>
    <property name="shotcut:hash">f513bdc76e19d124877708cccf68b1e7</property>
    <property name="ignore_points">0</property>
    <property name="xml">was here</property>
    <property name="meta.shotcut.vui">1</property>
    <filter id="filter13" out="00:00:22.400">
      <property name="background">color:#00000000</property>
      <property name="mlt_service">affine</property>
      <property name="shotcut:filter">affineSizePosition</property>
      <property name="transition.fill">1</property>
      <property name="transition.distort">0</property>
      <property name="transition.rect">740.156 4.96552 696.956 794.483 1</property>
      <property name="transition.valign">middle</property>
      <property name="transition.halign">center</property>
      <property name="shotcut:animIn">00:00:00.000</property>
      <property name="shotcut:animOut">00:00:00.000</property>
      <property name="transition.threads">0</property>
      <property name="transition.fix_rotate_x">0</property>
    </filter>
    <filter id="filter14" out="00:00:22.400">
      <property name="argument">※絵はヤマグチジロウさん作です
     X(旧Twitter): @yamaguchi0p</property>
      <property name="geometry">5 636 738 179 1</property>
      <property name="family">Sans</property>
      <property name="size">540</property>
      <property name="weight">400</property>
      <property name="style">normal</property>
      <property name="fgcolour">#ffffffff</property>
      <property name="bgcolour">#00000000</property>
      <property name="olcolour">#aa000000</property>
      <property name="pad">0</property>
      <property name="halign">left</property>
      <property name="valign">middle</property>
      <property name="outline">3</property>
      <property name="opacity">00:00:00.000=0;00:00:02.240=0;00:00:03.680=1</property>
      <property name="mlt_service">dynamictext</property>
      <property name="shotcut:filter">dynamicText</property>
      <property name="shotcut:usePointSize">0</property>
      <property name="shotcut:animIn">00:00:00.000</property>
      <property name="shotcut:animOut">00:00:00.000</property>
    </filter>
    <filter id="filter15" out="00:00:22.400">
      <property name="argument">╭━━━━━━━━━━━╮
｜参加できなくてごめんねぇ｜
╰━━ｖ━━━━━━━━╯</property>
      <property name="geometry">718 -50 741 278 1</property>
      <property name="family">Sans</property>
      <property name="size">360</property>
      <property name="weight">400</property>
      <property name="style">normal</property>
      <property name="fgcolour">#ff000000</property>
      <property name="bgcolour">#00000000</property>
      <property name="olcolour">#aa000000</property>
      <property name="pad">0</property>
      <property name="halign">center</property>
      <property name="valign">middle</property>
      <property name="outline">3</property>
      <property name="opacity">00:00:15.520=0;00:00:17.320=1</property>
      <property name="mlt_service">dynamictext</property>
      <property name="shotcut:filter">dynamicText</property>
      <property name="shotcut:usePointSize">0</property>
      <property name="shotcut:animIn">00:00:00.000</property>
      <property name="shotcut:animOut">00:00:00.000</property>
    </filter>
  </producer>
  <producer id="producer11" in="00:00:00.000" out="03:59:59.960">
    <property name="length">04:00:00.000</property>
    <property name="eof">pause</property>
    <property name="resource">images/ameharehau.png</property>
    <property name="ttl">1</property>
    <property name="aspect_ratio">1</property>
    <property name="meta.media.progressive">1</property>
    <property name="seekable">1</property>
    <property name="format">2</property>
    <property name="meta.media.width">1280</property>
    <property name="meta.media.height">1280</property>
    <property name="mlt_service">qimage</property>
    <property name="creation_time">2023-12-17T23:57:54</property>
    <property name="shotcut:skipConvert">0</property>
    <property name="shotcut:caption">ameharehau.png</property>
    <property name="shotcut:hash">5a31e6c5d8da97395bbb7bfe034bfcf0</property>
    <property name="ignore_points">0</property>
    <property name="xml">was here</property>
    <property name="meta.shotcut.vui">1</property>
    <filter id="filter16" out="00:00:46.040">
      <property name="background">color:#00000000</property>
      <property name="mlt_service">affine</property>
      <property name="shotcut:filter">affineSizePosition</property>
      <property name="transition.fill">1</property>
      <property name="transition.distort">0</property>
      <property name="transition.rect">10.3448 7.44828 787.034 787.034 1</property>
      <property name="transition.valign">middle</property>
      <property name="transition.halign">center</property>
      <property name="shotcut:animIn">00:00:00.000</property>
      <property name="shotcut:animOut">00:00:00.000</property>
      <property name="transition.threads">0</property>
      <property name="disable">0</property>
    </filter>
    <filter id="filter18" out="00:00:46.040">
      <property name="argument">１．「雨晴はう」の利用</property>
      <property name="geometry">650 130 870 102 1</property>
      <property name="family">Hiragino Sans</property>
      <property name="size">1080</property>
      <property name="weight">500</property>
      <property name="style">normal</property>
      <property name="fgcolour">#ffffffff</property>
      <property name="bgcolour">#00000000</property>
      <property name="olcolour">#aa000000</property>
      <property name="pad">0</property>
      <property name="halign">left</property>
      <property name="valign">middle</property>
      <property name="outline">3</property>
      <property name="opacity">1</property>
      <property name="mlt_service">dynamictext</property>
      <property name="shotcut:filter">dynamicText</property>
      <property name="shotcut:usePointSize">1</property>
      <property name="shotcut:animIn">00:00:00.000</property>
      <property name="shotcut:animOut">00:00:00.000</property>
      <property name="shotcut:pointSize">1080</property>
    </filter>
    <filter id="filter19" out="00:00:46.040">
      <property name="argument">２．雑な編集</property>
      <property name="geometry">650 220 870 102 1</property>
      <property name="family">Hiragino Sans</property>
      <property name="size">1080</property>
      <property name="weight">500</property>
      <property name="style">normal</property>
      <property name="fgcolour">#ffffffff</property>
      <property name="bgcolour">#00000000</property>
      <property name="olcolour">#aa000000</property>
      <property name="pad">0</property>
      <property name="halign">left</property>
      <property name="valign">middle</property>
      <property name="outline">3</property>
      <property name="opacity">00:00:08.880=0;00:00:09.920=1</property>
      <property name="mlt_service">dynamictext</property>
      <property name="shotcut:filter">dynamicText</property>
      <property name="shotcut:usePointSize">1</property>
      <property name="shotcut:animIn">00:00:00.000</property>
      <property name="shotcut:animOut">00:00:00.000</property>
      <property name="shotcut:pointSize">1080</property>
    </filter>
    <filter id="filter20" out="00:00:46.040">
      <property name="argument">３．ガバガバRTA</property>
      <property name="geometry">650 310 870 102 1</property>
      <property name="family">Hiragino Sans</property>
      <property name="size">1080</property>
      <property name="weight">500</property>
      <property name="style">normal</property>
      <property name="fgcolour">#ffffffff</property>
      <property name="bgcolour">#00000000</property>
      <property name="olcolour">#aa000000</property>
      <property name="pad">0</property>
      <property name="halign">left</property>
      <property name="valign">middle</property>
      <property name="outline">3</property>
      <property name="opacity">00:00:16.960=0;00:00:18.000=1</property>
      <property name="mlt_service">dynamictext</property>
      <property name="shotcut:filter">dynamicText</property>
      <property name="shotcut:usePointSize">1</property>
      <property name="shotcut:animIn">00:00:00.000</property>
      <property name="shotcut:animOut">00:00:00.000</property>
      <property name="shotcut:pointSize">1080</property>
    </filter>
    <filter id="filter21" out="00:00:46.040">
      <property name="argument">４．誤った知識</property>
      <property name="geometry">650 400 870 102 1</property>
      <property name="family">Hiragino Sans</property>
      <property name="size">1080</property>
      <property name="weight">500</property>
      <property name="style">normal</property>
      <property name="fgcolour">#ffffffff</property>
      <property name="bgcolour">#00000000</property>
      <property name="olcolour">#aa000000</property>
      <property name="pad">0</property>
      <property name="halign">left</property>
      <property name="valign">middle</property>
      <property name="outline">3</property>
      <property name="opacity">00:00:25.080=0;00:00:26.080=1</property>
      <property name="mlt_service">dynamictext</property>
      <property name="shotcut:filter">dynamicText</property>
      <property name="shotcut:usePointSize">1</property>
      <property name="shotcut:animIn">00:00:00.000</property>
      <property name="shotcut:animOut">00:00:00.000</property>
      <property name="shotcut:pointSize">1080</property>
    </filter>
    <filter id="filter22" out="00:00:46.040">
      <property name="argument">５．内容が不明瞭</property>
      <property name="geometry">650 490 870 102 1</property>
      <property name="family">Hiragino Sans</property>
      <property name="size">1080</property>
      <property name="weight">500</property>
      <property name="style">normal</property>
      <property name="fgcolour">#ffffffff</property>
      <property name="bgcolour">#00000000</property>
      <property name="olcolour">#aa000000</property>
      <property name="pad">0</property>
      <property name="halign">left</property>
      <property name="valign">middle</property>
      <property name="outline">3</property>
      <property name="opacity">00:00:34.400=0;00:00:35.400=1</property>
      <property name="mlt_service">dynamictext</property>
      <property name="shotcut:filter">dynamicText</property>
      <property name="shotcut:usePointSize">1</property>
      <property name="shotcut:animIn">00:00:00.000</property>
      <property name="shotcut:animOut">00:00:00.000</property>
      <property name="shotcut:pointSize">1080</property>
    </filter>
  </producer>
  <producer id="producer109" in="00:00:00.000" out="03:59:59.960">
    <property name="length">04:00:00.000</property>
    <property name="eof">pause</property>
    <property name="resource">#00000000</property>
    <property name="aspect_ratio">1</property>
    <property name="mlt_service">color</property>
    <property name="mlt_image_format">rgba</property>
    <property name="shotcut:caption">transparent</property>
    <property name="shotcut:detail">transparent</property>
    <property name="xml">was here</property>
    <property name="seekable">1</property>
    <property name="meta.shotcut.vui">1</property>
    <filter id="filter109" in="00:00:00.880" out="00:00:15.560">
      <property name="argument">RTA</property>
      <property name="geometry">93 85 685 275 1</property>
      <property name="family">Hiragino Sans</property>
      <property name="size">288</property>
      <property name="weight">900</property>
      <property name="style">normal</property>
      <property name="fgcolour">#ffffffff</property>
      <property name="bgcolour">#00000000</property>
      <property name="olcolour">#aa000000</property>
      <property name="pad">0</property>
      <property name="halign">center</property>
      <property name="valign">middle</property>
      <property name="outline">3</property>
      <property name="opacity">00:00:02.320=0;00:00:03.360=1</property>
      <property name="mlt_service">dynamictext</property>
      <property name="shotcut:filter">dynamicText</property>
      <property name="shotcut:usePointSize">1</property>
      <property name="shotcut:pointSize">288</property>
    </filter>
    <filter id="filter23" in="00:00:00.880" out="00:00:15.560">
      <property name="argument">LANケーブル</property>
      <property name="geometry">322 487 1057 189 1</property>
      <property name="family">Hiragino Sans</property>
      <property name="size">288</property>
      <property name="weight">900</property>
      <property name="style">normal</property>
      <property name="fgcolour">#ffffffff</property>
      <property name="bgcolour">#00000000</property>
      <property name="olcolour">#aa000000</property>
      <property name="pad">0</property>
      <property name="halign">center</property>
      <property name="valign">middle</property>
      <property name="outline">3</property>
      <property name="opacity">00:00:04.200=0.0222222;00:00:05.240=1</property>
      <property name="mlt_service">dynamictext</property>
      <property name="shotcut:filter">dynamicText</property>
      <property name="shotcut:usePointSize">1</property>
      <property name="shotcut:pointSize">288</property>
    </filter>
  </producer>
  <producer id="producer12" in="00:00:00.000" out="03:59:59.960">
    <property name="length">04:00:00.000</property>
    <property name="eof">pause</property>
    <property name="resource">#00000000</property>
    <property name="aspect_ratio">1</property>
    <property name="mlt_service">color</property>
    <property name="mlt_image_format">rgba</property>
    <property name="shotcut:caption">transparent</property>
    <property name="shotcut:detail">transparent</property>
    <property name="xml">was here</property>
    <property name="seekable">1</property>
    <property name="meta.shotcut.vui">1</property>
    <filter id="filter24" out="00:00:25.520">
      <property name="argument">RTA　</property>
      <property name="geometry">3 2 583 313 1</property>
      <property name="family">Hiragino Sans</property>
      <property name="size">288</property>
      <property name="weight">900</property>
      <property name="style">normal</property>
      <property name="fgcolour">#ffffffff</property>
      <property name="bgcolour">#00000000</property>
      <property name="olcolour">#aa000000</property>
      <property name="pad">0</property>
      <property name="halign">center</property>
      <property name="valign">middle</property>
      <property name="outline">3</property>
      <property name="opacity">1</property>
      <property name="mlt_service">dynamictext</property>
      <property name="shotcut:filter">dynamicText</property>
      <property name="shotcut:usePointSize">1</property>
      <property name="shotcut:pointSize">288</property>
    </filter>
    <filter id="filter25" out="00:00:25.520">
      <property name="argument">コンピュータゲームにおけるやり込みの一種，
「リアルタイムアタック」 (Real Time Attack)．
ゲーム内部時間ではなく実際のプレイ時間で計測する．
「RTA in Japan」など，集団運営による
イベントが実施されることもある．(Wikipediaより)</property>
      <property name="geometry">6 216 1373 566 1</property>
      <property name="family">Hiragino Sans</property>
      <property name="size">288</property>
      <property name="weight">900</property>
      <property name="style">normal</property>
      <property name="fgcolour">#ffffffff</property>
      <property name="bgcolour">#00000000</property>
      <property name="olcolour">#aa000000</property>
      <property name="pad">0</property>
      <property name="halign">left</property>
      <property name="valign">top</property>
      <property name="outline">3</property>
      <property name="opacity">00:00:01.080=0;00:00:04.320=0.0111111;00:00:04.360=1;00:00:12.560=1;00:00:12.600=0</property>
      <property name="mlt_service">dynamictext</property>
      <property name="shotcut:filter">dynamicText</property>
      <property name="shotcut:usePointSize">1</property>
      <property name="shotcut:pointSize">288</property>
    </filter>
    <filter id="filter26" out="00:00:25.520">
      <property name="argument">素早く何かを成功させるという意味です(意訳)．</property>
      <property name="geometry">44 224 1324 392 1</property>
      <property name="family">Hiragino Sans</property>
      <property name="size">288</property>
      <property name="weight">900</property>
      <property name="style">normal</property>
      <property name="fgcolour">#ffffffff</property>
      <property name="bgcolour">#00000000</property>
      <property name="olcolour">#aa000000</property>
      <property name="pad">0</property>
      <property name="halign">center</property>
      <property name="valign">middle</property>
      <property name="outline">3</property>
      <property name="opacity">00:00:12.600=0;00:00:12.640=1</property>
      <property name="mlt_service">dynamictext</property>
      <property name="shotcut:filter">dynamicText</property>
      <property name="shotcut:usePointSize">1</property>
      <property name="shotcut:pointSize">288</property>
    </filter>
    <filter id="filter27" out="00:00:25.520">
      <property name="argument">とは</property>
      <property name="geometry">398 55 314 145 1</property>
      <property name="family">Sans</property>
      <property name="size">1080</property>
      <property name="weight">400</property>
      <property name="style">normal</property>
      <property name="fgcolour">#ffffffff</property>
      <property name="bgcolour">#00000000</property>
      <property name="olcolour">#aa000000</property>
      <property name="pad">0</property>
      <property name="halign">center</property>
      <property name="valign">bottom</property>
      <property name="outline">3</property>
      <property name="opacity">1.0</property>
      <property name="mlt_service">dynamictext</property>
      <property name="shotcut:filter">dynamicText</property>
      <property name="shotcut:usePointSize">0</property>
      <property name="shotcut:animIn">00:00:00.000</property>
      <property name="shotcut:animOut">00:00:00.000</property>
    </filter>
  </producer>
  <producer id="producer13" in="00:00:00.000" out="03:59:59.960">
    <property name="length">04:00:00.000</property>
    <property name="eof">pause</property>
    <property name="resource">#00000000</property>
    <property name="aspect_ratio">1</property>
    <property name="mlt_service">color</property>
    <property name="mlt_image_format">rgba</property>
    <property name="shotcut:caption">transparent</property>
    <property name="shotcut:detail">transparent</property>
    <property name="xml">was here</property>
    <property name="seekable">1</property>
    <property name="meta.shotcut.vui">1</property>
    <filter id="filter28" out="00:00:25.120">
      <property name="argument">LANケーブル　　</property>
      <property name="geometry">3 2 1377 313 1</property>
      <property name="family">Hiragino Sans</property>
      <property name="size">288</property>
      <property name="weight">900</property>
      <property name="style">normal</property>
      <property name="fgcolour">#ffffffff</property>
      <property name="bgcolour">#00000000</property>
      <property name="olcolour">#aa000000</property>
      <property name="pad">0</property>
      <property name="halign">center</property>
      <property name="valign">middle</property>
      <property name="outline">3</property>
      <property name="opacity">1</property>
      <property name="mlt_service">dynamictext</property>
      <property name="shotcut:filter">dynamicText</property>
      <property name="shotcut:usePointSize">1</property>
      <property name="shotcut:pointSize">288</property>
    </filter>
    <filter id="filter29" out="00:00:25.120">
      <property name="argument">撚り対線（よりついせん）による平衡接続で100Ωの特性インピーダンスを
持つ銅線ケーブル．特に4対8線で両端にオス型8P8C
（通称RJ(Registered Jack)-45）コネクタのついたものが最も多く
使用され，一般に「LANケーブル」と呼ばれる．圧接工具を使えば容易に
任意の長さのケーブルにコネクタを接続することもできる．
ケーブルには配線構成によっていくつかの種類がある．(Wikipedia)</property>
      <property name="geometry">6 216 1373 566 1</property>
      <property name="family">Hiragino Sans</property>
      <property name="size">288</property>
      <property name="weight">900</property>
      <property name="style">normal</property>
      <property name="fgcolour">#ffffffff</property>
      <property name="bgcolour">#00000000</property>
      <property name="olcolour">#aa000000</property>
      <property name="pad">0</property>
      <property name="halign">left</property>
      <property name="valign">top</property>
      <property name="outline">3</property>
      <property name="opacity">00:00:05.080=0;00:00:05.120=1;00:00:19.040=1;00:00:19.080=0</property>
      <property name="mlt_service">dynamictext</property>
      <property name="shotcut:filter">dynamicText</property>
      <property name="shotcut:usePointSize">1</property>
      <property name="shotcut:pointSize">288</property>
    </filter>
    <filter id="filter30" out="00:00:25.120">
      <property name="argument">Wi-Fiの有線バージョンってことです(意訳)．</property>
      <property name="geometry">44 224 1324 392 1</property>
      <property name="family">Hiragino Sans</property>
      <property name="size">288</property>
      <property name="weight">900</property>
      <property name="style">normal</property>
      <property name="fgcolour">#ffffffff</property>
      <property name="bgcolour">#00000000</property>
      <property name="olcolour">#aa000000</property>
      <property name="pad">0</property>
      <property name="halign">center</property>
      <property name="valign">middle</property>
      <property name="outline">3</property>
      <property name="opacity">00:00:19.160=0;00:00:19.200=1</property>
      <property name="mlt_service">dynamictext</property>
      <property name="shotcut:filter">dynamicText</property>
      <property name="shotcut:usePointSize">1</property>
      <property name="shotcut:pointSize">288</property>
    </filter>
    <filter id="filter31" out="00:00:25.120">
      <property name="argument">とは</property>
      <property name="geometry">1018 38 432 187 1</property>
      <property name="family">Sans</property>
      <property name="size">1080</property>
      <property name="weight">400</property>
      <property name="style">normal</property>
      <property name="fgcolour">#ffffffff</property>
      <property name="bgcolour">#00000000</property>
      <property name="olcolour">#aa000000</property>
      <property name="pad">0</property>
      <property name="halign">center</property>
      <property name="valign">bottom</property>
      <property name="outline">3</property>
      <property name="opacity">1.0</property>
      <property name="mlt_service">dynamictext</property>
      <property name="shotcut:filter">dynamicText</property>
      <property name="shotcut:usePointSize">0</property>
      <property name="shotcut:animIn">00:00:00.000</property>
      <property name="shotcut:animOut">00:00:00.000</property>
    </filter>
  </producer>
  <producer id="producer14" in="00:00:00.000" out="03:59:59.960">
    <property name="length">04:00:00.000</property>
    <property name="eof">pause</property>
    <property name="resource">images/rj-45_amazon.jpg</property>
    <property name="ttl">1</property>
    <property name="aspect_ratio">1</property>
    <property name="meta.media.progressive">1</property>
    <property name="seekable">1</property>
    <property name="format">1</property>
    <property name="meta.media.width">1500</property>
    <property name="meta.media.height">1500</property>
    <property name="mlt_service">qimage</property>
    <property name="creation_time">2023-12-18T02:25:12</property>
    <property name="shotcut:hash">e4e0f79339b4a8dda4225fb3070423b8</property>
    <property name="shotcut:caption">rj-45_amazon.jpg</property>
    <property name="xml">was here</property>
    <property name="meta.shotcut.vui">1</property>
    <filter id="filter32" out="00:00:06.560">
      <property name="background">color:#00000000</property>
      <property name="mlt_service">affine</property>
      <property name="shotcut:filter">affineSizePosition</property>
      <property name="transition.fill">1</property>
      <property name="transition.distort">0</property>
      <property name="transition.rect">345.368 3.55556 777.778 777.778 1</property>
      <property name="transition.valign">middle</property>
      <property name="transition.halign">center</property>
      <property name="shotcut:animIn">00:00:00.000</property>
      <property name="shotcut:animOut">00:00:00.000</property>
      <property name="transition.threads">0</property>
    </filter>
    <filter id="filter33" out="00:00:06.560">
      <property name="argument">引用
https://amzn.asia/d/4RCCrdV
</property>
      <property name="geometry">430 570 604 205 1</property>
      <property name="family">Sans</property>
      <property name="size">360</property>
      <property name="weight">400</property>
      <property name="style">normal</property>
      <property name="fgcolour">#ff000000</property>
      <property name="bgcolour">#00000000</property>
      <property name="olcolour">#aa000000</property>
      <property name="pad">0</property>
      <property name="halign">left</property>
      <property name="valign">bottom</property>
      <property name="outline">3</property>
      <property name="opacity">1.0</property>
      <property name="mlt_service">dynamictext</property>
      <property name="shotcut:filter">dynamicText</property>
      <property name="shotcut:usePointSize">0</property>
      <property name="shotcut:animIn">00:00:00.000</property>
      <property name="shotcut:animOut">00:00:00.000</property>
    </filter>
  </producer>
  <tractor id="tractor0" in="00:00:00.000" out="00:00:00.000">
    <property name="shotcut:transition">lumaMix</property>
    <track producer="producer13" in="00:00:25.120" out="00:00:25.120"/>
    <track producer="producer14" in="00:00:00.000" out="00:00:00.000"/>
    <transition id="transition0">
      <property name="a_track">0</property>
      <property name="b_track">1</property>
      <property name="factory">loader</property>
      <property name="mlt_service">luma</property>
      <property name="alpha_over">1</property>
      <property name="fix_background_alpha">1</property>
    </transition>
    <transition id="transition1">
      <property name="a_track">0</property>
      <property name="b_track">1</property>
      <property name="mlt_service">mix</property>
      <property name="start">-1</property>
      <property name="accepts_blanks">1</property>
    </transition>
  </tractor>
  <producer id="producer15" in="00:00:00.000" out="03:59:59.960">
    <property name="length">04:00:00.000</property>
    <property name="eof">pause</property>
    <property name="resource">images/straight-cross_vsq.png</property>
    <property name="ttl">1</property>
    <property name="aspect_ratio">1</property>
    <property name="meta.media.progressive">1</property>
    <property name="seekable">1</property>
    <property name="format">2</property>
    <property name="meta.media.width">1000</property>
    <property name="meta.media.height">400</property>
    <property name="mlt_service">qimage</property>
    <property name="creation_time">2023-12-18T03:29:26</property>
    <property name="shotcut:hash">5e0e680ebfea2d31c8202177a7d32b24</property>
    <property name="shotcut:caption">straight-cross_vsq.png</property>
    <property name="meta.shotcut.vui">1</property>
    <property name="xml">was here</property>
    <filter id="filter34" out="00:00:08.240">
      <property name="background">color:#00000000</property>
      <property name="mlt_service">affine</property>
      <property name="shotcut:filter">affineSizePosition</property>
      <property name="transition.fill">1</property>
      <property name="transition.distort">0</property>
      <property name="transition.rect">40 156 1392.12 556.848 1</property>
      <property name="transition.valign">middle</property>
      <property name="transition.halign">center</property>
      <property name="shotcut:animIn">00:00:00.000</property>
      <property name="shotcut:animOut">00:00:00.000</property>
      <property name="transition.threads">0</property>
    </filter>
    <filter id="filter35" out="00:00:08.240">
      <property name="argument">引用
https://vsq.co.jp/special/tips_cable_lan/</property>
      <property name="geometry">54 547 992 156 1</property>
      <property name="family">Sans</property>
      <property name="size">540</property>
      <property name="weight">400</property>
      <property name="style">normal</property>
      <property name="fgcolour">#ff000000</property>
      <property name="bgcolour">#00000000</property>
      <property name="olcolour">#aa000000</property>
      <property name="pad">0</property>
      <property name="halign">left</property>
      <property name="valign">bottom</property>
      <property name="outline">3</property>
      <property name="opacity">1.0</property>
      <property name="mlt_service">dynamictext</property>
      <property name="shotcut:filter">dynamicText</property>
      <property name="shotcut:usePointSize">0</property>
      <property name="shotcut:animIn">00:00:00.000</property>
      <property name="shotcut:animOut">00:00:00.000</property>
    </filter>
  </producer>
  <tractor id="tractor1" in="00:00:00.000" out="00:00:00.000">
    <property name="shotcut:transition">lumaMix</property>
    <track producer="producer14" in="00:00:06.560" out="00:00:06.560"/>
    <track producer="producer15" in="00:00:00.000" out="00:00:00.000"/>
    <transition id="transition2">
      <property name="a_track">0</property>
      <property name="b_track">1</property>
      <property name="factory">loader</property>
      <property name="mlt_service">luma</property>
      <property name="alpha_over">1</property>
      <property name="fix_background_alpha">1</property>
    </transition>
    <transition id="transition3">
      <property name="a_track">0</property>
      <property name="b_track">1</property>
      <property name="mlt_service">mix</property>
      <property name="start">-1</property>
      <property name="accepts_blanks">1</property>
    </transition>
  </tractor>
  <producer id="producer16" in="00:00:00.000" out="03:59:59.960">
    <property name="length">04:00:00.000</property>
    <property name="eof">pause</property>
    <property name="resource">images/tester.jpg</property>
    <property name="ttl">1</property>
    <property name="aspect_ratio">1</property>
    <property name="meta.media.progressive">1</property>
    <property name="seekable">1</property>
    <property name="format">1</property>
    <property name="meta.media.width">700</property>
    <property name="meta.media.height">700</property>
    <property name="mlt_service">qimage</property>
    <property name="creation_time">2023-12-18T03:54:37</property>
    <property name="shotcut:hash">ad8f671005333c285abbade76b7fa60f</property>
    <property name="shotcut:caption">tester.jpg</property>
    <property name="meta.shotcut.vui">1</property>
    <property name="xml">was here</property>
    <filter id="filter36" out="00:00:16.600">
      <property name="background">color:#00000000</property>
      <property name="mlt_service">affine</property>
      <property name="shotcut:filter">affineSizePosition</property>
      <property name="transition.fill">1</property>
      <property name="transition.distort">0</property>
      <property name="transition.rect">319.615 -3.46154 782.308 782.308 1</property>
      <property name="transition.valign">middle</property>
      <property name="transition.halign">center</property>
      <property name="shotcut:animIn">00:00:00.000</property>
      <property name="shotcut:animOut">00:00:00.000</property>
      <property name="transition.threads">0</property>
    </filter>
    <filter id="filter37" out="00:00:16.600">
      <property name="argument">引用
https://item.rakuten.co.jp/shop-always/r171017-07n/</property>
      <property name="geometry">349 536 726 235 1</property>
      <property name="family">Sans</property>
      <property name="size">540</property>
      <property name="weight">400</property>
      <property name="style">normal</property>
      <property name="fgcolour">#ff000000</property>
      <property name="bgcolour">#00000000</property>
      <property name="olcolour">#aa000000</property>
      <property name="pad">0</property>
      <property name="halign">left</property>
      <property name="valign">bottom</property>
      <property name="outline">3</property>
      <property name="opacity">1</property>
      <property name="mlt_service">dynamictext</property>
      <property name="shotcut:filter">dynamicText</property>
      <property name="shotcut:usePointSize">0</property>
      <property name="shotcut:animIn">00:00:00.000</property>
      <property name="shotcut:animOut">00:00:00.000</property>
    </filter>
  </producer>
  <producer id="producer17" in="00:00:00.000" out="03:59:59.960">
    <property name="length">04:00:00.000</property>
    <property name="eof">pause</property>
    <property name="resource">images/st-cs-module_freedom.jpg</property>
    <property name="ttl">1</property>
    <property name="aspect_ratio">1</property>
    <property name="meta.media.progressive">1</property>
    <property name="seekable">1</property>
    <property name="format">1</property>
    <property name="meta.media.width">600</property>
    <property name="meta.media.height">300</property>
    <property name="mlt_service">qimage</property>
    <property name="creation_time">2023-12-18T04:12:48</property>
    <property name="shotcut:hash">70ad6fb08b2749de22d4afe15da2dc34</property>
    <property name="shotcut:caption">st-cs-module_freedom.jpg</property>
    <property name="meta.shotcut.vui">1</property>
    <property name="xml">was here</property>
    <filter id="filter38" out="00:00:27.240">
      <property name="argument">引用
https://www.freedom.ne.jp/www/support_staff_blog/ｌａｎケーブル/</property>
      <property name="geometry">21 921 1359 132 1</property>
      <property name="family">Sans</property>
      <property name="size">540</property>
      <property name="weight">400</property>
      <property name="style">normal</property>
      <property name="fgcolour">#ffffffff</property>
      <property name="bgcolour">#00000000</property>
      <property name="olcolour">#aa000000</property>
      <property name="pad">0</property>
      <property name="halign">left</property>
      <property name="valign">bottom</property>
      <property name="outline">3</property>
      <property name="opacity">1</property>
      <property name="mlt_service">dynamictext</property>
      <property name="shotcut:filter">dynamicText</property>
      <property name="shotcut:usePointSize">0</property>
      <property name="shotcut:animIn">00:00:00.000</property>
      <property name="shotcut:animOut">00:00:00.000</property>
    </filter>
    <filter id="filter39" out="00:00:27.240">
      <property name="background">color:#00000000</property>
      <property name="mlt_service">affine</property>
      <property name="shotcut:filter">affineSizePosition</property>
      <property name="transition.fill">1</property>
      <property name="transition.distort">0</property>
      <property name="transition.rect">0 60 1386.92 693.462 1</property>
      <property name="transition.valign">middle</property>
      <property name="transition.halign">center</property>
      <property name="shotcut:animIn">00:00:00.000</property>
      <property name="shotcut:animOut">00:00:00.000</property>
      <property name="transition.threads">0</property>
    </filter>
  </producer>
  <producer id="producer18" in="00:00:00.000" out="03:59:59.960">
    <property name="length">04:00:00.000</property>
    <property name="eof">pause</property>
    <property name="resource">images/tester.jpg</property>
    <property name="ttl">1</property>
    <property name="aspect_ratio">1</property>
    <property name="meta.media.progressive">1</property>
    <property name="seekable">1</property>
    <property name="format">1</property>
    <property name="meta.media.width">700</property>
    <property name="meta.media.height">700</property>
    <property name="mlt_service">qimage</property>
    <property name="creation_time">2023-12-18T03:54:37</property>
    <property name="shotcut:hash">ad8f671005333c285abbade76b7fa60f</property>
    <property name="shotcut:caption">tester.jpg</property>
    <property name="meta.shotcut.vui">1</property>
    <property name="xml">was here</property>
    <filter id="filter40" out="00:00:16.600">
      <property name="background">color:#00000000</property>
      <property name="mlt_service">affine</property>
      <property name="shotcut:filter">affineSizePosition</property>
      <property name="transition.fill">1</property>
      <property name="transition.distort">0</property>
      <property name="transition.rect">319.615 -3.46154 782.308 782.308 1</property>
      <property name="transition.valign">middle</property>
      <property name="transition.halign">center</property>
      <property name="shotcut:animIn">00:00:00.000</property>
      <property name="shotcut:animOut">00:00:00.000</property>
      <property name="transition.threads">0</property>
      <property name="disable">0</property>
    </filter>
    <filter id="filter41" out="00:00:16.600">
      <property name="argument">引用
https://item.rakuten.co.jp/shop-always/r171017-07n/</property>
      <property name="geometry">349 536 726 235 1</property>
      <property name="family">Sans</property>
      <property name="size">540</property>
      <property name="weight">400</property>
      <property name="style">normal</property>
      <property name="fgcolour">#ff000000</property>
      <property name="bgcolour">#00000000</property>
      <property name="olcolour">#aa000000</property>
      <property name="pad">0</property>
      <property name="halign">left</property>
      <property name="valign">bottom</property>
      <property name="outline">3</property>
      <property name="opacity">1</property>
      <property name="mlt_service">dynamictext</property>
      <property name="shotcut:filter">dynamicText</property>
      <property name="shotcut:usePointSize">0</property>
      <property name="shotcut:animIn">00:00:00.000</property>
      <property name="shotcut:animOut">00:00:00.000</property>
      <property name="disable">0</property>
    </filter>
    <filter id="filter42" out="00:00:16.600">
      <property name="argument">→</property>
      <property name="geometry">260 70 331 287 1</property>
      <property name="family">Sans</property>
      <property name="size">1080</property>
      <property name="weight">400</property>
      <property name="style">normal</property>
      <property name="fgcolour">#ff000000</property>
      <property name="bgcolour">#00000000</property>
      <property name="olcolour">#aa000000</property>
      <property name="pad">0</property>
      <property name="halign">center</property>
      <property name="valign">bottom</property>
      <property name="outline">3</property>
      <property name="opacity">00:00:11.760=0.0111111;00:00:11.800=1;00:00:13.840=1;00:00:13.880=0</property>
      <property name="mlt_service">dynamictext</property>
      <property name="shotcut:filter">dynamicText</property>
      <property name="shotcut:usePointSize">0</property>
      <property name="shotcut:animIn">00:00:00.000</property>
      <property name="shotcut:animOut">00:00:00.000</property>
    </filter>
    <filter id="filter43" out="00:00:16.600">
      <property name="argument">→</property>
      <property name="geometry">260 100 331 287 1</property>
      <property name="family">Sans</property>
      <property name="size">1080</property>
      <property name="weight">400</property>
      <property name="style">normal</property>
      <property name="fgcolour">#ff000000</property>
      <property name="bgcolour">#00000000</property>
      <property name="olcolour">#aa000000</property>
      <property name="pad">0</property>
      <property name="halign">center</property>
      <property name="valign">bottom</property>
      <property name="outline">3</property>
      <property name="opacity">00:00:04.320=0;00:00:04.360=1;00:00:06.560=1;00:00:06.600=0;00:00:14.000=0.0222222;00:00:14.040=0.988889</property>
      <property name="mlt_service">dynamictext</property>
      <property name="shotcut:filter">dynamicText</property>
      <property name="shotcut:usePointSize">0</property>
      <property name="shotcut:animIn">00:00:00.000</property>
      <property name="shotcut:animOut">00:00:00.000</property>
    </filter>
    <filter id="filter44" out="00:00:16.600">
      <property name="argument">→</property>
      <property name="geometry">260 130 331 287 1</property>
      <property name="family">Sans</property>
      <property name="size">1080</property>
      <property name="weight">400</property>
      <property name="style">normal</property>
      <property name="fgcolour">#ff000000</property>
      <property name="bgcolour">#00000000</property>
      <property name="olcolour">#aa000000</property>
      <property name="pad">0</property>
      <property name="halign">center</property>
      <property name="valign">bottom</property>
      <property name="outline">3</property>
      <property name="opacity">00:00:06.640=0;00:00:06.680=1;00:00:11.680=1;00:00:11.720=0</property>
      <property name="mlt_service">dynamictext</property>
      <property name="shotcut:filter">dynamicText</property>
      <property name="shotcut:usePointSize">0</property>
      <property name="shotcut:animIn">00:00:00.000</property>
      <property name="shotcut:animOut">00:00:00.000</property>
    </filter>
  </producer>
  <tractor id="tractor2" in="00:00:00.000" out="00:00:00.040">
    <property name="shotcut:transition">lumaMix</property>
    <track producer="producer17" in="00:00:27.200" out="00:00:27.240"/>
    <track producer="producer18" in="00:00:00.000" out="00:00:00.040"/>
    <transition id="transition4" out="00:00:00.040">
      <property name="a_track">0</property>
      <property name="b_track">1</property>
      <property name="factory">loader</property>
      <property name="mlt_service">luma</property>
      <property name="alpha_over">1</property>
      <property name="fix_background_alpha">1</property>
    </transition>
    <transition id="transition5" out="00:00:00.040">
      <property name="a_track">0</property>
      <property name="b_track">1</property>
      <property name="mlt_service">mix</property>
      <property name="start">-1</property>
      <property name="accepts_blanks">1</property>
    </transition>
  </tractor>
  <producer id="producer20" in="00:00:00.000" out="03:59:59.960">
    <property name="length">04:00:00.000</property>
    <property name="eof">pause</property>
    <property name="resource">images/module_x2.png</property>
    <property name="ttl">1</property>
    <property name="aspect_ratio">1</property>
    <property name="meta.media.progressive">1</property>
    <property name="seekable">1</property>
    <property name="format">2</property>
    <property name="meta.media.width">238</property>
    <property name="meta.media.height">202</property>
    <property name="mlt_service">qimage</property>
    <property name="creation_time">2023-12-18T04:48:08</property>
    <property name="shotcut:hash">06aec2f6a6e2f77e34d649e8fc142a40</property>
    <property name="shotcut:caption">module_x2.png</property>
    <property name="meta.shotcut.vui">1</property>
    <property name="xml">was here</property>
    <filter id="filter45" in="00:00:01.280" out="00:00:05.880">
      <property name="background">color:#00000000</property>
      <property name="mlt_service">affine</property>
      <property name="shotcut:filter">affineSizePosition</property>
      <property name="transition.fill">1</property>
      <property name="transition.distort">0</property>
      <property name="transition.rect">289.385 0 921.729 782.308 1</property>
      <property name="transition.valign">middle</property>
      <property name="transition.halign">center</property>
      <property name="shotcut:animIn">00:00:00.000</property>
      <property name="shotcut:animOut">00:00:00.000</property>
      <property name="transition.threads">0</property>
      <property name="transition.fix_rotate_x">0</property>
    </filter>
    <filter id="filter46" in="00:00:01.280" out="00:00:05.880">
      <property name="start">1</property>
      <property name="level">00:00:00.000=0;00:00:00.960=1</property>
      <property name="mlt_service">brightness</property>
      <property name="shotcut:filter">fadeInBrightness</property>
      <property name="alpha">1</property>
      <property name="shotcut:animIn">00:00:01.000</property>
    </filter>
    <filter id="filter47" in="00:00:01.280" out="00:00:05.880">
      <property name="start">1</property>
      <property name="level">00:00:03.640=1;00:00:04.600=0</property>
      <property name="mlt_service">brightness</property>
      <property name="shotcut:filter">fadeOutBrightness</property>
      <property name="alpha">1</property>
      <property name="shotcut:animOut">00:00:01.000</property>
    </filter>
  </producer>
  <producer id="producer21" in="00:00:00.000" out="03:59:59.960">
    <property name="length">04:00:00.000</property>
    <property name="eof">pause</property>
    <property name="resource">images/nipper.png</property>
    <property name="ttl">1</property>
    <property name="aspect_ratio">1</property>
    <property name="meta.media.progressive">1</property>
    <property name="seekable">1</property>
    <property name="format">2</property>
    <property name="meta.media.width">600</property>
    <property name="meta.media.height">778</property>
    <property name="mlt_service">qimage</property>
    <property name="creation_time">2023-12-18T04:42:47</property>
    <property name="shotcut:hash">1795db48a4d9dd0fa023c34cfa557dc9</property>
    <property name="shotcut:caption">nipper.png</property>
    <property name="meta.shotcut.vui">1</property>
    <property name="xml">was here</property>
    <filter id="filter48" out="00:00:01.880">
      <property name="background">color:#00000000</property>
      <property name="mlt_service">affine</property>
      <property name="shotcut:filter">affineSizePosition</property>
      <property name="transition.fill">1</property>
      <property name="transition.distort">0</property>
      <property name="transition.rect">370.923 0 600.653 778.846 1</property>
      <property name="transition.valign">middle</property>
      <property name="transition.halign">center</property>
      <property name="shotcut:animIn">00:00:00.000</property>
      <property name="shotcut:animOut">00:00:00.000</property>
      <property name="transition.threads">0</property>
    </filter>
    <filter id="filter49" out="00:00:01.880">
      <property name="start">1</property>
      <property name="level">00:00:00.920=1;00:00:01.880=0</property>
      <property name="mlt_service">brightness</property>
      <property name="shotcut:filter">fadeOutBrightness</property>
      <property name="alpha">1</property>
      <property name="shotcut:animOut">00:00:01.000</property>
    </filter>
    <filter id="filter50" out="00:00:01.880">
      <property name="start">1</property>
      <property name="level">00:00:00.000=0;00:00:00.960=1</property>
      <property name="mlt_service">brightness</property>
      <property name="shotcut:filter">fadeInBrightness</property>
      <property name="alpha">1</property>
      <property name="shotcut:animIn">00:00:01.000</property>
    </filter>
  </producer>
  <producer id="producer22" in="00:00:00.000" out="03:59:59.960">
    <property name="length">04:00:00.000</property>
    <property name="eof">pause</property>
    <property name="resource">images/kasime.png</property>
    <property name="ttl">1</property>
    <property name="aspect_ratio">1</property>
    <property name="meta.media.progressive">1</property>
    <property name="seekable">1</property>
    <property name="format">2</property>
    <property name="meta.media.width">784</property>
    <property name="meta.media.height">1194</property>
    <property name="mlt_service">qimage</property>
    <property name="creation_time">2023-12-18T04:43:14</property>
    <property name="shotcut:hash">0d6b2888dda48c63d54c978b896a3294</property>
    <property name="shotcut:caption">kasime.png</property>
    <property name="meta.shotcut.vui">1</property>
    <property name="xml">was here</property>
    <filter id="filter51" in="00:00:01.760" out="00:00:03.960">
      <property name="background">color:#00000000</property>
      <property name="mlt_service">affine</property>
      <property name="shotcut:filter">affineSizePosition</property>
      <property name="transition.fill">1</property>
      <property name="transition.distort">0</property>
      <property name="transition.rect">425 0 513.676 782.308 1</property>
      <property name="transition.valign">middle</property>
      <property name="transition.halign">center</property>
      <property name="shotcut:animIn">00:00:00.000</property>
      <property name="shotcut:animOut">00:00:00.000</property>
      <property name="transition.threads">0</property>
      <property name="transition.fix_rotate_x">0</property>
    </filter>
    <filter id="filter52" in="00:00:01.760" out="00:00:03.960">
      <property name="start">1</property>
      <property name="level">00:00:00.000=0;00:00:00.960=1</property>
      <property name="mlt_service">brightness</property>
      <property name="shotcut:filter">fadeInBrightness</property>
      <property name="alpha">1</property>
      <property name="shotcut:animIn">00:00:01.000</property>
    </filter>
    <filter id="filter53" in="00:00:01.760" out="00:00:03.960">
      <property name="start">1</property>
      <property name="level">00:00:01.240=1;00:00:02.200=0</property>
      <property name="mlt_service">brightness</property>
      <property name="shotcut:filter">fadeOutBrightness</property>
      <property name="alpha">1</property>
      <property name="shotcut:animOut">00:00:01.000</property>
    </filter>
  </producer>
  <tractor id="tractor4" in="00:00:00.000" out="00:00:00.440">
    <property name="shotcut:transition">lumaMix</property>
    <track producer="producer21" in="00:00:01.440" out="00:00:01.880"/>
    <track producer="producer22" in="00:00:01.760" out="00:00:02.200"/>
    <transition id="transition8" out="00:00:00.440">
      <property name="a_track">0</property>
      <property name="b_track">1</property>
      <property name="factory">loader</property>
      <property name="mlt_service">luma</property>
      <property name="alpha_over">1</property>
      <property name="fix_background_alpha">1</property>
    </transition>
    <transition id="transition9" out="00:00:00.440">
      <property name="a_track">0</property>
      <property name="b_track">1</property>
      <property name="mlt_service">mix</property>
      <property name="start">-1</property>
      <property name="accepts_blanks">1</property>
    </transition>
  </tractor>
  <producer id="producer130" in="00:00:00.000" out="03:59:59.960">
    <property name="length">04:00:00.000</property>
    <property name="eof">pause</property>
    <property name="resource">#00000000</property>
    <property name="aspect_ratio">1</property>
    <property name="mlt_service">color</property>
    <property name="mlt_image_format">rgba</property>
    <property name="shotcut:caption">transparent</property>
    <property name="shotcut:detail">transparent</property>
    <property name="xml">was here</property>
    <property name="seekable">1</property>
    <property name="meta.shotcut.vui">1</property>
    <filter id="filter54" in="00:00:00.960" out="00:00:14.280">
      <property name="argument">・テスター</property>
      <property name="geometry">0 130 870 102 1</property>
      <property name="family">Hiragino Sans</property>
      <property name="size">1080</property>
      <property name="weight">500</property>
      <property name="style">normal</property>
      <property name="fgcolour">#ffffffff</property>
      <property name="bgcolour">#00000000</property>
      <property name="olcolour">#aa000000</property>
      <property name="pad">0</property>
      <property name="halign">left</property>
      <property name="valign">middle</property>
      <property name="outline">3</property>
      <property name="opacity">00:00:04.200=0;00:00:05.240=1</property>
      <property name="mlt_service">dynamictext</property>
      <property name="shotcut:filter">dynamicText</property>
      <property name="shotcut:usePointSize">1</property>
      <property name="shotcut:animIn">00:00:00.000</property>
      <property name="shotcut:animOut">00:00:00.000</property>
      <property name="shotcut:pointSize">1080</property>
    </filter>
    <filter id="filter55" in="00:00:00.960" out="00:00:14.280">
      <property name="argument">・切り落とされたLANケーブル</property>
      <property name="geometry">0 220 870 102 1</property>
      <property name="family">Hiragino Sans</property>
      <property name="size">1080</property>
      <property name="weight">500</property>
      <property name="style">normal</property>
      <property name="fgcolour">#ffffffff</property>
      <property name="bgcolour">#00000000</property>
      <property name="olcolour">#aa000000</property>
      <property name="pad">0</property>
      <property name="halign">left</property>
      <property name="valign">middle</property>
      <property name="outline">3</property>
      <property name="opacity">00:00:05.000=0;00:00:06.040=1</property>
      <property name="mlt_service">dynamictext</property>
      <property name="shotcut:filter">dynamicText</property>
      <property name="shotcut:usePointSize">1</property>
      <property name="shotcut:animIn">00:00:00.000</property>
      <property name="shotcut:animOut">00:00:00.000</property>
      <property name="shotcut:pointSize">1080</property>
    </filter>
    <filter id="filter56" in="00:00:00.960" out="00:00:14.280">
      <property name="argument">・RJ-45モジュールx2</property>
      <property name="geometry">0 310 870 102 1</property>
      <property name="family">Hiragino Sans</property>
      <property name="size">1080</property>
      <property name="weight">500</property>
      <property name="style">normal</property>
      <property name="fgcolour">#ffffffff</property>
      <property name="bgcolour">#00000000</property>
      <property name="olcolour">#aa000000</property>
      <property name="pad">0</property>
      <property name="halign">left</property>
      <property name="valign">middle</property>
      <property name="outline">3</property>
      <property name="opacity">00:00:06.880=0;00:00:07.920=1</property>
      <property name="mlt_service">dynamictext</property>
      <property name="shotcut:filter">dynamicText</property>
      <property name="shotcut:usePointSize">1</property>
      <property name="shotcut:animIn">00:00:00.000</property>
      <property name="shotcut:animOut">00:00:00.000</property>
      <property name="shotcut:pointSize">1080</property>
    </filter>
    <filter id="filter57" in="00:00:00.960" out="00:00:14.280">
      <property name="argument">・ニッパーのようなもの</property>
      <property name="geometry">0 400 870 102 1</property>
      <property name="family">Hiragino Sans</property>
      <property name="size">1080</property>
      <property name="weight">500</property>
      <property name="style">normal</property>
      <property name="fgcolour">#ffffffff</property>
      <property name="bgcolour">#00000000</property>
      <property name="olcolour">#aa000000</property>
      <property name="pad">0</property>
      <property name="halign">left</property>
      <property name="valign">middle</property>
      <property name="outline">3</property>
      <property name="opacity">00:00:09.320=0;00:00:10.360=1</property>
      <property name="mlt_service">dynamictext</property>
      <property name="shotcut:filter">dynamicText</property>
      <property name="shotcut:usePointSize">1</property>
      <property name="shotcut:animIn">00:00:00.000</property>
      <property name="shotcut:animOut">00:00:00.000</property>
      <property name="shotcut:pointSize">1080</property>
    </filter>
    <filter id="filter58" in="00:00:00.960" out="00:00:14.280">
      <property name="argument">・かしめ工具のようなもの</property>
      <property name="geometry">0 490 870 102 1</property>
      <property name="family">Hiragino Sans</property>
      <property name="size">1080</property>
      <property name="weight">500</property>
      <property name="style">normal</property>
      <property name="fgcolour">#ffffffff</property>
      <property name="bgcolour">#00000000</property>
      <property name="olcolour">#aa000000</property>
      <property name="pad">0</property>
      <property name="halign">left</property>
      <property name="valign">middle</property>
      <property name="outline">3</property>
      <property name="opacity">00:00:10.320=0;00:00:11.360=1</property>
      <property name="mlt_service">dynamictext</property>
      <property name="shotcut:filter">dynamicText</property>
      <property name="shotcut:usePointSize">1</property>
      <property name="shotcut:animIn">00:00:00.000</property>
      <property name="shotcut:animOut">00:00:00.000</property>
      <property name="shotcut:pointSize">1080</property>
    </filter>
  </producer>
  <producer id="producer132" in="00:00:00.000" out="03:59:59.960">
    <property name="length">04:00:00.000</property>
    <property name="eof">pause</property>
    <property name="resource">#00000000</property>
    <property name="aspect_ratio">1</property>
    <property name="mlt_service">color</property>
    <property name="mlt_image_format">rgba</property>
    <property name="shotcut:caption">transparent</property>
    <property name="shotcut:detail">transparent</property>
    <property name="xml">was here</property>
    <property name="seekable">1</property>
    <property name="meta.shotcut.vui">1</property>
    <filter id="filter132" out="00:00:14.360">
      <property name="argument">右の表をご覧ください→</property>
      <property name="geometry">14 284 1370 211 1</property>
      <property name="family">Hiragino Sans</property>
      <property name="size">144</property>
      <property name="weight">900</property>
      <property name="style">normal</property>
      <property name="fgcolour">#ffffffff</property>
      <property name="bgcolour">#00000000</property>
      <property name="olcolour">#aa000000</property>
      <property name="pad">0</property>
      <property name="halign">left</property>
      <property name="valign">middle</property>
      <property name="outline">3</property>
      <property name="opacity">1</property>
      <property name="mlt_service">dynamictext</property>
      <property name="shotcut:filter">dynamicText</property>
      <property name="shotcut:usePointSize">1</property>
      <property name="shotcut:pointSize">144</property>
    </filter>
  </producer>
  <tractor id="tractor5" in="00:00:00.000" out="00:00:00.000">
    <property name="shotcut:transition">lumaMix</property>
    <track producer="producer130" in="00:00:14.280" out="00:00:14.280"/>
    <track producer="producer132" in="00:00:00.960" out="00:00:00.960"/>
    <transition id="transition10">
      <property name="a_track">0</property>
      <property name="b_track">1</property>
      <property name="factory">loader</property>
      <property name="mlt_service">luma</property>
      <property name="alpha_over">1</property>
      <property name="fix_background_alpha">1</property>
    </transition>
    <transition id="transition11">
      <property name="a_track">0</property>
      <property name="b_track">1</property>
      <property name="mlt_service">mix</property>
      <property name="start">-1</property>
      <property name="accepts_blanks">1</property>
    </transition>
  </tractor>
  <producer id="producer23" in="00:00:00.000" out="03:59:59.960">
    <property name="length">04:00:00.000</property>
    <property name="eof">pause</property>
    <property name="resource">#00000000</property>
    <property name="aspect_ratio">1</property>
    <property name="mlt_service">color</property>
    <property name="mlt_image_format">rgba</property>
    <property name="shotcut:caption">transparent</property>
    <property name="shotcut:detail">transparent</property>
    <property name="xml">was here</property>
    <property name="seekable">1</property>
    <property name="meta.shotcut.vui">1</property>
    <filter id="filter59" out="00:00:12.560">
      <property name="argument">右の表をご覧ください→</property>
      <property name="geometry">14 284 1370 211 1</property>
      <property name="family">Hiragino Sans</property>
      <property name="size">144</property>
      <property name="weight">900</property>
      <property name="style">normal</property>
      <property name="fgcolour">#ffffffff</property>
      <property name="bgcolour">#00000000</property>
      <property name="olcolour">#aa000000</property>
      <property name="pad">0</property>
      <property name="halign">left</property>
      <property name="valign">middle</property>
      <property name="outline">3</property>
      <property name="opacity">1</property>
      <property name="mlt_service">dynamictext</property>
      <property name="shotcut:filter">dynamicText</property>
      <property name="shotcut:usePointSize">1</property>
      <property name="shotcut:pointSize">144</property>
    </filter>
    <filter id="filter60" in="00:00:01.000" out="00:00:12.560">
      <property name="start">1</property>
      <property name="level">1</property>
      <property name="mlt_service">brightness</property>
      <property name="shotcut:filter">fadeInBrightness</property>
      <property name="alpha">00:00:00.000=0;00:00:00.960=1</property>
      <property name="shotcut:animIn">00:00:01.000</property>
    </filter>
  </producer>
  <producer id="producer24" in="00:00:00.000" out="03:59:59.960">
    <property name="length">04:00:00.000</property>
    <property name="eof">pause</property>
    <property name="resource">images/rj-45-arrange_ewords.png</property>
    <property name="ttl">1</property>
    <property name="aspect_ratio">1</property>
    <property name="meta.media.progressive">1</property>
    <property name="seekable">1</property>
    <property name="format">1</property>
    <property name="meta.media.width">200</property>
    <property name="meta.media.height">200</property>
    <property name="mlt_service">qimage</property>
    <property name="creation_time">2023-12-18T06:51:02</property>
    <property name="shotcut:hash">180e13cbde1e10aed222d8aa56e58293</property>
    <property name="shotcut:caption">rj-45-arrange_ewords.png</property>
    <property name="xml">was here</property>
    <property name="meta.shotcut.vui">1</property>
    <filter id="filter61" out="00:00:09.200">
      <property name="background">color:#00000000</property>
      <property name="mlt_service">affine</property>
      <property name="shotcut:filter">affineSizePosition</property>
      <property name="transition.fill">1</property>
      <property name="transition.distort">0</property>
      <property name="transition.rect">00:00:04.200=319.615 -3.46154 782.308 782.308 1;00:00:07.440=966.923 3.46154 422.308 422.308 1</property>
      <property name="transition.valign">middle</property>
      <property name="transition.halign">center</property>
      <property name="shotcut:animIn">00:00:00.000</property>
      <property name="shotcut:animOut">00:00:00.000</property>
      <property name="transition.threads">0</property>
      <property name="transition.fix_rotate_x">0</property>
    </filter>
    <filter id="filter62" out="00:00:09.200">
      <property name="argument">
引用：https://e-words.jp/w/T568A-T568B.html</property>
      <property name="geometry">325 703 778 73 1</property>
      <property name="family">Sans</property>
      <property name="size">540</property>
      <property name="weight">400</property>
      <property name="style">normal</property>
      <property name="fgcolour">#ff000000</property>
      <property name="bgcolour">#00000000</property>
      <property name="olcolour">#aa000000</property>
      <property name="pad">0</property>
      <property name="halign">left</property>
      <property name="valign">bottom</property>
      <property name="outline">3</property>
      <property name="opacity">00:00:04.280=1;00:00:04.320=0</property>
      <property name="mlt_service">dynamictext</property>
      <property name="shotcut:filter">dynamicText</property>
      <property name="shotcut:usePointSize">0</property>
      <property name="shotcut:animIn">00:00:00.000</property>
      <property name="shotcut:animOut">00:00:00.000</property>
    </filter>
  </producer>
  <producer id="producer25" in="00:00:00.000" out="03:59:59.960">
    <property name="length">04:00:00.000</property>
    <property name="eof">pause</property>
    <property name="resource">images/hato-hohou.png</property>
    <property name="ttl">1</property>
    <property name="aspect_ratio">1</property>
    <property name="meta.media.progressive">1</property>
    <property name="seekable">1</property>
    <property name="format">2</property>
    <property name="meta.media.width">468</property>
    <property name="meta.media.height">468</property>
    <property name="mlt_service">qimage</property>
    <property name="creation_time">2023-12-19T00:57:51</property>
    <property name="shotcut:hash">d6402392d918909ae2f2b84360953ca6</property>
    <property name="shotcut:caption">hato-hohou.png</property>
    <property name="meta.shotcut.vui">1</property>
    <property name="xml">was here</property>
    <filter id="filter63" out="00:00:07.040">
      <property name="background">color:#00000000</property>
      <property name="mlt_service">affine</property>
      <property name="shotcut:filter">affineSizePosition</property>
      <property name="transition.fill">1</property>
      <property name="transition.distort">0</property>
      <property name="transition.rect">967 3 422 422 1</property>
      <property name="transition.valign">middle</property>
      <property name="transition.halign">center</property>
      <property name="shotcut:animIn">00:00:00.000</property>
      <property name="shotcut:animOut">00:00:00.000</property>
      <property name="transition.threads">0</property>
    </filter>
  </producer>
  <producer id="producer26" in="00:00:00.000" out="03:59:59.960">
    <property name="length">04:00:00.000</property>
    <property name="eof">pause</property>
    <property name="resource">images/utp_cman.png</property>
    <property name="ttl">1</property>
    <property name="aspect_ratio">1</property>
    <property name="meta.media.progressive">1</property>
    <property name="seekable">1</property>
    <property name="format">2</property>
    <property name="meta.media.width">620</property>
    <property name="meta.media.height">660</property>
    <property name="mlt_service">qimage</property>
    <property name="creation_time">2023-12-19T01:06:21</property>
    <property name="shotcut:hash">1a05740166ea857799f1e97556cd2533</property>
    <property name="shotcut:caption">utp_cman.png</property>
    <property name="xml">was here</property>
    <property name="meta.shotcut.vui">1</property>
    <filter id="filter64" in="00:00:00.520" out="00:00:10.440">
      <property name="background">color:#00000000</property>
      <property name="mlt_service">affine</property>
      <property name="shotcut:filter">affineSizePosition</property>
      <property name="transition.fill">1</property>
      <property name="transition.distort">0</property>
      <property name="transition.rect">345.692 3.46154 731.643 778.846 1</property>
      <property name="transition.valign">middle</property>
      <property name="transition.halign">center</property>
      <property name="shotcut:animIn">00:00:00.000</property>
      <property name="shotcut:animOut">00:00:00.000</property>
      <property name="transition.threads">0</property>
    </filter>
    <filter id="filter65" in="00:00:00.520" out="00:00:10.440">
      <property name="argument">引用
https://note.cman.jp/network/lan_cable.cgi</property>
      <property name="geometry">353 661 715 111 1</property>
      <property name="family">Sans</property>
      <property name="size">540</property>
      <property name="weight">400</property>
      <property name="style">normal</property>
      <property name="fgcolour">#ff000000</property>
      <property name="bgcolour">#00000000</property>
      <property name="olcolour">#aa000000</property>
      <property name="pad">0</property>
      <property name="halign">left</property>
      <property name="valign">bottom</property>
      <property name="outline">3</property>
      <property name="opacity">1.0</property>
      <property name="mlt_service">dynamictext</property>
      <property name="shotcut:filter">dynamicText</property>
      <property name="shotcut:usePointSize">0</property>
      <property name="shotcut:animIn">00:00:00.000</property>
      <property name="shotcut:animOut">00:00:00.000</property>
    </filter>
  </producer>
  <producer id="producer27" in="00:00:00.000" out="03:59:59.960">
    <property name="length">04:00:00.000</property>
    <property name="eof">pause</property>
    <property name="resource">images/stp_cman.png</property>
    <property name="ttl">1</property>
    <property name="aspect_ratio">1</property>
    <property name="meta.media.progressive">1</property>
    <property name="seekable">1</property>
    <property name="format">2</property>
    <property name="meta.media.width">620</property>
    <property name="meta.media.height">660</property>
    <property name="mlt_service">qimage</property>
    <property name="creation_time">2023-12-19T01:06:43</property>
    <property name="shotcut:hash">2b536d1d4978f3202758f90d7d27893c</property>
    <property name="shotcut:caption">stp_cman.png</property>
    <property name="xml">was here</property>
    <property name="meta.shotcut.vui">1</property>
    <filter id="filter66" in="00:00:00.040" out="00:00:14.680">
      <property name="background">color:#00000000</property>
      <property name="mlt_service">affine</property>
      <property name="shotcut:filter">affineSizePosition</property>
      <property name="transition.fill">1</property>
      <property name="transition.distort">0</property>
      <property name="transition.rect">345.692 3.46154 731.643 778.846 1</property>
      <property name="transition.valign">middle</property>
      <property name="transition.halign">center</property>
      <property name="shotcut:animIn">00:00:00.000</property>
      <property name="shotcut:animOut">00:00:00.000</property>
      <property name="transition.threads">0</property>
      <property name="disable">0</property>
    </filter>
    <filter id="filter67" in="00:00:00.040" out="00:00:14.680">
      <property name="argument">引用
https://note.cman.jp/network/lan_cable.cgi</property>
      <property name="geometry">353 661 715 111 1</property>
      <property name="family">Sans</property>
      <property name="size">540</property>
      <property name="weight">400</property>
      <property name="style">normal</property>
      <property name="fgcolour">#ff000000</property>
      <property name="bgcolour">#00000000</property>
      <property name="olcolour">#aa000000</property>
      <property name="pad">0</property>
      <property name="halign">left</property>
      <property name="valign">bottom</property>
      <property name="outline">3</property>
      <property name="opacity">1.0</property>
      <property name="mlt_service">dynamictext</property>
      <property name="shotcut:filter">dynamicText</property>
      <property name="shotcut:usePointSize">0</property>
      <property name="shotcut:animIn">00:00:00.000</property>
      <property name="shotcut:animOut">00:00:00.000</property>
      <property name="disable">0</property>
    </filter>
  </producer>
  <tractor id="tractor6" in="00:00:00.000" out="00:00:00.000">
    <property name="shotcut:transition">lumaMix</property>
    <track producer="producer26" in="00:00:10.440" out="00:00:10.440"/>
    <track producer="producer27" in="00:00:00.040" out="00:00:00.040"/>
    <transition id="transition12">
      <property name="a_track">0</property>
      <property name="b_track">1</property>
      <property name="factory">loader</property>
      <property name="mlt_service">luma</property>
      <property name="alpha_over">1</property>
      <property name="fix_background_alpha">1</property>
    </transition>
    <transition id="transition13">
      <property name="a_track">0</property>
      <property name="b_track">1</property>
      <property name="mlt_service">mix</property>
      <property name="start">-1</property>
      <property name="accepts_blanks">1</property>
    </transition>
  </tractor>
  <producer id="producer28" in="00:00:00.000" out="03:59:59.960">
    <property name="length">04:00:00.000</property>
    <property name="eof">pause</property>
    <property name="resource">images/stp_cman.png</property>
    <property name="ttl">1</property>
    <property name="aspect_ratio">1</property>
    <property name="meta.media.progressive">1</property>
    <property name="seekable">1</property>
    <property name="format">2</property>
    <property name="meta.media.width">620</property>
    <property name="meta.media.height">660</property>
    <property name="mlt_service">qimage</property>
    <property name="creation_time">2023-12-19T01:06:43</property>
    <property name="shotcut:hash">2b536d1d4978f3202758f90d7d27893c</property>
    <property name="shotcut:caption">stp_cman.png</property>
    <property name="xml">was here</property>
    <property name="meta.shotcut.vui">1</property>
    <filter id="filter68" in="00:00:00.040" out="00:00:14.680">
      <property name="background">color:#00000000</property>
      <property name="mlt_service">affine</property>
      <property name="shotcut:filter">affineSizePosition</property>
      <property name="transition.fill">1</property>
      <property name="transition.distort">0</property>
      <property name="transition.rect">345.692 3.46154 731.643 778.846 1</property>
      <property name="transition.valign">middle</property>
      <property name="transition.halign">center</property>
      <property name="shotcut:animIn">00:00:00.000</property>
      <property name="shotcut:animOut">00:00:00.000</property>
      <property name="transition.threads">0</property>
      <property name="disable">0</property>
    </filter>
    <filter id="filter69" in="00:00:00.040" out="00:00:14.680">
      <property name="argument">引用
https://note.cman.jp/network/lan_cable.cgi</property>
      <property name="geometry">353 661 715 111 1</property>
      <property name="family">Sans</property>
      <property name="size">540</property>
      <property name="weight">400</property>
      <property name="style">normal</property>
      <property name="fgcolour">#ff000000</property>
      <property name="bgcolour">#00000000</property>
      <property name="olcolour">#aa000000</property>
      <property name="pad">0</property>
      <property name="halign">left</property>
      <property name="valign">bottom</property>
      <property name="outline">3</property>
      <property name="opacity">1.0</property>
      <property name="mlt_service">dynamictext</property>
      <property name="shotcut:filter">dynamicText</property>
      <property name="shotcut:usePointSize">0</property>
      <property name="shotcut:animIn">00:00:00.000</property>
      <property name="shotcut:animOut">00:00:00.000</property>
      <property name="disable">0</property>
    </filter>
  </producer>
  <producer id="producer29" in="00:00:00.000" out="03:59:59.960">
    <property name="length">04:00:00.000</property>
    <property name="eof">pause</property>
    <property name="resource">images/hato-hohou.png</property>
    <property name="ttl">1</property>
    <property name="aspect_ratio">1</property>
    <property name="meta.media.progressive">1</property>
    <property name="seekable">1</property>
    <property name="format">2</property>
    <property name="meta.media.width">468</property>
    <property name="meta.media.height">468</property>
    <property name="mlt_service">qimage</property>
    <property name="creation_time">2023-12-19T00:57:51</property>
    <property name="shotcut:hash">d6402392d918909ae2f2b84360953ca6</property>
    <property name="shotcut:caption">hato-hohou.png</property>
    <property name="meta.shotcut.vui">1</property>
    <property name="xml">was here</property>
    <filter id="filter70" out="00:00:04.000">
      <property name="background">color:#00000000</property>
      <property name="mlt_service">affine</property>
      <property name="shotcut:filter">affineSizePosition</property>
      <property name="transition.fill">1</property>
      <property name="transition.distort">0</property>
      <property name="transition.rect">967 3 422 422 1</property>
      <property name="transition.valign">middle</property>
      <property name="transition.halign">center</property>
      <property name="shotcut:animIn">00:00:00.000</property>
      <property name="shotcut:animOut">00:00:00.000</property>
      <property name="transition.threads">0</property>
      <property name="transition.fix_rotate_x">0</property>
    </filter>
    <filter id="filter71" in="00:00:00.240" out="00:00:04.000">
      <property name="start">1</property>
      <property name="level">1</property>
      <property name="mlt_service">brightness</property>
      <property name="shotcut:filter">fadeInBrightness</property>
      <property name="alpha">00:00:00.000=0;00:00:01.000=1</property>
      <property name="shotcut:animIn">26</property>
    </filter>
    <filter id="filter72" in="00:00:00.240" out="00:00:04.000">
      <property name="start">1</property>
      <property name="level">1</property>
      <property name="mlt_service">brightness</property>
      <property name="shotcut:filter">fadeOutBrightness</property>
      <property name="alpha">00:00:02.720=1;00:00:03.760=0</property>
      <property name="shotcut:animOut">27</property>
    </filter>
  </producer>
  <producer id="producer30" in="00:00:00.000" out="03:59:59.960">
    <property name="length">04:00:00.000</property>
    <property name="eof">pause</property>
    <property name="resource">images/irasutoya-lan.png</property>
    <property name="ttl">1</property>
    <property name="aspect_ratio">1</property>
    <property name="meta.media.progressive">1</property>
    <property name="seekable">1</property>
    <property name="format">2</property>
    <property name="meta.media.width">400</property>
    <property name="meta.media.height">400</property>
    <property name="mlt_service">qimage</property>
    <property name="creation_time">2023-12-17T23:52:51</property>
    <property name="shotcut:hash">3dd2c5ca6b6c0eb1f5784efca226632e</property>
    <property name="shotcut:caption">irasutoya-lan.png</property>
    <property name="meta.shotcut.vui">1</property>
    <property name="xml">was here</property>
    <filter id="filter73" out="00:00:06.000">
      <property name="background">color:#00000000</property>
      <property name="mlt_service">affine</property>
      <property name="shotcut:filter">affineSizePosition</property>
      <property name="transition.fill">1</property>
      <property name="transition.distort">0</property>
      <property name="transition.rect">967 3 422 422 1</property>
      <property name="transition.valign">middle</property>
      <property name="transition.halign">center</property>
      <property name="shotcut:animIn">00:00:00.000</property>
      <property name="shotcut:animOut">00:00:00.000</property>
      <property name="transition.threads">0</property>
      <property name="transition.fix_rotate_x">0</property>
    </filter>
    <filter id="filter74" out="00:00:06.000">
      <property name="start">1</property>
      <property name="level">1</property>
      <property name="mlt_service">brightness</property>
      <property name="shotcut:filter">fadeInBrightness</property>
      <property name="alpha">00:00:00.000=0;00:00:01.000=1</property>
      <property name="shotcut:animIn">26</property>
    </filter>
  </producer>
  <producer id="producer31" in="00:00:00.000" out="03:59:59.960">
    <property name="length">04:00:00.000</property>
    <property name="eof">pause</property>
    <property name="resource">#00000000</property>
    <property name="aspect_ratio">1</property>
    <property name="mlt_service">color</property>
    <property name="mlt_image_format">rgba</property>
    <property name="shotcut:caption">transparent</property>
    <property name="shotcut:detail">transparent</property>
    <property name="xml">was here</property>
    <property name="seekable">1</property>
    <property name="meta.shotcut.vui">1</property>
    <filter id="filter143" in="00:00:01.000" out="00:00:09.280">
      <property name="argument">Cat </property>
      <property name="geometry">00:00:00.000=413 166 1040 665 1;00:00:04.320=413 166 1040 665 1;00:00:07.800=243 -0 452 277 1</property>
      <property name="family">Hiragino Sans</property>
      <property name="size">288</property>
      <property name="weight">900</property>
      <property name="style">normal</property>
      <property name="fgcolour">#ffffffff</property>
      <property name="bgcolour">#00000000</property>
      <property name="olcolour">#aa000000</property>
      <property name="pad">0</property>
      <property name="halign">left</property>
      <property name="valign">middle</property>
      <property name="outline">3</property>
      <property name="opacity">1</property>
      <property name="mlt_service">dynamictext</property>
      <property name="shotcut:filter">dynamicText</property>
      <property name="shotcut:usePointSize">1</property>
      <property name="shotcut:pointSize">288</property>
      <property name="disable">0</property>
    </filter>
  </producer>
  <producer id="producer32" in="00:00:00.000" out="03:59:59.960">
    <property name="length">04:00:00.000</property>
    <property name="eof">pause</property>
    <property name="resource">images/cat-table_pcwatch.png</property>
    <property name="ttl">1</property>
    <property name="aspect_ratio">1</property>
    <property name="meta.media.progressive">1</property>
    <property name="seekable">1</property>
    <property name="format">2</property>
    <property name="meta.media.width">926</property>
    <property name="meta.media.height">562</property>
    <property name="mlt_service">qimage</property>
    <property name="creation_time">2023-12-18T06:57:19</property>
    <property name="shotcut:hash">6c5e20f6363fdec1314e0c1d628d4423</property>
    <property name="xml">was here</property>
    <property name="shotcut:caption">cat-table_pcwatch.png</property>
    <property name="meta.shotcut.vui">1</property>
    <filter id="filter75" out="00:00:30.640">
      <property name="background">color:#00000000</property>
      <property name="mlt_service">affine</property>
      <property name="shotcut:filter">affineSizePosition</property>
      <property name="transition.fill">1</property>
      <property name="transition.distort">0</property>
      <property name="transition.rect">236.154 197.308 958.193 581.538 1</property>
      <property name="transition.valign">middle</property>
      <property name="transition.halign">center</property>
      <property name="shotcut:animIn">00:00:00.000</property>
      <property name="shotcut:animOut">00:00:00.000</property>
      <property name="transition.threads">0</property>
      <property name="disable">0</property>
    </filter>
    <filter id="filter76" out="00:00:30.640">
      <property name="argument">Cat </property>
      <property name="geometry">243 0 452 277 1</property>
      <property name="family">Hiragino Sans</property>
      <property name="size">288</property>
      <property name="weight">900</property>
      <property name="style">normal</property>
      <property name="fgcolour">#ffffffff</property>
      <property name="bgcolour">#00000000</property>
      <property name="olcolour">#aa000000</property>
      <property name="pad">0</property>
      <property name="halign">left</property>
      <property name="valign">middle</property>
      <property name="outline">3</property>
      <property name="opacity">1</property>
      <property name="mlt_service">dynamictext</property>
      <property name="shotcut:filter">dynamicText</property>
      <property name="shotcut:usePointSize">1</property>
      <property name="shotcut:pointSize">288</property>
      <property name="disable">0</property>
    </filter>
    <filter id="filter77" out="00:00:30.640">
      <property name="argument">とは</property>
      <property name="geometry">658 51 373 187 1</property>
      <property name="family">Hiragino Sans</property>
      <property name="size">144</property>
      <property name="weight">700</property>
      <property name="style">normal</property>
      <property name="fgcolour">#ffffffff</property>
      <property name="bgcolour">#00000000</property>
      <property name="olcolour">#aa000000</property>
      <property name="pad">0</property>
      <property name="halign">left</property>
      <property name="valign">middle</property>
      <property name="outline">3</property>
      <property name="opacity">1</property>
      <property name="mlt_service">dynamictext</property>
      <property name="shotcut:filter">dynamicText</property>
      <property name="shotcut:usePointSize">1</property>
      <property name="shotcut:pointSize">144</property>
    </filter>
  </producer>
  <producer id="producer33" in="00:00:00.000" out="03:59:59.960">
    <property name="length">04:00:00.000</property>
    <property name="eof">pause</property>
    <property name="resource">images/lan-def_ewords.png</property>
    <property name="ttl">1</property>
    <property name="aspect_ratio">1</property>
    <property name="meta.media.progressive">1</property>
    <property name="seekable">1</property>
    <property name="format">2</property>
    <property name="meta.media.width">1024</property>
    <property name="meta.media.height">364</property>
    <property name="mlt_service">qimage</property>
    <property name="creation_time">2023-12-18T06:59:42</property>
    <property name="shotcut:hash">c6266be93066b0b8a1258ce4928124e9</property>
    <property name="xml">was here</property>
    <property name="shotcut:caption">lan-def_ewords.png</property>
    <property name="meta.shotcut.vui">1</property>
    <filter id="filter78" out="00:00:09.600">
      <property name="background">color:#00000000</property>
      <property name="mlt_service">affine</property>
      <property name="shotcut:filter">affineSizePosition</property>
      <property name="transition.fill">1</property>
      <property name="transition.distort">0</property>
      <property name="transition.rect">2.37194 6.46154 782.304 278.085 1</property>
      <property name="transition.valign">middle</property>
      <property name="transition.halign">center</property>
      <property name="shotcut:animIn">00:00:00.000</property>
      <property name="shotcut:animOut">00:00:00.000</property>
      <property name="transition.threads">0</property>
      <property name="transition.fix_rotate_x">0</property>
    </filter>
    <filter id="filter79" out="00:00:09.600">
      <property name="start">1</property>
      <property name="level">1</property>
      <property name="mlt_service">brightness</property>
      <property name="shotcut:filter">fadeInBrightness</property>
      <property name="alpha">00:00:00.000=0;00:00:01.000=1</property>
      <property name="shotcut:animIn">26</property>
    </filter>
    <filter id="filter80" out="00:00:09.600">
      <property name="start">1</property>
      <property name="level">1</property>
      <property name="mlt_service">brightness</property>
      <property name="shotcut:filter">fadeOutBrightness</property>
      <property name="alpha">00:00:08.560=1;00:00:09.600=0</property>
      <property name="shotcut:animOut">27</property>
    </filter>
    <filter id="filter81" out="00:00:09.600">
      <property name="argument">引用：https://pc.watch.impress.co.jp/docs/topic/feature/1328323.html</property>
      <property name="geometry">42 166 715 111 1</property>
      <property name="family">Sans</property>
      <property name="size">1080</property>
      <property name="weight">400</property>
      <property name="style">normal</property>
      <property name="fgcolour">#ff000000</property>
      <property name="bgcolour">#00000000</property>
      <property name="olcolour">#aa000000</property>
      <property name="pad">0</property>
      <property name="halign">left</property>
      <property name="valign">bottom</property>
      <property name="outline">3</property>
      <property name="opacity">00:00:01.000=0;00:00:02.000=1;00:00:06.000=1;00:00:07.000=0</property>
      <property name="mlt_service">dynamictext</property>
      <property name="shotcut:filter">dynamicText</property>
      <property name="shotcut:usePointSize">0</property>
      <property name="shotcut:animIn">00:00:00.000</property>
      <property name="shotcut:animOut">00:00:00.000</property>
      <property name="disable">0</property>
    </filter>
  </producer>
  <producer id="producer34" in="00:00:00.000" out="03:59:59.960">
    <property name="length">04:00:00.000</property>
    <property name="eof">pause</property>
    <property name="resource">images/irasutoya-programmer.png</property>
    <property name="ttl">1</property>
    <property name="aspect_ratio">1</property>
    <property name="meta.media.progressive">1</property>
    <property name="seekable">1</property>
    <property name="format">2</property>
    <property name="meta.media.width">400</property>
    <property name="meta.media.height">321</property>
    <property name="mlt_service">qimage</property>
    <property name="creation_time">2023-12-18T07:03:12</property>
    <property name="shotcut:hash">076e478ebaf23a3df81fa7417f2b7454</property>
    <property name="xml">was here</property>
    <property name="shotcut:caption">irasutoya-programmer.png</property>
    <property name="meta.shotcut.vui">1</property>
    <filter id="filter82" out="00:00:03.960">
      <property name="background">color:#00000000</property>
      <property name="mlt_service">affine</property>
      <property name="shotcut:filter">affineSizePosition</property>
      <property name="transition.fill">1</property>
      <property name="transition.distort">0</property>
      <property name="transition.rect">890.846 3 422 338.655 1</property>
      <property name="transition.valign">middle</property>
      <property name="transition.halign">center</property>
      <property name="shotcut:animIn">00:00:00.000</property>
      <property name="shotcut:animOut">00:00:00.000</property>
      <property name="transition.threads">0</property>
      <property name="transition.fix_rotate_x">0</property>
      <property name="disable">0</property>
    </filter>
    <filter id="filter83" out="00:00:03.960">
      <property name="start">1</property>
      <property name="level">1</property>
      <property name="mlt_service">brightness</property>
      <property name="shotcut:filter">fadeInBrightness</property>
      <property name="alpha">00:00:00.000=0;00:00:01.000=1</property>
      <property name="shotcut:animIn">26</property>
    </filter>
    <filter id="filter84" out="00:00:03.960">
      <property name="start">1</property>
      <property name="level">1</property>
      <property name="mlt_service">brightness</property>
      <property name="shotcut:filter">fadeOutBrightness</property>
      <property name="alpha">00:00:02.920=1;00:00:03.960=0</property>
      <property name="shotcut:animOut">27</property>
    </filter>
  </producer>
  <producer id="producer35" in="00:00:00.000" out="03:59:59.960">
    <property name="length">04:00:00.000</property>
    <property name="eof">pause</property>
    <property name="resource">images/straight-cross_vsq.png</property>
    <property name="ttl">1</property>
    <property name="aspect_ratio">1</property>
    <property name="meta.media.progressive">1</property>
    <property name="seekable">1</property>
    <property name="format">2</property>
    <property name="meta.media.width">1000</property>
    <property name="meta.media.height">400</property>
    <property name="mlt_service">qimage</property>
    <property name="creation_time">2023-12-18T03:29:26</property>
    <property name="shotcut:hash">5e0e680ebfea2d31c8202177a7d32b24</property>
    <property name="shotcut:caption">straight-cross_vsq.png</property>
    <property name="meta.shotcut.vui">1</property>
    <property name="xml">was here</property>
    <filter id="filter85" out="00:00:05.800">
      <property name="background">color:#00000000</property>
      <property name="mlt_service">affine</property>
      <property name="shotcut:filter">affineSizePosition</property>
      <property name="transition.fill">1</property>
      <property name="transition.distort">0</property>
      <property name="transition.rect">0 156 1392.12 556.846 1</property>
      <property name="transition.valign">middle</property>
      <property name="transition.halign">center</property>
      <property name="shotcut:animIn">00:00:00.000</property>
      <property name="shotcut:animOut">00:00:00.000</property>
      <property name="transition.threads">0</property>
    </filter>
    <filter id="filter86" out="00:00:05.800">
      <property name="argument">引用
https://vsq.co.jp/special/tips_cable_lan/</property>
      <property name="geometry">14 547 992 156 1</property>
      <property name="family">Sans</property>
      <property name="size">540</property>
      <property name="weight">400</property>
      <property name="style">normal</property>
      <property name="fgcolour">#ff000000</property>
      <property name="bgcolour">#00000000</property>
      <property name="olcolour">#aa000000</property>
      <property name="pad">0</property>
      <property name="halign">left</property>
      <property name="valign">bottom</property>
      <property name="outline">3</property>
      <property name="opacity">1.0</property>
      <property name="mlt_service">dynamictext</property>
      <property name="shotcut:filter">dynamicText</property>
      <property name="shotcut:usePointSize">0</property>
      <property name="shotcut:animIn">00:00:00.000</property>
      <property name="shotcut:animOut">00:00:00.000</property>
    </filter>
    <filter id="filter87" out="00:00:05.800">
      <property name="start">1</property>
      <property name="level">1</property>
      <property name="mlt_service">brightness</property>
      <property name="shotcut:filter">fadeInBrightness</property>
      <property name="alpha">00:00:00.000=0;00:00:01.000=1</property>
      <property name="shotcut:animIn">26</property>
    </filter>
    <filter id="filter88" out="00:00:05.800">
      <property name="start">1</property>
      <property name="level">1</property>
      <property name="mlt_service">brightness</property>
      <property name="shotcut:filter">fadeOutBrightness</property>
      <property name="alpha">00:00:04.760=1;00:00:05.800=0</property>
      <property name="shotcut:animOut">27</property>
    </filter>
  </producer>
  <producer id="producer159" in="00:00:00.000" out="03:59:59.960">
    <property name="length">04:00:00.000</property>
    <property name="eof">pause</property>
    <property name="resource">#00000000</property>
    <property name="aspect_ratio">1</property>
    <property name="mlt_service">color</property>
    <property name="mlt_image_format">rgba</property>
    <property name="shotcut:caption">transparent</property>
    <property name="shotcut:detail">transparent</property>
    <property name="xml">was here</property>
    <property name="seekable">1</property>
    <property name="meta.shotcut.vui">1</property>
    <filter id="filter159" out="00:00:04.560">
      <property name="argument">MDI　MDI-X</property>
      <property name="geometry">4 4 1384 775 1</property>
      <property name="family">Hiragino Sans</property>
      <property name="size">288</property>
      <property name="weight">900</property>
      <property name="style">normal</property>
      <property name="fgcolour">#ffffffff</property>
      <property name="bgcolour">#00000000</property>
      <property name="olcolour">#aa000000</property>
      <property name="pad">0</property>
      <property name="halign">left</property>
      <property name="valign">middle</property>
      <property name="outline">3</property>
      <property name="opacity">1</property>
      <property name="mlt_service">dynamictext</property>
      <property name="shotcut:filter">dynamicText</property>
      <property name="shotcut:usePointSize">1</property>
      <property name="shotcut:pointSize">288</property>
    </filter>
    <filter id="filter89" out="00:00:04.560">
      <property name="start">1</property>
      <property name="level">1</property>
      <property name="mlt_service">brightness</property>
      <property name="shotcut:filter">fadeInBrightness</property>
      <property name="alpha">00:00:00.000=0;00:00:01.000=1</property>
      <property name="shotcut:animIn">26</property>
    </filter>
    <filter id="filter90" out="00:00:04.560">
      <property name="start">1</property>
      <property name="level">1</property>
      <property name="mlt_service">brightness</property>
      <property name="shotcut:filter">fadeOutBrightness</property>
      <property name="alpha">00:00:03.520=1;00:00:04.560=0</property>
      <property name="shotcut:animOut">27</property>
    </filter>
  </producer>
  <producer id="producer36" in="00:00:00.000" out="03:59:59.960">
    <property name="length">04:00:00.000</property>
    <property name="eof">pause</property>
    <property name="resource">images/non-auto-mdi.png</property>
    <property name="ttl">1</property>
    <property name="aspect_ratio">1</property>
    <property name="meta.media.progressive">1</property>
    <property name="seekable">1</property>
    <property name="format">2</property>
    <property name="meta.media.width">440</property>
    <property name="meta.media.height">420</property>
    <property name="mlt_service">qimage</property>
    <property name="creation_time">2023-12-18T07:06:56</property>
    <property name="shotcut:hash">da2bbc70b908d9ff3b81fb58445f1d9e</property>
    <property name="xml">was here</property>
    <property name="shotcut:caption">non-auto-mdi.png</property>
    <property name="meta.shotcut.vui">1</property>
    <filter id="filter91" out="00:00:15.760">
      <property name="background">color:#00000000</property>
      <property name="mlt_service">affine</property>
      <property name="shotcut:filter">affineSizePosition</property>
      <property name="transition.fill">1</property>
      <property name="transition.distort">0</property>
      <property name="transition.rect">908.978 -0.461538 480.022 458.203 1</property>
      <property name="transition.valign">middle</property>
      <property name="transition.halign">center</property>
      <property name="shotcut:animIn">00:00:00.000</property>
      <property name="shotcut:animOut">00:00:00.000</property>
      <property name="transition.threads">0</property>
      <property name="transition.fix_rotate_x">0</property>
      <property name="disable">0</property>
    </filter>
    <filter id="filter92" out="00:00:15.760">
      <property name="start">1</property>
      <property name="level">1</property>
      <property name="mlt_service">brightness</property>
      <property name="shotcut:filter">fadeInBrightness</property>
      <property name="alpha">00:00:00.000=0;00:00:01.000=1</property>
      <property name="shotcut:animIn">26</property>
      <property name="disable">0</property>
    </filter>
    <filter id="filter93" out="00:00:15.760">
      <property name="start">1</property>
      <property name="level">1</property>
      <property name="mlt_service">brightness</property>
      <property name="shotcut:filter">fadeOutBrightness</property>
      <property name="alpha">00:00:14.720=1;00:00:15.760=0</property>
      <property name="shotcut:animOut">27</property>
      <property name="disable">0</property>
    </filter>
    <filter id="filter94" out="00:00:15.760">
      <property name="argument">引用：https://www.nw-siken.com/kakomon/28_aki/am2_1.html</property>
      <property name="geometry">921 263 463 190 1</property>
      <property name="family">Sans</property>
      <property name="size">1080</property>
      <property name="weight">400</property>
      <property name="style">normal</property>
      <property name="fgcolour">#ff000000</property>
      <property name="bgcolour">#00000000</property>
      <property name="olcolour">#aa000000</property>
      <property name="pad">0</property>
      <property name="halign">center</property>
      <property name="valign">bottom</property>
      <property name="outline">3</property>
      <property name="opacity">1.0</property>
      <property name="mlt_service">dynamictext</property>
      <property name="shotcut:filter">dynamicText</property>
      <property name="shotcut:usePointSize">0</property>
      <property name="shotcut:animIn">00:00:00.000</property>
      <property name="shotcut:animOut">00:00:00.000</property>
    </filter>
  </producer>
  <producer id="producer37" in="00:00:00.000" out="03:59:59.960">
    <property name="length">04:00:00.000</property>
    <property name="eof">pause</property>
    <property name="resource">images/auto-mdi.png</property>
    <property name="ttl">1</property>
    <property name="aspect_ratio">1</property>
    <property name="meta.media.progressive">1</property>
    <property name="seekable">1</property>
    <property name="format">2</property>
    <property name="meta.media.width">538</property>
    <property name="meta.media.height">456</property>
    <property name="mlt_service">qimage</property>
    <property name="creation_time">2023-12-18T07:08:01</property>
    <property name="shotcut:hash">fd000409f1defc210db426c23e0ffa8a</property>
    <property name="xml">was here</property>
    <property name="shotcut:caption">auto-mdi.png</property>
    <property name="meta.shotcut.vui">1</property>
    <filter id="filter95" out="00:00:39.320">
      <property name="background">color:#00000000</property>
      <property name="mlt_service">affine</property>
      <property name="shotcut:filter">affineSizePosition</property>
      <property name="transition.fill">1</property>
      <property name="transition.distort">0</property>
      <property name="transition.rect">852.648 3 536.352 454.603 1</property>
      <property name="transition.valign">middle</property>
      <property name="transition.halign">center</property>
      <property name="shotcut:animIn">00:00:00.000</property>
      <property name="shotcut:animOut">00:00:00.000</property>
      <property name="transition.threads">0</property>
      <property name="transition.fix_rotate_x">0</property>
    </filter>
    <filter id="filter96" out="00:00:39.320">
      <property name="start">1</property>
      <property name="level">1</property>
      <property name="mlt_service">brightness</property>
      <property name="shotcut:filter">fadeInBrightness</property>
      <property name="alpha">00:00:00.000=0;00:00:01.000=1</property>
      <property name="shotcut:animIn">26</property>
    </filter>
    <filter id="filter97" out="00:00:39.320">
      <property name="start">1</property>
      <property name="level">1</property>
      <property name="mlt_service">brightness</property>
      <property name="shotcut:filter">fadeOutBrightness</property>
      <property name="alpha">00:00:38.280=1;00:00:39.320=0</property>
      <property name="shotcut:animOut">27</property>
    </filter>
    <filter id="filter98" out="00:00:39.320">
      <property name="argument">引用：https://www.nw-siken.com/kakomon/28_aki/am2_1.html</property>
      <property name="geometry">865 260 463 190 1</property>
      <property name="family">Sans</property>
      <property name="size">1080</property>
      <property name="weight">400</property>
      <property name="style">normal</property>
      <property name="fgcolour">#ff000000</property>
      <property name="bgcolour">#00000000</property>
      <property name="olcolour">#aa000000</property>
      <property name="pad">0</property>
      <property name="halign">center</property>
      <property name="valign">bottom</property>
      <property name="outline">3</property>
      <property name="opacity">1.0</property>
      <property name="mlt_service">dynamictext</property>
      <property name="shotcut:filter">dynamicText</property>
      <property name="shotcut:usePointSize">0</property>
      <property name="shotcut:animIn">00:00:00.000</property>
      <property name="shotcut:animOut">00:00:00.000</property>
      <property name="disable">1</property>
    </filter>
  </producer>
  <producer id="producer39" in="00:00:00.000" out="03:59:59.960">
    <property name="length">04:00:00.000</property>
    <property name="eof">pause</property>
    <property name="resource">images/rj-45-arrange_ewords.png</property>
    <property name="ttl">1</property>
    <property name="aspect_ratio">1</property>
    <property name="meta.media.progressive">1</property>
    <property name="seekable">1</property>
    <property name="format">1</property>
    <property name="meta.media.width">200</property>
    <property name="meta.media.height">200</property>
    <property name="mlt_service">qimage</property>
    <property name="creation_time">2023-12-18T06:51:02</property>
    <property name="shotcut:hash">180e13cbde1e10aed222d8aa56e58293</property>
    <property name="shotcut:caption">rj-45-arrange_ewords.png</property>
    <property name="xml">was here</property>
    <property name="meta.shotcut.vui">1</property>
    <filter id="filter99" out="00:00:17.520">
      <property name="background">color:#00000000</property>
      <property name="mlt_service">affine</property>
      <property name="shotcut:filter">affineSizePosition</property>
      <property name="transition.fill">1</property>
      <property name="transition.distort">0</property>
      <property name="transition.rect">966.923 3.46154 422.308 422.308 1</property>
      <property name="transition.valign">middle</property>
      <property name="transition.halign">center</property>
      <property name="shotcut:animIn">00:00:00.000</property>
      <property name="shotcut:animOut">00:00:00.000</property>
      <property name="transition.threads">0</property>
      <property name="transition.fix_rotate_x">0</property>
    </filter>
    <filter id="filter100" out="00:00:17.520">
      <property name="argument">ざっくり説明すると，序盤で表示したこの左の画像にて
クロスケーブルにするには，緑と橙を入れ替えれば良い</property>
      <property name="geometry">55 0 899 277 1</property>
      <property name="family">Hiragino Sans</property>
      <property name="size">540</property>
      <property name="weight">900</property>
      <property name="style">normal</property>
      <property name="fgcolour">#ffffffff</property>
      <property name="bgcolour">#00000000</property>
      <property name="olcolour">#aa000000</property>
      <property name="pad">0</property>
      <property name="halign">center</property>
      <property name="valign">middle</property>
      <property name="outline">3</property>
      <property name="opacity">1.0</property>
      <property name="mlt_service">dynamictext</property>
      <property name="shotcut:filter">dynamicText</property>
      <property name="shotcut:usePointSize">0</property>
      <property name="shotcut:animIn">00:00:00.000</property>
      <property name="shotcut:animOut">00:00:00.000</property>
    </filter>
    <filter id="filter101" out="00:00:17.520">
      <property name="start">1</property>
      <property name="level">1</property>
      <property name="mlt_service">brightness</property>
      <property name="shotcut:filter">fadeInBrightness</property>
      <property name="alpha">00:00:00.000=0;00:00:01.000=1</property>
      <property name="shotcut:animIn">26</property>
    </filter>
    <filter id="filter102" out="00:00:17.520">
      <property name="start">1</property>
      <property name="level">1</property>
      <property name="mlt_service">brightness</property>
      <property name="shotcut:filter">fadeOutBrightness</property>
      <property name="alpha">00:00:16.480=1;00:00:17.520=0</property>
      <property name="shotcut:animOut">27</property>
    </filter>
  </producer>
  <producer id="producer38" in="00:00:00.000" out="03:59:59.960">
    <property name="length">04:00:00.000</property>
    <property name="eof">pause</property>
    <property name="resource">#00000000</property>
    <property name="aspect_ratio">1</property>
    <property name="mlt_service">color</property>
    <property name="mlt_image_format">rgba</property>
    <property name="shotcut:caption">transparent</property>
    <property name="shotcut:detail">transparent</property>
    <property name="xml">was here</property>
    <property name="seekable">1</property>
    <property name="meta.shotcut.vui">1</property>
    <filter id="filter103" in="00:00:00.960" out="00:00:01.960">
      <property name="argument">・</property>
      <property name="geometry">371 834 1505 211 1</property>
      <property name="family">Hiragino Sans</property>
      <property name="size">144</property>
      <property name="weight">900</property>
      <property name="style">normal</property>
      <property name="fgcolour">#ffffffff</property>
      <property name="bgcolour">#00000000</property>
      <property name="olcolour">#aa000000</property>
      <property name="pad">0</property>
      <property name="halign">left</property>
      <property name="valign">middle</property>
      <property name="outline">3</property>
      <property name="opacity">1</property>
      <property name="mlt_service">dynamictext</property>
      <property name="shotcut:filter">dynamicText</property>
      <property name="shotcut:usePointSize">1</property>
      <property name="shotcut:pointSize">144</property>
    </filter>
  </producer>
  <producer id="producer40" in="00:00:00.000" out="03:59:59.960">
    <property name="length">04:00:00.000</property>
    <property name="eof">pause</property>
    <property name="resource">#00000000</property>
    <property name="aspect_ratio">1</property>
    <property name="mlt_service">color</property>
    <property name="mlt_image_format">rgba</property>
    <property name="shotcut:caption">transparent</property>
    <property name="shotcut:detail">transparent</property>
    <property name="xml">was here</property>
    <property name="seekable">1</property>
    <property name="meta.shotcut.vui">1</property>
    <filter id="filter104" in="00:00:00.960" out="00:00:01.960">
      <property name="argument">・・</property>
      <property name="geometry">371 834 1505 211 1</property>
      <property name="family">Hiragino Sans</property>
      <property name="size">144</property>
      <property name="weight">900</property>
      <property name="style">normal</property>
      <property name="fgcolour">#ffffffff</property>
      <property name="bgcolour">#00000000</property>
      <property name="olcolour">#aa000000</property>
      <property name="pad">0</property>
      <property name="halign">left</property>
      <property name="valign">middle</property>
      <property name="outline">3</property>
      <property name="opacity">1</property>
      <property name="mlt_service">dynamictext</property>
      <property name="shotcut:filter">dynamicText</property>
      <property name="shotcut:usePointSize">1</property>
      <property name="shotcut:pointSize">144</property>
    </filter>
  </producer>
  <producer id="producer41" in="00:00:00.000" out="03:59:59.960">
    <property name="length">04:00:00.000</property>
    <property name="eof">pause</property>
    <property name="resource">#00000000</property>
    <property name="aspect_ratio">1</property>
    <property name="mlt_service">color</property>
    <property name="mlt_image_format">rgba</property>
    <property name="shotcut:caption">transparent</property>
    <property name="shotcut:detail">transparent</property>
    <property name="xml">was here</property>
    <property name="seekable">1</property>
    <property name="meta.shotcut.vui">1</property>
    <filter id="filter105" in="00:00:00.960" out="00:00:01.960">
      <property name="argument">・・・</property>
      <property name="geometry">371 834 1505 211 1</property>
      <property name="family">Hiragino Sans</property>
      <property name="size">144</property>
      <property name="weight">900</property>
      <property name="style">normal</property>
      <property name="fgcolour">#ffffffff</property>
      <property name="bgcolour">#00000000</property>
      <property name="olcolour">#aa000000</property>
      <property name="pad">0</property>
      <property name="halign">left</property>
      <property name="valign">middle</property>
      <property name="outline">3</property>
      <property name="opacity">1</property>
      <property name="mlt_service">dynamictext</property>
      <property name="shotcut:filter">dynamicText</property>
      <property name="shotcut:usePointSize">1</property>
      <property name="shotcut:pointSize">144</property>
    </filter>
  </producer>
  <producer id="producer42" in="00:00:00.000" out="03:59:59.960">
    <property name="length">04:00:00.000</property>
    <property name="eof">pause</property>
    <property name="resource">#00000000</property>
    <property name="aspect_ratio">1</property>
    <property name="mlt_service">color</property>
    <property name="mlt_image_format">rgba</property>
    <property name="shotcut:caption">transparent</property>
    <property name="shotcut:detail">transparent</property>
    <property name="xml">was here</property>
    <property name="seekable">1</property>
    <property name="meta.shotcut.vui">1</property>
    <filter id="filter106" in="00:00:00.960" out="00:00:01.960">
      <property name="argument">・・・・</property>
      <property name="geometry">371 834 1505 211 1</property>
      <property name="family">Hiragino Sans</property>
      <property name="size">144</property>
      <property name="weight">900</property>
      <property name="style">normal</property>
      <property name="fgcolour">#ffffffff</property>
      <property name="bgcolour">#00000000</property>
      <property name="olcolour">#aa000000</property>
      <property name="pad">0</property>
      <property name="halign">left</property>
      <property name="valign">middle</property>
      <property name="outline">3</property>
      <property name="opacity">1</property>
      <property name="mlt_service">dynamictext</property>
      <property name="shotcut:filter">dynamicText</property>
      <property name="shotcut:usePointSize">1</property>
      <property name="shotcut:pointSize">144</property>
    </filter>
  </producer>
  <producer id="producer43" in="00:00:00.000" out="03:59:59.960">
    <property name="length">04:00:00.000</property>
    <property name="eof">pause</property>
    <property name="resource">#00000000</property>
    <property name="aspect_ratio">1</property>
    <property name="mlt_service">color</property>
    <property name="mlt_image_format">rgba</property>
    <property name="shotcut:caption">transparent</property>
    <property name="shotcut:detail">transparent</property>
    <property name="xml">was here</property>
    <property name="seekable">1</property>
    <property name="meta.shotcut.vui">1</property>
    <filter id="filter107" in="00:00:00.960" out="00:00:01.960">
      <property name="argument">・・・・・</property>
      <property name="geometry">371 834 1505 211 1</property>
      <property name="family">Hiragino Sans</property>
      <property name="size">144</property>
      <property name="weight">900</property>
      <property name="style">normal</property>
      <property name="fgcolour">#ffffffff</property>
      <property name="bgcolour">#00000000</property>
      <property name="olcolour">#aa000000</property>
      <property name="pad">0</property>
      <property name="halign">left</property>
      <property name="valign">middle</property>
      <property name="outline">3</property>
      <property name="opacity">1</property>
      <property name="mlt_service">dynamictext</property>
      <property name="shotcut:filter">dynamicText</property>
      <property name="shotcut:usePointSize">1</property>
      <property name="shotcut:pointSize">144</property>
    </filter>
  </producer>
  <producer id="producer44" in="00:00:00.000" out="03:59:59.960">
    <property name="length">04:00:00.000</property>
    <property name="eof">pause</property>
    <property name="resource">#00000000</property>
    <property name="aspect_ratio">1</property>
    <property name="mlt_service">color</property>
    <property name="mlt_image_format">rgba</property>
    <property name="shotcut:caption">transparent</property>
    <property name="shotcut:detail">transparent</property>
    <property name="xml">was here</property>
    <property name="seekable">1</property>
    <property name="meta.shotcut.vui">1</property>
    <filter id="filter108" in="00:00:00.960" out="00:00:02.600">
      <property name="argument">がーんばれ()
</property>
      <property name="geometry">371 834 1505 211 1</property>
      <property name="family">Hiragino Sans</property>
      <property name="size">144</property>
      <property name="weight">900</property>
      <property name="style">normal</property>
      <property name="fgcolour">#ffffffff</property>
      <property name="bgcolour">#00000000</property>
      <property name="olcolour">#aa000000</property>
      <property name="pad">0</property>
      <property name="halign">left</property>
      <property name="valign">middle</property>
      <property name="outline">3</property>
      <property name="opacity">1</property>
      <property name="mlt_service">dynamictext</property>
      <property name="shotcut:filter">dynamicText</property>
      <property name="shotcut:usePointSize">1</property>
      <property name="shotcut:pointSize">144</property>
    </filter>
  </producer>
  <producer id="producer45" in="00:00:00.000" out="03:59:59.960">
    <property name="length">04:00:00.000</property>
    <property name="eof">pause</property>
    <property name="resource">#00000000</property>
    <property name="aspect_ratio">1</property>
    <property name="mlt_service">color</property>
    <property name="mlt_image_format">rgba</property>
    <property name="shotcut:caption">transparent</property>
    <property name="shotcut:detail">transparent</property>
    <property name="xml">was here</property>
    <property name="seekable">1</property>
    <property name="meta.shotcut.vui">1</property>
    <filter id="filter110" in="00:00:00.960" out="00:00:02.600">
      <property name="argument">がーんばれ()
がーんばれ()</property>
      <property name="geometry">371 834 1505 211 1</property>
      <property name="family">Hiragino Sans</property>
      <property name="size">144</property>
      <property name="weight">900</property>
      <property name="style">normal</property>
      <property name="fgcolour">#ffffffff</property>
      <property name="bgcolour">#00000000</property>
      <property name="olcolour">#aa000000</property>
      <property name="pad">0</property>
      <property name="halign">left</property>
      <property name="valign">middle</property>
      <property name="outline">3</property>
      <property name="opacity">1</property>
      <property name="mlt_service">dynamictext</property>
      <property name="shotcut:filter">dynamicText</property>
      <property name="shotcut:usePointSize">1</property>
      <property name="shotcut:pointSize">144</property>
    </filter>
  </producer>
  <producer id="producer46" in="00:00:00.000" out="03:59:59.960">
    <property name="length">04:00:00.000</property>
    <property name="eof">pause</property>
    <property name="resource">images/rj-45-module-long_truecable.png</property>
    <property name="ttl">1</property>
    <property name="aspect_ratio">1</property>
    <property name="meta.media.progressive">1</property>
    <property name="seekable">1</property>
    <property name="format">2</property>
    <property name="meta.media.width">1200</property>
    <property name="meta.media.height">600</property>
    <property name="mlt_service">qimage</property>
    <property name="creation_time">2023-12-18T07:34:47</property>
    <property name="shotcut:hash">845888ae6d0e76fe86ff314745265554</property>
    <property name="xml">was here</property>
    <property name="shotcut:caption">rj-45-module-long_truecable.png</property>
    <property name="meta.shotcut.vui">1</property>
    <filter id="filter111" in="00:00:02.520" out="00:00:48.360">
      <property name="background">color:#00000000</property>
      <property name="mlt_service">affine</property>
      <property name="shotcut:filter">affineSizePosition</property>
      <property name="transition.fill">1</property>
      <property name="transition.distort">0</property>
      <property name="transition.rect">738.461 3.46154 650.77 325.385 1</property>
      <property name="transition.valign">middle</property>
      <property name="transition.halign">center</property>
      <property name="shotcut:animIn">00:00:00.000</property>
      <property name="shotcut:animOut">00:00:00.000</property>
      <property name="transition.threads">0</property>
      <property name="transition.fix_rotate_x">0</property>
      <property name="disable">0</property>
    </filter>
    <filter id="filter112" in="00:00:02.520" out="00:00:48.360">
      <property name="start">1</property>
      <property name="level">1</property>
      <property name="mlt_service">brightness</property>
      <property name="shotcut:filter">fadeInBrightness</property>
      <property name="alpha">00:00:00.000=0;00:00:01.000=1</property>
      <property name="shotcut:animIn">26</property>
      <property name="disable">0</property>
    </filter>
    <filter id="filter113" in="00:00:02.520" out="00:00:48.360">
      <property name="start">1</property>
      <property name="level">1</property>
      <property name="mlt_service">brightness</property>
      <property name="shotcut:filter">fadeOutBrightness</property>
      <property name="alpha">00:00:44.800=1;00:00:45.840=0</property>
      <property name="shotcut:animOut">27</property>
      <property name="disable">0</property>
    </filter>
    <filter id="filter114" in="00:00:02.520" out="00:00:48.360">
      <property name="argument">引用
https://www.truecable.com/blogs/cable-academy/what-is-an-rj45-connector</property>
      <property name="geometry">765 111 612 211 1</property>
      <property name="family">Sans</property>
      <property name="size">540</property>
      <property name="weight">400</property>
      <property name="style">normal</property>
      <property name="fgcolour">#ff000000</property>
      <property name="bgcolour">#00000000</property>
      <property name="olcolour">#aa000000</property>
      <property name="pad">0</property>
      <property name="halign">left</property>
      <property name="valign">bottom</property>
      <property name="outline">3</property>
      <property name="opacity">1.0</property>
      <property name="mlt_service">dynamictext</property>
      <property name="shotcut:filter">dynamicText</property>
      <property name="shotcut:usePointSize">0</property>
      <property name="shotcut:animIn">00:00:00.000</property>
      <property name="shotcut:animOut">00:00:00.000</property>
      <property name="disable">0</property>
    </filter>
    <filter id="filter115" in="00:00:02.520" out="00:00:48.360">
      <property name="argument">→</property>
      <property name="geometry">564 -48 487 357 1</property>
      <property name="family">Hiragino Sans</property>
      <property name="size">1080</property>
      <property name="weight">900</property>
      <property name="style">normal</property>
      <property name="fgcolour">#ff000000</property>
      <property name="bgcolour">#00000000</property>
      <property name="olcolour">#aa000000</property>
      <property name="pad">0</property>
      <property name="halign">center</property>
      <property name="valign">middle</property>
      <property name="outline">3</property>
      <property name="opacity">00:00:05.240=0;00:00:06.240=1;00:00:18.040=1;00:00:19.080=0</property>
      <property name="mlt_service">dynamictext</property>
      <property name="shotcut:filter">dynamicText</property>
      <property name="shotcut:usePointSize">0</property>
      <property name="shotcut:animIn">00:00:00.000</property>
      <property name="shotcut:animOut">00:00:00.000</property>
    </filter>
    <filter id="filter116" in="00:00:02.520" out="00:00:48.360">
      <property name="argument">↑</property>
      <property name="geometry">723 222 487 357 1</property>
      <property name="family">Hiragino Sans</property>
      <property name="size">1080</property>
      <property name="weight">900</property>
      <property name="style">normal</property>
      <property name="fgcolour">#ff000000</property>
      <property name="bgcolour">#00000000</property>
      <property name="olcolour">#aa000000</property>
      <property name="pad">0</property>
      <property name="halign">center</property>
      <property name="valign">middle</property>
      <property name="outline">3</property>
      <property name="opacity">00:00:40.360=0;00:00:41.320=1</property>
      <property name="mlt_service">dynamictext</property>
      <property name="shotcut:filter">dynamicText</property>
      <property name="shotcut:usePointSize">0</property>
      <property name="shotcut:animIn">00:00:00.000</property>
      <property name="shotcut:animOut">00:00:00.000</property>
    </filter>
    <filter id="filter117" in="00:00:02.520" out="00:00:48.360">
      <property name="argument">↑</property>
      <property name="geometry">889 104 487 357 1</property>
      <property name="family">Hiragino Sans</property>
      <property name="size">1080</property>
      <property name="weight">900</property>
      <property name="style">normal</property>
      <property name="fgcolour">#ff000000</property>
      <property name="bgcolour">#00000000</property>
      <property name="olcolour">#aa000000</property>
      <property name="pad">0</property>
      <property name="halign">center</property>
      <property name="valign">middle</property>
      <property name="outline">3</property>
      <property name="opacity">00:00:28.440=0;00:00:29.440=1;00:00:35.280=1;00:00:36.320=0;00:00:40.960=0;00:00:41.680=1</property>
      <property name="mlt_service">dynamictext</property>
      <property name="shotcut:filter">dynamicText</property>
      <property name="shotcut:usePointSize">0</property>
      <property name="shotcut:animIn">00:00:00.000</property>
      <property name="shotcut:animOut">00:00:00.000</property>
    </filter>
  </producer>
  <producer id="producer47" in="00:00:00.000" out="03:59:59.960">
    <property name="length">04:00:00.000</property>
    <property name="eof">pause</property>
    <property name="resource">images/atcoder.png</property>
    <property name="ttl">1</property>
    <property name="aspect_ratio">1</property>
    <property name="meta.media.progressive">1</property>
    <property name="seekable">1</property>
    <property name="format">1</property>
    <property name="meta.media.width">280</property>
    <property name="meta.media.height">280</property>
    <property name="mlt_service">qimage</property>
    <property name="creation_time">2023-12-18T07:41:02</property>
    <property name="shotcut:hash">cc1239d88d742358fce1f04454163d23</property>
    <property name="xml">was here</property>
    <property name="shotcut:caption">atcoder.png</property>
    <property name="meta.shotcut.vui">1</property>
    <filter id="filter222" out="00:00:03.000">
      <property name="background">color:#00000000</property>
      <property name="mlt_service">affine</property>
      <property name="shotcut:filter">affineSizePosition</property>
      <property name="transition.fill">1</property>
      <property name="transition.distort">0</property>
      <property name="transition.rect">1046.62 6.46154 338.655 338.655 1</property>
      <property name="transition.valign">middle</property>
      <property name="transition.halign">center</property>
      <property name="shotcut:animIn">00:00:00.000</property>
      <property name="shotcut:animOut">00:00:00.000</property>
      <property name="transition.threads">0</property>
      <property name="transition.fix_rotate_x">0</property>
      <property name="disable">0</property>
    </filter>
    <filter id="filter223" out="00:00:03.000">
      <property name="start">1</property>
      <property name="level">1</property>
      <property name="mlt_service">brightness</property>
      <property name="shotcut:filter">fadeInBrightness</property>
      <property name="alpha">00:00:00.000=0;00:00:01.000=1</property>
      <property name="shotcut:animIn">26</property>
    </filter>
    <filter id="filter224" out="00:00:03.000">
      <property name="start">1</property>
      <property name="level">1</property>
      <property name="mlt_service">brightness</property>
      <property name="shotcut:filter">fadeOutBrightness</property>
      <property name="alpha">00:00:01.960=1;00:00:03.000=0</property>
      <property name="shotcut:animOut">27</property>
    </filter>
    <filter id="filter225" out="00:00:03.000">
      <property name="argument">引用：https://atcoder.jp/</property>
      <property name="geometry">1050 300 294 45 1</property>
      <property name="family">Sans</property>
      <property name="size">1080</property>
      <property name="weight">400</property>
      <property name="style">normal</property>
      <property name="fgcolour">#ff000000</property>
      <property name="bgcolour">#00000000</property>
      <property name="olcolour">#aa000000</property>
      <property name="pad">0</property>
      <property name="halign">left</property>
      <property name="valign">bottom</property>
      <property name="outline">3</property>
      <property name="opacity">1.0</property>
      <property name="mlt_service">dynamictext</property>
      <property name="shotcut:filter">dynamicText</property>
      <property name="shotcut:usePointSize">0</property>
      <property name="shotcut:animIn">00:00:00.000</property>
      <property name="shotcut:animOut">00:00:00.000</property>
    </filter>
  </producer>
  <producer id="producer48" in="00:00:00.000" out="03:59:59.960">
    <property name="length">04:00:00.000</property>
    <property name="eof">pause</property>
    <property name="resource">images/network.png</property>
    <property name="ttl">1</property>
    <property name="aspect_ratio">1</property>
    <property name="meta.media.progressive">1</property>
    <property name="seekable">1</property>
    <property name="format">2</property>
    <property name="meta.media.width">400</property>
    <property name="meta.media.height">338</property>
    <property name="mlt_service">qimage</property>
    <property name="creation_time">2023-12-18T07:39:10</property>
    <property name="shotcut:hash">c7c95bc6a6549d9253ab61fc871b47b3</property>
    <property name="xml">was here</property>
    <property name="shotcut:caption">network.png</property>
    <property name="meta.shotcut.vui">1</property>
    <filter id="filter238" out="00:00:03.960">
      <property name="background">color:#00000000</property>
      <property name="mlt_service">affine</property>
      <property name="shotcut:filter">affineSizePosition</property>
      <property name="transition.fill">1</property>
      <property name="transition.distort">0</property>
      <property name="transition.rect">963.538 6.46154 422 356.59 1</property>
      <property name="transition.valign">middle</property>
      <property name="transition.halign">center</property>
      <property name="shotcut:animIn">00:00:00.000</property>
      <property name="shotcut:animOut">00:00:00.000</property>
      <property name="transition.threads">0</property>
      <property name="transition.fix_rotate_x">0</property>
      <property name="disable">0</property>
    </filter>
    <filter id="filter239" out="00:00:03.960">
      <property name="start">1</property>
      <property name="level">1</property>
      <property name="mlt_service">brightness</property>
      <property name="shotcut:filter">fadeInBrightness</property>
      <property name="alpha">00:00:00.000=0;00:00:01.000=1</property>
      <property name="shotcut:animIn">26</property>
    </filter>
    <filter id="filter240" out="00:00:03.960">
      <property name="start">1</property>
      <property name="level">1</property>
      <property name="mlt_service">brightness</property>
      <property name="shotcut:filter">fadeOutBrightness</property>
      <property name="alpha">00:00:02.920=1;00:00:03.960=0</property>
      <property name="shotcut:animOut">27</property>
    </filter>
  </producer>
  <producer id="producer49" in="00:00:00.000" out="03:59:59.960">
    <property name="length">04:00:00.000</property>
    <property name="eof">pause</property>
    <property name="resource">#00000000</property>
    <property name="aspect_ratio">1</property>
    <property name="mlt_service">color</property>
    <property name="mlt_image_format">rgba</property>
    <property name="shotcut:caption">transparent</property>
    <property name="shotcut:detail">transparent</property>
    <property name="xml">was here</property>
    <property name="seekable">1</property>
    <property name="meta.shotcut.vui">1</property>
    <filter id="filter241" in="00:00:00.040" out="00:00:39.880">
      <property name="argument">1．LANケーブルには狭義と広義のものがある．</property>
      <property name="geometry">271 217 1047 249 1</property>
      <property name="family">Hiragino Sans</property>
      <property name="size">36</property>
      <property name="weight">900</property>
      <property name="style">normal</property>
      <property name="fgcolour">#ffffffff</property>
      <property name="bgcolour">#00000000</property>
      <property name="olcolour">#aa000000</property>
      <property name="pad">0</property>
      <property name="halign">left</property>
      <property name="valign">middle</property>
      <property name="outline">3</property>
      <property name="opacity">00:00:11.680=0;00:00:12.720=1</property>
      <property name="mlt_service">dynamictext</property>
      <property name="shotcut:filter">dynamicText</property>
      <property name="shotcut:usePointSize">1</property>
      <property name="shotcut:pointSize">36</property>
      <property name="disable">0</property>
    </filter>
    <filter id="filter242" in="00:00:00.040" out="00:00:39.880">
      <property name="argument">2．LANケーブルにはストレートとクロスがある．</property>
      <property name="geometry">271 307 1047 249 1</property>
      <property name="family">Hiragino Sans</property>
      <property name="size">36</property>
      <property name="weight">900</property>
      <property name="style">normal</property>
      <property name="fgcolour">#ffffffff</property>
      <property name="bgcolour">#00000000</property>
      <property name="olcolour">#aa000000</property>
      <property name="pad">0</property>
      <property name="halign">left</property>
      <property name="valign">middle</property>
      <property name="outline">3</property>
      <property name="opacity">00:00:23.120=0;00:00:24.160=1</property>
      <property name="mlt_service">dynamictext</property>
      <property name="shotcut:filter">dynamicText</property>
      <property name="shotcut:usePointSize">1</property>
      <property name="shotcut:pointSize">36</property>
      <property name="disable">0</property>
    </filter>
    <filter id="filter243" in="00:00:00.040" out="00:00:39.880">
      <property name="argument">3．LANケーブルの指標にCatというものがある．</property>
      <property name="geometry">271 397 1047 249 1</property>
      <property name="family">Hiragino Sans</property>
      <property name="size">36</property>
      <property name="weight">900</property>
      <property name="style">normal</property>
      <property name="fgcolour">#ffffffff</property>
      <property name="bgcolour">#00000000</property>
      <property name="olcolour">#aa000000</property>
      <property name="pad">0</property>
      <property name="halign">left</property>
      <property name="valign">middle</property>
      <property name="outline">3</property>
      <property name="opacity">00:00:30.840=0;00:00:31.880=1</property>
      <property name="mlt_service">dynamictext</property>
      <property name="shotcut:filter">dynamicText</property>
      <property name="shotcut:usePointSize">1</property>
      <property name="shotcut:pointSize">36</property>
      <property name="disable">0</property>
    </filter>
    <filter id="filter244" in="00:00:00.040" out="00:00:39.880">
      <property name="argument">まとめ</property>
      <property name="geometry">271 139 1047 249 1</property>
      <property name="family">Hiragino Sans</property>
      <property name="size">48</property>
      <property name="weight">900</property>
      <property name="style">normal</property>
      <property name="fgcolour">#ffffffff</property>
      <property name="bgcolour">#00000000</property>
      <property name="olcolour">#aa000000</property>
      <property name="pad">0</property>
      <property name="halign">left</property>
      <property name="valign">middle</property>
      <property name="outline">3</property>
      <property name="opacity">00:00:08.360=0;00:00:09.400=1</property>
      <property name="mlt_service">dynamictext</property>
      <property name="shotcut:filter">dynamicText</property>
      <property name="shotcut:usePointSize">1</property>
      <property name="shotcut:pointSize">48</property>
      <property name="disable">0</property>
    </filter>
  </producer>
  <playlist id="playlist4">
    <property name="shotcut:video">1</property>
    <property name="shotcut:name">Sub</property>
    <property name="shotcut:lock">1</property>
    <property name="meta.shotcut.vui">1</property>
    <entry producer="producer9" in="00:00:00.000" out="00:00:04.600"/>
    <entry producer="producer10" in="00:00:00.000" out="00:00:22.400"/>
    <blank length="00:00:04.440"/>
    <entry producer="producer11" in="00:00:00.000" out="00:00:46.040"/>
    <blank length="00:00:05.640"/>
    <entry producer="producer109" in="00:00:00.880" out="00:00:15.560"/>
    <blank length="00:00:00.040"/>
    <entry producer="producer12" in="00:00:00.000" out="00:00:25.520"/>
    <entry producer="producer13" in="00:00:00.000" out="00:00:25.080"/>
    <entry producer="tractor0" in="00:00:00.000" out="00:00:00.000"/>
    <entry producer="producer14" in="00:00:00.040" out="00:00:06.520"/>
    <entry producer="tractor1" in="00:00:00.000" out="00:00:00.000"/>
    <entry producer="producer15" in="00:00:00.040" out="00:00:08.240"/>
    <blank length="00:00:16.320"/>
    <entry producer="producer16" in="00:00:00.000" out="00:00:16.600"/>
    <blank length="00:00:00.080"/>
    <entry producer="producer17" in="00:00:00.000" out="00:00:27.160"/>
    <entry producer="tractor2" in="00:00:00.000" out="00:00:00.040"/>
    <entry producer="producer18" in="00:00:00.080" out="00:00:16.600"/>
    <blank length="00:00:16.240"/>
    <entry producer="producer20" in="00:00:01.280" out="00:00:05.880"/>
    <blank length="00:00:01.520"/>
    <entry producer="producer21" in="00:00:00.000" out="00:00:01.400"/>
    <entry producer="tractor4" in="00:00:00.000" out="00:00:00.440"/>
    <entry producer="producer22" in="00:00:02.240" out="00:00:03.960"/>
    <entry producer="producer130" in="00:00:00.960" out="00:00:14.240"/>
    <entry producer="tractor5" in="00:00:00.000" out="00:00:00.000"/>
    <blank length="00:00:00.080"/>
    <entry producer="producer23" in="00:00:01.000" out="00:00:12.560"/>
    <blank length="00:00:15.760"/>
    <entry producer="producer24" in="00:00:00.000" out="00:00:09.200"/>
    <entry producer="producer25" in="00:00:00.240" out="00:00:07.040"/>
    <blank length="00:00:03.440"/>
    <entry producer="producer26" in="00:00:00.520" out="00:00:10.400"/>
    <entry producer="tractor6" in="00:00:00.000" out="00:00:00.000"/>
    <blank length="00:00:01.280"/>
    <entry producer="producer28" in="00:00:00.080" out="00:00:14.680"/>
    <blank length="00:00:09.280"/>
    <entry producer="producer29" in="00:00:00.240" out="00:00:04.000"/>
    <blank length="00:00:05.760"/>
    <entry producer="producer30" in="00:00:00.000" out="00:00:06.000"/>
    <entry producer="producer31" in="00:00:01.000" out="00:00:09.280"/>
    <entry producer="producer32" in="00:00:00.000" out="00:00:30.640"/>
    <blank length="00:00:45.080"/>
    <entry producer="producer33" in="00:00:00.000" out="00:00:09.600"/>
    <blank length="00:00:48.560"/>
    <entry producer="producer34" in="00:00:00.000" out="00:00:03.960"/>
    <blank length="00:00:34.800"/>
    <entry producer="producer35" in="00:00:00.000" out="00:00:05.800"/>
    <blank length="00:00:06.080"/>
    <entry producer="producer159" in="00:00:00.000" out="00:00:04.560"/>
    <blank length="00:00:08.680"/>
    <entry producer="producer36" in="00:00:00.000" out="00:00:15.760"/>
    <blank length="00:00:05.080"/>
    <entry producer="producer37" in="00:00:00.000" out="00:00:39.320"/>
    <blank length="00:00:13.960"/>
    <entry producer="producer39" in="00:00:00.000" out="00:00:17.520"/>
    <blank length="00:00:05.160"/>
    <entry producer="producer38" in="00:00:00.960" out="00:00:01.960"/>
    <entry producer="producer40" in="00:00:00.960" out="00:00:01.960"/>
    <entry producer="producer41" in="00:00:00.960" out="00:00:01.960"/>
    <entry producer="producer42" in="00:00:00.960" out="00:00:01.960"/>
    <entry producer="producer43" in="00:00:00.960" out="00:00:01.960"/>
    <entry producer="producer44" in="00:00:00.960" out="00:00:02.600"/>
    <entry producer="producer45" in="00:00:00.960" out="00:00:02.600"/>
    <blank length="00:00:20.320"/>
    <entry producer="producer46" in="00:00:02.520" out="00:00:48.360"/>
    <blank length="00:01:12.560"/>
    <entry producer="producer47" in="00:00:00.000" out="00:00:03.000"/>
    <blank length="00:00:02.040"/>
    <entry producer="producer48" in="00:00:00.000" out="00:00:03.960"/>
    <blank length="00:00:03.440"/>
    <entry producer="producer49" in="00:00:00.040" out="00:00:39.880"/>
  </playlist>
  <producer id="producer74" in="00:00:00.000" out="03:59:59.960">
    <property name="length">04:00:00.000</property>
    <property name="eof">pause</property>
    <property name="resource">back/jackkun.png</property>
    <property name="ttl">1</property>
    <property name="aspect_ratio">1</property>
    <property name="meta.media.progressive">1</property>
    <property name="seekable">1</property>
    <property name="format">2</property>
    <property name="meta.media.width">438</property>
    <property name="meta.media.height">436</property>
    <property name="mlt_service">qimage</property>
    <property name="creation_time">2023-12-08T08:56:45</property>
    <property name="shotcut:skipConvert">0</property>
    <property name="shotcut:caption">jackkun.png</property>
    <property name="shotcut:hash">3eac5fb30aaaca6b44c5b134706e7db6</property>
    <property name="ignore_points">0</property>
    <property name="xml">was here</property>
    <property name="meta.shotcut.vui">1</property>
    <filter id="filter247" out="00:14:58.200">
      <property name="background">color:#00000000</property>
      <property name="mlt_service">affine</property>
      <property name="shotcut:filter">affineSizePosition</property>
      <property name="transition.fill">1</property>
      <property name="transition.distort">0</property>
      <property name="transition.rect">12.3891 777.014 314.195 312.76 1</property>
      <property name="transition.valign">middle</property>
      <property name="transition.halign">center</property>
      <property name="shotcut:animIn">00:00:00.000</property>
      <property name="shotcut:animOut">00:00:00.000</property>
      <property name="transition.threads">0</property>
    </filter>
  </producer>
  <playlist id="playlist2">
    <property name="shotcut:video">1</property>
    <property name="shotcut:name">Speaker</property>
    <property name="shotcut:lock">1</property>
    <entry producer="producer74" in="00:00:00.000" out="00:14:58.200"/>
  </playlist>
  <chain id="chain198" out="00:00:02.960">
    <property name="length">00:00:03.000</property>
    <property name="eof">pause</property>
    <property name="resource">voice/aaa/aaa_002_みんな大好きランケ….wav</property>
    <property name="mlt_service">avformat-novalidate</property>
    <property name="meta.media.nb_streams">1</property>
    <property name="meta.media.0.stream.type">audio</property>
    <property name="meta.media.0.codec.sample_fmt">s16</property>
    <property name="meta.media.0.codec.sample_rate">24000</property>
    <property name="meta.media.0.codec.channels">1</property>
    <property name="meta.media.0.codec.name">pcm_s16le</property>
    <property name="meta.media.0.codec.long_name">PCM signed 16-bit little-endian</property>
    <property name="meta.media.0.codec.bit_rate">384000</property>
    <property name="seekable">1</property>
    <property name="audio_index">0</property>
    <property name="video_index">-1</property>
    <property name="creation_time">2023-12-15T03:26:45</property>
    <property name="astream">0</property>
    <property name="shotcut:skipConvert">1</property>
    <property name="xml">was here</property>
    <property name="shotcut:hash">9480c70140c2c56f44bdc29b337884f6</property>
  </chain>
  <chain id="chain199" out="00:00:01.200">
    <property name="length">00:00:01.240</property>
    <property name="eof">pause</property>
    <property name="resource">voice/aaa/aaa_003_はっじまっるよー.wav</property>
    <property name="mlt_service">avformat-novalidate</property>
    <property name="meta.media.nb_streams">1</property>
    <property name="meta.media.0.stream.type">audio</property>
    <property name="meta.media.0.codec.sample_fmt">s16</property>
    <property name="meta.media.0.codec.sample_rate">24000</property>
    <property name="meta.media.0.codec.channels">1</property>
    <property name="meta.media.0.codec.name">pcm_s16le</property>
    <property name="meta.media.0.codec.long_name">PCM signed 16-bit little-endian</property>
    <property name="meta.media.0.codec.bit_rate">384000</property>
    <property name="seekable">1</property>
    <property name="audio_index">0</property>
    <property name="video_index">-1</property>
    <property name="creation_time">2023-12-15T03:26:41</property>
    <property name="astream">0</property>
    <property name="shotcut:skipConvert">1</property>
    <property name="xml">was here</property>
    <property name="shotcut:hash">503152b2dacedbee44c905375b126c37</property>
    <property name="shotcut:caption">aaa_003_はっじまっるよー.wav</property>
  </chain>
  <chain id="chain200" out="00:00:01.800">
    <property name="length">00:00:01.840</property>
    <property name="eof">pause</property>
    <property name="resource">voice/aaa/aaa_004_まずは軽く自己紹介．.wav</property>
    <property name="mlt_service">avformat-novalidate</property>
    <property name="meta.media.nb_streams">1</property>
    <property name="meta.media.0.stream.type">audio</property>
    <property name="meta.media.0.codec.sample_fmt">s16</property>
    <property name="meta.media.0.codec.sample_rate">24000</property>
    <property name="meta.media.0.codec.channels">1</property>
    <property name="meta.media.0.codec.name">pcm_s16le</property>
    <property name="meta.media.0.codec.long_name">PCM signed 16-bit little-endian</property>
    <property name="meta.media.0.codec.bit_rate">384000</property>
    <property name="seekable">1</property>
    <property name="audio_index">0</property>
    <property name="video_index">-1</property>
    <property name="creation_time">2023-12-15T03:26:43</property>
    <property name="astream">0</property>
    <property name="shotcut:skipConvert">1</property>
    <property name="xml">was here</property>
    <property name="shotcut:hash">9a0f536fefbbce01bc2964446dbc6fc8</property>
  </chain>
  <chain id="chain201" out="00:00:03.440">
    <property name="length">00:00:03.480</property>
    <property name="eof">pause</property>
    <property name="resource">voice/aaa/aaa_005_うぷぬしはまっつん….wav</property>
    <property name="mlt_service">avformat-novalidate</property>
    <property name="meta.media.nb_streams">1</property>
    <property name="meta.media.0.stream.type">audio</property>
    <property name="meta.media.0.codec.sample_fmt">s16</property>
    <property name="meta.media.0.codec.sample_rate">24000</property>
    <property name="meta.media.0.codec.channels">1</property>
    <property name="meta.media.0.codec.name">pcm_s16le</property>
    <property name="meta.media.0.codec.long_name">PCM signed 16-bit little-endian</property>
    <property name="meta.media.0.codec.bit_rate">384000</property>
    <property name="seekable">1</property>
    <property name="audio_index">0</property>
    <property name="video_index">-1</property>
    <property name="creation_time">2023-12-15T03:56:51</property>
    <property name="astream">0</property>
    <property name="shotcut:skipConvert">1</property>
    <property name="xml">was here</property>
    <property name="shotcut:hash">3a67b1c5fff0c8c7ade7364ccf04baa1</property>
    <property name="shotcut:caption">aaa_005_うぷぬしはまっつん….wav</property>
  </chain>
  <chain id="chain202" out="00:00:11.280">
    <property name="length">00:00:11.320</property>
    <property name="eof">pause</property>
    <property name="resource">voice/aaa/aaa_006_名古屋大学の小さな….wav</property>
    <property name="mlt_service">avformat-novalidate</property>
    <property name="meta.media.nb_streams">1</property>
    <property name="meta.media.0.stream.type">audio</property>
    <property name="meta.media.0.codec.sample_fmt">s16</property>
    <property name="meta.media.0.codec.sample_rate">24000</property>
    <property name="meta.media.0.codec.channels">1</property>
    <property name="meta.media.0.codec.name">pcm_s16le</property>
    <property name="meta.media.0.codec.long_name">PCM signed 16-bit little-endian</property>
    <property name="meta.media.0.codec.bit_rate">384000</property>
    <property name="seekable">1</property>
    <property name="audio_index">0</property>
    <property name="video_index">-1</property>
    <property name="creation_time">2023-12-15T03:26:59</property>
    <property name="astream">0</property>
    <property name="shotcut:skipConvert">1</property>
    <property name="xml">was here</property>
    <property name="shotcut:hash">1e39495d95b5767514867c193654fff0</property>
    <property name="shotcut:caption">aaa_006_名古屋大学の小さな….wav</property>
  </chain>
  <chain id="chain203" out="00:00:04.960">
    <property name="length">00:00:05.000</property>
    <property name="eof">pause</property>
    <property name="resource">voice/aaa/aaa_007_そのため，この動画….wav</property>
    <property name="mlt_service">avformat-novalidate</property>
    <property name="meta.media.nb_streams">1</property>
    <property name="meta.media.0.stream.type">audio</property>
    <property name="meta.media.0.codec.sample_fmt">s16</property>
    <property name="meta.media.0.codec.sample_rate">24000</property>
    <property name="meta.media.0.codec.channels">1</property>
    <property name="meta.media.0.codec.name">pcm_s16le</property>
    <property name="meta.media.0.codec.long_name">PCM signed 16-bit little-endian</property>
    <property name="meta.media.0.codec.bit_rate">384000</property>
    <property name="seekable">1</property>
    <property name="audio_index">0</property>
    <property name="video_index">-1</property>
    <property name="creation_time">2023-12-15T03:26:54</property>
    <property name="astream">0</property>
    <property name="shotcut:skipConvert">1</property>
    <property name="xml">was here</property>
    <property name="shotcut:hash">9e44d46f1c4e69c4af3bd121e8b9443d</property>
    <property name="shotcut:caption">aaa_007_そのため，この動画….wav</property>
  </chain>
  <chain id="chain204" out="00:00:04.000">
    <property name="length">00:00:04.040</property>
    <property name="eof">pause</property>
    <property name="resource">voice/aaa/aaa_008_さて,最初に断って….wav</property>
    <property name="mlt_service">avformat-novalidate</property>
    <property name="meta.media.nb_streams">1</property>
    <property name="meta.media.0.stream.type">audio</property>
    <property name="meta.media.0.codec.sample_fmt">s16</property>
    <property name="meta.media.0.codec.sample_rate">24000</property>
    <property name="meta.media.0.codec.channels">1</property>
    <property name="meta.media.0.codec.name">pcm_s16le</property>
    <property name="meta.media.0.codec.long_name">PCM signed 16-bit little-endian</property>
    <property name="meta.media.0.codec.bit_rate">384000</property>
    <property name="seekable">1</property>
    <property name="audio_index">0</property>
    <property name="video_index">-1</property>
    <property name="creation_time">2023-12-15T03:26:54</property>
    <property name="astream">0</property>
    <property name="shotcut:skipConvert">1</property>
    <property name="xml">was here</property>
    <property name="shotcut:hash">2022e900e2dff94901057e2991f432ee</property>
  </chain>
  <chain id="chain205" out="00:00:08.120">
    <property name="length">00:00:08.160</property>
    <property name="eof">pause</property>
    <property name="resource">voice/aaa/aaa_009_1つ目に，この音声….wav</property>
    <property name="mlt_service">avformat-novalidate</property>
    <property name="meta.media.nb_streams">1</property>
    <property name="meta.media.0.stream.type">audio</property>
    <property name="meta.media.0.codec.sample_fmt">s16</property>
    <property name="meta.media.0.codec.sample_rate">24000</property>
    <property name="meta.media.0.codec.channels">1</property>
    <property name="meta.media.0.codec.name">pcm_s16le</property>
    <property name="meta.media.0.codec.long_name">PCM signed 16-bit little-endian</property>
    <property name="meta.media.0.codec.bit_rate">384000</property>
    <property name="seekable">1</property>
    <property name="audio_index">0</property>
    <property name="video_index">-1</property>
    <property name="creation_time">2023-12-15T03:27:02</property>
    <property name="astream">0</property>
    <property name="shotcut:skipConvert">1</property>
    <property name="xml">was here</property>
    <property name="shotcut:hash">6428040937a79943ff8419fe1c7cfb27</property>
  </chain>
  <chain id="chain206" out="00:00:07.680">
    <property name="length">00:00:07.720</property>
    <property name="eof">pause</property>
    <property name="resource">voice/aaa/aaa_010_2つ目に，うぷぬし….wav</property>
    <property name="mlt_service">avformat-novalidate</property>
    <property name="meta.media.nb_streams">1</property>
    <property name="meta.media.0.stream.type">audio</property>
    <property name="meta.media.0.codec.sample_fmt">s16</property>
    <property name="meta.media.0.codec.sample_rate">24000</property>
    <property name="meta.media.0.codec.channels">1</property>
    <property name="meta.media.0.codec.name">pcm_s16le</property>
    <property name="meta.media.0.codec.long_name">PCM signed 16-bit little-endian</property>
    <property name="meta.media.0.codec.bit_rate">384000</property>
    <property name="seekable">1</property>
    <property name="audio_index">0</property>
    <property name="video_index">-1</property>
    <property name="creation_time">2023-12-15T03:57:51</property>
    <property name="astream">0</property>
    <property name="shotcut:skipConvert">1</property>
    <property name="xml">was here</property>
    <property name="shotcut:hash">be520b3f9fba3a038f13723107e60f6a</property>
  </chain>
  <chain id="chain207" out="00:00:07.720">
    <property name="length">00:00:07.760</property>
    <property name="eof">pause</property>
    <property name="resource">voice/aaa/aaa_011_3つ目に，本アール….wav</property>
    <property name="mlt_service">avformat-novalidate</property>
    <property name="meta.media.nb_streams">1</property>
    <property name="meta.media.0.stream.type">audio</property>
    <property name="meta.media.0.codec.sample_fmt">s16</property>
    <property name="meta.media.0.codec.sample_rate">24000</property>
    <property name="meta.media.0.codec.channels">1</property>
    <property name="meta.media.0.codec.name">pcm_s16le</property>
    <property name="meta.media.0.codec.long_name">PCM signed 16-bit little-endian</property>
    <property name="meta.media.0.codec.bit_rate">384000</property>
    <property name="seekable">1</property>
    <property name="audio_index">0</property>
    <property name="video_index">-1</property>
    <property name="creation_time">2023-12-15T03:58:23</property>
    <property name="astream">0</property>
    <property name="shotcut:skipConvert">1</property>
    <property name="xml">was here</property>
    <property name="shotcut:hash">03ef87fd00e5d4943ea9c8ad0d09c256</property>
  </chain>
  <chain id="chain208" out="00:00:09.000">
    <property name="length">00:00:09.040</property>
    <property name="eof">pause</property>
    <property name="resource">voice/aaa/aaa_012_4つ目に，専門知識….wav</property>
    <property name="mlt_service">avformat-novalidate</property>
    <property name="meta.media.nb_streams">1</property>
    <property name="meta.media.0.stream.type">audio</property>
    <property name="meta.media.0.codec.sample_fmt">s16</property>
    <property name="meta.media.0.codec.sample_rate">24000</property>
    <property name="meta.media.0.codec.channels">1</property>
    <property name="meta.media.0.codec.name">pcm_s16le</property>
    <property name="meta.media.0.codec.long_name">PCM signed 16-bit little-endian</property>
    <property name="meta.media.0.codec.bit_rate">384000</property>
    <property name="seekable">1</property>
    <property name="audio_index">0</property>
    <property name="video_index">-1</property>
    <property name="creation_time">2023-12-15T03:27:11</property>
    <property name="astream">0</property>
    <property name="shotcut:skipConvert">1</property>
    <property name="xml">was here</property>
    <property name="shotcut:hash">32f0aca4df9eb72b98bf80012004a7d3</property>
  </chain>
  <chain id="chain209" out="00:00:11.800">
    <property name="length">00:00:11.840</property>
    <property name="eof">pause</property>
    <property name="resource">voice/aaa/aaa_013_5つ目に，本動画は….wav</property>
    <property name="mlt_service">avformat-novalidate</property>
    <property name="meta.media.nb_streams">1</property>
    <property name="meta.media.0.stream.type">audio</property>
    <property name="meta.media.0.codec.sample_fmt">s16</property>
    <property name="meta.media.0.codec.sample_rate">24000</property>
    <property name="meta.media.0.codec.channels">1</property>
    <property name="meta.media.0.codec.name">pcm_s16le</property>
    <property name="meta.media.0.codec.long_name">PCM signed 16-bit little-endian</property>
    <property name="meta.media.0.codec.bit_rate">384000</property>
    <property name="seekable">1</property>
    <property name="audio_index">0</property>
    <property name="video_index">-1</property>
    <property name="creation_time">2023-12-15T03:26:36</property>
    <property name="astream">0</property>
    <property name="shotcut:skipConvert">1</property>
    <property name="xml">was here</property>
    <property name="shotcut:hash">3083086c82841beffeee3c59bef31478</property>
  </chain>
  <chain id="chain210" out="00:00:04.400">
    <property name="length">00:00:04.440</property>
    <property name="eof">pause</property>
    <property name="resource">voice/aaa/aaa_016_さて，本編を始める….wav</property>
    <property name="mlt_service">avformat-novalidate</property>
    <property name="meta.media.nb_streams">1</property>
    <property name="meta.media.0.stream.type">audio</property>
    <property name="meta.media.0.codec.sample_fmt">s16</property>
    <property name="meta.media.0.codec.sample_rate">24000</property>
    <property name="meta.media.0.codec.channels">1</property>
    <property name="meta.media.0.codec.name">pcm_s16le</property>
    <property name="meta.media.0.codec.long_name">PCM signed 16-bit little-endian</property>
    <property name="meta.media.0.codec.bit_rate">384000</property>
    <property name="seekable">1</property>
    <property name="audio_index">0</property>
    <property name="video_index">-1</property>
    <property name="creation_time">2023-12-15T03:59:47</property>
    <property name="astream">0</property>
    <property name="shotcut:skipConvert">1</property>
    <property name="xml">was here</property>
    <property name="shotcut:hash">d8edc67baac4ef45f9a7f205152fbd85</property>
    <property name="shotcut:caption">aaa_016_さて，本編を始める….wav</property>
  </chain>
  <chain id="chain211" out="00:00:06.480">
    <property name="length">00:00:06.520</property>
    <property name="eof">pause</property>
    <property name="resource">voice/aaa/aaa_017_本動画において重要….wav</property>
    <property name="mlt_service">avformat-novalidate</property>
    <property name="meta.media.nb_streams">1</property>
    <property name="meta.media.0.stream.type">audio</property>
    <property name="meta.media.0.codec.sample_fmt">s16</property>
    <property name="meta.media.0.codec.sample_rate">24000</property>
    <property name="meta.media.0.codec.channels">1</property>
    <property name="meta.media.0.codec.name">pcm_s16le</property>
    <property name="meta.media.0.codec.long_name">PCM signed 16-bit little-endian</property>
    <property name="meta.media.0.codec.bit_rate">384000</property>
    <property name="seekable">1</property>
    <property name="audio_index">0</property>
    <property name="video_index">-1</property>
    <property name="creation_time">2023-12-15T03:26:36</property>
    <property name="astream">0</property>
    <property name="shotcut:skipConvert">1</property>
    <property name="xml">was here</property>
    <property name="shotcut:hash">7191e2f1b5e39dbd589fd6510db28078</property>
  </chain>
  <chain id="chain212" out="00:00:07.760">
    <property name="length">00:00:07.800</property>
    <property name="eof">pause</property>
    <property name="resource">voice/aaa/aaa_018_しちょうもの兄貴姉….wav</property>
    <property name="mlt_service">avformat-novalidate</property>
    <property name="meta.media.nb_streams">1</property>
    <property name="meta.media.0.stream.type">audio</property>
    <property name="meta.media.0.codec.sample_fmt">s16</property>
    <property name="meta.media.0.codec.sample_rate">24000</property>
    <property name="meta.media.0.codec.channels">1</property>
    <property name="meta.media.0.codec.name">pcm_s16le</property>
    <property name="meta.media.0.codec.long_name">PCM signed 16-bit little-endian</property>
    <property name="meta.media.0.codec.bit_rate">384000</property>
    <property name="seekable">1</property>
    <property name="audio_index">0</property>
    <property name="video_index">-1</property>
    <property name="creation_time">2023-12-15T04:00:10</property>
    <property name="astream">0</property>
    <property name="shotcut:skipConvert">1</property>
    <property name="xml">was here</property>
    <property name="shotcut:hash">c0564ee04a3f44273b1a0edd4d6858d8</property>
    <property name="shotcut:caption">aaa_018_しちょうもの兄貴姉….wav</property>
  </chain>
  <chain id="chain213" out="00:00:03.960">
    <property name="length">00:00:04.000</property>
    <property name="eof">pause</property>
    <property name="resource">voice/aaa/aaa_019_まず，アールティー….wav</property>
    <property name="mlt_service">avformat-novalidate</property>
    <property name="meta.media.nb_streams">1</property>
    <property name="meta.media.0.stream.type">audio</property>
    <property name="meta.media.0.codec.sample_fmt">s16</property>
    <property name="meta.media.0.codec.sample_rate">24000</property>
    <property name="meta.media.0.codec.channels">1</property>
    <property name="meta.media.0.codec.name">pcm_s16le</property>
    <property name="meta.media.0.codec.long_name">PCM signed 16-bit little-endian</property>
    <property name="meta.media.0.codec.bit_rate">384000</property>
    <property name="seekable">1</property>
    <property name="audio_index">0</property>
    <property name="video_index">-1</property>
    <property name="creation_time">2023-12-15T03:26:36</property>
    <property name="astream">0</property>
    <property name="shotcut:skipConvert">1</property>
    <property name="xml">was here</property>
    <property name="shotcut:hash">e22eab8ea878bfc2d929be38c167ba7c</property>
  </chain>
  <producer id="producer75" in="00:00:00.000" out="00:00:02.240">
    <property name="length">00:00:02.280</property>
    <property name="eof">pause</property>
    <property name="resource">2:voice/aaa/aaa_020_コンピュータゲーム….wav</property>
    <property name="aspect_ratio">1</property>
    <property name="meta.media.nb_streams">1</property>
    <property name="meta.media.0.stream.type">audio</property>
    <property name="meta.media.0.codec.sample_fmt">s16</property>
    <property name="meta.media.0.codec.sample_rate">24000</property>
    <property name="meta.media.0.codec.channels">1</property>
    <property name="meta.media.0.codec.name">pcm_s16le</property>
    <property name="meta.media.0.codec.long_name">PCM signed 16-bit little-endian</property>
    <property name="meta.media.0.codec.bit_rate">384000</property>
    <property name="seekable">1</property>
    <property name="audio_index">0</property>
    <property name="video_index">-1</property>
    <property name="warp_speed">2</property>
    <property name="warp_resource">voice/aaa/aaa_020_コンピュータゲーム….wav</property>
    <property name="mlt_service">timewarp</property>
    <property name="shotcut:producer">avformat</property>
    <property name="video_delay">0</property>
    <property name="astream">0</property>
    <property name="shotcut:hash">05d80e8640f7de6b61155662caa6f2e0</property>
    <property name="shotcut:skipConvert">1</property>
    <property name="shotcut:caption">aaa_020_コンピュータゲーム….wav (2x)</property>
    <property name="xml">was here</property>
  </producer>
  <producer id="producer76" in="00:00:00.000" out="00:00:02.000">
    <property name="length">00:00:02.040</property>
    <property name="eof">pause</property>
    <property name="resource">2:voice/aaa/aaa_021_ゲーム内部時間では….wav</property>
    <property name="aspect_ratio">1</property>
    <property name="meta.media.nb_streams">1</property>
    <property name="meta.media.0.stream.type">audio</property>
    <property name="meta.media.0.codec.sample_fmt">s16</property>
    <property name="meta.media.0.codec.sample_rate">24000</property>
    <property name="meta.media.0.codec.channels">1</property>
    <property name="meta.media.0.codec.name">pcm_s16le</property>
    <property name="meta.media.0.codec.long_name">PCM signed 16-bit little-endian</property>
    <property name="meta.media.0.codec.bit_rate">384000</property>
    <property name="seekable">1</property>
    <property name="audio_index">0</property>
    <property name="video_index">-1</property>
    <property name="warp_speed">2</property>
    <property name="warp_resource">voice/aaa/aaa_021_ゲーム内部時間では….wav</property>
    <property name="mlt_service">timewarp</property>
    <property name="shotcut:producer">avformat</property>
    <property name="video_delay">0</property>
    <property name="astream">0</property>
    <property name="shotcut:hash">3b8779b28f63e060ae6b1f82c11890c5</property>
    <property name="shotcut:skipConvert">1</property>
    <property name="shotcut:caption">aaa_021_ゲーム内部時間では….wav (2x)</property>
    <property name="xml">was here</property>
  </producer>
  <producer id="producer77" in="00:00:00.000" out="00:00:03.480">
    <property name="length">00:00:03.520</property>
    <property name="eof">pause</property>
    <property name="resource">2:voice/aaa/aaa_022_「アールティーエー….wav</property>
    <property name="aspect_ratio">1</property>
    <property name="meta.media.nb_streams">1</property>
    <property name="meta.media.0.stream.type">audio</property>
    <property name="meta.media.0.codec.sample_fmt">s16</property>
    <property name="meta.media.0.codec.sample_rate">24000</property>
    <property name="meta.media.0.codec.channels">1</property>
    <property name="meta.media.0.codec.name">pcm_s16le</property>
    <property name="meta.media.0.codec.long_name">PCM signed 16-bit little-endian</property>
    <property name="meta.media.0.codec.bit_rate">384000</property>
    <property name="seekable">1</property>
    <property name="audio_index">0</property>
    <property name="video_index">-1</property>
    <property name="warp_speed">2</property>
    <property name="warp_resource">voice/aaa/aaa_022_「アールティーエー….wav</property>
    <property name="mlt_service">timewarp</property>
    <property name="shotcut:producer">avformat</property>
    <property name="video_delay">0</property>
    <property name="astream">0</property>
    <property name="shotcut:hash">fd1509f0cedd836fe30284e2f5da3614</property>
    <property name="shotcut:skipConvert">1</property>
    <property name="shotcut:caption">aaa_022_「アールティーエー….wav (2x)</property>
    <property name="xml">was here</property>
  </producer>
  <chain id="chain217" out="00:00:06.040">
    <property name="length">00:00:06.080</property>
    <property name="eof">pause</property>
    <property name="resource">voice/aaa/aaa_023_まあ，要は素早く何….wav</property>
    <property name="mlt_service">avformat-novalidate</property>
    <property name="meta.media.nb_streams">1</property>
    <property name="meta.media.0.stream.type">audio</property>
    <property name="meta.media.0.codec.sample_fmt">s16</property>
    <property name="meta.media.0.codec.sample_rate">24000</property>
    <property name="meta.media.0.codec.channels">1</property>
    <property name="meta.media.0.codec.name">pcm_s16le</property>
    <property name="meta.media.0.codec.long_name">PCM signed 16-bit little-endian</property>
    <property name="meta.media.0.codec.bit_rate">384000</property>
    <property name="seekable">1</property>
    <property name="audio_index">0</property>
    <property name="video_index">-1</property>
    <property name="creation_time">2023-12-15T03:27:12</property>
    <property name="astream">0</property>
    <property name="shotcut:skipConvert">1</property>
    <property name="xml">was here</property>
    <property name="shotcut:hash">2113b3f82fb264fceb164fe9688f87f9</property>
    <property name="shotcut:caption">aaa_023_まあ，要は素早く何….wav</property>
  </chain>
  <chain id="chain218" out="00:00:06.040">
    <property name="length">00:00:06.080</property>
    <property name="eof">pause</property>
    <property name="resource">voice/aaa/aaa_024_今回はゲームではあ….wav</property>
    <property name="mlt_service">avformat-novalidate</property>
    <property name="meta.media.nb_streams">1</property>
    <property name="meta.media.0.stream.type">audio</property>
    <property name="meta.media.0.codec.sample_fmt">s16</property>
    <property name="meta.media.0.codec.sample_rate">24000</property>
    <property name="meta.media.0.codec.channels">1</property>
    <property name="meta.media.0.codec.name">pcm_s16le</property>
    <property name="meta.media.0.codec.long_name">PCM signed 16-bit little-endian</property>
    <property name="meta.media.0.codec.bit_rate">384000</property>
    <property name="seekable">1</property>
    <property name="audio_index">0</property>
    <property name="video_index">-1</property>
    <property name="creation_time">2023-12-15T03:27:15</property>
    <property name="astream">0</property>
    <property name="shotcut:skipConvert">1</property>
    <property name="xml">was here</property>
    <property name="shotcut:hash">bde12d1b83bc9a0c460c64694e0621ef</property>
  </chain>
  <chain id="chain219" out="00:00:02.640">
    <property name="length">00:00:02.680</property>
    <property name="eof">pause</property>
    <property name="resource">voice/aaa/aaa_025_次に，LANケーブ….wav</property>
    <property name="mlt_service">avformat-novalidate</property>
    <property name="meta.media.nb_streams">1</property>
    <property name="meta.media.0.stream.type">audio</property>
    <property name="meta.media.0.codec.sample_fmt">s16</property>
    <property name="meta.media.0.codec.sample_rate">24000</property>
    <property name="meta.media.0.codec.channels">1</property>
    <property name="meta.media.0.codec.name">pcm_s16le</property>
    <property name="meta.media.0.codec.long_name">PCM signed 16-bit little-endian</property>
    <property name="meta.media.0.codec.bit_rate">384000</property>
    <property name="seekable">1</property>
    <property name="audio_index">0</property>
    <property name="video_index">-1</property>
    <property name="creation_time">2023-12-15T03:27:11</property>
    <property name="astream">0</property>
    <property name="shotcut:skipConvert">1</property>
    <property name="xml">was here</property>
    <property name="shotcut:hash">26ebe7a1bfa4d6da9911d371ed6c9c12</property>
  </chain>
  <chain id="chain220" out="00:00:01.720">
    <property name="length">00:00:01.760</property>
    <property name="eof">pause</property>
    <property name="resource">voice/aaa/aaa_026_以下Wikiped….wav</property>
    <property name="mlt_service">avformat-novalidate</property>
    <property name="meta.media.nb_streams">1</property>
    <property name="meta.media.0.stream.type">audio</property>
    <property name="meta.media.0.codec.sample_fmt">s16</property>
    <property name="meta.media.0.codec.sample_rate">24000</property>
    <property name="meta.media.0.codec.channels">1</property>
    <property name="meta.media.0.codec.name">pcm_s16le</property>
    <property name="meta.media.0.codec.long_name">PCM signed 16-bit little-endian</property>
    <property name="meta.media.0.codec.bit_rate">384000</property>
    <property name="seekable">1</property>
    <property name="audio_index">0</property>
    <property name="video_index">-1</property>
    <property name="creation_time">2023-12-15T03:27:09</property>
    <property name="astream">0</property>
    <property name="shotcut:skipConvert">1</property>
    <property name="xml">was here</property>
    <property name="shotcut:hash">4c4203394dfb95b93d2890bcc5e04e26</property>
    <property name="shotcut:caption">aaa_026_以下Wikiped….wav</property>
  </chain>
  <producer id="producer78" in="00:00:00.000" out="00:00:03.120">
    <property name="length">00:00:03.160</property>
    <property name="eof">pause</property>
    <property name="resource">2:voice/aaa/aaa_027_（よりついせん）に….wav</property>
    <property name="aspect_ratio">1</property>
    <property name="meta.media.nb_streams">1</property>
    <property name="meta.media.0.stream.type">audio</property>
    <property name="meta.media.0.codec.sample_fmt">s16</property>
    <property name="meta.media.0.codec.sample_rate">24000</property>
    <property name="meta.media.0.codec.channels">1</property>
    <property name="meta.media.0.codec.name">pcm_s16le</property>
    <property name="meta.media.0.codec.long_name">PCM signed 16-bit little-endian</property>
    <property name="meta.media.0.codec.bit_rate">384000</property>
    <property name="seekable">1</property>
    <property name="audio_index">0</property>
    <property name="video_index">-1</property>
    <property name="warp_speed">2</property>
    <property name="warp_resource">voice/aaa/aaa_027_（よりついせん）に….wav</property>
    <property name="mlt_service">timewarp</property>
    <property name="shotcut:producer">avformat</property>
    <property name="video_delay">0</property>
    <property name="astream">0</property>
    <property name="shotcut:hash">44f1af362f7623e0af3c735e64933e8f</property>
    <property name="shotcut:skipConvert">1</property>
    <property name="shotcut:caption">aaa_027_（よりついせん）に….wav (2x)</property>
    <property name="xml">was here</property>
  </producer>
  <producer id="producer79" in="00:00:00.000" out="00:00:06.160">
    <property name="length">00:00:06.200</property>
    <property name="eof">pause</property>
    <property name="resource">2:voice/aaa/aaa_028_特に4対8線で両端….wav</property>
    <property name="aspect_ratio">1</property>
    <property name="meta.media.nb_streams">1</property>
    <property name="meta.media.0.stream.type">audio</property>
    <property name="meta.media.0.codec.sample_fmt">s16</property>
    <property name="meta.media.0.codec.sample_rate">24000</property>
    <property name="meta.media.0.codec.channels">1</property>
    <property name="meta.media.0.codec.name">pcm_s16le</property>
    <property name="meta.media.0.codec.long_name">PCM signed 16-bit little-endian</property>
    <property name="meta.media.0.codec.bit_rate">384000</property>
    <property name="seekable">1</property>
    <property name="audio_index">0</property>
    <property name="video_index">-1</property>
    <property name="warp_speed">2</property>
    <property name="warp_resource">voice/aaa/aaa_028_特に4対8線で両端….wav</property>
    <property name="mlt_service">timewarp</property>
    <property name="shotcut:producer">avformat</property>
    <property name="video_delay">0</property>
    <property name="astream">0</property>
    <property name="shotcut:hash">f867ea90be642965597cece2dcedc434</property>
    <property name="shotcut:skipConvert">1</property>
    <property name="shotcut:caption">aaa_028_特に4対8線で両端….wav (2x)</property>
    <property name="xml">was here</property>
  </producer>
  <producer id="producer80" in="00:00:00.000" out="00:00:02.920">
    <property name="length">00:00:02.960</property>
    <property name="eof">pause</property>
    <property name="resource">2:voice/aaa/aaa_029_圧接工具を使えば容….wav</property>
    <property name="aspect_ratio">1</property>
    <property name="meta.media.nb_streams">1</property>
    <property name="meta.media.0.stream.type">audio</property>
    <property name="meta.media.0.codec.sample_fmt">s16</property>
    <property name="meta.media.0.codec.sample_rate">24000</property>
    <property name="meta.media.0.codec.channels">1</property>
    <property name="meta.media.0.codec.name">pcm_s16le</property>
    <property name="meta.media.0.codec.long_name">PCM signed 16-bit little-endian</property>
    <property name="meta.media.0.codec.bit_rate">384000</property>
    <property name="seekable">1</property>
    <property name="audio_index">0</property>
    <property name="video_index">-1</property>
    <property name="warp_speed">2</property>
    <property name="warp_resource">voice/aaa/aaa_029_圧接工具を使えば容….wav</property>
    <property name="mlt_service">timewarp</property>
    <property name="shotcut:producer">avformat</property>
    <property name="video_delay">0</property>
    <property name="astream">0</property>
    <property name="shotcut:hash">58f06f8e54447f41ed4504b84403b8ed</property>
    <property name="shotcut:skipConvert">1</property>
    <property name="shotcut:caption">aaa_029_圧接工具を使えば容….wav (2x)</property>
    <property name="xml">was here</property>
  </producer>
  <producer id="producer81" in="00:00:00.000" out="00:00:01.880">
    <property name="length">00:00:01.920</property>
    <property name="eof">pause</property>
    <property name="resource">2:voice/aaa/aaa_030_ケーブルには配線構….wav</property>
    <property name="aspect_ratio">1</property>
    <property name="meta.media.nb_streams">1</property>
    <property name="meta.media.0.stream.type">audio</property>
    <property name="meta.media.0.codec.sample_fmt">s16</property>
    <property name="meta.media.0.codec.sample_rate">24000</property>
    <property name="meta.media.0.codec.channels">1</property>
    <property name="meta.media.0.codec.name">pcm_s16le</property>
    <property name="meta.media.0.codec.long_name">PCM signed 16-bit little-endian</property>
    <property name="meta.media.0.codec.bit_rate">384000</property>
    <property name="seekable">1</property>
    <property name="audio_index">0</property>
    <property name="video_index">-1</property>
    <property name="warp_speed">2</property>
    <property name="warp_resource">voice/aaa/aaa_030_ケーブルには配線構….wav</property>
    <property name="mlt_service">timewarp</property>
    <property name="shotcut:producer">avformat</property>
    <property name="video_delay">0</property>
    <property name="astream">0</property>
    <property name="shotcut:hash">67aa18516153f987b2b4e895dd6fbd3e</property>
    <property name="shotcut:skipConvert">1</property>
    <property name="shotcut:caption">aaa_030_ケーブルには配線構….wav (2x)</property>
    <property name="xml">was here</property>
  </producer>
  <chain id="chain225" out="00:00:05.280">
    <property name="length">00:00:05.320</property>
    <property name="eof">pause</property>
    <property name="resource">voice/aaa/aaa_031_要は，ワイファイの….wav</property>
    <property name="mlt_service">avformat-novalidate</property>
    <property name="meta.media.nb_streams">1</property>
    <property name="meta.media.0.stream.type">audio</property>
    <property name="meta.media.0.codec.sample_fmt">s16</property>
    <property name="meta.media.0.codec.sample_rate">24000</property>
    <property name="meta.media.0.codec.channels">1</property>
    <property name="meta.media.0.codec.name">pcm_s16le</property>
    <property name="meta.media.0.codec.long_name">PCM signed 16-bit little-endian</property>
    <property name="meta.media.0.codec.bit_rate">384000</property>
    <property name="seekable">1</property>
    <property name="audio_index">0</property>
    <property name="video_index">-1</property>
    <property name="creation_time">2023-12-15T03:27:25</property>
    <property name="astream">0</property>
    <property name="shotcut:skipConvert">1</property>
    <property name="xml">was here</property>
    <property name="shotcut:hash">1d698a3985e1f19130ee7515f3ac6b62</property>
  </chain>
  <chain id="chain195" out="00:00:06.600">
    <property name="length">00:00:06.640</property>
    <property name="eof">pause</property>
    <property name="resource">voice/zzz/001_雨晴はう（ノーマル）_また今回は，LAN….wav</property>
    <property name="mlt_service">avformat-novalidate</property>
    <property name="meta.media.nb_streams">1</property>
    <property name="meta.media.0.stream.type">audio</property>
    <property name="meta.media.0.codec.sample_fmt">s16</property>
    <property name="meta.media.0.codec.sample_rate">24000</property>
    <property name="meta.media.0.codec.channels">1</property>
    <property name="meta.media.0.codec.name">pcm_s16le</property>
    <property name="meta.media.0.codec.long_name">PCM signed 16-bit little-endian</property>
    <property name="meta.media.0.codec.bit_rate">384000</property>
    <property name="seekable">1</property>
    <property name="audio_index">0</property>
    <property name="video_index">-1</property>
    <property name="creation_time">2023-12-20T00:20:47</property>
    <property name="astream">0</property>
    <property name="shotcut:hash">9046af5743cbda952969980ce3406d39</property>
    <property name="shotcut:caption">001_雨晴はう（ノーマル）_また今回は，LAN….wav</property>
    <property name="xml">was here</property>
  </chain>
  <chain id="chain227" out="00:00:05.040">
    <property name="length">00:00:05.080</property>
    <property name="eof">pause</property>
    <property name="resource">voice/aaa/aaa_033_そして，配線はスト….wav</property>
    <property name="mlt_service">avformat-novalidate</property>
    <property name="meta.media.nb_streams">1</property>
    <property name="meta.media.0.stream.type">audio</property>
    <property name="meta.media.0.codec.sample_fmt">s16</property>
    <property name="meta.media.0.codec.sample_rate">24000</property>
    <property name="meta.media.0.codec.channels">1</property>
    <property name="meta.media.0.codec.name">pcm_s16le</property>
    <property name="meta.media.0.codec.long_name">PCM signed 16-bit little-endian</property>
    <property name="meta.media.0.codec.bit_rate">384000</property>
    <property name="seekable">1</property>
    <property name="audio_index">0</property>
    <property name="video_index">-1</property>
    <property name="creation_time">2023-12-15T03:27:35</property>
    <property name="astream">0</property>
    <property name="shotcut:skipConvert">1</property>
    <property name="xml">was here</property>
    <property name="shotcut:hash">0dd4f0f414be63bf40f98563fe979098</property>
    <property name="shotcut:caption">aaa_033_そして，配線はスト….wav</property>
  </chain>
  <chain id="chain228" out="00:00:02.880">
    <property name="length">00:00:02.920</property>
    <property name="eof">pause</property>
    <property name="resource">voice/aaa/aaa_034_今回はストレートケ….wav</property>
    <property name="mlt_service">avformat-novalidate</property>
    <property name="meta.media.nb_streams">1</property>
    <property name="meta.media.0.stream.type">audio</property>
    <property name="meta.media.0.codec.sample_fmt">s16</property>
    <property name="meta.media.0.codec.sample_rate">24000</property>
    <property name="meta.media.0.codec.channels">1</property>
    <property name="meta.media.0.codec.name">pcm_s16le</property>
    <property name="meta.media.0.codec.long_name">PCM signed 16-bit little-endian</property>
    <property name="meta.media.0.codec.bit_rate">384000</property>
    <property name="seekable">1</property>
    <property name="audio_index">0</property>
    <property name="video_index">-1</property>
    <property name="creation_time">2023-12-15T03:27:32</property>
    <property name="astream">0</property>
    <property name="shotcut:skipConvert">1</property>
    <property name="xml">was here</property>
    <property name="shotcut:hash">c10f66a41057b51b1b666f5822658fb9</property>
    <property name="shotcut:caption">aaa_034_今回はストレートケ….wav</property>
  </chain>
  <chain id="chain230" out="00:00:07.880">
    <property name="length">00:00:07.920</property>
    <property name="eof">pause</property>
    <property name="resource">voice/aaa/aaa_037_まだまだ，アールテ….wav</property>
    <property name="mlt_service">avformat-novalidate</property>
    <property name="meta.media.nb_streams">1</property>
    <property name="meta.media.0.stream.type">audio</property>
    <property name="meta.media.0.codec.sample_fmt">s16</property>
    <property name="meta.media.0.codec.sample_rate">24000</property>
    <property name="meta.media.0.codec.channels">1</property>
    <property name="meta.media.0.codec.name">pcm_s16le</property>
    <property name="meta.media.0.codec.long_name">PCM signed 16-bit little-endian</property>
    <property name="meta.media.0.codec.bit_rate">384000</property>
    <property name="seekable">1</property>
    <property name="audio_index">0</property>
    <property name="video_index">-1</property>
    <property name="creation_time">2023-12-15T03:27:47</property>
    <property name="astream">0</property>
    <property name="shotcut:skipConvert">1</property>
    <property name="xml">was here</property>
    <property name="shotcut:hash">f53d59c16ef734eac7af8aa0f722f1db</property>
    <property name="shotcut:caption">aaa_037_まだまだ，アールテ….wav</property>
  </chain>
  <chain id="chain231" out="00:00:06.640">
    <property name="length">00:00:06.680</property>
    <property name="eof">pause</property>
    <property name="resource">voice/aaa/aaa_038_このアールティーエ….wav</property>
    <property name="mlt_service">avformat-novalidate</property>
    <property name="meta.media.nb_streams">1</property>
    <property name="meta.media.0.stream.type">audio</property>
    <property name="meta.media.0.codec.sample_fmt">s16</property>
    <property name="meta.media.0.codec.sample_rate">24000</property>
    <property name="meta.media.0.codec.channels">1</property>
    <property name="meta.media.0.codec.name">pcm_s16le</property>
    <property name="meta.media.0.codec.long_name">PCM signed 16-bit little-endian</property>
    <property name="meta.media.0.codec.bit_rate">384000</property>
    <property name="seekable">1</property>
    <property name="audio_index">0</property>
    <property name="video_index">-1</property>
    <property name="creation_time">2023-12-15T03:27:49</property>
    <property name="astream">0</property>
    <property name="shotcut:skipConvert">1</property>
    <property name="xml">was here</property>
    <property name="shotcut:hash">d002c04995929e543ed767036284db02</property>
  </chain>
  <chain id="chain232" out="00:00:06.280">
    <property name="length">00:00:06.320</property>
    <property name="eof">pause</property>
    <property name="resource">voice/aaa/aaa_039_従って，LANケー….wav</property>
    <property name="mlt_service">avformat-novalidate</property>
    <property name="meta.media.nb_streams">1</property>
    <property name="meta.media.0.stream.type">audio</property>
    <property name="meta.media.0.codec.sample_fmt">s16</property>
    <property name="meta.media.0.codec.sample_rate">24000</property>
    <property name="meta.media.0.codec.channels">1</property>
    <property name="meta.media.0.codec.name">pcm_s16le</property>
    <property name="meta.media.0.codec.long_name">PCM signed 16-bit little-endian</property>
    <property name="meta.media.0.codec.bit_rate">384000</property>
    <property name="seekable">1</property>
    <property name="audio_index">0</property>
    <property name="video_index">-1</property>
    <property name="creation_time">2023-12-15T03:27:47</property>
    <property name="astream">0</property>
    <property name="shotcut:skipConvert">1</property>
    <property name="xml">was here</property>
    <property name="shotcut:hash">79213faba80fd3c08821ff9043c5a603</property>
  </chain>
  <chain id="chain233" out="00:00:02.360">
    <property name="length">00:00:02.400</property>
    <property name="eof">pause</property>
    <property name="resource">voice/aaa/aaa_040_このテスターについ….wav</property>
    <property name="mlt_service">avformat-novalidate</property>
    <property name="meta.media.nb_streams">1</property>
    <property name="meta.media.0.stream.type">audio</property>
    <property name="meta.media.0.codec.sample_fmt">s16</property>
    <property name="meta.media.0.codec.sample_rate">24000</property>
    <property name="meta.media.0.codec.channels">1</property>
    <property name="meta.media.0.codec.name">pcm_s16le</property>
    <property name="meta.media.0.codec.long_name">PCM signed 16-bit little-endian</property>
    <property name="meta.media.0.codec.bit_rate">384000</property>
    <property name="seekable">1</property>
    <property name="audio_index">0</property>
    <property name="video_index">-1</property>
    <property name="creation_time">2023-12-15T03:27:41</property>
    <property name="astream">0</property>
    <property name="shotcut:skipConvert">1</property>
    <property name="xml">was here</property>
    <property name="shotcut:hash">bf1a563fc2d20a6fdda7a10219d325d5</property>
  </chain>
  <chain id="chain214" out="00:00:07.280">
    <property name="length">00:00:07.320</property>
    <property name="eof">pause</property>
    <property name="resource">voice/zzz/004_雨晴はう（ノーマル）_しちょうもの兄貴姉….wav</property>
    <property name="mlt_service">avformat-novalidate</property>
    <property name="meta.media.nb_streams">1</property>
    <property name="meta.media.0.stream.type">audio</property>
    <property name="meta.media.0.codec.sample_fmt">s16</property>
    <property name="meta.media.0.codec.sample_rate">24000</property>
    <property name="meta.media.0.codec.channels">1</property>
    <property name="meta.media.0.codec.name">pcm_s16le</property>
    <property name="meta.media.0.codec.long_name">PCM signed 16-bit little-endian</property>
    <property name="meta.media.0.codec.bit_rate">384000</property>
    <property name="seekable">1</property>
    <property name="audio_index">0</property>
    <property name="video_index">-1</property>
    <property name="creation_time">2023-12-20T00:55:01</property>
    <property name="astream">0</property>
    <property name="shotcut:hash">d41726168c6b86d513f724d450d41703</property>
    <property name="shotcut:caption">004_雨晴はう（ノーマル）_しちょうもの兄貴姉….wav</property>
    <property name="xml">was here</property>
  </chain>
  <chain id="chain235" out="00:00:08.720">
    <property name="length">00:00:08.760</property>
    <property name="eof">pause</property>
    <property name="resource">voice/aaa/aaa_042_実は我々がよく目に….wav</property>
    <property name="mlt_service">avformat-novalidate</property>
    <property name="meta.media.nb_streams">1</property>
    <property name="meta.media.0.stream.type">audio</property>
    <property name="meta.media.0.codec.sample_fmt">s16</property>
    <property name="meta.media.0.codec.sample_rate">24000</property>
    <property name="meta.media.0.codec.channels">1</property>
    <property name="meta.media.0.codec.name">pcm_s16le</property>
    <property name="meta.media.0.codec.long_name">PCM signed 16-bit little-endian</property>
    <property name="meta.media.0.codec.bit_rate">384000</property>
    <property name="seekable">1</property>
    <property name="audio_index">0</property>
    <property name="video_index">-1</property>
    <property name="creation_time">2023-12-15T03:27:53</property>
    <property name="astream">0</property>
    <property name="shotcut:skipConvert">1</property>
    <property name="xml">was here</property>
    <property name="shotcut:hash">72ecd460a656186c541b48be365bde10</property>
    <property name="shotcut:caption">aaa_042_実は我々がよく目に….wav</property>
  </chain>
  <chain id="chain236" out="00:00:10.120">
    <property name="length">00:00:10.160</property>
    <property name="eof">pause</property>
    <property name="resource">voice/aaa/aaa_043_一見素人には同じに….wav</property>
    <property name="mlt_service">avformat-novalidate</property>
    <property name="meta.media.nb_streams">1</property>
    <property name="meta.media.0.stream.type">audio</property>
    <property name="meta.media.0.codec.sample_fmt">s16</property>
    <property name="meta.media.0.codec.sample_rate">24000</property>
    <property name="meta.media.0.codec.channels">1</property>
    <property name="meta.media.0.codec.name">pcm_s16le</property>
    <property name="meta.media.0.codec.long_name">PCM signed 16-bit little-endian</property>
    <property name="meta.media.0.codec.bit_rate">384000</property>
    <property name="seekable">1</property>
    <property name="audio_index">0</property>
    <property name="video_index">-1</property>
    <property name="creation_time">2023-12-15T03:28:03</property>
    <property name="astream">0</property>
    <property name="shotcut:skipConvert">1</property>
    <property name="xml">was here</property>
    <property name="shotcut:hash">5b33d57909aca64ce65d182bee121e21</property>
  </chain>
  <chain id="chain237" out="00:00:07.200">
    <property name="length">00:00:07.240</property>
    <property name="eof">pause</property>
    <property name="resource">voice/aaa/aaa_044_ざっくり説明すると….wav</property>
    <property name="mlt_service">avformat-novalidate</property>
    <property name="meta.media.nb_streams">1</property>
    <property name="meta.media.0.stream.type">audio</property>
    <property name="meta.media.0.codec.sample_fmt">s16</property>
    <property name="meta.media.0.codec.sample_rate">24000</property>
    <property name="meta.media.0.codec.channels">1</property>
    <property name="meta.media.0.codec.name">pcm_s16le</property>
    <property name="meta.media.0.codec.long_name">PCM signed 16-bit little-endian</property>
    <property name="meta.media.0.codec.bit_rate">384000</property>
    <property name="seekable">1</property>
    <property name="audio_index">0</property>
    <property name="video_index">-1</property>
    <property name="creation_time">2023-12-15T03:28:04</property>
    <property name="astream">0</property>
    <property name="shotcut:skipConvert">1</property>
    <property name="xml">was here</property>
    <property name="shotcut:hash">deb53fd2c1c5ee4acb3e919d2ba66aae</property>
  </chain>
  <chain id="chain238" out="00:00:07.720">
    <property name="length">00:00:07.760</property>
    <property name="eof">pause</property>
    <property name="resource">voice/aaa/aaa_045_なので，このテスタ….wav</property>
    <property name="mlt_service">avformat-novalidate</property>
    <property name="meta.media.nb_streams">1</property>
    <property name="meta.media.0.stream.type">audio</property>
    <property name="meta.media.0.codec.sample_fmt">s16</property>
    <property name="meta.media.0.codec.sample_rate">24000</property>
    <property name="meta.media.0.codec.channels">1</property>
    <property name="meta.media.0.codec.name">pcm_s16le</property>
    <property name="meta.media.0.codec.long_name">PCM signed 16-bit little-endian</property>
    <property name="meta.media.0.codec.bit_rate">384000</property>
    <property name="seekable">1</property>
    <property name="audio_index">0</property>
    <property name="video_index">-1</property>
    <property name="creation_time">2023-12-15T03:28:05</property>
    <property name="astream">0</property>
    <property name="shotcut:skipConvert">1</property>
    <property name="xml">was here</property>
    <property name="shotcut:hash">0db0e106e31796c05f8fd453dc2a35bf</property>
  </chain>
  <chain id="chain239" out="00:00:04.880">
    <property name="length">00:00:04.920</property>
    <property name="eof">pause</property>
    <property name="resource">voice/aaa/aaa_046_断線や，正しい配線….wav</property>
    <property name="mlt_service">avformat-novalidate</property>
    <property name="meta.media.nb_streams">1</property>
    <property name="meta.media.0.stream.type">audio</property>
    <property name="meta.media.0.codec.sample_fmt">s16</property>
    <property name="meta.media.0.codec.sample_rate">24000</property>
    <property name="meta.media.0.codec.channels">1</property>
    <property name="meta.media.0.codec.name">pcm_s16le</property>
    <property name="meta.media.0.codec.long_name">PCM signed 16-bit little-endian</property>
    <property name="meta.media.0.codec.bit_rate">384000</property>
    <property name="seekable">1</property>
    <property name="audio_index">0</property>
    <property name="video_index">-1</property>
    <property name="creation_time">2023-12-15T03:28:02</property>
    <property name="astream">0</property>
    <property name="shotcut:skipConvert">1</property>
    <property name="xml">was here</property>
    <property name="shotcut:hash">1bc6a5788d8e5a0798d413456ddb65a1</property>
  </chain>
  <chain id="chain240" out="00:00:03.400">
    <property name="length">00:00:03.440</property>
    <property name="eof">pause</property>
    <property name="resource">voice/aaa/aaa_047_今回はこの部分が光….wav</property>
    <property name="mlt_service">avformat-novalidate</property>
    <property name="meta.media.nb_streams">1</property>
    <property name="meta.media.0.stream.type">audio</property>
    <property name="meta.media.0.codec.sample_fmt">s16</property>
    <property name="meta.media.0.codec.sample_rate">24000</property>
    <property name="meta.media.0.codec.channels">1</property>
    <property name="meta.media.0.codec.name">pcm_s16le</property>
    <property name="meta.media.0.codec.long_name">PCM signed 16-bit little-endian</property>
    <property name="meta.media.0.codec.bit_rate">384000</property>
    <property name="seekable">1</property>
    <property name="audio_index">0</property>
    <property name="video_index">-1</property>
    <property name="creation_time">2023-12-15T03:28:02</property>
    <property name="astream">0</property>
    <property name="shotcut:skipConvert">1</property>
    <property name="xml">was here</property>
    <property name="shotcut:hash">699d88ce6b3d682a198b333a43ce0a7b</property>
    <property name="shotcut:caption">aaa_047_今回はこの部分が光….wav</property>
  </chain>
  <chain id="chain242" out="00:00:08.360">
    <property name="length">00:00:08.400</property>
    <property name="eof">pause</property>
    <property name="resource">voice/aaa/aaa_050_さて，当然LANケ….wav</property>
    <property name="mlt_service">avformat-novalidate</property>
    <property name="meta.media.nb_streams">1</property>
    <property name="meta.media.0.stream.type">audio</property>
    <property name="meta.media.0.codec.sample_fmt">s16</property>
    <property name="meta.media.0.codec.sample_rate">24000</property>
    <property name="meta.media.0.codec.channels">1</property>
    <property name="meta.media.0.codec.name">pcm_s16le</property>
    <property name="meta.media.0.codec.long_name">PCM signed 16-bit little-endian</property>
    <property name="meta.media.0.codec.bit_rate">384000</property>
    <property name="seekable">1</property>
    <property name="audio_index">0</property>
    <property name="video_index">-1</property>
    <property name="creation_time">2023-12-15T03:28:19</property>
    <property name="astream">0</property>
    <property name="shotcut:skipConvert">1</property>
    <property name="xml">was here</property>
    <property name="shotcut:hash">77ea091a406798afdfe0be000bcfcc40</property>
    <property name="shotcut:caption">aaa_050_さて，当然LANケ….wav</property>
  </chain>
  <chain id="chain243" out="00:00:04.560">
    <property name="length">00:00:04.600</property>
    <property name="eof">pause</property>
    <property name="resource">voice/aaa/aaa_051_ゆーてぃーぴーとい….wav</property>
    <property name="mlt_service">avformat-novalidate</property>
    <property name="meta.media.nb_streams">1</property>
    <property name="meta.media.0.stream.type">audio</property>
    <property name="meta.media.0.codec.sample_fmt">s16</property>
    <property name="meta.media.0.codec.sample_rate">24000</property>
    <property name="meta.media.0.codec.channels">1</property>
    <property name="meta.media.0.codec.name">pcm_s16le</property>
    <property name="meta.media.0.codec.long_name">PCM signed 16-bit little-endian</property>
    <property name="meta.media.0.codec.bit_rate">384000</property>
    <property name="seekable">1</property>
    <property name="audio_index">0</property>
    <property name="video_index">-1</property>
    <property name="creation_time">2023-12-15T03:28:15</property>
    <property name="astream">0</property>
    <property name="shotcut:skipConvert">1</property>
    <property name="xml">was here</property>
    <property name="shotcut:hash">c5ca33a57f87aa153d0a57c1c3f38937</property>
    <property name="shotcut:caption">aaa_051_ゆーてぃーぴーとい….wav</property>
  </chain>
  <chain id="chain244" out="00:00:06.200">
    <property name="length">00:00:06.240</property>
    <property name="eof">pause</property>
    <property name="resource">voice/aaa/aaa_052_そして，あーるじぇ….wav</property>
    <property name="mlt_service">avformat-novalidate</property>
    <property name="meta.media.nb_streams">1</property>
    <property name="meta.media.0.stream.type">audio</property>
    <property name="meta.media.0.codec.sample_fmt">s16</property>
    <property name="meta.media.0.codec.sample_rate">24000</property>
    <property name="meta.media.0.codec.channels">1</property>
    <property name="meta.media.0.codec.name">pcm_s16le</property>
    <property name="meta.media.0.codec.long_name">PCM signed 16-bit little-endian</property>
    <property name="meta.media.0.codec.bit_rate">384000</property>
    <property name="seekable">1</property>
    <property name="audio_index">0</property>
    <property name="video_index">-1</property>
    <property name="creation_time">2023-12-15T04:01:47</property>
    <property name="astream">0</property>
    <property name="shotcut:skipConvert">1</property>
    <property name="xml">was here</property>
    <property name="shotcut:hash">5e0fbfd927145830b5c7684a835e2192</property>
    <property name="shotcut:caption">aaa_052_そして，あーるじぇ….wav</property>
  </chain>
  <chain id="chain246" out="00:00:04.640">
    <property name="length">00:00:04.680</property>
    <property name="eof">pause</property>
    <property name="resource">voice/aaa/aaa_055_あと，ニッパーのよ….wav</property>
    <property name="mlt_service">avformat-novalidate</property>
    <property name="meta.media.nb_streams">1</property>
    <property name="meta.media.0.stream.type">audio</property>
    <property name="meta.media.0.codec.sample_fmt">s16</property>
    <property name="meta.media.0.codec.sample_rate">24000</property>
    <property name="meta.media.0.codec.channels">1</property>
    <property name="meta.media.0.codec.name">pcm_s16le</property>
    <property name="meta.media.0.codec.long_name">PCM signed 16-bit little-endian</property>
    <property name="meta.media.0.codec.bit_rate">384000</property>
    <property name="seekable">1</property>
    <property name="audio_index">0</property>
    <property name="video_index">-1</property>
    <property name="creation_time">2023-12-15T03:28:19</property>
    <property name="astream">0</property>
    <property name="shotcut:skipConvert">1</property>
    <property name="xml">was here</property>
    <property name="shotcut:hash">7afdc698d09ca829f7c45bab0530652f</property>
    <property name="shotcut:caption">aaa_055_あと，ニッパーのよ….wav</property>
  </chain>
  <chain id="chain247" out="00:00:01.840">
    <property name="length">00:00:01.880</property>
    <property name="eof">pause</property>
    <property name="resource">voice/aaa/aaa_056_これにて準備完了で….wav</property>
    <property name="mlt_service">avformat-novalidate</property>
    <property name="meta.media.nb_streams">1</property>
    <property name="meta.media.0.stream.type">audio</property>
    <property name="meta.media.0.codec.sample_fmt">s16</property>
    <property name="meta.media.0.codec.sample_rate">24000</property>
    <property name="meta.media.0.codec.channels">1</property>
    <property name="meta.media.0.codec.name">pcm_s16le</property>
    <property name="meta.media.0.codec.long_name">PCM signed 16-bit little-endian</property>
    <property name="meta.media.0.codec.bit_rate">384000</property>
    <property name="seekable">1</property>
    <property name="audio_index">0</property>
    <property name="video_index">-1</property>
    <property name="creation_time">2023-12-15T03:28:16</property>
    <property name="astream">0</property>
    <property name="shotcut:skipConvert">1</property>
    <property name="xml">was here</property>
    <property name="shotcut:hash">2e9d7f60e504bd2f74f8eb8e81b76308</property>
  </chain>
  <chain id="chain248" out="00:00:02.080">
    <property name="length">00:00:02.120</property>
    <property name="eof">pause</property>
    <property name="resource">voice/aaa/aaa_057_用意するものはこの….wav</property>
    <property name="mlt_service">avformat-novalidate</property>
    <property name="meta.media.nb_streams">1</property>
    <property name="meta.media.0.stream.type">audio</property>
    <property name="meta.media.0.codec.sample_fmt">s16</property>
    <property name="meta.media.0.codec.sample_rate">24000</property>
    <property name="meta.media.0.codec.channels">1</property>
    <property name="meta.media.0.codec.name">pcm_s16le</property>
    <property name="meta.media.0.codec.long_name">PCM signed 16-bit little-endian</property>
    <property name="meta.media.0.codec.bit_rate">384000</property>
    <property name="seekable">1</property>
    <property name="audio_index">0</property>
    <property name="video_index">-1</property>
    <property name="creation_time">2023-12-15T03:28:22</property>
    <property name="astream">0</property>
    <property name="shotcut:skipConvert">1</property>
    <property name="xml">was here</property>
    <property name="shotcut:hash">92de0f3642ffd019926bfab45fa97465</property>
    <property name="shotcut:caption">aaa_057_用意するものはこの….wav</property>
  </chain>
  <chain id="chain249" out="00:00:00.720">
    <property name="length">00:00:00.760</property>
    <property name="eof">pause</property>
    <property name="resource">voice/aaa/aaa_058_テスター.wav</property>
    <property name="mlt_service">avformat-novalidate</property>
    <property name="meta.media.nb_streams">1</property>
    <property name="meta.media.0.stream.type">audio</property>
    <property name="meta.media.0.codec.sample_fmt">s16</property>
    <property name="meta.media.0.codec.sample_rate">24000</property>
    <property name="meta.media.0.codec.channels">1</property>
    <property name="meta.media.0.codec.name">pcm_s16le</property>
    <property name="meta.media.0.codec.long_name">PCM signed 16-bit little-endian</property>
    <property name="meta.media.0.codec.bit_rate">384000</property>
    <property name="seekable">1</property>
    <property name="audio_index">0</property>
    <property name="video_index">-1</property>
    <property name="creation_time">2023-12-15T03:28:19</property>
    <property name="astream">0</property>
    <property name="shotcut:skipConvert">1</property>
    <property name="xml">was here</property>
    <property name="shotcut:hash">52cada10a339388da531b10f5bd3e5b0</property>
    <property name="shotcut:caption">aaa_058_テスター.wav</property>
  </chain>
  <chain id="chain250" out="00:00:01.800">
    <property name="length">00:00:01.840</property>
    <property name="eof">pause</property>
    <property name="resource">voice/aaa/aaa_059_切り落とされたLA….wav</property>
    <property name="mlt_service">avformat-novalidate</property>
    <property name="meta.media.nb_streams">1</property>
    <property name="meta.media.0.stream.type">audio</property>
    <property name="meta.media.0.codec.sample_fmt">s16</property>
    <property name="meta.media.0.codec.sample_rate">24000</property>
    <property name="meta.media.0.codec.channels">1</property>
    <property name="meta.media.0.codec.name">pcm_s16le</property>
    <property name="meta.media.0.codec.long_name">PCM signed 16-bit little-endian</property>
    <property name="meta.media.0.codec.bit_rate">384000</property>
    <property name="seekable">1</property>
    <property name="audio_index">0</property>
    <property name="video_index">-1</property>
    <property name="creation_time">2023-12-15T03:28:22</property>
    <property name="astream">0</property>
    <property name="shotcut:skipConvert">1</property>
    <property name="xml">was here</property>
    <property name="shotcut:hash">cfc90225c92ed45fe609783c3fa3bf0e</property>
    <property name="shotcut:caption">aaa_059_切り落とされたLA….wav</property>
  </chain>
  <chain id="chain251" out="00:00:02.280">
    <property name="length">00:00:02.320</property>
    <property name="eof">pause</property>
    <property name="resource">voice/aaa/aaa_060_あーるじぇーヨンゴ….wav</property>
    <property name="mlt_service">avformat-novalidate</property>
    <property name="meta.media.nb_streams">1</property>
    <property name="meta.media.0.stream.type">audio</property>
    <property name="meta.media.0.codec.sample_fmt">s16</property>
    <property name="meta.media.0.codec.sample_rate">24000</property>
    <property name="meta.media.0.codec.channels">1</property>
    <property name="meta.media.0.codec.name">pcm_s16le</property>
    <property name="meta.media.0.codec.long_name">PCM signed 16-bit little-endian</property>
    <property name="meta.media.0.codec.bit_rate">384000</property>
    <property name="seekable">1</property>
    <property name="audio_index">0</property>
    <property name="video_index">-1</property>
    <property name="creation_time">2023-12-15T03:28:23</property>
    <property name="astream">0</property>
    <property name="shotcut:skipConvert">1</property>
    <property name="xml">was here</property>
    <property name="shotcut:hash">efa65dc32ce9a92a1b1edf4810ce6202</property>
    <property name="shotcut:caption">aaa_060_あーるじぇーヨンゴ….wav</property>
  </chain>
  <chain id="chain252" out="00:00:01.440">
    <property name="length">00:00:01.480</property>
    <property name="eof">pause</property>
    <property name="resource">voice/aaa/aaa_061_ニッパーのようなもの.wav</property>
    <property name="mlt_service">avformat-novalidate</property>
    <property name="meta.media.nb_streams">1</property>
    <property name="meta.media.0.stream.type">audio</property>
    <property name="meta.media.0.codec.sample_fmt">s16</property>
    <property name="meta.media.0.codec.sample_rate">24000</property>
    <property name="meta.media.0.codec.channels">1</property>
    <property name="meta.media.0.codec.name">pcm_s16le</property>
    <property name="meta.media.0.codec.long_name">PCM signed 16-bit little-endian</property>
    <property name="meta.media.0.codec.bit_rate">384000</property>
    <property name="seekable">1</property>
    <property name="audio_index">0</property>
    <property name="video_index">-1</property>
    <property name="creation_time">2023-12-15T03:28:24</property>
    <property name="astream">0</property>
    <property name="shotcut:skipConvert">1</property>
    <property name="xml">was here</property>
    <property name="shotcut:hash">241d3333fb781d2f33cca3b6994cf818</property>
    <property name="shotcut:caption">aaa_061_ニッパーのようなもの.wav</property>
  </chain>
  <chain id="chain253" out="00:00:01.760">
    <property name="length">00:00:01.800</property>
    <property name="eof">pause</property>
    <property name="resource">voice/aaa/aaa_062_かしめ工具のような….wav</property>
    <property name="mlt_service">avformat-novalidate</property>
    <property name="meta.media.nb_streams">1</property>
    <property name="meta.media.0.stream.type">audio</property>
    <property name="meta.media.0.codec.sample_fmt">s16</property>
    <property name="meta.media.0.codec.sample_rate">24000</property>
    <property name="meta.media.0.codec.channels">1</property>
    <property name="meta.media.0.codec.name">pcm_s16le</property>
    <property name="meta.media.0.codec.long_name">PCM signed 16-bit little-endian</property>
    <property name="meta.media.0.codec.bit_rate">384000</property>
    <property name="seekable">1</property>
    <property name="audio_index">0</property>
    <property name="video_index">-1</property>
    <property name="creation_time">2023-12-15T03:28:25</property>
    <property name="astream">0</property>
    <property name="shotcut:skipConvert">1</property>
    <property name="xml">was here</property>
    <property name="shotcut:hash">6b1405d3759305a63f1219af5d8bb5a7</property>
    <property name="shotcut:caption">aaa_062_かしめ工具のような….wav</property>
  </chain>
  <chain id="chain254" out="00:00:00.760">
    <property name="length">00:00:00.800</property>
    <property name="eof">pause</property>
    <property name="resource">voice/aaa/aaa_063_だけです．.wav</property>
    <property name="mlt_service">avformat-novalidate</property>
    <property name="meta.media.nb_streams">1</property>
    <property name="meta.media.0.stream.type">audio</property>
    <property name="meta.media.0.codec.sample_fmt">s16</property>
    <property name="meta.media.0.codec.sample_rate">24000</property>
    <property name="meta.media.0.codec.channels">1</property>
    <property name="meta.media.0.codec.name">pcm_s16le</property>
    <property name="meta.media.0.codec.long_name">PCM signed 16-bit little-endian</property>
    <property name="meta.media.0.codec.bit_rate">384000</property>
    <property name="seekable">1</property>
    <property name="audio_index">0</property>
    <property name="video_index">-1</property>
    <property name="creation_time">2023-12-15T03:28:23</property>
    <property name="astream">0</property>
    <property name="shotcut:skipConvert">1</property>
    <property name="xml">was here</property>
    <property name="shotcut:hash">d8b730f9a7cb5e0a87a0137e74b18c16</property>
    <property name="shotcut:caption">aaa_063_だけです．.wav</property>
  </chain>
  <chain id="chain256" out="00:00:02.720">
    <property name="length">00:00:02.760</property>
    <property name="eof">pause</property>
    <property name="resource">voice/aaa/aaa_066_アールティーエーの….wav</property>
    <property name="mlt_service">avformat-novalidate</property>
    <property name="meta.media.nb_streams">1</property>
    <property name="meta.media.0.stream.type">audio</property>
    <property name="meta.media.0.codec.sample_fmt">s16</property>
    <property name="meta.media.0.codec.sample_rate">24000</property>
    <property name="meta.media.0.codec.channels">1</property>
    <property name="meta.media.0.codec.name">pcm_s16le</property>
    <property name="meta.media.0.codec.long_name">PCM signed 16-bit little-endian</property>
    <property name="meta.media.0.codec.bit_rate">384000</property>
    <property name="seekable">1</property>
    <property name="audio_index">0</property>
    <property name="video_index">-1</property>
    <property name="creation_time">2023-12-15T03:28:32</property>
    <property name="astream">0</property>
    <property name="shotcut:skipConvert">1</property>
    <property name="xml">was here</property>
    <property name="shotcut:hash">3fc09f960168ae5ada75784c674ad4eb</property>
    <property name="shotcut:caption">aaa_066_アールティーエーの….wav</property>
  </chain>
  <chain id="chain257" out="00:00:04.720">
    <property name="length">00:00:04.760</property>
    <property name="eof">pause</property>
    <property name="resource">voice/aaa/aaa_067_配線，長さを整える….wav</property>
    <property name="mlt_service">avformat-novalidate</property>
    <property name="meta.media.nb_streams">1</property>
    <property name="meta.media.0.stream.type">audio</property>
    <property name="meta.media.0.codec.sample_fmt">s16</property>
    <property name="meta.media.0.codec.sample_rate">24000</property>
    <property name="meta.media.0.codec.channels">1</property>
    <property name="meta.media.0.codec.name">pcm_s16le</property>
    <property name="meta.media.0.codec.long_name">PCM signed 16-bit little-endian</property>
    <property name="meta.media.0.codec.bit_rate">384000</property>
    <property name="seekable">1</property>
    <property name="audio_index">0</property>
    <property name="video_index">-1</property>
    <property name="creation_time">2023-12-15T03:28:35</property>
    <property name="astream">0</property>
    <property name="shotcut:skipConvert">1</property>
    <property name="xml">was here</property>
    <property name="shotcut:hash">3611ea107044a7868fd5c81535e15706</property>
    <property name="shotcut:caption">aaa_067_配線，長さを整える….wav</property>
  </chain>
  <chain id="chain258" out="00:00:03.520">
    <property name="length">00:00:03.560</property>
    <property name="eof">pause</property>
    <property name="resource">voice/aaa/aaa_068_を両端で行い，最後….wav</property>
    <property name="mlt_service">avformat-novalidate</property>
    <property name="meta.media.nb_streams">1</property>
    <property name="meta.media.0.stream.type">audio</property>
    <property name="meta.media.0.codec.sample_fmt">s16</property>
    <property name="meta.media.0.codec.sample_rate">24000</property>
    <property name="meta.media.0.codec.channels">1</property>
    <property name="meta.media.0.codec.name">pcm_s16le</property>
    <property name="meta.media.0.codec.long_name">PCM signed 16-bit little-endian</property>
    <property name="meta.media.0.codec.bit_rate">384000</property>
    <property name="seekable">1</property>
    <property name="audio_index">0</property>
    <property name="video_index">-1</property>
    <property name="creation_time">2023-12-15T03:28:34</property>
    <property name="astream">0</property>
    <property name="shotcut:skipConvert">1</property>
    <property name="xml">was here</property>
    <property name="shotcut:hash">e6640792e01fb210a5e078839ce23104</property>
    <property name="shotcut:caption">aaa_068_を両端で行い，最後….wav</property>
  </chain>
  <chain id="chain259" out="00:00:02.840">
    <property name="length">00:00:02.880</property>
    <property name="eof">pause</property>
    <property name="resource">voice/aaa/aaa_069_雰囲気だけ掴んでも….wav</property>
    <property name="mlt_service">avformat-novalidate</property>
    <property name="meta.media.nb_streams">1</property>
    <property name="meta.media.0.stream.type">audio</property>
    <property name="meta.media.0.codec.sample_fmt">s16</property>
    <property name="meta.media.0.codec.sample_rate">24000</property>
    <property name="meta.media.0.codec.channels">1</property>
    <property name="meta.media.0.codec.name">pcm_s16le</property>
    <property name="meta.media.0.codec.long_name">PCM signed 16-bit little-endian</property>
    <property name="meta.media.0.codec.bit_rate">384000</property>
    <property name="seekable">1</property>
    <property name="audio_index">0</property>
    <property name="video_index">-1</property>
    <property name="creation_time">2023-12-15T03:28:34</property>
    <property name="astream">0</property>
    <property name="shotcut:skipConvert">1</property>
    <property name="xml">was here</property>
    <property name="shotcut:hash">ed2e342abb2a4f5154ad43899cbf0343</property>
  </chain>
  <chain id="chain260" out="00:00:04.040">
    <property name="length">00:00:04.080</property>
    <property name="eof">pause</property>
    <property name="resource">voice/aaa/aaa_070_さて，準備ができた….wav</property>
    <property name="mlt_service">avformat-novalidate</property>
    <property name="meta.media.nb_streams">1</property>
    <property name="meta.media.0.stream.type">audio</property>
    <property name="meta.media.0.codec.sample_fmt">s16</property>
    <property name="meta.media.0.codec.sample_rate">24000</property>
    <property name="meta.media.0.codec.channels">1</property>
    <property name="meta.media.0.codec.name">pcm_s16le</property>
    <property name="meta.media.0.codec.long_name">PCM signed 16-bit little-endian</property>
    <property name="meta.media.0.codec.bit_rate">384000</property>
    <property name="seekable">1</property>
    <property name="audio_index">0</property>
    <property name="video_index">-1</property>
    <property name="creation_time">2023-12-15T03:28:39</property>
    <property name="astream">0</property>
    <property name="shotcut:skipConvert">1</property>
    <property name="xml">was here</property>
    <property name="shotcut:hash">fe5bb3335794e537549ad93828397db4</property>
    <property name="shotcut:caption">aaa_070_さて，準備ができた….wav</property>
  </chain>
  <chain id="chain261" out="00:00:03.640">
    <property name="length">00:00:03.680</property>
    <property name="eof">pause</property>
    <property name="resource">voice/aaa/aaa_071_LANケーブルを手….wav</property>
    <property name="mlt_service">avformat-novalidate</property>
    <property name="meta.media.nb_streams">1</property>
    <property name="meta.media.0.stream.type">audio</property>
    <property name="meta.media.0.codec.sample_fmt">s16</property>
    <property name="meta.media.0.codec.sample_rate">24000</property>
    <property name="meta.media.0.codec.channels">1</property>
    <property name="meta.media.0.codec.name">pcm_s16le</property>
    <property name="meta.media.0.codec.long_name">PCM signed 16-bit little-endian</property>
    <property name="meta.media.0.codec.bit_rate">384000</property>
    <property name="seekable">1</property>
    <property name="audio_index">0</property>
    <property name="video_index">-1</property>
    <property name="creation_time">2023-12-15T03:28:39</property>
    <property name="astream">0</property>
    <property name="shotcut:skipConvert">1</property>
    <property name="xml">was here</property>
    <property name="shotcut:hash">fae7e1a743735d3d96d334e206c93855</property>
    <property name="shotcut:caption">aaa_071_LANケーブルを手….wav</property>
  </chain>
  <chain id="chain262" out="00:00:01.920">
    <property name="length">00:00:01.960</property>
    <property name="eof">pause</property>
    <property name="resource">voice/aaa/aaa_072_はい．よーいすたー….wav</property>
    <property name="mlt_service">avformat-novalidate</property>
    <property name="meta.media.nb_streams">1</property>
    <property name="meta.media.0.stream.type">audio</property>
    <property name="meta.media.0.codec.sample_fmt">s16</property>
    <property name="meta.media.0.codec.sample_rate">24000</property>
    <property name="meta.media.0.codec.channels">1</property>
    <property name="meta.media.0.codec.name">pcm_s16le</property>
    <property name="meta.media.0.codec.long_name">PCM signed 16-bit little-endian</property>
    <property name="meta.media.0.codec.bit_rate">384000</property>
    <property name="seekable">1</property>
    <property name="audio_index">0</property>
    <property name="video_index">-1</property>
    <property name="creation_time">2023-12-15T03:28:39</property>
    <property name="astream">0</property>
    <property name="shotcut:skipConvert">1</property>
    <property name="xml">was here</property>
    <property name="shotcut:hash">1ff315dcdb9143321b0651c5e3a0be73</property>
  </chain>
  <chain id="chain265" out="00:00:05.080">
    <property name="length">00:00:05.120</property>
    <property name="eof">pause</property>
    <property name="resource">voice/aaa/aaa_075_まずはLANケーブ….wav</property>
    <property name="mlt_service">avformat-novalidate</property>
    <property name="meta.media.nb_streams">1</property>
    <property name="meta.media.0.stream.type">audio</property>
    <property name="meta.media.0.codec.sample_fmt">s16</property>
    <property name="meta.media.0.codec.sample_rate">24000</property>
    <property name="meta.media.0.codec.channels">1</property>
    <property name="meta.media.0.codec.name">pcm_s16le</property>
    <property name="meta.media.0.codec.long_name">PCM signed 16-bit little-endian</property>
    <property name="meta.media.0.codec.bit_rate">384000</property>
    <property name="seekable">1</property>
    <property name="audio_index">0</property>
    <property name="video_index">-1</property>
    <property name="creation_time">2023-12-15T03:28:47</property>
    <property name="astream">0</property>
    <property name="shotcut:skipConvert">1</property>
    <property name="xml">was here</property>
    <property name="shotcut:hash">a995e78614912b595bb7f90e5a31323e</property>
    <property name="shotcut:caption">aaa_075_まずはLANケーブ….wav</property>
  </chain>
  <chain id="chain266" out="00:00:04.440">
    <property name="length">00:00:04.480</property>
    <property name="eof">pause</property>
    <property name="resource">voice/aaa/aaa_076_うぷぬしは天才なの….wav</property>
    <property name="mlt_service">avformat-novalidate</property>
    <property name="meta.media.nb_streams">1</property>
    <property name="meta.media.0.stream.type">audio</property>
    <property name="meta.media.0.codec.sample_fmt">s16</property>
    <property name="meta.media.0.codec.sample_rate">24000</property>
    <property name="meta.media.0.codec.channels">1</property>
    <property name="meta.media.0.codec.name">pcm_s16le</property>
    <property name="meta.media.0.codec.long_name">PCM signed 16-bit little-endian</property>
    <property name="meta.media.0.codec.bit_rate">384000</property>
    <property name="seekable">1</property>
    <property name="audio_index">0</property>
    <property name="video_index">-1</property>
    <property name="creation_time">2023-12-15T03:28:50</property>
    <property name="astream">0</property>
    <property name="shotcut:skipConvert">1</property>
    <property name="xml">was here</property>
    <property name="shotcut:hash">8be705b87fe1cc015e3461f28c46d20f</property>
    <property name="shotcut:caption">aaa_076_うぷぬしは天才なの….wav</property>
  </chain>
  <chain id="chain267" out="00:00:06.440">
    <property name="length">00:00:06.480</property>
    <property name="eof">pause</property>
    <property name="resource">voice/aaa/aaa_077_ですが，記憶力がハ….wav</property>
    <property name="mlt_service">avformat-novalidate</property>
    <property name="meta.media.nb_streams">1</property>
    <property name="meta.media.0.stream.type">audio</property>
    <property name="meta.media.0.codec.sample_fmt">s16</property>
    <property name="meta.media.0.codec.sample_rate">24000</property>
    <property name="meta.media.0.codec.channels">1</property>
    <property name="meta.media.0.codec.name">pcm_s16le</property>
    <property name="meta.media.0.codec.long_name">PCM signed 16-bit little-endian</property>
    <property name="meta.media.0.codec.bit_rate">384000</property>
    <property name="seekable">1</property>
    <property name="audio_index">0</property>
    <property name="video_index">-1</property>
    <property name="creation_time">2023-12-15T03:28:53</property>
    <property name="astream">0</property>
    <property name="shotcut:skipConvert">1</property>
    <property name="xml">was here</property>
    <property name="shotcut:hash">b49a9f262cd397492710c6dac84ef1f0</property>
  </chain>
  <chain id="chain270" out="00:00:03.360">
    <property name="length">00:00:03.400</property>
    <property name="eof">pause</property>
    <property name="resource">voice/aaa/aaa_080_ここで先程のゆーて….wav</property>
    <property name="mlt_service">avformat-novalidate</property>
    <property name="meta.media.nb_streams">1</property>
    <property name="meta.media.0.stream.type">audio</property>
    <property name="meta.media.0.codec.sample_fmt">s16</property>
    <property name="meta.media.0.codec.sample_rate">24000</property>
    <property name="meta.media.0.codec.channels">1</property>
    <property name="meta.media.0.codec.name">pcm_s16le</property>
    <property name="meta.media.0.codec.long_name">PCM signed 16-bit little-endian</property>
    <property name="meta.media.0.codec.bit_rate">384000</property>
    <property name="seekable">1</property>
    <property name="audio_index">0</property>
    <property name="video_index">-1</property>
    <property name="creation_time">2023-12-15T03:28:55</property>
    <property name="astream">0</property>
    <property name="shotcut:skipConvert">1</property>
    <property name="xml">was here</property>
    <property name="shotcut:hash">95eb9a25492ab90f9aadf4f5dd378c0d</property>
    <property name="shotcut:caption">aaa_080_ここで先程のゆーて….wav</property>
  </chain>
  <chain id="chain271" out="00:00:09.560">
    <property name="length">00:00:09.600</property>
    <property name="eof">pause</property>
    <property name="resource">voice/aaa/aaa_081_ゆーてぃーぴー.wav</property>
    <property name="mlt_service">avformat-novalidate</property>
    <property name="meta.media.nb_streams">1</property>
    <property name="meta.media.0.stream.type">audio</property>
    <property name="meta.media.0.codec.sample_fmt">s16</property>
    <property name="meta.media.0.codec.sample_rate">24000</property>
    <property name="meta.media.0.codec.channels">1</property>
    <property name="meta.media.0.codec.name">pcm_s16le</property>
    <property name="meta.media.0.codec.long_name">PCM signed 16-bit little-endian</property>
    <property name="meta.media.0.codec.bit_rate">384000</property>
    <property name="seekable">1</property>
    <property name="audio_index">0</property>
    <property name="video_index">-1</property>
    <property name="creation_time">2023-12-15T03:29:10</property>
    <property name="astream">0</property>
    <property name="shotcut:skipConvert">1</property>
    <property name="xml">was here</property>
    <property name="shotcut:hash">f55832d1c19b8942ee04eff99707a602</property>
    <property name="shotcut:caption">aaa_081_ゆーてぃーぴー.wav</property>
  </chain>
  <chain id="chain272" out="00:00:09.960">
    <property name="length">00:00:10.000</property>
    <property name="eof">pause</property>
    <property name="resource">voice/aaa/aaa_082_それに対して，エス….wav</property>
    <property name="mlt_service">avformat-novalidate</property>
    <property name="meta.media.nb_streams">1</property>
    <property name="meta.media.0.stream.type">audio</property>
    <property name="meta.media.0.codec.sample_fmt">s16</property>
    <property name="meta.media.0.codec.sample_rate">24000</property>
    <property name="meta.media.0.codec.channels">1</property>
    <property name="meta.media.0.codec.name">pcm_s16le</property>
    <property name="meta.media.0.codec.long_name">PCM signed 16-bit little-endian</property>
    <property name="meta.media.0.codec.bit_rate">384000</property>
    <property name="seekable">1</property>
    <property name="audio_index">0</property>
    <property name="video_index">-1</property>
    <property name="creation_time">2023-12-15T03:29:10</property>
    <property name="astream">0</property>
    <property name="shotcut:skipConvert">1</property>
    <property name="xml">was here</property>
    <property name="shotcut:hash">c7e585ed208aa60601e3cf6437edb351</property>
  </chain>
  <chain id="chain273" out="00:00:05.520">
    <property name="length">00:00:05.560</property>
    <property name="eof">pause</property>
    <property name="resource">voice/aaa/aaa_083_当然，エスティーピ….wav</property>
    <property name="mlt_service">avformat-novalidate</property>
    <property name="meta.media.nb_streams">1</property>
    <property name="meta.media.0.stream.type">audio</property>
    <property name="meta.media.0.codec.sample_fmt">s16</property>
    <property name="meta.media.0.codec.sample_rate">24000</property>
    <property name="meta.media.0.codec.channels">1</property>
    <property name="meta.media.0.codec.name">pcm_s16le</property>
    <property name="meta.media.0.codec.long_name">PCM signed 16-bit little-endian</property>
    <property name="meta.media.0.codec.bit_rate">384000</property>
    <property name="seekable">1</property>
    <property name="audio_index">0</property>
    <property name="video_index">-1</property>
    <property name="creation_time">2023-12-15T03:29:05</property>
    <property name="astream">0</property>
    <property name="shotcut:skipConvert">1</property>
    <property name="xml">was here</property>
    <property name="shotcut:hash">6f1018327d154c7fea3f53979c9d8954</property>
    <property name="shotcut:caption">aaa_083_当然，エスティーピ….wav</property>
  </chain>
  <chain id="chain274" out="00:00:07.920">
    <property name="length">00:00:07.960</property>
    <property name="eof">pause</property>
    <property name="resource">voice/aaa/aaa_084_今回はゆーてぃーぴ….wav</property>
    <property name="mlt_service">avformat-novalidate</property>
    <property name="meta.media.nb_streams">1</property>
    <property name="meta.media.0.stream.type">audio</property>
    <property name="meta.media.0.codec.sample_fmt">s16</property>
    <property name="meta.media.0.codec.sample_rate">24000</property>
    <property name="meta.media.0.codec.channels">1</property>
    <property name="meta.media.0.codec.name">pcm_s16le</property>
    <property name="meta.media.0.codec.long_name">PCM signed 16-bit little-endian</property>
    <property name="meta.media.0.codec.bit_rate">384000</property>
    <property name="seekable">1</property>
    <property name="audio_index">0</property>
    <property name="video_index">-1</property>
    <property name="creation_time">2023-12-15T03:29:08</property>
    <property name="astream">0</property>
    <property name="shotcut:skipConvert">1</property>
    <property name="xml">was here</property>
    <property name="shotcut:hash">3fa13f53f9444950d2d4e25efb54905a</property>
  </chain>
  <chain id="chain277" out="00:00:03.600">
    <property name="length">00:00:03.640</property>
    <property name="eof">pause</property>
    <property name="resource">voice/aaa/aaa_087_やはりハトなので，….wav</property>
    <property name="mlt_service">avformat-novalidate</property>
    <property name="meta.media.nb_streams">1</property>
    <property name="meta.media.0.stream.type">audio</property>
    <property name="meta.media.0.codec.sample_fmt">s16</property>
    <property name="meta.media.0.codec.sample_rate">24000</property>
    <property name="meta.media.0.codec.channels">1</property>
    <property name="meta.media.0.codec.name">pcm_s16le</property>
    <property name="meta.media.0.codec.long_name">PCM signed 16-bit little-endian</property>
    <property name="meta.media.0.codec.bit_rate">384000</property>
    <property name="seekable">1</property>
    <property name="audio_index">0</property>
    <property name="video_index">-1</property>
    <property name="creation_time">2023-12-15T03:29:11</property>
    <property name="astream">0</property>
    <property name="shotcut:skipConvert">1</property>
    <property name="xml">was here</property>
    <property name="shotcut:hash">d21ade446104c7af4bfc629582e5f8e2</property>
    <property name="shotcut:caption">aaa_087_やはりハトなので，….wav</property>
  </chain>
  <chain id="chain278" out="00:00:04.720">
    <property name="length">00:00:04.760</property>
    <property name="eof">pause</property>
    <property name="resource">voice/aaa/aaa_088_配線にまだまだ時間….wav</property>
    <property name="mlt_service">avformat-novalidate</property>
    <property name="meta.media.nb_streams">1</property>
    <property name="meta.media.0.stream.type">audio</property>
    <property name="meta.media.0.codec.sample_fmt">s16</property>
    <property name="meta.media.0.codec.sample_rate">24000</property>
    <property name="meta.media.0.codec.channels">1</property>
    <property name="meta.media.0.codec.name">pcm_s16le</property>
    <property name="meta.media.0.codec.long_name">PCM signed 16-bit little-endian</property>
    <property name="meta.media.0.codec.bit_rate">384000</property>
    <property name="seekable">1</property>
    <property name="audio_index">0</property>
    <property name="video_index">-1</property>
    <property name="creation_time">2023-12-15T03:29:13</property>
    <property name="astream">0</property>
    <property name="shotcut:skipConvert">1</property>
    <property name="xml">was here</property>
    <property name="shotcut:hash">d8b4ffb323574c8720e9c1cb4f294e64</property>
    <property name="shotcut:caption">aaa_088_配線にまだまだ時間….wav</property>
  </chain>
  <chain id="chain281" out="00:00:07.120">
    <property name="length">00:00:07.160</property>
    <property name="eof">pause</property>
    <property name="resource">voice/bbb/bbb_002_そういえばみなさん….wav</property>
    <property name="mlt_service">avformat-novalidate</property>
    <property name="meta.media.nb_streams">1</property>
    <property name="meta.media.0.stream.type">audio</property>
    <property name="meta.media.0.codec.sample_fmt">s16</property>
    <property name="meta.media.0.codec.sample_rate">24000</property>
    <property name="meta.media.0.codec.channels">1</property>
    <property name="meta.media.0.codec.name">pcm_s16le</property>
    <property name="meta.media.0.codec.long_name">PCM signed 16-bit little-endian</property>
    <property name="meta.media.0.codec.bit_rate">384000</property>
    <property name="seekable">1</property>
    <property name="audio_index">0</property>
    <property name="video_index">-1</property>
    <property name="creation_time">2023-12-15T04:05:07</property>
    <property name="astream">0</property>
    <property name="shotcut:skipConvert">1</property>
    <property name="xml">was here</property>
    <property name="shotcut:hash">917540bb9aa8785037e3c3dbfaca99c3</property>
    <property name="shotcut:caption">bbb_002_そういえばみなさん….wav</property>
  </chain>
  <chain id="chain215" out="00:00:04.400">
    <property name="length">00:00:04.440</property>
    <property name="eof">pause</property>
    <property name="resource">voice/bbb/bbb_003_もしカテゴリという….wav</property>
    <property name="mlt_service">avformat-novalidate</property>
    <property name="meta.media.nb_streams">1</property>
    <property name="meta.media.0.stream.type">audio</property>
    <property name="meta.media.0.codec.sample_fmt">s16</property>
    <property name="meta.media.0.codec.sample_rate">24000</property>
    <property name="meta.media.0.codec.channels">1</property>
    <property name="meta.media.0.codec.name">pcm_s16le</property>
    <property name="meta.media.0.codec.long_name">PCM signed 16-bit little-endian</property>
    <property name="meta.media.0.codec.bit_rate">384000</property>
    <property name="seekable">1</property>
    <property name="audio_index">0</property>
    <property name="video_index">-1</property>
    <property name="creation_time">2023-12-17T09:07:28</property>
    <property name="astream">0</property>
    <property name="shotcut:skipConvert">0</property>
    <property name="shotcut:hash">be49c7e50925041ec25a4e203a27ff10</property>
    <property name="ignore_points">0</property>
    <property name="shotcut:caption">bbb_003_もしカテゴリという….wav</property>
    <property name="xml">was here</property>
  </chain>
  <chain id="chain216" out="00:00:03.560">
    <property name="length">00:00:03.600</property>
    <property name="eof">pause</property>
    <property name="resource">voice/zzz/002_雨晴はう（ノーマル）_是非つぎからは意識….wav</property>
    <property name="mlt_service">avformat-novalidate</property>
    <property name="meta.media.nb_streams">1</property>
    <property name="meta.media.0.stream.type">audio</property>
    <property name="meta.media.0.codec.sample_fmt">s16</property>
    <property name="meta.media.0.codec.sample_rate">24000</property>
    <property name="meta.media.0.codec.channels">1</property>
    <property name="meta.media.0.codec.name">pcm_s16le</property>
    <property name="meta.media.0.codec.long_name">PCM signed 16-bit little-endian</property>
    <property name="meta.media.0.codec.bit_rate">384000</property>
    <property name="seekable">1</property>
    <property name="audio_index">0</property>
    <property name="video_index">-1</property>
    <property name="creation_time">2023-12-20T00:20:47</property>
    <property name="astream">0</property>
    <property name="shotcut:hash">92385c179b74c59b811dc52814d27e8b</property>
    <property name="shotcut:caption">002_雨晴はう（ノーマル）_是非つぎからは意識….wav</property>
    <property name="xml">was here</property>
  </chain>
  <chain id="chain284" out="00:00:04.640">
    <property name="length">00:00:04.680</property>
    <property name="eof">pause</property>
    <property name="resource">voice/bbb/bbb_005_カテゴリとは通信速….wav</property>
    <property name="mlt_service">avformat-novalidate</property>
    <property name="meta.media.nb_streams">1</property>
    <property name="meta.media.0.stream.type">audio</property>
    <property name="meta.media.0.codec.sample_fmt">s16</property>
    <property name="meta.media.0.codec.sample_rate">24000</property>
    <property name="meta.media.0.codec.channels">1</property>
    <property name="meta.media.0.codec.name">pcm_s16le</property>
    <property name="meta.media.0.codec.long_name">PCM signed 16-bit little-endian</property>
    <property name="meta.media.0.codec.bit_rate">384000</property>
    <property name="seekable">1</property>
    <property name="audio_index">0</property>
    <property name="video_index">-1</property>
    <property name="creation_time">2023-12-15T04:05:03</property>
    <property name="astream">0</property>
    <property name="shotcut:skipConvert">1</property>
    <property name="xml">was here</property>
    <property name="shotcut:hash">eb6ddd499a48952c0d29e5cdb0df07fe</property>
    <property name="shotcut:caption">bbb_005_カテゴリとは通信速….wav</property>
  </chain>
  <chain id="chain285" out="00:00:05.640">
    <property name="length">00:00:05.680</property>
    <property name="eof">pause</property>
    <property name="resource">voice/bbb/bbb_006_なので，カテゴリを….wav</property>
    <property name="mlt_service">avformat-novalidate</property>
    <property name="meta.media.nb_streams">1</property>
    <property name="meta.media.0.stream.type">audio</property>
    <property name="meta.media.0.codec.sample_fmt">s16</property>
    <property name="meta.media.0.codec.sample_rate">24000</property>
    <property name="meta.media.0.codec.channels">1</property>
    <property name="meta.media.0.codec.name">pcm_s16le</property>
    <property name="meta.media.0.codec.long_name">PCM signed 16-bit little-endian</property>
    <property name="meta.media.0.codec.bit_rate">384000</property>
    <property name="seekable">1</property>
    <property name="audio_index">0</property>
    <property name="video_index">-1</property>
    <property name="creation_time">2023-12-15T04:05:05</property>
    <property name="astream">0</property>
    <property name="shotcut:skipConvert">1</property>
    <property name="xml">was here</property>
    <property name="shotcut:hash">d985e53e22d3a9975513fe12e3de4c2e</property>
    <property name="shotcut:caption">bbb_006_なので，カテゴリを….wav</property>
  </chain>
  <chain id="chain286" out="00:00:04.880">
    <property name="length">00:00:04.920</property>
    <property name="eof">pause</property>
    <property name="resource">voice/bbb/bbb_007_ちなみに前に述べた….wav</property>
    <property name="mlt_service">avformat-novalidate</property>
    <property name="meta.media.nb_streams">1</property>
    <property name="meta.media.0.stream.type">audio</property>
    <property name="meta.media.0.codec.sample_fmt">s16</property>
    <property name="meta.media.0.codec.sample_rate">24000</property>
    <property name="meta.media.0.codec.channels">1</property>
    <property name="meta.media.0.codec.name">pcm_s16le</property>
    <property name="meta.media.0.codec.long_name">PCM signed 16-bit little-endian</property>
    <property name="meta.media.0.codec.bit_rate">384000</property>
    <property name="seekable">1</property>
    <property name="audio_index">0</property>
    <property name="video_index">-1</property>
    <property name="creation_time">2023-12-15T04:05:06</property>
    <property name="astream">0</property>
    <property name="shotcut:skipConvert">1</property>
    <property name="xml">was here</property>
    <property name="shotcut:hash">ad70f5fed08ad6510fa9d4f7b59edac3</property>
    <property name="shotcut:caption">bbb_007_ちなみに前に述べた….wav</property>
  </chain>
  <chain id="chain287" out="00:00:04.920">
    <property name="length">00:00:04.960</property>
    <property name="eof">pause</property>
    <property name="resource">voice/bbb/bbb_008_一定以上のカテゴリ….wav</property>
    <property name="mlt_service">avformat-novalidate</property>
    <property name="meta.media.nb_streams">1</property>
    <property name="meta.media.0.stream.type">audio</property>
    <property name="meta.media.0.codec.sample_fmt">s16</property>
    <property name="meta.media.0.codec.sample_rate">24000</property>
    <property name="meta.media.0.codec.channels">1</property>
    <property name="meta.media.0.codec.name">pcm_s16le</property>
    <property name="meta.media.0.codec.long_name">PCM signed 16-bit little-endian</property>
    <property name="meta.media.0.codec.bit_rate">384000</property>
    <property name="seekable">1</property>
    <property name="audio_index">0</property>
    <property name="video_index">-1</property>
    <property name="creation_time">2023-12-15T04:05:13</property>
    <property name="astream">0</property>
    <property name="shotcut:skipConvert">1</property>
    <property name="xml">was here</property>
    <property name="shotcut:hash">a2c7d6de5cd5c744c65833dba0ddf833</property>
  </chain>
  <chain id="chain288" out="00:00:02.360">
    <property name="length">00:00:02.400</property>
    <property name="eof">pause</property>
    <property name="resource">voice/bbb/bbb_009_気になる人は調べて….wav</property>
    <property name="mlt_service">avformat-novalidate</property>
    <property name="meta.media.nb_streams">1</property>
    <property name="meta.media.0.stream.type">audio</property>
    <property name="meta.media.0.codec.sample_fmt">s16</property>
    <property name="meta.media.0.codec.sample_rate">24000</property>
    <property name="meta.media.0.codec.channels">1</property>
    <property name="meta.media.0.codec.name">pcm_s16le</property>
    <property name="meta.media.0.codec.long_name">PCM signed 16-bit little-endian</property>
    <property name="meta.media.0.codec.bit_rate">384000</property>
    <property name="seekable">1</property>
    <property name="audio_index">0</property>
    <property name="video_index">-1</property>
    <property name="creation_time">2023-12-15T04:05:10</property>
    <property name="astream">0</property>
    <property name="shotcut:skipConvert">1</property>
    <property name="xml">was here</property>
    <property name="shotcut:hash">6ec064725a7d02618edf0555e8fffeea</property>
    <property name="shotcut:caption">bbb_009_気になる人は調べて….wav</property>
  </chain>
  <chain id="chain289" out="00:00:06.640">
    <property name="length">00:00:06.680</property>
    <property name="eof">pause</property>
    <property name="resource">voice/bbb/bbb_010_図にあるとおり，数….wav</property>
    <property name="mlt_service">avformat-novalidate</property>
    <property name="meta.media.nb_streams">1</property>
    <property name="meta.media.0.stream.type">audio</property>
    <property name="meta.media.0.codec.sample_fmt">s16</property>
    <property name="meta.media.0.codec.sample_rate">24000</property>
    <property name="meta.media.0.codec.channels">1</property>
    <property name="meta.media.0.codec.name">pcm_s16le</property>
    <property name="meta.media.0.codec.long_name">PCM signed 16-bit little-endian</property>
    <property name="meta.media.0.codec.bit_rate">384000</property>
    <property name="seekable">1</property>
    <property name="audio_index">0</property>
    <property name="video_index">-1</property>
    <property name="creation_time">2023-12-15T04:05:19</property>
    <property name="astream">0</property>
    <property name="shotcut:skipConvert">1</property>
    <property name="xml">was here</property>
    <property name="shotcut:hash">65ec90f9331bdd77fb30b6e3efeeb824</property>
  </chain>
  <chain id="chain290" out="00:00:09.440">
    <property name="length">00:00:09.480</property>
    <property name="eof">pause</property>
    <property name="resource">voice/bbb/bbb_011_通信速度の速いケー….wav</property>
    <property name="mlt_service">avformat-novalidate</property>
    <property name="meta.media.nb_streams">1</property>
    <property name="meta.media.0.stream.type">audio</property>
    <property name="meta.media.0.codec.sample_fmt">s16</property>
    <property name="meta.media.0.codec.sample_rate">24000</property>
    <property name="meta.media.0.codec.channels">1</property>
    <property name="meta.media.0.codec.name">pcm_s16le</property>
    <property name="meta.media.0.codec.long_name">PCM signed 16-bit little-endian</property>
    <property name="meta.media.0.codec.bit_rate">384000</property>
    <property name="seekable">1</property>
    <property name="audio_index">0</property>
    <property name="video_index">-1</property>
    <property name="creation_time">2023-12-15T04:05:24</property>
    <property name="astream">0</property>
    <property name="shotcut:skipConvert">1</property>
    <property name="xml">was here</property>
    <property name="shotcut:hash">aba94a10880608a485b615dee5ec3133</property>
  </chain>
  <chain id="chain291" out="00:00:10.440">
    <property name="length">00:00:10.480</property>
    <property name="eof">pause</property>
    <property name="resource">voice/bbb/bbb_012_そのため，要件を満….wav</property>
    <property name="mlt_service">avformat-novalidate</property>
    <property name="meta.media.nb_streams">1</property>
    <property name="meta.media.0.stream.type">audio</property>
    <property name="meta.media.0.codec.sample_fmt">s16</property>
    <property name="meta.media.0.codec.sample_rate">24000</property>
    <property name="meta.media.0.codec.channels">1</property>
    <property name="meta.media.0.codec.name">pcm_s16le</property>
    <property name="meta.media.0.codec.long_name">PCM signed 16-bit little-endian</property>
    <property name="meta.media.0.codec.bit_rate">384000</property>
    <property name="seekable">1</property>
    <property name="audio_index">0</property>
    <property name="video_index">-1</property>
    <property name="creation_time">2023-12-15T04:05:26</property>
    <property name="astream">0</property>
    <property name="shotcut:skipConvert">1</property>
    <property name="xml">was here</property>
    <property name="shotcut:hash">70ecf4023b715a182dc4767cf94a67e3</property>
  </chain>
  <chain id="chain294" out="00:00:01.880">
    <property name="length">00:00:01.920</property>
    <property name="eof">pause</property>
    <property name="resource">voice/bbb/bbb_015_なんとか並べたよう….wav</property>
    <property name="mlt_service">avformat-novalidate</property>
    <property name="meta.media.nb_streams">1</property>
    <property name="meta.media.0.stream.type">audio</property>
    <property name="meta.media.0.codec.sample_fmt">s16</property>
    <property name="meta.media.0.codec.sample_rate">24000</property>
    <property name="meta.media.0.codec.channels">1</property>
    <property name="meta.media.0.codec.name">pcm_s16le</property>
    <property name="meta.media.0.codec.long_name">PCM signed 16-bit little-endian</property>
    <property name="meta.media.0.codec.bit_rate">384000</property>
    <property name="seekable">1</property>
    <property name="audio_index">0</property>
    <property name="video_index">-1</property>
    <property name="creation_time">2023-12-15T04:05:18</property>
    <property name="astream">0</property>
    <property name="shotcut:skipConvert">1</property>
    <property name="xml">was here</property>
    <property name="shotcut:hash">ccbdaae2d60528d731998fad5c44d297</property>
    <property name="shotcut:caption">bbb_015_なんとか並べたよう….wav</property>
  </chain>
  <chain id="chain295" out="00:00:07.120">
    <property name="length">00:00:07.160</property>
    <property name="eof">pause</property>
    <property name="resource">voice/bbb/bbb_016_ここで，先端をペン….wav</property>
    <property name="mlt_service">avformat-novalidate</property>
    <property name="meta.media.nb_streams">1</property>
    <property name="meta.media.0.stream.type">audio</property>
    <property name="meta.media.0.codec.sample_fmt">s16</property>
    <property name="meta.media.0.codec.sample_rate">24000</property>
    <property name="meta.media.0.codec.channels">1</property>
    <property name="meta.media.0.codec.name">pcm_s16le</property>
    <property name="meta.media.0.codec.long_name">PCM signed 16-bit little-endian</property>
    <property name="meta.media.0.codec.bit_rate">384000</property>
    <property name="seekable">1</property>
    <property name="audio_index">0</property>
    <property name="video_index">-1</property>
    <property name="creation_time">2023-12-15T04:05:29</property>
    <property name="astream">0</property>
    <property name="shotcut:skipConvert">1</property>
    <property name="xml">was here</property>
    <property name="shotcut:hash">d9cede6b9ef7bc3c0a53c2bffafb5692</property>
    <property name="shotcut:caption">bbb_016_ここで，先端をペン….wav</property>
  </chain>
  <chain id="chain297" out="00:00:08.120">
    <property name="length">00:00:08.160</property>
    <property name="eof">pause</property>
    <property name="resource">voice/bbb/bbb_019_そういえばみなさん….wav</property>
    <property name="mlt_service">avformat-novalidate</property>
    <property name="meta.media.nb_streams">1</property>
    <property name="meta.media.0.stream.type">audio</property>
    <property name="meta.media.0.codec.sample_fmt">s16</property>
    <property name="meta.media.0.codec.sample_rate">24000</property>
    <property name="meta.media.0.codec.channels">1</property>
    <property name="meta.media.0.codec.name">pcm_s16le</property>
    <property name="meta.media.0.codec.long_name">PCM signed 16-bit little-endian</property>
    <property name="meta.media.0.codec.bit_rate">384000</property>
    <property name="seekable">1</property>
    <property name="audio_index">0</property>
    <property name="video_index">-1</property>
    <property name="creation_time">2023-12-15T04:05:37</property>
    <property name="astream">0</property>
    <property name="shotcut:skipConvert">1</property>
    <property name="xml">was here</property>
    <property name="shotcut:hash">27a869deb531c22bd5b197f0dd8acaf7</property>
    <property name="shotcut:caption">bbb_019_そういえばみなさん….wav</property>
  </chain>
  <chain id="chain298" out="00:00:09.200">
    <property name="length">00:00:09.240</property>
    <property name="eof">pause</property>
    <property name="resource">voice/bbb/bbb_020_広義には文字通り，….wav</property>
    <property name="mlt_service">avformat-novalidate</property>
    <property name="meta.media.nb_streams">1</property>
    <property name="meta.media.0.stream.type">audio</property>
    <property name="meta.media.0.codec.sample_fmt">s16</property>
    <property name="meta.media.0.codec.sample_rate">24000</property>
    <property name="meta.media.0.codec.channels">1</property>
    <property name="meta.media.0.codec.name">pcm_s16le</property>
    <property name="meta.media.0.codec.long_name">PCM signed 16-bit little-endian</property>
    <property name="meta.media.0.codec.bit_rate">384000</property>
    <property name="seekable">1</property>
    <property name="audio_index">0</property>
    <property name="video_index">-1</property>
    <property name="creation_time">2023-12-15T04:05:43</property>
    <property name="astream">0</property>
    <property name="shotcut:skipConvert">1</property>
    <property name="xml">was here</property>
    <property name="shotcut:hash">1c582934d572c89d4c17118e618fa107</property>
  </chain>
  <chain id="chain299" out="00:00:09.880">
    <property name="length">00:00:09.920</property>
    <property name="eof">pause</property>
    <property name="resource">voice/bbb/bbb_021_状況によっては，広….wav</property>
    <property name="mlt_service">avformat-novalidate</property>
    <property name="meta.media.nb_streams">1</property>
    <property name="meta.media.0.stream.type">audio</property>
    <property name="meta.media.0.codec.sample_fmt">s16</property>
    <property name="meta.media.0.codec.sample_rate">24000</property>
    <property name="meta.media.0.codec.channels">1</property>
    <property name="meta.media.0.codec.name">pcm_s16le</property>
    <property name="meta.media.0.codec.long_name">PCM signed 16-bit little-endian</property>
    <property name="meta.media.0.codec.bit_rate">384000</property>
    <property name="seekable">1</property>
    <property name="audio_index">0</property>
    <property name="video_index">-1</property>
    <property name="creation_time">2023-12-15T04:05:45</property>
    <property name="astream">0</property>
    <property name="shotcut:skipConvert">1</property>
    <property name="xml">was here</property>
    <property name="shotcut:hash">5c196c7b6e1490c2570d1dc1032955a1</property>
  </chain>
  <chain id="chain302" out="00:00:03.880">
    <property name="length">00:00:03.920</property>
    <property name="eof">pause</property>
    <property name="resource">voice/bbb/bbb_024_そうこうしているう….wav</property>
    <property name="mlt_service">avformat-novalidate</property>
    <property name="meta.media.nb_streams">1</property>
    <property name="meta.media.0.stream.type">audio</property>
    <property name="meta.media.0.codec.sample_fmt">s16</property>
    <property name="meta.media.0.codec.sample_rate">24000</property>
    <property name="meta.media.0.codec.channels">1</property>
    <property name="meta.media.0.codec.name">pcm_s16le</property>
    <property name="meta.media.0.codec.long_name">PCM signed 16-bit little-endian</property>
    <property name="meta.media.0.codec.bit_rate">384000</property>
    <property name="seekable">1</property>
    <property name="audio_index">0</property>
    <property name="video_index">-1</property>
    <property name="creation_time">2023-12-15T04:05:42</property>
    <property name="astream">0</property>
    <property name="shotcut:skipConvert">1</property>
    <property name="xml">was here</property>
    <property name="shotcut:hash">789ed82918fe00df8bdd4e0686d6fdeb</property>
    <property name="shotcut:caption">bbb_024_そうこうしているう….wav</property>
  </chain>
  <chain id="chain304" out="00:00:03.320">
    <property name="length">00:00:03.360</property>
    <property name="eof">pause</property>
    <property name="resource">voice/bbb/bbb_027_そして，このかしめ….wav</property>
    <property name="mlt_service">avformat-novalidate</property>
    <property name="meta.media.nb_streams">1</property>
    <property name="meta.media.0.stream.type">audio</property>
    <property name="meta.media.0.codec.sample_fmt">s16</property>
    <property name="meta.media.0.codec.sample_rate">24000</property>
    <property name="meta.media.0.codec.channels">1</property>
    <property name="meta.media.0.codec.name">pcm_s16le</property>
    <property name="meta.media.0.codec.long_name">PCM signed 16-bit little-endian</property>
    <property name="meta.media.0.codec.bit_rate">384000</property>
    <property name="seekable">1</property>
    <property name="audio_index">0</property>
    <property name="video_index">-1</property>
    <property name="creation_time">2023-12-15T04:05:46</property>
    <property name="astream">0</property>
    <property name="shotcut:skipConvert">1</property>
    <property name="xml">was here</property>
    <property name="shotcut:hash">06c0336784d710ed4d7debf4995125b7</property>
  </chain>
  <chain id="chain305" out="00:00:05.480">
    <property name="length">00:00:05.520</property>
    <property name="eof">pause</property>
    <property name="resource">voice/bbb/bbb_028_しちょうもの兄貴姉….wav</property>
    <property name="mlt_service">avformat-novalidate</property>
    <property name="meta.media.nb_streams">1</property>
    <property name="meta.media.0.stream.type">audio</property>
    <property name="meta.media.0.codec.sample_fmt">s16</property>
    <property name="meta.media.0.codec.sample_rate">24000</property>
    <property name="meta.media.0.codec.channels">1</property>
    <property name="meta.media.0.codec.name">pcm_s16le</property>
    <property name="meta.media.0.codec.long_name">PCM signed 16-bit little-endian</property>
    <property name="meta.media.0.codec.bit_rate">384000</property>
    <property name="seekable">1</property>
    <property name="audio_index">0</property>
    <property name="video_index">-1</property>
    <property name="creation_time">2023-12-15T04:05:51</property>
    <property name="astream">0</property>
    <property name="shotcut:skipConvert">1</property>
    <property name="xml">was here</property>
    <property name="shotcut:hash">f8c1d55c43894f74b3641a22290e9dc1</property>
    <property name="shotcut:caption">bbb_028_しちょうもの兄貴姉….wav</property>
  </chain>
  <chain id="chain306" out="00:00:06.440">
    <property name="length">00:00:06.480</property>
    <property name="eof">pause</property>
    <property name="resource">voice/bbb/bbb_029_うぷぬしは生憎持っ….wav</property>
    <property name="mlt_service">avformat-novalidate</property>
    <property name="meta.media.nb_streams">1</property>
    <property name="meta.media.0.stream.type">audio</property>
    <property name="meta.media.0.codec.sample_fmt">s16</property>
    <property name="meta.media.0.codec.sample_rate">24000</property>
    <property name="meta.media.0.codec.channels">1</property>
    <property name="meta.media.0.codec.name">pcm_s16le</property>
    <property name="meta.media.0.codec.long_name">PCM signed 16-bit little-endian</property>
    <property name="meta.media.0.codec.bit_rate">384000</property>
    <property name="seekable">1</property>
    <property name="audio_index">0</property>
    <property name="video_index">-1</property>
    <property name="creation_time">2023-12-15T04:05:59</property>
    <property name="astream">0</property>
    <property name="shotcut:skipConvert">1</property>
    <property name="xml">was here</property>
    <property name="shotcut:hash">604976bcc1c85a4da271608fd84e98b8</property>
  </chain>
  <chain id="chain307" out="00:00:07.240">
    <property name="length">00:00:07.280</property>
    <property name="eof">pause</property>
    <property name="resource">voice/bbb/bbb_030_また，この動画はそ….wav</property>
    <property name="mlt_service">avformat-novalidate</property>
    <property name="meta.media.nb_streams">1</property>
    <property name="meta.media.0.stream.type">audio</property>
    <property name="meta.media.0.codec.sample_fmt">s16</property>
    <property name="meta.media.0.codec.sample_rate">24000</property>
    <property name="meta.media.0.codec.channels">1</property>
    <property name="meta.media.0.codec.name">pcm_s16le</property>
    <property name="meta.media.0.codec.long_name">PCM signed 16-bit little-endian</property>
    <property name="meta.media.0.codec.bit_rate">384000</property>
    <property name="seekable">1</property>
    <property name="audio_index">0</property>
    <property name="video_index">-1</property>
    <property name="creation_time">2023-12-15T04:06:00</property>
    <property name="astream">0</property>
    <property name="shotcut:skipConvert">1</property>
    <property name="xml">was here</property>
    <property name="shotcut:hash">9db75ece14c794c9a2661770f82a7c7f</property>
  </chain>
  <chain id="chain308" out="00:00:05.960">
    <property name="length">00:00:06.000</property>
    <property name="eof">pause</property>
    <property name="resource">voice/bbb/bbb_031_もちろん，撮影et….wav</property>
    <property name="mlt_service">avformat-novalidate</property>
    <property name="meta.media.nb_streams">1</property>
    <property name="meta.media.0.stream.type">audio</property>
    <property name="meta.media.0.codec.sample_fmt">s16</property>
    <property name="meta.media.0.codec.sample_rate">24000</property>
    <property name="meta.media.0.codec.channels">1</property>
    <property name="meta.media.0.codec.name">pcm_s16le</property>
    <property name="meta.media.0.codec.long_name">PCM signed 16-bit little-endian</property>
    <property name="meta.media.0.codec.bit_rate">384000</property>
    <property name="seekable">1</property>
    <property name="audio_index">0</property>
    <property name="video_index">-1</property>
    <property name="creation_time">2023-12-15T04:06:00</property>
    <property name="astream">0</property>
    <property name="shotcut:skipConvert">1</property>
    <property name="xml">was here</property>
    <property name="shotcut:hash">24b87e27190d812ff1ad521fde19e46e</property>
    <property name="shotcut:caption">bbb_031_もちろん，撮影et….wav</property>
  </chain>
  <chain id="chain309" out="00:00:05.720">
    <property name="length">00:00:05.760</property>
    <property name="eof">pause</property>
    <property name="resource">voice/bbb/bbb_032_なれてない工具なの….wav</property>
    <property name="mlt_service">avformat-novalidate</property>
    <property name="meta.media.nb_streams">1</property>
    <property name="meta.media.0.stream.type">audio</property>
    <property name="meta.media.0.codec.sample_fmt">s16</property>
    <property name="meta.media.0.codec.sample_rate">24000</property>
    <property name="meta.media.0.codec.channels">1</property>
    <property name="meta.media.0.codec.name">pcm_s16le</property>
    <property name="meta.media.0.codec.long_name">PCM signed 16-bit little-endian</property>
    <property name="meta.media.0.codec.bit_rate">384000</property>
    <property name="seekable">1</property>
    <property name="audio_index">0</property>
    <property name="video_index">-1</property>
    <property name="creation_time">2023-12-15T04:06:01</property>
    <property name="astream">0</property>
    <property name="shotcut:skipConvert">1</property>
    <property name="xml">was here</property>
    <property name="shotcut:hash">1d077c4a822ff880fba0068de4de6d3d</property>
    <property name="shotcut:caption">bbb_032_なれてない工具なの….wav</property>
  </chain>
  <chain id="chain312" out="00:00:03.080">
    <property name="length">00:00:03.120</property>
    <property name="eof">pause</property>
    <property name="resource">voice/bbb/bbb_035_同様の手順でもう片….wav</property>
    <property name="mlt_service">avformat-novalidate</property>
    <property name="meta.media.nb_streams">1</property>
    <property name="meta.media.0.stream.type">audio</property>
    <property name="meta.media.0.codec.sample_fmt">s16</property>
    <property name="meta.media.0.codec.sample_rate">24000</property>
    <property name="meta.media.0.codec.channels">1</property>
    <property name="meta.media.0.codec.name">pcm_s16le</property>
    <property name="meta.media.0.codec.long_name">PCM signed 16-bit little-endian</property>
    <property name="meta.media.0.codec.bit_rate">384000</property>
    <property name="seekable">1</property>
    <property name="audio_index">0</property>
    <property name="video_index">-1</property>
    <property name="creation_time">2023-12-15T04:06:04</property>
    <property name="astream">0</property>
    <property name="shotcut:skipConvert">1</property>
    <property name="xml">was here</property>
    <property name="shotcut:hash">c5c9f4fc6cc4d0e1c3086cad8ad8de71</property>
    <property name="shotcut:caption">bbb_035_同様の手順でもう片….wav</property>
  </chain>
  <chain id="chain313" out="00:00:01.200">
    <property name="length">00:00:01.240</property>
    <property name="eof">pause</property>
    <property name="resource">voice/bbb/bbb_036_まずは配線．.wav</property>
    <property name="mlt_service">avformat-novalidate</property>
    <property name="meta.media.nb_streams">1</property>
    <property name="meta.media.0.stream.type">audio</property>
    <property name="meta.media.0.codec.sample_fmt">s16</property>
    <property name="meta.media.0.codec.sample_rate">24000</property>
    <property name="meta.media.0.codec.channels">1</property>
    <property name="meta.media.0.codec.name">pcm_s16le</property>
    <property name="meta.media.0.codec.long_name">PCM signed 16-bit little-endian</property>
    <property name="meta.media.0.codec.bit_rate">384000</property>
    <property name="seekable">1</property>
    <property name="audio_index">0</property>
    <property name="video_index">-1</property>
    <property name="creation_time">2023-12-15T04:06:05</property>
    <property name="astream">0</property>
    <property name="shotcut:skipConvert">1</property>
    <property name="xml">was here</property>
    <property name="shotcut:hash">a009faf8da262bb5e3888acf47c47d3e</property>
  </chain>
  <chain id="chain315" out="00:00:02.920">
    <property name="length">00:00:02.960</property>
    <property name="eof">pause</property>
    <property name="resource">voice/bbb/bbb_039_同じことをやってい….wav</property>
    <property name="mlt_service">avformat-novalidate</property>
    <property name="meta.media.nb_streams">1</property>
    <property name="meta.media.0.stream.type">audio</property>
    <property name="meta.media.0.codec.sample_fmt">s16</property>
    <property name="meta.media.0.codec.sample_rate">24000</property>
    <property name="meta.media.0.codec.channels">1</property>
    <property name="meta.media.0.codec.name">pcm_s16le</property>
    <property name="meta.media.0.codec.long_name">PCM signed 16-bit little-endian</property>
    <property name="meta.media.0.codec.bit_rate">384000</property>
    <property name="seekable">1</property>
    <property name="audio_index">0</property>
    <property name="video_index">-1</property>
    <property name="creation_time">2023-12-15T04:06:11</property>
    <property name="astream">0</property>
    <property name="shotcut:skipConvert">1</property>
    <property name="xml">was here</property>
    <property name="shotcut:hash">d430083ebb89db5907bc73ae19f6b77d</property>
    <property name="shotcut:caption">bbb_039_同じことをやってい….wav</property>
  </chain>
  <chain id="chain316" out="00:00:05.400">
    <property name="length">00:00:05.440</property>
    <property name="eof">pause</property>
    <property name="resource">voice/bbb/bbb_040_本編入る前に解説し….wav</property>
    <property name="mlt_service">avformat-novalidate</property>
    <property name="meta.media.nb_streams">1</property>
    <property name="meta.media.0.stream.type">audio</property>
    <property name="meta.media.0.codec.sample_fmt">s16</property>
    <property name="meta.media.0.codec.sample_rate">24000</property>
    <property name="meta.media.0.codec.channels">1</property>
    <property name="meta.media.0.codec.name">pcm_s16le</property>
    <property name="meta.media.0.codec.long_name">PCM signed 16-bit little-endian</property>
    <property name="meta.media.0.codec.bit_rate">384000</property>
    <property name="seekable">1</property>
    <property name="audio_index">0</property>
    <property name="video_index">-1</property>
    <property name="creation_time">2023-12-15T04:06:16</property>
    <property name="astream">0</property>
    <property name="shotcut:skipConvert">1</property>
    <property name="xml">was here</property>
    <property name="shotcut:hash">31fd7ca5e0740141a6ccaf737a7bed8c</property>
    <property name="shotcut:caption">bbb_040_本編入る前に解説し….wav</property>
  </chain>
  <chain id="chain317" out="00:00:04.800">
    <property name="length">00:00:04.840</property>
    <property name="eof">pause</property>
    <property name="resource">voice/bbb/bbb_041_LANケーブルがス….wav</property>
    <property name="mlt_service">avformat-novalidate</property>
    <property name="meta.media.nb_streams">1</property>
    <property name="meta.media.0.stream.type">audio</property>
    <property name="meta.media.0.codec.sample_fmt">s16</property>
    <property name="meta.media.0.codec.sample_rate">24000</property>
    <property name="meta.media.0.codec.channels">1</property>
    <property name="meta.media.0.codec.name">pcm_s16le</property>
    <property name="meta.media.0.codec.long_name">PCM signed 16-bit little-endian</property>
    <property name="meta.media.0.codec.bit_rate">384000</property>
    <property name="seekable">1</property>
    <property name="audio_index">0</property>
    <property name="video_index">-1</property>
    <property name="creation_time">2023-12-15T04:06:18</property>
    <property name="astream">0</property>
    <property name="shotcut:skipConvert">1</property>
    <property name="xml">was here</property>
    <property name="shotcut:hash">2148a22267746ad82b9a0289dc797769</property>
  </chain>
  <chain id="chain318" out="00:00:05.360">
    <property name="length">00:00:05.400</property>
    <property name="eof">pause</property>
    <property name="resource">voice/bbb/bbb_042_機器のポートにはえ….wav</property>
    <property name="mlt_service">avformat-novalidate</property>
    <property name="meta.media.nb_streams">1</property>
    <property name="meta.media.0.stream.type">audio</property>
    <property name="meta.media.0.codec.sample_fmt">s16</property>
    <property name="meta.media.0.codec.sample_rate">24000</property>
    <property name="meta.media.0.codec.channels">1</property>
    <property name="meta.media.0.codec.name">pcm_s16le</property>
    <property name="meta.media.0.codec.long_name">PCM signed 16-bit little-endian</property>
    <property name="meta.media.0.codec.bit_rate">384000</property>
    <property name="seekable">1</property>
    <property name="audio_index">0</property>
    <property name="video_index">-1</property>
    <property name="creation_time">2023-12-15T04:06:22</property>
    <property name="astream">0</property>
    <property name="shotcut:skipConvert">1</property>
    <property name="xml">was here</property>
    <property name="shotcut:hash">8adbdc76f329d1eca4cd424322bcf9e0</property>
    <property name="shotcut:caption">bbb_042_機器のポートにはえ….wav</property>
  </chain>
  <chain id="chain319" out="00:00:08.200">
    <property name="length">00:00:08.240</property>
    <property name="eof">pause</property>
    <property name="resource">voice/bbb/bbb_043_これらえむでぃーあ….wav</property>
    <property name="mlt_service">avformat-novalidate</property>
    <property name="meta.media.nb_streams">1</property>
    <property name="meta.media.0.stream.type">audio</property>
    <property name="meta.media.0.codec.sample_fmt">s16</property>
    <property name="meta.media.0.codec.sample_rate">24000</property>
    <property name="meta.media.0.codec.channels">1</property>
    <property name="meta.media.0.codec.name">pcm_s16le</property>
    <property name="meta.media.0.codec.long_name">PCM signed 16-bit little-endian</property>
    <property name="meta.media.0.codec.bit_rate">384000</property>
    <property name="seekable">1</property>
    <property name="audio_index">0</property>
    <property name="video_index">-1</property>
    <property name="creation_time">2023-12-15T04:06:30</property>
    <property name="astream">0</property>
    <property name="shotcut:skipConvert">1</property>
    <property name="xml">was here</property>
    <property name="shotcut:hash">a03203614c0be1162b3adc7d1c084983</property>
  </chain>
  <chain id="chain320" out="00:00:09.360">
    <property name="length">00:00:09.400</property>
    <property name="eof">pause</property>
    <property name="resource">voice/bbb/bbb_044_そのため図のように….wav</property>
    <property name="mlt_service">avformat-novalidate</property>
    <property name="meta.media.nb_streams">1</property>
    <property name="meta.media.0.stream.type">audio</property>
    <property name="meta.media.0.codec.sample_fmt">s16</property>
    <property name="meta.media.0.codec.sample_rate">24000</property>
    <property name="meta.media.0.codec.channels">1</property>
    <property name="meta.media.0.codec.name">pcm_s16le</property>
    <property name="meta.media.0.codec.long_name">PCM signed 16-bit little-endian</property>
    <property name="meta.media.0.codec.bit_rate">384000</property>
    <property name="seekable">1</property>
    <property name="audio_index">0</property>
    <property name="video_index">-1</property>
    <property name="creation_time">2023-12-15T04:06:32</property>
    <property name="astream">0</property>
    <property name="shotcut:skipConvert">1</property>
    <property name="xml">was here</property>
    <property name="shotcut:hash">d17b0b89ae0a326686e4e23aeab095d1</property>
  </chain>
  <chain id="chain321" out="00:00:06.040">
    <property name="length">00:00:06.080</property>
    <property name="eof">pause</property>
    <property name="resource">voice/bbb/bbb_045_えむでぃーあいとえ….wav</property>
    <property name="mlt_service">avformat-novalidate</property>
    <property name="meta.media.nb_streams">1</property>
    <property name="meta.media.0.stream.type">audio</property>
    <property name="meta.media.0.codec.sample_fmt">s16</property>
    <property name="meta.media.0.codec.sample_rate">24000</property>
    <property name="meta.media.0.codec.channels">1</property>
    <property name="meta.media.0.codec.name">pcm_s16le</property>
    <property name="meta.media.0.codec.long_name">PCM signed 16-bit little-endian</property>
    <property name="meta.media.0.codec.bit_rate">384000</property>
    <property name="seekable">1</property>
    <property name="audio_index">0</property>
    <property name="video_index">-1</property>
    <property name="creation_time">2023-12-15T04:06:29</property>
    <property name="astream">0</property>
    <property name="shotcut:skipConvert">1</property>
    <property name="xml">was here</property>
    <property name="shotcut:hash">6aee80e0cb7615e6d8ed36b99187509e</property>
    <property name="shotcut:caption">bbb_045_えむでぃーあいとえ….wav</property>
  </chain>
  <chain id="chain322" out="00:00:04.560">
    <property name="length">00:00:04.600</property>
    <property name="eof">pause</property>
    <property name="resource">voice/bbb/bbb_046_よって，これらのケ….wav</property>
    <property name="mlt_service">avformat-novalidate</property>
    <property name="meta.media.nb_streams">1</property>
    <property name="meta.media.0.stream.type">audio</property>
    <property name="meta.media.0.codec.sample_fmt">s16</property>
    <property name="meta.media.0.codec.sample_rate">24000</property>
    <property name="meta.media.0.codec.channels">1</property>
    <property name="meta.media.0.codec.name">pcm_s16le</property>
    <property name="meta.media.0.codec.long_name">PCM signed 16-bit little-endian</property>
    <property name="meta.media.0.codec.bit_rate">384000</property>
    <property name="seekable">1</property>
    <property name="audio_index">0</property>
    <property name="video_index">-1</property>
    <property name="creation_time">2023-12-15T04:06:31</property>
    <property name="astream">0</property>
    <property name="shotcut:skipConvert">1</property>
    <property name="xml">was here</property>
    <property name="shotcut:hash">bb6b79825c883acea6d4484dd091ad7f</property>
  </chain>
  <chain id="chain323" out="00:00:02.720">
    <property name="length">00:00:02.760</property>
    <property name="eof">pause</property>
    <property name="resource">voice/bbb/bbb_047_ですが，コレはたい….wav</property>
    <property name="mlt_service">avformat-novalidate</property>
    <property name="meta.media.nb_streams">1</property>
    <property name="meta.media.0.stream.type">audio</property>
    <property name="meta.media.0.codec.sample_fmt">s16</property>
    <property name="meta.media.0.codec.sample_rate">24000</property>
    <property name="meta.media.0.codec.channels">1</property>
    <property name="meta.media.0.codec.name">pcm_s16le</property>
    <property name="meta.media.0.codec.long_name">PCM signed 16-bit little-endian</property>
    <property name="meta.media.0.codec.bit_rate">384000</property>
    <property name="seekable">1</property>
    <property name="audio_index">0</property>
    <property name="video_index">-1</property>
    <property name="creation_time">2023-12-15T04:06:29</property>
    <property name="astream">0</property>
    <property name="shotcut:skipConvert">1</property>
    <property name="xml">was here</property>
    <property name="shotcut:hash">c051ac3d95973f83e1b32c6a31df9d97</property>
  </chain>
  <chain id="chain324" out="00:00:06.520">
    <property name="length">00:00:06.560</property>
    <property name="eof">pause</property>
    <property name="resource">voice/bbb/bbb_048_現在では，ほとんど….wav</property>
    <property name="mlt_service">avformat-novalidate</property>
    <property name="meta.media.nb_streams">1</property>
    <property name="meta.media.0.stream.type">audio</property>
    <property name="meta.media.0.codec.sample_fmt">s16</property>
    <property name="meta.media.0.codec.sample_rate">24000</property>
    <property name="meta.media.0.codec.channels">1</property>
    <property name="meta.media.0.codec.name">pcm_s16le</property>
    <property name="meta.media.0.codec.long_name">PCM signed 16-bit little-endian</property>
    <property name="meta.media.0.codec.bit_rate">384000</property>
    <property name="seekable">1</property>
    <property name="audio_index">0</property>
    <property name="video_index">-1</property>
    <property name="creation_time">2023-12-15T04:06:40</property>
    <property name="astream">0</property>
    <property name="shotcut:skipConvert">1</property>
    <property name="xml">was here</property>
    <property name="shotcut:hash">2575c35d6a6d7ef5e0f3c0b7014a1450</property>
    <property name="shotcut:caption">bbb_048_現在では，ほとんど….wav</property>
  </chain>
  <chain id="chain325" out="00:00:03.720">
    <property name="length">00:00:03.760</property>
    <property name="eof">pause</property>
    <property name="resource">voice/bbb/bbb_049_その機能は，送受信….wav</property>
    <property name="mlt_service">avformat-novalidate</property>
    <property name="meta.media.nb_streams">1</property>
    <property name="meta.media.0.stream.type">audio</property>
    <property name="meta.media.0.codec.sample_fmt">s16</property>
    <property name="meta.media.0.codec.sample_rate">24000</property>
    <property name="meta.media.0.codec.channels">1</property>
    <property name="meta.media.0.codec.name">pcm_s16le</property>
    <property name="meta.media.0.codec.long_name">PCM signed 16-bit little-endian</property>
    <property name="meta.media.0.codec.bit_rate">384000</property>
    <property name="seekable">1</property>
    <property name="audio_index">0</property>
    <property name="video_index">-1</property>
    <property name="creation_time">2023-12-15T04:06:41</property>
    <property name="astream">0</property>
    <property name="shotcut:skipConvert">1</property>
    <property name="xml">was here</property>
    <property name="shotcut:hash">aa3a5c7ceab860050abfc015320f9ae3</property>
    <property name="shotcut:caption">bbb_049_その機能は，送受信….wav</property>
  </chain>
  <chain id="chain326" out="00:00:04.600">
    <property name="length">00:00:04.640</property>
    <property name="eof">pause</property>
    <property name="resource">voice/bbb/bbb_050_えむでぃーあいえむ….wav</property>
    <property name="mlt_service">avformat-novalidate</property>
    <property name="meta.media.nb_streams">1</property>
    <property name="meta.media.0.stream.type">audio</property>
    <property name="meta.media.0.codec.sample_fmt">s16</property>
    <property name="meta.media.0.codec.sample_rate">24000</property>
    <property name="meta.media.0.codec.channels">1</property>
    <property name="meta.media.0.codec.name">pcm_s16le</property>
    <property name="meta.media.0.codec.long_name">PCM signed 16-bit little-endian</property>
    <property name="meta.media.0.codec.bit_rate">384000</property>
    <property name="seekable">1</property>
    <property name="audio_index">0</property>
    <property name="video_index">-1</property>
    <property name="creation_time">2023-12-15T04:06:45</property>
    <property name="astream">0</property>
    <property name="shotcut:skipConvert">1</property>
    <property name="xml">was here</property>
    <property name="shotcut:hash">c021c94c27c965809402059aff3ab988</property>
    <property name="shotcut:caption">bbb_050_えむでぃーあいえむ….wav</property>
  </chain>
  <chain id="chain327" out="00:00:05.600">
    <property name="length">00:00:05.640</property>
    <property name="eof">pause</property>
    <property name="resource">voice/bbb/bbb_051_そのため，ストレー….wav</property>
    <property name="mlt_service">avformat-novalidate</property>
    <property name="meta.media.nb_streams">1</property>
    <property name="meta.media.0.stream.type">audio</property>
    <property name="meta.media.0.codec.sample_fmt">s16</property>
    <property name="meta.media.0.codec.sample_rate">24000</property>
    <property name="meta.media.0.codec.channels">1</property>
    <property name="meta.media.0.codec.name">pcm_s16le</property>
    <property name="meta.media.0.codec.long_name">PCM signed 16-bit little-endian</property>
    <property name="meta.media.0.codec.bit_rate">384000</property>
    <property name="seekable">1</property>
    <property name="audio_index">0</property>
    <property name="video_index">-1</property>
    <property name="creation_time">2023-12-15T04:06:47</property>
    <property name="astream">0</property>
    <property name="shotcut:skipConvert">1</property>
    <property name="xml">was here</property>
    <property name="shotcut:hash">1b1701e661d65993f3c88f1459ca0580</property>
  </chain>
  <chain id="chain328" out="00:00:05.680">
    <property name="length">00:00:05.720</property>
    <property name="eof">pause</property>
    <property name="resource">voice/bbb/bbb_052_つまり，えむでぃー….wav</property>
    <property name="mlt_service">avformat-novalidate</property>
    <property name="meta.media.nb_streams">1</property>
    <property name="meta.media.0.stream.type">audio</property>
    <property name="meta.media.0.codec.sample_fmt">s16</property>
    <property name="meta.media.0.codec.sample_rate">24000</property>
    <property name="meta.media.0.codec.channels">1</property>
    <property name="meta.media.0.codec.name">pcm_s16le</property>
    <property name="meta.media.0.codec.long_name">PCM signed 16-bit little-endian</property>
    <property name="meta.media.0.codec.bit_rate">384000</property>
    <property name="seekable">1</property>
    <property name="audio_index">0</property>
    <property name="video_index">-1</property>
    <property name="creation_time">2023-12-15T04:06:48</property>
    <property name="astream">0</property>
    <property name="shotcut:skipConvert">1</property>
    <property name="xml">was here</property>
    <property name="shotcut:hash">5725d25d04b42d4655c1c65f86c1bdc5</property>
    <property name="shotcut:caption">bbb_052_つまり，えむでぃー….wav</property>
  </chain>
  <chain id="chain329" out="00:00:09.120">
    <property name="length">00:00:09.160</property>
    <property name="eof">pause</property>
    <property name="resource">voice/bbb/bbb_053_オートえむでぃー.wav</property>
    <property name="mlt_service">avformat-novalidate</property>
    <property name="meta.media.nb_streams">1</property>
    <property name="meta.media.0.stream.type">audio</property>
    <property name="meta.media.0.codec.sample_fmt">s16</property>
    <property name="meta.media.0.codec.sample_rate">24000</property>
    <property name="meta.media.0.codec.channels">1</property>
    <property name="meta.media.0.codec.name">pcm_s16le</property>
    <property name="meta.media.0.codec.long_name">PCM signed 16-bit little-endian</property>
    <property name="meta.media.0.codec.bit_rate">384000</property>
    <property name="seekable">1</property>
    <property name="audio_index">0</property>
    <property name="video_index">-1</property>
    <property name="creation_time">2023-12-15T04:06:57</property>
    <property name="astream">0</property>
    <property name="shotcut:skipConvert">1</property>
    <property name="xml">was here</property>
    <property name="shotcut:hash">59e88d2af42ec1c63d24ae0bc00b0888</property>
  </chain>
  <chain id="chain330" out="00:00:07.000">
    <property name="length">00:00:07.040</property>
    <property name="eof">pause</property>
    <property name="resource">voice/bbb/bbb_054_（何故クロスケーブ….wav</property>
    <property name="mlt_service">avformat-novalidate</property>
    <property name="meta.media.nb_streams">1</property>
    <property name="meta.media.0.stream.type">audio</property>
    <property name="meta.media.0.codec.sample_fmt">s16</property>
    <property name="meta.media.0.codec.sample_rate">24000</property>
    <property name="meta.media.0.codec.channels">1</property>
    <property name="meta.media.0.codec.name">pcm_s16le</property>
    <property name="meta.media.0.codec.long_name">PCM signed 16-bit little-endian</property>
    <property name="meta.media.0.codec.bit_rate">384000</property>
    <property name="seekable">1</property>
    <property name="audio_index">0</property>
    <property name="video_index">-1</property>
    <property name="creation_time">2023-12-15T04:07:01</property>
    <property name="astream">0</property>
    <property name="shotcut:skipConvert">1</property>
    <property name="xml">was here</property>
    <property name="shotcut:hash">e3fa646b6c8b7b244439511f89d6b86f</property>
  </chain>
  <chain id="chain331" out="00:00:06.440">
    <property name="length">00:00:06.480</property>
    <property name="eof">pause</property>
    <property name="resource">voice/bbb/bbb_055_まあ，ストレートケ….wav</property>
    <property name="mlt_service">avformat-novalidate</property>
    <property name="meta.media.nb_streams">1</property>
    <property name="meta.media.0.stream.type">audio</property>
    <property name="meta.media.0.codec.sample_fmt">s16</property>
    <property name="meta.media.0.codec.sample_rate">24000</property>
    <property name="meta.media.0.codec.channels">1</property>
    <property name="meta.media.0.codec.name">pcm_s16le</property>
    <property name="meta.media.0.codec.long_name">PCM signed 16-bit little-endian</property>
    <property name="meta.media.0.codec.bit_rate">384000</property>
    <property name="seekable">1</property>
    <property name="audio_index">0</property>
    <property name="video_index">-1</property>
    <property name="creation_time">2023-12-15T04:07:01</property>
    <property name="astream">0</property>
    <property name="shotcut:skipConvert">1</property>
    <property name="xml">was here</property>
    <property name="shotcut:hash">4deb2ea0e3ca751a8406be346655a80f</property>
    <property name="shotcut:caption">bbb_055_まあ，ストレートケ….wav</property>
  </chain>
  <chain id="chain332" out="00:00:10.160">
    <property name="length">00:00:10.200</property>
    <property name="eof">pause</property>
    <property name="resource">voice/bbb/bbb_056_当然，クロスケーブ….wav</property>
    <property name="mlt_service">avformat-novalidate</property>
    <property name="meta.media.nb_streams">1</property>
    <property name="meta.media.0.stream.type">audio</property>
    <property name="meta.media.0.codec.sample_fmt">s16</property>
    <property name="meta.media.0.codec.sample_rate">24000</property>
    <property name="meta.media.0.codec.channels">1</property>
    <property name="meta.media.0.codec.name">pcm_s16le</property>
    <property name="meta.media.0.codec.long_name">PCM signed 16-bit little-endian</property>
    <property name="meta.media.0.codec.bit_rate">384000</property>
    <property name="seekable">1</property>
    <property name="audio_index">0</property>
    <property name="video_index">-1</property>
    <property name="creation_time">2023-12-15T04:07:10</property>
    <property name="astream">0</property>
    <property name="shotcut:skipConvert">1</property>
    <property name="xml">was here</property>
    <property name="shotcut:hash">62b4e15f8503d7ebbd27e4a13ca2c895</property>
  </chain>
  <chain id="chain333" out="00:00:06.960">
    <property name="length">00:00:07.000</property>
    <property name="eof">pause</property>
    <property name="resource">voice/bbb/bbb_057_LANケーブルとし….wav</property>
    <property name="mlt_service">avformat-novalidate</property>
    <property name="meta.media.nb_streams">1</property>
    <property name="meta.media.0.stream.type">audio</property>
    <property name="meta.media.0.codec.sample_fmt">s16</property>
    <property name="meta.media.0.codec.sample_rate">24000</property>
    <property name="meta.media.0.codec.channels">1</property>
    <property name="meta.media.0.codec.name">pcm_s16le</property>
    <property name="meta.media.0.codec.long_name">PCM signed 16-bit little-endian</property>
    <property name="meta.media.0.codec.bit_rate">384000</property>
    <property name="seekable">1</property>
    <property name="audio_index">0</property>
    <property name="video_index">-1</property>
    <property name="creation_time">2023-12-15T04:07:08</property>
    <property name="astream">0</property>
    <property name="shotcut:skipConvert">1</property>
    <property name="xml">was here</property>
    <property name="shotcut:hash">ad3c4c7f367458e8a88b8fa73aeca16c</property>
    <property name="shotcut:caption">bbb_057_LANケーブルとし….wav</property>
  </chain>
  <chain id="chain336" out="00:00:04.680">
    <property name="length">00:00:04.720</property>
    <property name="eof">pause</property>
    <property name="resource">voice/bbb/bbb_060_さっきよりも手こず….wav</property>
    <property name="mlt_service">avformat-novalidate</property>
    <property name="meta.media.nb_streams">1</property>
    <property name="meta.media.0.stream.type">audio</property>
    <property name="meta.media.0.codec.sample_fmt">s16</property>
    <property name="meta.media.0.codec.sample_rate">24000</property>
    <property name="meta.media.0.codec.channels">1</property>
    <property name="meta.media.0.codec.name">pcm_s16le</property>
    <property name="meta.media.0.codec.long_name">PCM signed 16-bit little-endian</property>
    <property name="meta.media.0.codec.bit_rate">384000</property>
    <property name="seekable">1</property>
    <property name="audio_index">0</property>
    <property name="video_index">-1</property>
    <property name="creation_time">2023-12-15T04:07:11</property>
    <property name="astream">0</property>
    <property name="shotcut:skipConvert">1</property>
    <property name="xml">was here</property>
    <property name="shotcut:hash">c14fcba97698b03b4729e4565201398f</property>
    <property name="shotcut:caption">bbb_060_さっきよりも手こず….wav</property>
  </chain>
  <chain id="chain339" out="00:00:07.320">
    <property name="length">00:00:07.360</property>
    <property name="eof">pause</property>
    <property name="resource">voice/bbb/bbb_063_はい，みなさんの応….wav</property>
    <property name="mlt_service">avformat-novalidate</property>
    <property name="meta.media.nb_streams">1</property>
    <property name="meta.media.0.stream.type">audio</property>
    <property name="meta.media.0.codec.sample_fmt">s16</property>
    <property name="meta.media.0.codec.sample_rate">24000</property>
    <property name="meta.media.0.codec.channels">1</property>
    <property name="meta.media.0.codec.name">pcm_s16le</property>
    <property name="meta.media.0.codec.long_name">PCM signed 16-bit little-endian</property>
    <property name="meta.media.0.codec.bit_rate">384000</property>
    <property name="seekable">1</property>
    <property name="audio_index">0</property>
    <property name="video_index">-1</property>
    <property name="creation_time">2023-12-15T04:07:24</property>
    <property name="astream">0</property>
    <property name="shotcut:skipConvert">1</property>
    <property name="xml">was here</property>
    <property name="shotcut:hash">92dbdfd3e81bf65e6856d03cc3557319</property>
    <property name="shotcut:caption">bbb_063_はい，みなさんの応….wav</property>
  </chain>
  <chain id="chain341" out="00:00:04.240">
    <property name="length">00:00:04.280</property>
    <property name="eof">pause</property>
    <property name="resource">voice/bbb/bbb_066_一応線の長さを整え….wav</property>
    <property name="mlt_service">avformat-novalidate</property>
    <property name="meta.media.nb_streams">1</property>
    <property name="meta.media.0.stream.type">audio</property>
    <property name="meta.media.0.codec.sample_fmt">s16</property>
    <property name="meta.media.0.codec.sample_rate">24000</property>
    <property name="meta.media.0.codec.channels">1</property>
    <property name="meta.media.0.codec.name">pcm_s16le</property>
    <property name="meta.media.0.codec.long_name">PCM signed 16-bit little-endian</property>
    <property name="meta.media.0.codec.bit_rate">384000</property>
    <property name="seekable">1</property>
    <property name="audio_index">0</property>
    <property name="video_index">-1</property>
    <property name="creation_time">2023-12-15T04:07:24</property>
    <property name="astream">0</property>
    <property name="shotcut:skipConvert">1</property>
    <property name="xml">was here</property>
    <property name="shotcut:hash">10c583a94c3f018e539550e89c393951</property>
    <property name="shotcut:caption">bbb_066_一応線の長さを整え….wav</property>
  </chain>
  <chain id="chain342" out="00:00:04.400">
    <property name="length">00:00:04.440</property>
    <property name="eof">pause</property>
    <property name="resource">voice/bbb/bbb_067_みなさんこれらの導….wav</property>
    <property name="mlt_service">avformat-novalidate</property>
    <property name="meta.media.nb_streams">1</property>
    <property name="meta.media.0.stream.type">audio</property>
    <property name="meta.media.0.codec.sample_fmt">s16</property>
    <property name="meta.media.0.codec.sample_rate">24000</property>
    <property name="meta.media.0.codec.channels">1</property>
    <property name="meta.media.0.codec.name">pcm_s16le</property>
    <property name="meta.media.0.codec.long_name">PCM signed 16-bit little-endian</property>
    <property name="meta.media.0.codec.bit_rate">384000</property>
    <property name="seekable">1</property>
    <property name="audio_index">0</property>
    <property name="video_index">-1</property>
    <property name="creation_time">2023-12-15T04:07:25</property>
    <property name="astream">0</property>
    <property name="shotcut:skipConvert">1</property>
    <property name="xml">was here</property>
    <property name="shotcut:hash">e5a0baf6ded8d2dfd7aa523c3cd883fc</property>
    <property name="shotcut:caption">bbb_067_みなさんこれらの導….wav</property>
  </chain>
  <chain id="chain343" out="00:00:06.800">
    <property name="length">00:00:06.840</property>
    <property name="eof">pause</property>
    <property name="resource">voice/bbb/bbb_068_実はこの8本の導線….wav</property>
    <property name="mlt_service">avformat-novalidate</property>
    <property name="meta.media.nb_streams">1</property>
    <property name="meta.media.0.stream.type">audio</property>
    <property name="meta.media.0.codec.sample_fmt">s16</property>
    <property name="meta.media.0.codec.sample_rate">24000</property>
    <property name="meta.media.0.codec.channels">1</property>
    <property name="meta.media.0.codec.name">pcm_s16le</property>
    <property name="meta.media.0.codec.long_name">PCM signed 16-bit little-endian</property>
    <property name="meta.media.0.codec.bit_rate">384000</property>
    <property name="seekable">1</property>
    <property name="audio_index">0</property>
    <property name="video_index">-1</property>
    <property name="creation_time">2023-12-15T04:07:31</property>
    <property name="astream">0</property>
    <property name="shotcut:skipConvert">1</property>
    <property name="xml">was here</property>
    <property name="shotcut:hash">1c4c39d07306b361daf01f3639a917f1</property>
  </chain>
  <chain id="chain344" out="00:00:05.240">
    <property name="length">00:00:05.280</property>
    <property name="eof">pause</property>
    <property name="resource">voice/bbb/bbb_069_この部分まで達して….wav</property>
    <property name="mlt_service">avformat-novalidate</property>
    <property name="meta.media.nb_streams">1</property>
    <property name="meta.media.0.stream.type">audio</property>
    <property name="meta.media.0.codec.sample_fmt">s16</property>
    <property name="meta.media.0.codec.sample_rate">24000</property>
    <property name="meta.media.0.codec.channels">1</property>
    <property name="meta.media.0.codec.name">pcm_s16le</property>
    <property name="meta.media.0.codec.long_name">PCM signed 16-bit little-endian</property>
    <property name="meta.media.0.codec.bit_rate">384000</property>
    <property name="seekable">1</property>
    <property name="audio_index">0</property>
    <property name="video_index">-1</property>
    <property name="creation_time">2023-12-15T04:07:33</property>
    <property name="astream">0</property>
    <property name="shotcut:skipConvert">1</property>
    <property name="xml">was here</property>
    <property name="shotcut:hash">06819db60085fffc31caafa8a15d628b</property>
  </chain>
  <chain id="chain345" out="00:00:05.480">
    <property name="length">00:00:05.520</property>
    <property name="eof">pause</property>
    <property name="resource">voice/bbb/bbb_070_機器との接続はその….wav</property>
    <property name="mlt_service">avformat-novalidate</property>
    <property name="meta.media.nb_streams">1</property>
    <property name="meta.media.0.stream.type">audio</property>
    <property name="meta.media.0.codec.sample_fmt">s16</property>
    <property name="meta.media.0.codec.sample_rate">24000</property>
    <property name="meta.media.0.codec.channels">1</property>
    <property name="meta.media.0.codec.name">pcm_s16le</property>
    <property name="meta.media.0.codec.long_name">PCM signed 16-bit little-endian</property>
    <property name="meta.media.0.codec.bit_rate">384000</property>
    <property name="seekable">1</property>
    <property name="audio_index">0</property>
    <property name="video_index">-1</property>
    <property name="creation_time">2023-12-15T04:07:32</property>
    <property name="astream">0</property>
    <property name="shotcut:skipConvert">1</property>
    <property name="xml">was here</property>
    <property name="shotcut:hash">2d3dff5d159f4aa738e8877db1c933cc</property>
    <property name="shotcut:caption">bbb_070_機器との接続はその….wav</property>
  </chain>
  <chain id="chain346" out="00:00:05.800">
    <property name="length">00:00:05.840</property>
    <property name="eof">pause</property>
    <property name="resource">voice/bbb/bbb_071_その部分に達するだ….wav</property>
    <property name="mlt_service">avformat-novalidate</property>
    <property name="meta.media.nb_streams">1</property>
    <property name="meta.media.0.stream.type">audio</property>
    <property name="meta.media.0.codec.sample_fmt">s16</property>
    <property name="meta.media.0.codec.sample_rate">24000</property>
    <property name="meta.media.0.codec.channels">1</property>
    <property name="meta.media.0.codec.name">pcm_s16le</property>
    <property name="meta.media.0.codec.long_name">PCM signed 16-bit little-endian</property>
    <property name="meta.media.0.codec.bit_rate">384000</property>
    <property name="seekable">1</property>
    <property name="audio_index">0</property>
    <property name="video_index">-1</property>
    <property name="creation_time">2023-12-15T04:07:42</property>
    <property name="astream">0</property>
    <property name="shotcut:skipConvert">1</property>
    <property name="xml">was here</property>
    <property name="shotcut:hash">0b1755b663db1ab353f072fd3fc4c9bd</property>
  </chain>
  <chain id="chain347" out="00:00:10.600">
    <property name="length">00:00:10.640</property>
    <property name="eof">pause</property>
    <property name="resource">voice/bbb/bbb_072_なぜなら，後の工程….wav</property>
    <property name="mlt_service">avformat-novalidate</property>
    <property name="meta.media.nb_streams">1</property>
    <property name="meta.media.0.stream.type">audio</property>
    <property name="meta.media.0.codec.sample_fmt">s16</property>
    <property name="meta.media.0.codec.sample_rate">24000</property>
    <property name="meta.media.0.codec.channels">1</property>
    <property name="meta.media.0.codec.name">pcm_s16le</property>
    <property name="meta.media.0.codec.long_name">PCM signed 16-bit little-endian</property>
    <property name="meta.media.0.codec.bit_rate">384000</property>
    <property name="seekable">1</property>
    <property name="audio_index">0</property>
    <property name="video_index">-1</property>
    <property name="creation_time">2023-12-15T04:07:51</property>
    <property name="astream">0</property>
    <property name="shotcut:skipConvert">1</property>
    <property name="xml">was here</property>
    <property name="shotcut:hash">4e8e2047a06f7c8820aba6e4191cf8d1</property>
  </chain>
  <chain id="chain348" out="00:00:04.000">
    <property name="length">00:00:04.040</property>
    <property name="eof">pause</property>
    <property name="resource">voice/bbb/bbb_073_これで，LANケー….wav</property>
    <property name="mlt_service">avformat-novalidate</property>
    <property name="meta.media.nb_streams">1</property>
    <property name="meta.media.0.stream.type">audio</property>
    <property name="meta.media.0.codec.sample_fmt">s16</property>
    <property name="meta.media.0.codec.sample_rate">24000</property>
    <property name="meta.media.0.codec.channels">1</property>
    <property name="meta.media.0.codec.name">pcm_s16le</property>
    <property name="meta.media.0.codec.long_name">PCM signed 16-bit little-endian</property>
    <property name="meta.media.0.codec.bit_rate">384000</property>
    <property name="seekable">1</property>
    <property name="audio_index">0</property>
    <property name="video_index">-1</property>
    <property name="creation_time">2023-12-15T04:07:39</property>
    <property name="astream">0</property>
    <property name="shotcut:skipConvert">1</property>
    <property name="xml">was here</property>
    <property name="shotcut:hash">9b78a9dccb407931bb800bfe71ee43c3</property>
  </chain>
  <chain id="chain349" out="00:00:07.720">
    <property name="length">00:00:07.760</property>
    <property name="eof">pause</property>
    <property name="resource">voice/bbb/bbb_074_つまり，導線の先端….wav</property>
    <property name="mlt_service">avformat-novalidate</property>
    <property name="meta.media.nb_streams">1</property>
    <property name="meta.media.0.stream.type">audio</property>
    <property name="meta.media.0.codec.sample_fmt">s16</property>
    <property name="meta.media.0.codec.sample_rate">24000</property>
    <property name="meta.media.0.codec.channels">1</property>
    <property name="meta.media.0.codec.name">pcm_s16le</property>
    <property name="meta.media.0.codec.long_name">PCM signed 16-bit little-endian</property>
    <property name="meta.media.0.codec.bit_rate">384000</property>
    <property name="seekable">1</property>
    <property name="audio_index">0</property>
    <property name="video_index">-1</property>
    <property name="creation_time">2023-12-15T04:07:53</property>
    <property name="astream">0</property>
    <property name="shotcut:skipConvert">1</property>
    <property name="xml">was here</property>
    <property name="shotcut:hash">5c3c969d650113fcaaa9ebc2cae17ee7</property>
  </chain>
  <chain id="chain221" out="00:00:02.160">
    <property name="length">00:00:02.200</property>
    <property name="eof">pause</property>
    <property name="resource">voice/zzz/003_雨晴はう（ノーマル）_話は本編に戻りまし….wav</property>
    <property name="mlt_service">avformat-novalidate</property>
    <property name="meta.media.nb_streams">1</property>
    <property name="meta.media.0.stream.type">audio</property>
    <property name="meta.media.0.codec.sample_fmt">s16</property>
    <property name="meta.media.0.codec.sample_rate">24000</property>
    <property name="meta.media.0.codec.channels">1</property>
    <property name="meta.media.0.codec.name">pcm_s16le</property>
    <property name="meta.media.0.codec.long_name">PCM signed 16-bit little-endian</property>
    <property name="meta.media.0.codec.bit_rate">384000</property>
    <property name="seekable">1</property>
    <property name="audio_index">0</property>
    <property name="video_index">-1</property>
    <property name="creation_time">2023-12-20T00:20:47</property>
    <property name="astream">0</property>
    <property name="shotcut:hash">8da3ee2f2b19735fc926cfb7de18699e</property>
    <property name="shotcut:caption">003_雨晴はう（ノーマル）_話は本編に戻りまし….wav</property>
    <property name="xml">was here</property>
  </chain>
  <chain id="chain352" out="00:00:02.640">
    <property name="length">00:00:02.680</property>
    <property name="eof">pause</property>
    <property name="resource">voice/bbb/bbb_077_あとはモジュールを….wav</property>
    <property name="mlt_service">avformat-novalidate</property>
    <property name="meta.media.nb_streams">1</property>
    <property name="meta.media.0.stream.type">audio</property>
    <property name="meta.media.0.codec.sample_fmt">s16</property>
    <property name="meta.media.0.codec.sample_rate">24000</property>
    <property name="meta.media.0.codec.channels">1</property>
    <property name="meta.media.0.codec.name">pcm_s16le</property>
    <property name="meta.media.0.codec.long_name">PCM signed 16-bit little-endian</property>
    <property name="meta.media.0.codec.bit_rate">384000</property>
    <property name="seekable">1</property>
    <property name="audio_index">0</property>
    <property name="video_index">-1</property>
    <property name="creation_time">2023-12-15T04:07:49</property>
    <property name="astream">0</property>
    <property name="shotcut:skipConvert">1</property>
    <property name="xml">was here</property>
    <property name="shotcut:hash">2ed10f702e0bb54c9161ec25db08bb69</property>
    <property name="shotcut:caption">bbb_077_あとはモジュールを….wav</property>
  </chain>
  <chain id="chain353" out="00:00:08.120">
    <property name="length">00:00:08.160</property>
    <property name="eof">pause</property>
    <property name="resource">voice/bbb/bbb_078_実は，配線がうまく….wav</property>
    <property name="mlt_service">avformat-novalidate</property>
    <property name="meta.media.nb_streams">1</property>
    <property name="meta.media.0.stream.type">audio</property>
    <property name="meta.media.0.codec.sample_fmt">s16</property>
    <property name="meta.media.0.codec.sample_rate">24000</property>
    <property name="meta.media.0.codec.channels">1</property>
    <property name="meta.media.0.codec.name">pcm_s16le</property>
    <property name="meta.media.0.codec.long_name">PCM signed 16-bit little-endian</property>
    <property name="meta.media.0.codec.bit_rate">384000</property>
    <property name="seekable">1</property>
    <property name="audio_index">0</property>
    <property name="video_index">-1</property>
    <property name="creation_time">2023-12-15T04:07:59</property>
    <property name="astream">0</property>
    <property name="shotcut:skipConvert">1</property>
    <property name="xml">was here</property>
    <property name="shotcut:hash">6d3d1bb32e22872a8d414073ed442934</property>
  </chain>
  <chain id="chain354" out="00:00:01.200">
    <property name="length">00:00:01.240</property>
    <property name="eof">pause</property>
    <property name="resource">voice/bbb/bbb_079_不思議ですよね．.wav</property>
    <property name="mlt_service">avformat-novalidate</property>
    <property name="meta.media.nb_streams">1</property>
    <property name="meta.media.0.stream.type">audio</property>
    <property name="meta.media.0.codec.sample_fmt">s16</property>
    <property name="meta.media.0.codec.sample_rate">24000</property>
    <property name="meta.media.0.codec.channels">1</property>
    <property name="meta.media.0.codec.name">pcm_s16le</property>
    <property name="meta.media.0.codec.long_name">PCM signed 16-bit little-endian</property>
    <property name="meta.media.0.codec.bit_rate">384000</property>
    <property name="seekable">1</property>
    <property name="audio_index">0</property>
    <property name="video_index">-1</property>
    <property name="creation_time">2023-12-15T04:07:46</property>
    <property name="astream">0</property>
    <property name="shotcut:skipConvert">1</property>
    <property name="xml">was here</property>
    <property name="shotcut:hash">e158486458af293ce3c6de2ec9441dcd</property>
    <property name="shotcut:caption">bbb_079_不思議ですよね．.wav</property>
  </chain>
  <chain id="chain358" out="00:00:05.320">
    <property name="length">00:00:05.360</property>
    <property name="eof">pause</property>
    <property name="resource">voice/bbb/bbb_083_さて，モジュールの….wav</property>
    <property name="mlt_service">avformat-novalidate</property>
    <property name="meta.media.nb_streams">1</property>
    <property name="meta.media.0.stream.type">audio</property>
    <property name="meta.media.0.codec.sample_fmt">s16</property>
    <property name="meta.media.0.codec.sample_rate">24000</property>
    <property name="meta.media.0.codec.channels">1</property>
    <property name="meta.media.0.codec.name">pcm_s16le</property>
    <property name="meta.media.0.codec.long_name">PCM signed 16-bit little-endian</property>
    <property name="meta.media.0.codec.bit_rate">384000</property>
    <property name="seekable">1</property>
    <property name="audio_index">0</property>
    <property name="video_index">-1</property>
    <property name="creation_time">2023-12-15T04:08:04</property>
    <property name="astream">0</property>
    <property name="shotcut:skipConvert">1</property>
    <property name="xml">was here</property>
    <property name="shotcut:hash">2c4ffd10c156f04b4d548777e3b13c1e</property>
    <property name="shotcut:caption">bbb_083_さて，モジュールの….wav</property>
  </chain>
  <chain id="chain355" out="00:00:03.800">
    <property name="length">00:00:03.840</property>
    <property name="eof">pause</property>
    <property name="resource">voice/bbb/bbb_080_特に語ることが無い….wav</property>
    <property name="mlt_service">avformat-novalidate</property>
    <property name="meta.media.nb_streams">1</property>
    <property name="meta.media.0.stream.type">audio</property>
    <property name="meta.media.0.codec.sample_fmt">s16</property>
    <property name="meta.media.0.codec.sample_rate">24000</property>
    <property name="meta.media.0.codec.channels">1</property>
    <property name="meta.media.0.codec.name">pcm_s16le</property>
    <property name="meta.media.0.codec.long_name">PCM signed 16-bit little-endian</property>
    <property name="meta.media.0.codec.bit_rate">384000</property>
    <property name="seekable">1</property>
    <property name="audio_index">0</property>
    <property name="video_index">-1</property>
    <property name="creation_time">2023-12-15T04:07:55</property>
    <property name="astream">0</property>
    <property name="shotcut:skipConvert">1</property>
    <property name="xml">was here</property>
    <property name="shotcut:hash">b3b455671d25499ebee5d6b64a4ed186</property>
    <property name="shotcut:caption">bbb_080_特に語ることが無い….wav</property>
  </chain>
  <chain id="chain361" out="00:00:03.520">
    <property name="length">00:00:03.560</property>
    <property name="eof">pause</property>
    <property name="resource">voice/bbb/bbb_086_最後はテスターで確….wav</property>
    <property name="mlt_service">avformat-novalidate</property>
    <property name="meta.media.nb_streams">1</property>
    <property name="meta.media.0.stream.type">audio</property>
    <property name="meta.media.0.codec.sample_fmt">s16</property>
    <property name="meta.media.0.codec.sample_rate">24000</property>
    <property name="meta.media.0.codec.channels">1</property>
    <property name="meta.media.0.codec.name">pcm_s16le</property>
    <property name="meta.media.0.codec.long_name">PCM signed 16-bit little-endian</property>
    <property name="meta.media.0.codec.bit_rate">384000</property>
    <property name="seekable">1</property>
    <property name="audio_index">0</property>
    <property name="video_index">-1</property>
    <property name="creation_time">2023-12-15T04:08:05</property>
    <property name="astream">0</property>
    <property name="shotcut:skipConvert">1</property>
    <property name="xml">was here</property>
    <property name="shotcut:hash">13e63aaf95a14f71eff8ef3679dd9776</property>
    <property name="shotcut:caption">bbb_086_最後はテスターで確….wav</property>
  </chain>
  <chain id="chain364" out="00:00:02.280">
    <property name="length">00:00:02.320</property>
    <property name="eof">pause</property>
    <property name="resource">voice/bbb/bbb_089_はい．ここでタイマ….wav</property>
    <property name="mlt_service">avformat-novalidate</property>
    <property name="meta.media.nb_streams">1</property>
    <property name="meta.media.0.stream.type">audio</property>
    <property name="meta.media.0.codec.sample_fmt">s16</property>
    <property name="meta.media.0.codec.sample_rate">24000</property>
    <property name="meta.media.0.codec.channels">1</property>
    <property name="meta.media.0.codec.name">pcm_s16le</property>
    <property name="meta.media.0.codec.long_name">PCM signed 16-bit little-endian</property>
    <property name="meta.media.0.codec.bit_rate">384000</property>
    <property name="seekable">1</property>
    <property name="audio_index">0</property>
    <property name="video_index">-1</property>
    <property name="creation_time">2023-12-15T04:08:06</property>
    <property name="astream">0</property>
    <property name="shotcut:skipConvert">1</property>
    <property name="xml">was here</property>
    <property name="shotcut:hash">ce3e6d1f8b7021768bd6600dc8592e3b</property>
    <property name="shotcut:caption">bbb_089_はい．ここでタイマ….wav</property>
  </chain>
  <chain id="chain367" out="00:00:01.400">
    <property name="length">00:00:01.440</property>
    <property name="eof">pause</property>
    <property name="resource">voice/bbb/bbb_092_乾燥した乾燥.wav</property>
    <property name="mlt_service">avformat-novalidate</property>
    <property name="meta.media.nb_streams">1</property>
    <property name="meta.media.0.stream.type">audio</property>
    <property name="meta.media.0.codec.sample_fmt">s16</property>
    <property name="meta.media.0.codec.sample_rate">24000</property>
    <property name="meta.media.0.codec.channels">1</property>
    <property name="meta.media.0.codec.name">pcm_s16le</property>
    <property name="meta.media.0.codec.long_name">PCM signed 16-bit little-endian</property>
    <property name="meta.media.0.codec.bit_rate">384000</property>
    <property name="seekable">1</property>
    <property name="audio_index">0</property>
    <property name="video_index">-1</property>
    <property name="creation_time">2023-12-15T04:08:10</property>
    <property name="astream">0</property>
    <property name="shotcut:skipConvert">1</property>
    <property name="xml">was here</property>
    <property name="shotcut:hash">4f82bed3cb9f45a83f7eed6bc4c5819d</property>
    <property name="shotcut:caption">bbb_092_乾燥した乾燥.wav</property>
  </chain>
  <chain id="chain368" out="00:00:09.120">
    <property name="length">00:00:09.160</property>
    <property name="eof">pause</property>
    <property name="resource">voice/bbb/bbb_093_うぷぬしがあーるじ….wav</property>
    <property name="mlt_service">avformat-novalidate</property>
    <property name="meta.media.nb_streams">1</property>
    <property name="meta.media.0.stream.type">audio</property>
    <property name="meta.media.0.codec.sample_fmt">s16</property>
    <property name="meta.media.0.codec.sample_rate">24000</property>
    <property name="meta.media.0.codec.channels">1</property>
    <property name="meta.media.0.codec.name">pcm_s16le</property>
    <property name="meta.media.0.codec.long_name">PCM signed 16-bit little-endian</property>
    <property name="meta.media.0.codec.bit_rate">384000</property>
    <property name="seekable">1</property>
    <property name="audio_index">0</property>
    <property name="video_index">-1</property>
    <property name="creation_time">2023-12-15T04:08:28</property>
    <property name="astream">0</property>
    <property name="shotcut:skipConvert">1</property>
    <property name="xml">was here</property>
    <property name="shotcut:hash">c3527ee51881db80426917ddc2373942</property>
  </chain>
  <chain id="chain369" out="00:00:07.680">
    <property name="length">00:00:07.720</property>
    <property name="eof">pause</property>
    <property name="resource">voice/bbb/bbb_094_ちなみに，この動画….wav</property>
    <property name="mlt_service">avformat-novalidate</property>
    <property name="meta.media.nb_streams">1</property>
    <property name="meta.media.0.stream.type">audio</property>
    <property name="meta.media.0.codec.sample_fmt">s16</property>
    <property name="meta.media.0.codec.sample_rate">24000</property>
    <property name="meta.media.0.codec.channels">1</property>
    <property name="meta.media.0.codec.name">pcm_s16le</property>
    <property name="meta.media.0.codec.long_name">PCM signed 16-bit little-endian</property>
    <property name="meta.media.0.codec.bit_rate">384000</property>
    <property name="seekable">1</property>
    <property name="audio_index">0</property>
    <property name="video_index">-1</property>
    <property name="creation_time">2023-12-15T04:08:26</property>
    <property name="astream">0</property>
    <property name="shotcut:skipConvert">1</property>
    <property name="xml">was here</property>
    <property name="shotcut:hash">77e0c587344fe2e9da1a57af47161a3f</property>
  </chain>
  <chain id="chain370" out="00:00:04.600">
    <property name="length">00:00:04.640</property>
    <property name="eof">pause</property>
    <property name="resource">voice/bbb/bbb_095_うぷぬしの興味のあ….wav</property>
    <property name="mlt_service">avformat-novalidate</property>
    <property name="meta.media.nb_streams">1</property>
    <property name="meta.media.0.stream.type">audio</property>
    <property name="meta.media.0.codec.sample_fmt">s16</property>
    <property name="meta.media.0.codec.sample_rate">24000</property>
    <property name="meta.media.0.codec.channels">1</property>
    <property name="meta.media.0.codec.name">pcm_s16le</property>
    <property name="meta.media.0.codec.long_name">PCM signed 16-bit little-endian</property>
    <property name="meta.media.0.codec.bit_rate">384000</property>
    <property name="seekable">1</property>
    <property name="audio_index">0</property>
    <property name="video_index">-1</property>
    <property name="creation_time">2023-12-15T04:08:19</property>
    <property name="astream">0</property>
    <property name="shotcut:skipConvert">1</property>
    <property name="xml">was here</property>
    <property name="shotcut:hash">f5899dc88fd745a3790a274f7b800550</property>
  </chain>
  <chain id="chain222" out="00:00:03.200">
    <property name="length">00:00:03.240</property>
    <property name="eof">pause</property>
    <property name="resource">voice/zzz/005_雨晴はう（ノーマル）_ちょっと前ではきょ….wav</property>
    <property name="mlt_service">avformat-novalidate</property>
    <property name="meta.media.nb_streams">1</property>
    <property name="meta.media.0.stream.type">audio</property>
    <property name="meta.media.0.codec.sample_fmt">s16</property>
    <property name="meta.media.0.codec.sample_rate">24000</property>
    <property name="meta.media.0.codec.channels">1</property>
    <property name="meta.media.0.codec.name">pcm_s16le</property>
    <property name="meta.media.0.codec.long_name">PCM signed 16-bit little-endian</property>
    <property name="meta.media.0.codec.bit_rate">384000</property>
    <property name="seekable">1</property>
    <property name="audio_index">0</property>
    <property name="video_index">-1</property>
    <property name="creation_time">2023-12-20T02:59:50</property>
    <property name="astream">0</property>
    <property name="shotcut:hash">b90dbb261cfd7660c454e34d038dd7a9</property>
    <property name="shotcut:caption">005_雨晴はう（ノーマル）_ちょっと前ではきょ….wav</property>
  </chain>
  <chain id="chain372" out="00:00:06.160">
    <property name="length">00:00:06.200</property>
    <property name="eof">pause</property>
    <property name="resource">voice/bbb/bbb_097_まあ，今はもっぱら….wav</property>
    <property name="mlt_service">avformat-novalidate</property>
    <property name="meta.media.nb_streams">1</property>
    <property name="meta.media.0.stream.type">audio</property>
    <property name="meta.media.0.codec.sample_fmt">s16</property>
    <property name="meta.media.0.codec.sample_rate">24000</property>
    <property name="meta.media.0.codec.channels">1</property>
    <property name="meta.media.0.codec.name">pcm_s16le</property>
    <property name="meta.media.0.codec.long_name">PCM signed 16-bit little-endian</property>
    <property name="meta.media.0.codec.bit_rate">384000</property>
    <property name="seekable">1</property>
    <property name="audio_index">0</property>
    <property name="video_index">-1</property>
    <property name="creation_time">2023-12-15T04:08:24</property>
    <property name="astream">0</property>
    <property name="shotcut:skipConvert">1</property>
    <property name="xml">was here</property>
    <property name="shotcut:hash">135b488358509518326a31be1b2257c9</property>
  </chain>
  <chain id="chain373" out="00:00:02.360">
    <property name="length">00:00:02.400</property>
    <property name="eof">pause</property>
    <property name="resource">voice/bbb/bbb_098_是非うぷぬしに話し….wav</property>
    <property name="mlt_service">avformat-novalidate</property>
    <property name="meta.media.nb_streams">1</property>
    <property name="meta.media.0.stream.type">audio</property>
    <property name="meta.media.0.codec.sample_fmt">s16</property>
    <property name="meta.media.0.codec.sample_rate">24000</property>
    <property name="meta.media.0.codec.channels">1</property>
    <property name="meta.media.0.codec.name">pcm_s16le</property>
    <property name="meta.media.0.codec.long_name">PCM signed 16-bit little-endian</property>
    <property name="meta.media.0.codec.bit_rate">384000</property>
    <property name="seekable">1</property>
    <property name="audio_index">0</property>
    <property name="video_index">-1</property>
    <property name="creation_time">2023-12-15T04:08:20</property>
    <property name="astream">0</property>
    <property name="shotcut:skipConvert">1</property>
    <property name="xml">was here</property>
    <property name="shotcut:hash">ba973ee542d6516efdaa053e8c01aa87</property>
  </chain>
  <chain id="chain374" out="00:00:10.880">
    <property name="length">00:00:10.920</property>
    <property name="eof">pause</property>
    <property name="resource">voice/bbb/bbb_099_一応この動画で述べ….wav</property>
    <property name="mlt_service">avformat-novalidate</property>
    <property name="meta.media.nb_streams">1</property>
    <property name="meta.media.0.stream.type">audio</property>
    <property name="meta.media.0.codec.sample_fmt">s16</property>
    <property name="meta.media.0.codec.sample_rate">24000</property>
    <property name="meta.media.0.codec.channels">1</property>
    <property name="meta.media.0.codec.name">pcm_s16le</property>
    <property name="meta.media.0.codec.long_name">PCM signed 16-bit little-endian</property>
    <property name="meta.media.0.codec.bit_rate">384000</property>
    <property name="seekable">1</property>
    <property name="audio_index">0</property>
    <property name="video_index">-1</property>
    <property name="creation_time">2023-12-15T04:08:48</property>
    <property name="astream">0</property>
    <property name="shotcut:skipConvert">1</property>
    <property name="xml">was here</property>
    <property name="shotcut:hash">ab3348a13219ebec6206c35c05170efc</property>
  </chain>
  <chain id="chain375" out="00:00:11.040">
    <property name="length">00:00:11.080</property>
    <property name="eof">pause</property>
    <property name="resource">voice/bbb/bbb_100_一つ目．LANケー….wav</property>
    <property name="mlt_service">avformat-novalidate</property>
    <property name="meta.media.nb_streams">1</property>
    <property name="meta.media.0.stream.type">audio</property>
    <property name="meta.media.0.codec.sample_fmt">s16</property>
    <property name="meta.media.0.codec.sample_rate">24000</property>
    <property name="meta.media.0.codec.channels">1</property>
    <property name="meta.media.0.codec.name">pcm_s16le</property>
    <property name="meta.media.0.codec.long_name">PCM signed 16-bit little-endian</property>
    <property name="meta.media.0.codec.bit_rate">384000</property>
    <property name="seekable">1</property>
    <property name="audio_index">0</property>
    <property name="video_index">-1</property>
    <property name="creation_time">2023-12-15T04:08:50</property>
    <property name="astream">0</property>
    <property name="shotcut:skipConvert">1</property>
    <property name="xml">was here</property>
    <property name="shotcut:hash">4cc09aa6812831a10b36f5da05a52076</property>
  </chain>
  <chain id="chain376" out="00:00:07.400">
    <property name="length">00:00:07.440</property>
    <property name="eof">pause</property>
    <property name="resource">voice/bbb/bbb_101_二つ目．LANケー….wav</property>
    <property name="mlt_service">avformat-novalidate</property>
    <property name="meta.media.nb_streams">1</property>
    <property name="meta.media.0.stream.type">audio</property>
    <property name="meta.media.0.codec.sample_fmt">s16</property>
    <property name="meta.media.0.codec.sample_rate">24000</property>
    <property name="meta.media.0.codec.channels">1</property>
    <property name="meta.media.0.codec.name">pcm_s16le</property>
    <property name="meta.media.0.codec.long_name">PCM signed 16-bit little-endian</property>
    <property name="meta.media.0.codec.bit_rate">384000</property>
    <property name="seekable">1</property>
    <property name="audio_index">0</property>
    <property name="video_index">-1</property>
    <property name="creation_time">2023-12-15T04:08:43</property>
    <property name="astream">0</property>
    <property name="shotcut:skipConvert">1</property>
    <property name="xml">was here</property>
    <property name="shotcut:hash">2eb7d21e15273ac780f232bc33cd15f5</property>
  </chain>
  <chain id="chain377" out="00:00:08.680">
    <property name="length">00:00:08.720</property>
    <property name="eof">pause</property>
    <property name="resource">voice/bbb/bbb_102_三つ目．LANケー….wav</property>
    <property name="mlt_service">avformat-novalidate</property>
    <property name="meta.media.nb_streams">1</property>
    <property name="meta.media.0.stream.type">audio</property>
    <property name="meta.media.0.codec.sample_fmt">s16</property>
    <property name="meta.media.0.codec.sample_rate">24000</property>
    <property name="meta.media.0.codec.channels">1</property>
    <property name="meta.media.0.codec.name">pcm_s16le</property>
    <property name="meta.media.0.codec.long_name">PCM signed 16-bit little-endian</property>
    <property name="meta.media.0.codec.bit_rate">384000</property>
    <property name="seekable">1</property>
    <property name="audio_index">0</property>
    <property name="video_index">-1</property>
    <property name="creation_time">2023-12-15T04:08:50</property>
    <property name="astream">0</property>
    <property name="shotcut:skipConvert">1</property>
    <property name="xml">was here</property>
    <property name="shotcut:hash">e46d0fdec6985d67204e273e21334135</property>
  </chain>
  <chain id="chain378" out="00:00:08.440">
    <property name="length">00:00:08.480</property>
    <property name="eof">pause</property>
    <property name="resource">voice/bbb/bbb_103_この動画をきっかけ….wav</property>
    <property name="mlt_service">avformat-novalidate</property>
    <property name="meta.media.nb_streams">1</property>
    <property name="meta.media.0.stream.type">audio</property>
    <property name="meta.media.0.codec.sample_fmt">s16</property>
    <property name="meta.media.0.codec.sample_rate">24000</property>
    <property name="meta.media.0.codec.channels">1</property>
    <property name="meta.media.0.codec.name">pcm_s16le</property>
    <property name="meta.media.0.codec.long_name">PCM signed 16-bit little-endian</property>
    <property name="meta.media.0.codec.bit_rate">384000</property>
    <property name="seekable">1</property>
    <property name="audio_index">0</property>
    <property name="video_index">-1</property>
    <property name="creation_time">2023-12-15T04:08:51</property>
    <property name="astream">0</property>
    <property name="shotcut:skipConvert">1</property>
    <property name="xml">was here</property>
    <property name="shotcut:hash">aee6ee207cd1b83ac036f6fd10056bb3</property>
  </chain>
  <chain id="chain379" out="00:00:04.080">
    <property name="length">00:00:04.120</property>
    <property name="eof">pause</property>
    <property name="resource">voice/bbb/bbb_104_以上で発表を終わり….wav</property>
    <property name="mlt_service">avformat-novalidate</property>
    <property name="meta.media.nb_streams">1</property>
    <property name="meta.media.0.stream.type">audio</property>
    <property name="meta.media.0.codec.sample_fmt">s16</property>
    <property name="meta.media.0.codec.sample_rate">24000</property>
    <property name="meta.media.0.codec.channels">1</property>
    <property name="meta.media.0.codec.name">pcm_s16le</property>
    <property name="meta.media.0.codec.long_name">PCM signed 16-bit little-endian</property>
    <property name="meta.media.0.codec.bit_rate">384000</property>
    <property name="seekable">1</property>
    <property name="audio_index">0</property>
    <property name="video_index">-1</property>
    <property name="creation_time">2023-12-15T04:08:45</property>
    <property name="astream">0</property>
    <property name="shotcut:skipConvert">1</property>
    <property name="xml">was here</property>
    <property name="shotcut:hash">b7dddbecd2218da7b89ad5b2ebe5d27a</property>
  </chain>
  <playlist id="playlist5">
    <property name="shotcut:audio">1</property>
    <property name="shotcut:name">Audio</property>
    <property name="shotcut:lock">1</property>
    <entry producer="chain198" in="00:00:00.000" out="00:00:02.960"/>
    <entry producer="chain199" in="00:00:00.000" out="00:00:01.200"/>
    <blank length="00:00:00.400"/>
    <entry producer="chain200" in="00:00:00.000" out="00:00:01.800"/>
    <entry producer="chain201" in="00:00:00.000" out="00:00:03.440"/>
    <blank length="00:00:00.400"/>
    <entry producer="chain202" in="00:00:00.000" out="00:00:11.280"/>
    <entry producer="chain203" in="00:00:00.000" out="00:00:04.960"/>
    <blank length="00:00:00.400"/>
    <entry producer="chain204" in="00:00:00.000" out="00:00:04.000"/>
    <blank length="00:00:00.400"/>
    <entry producer="chain205" in="00:00:00.000" out="00:00:08.120"/>
    <blank length="00:00:00.400"/>
    <entry producer="chain206" in="00:00:00.000" out="00:00:07.680"/>
    <blank length="00:00:00.400"/>
    <entry producer="chain207" in="00:00:00.000" out="00:00:07.720"/>
    <blank length="00:00:00.400"/>
    <entry producer="chain208" in="00:00:00.000" out="00:00:09.000"/>
    <blank length="00:00:00.400"/>
    <entry producer="chain209" in="00:00:00.000" out="00:00:11.760"/>
    <blank length="00:00:00.800"/>
    <entry producer="chain210" in="00:00:00.000" out="00:00:04.400"/>
    <blank length="00:00:00.400"/>
    <entry producer="chain211" in="00:00:00.000" out="00:00:06.480"/>
    <entry producer="chain212" in="00:00:00.000" out="00:00:07.760"/>
    <blank length="00:00:00.400"/>
    <entry producer="chain213" in="00:00:00.000" out="00:00:03.960"/>
    <blank length="00:00:00.400"/>
    <entry producer="producer75" in="00:00:00.000" out="00:00:02.240"/>
    <entry producer="producer76" in="00:00:00.000" out="00:00:02.000"/>
    <entry producer="producer77" in="00:00:00.000" out="00:00:03.480"/>
    <blank length="00:00:00.400"/>
    <entry producer="chain217" in="00:00:00.000" out="00:00:06.040"/>
    <blank length="00:00:00.400"/>
    <entry producer="chain218" in="00:00:00.000" out="00:00:06.040"/>
    <blank length="00:00:00.400"/>
    <entry producer="chain219" in="00:00:00.000" out="00:00:02.640"/>
    <entry producer="chain220" in="00:00:00.000" out="00:00:01.720"/>
    <blank length="00:00:00.400"/>
    <entry producer="producer78" in="00:00:00.000" out="00:00:03.120"/>
    <entry producer="producer79" in="00:00:00.000" out="00:00:06.160"/>
    <entry producer="producer80" in="00:00:00.000" out="00:00:02.920"/>
    <entry producer="producer81" in="00:00:00.000" out="00:00:01.880"/>
    <blank length="00:00:00.400"/>
    <entry producer="chain225" in="00:00:00.000" out="00:00:05.280"/>
    <blank length="00:00:00.400"/>
    <entry producer="chain195" in="00:00:00.000" out="00:00:06.600"/>
    <blank length="00:00:00.080"/>
    <entry producer="chain227" in="00:00:00.000" out="00:00:05.040"/>
    <entry producer="chain228" in="00:00:00.000" out="00:00:02.880"/>
    <blank length="00:00:01.000"/>
    <entry producer="chain230" in="00:00:00.000" out="00:00:07.880"/>
    <blank length="00:00:00.400"/>
    <entry producer="chain231" in="00:00:00.000" out="00:00:06.640"/>
    <blank length="00:00:00.400"/>
    <entry producer="chain232" in="00:00:00.000" out="00:00:06.280"/>
    <blank length="00:00:00.400"/>
    <entry producer="chain233" in="00:00:00.000" out="00:00:02.360"/>
    <blank length="00:00:00.120"/>
    <entry producer="chain214" in="00:00:00.000" out="00:00:07.280"/>
    <blank length="00:00:00.120"/>
    <entry producer="chain235" in="00:00:00.000" out="00:00:08.720"/>
    <blank length="00:00:00.400"/>
    <entry producer="chain236" in="00:00:00.000" out="00:00:10.120"/>
    <blank length="00:00:00.400"/>
    <entry producer="chain237" in="00:00:00.000" out="00:00:07.200"/>
    <blank length="00:00:00.400"/>
    <entry producer="chain238" in="00:00:00.000" out="00:00:07.720"/>
    <blank length="00:00:00.400"/>
    <entry producer="chain239" in="00:00:00.000" out="00:00:04.880"/>
    <entry producer="chain240" in="00:00:00.000" out="00:00:03.400"/>
    <blank length="00:00:00.400"/>
    <entry producer="chain242" in="00:00:00.000" out="00:00:08.360"/>
    <blank length="00:00:01.000"/>
    <entry producer="chain243" in="00:00:00.000" out="00:00:04.560"/>
    <blank length="00:00:00.400"/>
    <entry producer="chain244" in="00:00:00.000" out="00:00:06.200"/>
    <entry producer="chain246" in="00:00:00.000" out="00:00:04.640"/>
    <blank length="00:00:00.400"/>
    <entry producer="chain247" in="00:00:00.000" out="00:00:01.840"/>
    <entry producer="chain248" in="00:00:00.000" out="00:00:02.080"/>
    <entry producer="chain249" in="00:00:00.000" out="00:00:00.720"/>
    <entry producer="chain250" in="00:00:00.000" out="00:00:01.800"/>
    <entry producer="chain251" in="00:00:00.000" out="00:00:02.280"/>
    <entry producer="chain252" in="00:00:00.000" out="00:00:01.440"/>
    <entry producer="chain253" in="00:00:00.000" out="00:00:01.760"/>
    <entry producer="chain254" in="00:00:00.000" out="00:00:00.760"/>
    <blank length="00:00:00.400"/>
    <entry producer="chain256" in="00:00:00.000" out="00:00:02.720"/>
    <entry producer="chain257" in="00:00:00.000" out="00:00:04.720"/>
    <entry producer="chain258" in="00:00:00.000" out="00:00:03.520"/>
    <blank length="00:00:00.400"/>
    <entry producer="chain259" in="00:00:00.000" out="00:00:02.840"/>
    <blank length="00:00:00.520"/>
    <entry producer="chain260" in="00:00:00.000" out="00:00:04.040"/>
    <blank length="00:00:01.160"/>
    <entry producer="chain261" in="00:00:00.000" out="00:00:03.640"/>
    <blank length="00:00:00.400"/>
    <entry producer="chain262" in="00:00:00.000" out="00:00:01.920"/>
    <blank length="00:00:00.320"/>
    <entry producer="chain265" in="00:00:00.000" out="00:00:05.080"/>
    <entry producer="chain266" in="00:00:00.000" out="00:00:04.440"/>
    <blank length="00:00:00.400"/>
    <entry producer="chain267" in="00:00:00.000" out="00:00:06.440"/>
    <blank length="00:00:00.400"/>
    <entry producer="chain270" in="00:00:00.000" out="00:00:03.360"/>
    <entry producer="chain271" in="00:00:00.000" out="00:00:09.560"/>
    <blank length="00:00:00.400"/>
    <entry producer="chain272" in="00:00:00.000" out="00:00:09.960"/>
    <entry producer="chain273" in="00:00:00.000" out="00:00:05.520"/>
    <blank length="00:00:00.400"/>
    <entry producer="chain274" in="00:00:00.000" out="00:00:07.920"/>
    <blank length="00:00:00.600"/>
    <entry producer="chain277" in="00:00:00.000" out="00:00:03.600"/>
    <entry producer="chain278" in="00:00:00.000" out="00:00:04.720"/>
    <blank length="00:00:00.360"/>
    <entry producer="chain281" in="00:00:00.000" out="00:00:07.120"/>
    <blank length="00:00:00.400"/>
    <entry producer="chain215" in="00:00:00.000" out="00:00:04.400"/>
    <blank length="00:00:00.080"/>
    <entry producer="chain216" in="00:00:00.000" out="00:00:03.560"/>
    <blank length="00:00:00.240"/>
    <entry producer="chain284" in="00:00:00.000" out="00:00:04.640"/>
    <entry producer="chain285" in="00:00:00.000" out="00:00:05.640"/>
    <entry producer="chain286" in="00:00:00.000" out="00:00:04.880"/>
    <blank length="00:00:00.400"/>
    <entry producer="chain287" in="00:00:00.000" out="00:00:04.920"/>
    <entry producer="chain288" in="00:00:00.000" out="00:00:02.360"/>
    <blank length="00:00:00.400"/>
    <entry producer="chain289" in="00:00:00.000" out="00:00:06.640"/>
    <blank length="00:00:00.400"/>
    <entry producer="chain290" in="00:00:00.000" out="00:00:09.440"/>
    <blank length="00:00:00.400"/>
    <entry producer="chain291" in="00:00:00.000" out="00:00:10.440"/>
    <blank length="00:00:00.400"/>
    <entry producer="chain294" in="00:00:00.000" out="00:00:01.880"/>
    <entry producer="chain295" in="00:00:00.000" out="00:00:07.120"/>
    <blank length="00:00:06.800"/>
    <entry producer="chain297" in="00:00:00.000" out="00:00:08.120"/>
    <blank length="00:00:00.400"/>
    <entry producer="chain298" in="00:00:00.000" out="00:00:09.200"/>
    <blank length="00:00:00.400"/>
    <entry producer="chain299" in="00:00:00.000" out="00:00:09.880"/>
    <blank length="00:00:11.840"/>
    <entry producer="chain302" in="00:00:00.000" out="00:00:03.880"/>
    <blank length="00:00:02.080"/>
    <entry producer="chain304" in="00:00:00.000" out="00:00:03.320"/>
    <blank length="00:00:00.400"/>
    <entry producer="chain305" in="00:00:00.000" out="00:00:05.480"/>
    <blank length="00:00:00.400"/>
    <entry producer="chain306" in="00:00:00.000" out="00:00:06.440"/>
    <blank length="00:00:00.400"/>
    <entry producer="chain307" in="00:00:00.000" out="00:00:07.240"/>
    <entry producer="chain308" in="00:00:00.000" out="00:00:05.960"/>
    <blank length="00:00:14.840"/>
    <entry producer="chain309" in="00:00:00.000" out="00:00:05.720"/>
    <blank length="00:00:00.600"/>
    <entry producer="chain312" in="00:00:00.000" out="00:00:03.080"/>
    <blank length="00:00:00.400"/>
    <entry producer="chain313" in="00:00:00.000" out="00:00:01.200"/>
    <blank length="00:00:00.440"/>
    <entry producer="chain315" in="00:00:00.000" out="00:00:02.920"/>
    <blank length="00:00:00.400"/>
    <entry producer="chain316" in="00:00:00.000" out="00:00:05.400"/>
    <blank length="00:00:00.400"/>
    <entry producer="chain317" in="00:00:00.000" out="00:00:04.800"/>
    <entry producer="chain318" in="00:00:00.000" out="00:00:05.360"/>
    <blank length="00:00:00.400"/>
    <entry producer="chain319" in="00:00:00.000" out="00:00:08.200"/>
    <blank length="00:00:00.400"/>
    <entry producer="chain320" in="00:00:00.000" out="00:00:09.360"/>
    <entry producer="chain321" in="00:00:00.000" out="00:00:06.040"/>
    <blank length="00:00:00.400"/>
    <entry producer="chain322" in="00:00:00.000" out="00:00:04.560"/>
    <blank length="00:00:00.400"/>
    <entry producer="chain323" in="00:00:00.000" out="00:00:02.720"/>
    <entry producer="chain324" in="00:00:00.000" out="00:00:06.520"/>
    <entry producer="chain325" in="00:00:00.000" out="00:00:03.720"/>
    <entry producer="chain326" in="00:00:00.000" out="00:00:04.600"/>
    <blank length="00:00:00.400"/>
    <entry producer="chain327" in="00:00:00.000" out="00:00:05.600"/>
    <entry producer="chain328" in="00:00:00.000" out="00:00:05.680"/>
    <blank length="00:00:00.400"/>
    <entry producer="chain329" in="00:00:00.000" out="00:00:09.120"/>
    <blank length="00:00:00.400"/>
    <entry producer="chain330" in="00:00:00.000" out="00:00:07.000"/>
    <entry producer="chain331" in="00:00:00.000" out="00:00:06.440"/>
    <blank length="00:00:00.400"/>
    <entry producer="chain332" in="00:00:00.000" out="00:00:10.160"/>
    <entry producer="chain333" in="00:00:00.000" out="00:00:06.960"/>
    <blank length="00:00:00.440"/>
    <entry producer="chain336" in="00:00:00.000" out="00:00:04.680"/>
    <blank length="00:00:10.040"/>
    <entry producer="chain339" in="00:00:00.000" out="00:00:07.320"/>
    <blank length="00:00:00.320"/>
    <entry producer="chain341" in="00:00:00.000" out="00:00:04.240"/>
    <entry producer="chain342" in="00:00:00.000" out="00:00:04.400"/>
    <blank length="00:00:00.400"/>
    <entry producer="chain343" in="00:00:00.000" out="00:00:06.800"/>
    <blank length="00:00:00.400"/>
    <entry producer="chain344" in="00:00:00.000" out="00:00:05.240"/>
    <entry producer="chain345" in="00:00:00.000" out="00:00:05.480"/>
    <blank length="00:00:00.400"/>
    <entry producer="chain346" in="00:00:00.000" out="00:00:05.800"/>
    <blank length="00:00:00.400"/>
    <entry producer="chain347" in="00:00:00.000" out="00:00:10.600"/>
    <blank length="00:00:00.400"/>
    <entry producer="chain348" in="00:00:00.000" out="00:00:04.000"/>
    <blank length="00:00:00.400"/>
    <entry producer="chain349" in="00:00:00.000" out="00:00:07.720"/>
    <blank length="00:00:00.400"/>
    <entry producer="chain221" in="00:00:00.000" out="00:00:02.160"/>
    <blank length="00:00:00.040"/>
    <entry producer="chain352" in="00:00:00.000" out="00:00:02.640"/>
    <blank length="00:00:00.400"/>
    <entry producer="chain353" in="00:00:00.000" out="00:00:08.120"/>
    <blank length="00:00:00.400"/>
    <entry producer="chain354" in="00:00:00.000" out="00:00:01.200"/>
    <blank length="00:00:00.440"/>
    <entry producer="chain358" in="00:00:00.000" out="00:00:05.320"/>
    <blank length="00:00:00.440"/>
    <entry producer="chain355" in="00:00:00.000" out="00:00:03.800"/>
    <blank length="00:00:07.080"/>
    <entry producer="chain361" in="00:00:00.000" out="00:00:03.520"/>
    <blank length="00:00:08.160"/>
    <entry producer="chain364" in="00:00:00.000" out="00:00:02.280"/>
    <blank length="00:00:00.840"/>
    <entry producer="chain367" in="00:00:00.000" out="00:00:01.400"/>
    <blank length="00:00:00.400"/>
    <entry producer="chain368" in="00:00:00.000" out="00:00:09.120"/>
    <blank length="00:00:00.400"/>
    <entry producer="chain369" in="00:00:00.000" out="00:00:07.680"/>
    <blank length="00:00:00.400"/>
    <entry producer="chain370" in="00:00:00.000" out="00:00:04.600"/>
    <blank length="00:00:00.440"/>
    <entry producer="chain222" in="00:00:00.000" out="00:00:03.200"/>
    <blank length="00:00:00.480"/>
    <entry producer="chain372" in="00:00:00.000" out="00:00:06.160"/>
    <blank length="00:00:00.400"/>
    <entry producer="chain373" in="00:00:00.000" out="00:00:02.360"/>
    <blank length="00:00:00.400"/>
    <entry producer="chain374" in="00:00:00.000" out="00:00:10.880"/>
    <blank length="00:00:00.400"/>
    <entry producer="chain375" in="00:00:00.000" out="00:00:11.040"/>
    <blank length="00:00:00.400"/>
    <entry producer="chain376" in="00:00:00.000" out="00:00:07.400"/>
    <blank length="00:00:00.400"/>
    <entry producer="chain377" in="00:00:00.000" out="00:00:08.680"/>
    <blank length="00:00:00.400"/>
    <entry producer="chain378" in="00:00:00.000" out="00:00:08.440"/>
    <blank length="00:00:00.400"/>
    <entry producer="chain379" in="00:00:00.000" out="00:00:04.080"/>
  </playlist>
  <chain id="chain223" out="00:00:00.680">
    <property name="length">00:00:00.720</property>
    <property name="eof">pause</property>
    <property name="resource">bgm/cut.mp3</property>
    <property name="mlt_service">avformat-novalidate</property>
    <property name="meta.media.nb_streams">1</property>
    <property name="meta.media.0.stream.type">audio</property>
    <property name="meta.media.0.codec.sample_fmt">fltp</property>
    <property name="meta.media.0.codec.sample_rate">44100</property>
    <property name="meta.media.0.codec.channels">2</property>
    <property name="meta.media.0.codec.name">mp3float</property>
    <property name="meta.media.0.codec.long_name">MP3 (MPEG audio layer 3)</property>
    <property name="meta.media.0.codec.bit_rate">192000</property>
    <property name="meta.attr.0.stream.encoder.markup">LAME3.100</property>
    <property name="seekable">1</property>
    <property name="audio_index">0</property>
    <property name="video_index">-1</property>
    <property name="creation_time">2023-12-18T01:31:22</property>
    <property name="astream">0</property>
    <property name="shotcut:hash">5f0b9b9f58c550735f8a1906a8873436</property>
    <property name="shotcut:caption">cut.mp3</property>
    <property name="xml">was here</property>
  </chain>
  <chain id="chain224" out="00:00:00.680">
    <property name="length">00:00:00.720</property>
    <property name="eof">pause</property>
    <property name="resource">bgm/cut.mp3</property>
    <property name="mlt_service">avformat-novalidate</property>
    <property name="meta.media.nb_streams">1</property>
    <property name="meta.media.0.stream.type">audio</property>
    <property name="meta.media.0.codec.sample_fmt">fltp</property>
    <property name="meta.media.0.codec.sample_rate">44100</property>
    <property name="meta.media.0.codec.channels">2</property>
    <property name="meta.media.0.codec.name">mp3float</property>
    <property name="meta.media.0.codec.long_name">MP3 (MPEG audio layer 3)</property>
    <property name="meta.media.0.codec.bit_rate">192000</property>
    <property name="meta.attr.0.stream.encoder.markup">LAME3.100</property>
    <property name="seekable">1</property>
    <property name="audio_index">0</property>
    <property name="video_index">-1</property>
    <property name="creation_time">2023-12-18T01:31:22</property>
    <property name="astream">0</property>
    <property name="shotcut:hash">5f0b9b9f58c550735f8a1906a8873436</property>
    <property name="shotcut:caption">cut.mp3</property>
    <property name="xml">was here</property>
  </chain>
  <chain id="chain226" out="00:00:01.200">
    <property name="length">00:00:01.240</property>
    <property name="eof">pause</property>
    <property name="resource">bgm/cutting.mp3</property>
    <property name="mlt_service">avformat-novalidate</property>
    <property name="meta.media.nb_streams">1</property>
    <property name="meta.media.0.stream.type">audio</property>
    <property name="meta.media.0.codec.sample_fmt">fltp</property>
    <property name="meta.media.0.codec.sample_rate">44100</property>
    <property name="meta.media.0.codec.channels">2</property>
    <property name="meta.media.0.codec.name">mp3float</property>
    <property name="meta.media.0.codec.long_name">MP3 (MPEG audio layer 3)</property>
    <property name="meta.media.0.codec.bit_rate">192000</property>
    <property name="meta.attr.0.stream.encoder.markup">LAME3.100</property>
    <property name="seekable">1</property>
    <property name="audio_index">0</property>
    <property name="video_index">-1</property>
    <property name="creation_time">2023-12-18T04:33:37</property>
    <property name="astream">0</property>
    <property name="shotcut:hash">21f3a8304c864b26a6664b990377f8a5</property>
    <property name="shotcut:caption">cutting.mp3</property>
    <property name="xml">was here</property>
  </chain>
  <chain id="chain229" out="00:00:00.680">
    <property name="length">00:00:00.720</property>
    <property name="eof">pause</property>
    <property name="resource">bgm/cut.mp3</property>
    <property name="mlt_service">avformat-novalidate</property>
    <property name="meta.media.nb_streams">1</property>
    <property name="meta.media.0.stream.type">audio</property>
    <property name="meta.media.0.codec.sample_fmt">fltp</property>
    <property name="meta.media.0.codec.sample_rate">44100</property>
    <property name="meta.media.0.codec.channels">2</property>
    <property name="meta.media.0.codec.name">mp3float</property>
    <property name="meta.media.0.codec.long_name">MP3 (MPEG audio layer 3)</property>
    <property name="meta.media.0.codec.bit_rate">192000</property>
    <property name="meta.attr.0.stream.encoder.markup">LAME3.100</property>
    <property name="seekable">1</property>
    <property name="audio_index">0</property>
    <property name="video_index">-1</property>
    <property name="creation_time">2023-12-18T01:31:22</property>
    <property name="astream">0</property>
    <property name="shotcut:hash">5f0b9b9f58c550735f8a1906a8873436</property>
    <property name="shotcut:caption">cut.mp3</property>
    <property name="xml">was here</property>
  </chain>
  <chain id="chain234" out="00:00:01.880">
    <property name="length">00:00:01.920</property>
    <property name="eof">pause</property>
    <property name="resource">voice/Camera-Phone01-mp3/Camera-Phone01-1.mp3</property>
    <property name="mlt_service">avformat-novalidate</property>
    <property name="meta.media.nb_streams">1</property>
    <property name="meta.media.0.stream.type">audio</property>
    <property name="meta.media.0.codec.sample_fmt">fltp</property>
    <property name="meta.media.0.codec.sample_rate">44100</property>
    <property name="meta.media.0.codec.channels">2</property>
    <property name="meta.media.0.codec.name">mp3float</property>
    <property name="meta.media.0.codec.long_name">MP3 (MPEG audio layer 3)</property>
    <property name="meta.media.0.codec.bit_rate">53296</property>
    <property name="meta.attr.0.stream.encoder.markup">LAME3.99r</property>
    <property name="meta.attr.artist.markup">OtoLogic</property>
    <property name="meta.attr.title.markup">Camera-Phone01-1</property>
    <property name="meta.attr.album.markup">OtoLogic-SE</property>
    <property name="seekable">1</property>
    <property name="audio_index">0</property>
    <property name="video_index">-1</property>
    <property name="creation_time">2018-09-29T06:29:02</property>
    <property name="astream">0</property>
    <property name="shotcut:hash">afe0096e4d211c08c1cbb6e79bb4e0f3</property>
    <property name="shotcut:caption">Camera-Phone01-1.mp3</property>
  </chain>
  <chain id="chain241" out="00:00:01.880">
    <property name="length">00:00:01.920</property>
    <property name="eof">pause</property>
    <property name="resource">voice/Camera-Phone01-mp3/Camera-Phone01-1.mp3</property>
    <property name="mlt_service">avformat-novalidate</property>
    <property name="meta.media.nb_streams">1</property>
    <property name="meta.media.0.stream.type">audio</property>
    <property name="meta.media.0.codec.sample_fmt">fltp</property>
    <property name="meta.media.0.codec.sample_rate">44100</property>
    <property name="meta.media.0.codec.channels">2</property>
    <property name="meta.media.0.codec.name">mp3float</property>
    <property name="meta.media.0.codec.long_name">MP3 (MPEG audio layer 3)</property>
    <property name="meta.media.0.codec.bit_rate">53296</property>
    <property name="meta.attr.0.stream.encoder.markup">LAME3.99r</property>
    <property name="meta.attr.artist.markup">OtoLogic</property>
    <property name="meta.attr.title.markup">Camera-Phone01-1</property>
    <property name="meta.attr.album.markup">OtoLogic-SE</property>
    <property name="seekable">1</property>
    <property name="audio_index">0</property>
    <property name="video_index">-1</property>
    <property name="creation_time">2018-09-29T06:29:02</property>
    <property name="astream">0</property>
    <property name="shotcut:hash">afe0096e4d211c08c1cbb6e79bb4e0f3</property>
    <property name="shotcut:caption">Camera-Phone01-1.mp3</property>
    <property name="xml">was here</property>
  </chain>
  <playlist id="playlist6">
    <property name="shotcut:audio">1</property>
    <property name="shotcut:name">SE</property>
    <property name="shotcut:lock">1</property>
    <blank length="00:01:18.120"/>
    <entry producer="chain223" in="00:00:00.000" out="00:00:00.680"/>
    <blank length="00:01:25.120"/>
    <entry producer="chain224" in="00:00:00.000" out="00:00:00.680"/>
    <blank length="00:01:24.520"/>
    <entry producer="chain226" in="00:00:00.000" out="00:00:01.200"/>
    <blank length="00:00:49.480"/>
    <entry producer="chain229" in="00:00:00.000" out="00:00:00.680"/>
    <blank length="00:00:26.040"/>
    <entry producer="chain234" in="00:00:00.000" out="00:00:01.880"/>
    <blank length="00:00:09.400"/>
    <entry producer="chain241" in="00:00:00.000" out="00:00:01.880"/>
  </playlist>
  <chain id="chain245" out="00:03:11.840">
    <property name="length">00:03:11.880</property>
    <property name="eof">pause</property>
    <property name="resource">bgm/2_23_AM_2.mp3</property>
    <property name="mlt_service">avformat-novalidate</property>
    <property name="meta.media.nb_streams">1</property>
    <property name="meta.media.0.stream.type">audio</property>
    <property name="meta.media.0.codec.sample_fmt">fltp</property>
    <property name="meta.media.0.codec.sample_rate">44100</property>
    <property name="meta.media.0.codec.channels">2</property>
    <property name="meta.media.0.codec.name">mp3float</property>
    <property name="meta.media.0.codec.long_name">MP3 (MPEG audio layer 3)</property>
    <property name="meta.media.0.codec.bit_rate">320000</property>
    <property name="meta.attr.title.markup">2:23 AM(LOOP)</property>
    <property name="meta.attr.comment.markup">210217</property>
    <property name="meta.attr.artist.markup">しゃろう</property>
    <property name="seekable">1</property>
    <property name="audio_index">0</property>
    <property name="video_index">-1</property>
    <property name="creation_time">2023-12-20T03:47:48</property>
    <property name="astream">0</property>
    <property name="shotcut:hash">f8e8e9aed59e5408ee08b798eeeec43a</property>
    <property name="shotcut:caption">2_23_AM_2.mp3</property>
    <filter id="filter248" out="00:02:16.080">
      <property name="window">75</property>
      <property name="max_gain">20dB</property>
      <property name="level">-26.2</property>
      <property name="mlt_service">volume</property>
    </filter>
    <filter id="filter249" out="00:02:16.080">
      <property name="window">75</property>
      <property name="max_gain">20dB</property>
      <property name="level">00:00:00.000=-60;00:00:02.120=0</property>
      <property name="mlt_service">volume</property>
      <property name="shotcut:filter">fadeInVolume</property>
      <property name="shotcut:animIn">54</property>
    </filter>
  </chain>
  <chain id="chain255" out="00:01:32.120">
    <property name="length">00:01:32.160</property>
    <property name="eof">pause</property>
    <property name="resource">bgm/しゅわしゅわハニーレモン350ml_2.mp3</property>
    <property name="mlt_service">avformat-novalidate</property>
    <property name="meta.media.nb_streams">1</property>
    <property name="meta.media.0.stream.type">audio</property>
    <property name="meta.media.0.codec.sample_fmt">fltp</property>
    <property name="meta.media.0.codec.sample_rate">44100</property>
    <property name="meta.media.0.codec.channels">2</property>
    <property name="meta.media.0.codec.name">mp3float</property>
    <property name="meta.media.0.codec.long_name">MP3 (MPEG audio layer 3)</property>
    <property name="meta.media.0.codec.bit_rate">320000</property>
    <property name="meta.attr.title.markup">しゅわしゅわハニーレモン350ml(LOOP)</property>
    <property name="meta.attr.comment.markup">210615</property>
    <property name="meta.attr.artist.markup">しゃろう</property>
    <property name="seekable">1</property>
    <property name="audio_index">0</property>
    <property name="video_index">-1</property>
    <property name="creation_time">2023-12-20T06:56:08</property>
    <property name="astream">0</property>
    <property name="shotcut:hash">f3a9dd02aeacc1a0c3129c5502e9097e</property>
    <property name="shotcut:caption">しゅわしゅわハニーレモン350ml_2.mp3</property>
    <filter id="filter250" out="00:01:32.120">
      <property name="window">75</property>
      <property name="max_gain">20dB</property>
      <property name="level">-26.2</property>
      <property name="mlt_service">volume</property>
    </filter>
    <filter id="filter251" out="00:01:32.120">
      <property name="window">75</property>
      <property name="max_gain">20dB</property>
      <property name="level">00:00:00.000=-60;00:00:02.120=0</property>
      <property name="mlt_service">volume</property>
      <property name="shotcut:filter">fadeInVolume</property>
      <property name="shotcut:animIn">54</property>
    </filter>
  </chain>
  <chain id="chain263" out="00:01:32.120">
    <property name="length">00:01:32.160</property>
    <property name="eof">pause</property>
    <property name="resource">bgm/しゅわしゅわハニーレモン350ml_2.mp3</property>
    <property name="mlt_service">avformat-novalidate</property>
    <property name="meta.media.nb_streams">1</property>
    <property name="meta.media.0.stream.type">audio</property>
    <property name="meta.media.0.codec.sample_fmt">fltp</property>
    <property name="meta.media.0.codec.sample_rate">44100</property>
    <property name="meta.media.0.codec.channels">2</property>
    <property name="meta.media.0.codec.name">mp3float</property>
    <property name="meta.media.0.codec.long_name">MP3 (MPEG audio layer 3)</property>
    <property name="meta.media.0.codec.bit_rate">320000</property>
    <property name="meta.attr.title.markup">しゅわしゅわハニーレモン350ml(LOOP)</property>
    <property name="meta.attr.comment.markup">210615</property>
    <property name="meta.attr.artist.markup">しゃろう</property>
    <property name="seekable">1</property>
    <property name="audio_index">0</property>
    <property name="video_index">-1</property>
    <property name="creation_time">2023-12-20T06:56:08</property>
    <property name="astream">0</property>
    <property name="shotcut:hash">f3a9dd02aeacc1a0c3129c5502e9097e</property>
    <property name="shotcut:caption">しゅわしゅわハニーレモン350ml_2.mp3</property>
    <property name="xml">was here</property>
    <filter id="filter252" out="00:01:32.120">
      <property name="window">75</property>
      <property name="max_gain">20dB</property>
      <property name="level">-26.2</property>
      <property name="mlt_service">volume</property>
    </filter>
  </chain>
  <chain id="chain264" out="00:01:32.120">
    <property name="length">00:01:32.160</property>
    <property name="eof">pause</property>
    <property name="resource">bgm/しゅわしゅわハニーレモン350ml_2.mp3</property>
    <property name="mlt_service">avformat-novalidate</property>
    <property name="meta.media.nb_streams">1</property>
    <property name="meta.media.0.stream.type">audio</property>
    <property name="meta.media.0.codec.sample_fmt">fltp</property>
    <property name="meta.media.0.codec.sample_rate">44100</property>
    <property name="meta.media.0.codec.channels">2</property>
    <property name="meta.media.0.codec.name">mp3float</property>
    <property name="meta.media.0.codec.long_name">MP3 (MPEG audio layer 3)</property>
    <property name="meta.media.0.codec.bit_rate">320000</property>
    <property name="meta.attr.title.markup">しゅわしゅわハニーレモン350ml(LOOP)</property>
    <property name="meta.attr.comment.markup">210615</property>
    <property name="meta.attr.artist.markup">しゃろう</property>
    <property name="seekable">1</property>
    <property name="audio_index">0</property>
    <property name="video_index">-1</property>
    <property name="creation_time">2023-12-20T06:56:08</property>
    <property name="astream">0</property>
    <property name="shotcut:hash">f3a9dd02aeacc1a0c3129c5502e9097e</property>
    <property name="shotcut:caption">しゅわしゅわハニーレモン350ml_2.mp3</property>
    <property name="xml">was here</property>
    <filter id="filter253" out="00:01:32.120">
      <property name="window">75</property>
      <property name="max_gain">20dB</property>
      <property name="level">-26.2</property>
      <property name="mlt_service">volume</property>
    </filter>
  </chain>
  <chain id="chain268" out="00:01:32.120">
    <property name="length">00:01:32.160</property>
    <property name="eof">pause</property>
    <property name="resource">bgm/しゅわしゅわハニーレモン350ml_2.mp3</property>
    <property name="mlt_service">avformat-novalidate</property>
    <property name="meta.media.nb_streams">1</property>
    <property name="meta.media.0.stream.type">audio</property>
    <property name="meta.media.0.codec.sample_fmt">fltp</property>
    <property name="meta.media.0.codec.sample_rate">44100</property>
    <property name="meta.media.0.codec.channels">2</property>
    <property name="meta.media.0.codec.name">mp3float</property>
    <property name="meta.media.0.codec.long_name">MP3 (MPEG audio layer 3)</property>
    <property name="meta.media.0.codec.bit_rate">320000</property>
    <property name="meta.attr.title.markup">しゅわしゅわハニーレモン350ml(LOOP)</property>
    <property name="meta.attr.comment.markup">210615</property>
    <property name="meta.attr.artist.markup">しゃろう</property>
    <property name="seekable">1</property>
    <property name="audio_index">0</property>
    <property name="video_index">-1</property>
    <property name="creation_time">2023-12-20T06:56:08</property>
    <property name="astream">0</property>
    <property name="shotcut:hash">f3a9dd02aeacc1a0c3129c5502e9097e</property>
    <property name="shotcut:caption">しゅわしゅわハニーレモン350ml_2.mp3</property>
    <property name="xml">was here</property>
    <filter id="filter254" out="00:01:32.120">
      <property name="window">75</property>
      <property name="max_gain">20dB</property>
      <property name="level">-26.2</property>
      <property name="mlt_service">volume</property>
    </filter>
  </chain>
  <chain id="chain269" out="00:01:32.120">
    <property name="length">00:01:32.160</property>
    <property name="eof">pause</property>
    <property name="resource">bgm/しゅわしゅわハニーレモン350ml_2.mp3</property>
    <property name="mlt_service">avformat-novalidate</property>
    <property name="meta.media.nb_streams">1</property>
    <property name="meta.media.0.stream.type">audio</property>
    <property name="meta.media.0.codec.sample_fmt">fltp</property>
    <property name="meta.media.0.codec.sample_rate">44100</property>
    <property name="meta.media.0.codec.channels">2</property>
    <property name="meta.media.0.codec.name">mp3float</property>
    <property name="meta.media.0.codec.long_name">MP3 (MPEG audio layer 3)</property>
    <property name="meta.media.0.codec.bit_rate">320000</property>
    <property name="meta.attr.title.markup">しゅわしゅわハニーレモン350ml(LOOP)</property>
    <property name="meta.attr.comment.markup">210615</property>
    <property name="meta.attr.artist.markup">しゃろう</property>
    <property name="seekable">1</property>
    <property name="audio_index">0</property>
    <property name="video_index">-1</property>
    <property name="creation_time">2023-12-20T06:56:08</property>
    <property name="astream">0</property>
    <property name="shotcut:hash">f3a9dd02aeacc1a0c3129c5502e9097e</property>
    <property name="shotcut:caption">しゅわしゅわハニーレモン350ml_2.mp3</property>
    <property name="xml">was here</property>
    <filter id="filter255" out="00:01:32.120">
      <property name="window">75</property>
      <property name="max_gain">20dB</property>
      <property name="level">-26.2</property>
      <property name="mlt_service">volume</property>
    </filter>
  </chain>
  <chain id="chain275" out="00:01:32.120">
    <property name="length">00:01:32.160</property>
    <property name="eof">pause</property>
    <property name="resource">bgm/しゅわしゅわハニーレモン350ml_2.mp3</property>
    <property name="mlt_service">avformat-novalidate</property>
    <property name="meta.media.nb_streams">1</property>
    <property name="meta.media.0.stream.type">audio</property>
    <property name="meta.media.0.codec.sample_fmt">fltp</property>
    <property name="meta.media.0.codec.sample_rate">44100</property>
    <property name="meta.media.0.codec.channels">2</property>
    <property name="meta.media.0.codec.name">mp3float</property>
    <property name="meta.media.0.codec.long_name">MP3 (MPEG audio layer 3)</property>
    <property name="meta.media.0.codec.bit_rate">320000</property>
    <property name="meta.attr.title.markup">しゅわしゅわハニーレモン350ml(LOOP)</property>
    <property name="meta.attr.comment.markup">210615</property>
    <property name="meta.attr.artist.markup">しゃろう</property>
    <property name="seekable">1</property>
    <property name="audio_index">0</property>
    <property name="video_index">-1</property>
    <property name="creation_time">2023-12-20T06:56:08</property>
    <property name="astream">0</property>
    <property name="shotcut:hash">f3a9dd02aeacc1a0c3129c5502e9097e</property>
    <property name="shotcut:caption">しゅわしゅわハニーレモン350ml_2.mp3</property>
    <property name="xml">was here</property>
    <filter id="filter256" out="00:00:41.240">
      <property name="window">75</property>
      <property name="max_gain">20dB</property>
      <property name="level">-26.2</property>
      <property name="mlt_service">volume</property>
    </filter>
    <filter id="filter257" out="00:00:41.240">
      <property name="window">75</property>
      <property name="max_gain">20dB</property>
      <property name="level">00:00:40.280=0;00:00:41.240=-60</property>
      <property name="mlt_service">volume</property>
      <property name="shotcut:filter">fadeOutVolume</property>
      <property name="shotcut:animOut">00:00:01.000</property>
    </filter>
  </chain>
  <chain id="chain276" out="00:00:48.000">
    <property name="length">00:00:48.040</property>
    <property name="eof">pause</property>
    <property name="resource">bgm/野良猫は宇宙を目指した_2.mp3</property>
    <property name="mlt_service">avformat-novalidate</property>
    <property name="meta.media.nb_streams">1</property>
    <property name="meta.media.0.stream.type">audio</property>
    <property name="meta.media.0.codec.sample_fmt">fltp</property>
    <property name="meta.media.0.codec.sample_rate">44100</property>
    <property name="meta.media.0.codec.channels">2</property>
    <property name="meta.media.0.codec.name">mp3float</property>
    <property name="meta.media.0.codec.long_name">MP3 (MPEG audio layer 3)</property>
    <property name="meta.media.0.codec.bit_rate">320000</property>
    <property name="meta.attr.title.markup">野良猫は宇宙を目指した(LOOP)</property>
    <property name="meta.attr.comment.markup">210624</property>
    <property name="meta.attr.artist.markup">しゃろう</property>
    <property name="seekable">1</property>
    <property name="audio_index">0</property>
    <property name="video_index">-1</property>
    <property name="creation_time">2023-12-20T06:57:31</property>
    <property name="astream">0</property>
    <property name="shotcut:hash">275df178e4db7504de9bf2176a277e68</property>
    <property name="shotcut:caption">野良猫は宇宙を目指した_2.mp3</property>
    <filter id="filter258" out="00:00:48.000">
      <property name="window">75</property>
      <property name="max_gain">20dB</property>
      <property name="level">-26.2</property>
      <property name="mlt_service">volume</property>
    </filter>
    <filter id="filter259" out="00:00:48.000">
      <property name="window">75</property>
      <property name="max_gain">20dB</property>
      <property name="level">00:00:00.000=-60;00:00:02.120=0</property>
      <property name="mlt_service">volume</property>
      <property name="shotcut:filter">fadeInVolume</property>
      <property name="shotcut:animIn">54</property>
    </filter>
  </chain>
  <chain id="chain279" out="00:00:48.000">
    <property name="length">00:00:48.040</property>
    <property name="eof">pause</property>
    <property name="resource">bgm/野良猫は宇宙を目指した_2.mp3</property>
    <property name="mlt_service">avformat-novalidate</property>
    <property name="meta.media.nb_streams">1</property>
    <property name="meta.media.0.stream.type">audio</property>
    <property name="meta.media.0.codec.sample_fmt">fltp</property>
    <property name="meta.media.0.codec.sample_rate">44100</property>
    <property name="meta.media.0.codec.channels">2</property>
    <property name="meta.media.0.codec.name">mp3float</property>
    <property name="meta.media.0.codec.long_name">MP3 (MPEG audio layer 3)</property>
    <property name="meta.media.0.codec.bit_rate">320000</property>
    <property name="meta.attr.title.markup">野良猫は宇宙を目指した(LOOP)</property>
    <property name="meta.attr.comment.markup">210624</property>
    <property name="meta.attr.artist.markup">しゃろう</property>
    <property name="seekable">1</property>
    <property name="audio_index">0</property>
    <property name="video_index">-1</property>
    <property name="creation_time">2023-12-20T06:57:31</property>
    <property name="astream">0</property>
    <property name="shotcut:hash">275df178e4db7504de9bf2176a277e68</property>
    <property name="shotcut:caption">野良猫は宇宙を目指した_2.mp3</property>
    <property name="xml">was here</property>
    <filter id="filter260" out="00:00:48.000">
      <property name="window">75</property>
      <property name="max_gain">20dB</property>
      <property name="level">-26.2</property>
      <property name="mlt_service">volume</property>
    </filter>
    <filter id="filter261" out="00:00:48.000">
      <property name="window">75</property>
      <property name="max_gain">20dB</property>
      <property name="level">00:00:00.000=-60;00:00:02.120=0</property>
      <property name="mlt_service">volume</property>
      <property name="shotcut:filter">fadeInVolume</property>
      <property name="shotcut:animIn">54</property>
    </filter>
    <filter id="filter262" out="00:00:48.000">
      <property name="window">75</property>
      <property name="max_gain">20dB</property>
      <property name="level">00:00:43.800=0;00:00:48.000=-60</property>
      <property name="mlt_service">volume</property>
      <property name="shotcut:filter">fadeOutVolume</property>
      <property name="shotcut:animOut">106</property>
    </filter>
  </chain>
  <playlist id="playlist7">
    <property name="shotcut:audio">1</property>
    <property name="shotcut:name">BGM</property>
    <blank length="00:02:43.960"/>
    <entry producer="chain245" in="00:00:00.000" out="00:02:16.080"/>
    <entry producer="chain255" in="00:00:00.000" out="00:01:32.120"/>
    <entry producer="chain263" in="00:00:00.000" out="00:01:32.120"/>
    <entry producer="chain264" in="00:00:00.000" out="00:01:32.120"/>
    <entry producer="chain268" in="00:00:00.000" out="00:01:32.120"/>
    <entry producer="chain269" in="00:00:00.000" out="00:01:32.120"/>
    <entry producer="chain275" in="00:00:00.000" out="00:00:41.240"/>
    <entry producer="chain276" in="00:00:00.000" out="00:00:48.000"/>
    <entry producer="chain279" in="00:00:00.000" out="00:00:48.000"/>
  </playlist>
  <tractor id="tractor7" title="Shotcut version 23.11.29" in="00:00:00.000" out="00:14:58.200">
    <property name="shotcut">1</property>
    <property name="shotcut:projectAudioChannels">2</property>
    <property name="shotcut:projectFolder">1</property>
    <property name="shotcut:skipConvert">0</property>
    <property name="shotcut:scaleFactor">0.4011</property>
    <properties name="shotcut:markers">
      <properties name="0">
        <property name="text">Marker 1</property>
        <property name="start">00:00:00.000</property>
        <property name="end">00:00:00.000</property>
        <property name="color">#008000</property>
      </properties>
    </properties>
    <track producer="background"/>
    <track producer="playlist1"/>
    <track producer="playlist0"/>
    <track producer="playlist3" hide="audio"/>
    <track producer="playlist4" hide="audio"/>
    <track producer="playlist2"/>
    <track producer="playlist5" hide="video"/>
    <track producer="playlist6" hide="video"/>
    <track producer="playlist7" hide="video"/>
    <transition id="transition14">
      <property name="a_track">0</property>
      <property name="b_track">1</property>
      <property name="mlt_service">mix</property>
      <property name="always_active">1</property>
      <property name="sum">1</property>
    </transition>
    <transition id="transition15">
      <property name="a_track">0</property>
      <property name="b_track">1</property>
      <property name="version">0.1</property>
      <property name="mlt_service">frei0r.cairoblend</property>
      <property name="1">normal</property>
      <property name="disable">1</property>
    </transition>
    <transition id="transition16">
      <property name="a_track">0</property>
      <property name="b_track">2</property>
      <property name="mlt_service">mix</property>
      <property name="always_active">1</property>
      <property name="sum">1</property>
    </transition>
    <transition id="transition17">
      <property name="a_track">1</property>
      <property name="b_track">2</property>
      <property name="version">0.1</property>
      <property name="mlt_service">frei0r.cairoblend</property>
      <property name="1">normal</property>
      <property name="disable">0</property>
    </transition>
    <transition id="transition18">
      <property name="a_track">0</property>
      <property name="b_track">3</property>
      <property name="mlt_service">mix</property>
      <property name="always_active">1</property>
      <property name="sum">1</property>
    </transition>
    <transition id="transition19">
      <property name="a_track">1</property>
      <property name="b_track">3</property>
      <property name="version">0.1</property>
      <property name="mlt_service">frei0r.cairoblend</property>
      <property name="1">normal</property>
      <property name="disable">0</property>
    </transition>
    <transition id="transition20">
      <property name="a_track">0</property>
      <property name="b_track">4</property>
      <property name="mlt_service">mix</property>
      <property name="always_active">1</property>
      <property name="sum">1</property>
    </transition>
    <transition id="transition21">
      <property name="a_track">1</property>
      <property name="b_track">4</property>
      <property name="version">0.1</property>
      <property name="mlt_service">frei0r.cairoblend</property>
      <property name="1">normal</property>
      <property name="disable">0</property>
    </transition>
    <transition id="transition22">
      <property name="a_track">0</property>
      <property name="b_track">5</property>
      <property name="mlt_service">mix</property>
      <property name="always_active">1</property>
      <property name="sum">1</property>
    </transition>
    <transition id="transition23">
      <property name="a_track">1</property>
      <property name="b_track">5</property>
      <property name="version">0.1</property>
      <property name="mlt_service">frei0r.cairoblend</property>
      <property name="1">normal</property>
      <property name="disable">0</property>
    </transition>
    <transition id="transition24">
      <property name="a_track">0</property>
      <property name="b_track">6</property>
      <property name="mlt_service">mix</property>
      <property name="always_active">1</property>
      <property name="sum">1</property>
    </transition>
    <transition id="transition25">
      <property name="a_track">0</property>
      <property name="b_track">7</property>
      <property name="mlt_service">mix</property>
      <property name="always_active">1</property>
      <property name="sum">1</property>
    </transition>
    <transition id="transition26">
      <property name="a_track">0</property>
      <property name="b_track">8</property>
      <property name="mlt_service">mix</property>
      <property name="always_active">1</property>
      <property name="sum">1</property>
    </transition>
  </tractor>
</mlt>
